# iteration_02_cut_body.obj
o iteration_02_cut_body.obj
v 0.00000 -1.20000 0.00000
v 0.10820 -1.20000 0.01714
v 0.20581 -1.20000 0.06687
v 0.28327 -1.20000 0.14433
v 0.33300 -1.20000 0.24194
v 0.35014 -1.20000 0.35014
v 0.33300 -1.20000 0.45834
v 0.28327 -1.20000 0.55595
v 0.20581 -1.20000 0.63341
v 0.10820 -1.20000 0.68314
v 0.00000 -1.20000 0.70028
v -0.10820 -1.20000 0.68314
v -0.20581 -1.20000 0.63341
v -0.28327 -1.20000 0.55595
v -0.33300 -1.20000 0.45834
v -0.35014 -1.20000 0.35014
v -0.33300 -1.20000 0.24194
v -0.28327 -1.20000 0.14433
v -0.20581 -1.20000 0.06687
v -0.10820 -1.20000 0.01714
v -0.00000 -1.20000 0.00000
v 0.00000 -1.02857 0.00000
v 0.11191 -1.02857 0.01772
v 0.21020 -1.02857 0.06830
v 0.27745 -1.02857 0.14137
v 0.32186 -1.02857 0.23384
v 0.35028 -1.02857 0.35028
v 0.34442 -1.02857 0.47406
v 0.28932 -1.02857 0.56782
v 0.20158 -1.02857 0.62040
v 0.10458 -1.02857 0.66028
v 0.00000 -1.02857 0.70057
v -0.11191 -1.02857 0.70657
v -0.21020 -1.02857 0.64693
v -0.27745 -1.02857 0.54453
v -0.32186 -1.02857 0.44300
v -0.35028 -1.02857 0.35028
v -0.34442 -1.02857 0.25024
v -0.28932 -1.02857 0.14741
v -0.20158 -1.02857 0.06550
v -0.10458 -1.02857 0.01656
v -0.00000 -1.02857 0.00000
v 0.00000 -0.85714 0.00000
v 0.11412 -0.85714 0.01807
v 0.21289 -0.85714 0.06917
v 0.27445 -0.85714 0.13984
v 0.31588 -0.85714 0.22950
v 0.35071 -0.85714 0.35071
v 0.35121 -0.85714 0.48340
v 0.29302 -0.85714 0.57508
v 0.19940 -0.85714 0.61368
v 0.10264 -0.85714 0.64802
v 0.00000 -0.85714 0.70143
v -0.11412 -0.85714 0.72050
v -0.21289 -0.85714 0.65521
v -0.27445 -0.85714 0.53863
v -0.31588 -0.85714 0.43477
v -0.35071 -0.85714 0.35071
v -0.35121 -0.85714 0.25517
v -0.29302 -0.85714 0.14930
v -0.19940 -0.85714 0.06479
v -0.10264 -0.85714 0.01626
v -0.00000 -0.85714 0.00000
v 0.00000 -0.68571 0.00000
v 0.11391 -0.68571 0.01804
v 0.21281 -0.68571 0.06915
v 0.27571 -0.68571 0.14048
v 0.31787 -0.68571 0.23094
v 0.35143 -0.68571 0.35143
v 0.35059 -0.68571 0.48254
v 0.29291 -0.68571 0.57487
v 0.20032 -0.68571 0.61651
v 0.10328 -0.68571 0.65210
v 0.00000 -0.68571 0.70285
v -0.11391 -0.68571 0.71921
v -0.21281 -0.68571 0.65497
v -0.27571 -0.68571 0.54111
v -0.31787 -0.68571 0.43751
v -0.35143 -0.68571 0.35143
v -0.35059 -0.68571 0.25472
v -0.29291 -0.68571 0.14925
v -0.20032 -0.68571 0.06509
v -0.10328 -0.68571 0.01636
v -0.00000 -0.68571 0.00000
v 0.00000 -0.51429 0.00000
v 0.11147 -0.51429 0.01766
v 0.21017 -0.51429 0.06829
v 0.28097 -0.51429 0.14316
v 0.32728 -0.51429 0.23778
v 0.35243 -0.51429 0.35243
v 0.34308 -0.51429 0.47221
v 0.28927 -0.51429 0.56773
v 0.20413 -0.51429 0.62826
v 0.10634 -0.51429 0.67140
v 0.00000 -0.51429 0.70486
v -0.11147 -0.51429 0.70381
v -0.21017 -0.51429 0.64683
v -0.28097 -0.51429 0.55143
v -0.32728 -0.51429 0.45046
v -0.35243 -0.51429 0.35243
v -0.34308 -0.51429 0.24926
v -0.28927 -0.51429 0.14739
v -0.20413 -0.51429 0.06633
v -0.10634 -0.51429 0.01684
v -0.00000 -0.51429 0.00000
v 0.00000 -0.34286 0.00000
v 0.10798 -0.34286 0.01710
v 0.20635 -0.34286 0.06705
v 0.28830 -0.34286 0.14690
v 0.34047 -0.34286 0.24736
v 0.35371 -0.34286 0.35371
v 0.33234 -0.34286 0.45742
v 0.28402 -0.34286 0.55743
v 0.20946 -0.34286 0.64465
v 0.11062 -0.34286 0.69846
v 0.00000 -0.34286 0.70743
v -0.10798 -0.34286 0.68177
v -0.20635 -0.34286 0.63509
v -0.28830 -0.34286 0.56582
v -0.34047 -0.34286 0.46861
v -0.35371 -0.34286 0.35371
v -0.33234 -0.34286 0.24146
v -0.28402 -0.34286 0.14472
v -0.20946 -0.34286 0.06806
v -0.11062 -0.34286 0.01752
v -0.00000 -0.34286 0.00000
v 0.00000 -0.17143 0.00000
v 0.10513 -0.17143 0.01665
v 0.20335 -0.17143 0.06607
v 0.29498 -0.17143 0.15030
v 0.35225 -0.17143 0.25592
v 0.35529 -0.17143 0.35529
v 0.32355 -0.17143 0.44532
v 0.27989 -0.17143 0.54931
v 0.21431 -0.17143 0.65959
v 0.11445 -0.17143 0.72262
v 0.00000 -0.17143 0.71057
v -0.10513 -0.17143 0.66374
v -0.20335 -0.17143 0.62585
v -0.29498 -0.17143 0.57893
v -0.35225 -0.17143 0.48483
v -0.35529 -0.17143 0.35529
v -0.32355 -0.17143 0.23507
v -0.27989 -0.17143 0.14261
v -0.21431 -0.17143 0.06963
v -0.11445 -0.17143 0.01813
v -0.00000 -0.17143 0.00000
v 0.00000 0.00000 0.00000
v 0.10437 0.00000 0.01653
v 0.20288 0.00000 0.06592
v 0.29864 0.00000 0.15216
v 0.35812 0.00000 0.26019
v 0.35714 0.00000 0.35714
v 0.32121 0.00000 0.44211
v 0.27923 0.00000 0.54803
v 0.21697 0.00000 0.66777
v 0.11636 0.00000 0.73466
v 0.00000 0.00000 0.71429
v -0.10437 0.00000 0.65895
v -0.20288 0.00000 0.62439
v -0.29864 0.00000 0.58611
v -0.35812 0.00000 0.49290
v -0.35714 0.00000 0.35714
v -0.32121 0.00000 0.23337
v -0.27923 0.00000 0.14228
v -0.21697 0.00000 0.07050
v -0.11636 0.00000 0.01843
v -0.00000 0.00000 0.00000
v 0.00000 0.17143 0.00000
v 0.10631 0.17143 0.01684
v 0.20564 0.17143 0.06682
v 0.29830 0.17143 0.15199
v 0.35622 0.17143 0.25881
v 0.35929 0.17143 0.35929
v 0.32719 0.17143 0.45034
v 0.28304 0.17143 0.55550
v 0.21673 0.17143 0.66702
v 0.11574 0.17143 0.73076
v 0.00000 0.17143 0.71857
v -0.10631 0.17143 0.67122
v -0.20564 0.17143 0.63290
v -0.29830 0.17143 0.58545
v -0.35622 0.17143 0.49029
v -0.35929 0.17143 0.35929
v -0.32719 0.17143 0.23772
v -0.28304 0.17143 0.14422
v -0.21673 0.17143 0.07042
v -0.11574 0.17143 0.01833
v -0.00000 0.17143 0.00000
v 0.00000 0.34286 0.00000
v 0.11043 0.34286 0.01749
v 0.21102 0.34286 0.06857
v 0.29482 0.34286 0.15022
v 0.34817 0.34286 0.25296
v 0.36172 0.34286 0.36172
v 0.33985 0.34286 0.46777
v 0.29045 0.34286 0.57004
v 0.21420 0.34286 0.65924
v 0.11313 0.34286 0.71426
v 0.00000 0.34286 0.72343
v -0.11043 0.34286 0.69720
v -0.21102 0.34286 0.64946
v -0.29482 0.34286 0.57862
v -0.34817 0.34286 0.47922
v -0.36172 0.34286 0.36172
v -0.33985 0.34286 0.24692
v -0.29045 0.34286 0.14799
v -0.21420 0.34286 0.06960
v -0.11313 0.34286 0.01792
v -0.00000 0.34286 0.00000
v 0.00000 0.51429 0.00000
v 0.11527 0.51429 0.01826
v 0.21733 0.51429 0.07061
v 0.29054 0.51429 0.14804
v 0.33843 0.51429 0.24588
v 0.36443 0.51429 0.36443
v 0.35477 0.51429 0.48829
v 0.29913 0.51429 0.58707
v 0.21109 0.51429 0.64966
v 0.10996 0.51429 0.69427
v 0.00000 0.51429 0.72886
v -0.11527 0.51429 0.72779
v -0.21733 0.51429 0.66887
v -0.29054 0.51429 0.57021
v -0.33843 0.51429 0.46580
v -0.36443 0.51429 0.36443
v -0.35477 0.51429 0.25775
v -0.29913 0.51429 0.15241
v -0.21109 0.51429 0.06859
v -0.10996 0.51429 0.01742
v -0.00000 0.51429 0.00000
v 0.00000 0.68571 0.00000
v 0.11910 0.68571 0.01886
v 0.22251 0.68571 0.07230
v 0.28827 0.68571 0.14688
v 0.33235 0.68571 0.24146
v 0.36743 0.68571 0.36743
v 0.36655 0.68571 0.50452
v 0.30625 0.68571 0.60105
v 0.20944 0.68571 0.64459
v 0.10799 0.68571 0.68180
v 0.00000 0.68571 0.73487
v -0.11910 0.68571 0.75197
v -0.22251 0.68571 0.68480
v -0.28827 0.68571 0.56576
v -0.33235 0.68571 0.45744
v -0.36743 0.68571 0.36743
v -0.36655 0.68571 0.26632
v -0.30625 0.68571 0.15604
v -0.20944 0.68571 0.06805
v -0.10799 0.68571 0.01710
v -0.00000 0.68571 0.00000
v 0.00000 0.85714 0.00000
v 0.12063 0.85714 0.01911
v 0.22504 0.85714 0.07312
v 0.29010 0.85714 0.14781
v 0.33390 0.85714 0.24259
v 0.37072 0.85714 0.37072
v 0.37125 0.85714 0.51098
v 0.30974 0.85714 0.60789
v 0.21077 0.85714 0.64869
v 0.10849 0.85714 0.68499
v 0.00000 0.85714 0.74144
v -0.12063 0.85714 0.76160
v -0.22504 0.85714 0.69259
v -0.29010 0.85714 0.56936
v -0.33390 0.85714 0.45958
v -0.37072 0.85714 0.37072
v -0.37125 0.85714 0.26973
v -0.30974 0.85714 0.15782
v -0.21077 0.85714 0.06848
v -0.10849 0.85714 0.01718
v -0.00000 0.85714 0.00000
v 0.00000 1.02857 0.00000
v 0.11958 1.02857 0.01894
v 0.22461 1.02857 0.07298
v 0.29647 1.02857 0.15106
v 0.34392 1.02857 0.24987
v 0.37429 1.02857 0.37429
v 0.36803 1.02857 0.50655
v 0.30915 1.02857 0.60674
v 0.21540 1.02857 0.66293
v 0.11175 1.02857 0.70553
v 0.00000 1.02857 0.74859
v -0.11958 1.02857 0.75500
v -0.22461 1.02857 0.69128
v -0.29647 1.02857 0.58186
v -0.34392 1.02857 0.47336
v -0.37429 1.02857 0.37429
v -0.36803 1.02857 0.26739
v -0.30915 1.02857 0.15752
v -0.21540 1.02857 0.06999
v -0.11175 1.02857 0.01770
v -0.00000 1.02857 0.00000
v 0.00000 1.20000 0.00000
v 0.11686 1.20000 0.01851
v 0.22227 1.20000 0.07222
v 0.30593 1.20000 0.15588
v 0.35964 1.20000 0.26130
v 0.37815 1.20000 0.37815
v 0.35964 1.20000 0.49501
v 0.30593 1.20000 0.60042
v 0.22227 1.20000 0.68408
v 0.11686 1.20000 0.73780
v 0.00000 1.20000 0.75630
v -0.11686 1.20000 0.73780
v -0.22227 1.20000 0.68408
v -0.30593 1.20000 0.60042
v -0.35964 1.20000 0.49501
v -0.37815 1.20000 0.37815
v -0.35964 1.20000 0.26130
v -0.30593 1.20000 0.15588
v -0.22227 1.20000 0.07222
v -0.11686 1.20000 0.01851
v -0.00000 1.20000 0.00000
f 1 2 23
f 1 23 22
f 2 3 24
f 2 24 23
f 3 4 25
f 3 25 24
f 4 5 26
f 4 26 25
f 5 6 27
f 5 27 26
f 6 7 28
f 6 28 27
f 7 8 29
f 7 29 28
f 8 9 30
f 8 30 29
f 9 10 31
f 9 31 30
f 10 11 32
f 10 32 31
f 11 12 33
f 11 33 32
f 12 13 34
f 12 34 33
f 13 14 35
f 13 35 34
f 14 15 36
f 14 36 35
f 15 16 37
f 15 37 36
f 16 17 38
f 16 38 37
f 17 18 39
f 17 39 38
f 18 19 40
f 18 40 39
f 19 20 41
f 19 41 40
f 20 21 42
f 20 42 41
f 22 23 44
f 22 44 43
f 23 24 45
f 23 45 44
f 24 25 46
f 24 46 45
f 25 26 47
f 25 47 46
f 26 27 48
f 26 48 47
f 27 28 49
f 27 49 48
f 28 29 50
f 28 50 49
f 29 30 51
f 29 51 50
f 30 31 52
f 30 52 51
f 31 32 53
f 31 53 52
f 32 33 54
f 32 54 53
f 33 34 55
f 33 55 54
f 34 35 56
f 34 56 55
f 35 36 57
f 35 57 56
f 36 37 58
f 36 58 57
f 37 38 59
f 37 59 58
f 38 39 60
f 38 60 59
f 39 40 61
f 39 61 60
f 40 41 62
f 40 62 61
f 41 42 63
f 41 63 62
f 43 44 65
f 43 65 64
f 44 45 66
f 44 66 65
f 45 46 67
f 45 67 66
f 46 47 68
f 46 68 67
f 47 48 69
f 47 69 68
f 48 49 70
f 48 70 69
f 49 50 71
f 49 71 70
f 50 51 72
f 50 72 71
f 51 52 73
f 51 73 72
f 52 53 74
f 52 74 73
f 53 54 75
f 53 75 74
f 54 55 76
f 54 76 75
f 55 56 77
f 55 77 76
f 56 57 78
f 56 78 77
f 57 58 79
f 57 79 78
f 58 59 80
f 58 80 79
f 59 60 81
f 59 81 80
f 60 61 82
f 60 82 81
f 61 62 83
f 61 83 82
f 62 63 84
f 62 84 83
f 64 65 86
f 64 86 85
f 65 66 87
f 65 87 86
f 66 67 88
f 66 88 87
f 67 68 89
f 67 89 88
f 68 69 90
f 68 90 89
f 69 70 91
f 69 91 90
f 70 71 92
f 70 92 91
f 71 72 93
f 71 93 92
f 72 73 94
f 72 94 93
f 73 74 95
f 73 95 94
f 74 75 96
f 74 96 95
f 75 76 97
f 75 97 96
f 76 77 98
f 76 98 97
f 77 78 99
f 77 99 98
f 78 79 100
f 78 100 99
f 79 80 101
f 79 101 100
f 80 81 102
f 80 102 101
f 81 82 103
f 81 103 102
f 82 83 104
f 82 104 103
f 83 84 105
f 83 105 104
f 85 86 107
f 85 107 106
f 86 87 108
f 86 108 107
f 87 88 109
f 87 109 108
f 88 89 110
f 88 110 109
f 89 90 111
f 89 111 110
f 90 91 112
f 90 112 111
f 91 92 113
f 91 113 112
f 92 93 114
f 92 114 113
f 93 94 115
f 93 115 114
f 94 95 116
f 94 116 115
f 95 96 117
f 95 117 116
f 96 97 118
f 96 118 117
f 97 98 119
f 97 119 118
f 98 99 120
f 98 120 119
f 99 100 121
f 99 121 120
f 100 101 122
f 100 122 121
f 101 102 123
f 101 123 122
f 102 103 124
f 102 124 123
f 103 104 125
f 103 125 124
f 104 105 126
f 104 126 125
f 106 107 128
f 106 128 127
f 107 108 129
f 107 129 128
f 108 109 130
f 108 130 129
f 109 110 131
f 109 131 130
f 110 111 132
f 110 132 131
f 111 112 133
f 111 133 132
f 112 113 134
f 112 134 133
f 113 114 135
f 113 135 134
f 114 115 136
f 114 136 135
f 115 116 137
f 115 137 136
f 116 117 138
f 116 138 137
f 117 118 139
f 117 139 138
f 118 119 140
f 118 140 139
f 119 120 141
f 119 141 140
f 120 121 142
f 120 142 141
f 121 122 143
f 121 143 142
f 122 123 144
f 122 144 143
f 123 124 145
f 123 145 144
f 124 125 146
f 124 146 145
f 125 126 147
f 125 147 146
f 127 128 149
f 127 149 148
f 128 129 150
f 128 150 149
f 129 130 151
f 129 151 150
f 130 131 152
f 130 152 151
f 131 132 153
f 131 153 152
f 132 133 154
f 132 154 153
f 133 134 155
f 133 155 154
f 134 135 156
f 134 156 155
f 135 136 157
f 135 157 156
f 136 137 158
f 136 158 157
f 137 138 159
f 137 159 158
f 138 139 160
f 138 160 159
f 139 140 161
f 139 161 160
f 140 141 162
f 140 162 161
f 141 142 163
f 141 163 162
f 142 143 164
f 142 164 163
f 143 144 165
f 143 165 164
f 144 145 166
f 144 166 165
f 145 146 167
f 145 167 166
f 146 147 168
f 146 168 167
f 148 149 170
f 148 170 169
f 149 150 171
f 149 171 170
f 150 151 172
f 150 172 171
f 151 152 173
f 151 173 172
f 152 153 174
f 152 174 173
f 153 154 175
f 153 175 174
f 154 155 176
f 154 176 175
f 155 156 177
f 155 177 176
f 156 157 178
f 156 178 177
f 157 158 179
f 157 179 178
f 158 159 180
f 158 180 179
f 159 160 181
f 159 181 180
f 160 161 182
f 160 182 181
f 161 162 183
f 161 183 182
f 162 163 184
f 162 184 183
f 163 164 185
f 163 185 184
f 164 165 186
f 164 186 185
f 165 166 187
f 165 187 186
f 166 167 188
f 166 188 187
f 167 168 189
f 167 189 188
f 169 170 191
f 169 191 190
f 170 171 192
f 170 192 191
f 171 172 193
f 171 193 192
f 172 173 194
f 172 194 193
f 173 174 195
f 173 195 194
f 174 175 196
f 174 196 195
f 175 176 197
f 175 197 196
f 176 177 198
f 176 198 197
f 177 178 199
f 177 199 198
f 178 179 200
f 178 200 199
f 179 180 201
f 179 201 200
f 180 181 202
f 180 202 201
f 181 182 203
f 181 203 202
f 182 183 204
f 182 204 203
f 183 184 205
f 183 205 204
f 184 185 206
f 184 206 205
f 185 186 207
f 185 207 206
f 186 187 208
f 186 208 207
f 187 188 209
f 187 209 208
f 188 189 210
f 188 210 209
f 190 191 212
f 190 212 211
f 191 192 213
f 191 213 212
f 192 193 214
f 192 214 213
f 193 194 215
f 193 215 214
f 194 195 216
f 194 216 215
f 195 196 217
f 195 217 216
f 196 197 218
f 196 218 217
f 197 198 219
f 197 219 218
f 198 199 220
f 198 220 219
f 199 200 221
f 199 221 220
f 200 201 222
f 200 222 221
f 201 202 223
f 201 223 222
f 202 203 224
f 202 224 223
f 203 204 225
f 203 225 224
f 204 205 226
f 204 226 225
f 205 206 227
f 205 227 226
f 206 207 228
f 206 228 227
f 207 208 229
f 207 229 228
f 208 209 230
f 208 230 229
f 209 210 231
f 209 231 230
f 211 212 233
f 211 233 232
f 212 213 234
f 212 234 233
f 213 214 235
f 213 235 234
f 214 215 236
f 214 236 235
f 215 216 237
f 215 237 236
f 216 217 238
f 216 238 237
f 217 218 239
f 217 239 238
f 218 219 240
f 218 240 239
f 219 220 241
f 219 241 240
f 220 221 242
f 220 242 241
f 221 222 243
f 221 243 242
f 222 223 244
f 222 244 243
f 223 224 245
f 223 245 244
f 224 225 246
f 224 246 245
f 225 226 247
f 225 247 246
f 226 227 248
f 226 248 247
f 227 228 249
f 227 249 248
f 228 229 250
f 228 250 249
f 229 230 251
f 229 251 250
f 230 231 252
f 230 252 251
f 232 233 254
f 232 254 253
f 233 234 255
f 233 255 254
f 234 235 256
f 234 256 255
f 235 236 257
f 235 257 256
f 236 237 258
f 236 258 257
f 237 238 259
f 237 259 258
f 238 239 260
f 238 260 259
f 239 240 261
f 239 261 260
f 240 241 262
f 240 262 261
f 241 242 263
f 241 263 262
f 242 243 264
f 242 264 263
f 243 244 265
f 243 265 264
f 244 245 266
f 244 266 265
f 245 246 267
f 245 267 266
f 246 247 268
f 246 268 267
f 247 248 269
f 247 269 268
f 248 249 270
f 248 270 269
f 249 250 271
f 249 271 270
f 250 251 272
f 250 272 271
f 251 252 273
f 251 273 272
f 253 254 275
f 253 275 274
f 254 255 276
f 254 276 275
f 255 256 277
f 255 277 276
f 256 257 278
f 256 278 277
f 257 258 279
f 257 279 278
f 258 259 280
f 258 280 279
f 259 260 281
f 259 281 280
f 260 261 282
f 260 282 281
f 261 262 283
f 261 283 282
f 262 263 284
f 262 284 283
f 263 264 285
f 263 285 284
f 264 265 286
f 264 286 285
f 265 266 287
f 265 287 286
f 266 267 288
f 266 288 287
f 267 268 289
f 267 289 288
f 268 269 290
f 268 290 289
f 269 270 291
f 269 291 290
f 270 271 292
f 270 292 291
f 271 272 293
f 271 293 292
f 272 273 294
f 272 294 293
f 274 275 296
f 274 296 295
f 275 276 297
f 275 297 296
f 276 277 298
f 276 298 297
f 277 278 299
f 277 299 298
f 278 279 300
f 278 300 299
f 279 280 301
f 279 301 300
f 280 281 302
f 280 302 301
f 281 282 303
f 281 303 302
f 282 283 304
f 282 304 303
f 283 284 305
f 283 305 304
f 284 285 306
f 284 306 305
f 285 286 307
f 285 307 306
f 286 287 308
f 286 308 307
f 287 288 309
f 287 309 308
f 288 289 310
f 288 310 309
f 289 290 311
f 289 311 310
f 290 291 312
f 290 312 311
f 291 292 313
f 291 313 312
f 292 293 314
f 292 314 313
f 293 294 315
f 293 315 314
