# iteration_01_KnittingStitches_field
o iteration_01_KnittingStitches_field
v -0.48300 -1.20000 0.00000
v -0.50700 -1.20000 0.00000
v -0.50700 -0.96000 0.00000
v -0.48300 -0.96000 0.00000
v -0.48300 -0.96000 0.00000
v -0.50700 -0.96000 0.00000
v -0.50700 -0.72000 0.00000
v -0.48300 -0.72000 0.00000
v -0.48300 -0.72000 0.00000
v -0.50700 -0.72000 0.00000
v -0.50700 -0.48000 0.00000
v -0.48300 -0.48000 0.00000
v -0.48300 -0.48000 0.00000
v -0.50700 -0.48000 0.00000
v -0.50700 -0.24000 0.00000
v -0.48300 -0.24000 0.00000
v -0.48300 -0.24000 0.00000
v -0.50700 -0.24000 0.00000
v -0.50700 0.00000 0.00000
v -0.48300 0.00000 0.00000
v -0.48300 0.00000 0.00000
v -0.50700 0.00000 0.00000
v -0.50700 0.24000 0.00000
v -0.48300 0.24000 0.00000
v -0.48300 0.24000 0.00000
v -0.50700 0.24000 0.00000
v -0.50700 0.48000 0.00000
v -0.48300 0.48000 0.00000
v -0.48300 0.48000 0.00000
v -0.50700 0.48000 0.00000
v -0.50700 0.72000 0.00000
v -0.48300 0.72000 0.00000
v -0.48300 0.72000 0.00000
v -0.50700 0.72000 0.00000
v -0.50700 0.96000 0.00000
v -0.48300 0.96000 0.00000
v -0.48300 0.96000 0.00000
v -0.50700 0.96000 0.00000
v -0.50700 1.20000 0.00000
v -0.48300 1.20000 0.00000
v -0.30086 -1.20003 0.01402
v -0.32486 -1.19997 0.01402
v -0.32420 -0.95997 0.01415
v -0.30020 -0.96003 0.01415
v -0.30020 -0.96001 0.01415
v -0.32420 -0.95999 0.01415
v -0.32399 -0.71999 0.01419
v -0.29999 -0.72001 0.01419
v -0.29999 -0.71998 0.01419
v -0.32399 -0.72002 0.01419
v -0.32433 -0.48002 0.01413
v -0.30033 -0.47998 0.01413
v -0.30033 -0.47998 0.01413
v -0.32433 -0.48002 0.01413
v -0.32481 -0.24002 0.01403
v -0.30081 -0.23998 0.01403
v -0.30081 -0.24000 0.01403
v -0.32481 -0.24000 0.01403
v -0.32485 -0.00000 0.01402
v -0.30085 0.00000 0.01402
v -0.30085 -0.00003 0.01402
v -0.32485 0.00003 0.01402
v -0.32418 0.24003 0.01415
v -0.30018 0.23997 0.01415
v -0.30018 0.23994 0.01415
v -0.32418 0.24006 0.01415
v -0.32306 0.48006 0.01437
v -0.29906 0.47994 0.01437
v -0.29906 0.47995 0.01437
v -0.32306 0.48005 0.01437
v -0.32207 0.72005 0.01456
v -0.29807 0.71995 0.01456
v -0.29807 0.71998 0.01456
v -0.32207 0.72002 0.01456
v -0.32164 0.96002 0.01465
v -0.29764 0.95998 0.01465
v -0.29764 0.96000 0.01465
v -0.32164 0.96000 0.01465
v -0.32169 1.20000 0.01464
v -0.29769 1.20000 0.01464
v -0.12922 -1.19989 0.05405
v -0.15322 -1.20011 0.05405
v -0.15535 -0.96011 0.05319
v -0.13135 -0.95989 0.05319
v -0.13135 -0.95999 0.05319
v -0.15535 -0.96001 0.05319
v -0.15556 -0.72001 0.05310
v -0.13156 -0.71999 0.05310
v -0.13156 -0.72010 0.05310
v -0.15556 -0.71990 0.05310
v -0.15353 -0.47990 0.05392
v -0.12953 -0.48010 0.05392
v -0.12953 -0.48014 0.05392
v -0.15353 -0.47986 0.05392
v -0.15068 -0.23986 0.05508
v -0.12668 -0.24014 0.05508
v -0.12668 -0.24008 0.05508
v -0.15068 -0.23992 0.05508
v -0.14902 0.00008 0.05575
v -0.12502 -0.00008 0.05575
v -0.12502 0.00002 0.05575
v -0.14902 -0.00002 0.05575
v -0.14949 0.23998 0.05556
v -0.12549 0.24002 0.05556
v -0.12549 0.24009 0.05556
v -0.14949 0.23991 0.05556
v -0.15119 0.47991 0.05487
v -0.12719 0.48009 0.05487
v -0.12719 0.48005 0.05487
v -0.15119 0.47995 0.05487
v -0.15210 0.71995 0.05450
v -0.12810 0.72005 0.05450
v -0.12810 0.71993 0.05450
v -0.15210 0.72007 0.05450
v -0.15072 0.96007 0.05506
v -0.12672 0.95993 0.05506
v -0.12672 0.95983 0.05506
v -0.15072 0.96017 0.05506
v -0.14734 1.20017 0.05643
v -0.12334 1.19983 0.05643
v 0.02293 -1.20020 0.11425
v -0.00107 -1.19980 0.11425
v 0.00288 -0.95980 0.11682
v 0.02688 -0.96020 0.11682
v 0.02688 -0.96005 0.11682
v 0.00288 -0.95995 0.11682
v 0.00380 -0.71995 0.11741
v 0.02780 -0.72005 0.11741
v 0.02780 -0.71987 0.11741
v 0.00380 -0.72013 0.11741
v 0.00111 -0.48013 0.11567
v 0.02511 -0.47987 0.11567
v 0.02511 -0.47981 0.11567
v 0.00111 -0.48019 0.11567
v -0.00266 -0.24019 0.11321
v 0.02133 -0.23981 0.11321
v 0.02133 -0.23993 0.11321
v -0.00267 -0.24007 0.11321
v -0.00398 -0.00007 0.11236
v 0.02002 0.00007 0.11236
v 0.02002 -0.00014 0.11236
v -0.00397 0.00014 0.11236
v -0.00114 0.24014 0.11420
v 0.02286 0.23986 0.11420
v 0.02285 0.23973 0.11420
v -0.00114 0.24027 0.11420
v 0.00424 0.48027 0.11769
v 0.02823 0.47973 0.11769
v 0.02823 0.47978 0.11769
v 0.00423 0.48022 0.11769
v 0.00856 0.72022 0.12051
v 0.03256 0.71978 0.12051
v 0.03256 0.71997 0.12051
v 0.00856 0.72003 0.12051
v 0.00921 0.96003 0.12093
v 0.03321 0.95997 0.12093
v 0.03321 0.96013 0.12093
v 0.00921 0.95987 0.12093
v 0.00667 1.19987 0.11928
v 0.03067 1.20013 0.11928
v 0.14946 -1.19976 0.18586
v 0.12546 -1.20024 0.18586
v 0.12073 -0.96024 0.18128
v 0.14472 -0.95976 0.18128
v 0.14473 -0.95997 0.18128
v 0.12073 -0.96003 0.18128
v 0.12013 -0.72003 0.18071
v 0.14413 -0.71997 0.18071
v 0.14412 -0.72021 0.18071
v 0.12013 -0.71979 0.18071
v 0.12438 -0.47979 0.18481
v 0.14837 -0.48021 0.18481
v 0.14837 -0.48030 0.18481
v 0.12438 -0.47970 0.18481
v 0.13034 -0.23970 0.19057
v 0.15434 -0.24030 0.19057
v 0.15434 -0.24016 0.19057
v 0.13034 -0.23984 0.19057
v 0.13360 0.00016 0.19371
v 0.15760 -0.00016 0.19371
v 0.15760 0.00008 0.19371
v 0.13360 -0.00008 0.19371
v 0.13206 0.23992 0.19223
v 0.15606 0.24008 0.19223
v 0.15606 0.24022 0.19223
v 0.13207 0.23978 0.19223
v 0.12773 0.47978 0.18805
v 0.15173 0.48022 0.18805
v 0.15173 0.48013 0.18805
v 0.12773 0.47987 0.18805
v 0.12506 0.71987 0.18547
v 0.14906 0.72013 0.18547
v 0.14906 0.71989 0.18547
v 0.12506 0.72011 0.18547
v 0.12733 0.96011 0.18766
v 0.15133 0.95989 0.18766
v 0.15133 0.95967 0.18766
v 0.12734 0.96033 0.18766
v 0.13393 1.20033 0.19403
v 0.15792 1.19967 0.19403
v 0.24796 -1.20023 0.25844
v 0.22397 -1.19977 0.25844
v 0.22858 -0.95977 0.26503
v 0.25257 -0.96023 0.26503
v 0.25257 -0.96005 0.26503
v 0.22857 -0.95995 0.26503
v 0.22962 -0.71995 0.26652
v 0.25362 -0.72005 0.26652
v 0.25362 -0.71984 0.26652
v 0.22962 -0.72016 0.26652
v 0.22642 -0.48016 0.26195
v 0.25042 -0.47984 0.26195
v 0.25042 -0.47978 0.26195
v 0.22642 -0.48022 0.26195
v 0.22193 -0.24022 0.25553
v 0.24592 -0.23978 0.25553
v 0.24592 -0.23992 0.25553
v 0.22192 -0.24008 0.25553
v 0.22029 -0.00008 0.25320
v 0.24429 0.00008 0.25320
v 0.24429 -0.00016 0.25320
v 0.22029 0.00016 0.25320
v 0.22349 0.24016 0.25776
v 0.24749 0.23984 0.25776
v 0.24748 0.23969 0.25776
v 0.22349 0.24031 0.25776
v 0.22964 0.48031 0.26654
v 0.25363 0.47969 0.26654
v 0.25363 0.47975 0.26654
v 0.22964 0.48025 0.26654
v 0.23454 0.72025 0.27354
v 0.25853 0.71975 0.27354
v 0.25853 0.71997 0.27354
v 0.23453 0.72003 0.27354
v 0.23510 0.96003 0.27435
v 0.25910 0.95997 0.27435
v 0.25910 0.96016 0.27435
v 0.23511 0.95984 0.27435
v 0.23193 1.19984 0.26981
v 0.25592 1.20016 0.26981
v 0.32011 -1.19985 0.32144
v 0.29611 -1.20015 0.32144
v 0.29303 -0.96015 0.31450
v 0.31702 -0.95985 0.31450
v 0.31702 -0.95998 0.31450
v 0.29302 -0.96002 0.31450
v 0.29266 -0.72002 0.31367
v 0.31666 -0.71998 0.31367
v 0.31665 -0.72014 0.31367
v 0.29266 -0.71986 0.31367
v 0.29547 -0.47986 0.32000
v 0.31947 -0.48014 0.32000
v 0.31947 -0.48020 0.32000
v 0.29547 -0.47980 0.32000
v 0.29943 -0.23980 0.32888
v 0.32342 -0.24020 0.32888
v 0.32342 -0.24011 0.32888
v 0.29943 -0.23989 0.32888
v 0.30162 0.00011 0.33381
v 0.32562 -0.00011 0.33381
v 0.32562 0.00005 0.33381
v 0.30162 -0.00005 0.33381
v 0.30070 0.23995 0.33175
v 0.32470 0.24005 0.33175
v 0.32470 0.24014 0.33175
v 0.30071 0.23986 0.33175
v 0.29797 0.47986 0.32561
v 0.32197 0.48014 0.32561
v 0.32197 0.48008 0.32561
v 0.29797 0.47992 0.32561
v 0.29634 0.71992 0.32194
v 0.32034 0.72008 0.32194
v 0.32034 0.71992 0.32194
v 0.29634 0.72008 0.32194
v 0.29795 0.96008 0.32557
v 0.32195 0.95992 0.32557
v 0.32195 0.95978 0.32557
v 0.29795 0.96022 0.32557
v 0.30241 1.20022 0.33558
v 0.32641 1.19978 0.33558
v 0.37142 -1.20007 0.36566
v 0.34742 -1.19993 0.36566
v 0.34884 -0.95993 0.37180
v 0.37284 -0.96007 0.37180
v 0.37284 -0.96002 0.37180
v 0.34884 -0.95998 0.37180
v 0.34919 -0.71998 0.37334
v 0.37319 -0.72002 0.37334
v 0.37319 -0.71995 0.37334
v 0.34919 -0.72005 0.37334
v 0.34828 -0.48005 0.36940
v 0.37228 -0.47995 0.36940
v 0.37228 -0.47994 0.36940
v 0.34828 -0.48006 0.36940
v 0.34701 -0.24006 0.36387
v 0.37101 -0.23994 0.36387
v 0.37101 -0.23998 0.36387
v 0.34701 -0.24002 0.36387
v 0.34663 -0.00002 0.36222
v 0.37063 0.00002 0.36222
v 0.37063 -0.00006 0.36222
v 0.34663 0.00006 0.36222
v 0.34774 0.24006 0.36705
v 0.37174 0.23994 0.36705
v 0.37174 0.23990 0.36705
v 0.34774 0.24010 0.36705
v 0.34978 0.48010 0.37588
v 0.37378 0.47990 0.37588
v 0.37378 0.47992 0.37588
v 0.34978 0.48008 0.37588
v 0.35146 0.72008 0.38318
v 0.37546 0.71992 0.38318
v 0.37546 0.71998 0.38318
v 0.35146 0.72002 0.38318
v 0.35186 0.96002 0.38488
v 0.37586 0.95998 0.38488
v 0.37586 0.96004 0.38488
v 0.35186 0.95996 0.38488
v 0.35113 1.19996 0.38175
v 0.37513 1.20004 0.38175
v 0.41043 -1.19999 0.38469
v 0.38643 -1.20001 0.38469
v 0.38632 -0.96001 0.38151
v 0.41032 -0.95999 0.38151
v 0.41032 -0.96000 0.38151
v 0.38632 -0.96000 0.38151
v 0.38632 -0.72000 0.38142
v 0.41032 -0.72000 0.38142
v 0.41032 -0.72001 0.38142
v 0.38632 -0.71999 0.38142
v 0.38644 -0.47999 0.38493
v 0.41044 -0.48001 0.38493
v 0.41044 -0.48001 0.38493
v 0.38644 -0.47999 0.38493
v 0.38661 -0.23999 0.38984
v 0.41061 -0.24001 0.38984
v 0.41061 -0.24001 0.38984
v 0.38661 -0.23999 0.38984
v 0.38673 0.00001 0.39310
v 0.41073 -0.00001 0.39310
v 0.41073 -0.00000 0.39310
v 0.38673 0.00000 0.39310
v 0.38673 0.24000 0.39325
v 0.41073 0.24000 0.39325
v 0.41073 0.24000 0.39325
v 0.38673 0.24000 0.39325
v 0.38668 0.48000 0.39167
v 0.41068 0.48000 0.39167
v 0.41068 0.48000 0.39167
v 0.38668 0.48000 0.39167
v 0.38667 0.72000 0.39148
v 0.41067 0.72000 0.39148
v 0.41067 0.71999 0.39148
v 0.38667 0.72001 0.39148
v 0.38679 0.96001 0.39493
v 0.41079 0.95999 0.39493
v 0.41079 0.95999 0.39493
v 0.38679 0.96001 0.39493
v 0.38702 1.20001 0.40161
v 0.41102 1.19999 0.40161
v 0.44749 -1.20000 0.37573
v 0.42349 -1.20000 0.37573
v 0.42346 -0.96000 0.37589
v 0.44746 -0.96000 0.37589
v 0.44746 -0.96000 0.37589
v 0.42346 -0.96000 0.37589
v 0.42339 -0.72000 0.37639
v 0.44739 -0.72000 0.37639
v 0.44739 -0.71999 0.37639
v 0.42339 -0.72001 0.37639
v 0.42325 -0.48001 0.37722
v 0.44725 -0.47999 0.37722
v 0.44725 -0.47999 0.37722
v 0.42325 -0.48001 0.37722
v 0.42307 -0.24001 0.37837
v 0.44707 -0.23999 0.37837
v 0.44707 -0.23999 0.37837
v 0.42307 -0.24001 0.37837
v 0.42284 -0.00001 0.37986
v 0.44684 0.00001 0.37986
v 0.44684 0.00001 0.37986
v 0.42284 -0.00001 0.37986
v 0.42255 0.23999 0.38168
v 0.44655 0.24001 0.38168
v 0.44655 0.24002 0.38168
v 0.42255 0.23998 0.38168
v 0.42221 0.47998 0.38383
v 0.44621 0.48002 0.38383
v 0.44621 0.48002 0.38383
v 0.42221 0.47998 0.38383
v 0.42181 0.71998 0.38631
v 0.44581 0.72002 0.38631
v 0.44581 0.72002 0.38631
v 0.42181 0.71998 0.38631
v 0.42137 0.95998 0.38912
v 0.44537 0.96002 0.38912
v 0.44537 0.96002 0.38912
v 0.42137 0.95998 0.38912
v 0.42087 1.19998 0.39226
v 0.44487 1.20002 0.39226
v -0.49500 -1.21200 0.00000
v -0.49500 -1.18800 0.00000
v -0.40325 -1.18800 0.00354
v -0.40325 -1.21200 0.00354
v -0.40325 -1.21200 0.00354
v -0.40325 -1.18800 0.00354
v -0.31286 -1.18800 0.01402
v -0.31286 -1.21200 0.01402
v -0.31286 -1.21200 0.01402
v -0.31286 -1.18800 0.01402
v -0.22511 -1.18800 0.03107
v -0.22511 -1.21200 0.03107
v -0.22511 -1.21200 0.03107
v -0.22511 -1.18800 0.03107
v -0.14122 -1.18800 0.05405
v -0.14122 -1.21200 0.05405
v -0.14122 -1.21200 0.05405
v -0.14122 -1.18800 0.05405
v -0.06225 -1.18800 0.08212
v -0.06225 -1.21200 0.08212
v -0.06225 -1.21200 0.08212
v -0.06225 -1.18800 0.08212
v 0.01093 -1.18800 0.11425
v 0.01093 -1.21200 0.11425
v 0.01093 -1.21200 0.11425
v 0.01093 -1.18800 0.11425
v 0.07764 -1.18800 0.14926
v 0.07764 -1.21200 0.14926
v 0.07764 -1.21200 0.14926
v 0.07764 -1.18800 0.14926
v 0.13746 -1.18800 0.18586
v 0.13746 -1.21200 0.18586
v 0.13746 -1.21200 0.18586
v 0.13746 -1.18800 0.18586
v 0.19021 -1.18800 0.22270
v 0.19021 -1.21200 0.22270
v 0.19021 -1.21200 0.22270
v 0.19021 -1.18800 0.22270
v 0.23596 -1.18800 0.25844
v 0.23596 -1.21200 0.25844
v 0.23596 -1.21200 0.25844
v 0.23596 -1.18800 0.25844
v 0.27507 -1.18800 0.29176
v 0.27507 -1.21200 0.29176
v 0.27507 -1.21200 0.29176
v 0.27507 -1.18800 0.29176
v 0.30811 -1.18800 0.32144
v 0.30811 -1.21200 0.32144
v 0.30811 -1.21200 0.32144
v 0.30811 -1.18800 0.32144
v 0.33590 -1.18800 0.34638
v 0.33590 -1.21200 0.34638
v 0.33590 -1.21200 0.34638
v 0.33590 -1.18800 0.34638
v 0.35942 -1.18800 0.36566
v 0.35942 -1.21200 0.36566
v 0.35942 -1.21200 0.36566
v 0.35942 -1.18800 0.36566
v 0.37984 -1.18800 0.37859
v 0.37984 -1.21200 0.37859
v 0.37984 -1.21200 0.37859
v 0.37984 -1.18800 0.37859
v 0.39843 -1.18800 0.38469
v 0.39843 -1.21200 0.38469
v 0.39843 -1.21200 0.38469
v 0.39843 -1.18800 0.38469
v 0.41653 -1.18800 0.38372
v 0.41653 -1.21200 0.38372
v 0.41653 -1.21200 0.38372
v 0.41653 -1.18800 0.38372
v 0.43549 -1.18800 0.37573
v 0.43549 -1.21200 0.37573
v -0.49500 -0.73200 0.00000
v -0.49500 -0.70800 0.00000
v -0.40211 -0.70800 0.00365
v -0.40211 -0.73200 0.00365
v -0.40211 -0.73200 0.00365
v -0.40211 -0.70800 0.00365
v -0.31199 -0.70800 0.01419
v -0.31199 -0.73200 0.01419
v -0.31199 -0.73200 0.01419
v -0.31199 -0.70800 0.01419
v -0.22765 -0.70800 0.03032
v -0.22765 -0.73200 0.03032
v -0.22765 -0.73200 0.03032
v -0.22765 -0.70800 0.03032
v -0.14356 -0.70800 0.05310
v -0.14356 -0.73200 0.05310
v -0.14356 -0.73200 0.05310
v -0.14356 -0.70800 0.05310
v -0.05894 -0.70800 0.08384
v -0.05894 -0.73200 0.08384
v -0.05894 -0.73200 0.08384
v -0.05894 -0.70800 0.08384
v 0.01580 -0.70800 0.11741
v 0.01580 -0.73200 0.11741
v 0.01580 -0.73200 0.11741
v 0.01580 -0.70800 0.11741
v 0.07605 -0.70800 0.14799
v 0.07605 -0.73200 0.14799
v 0.07605 -0.73200 0.14799
v 0.07605 -0.70800 0.14799
v 0.13213 -0.70800 0.18071
v 0.13213 -0.73200 0.18071
v 0.13213 -0.73200 0.18071
v 0.13213 -0.70800 0.18071
v 0.19054 -0.70800 0.22310
v 0.19054 -0.73200 0.22310
v 0.19054 -0.73200 0.22310
v 0.19054 -0.70800 0.22310
v 0.24162 -0.70800 0.26652
v 0.24162 -0.73200 0.26652
v 0.24162 -0.73200 0.26652
v 0.24162 -0.70800 0.26652
v 0.27705 -0.70800 0.29526
v 0.27705 -0.73200 0.29526
v 0.27705 -0.73200 0.29526
v 0.27705 -0.70800 0.29526
v 0.30466 -0.70800 0.31367
v 0.30466 -0.73200 0.31367
v 0.30466 -0.73200 0.31367
v 0.30466 -0.70800 0.31367
v 0.33387 -0.70800 0.34032
v 0.33387 -0.73200 0.34032
v 0.33387 -0.73200 0.34032
v 0.33387 -0.70800 0.34032
v 0.36119 -0.70800 0.37334
v 0.36119 -0.73200 0.37334
v 0.36119 -0.73200 0.37334
v 0.36119 -0.70800 0.37334
v 0.38122 -0.70800 0.38907
v 0.38122 -0.73200 0.38907
v 0.38122 -0.73200 0.38907
v 0.38122 -0.70800 0.38907
v 0.39832 -0.70800 0.38142
v 0.39832 -0.73200 0.38142
v 0.39832 -0.73200 0.38142
v 0.39832 -0.70800 0.38142
v 0.41718 -0.70800 0.37308
v 0.41718 -0.73200 0.37308
v 0.41718 -0.73200 0.37308
v 0.41718 -0.70800 0.37308
v 0.43539 -0.70800 0.37639
v 0.43539 -0.73200 0.37639
v -0.49500 -0.25200 0.00000
v -0.49500 -0.22800 0.00000
v -0.40367 -0.22800 0.00350
v -0.40367 -0.25200 0.00350
v -0.40367 -0.25200 0.00350
v -0.40367 -0.22800 0.00350
v -0.31281 -0.22800 0.01403
v -0.31281 -0.25200 0.01403
v -0.31281 -0.25200 0.01403
v -0.31281 -0.22800 0.01403
v -0.22269 -0.22800 0.03179
v -0.22269 -0.25200 0.03179
v -0.22269 -0.25200 0.03179
v -0.22269 -0.22800 0.03179
v -0.13868 -0.22800 0.05508
v -0.13868 -0.25200 0.05508
v -0.13868 -0.25200 0.05508
v -0.13868 -0.22800 0.05508
v -0.06302 -0.22800 0.08172
v -0.06302 -0.25200 0.08172
v -0.06302 -0.25200 0.08172
v -0.06302 -0.22800 0.08172
v 0.00933 -0.22800 0.11321
v 0.00933 -0.25200 0.11321
v 0.00933 -0.25200 0.11321
v 0.00933 -0.22800 0.11321
v 0.08016 -0.22800 0.15126
v 0.08016 -0.25200 0.15126
v 0.08016 -0.25200 0.15126
v 0.08016 -0.22800 0.15126
v 0.14234 -0.22800 0.19057
v 0.14234 -0.25200 0.19057
v 0.14234 -0.25200 0.19057
v 0.14234 -0.22800 0.19057
v 0.19155 -0.22800 0.22427
v 0.19155 -0.25200 0.22427
v 0.19155 -0.25200 0.22427
v 0.19155 -0.22800 0.22427
v 0.23392 -0.22800 0.25553
v 0.23392 -0.25200 0.25553
v 0.23392 -0.25200 0.25553
v 0.23392 -0.22800 0.25553
v 0.27518 -0.22800 0.29196
v 0.27518 -0.25200 0.29196
v 0.27518 -0.25200 0.29196
v 0.27518 -0.22800 0.29196
v 0.31143 -0.22800 0.32888
v 0.31143 -0.25200 0.32888
v 0.31143 -0.25200 0.32888
v 0.31143 -0.22800 0.32888
v 0.33810 -0.22800 0.35296
v 0.33810 -0.25200 0.35296
v 0.33810 -0.25200 0.35296
v 0.33810 -0.22800 0.35296
v 0.35901 -0.22800 0.36387
v 0.35901 -0.25200 0.36387
v 0.35901 -0.25200 0.36387
v 0.35901 -0.22800 0.36387
v 0.37939 -0.22800 0.37516
v 0.37939 -0.25200 0.37516
v 0.37939 -0.25200 0.37516
v 0.37939 -0.22800 0.37516
v 0.39861 -0.22800 0.38984
v 0.39861 -0.25200 0.38984
v 0.39861 -0.25200 0.38984
v 0.39861 -0.22800 0.38984
v 0.41594 -0.22800 0.39345
v 0.41594 -0.25200 0.39345
v 0.41594 -0.25200 0.39345
v 0.41594 -0.22800 0.39345
v 0.43507 -0.22800 0.37837
v 0.43507 -0.25200 0.37837
v -0.49500 0.22800 0.00000
v -0.49500 0.25200 0.00000
v -0.40335 0.25200 0.00353
v -0.40335 0.22800 0.00353
v -0.40335 0.22800 0.00353
v -0.40335 0.25200 0.00353
v -0.31218 0.25200 0.01415
v -0.31218 0.22800 0.01415
v -0.31218 0.22800 0.01415
v -0.31218 0.25200 0.01415
v -0.22175 0.25200 0.03207
v -0.22175 0.22800 0.03207
v -0.22175 0.22800 0.03207
v -0.22175 0.25200 0.03207
v -0.13749 0.25200 0.05556
v -0.13749 0.22800 0.05556
v -0.13749 0.22800 0.05556
v -0.13749 0.25200 0.05556
v -0.06165 0.25200 0.08243
v -0.06165 0.22800 0.08243
v -0.06165 0.22800 0.08243
v -0.06165 0.25200 0.08243
v 0.01086 0.25200 0.11420
v 0.01086 0.22800 0.11420
v 0.01086 0.22800 0.11420
v 0.01086 0.25200 0.11420
v 0.08182 0.25200 0.15258
v 0.08182 0.22800 0.15258
v 0.08182 0.22800 0.15258
v 0.08182 0.25200 0.15258
v 0.14406 0.25200 0.19223
v 0.14406 0.22800 0.19223
v 0.14406 0.22800 0.19223
v 0.14406 0.25200 0.19223
v 0.19322 0.25200 0.22623
v 0.19322 0.22800 0.22623
v 0.19322 0.22800 0.22623
v 0.19322 0.25200 0.22623
v 0.23549 0.25200 0.25776
v 0.23549 0.22800 0.25776
v 0.23549 0.22800 0.25776
v 0.23549 0.25200 0.25776
v 0.27663 0.25200 0.29451
v 0.27663 0.22800 0.29451
v 0.27663 0.22800 0.29451
v 0.27663 0.25200 0.29451
v 0.31270 0.25200 0.33175
v 0.31270 0.22800 0.33175
v 0.31270 0.22800 0.33175
v 0.31270 0.25200 0.33175
v 0.33913 0.25200 0.35604
v 0.33913 0.22800 0.35604
v 0.33913 0.22800 0.35604
v 0.33913 0.25200 0.35604
v 0.35974 0.25200 0.36705
v 0.35974 0.22800 0.36705
v 0.35974 0.22800 0.36705
v 0.35974 0.25200 0.36705
v 0.37982 0.25200 0.37844
v 0.37982 0.22800 0.37844
v 0.37982 0.22800 0.37844
v 0.37982 0.25200 0.37844
v 0.39873 0.25200 0.39325
v 0.39873 0.22800 0.39325
v 0.39873 0.22800 0.39325
v 0.39873 0.25200 0.39325
v 0.41573 0.25200 0.39689
v 0.41573 0.22800 0.39689
v 0.41573 0.22800 0.39689
v 0.41573 0.25200 0.39689
v 0.43455 0.25200 0.38168
v 0.43455 0.22800 0.38168
v -0.49500 0.70800 0.00000
v -0.49500 0.73200 0.00000
v -0.40111 0.73200 0.00374
v -0.40111 0.70800 0.00374
v -0.40111 0.70800 0.00374
v -0.40111 0.73200 0.00374
v -0.31007 0.73200 0.01456
v -0.31007 0.70800 0.01456
v -0.31007 0.70800 0.01456
v -0.31007 0.73200 0.01456
v -0.22495 0.73200 0.03112
v -0.22495 0.70800 0.03112
v -0.22495 0.70800 0.03112
v -0.22495 0.73200 0.03112
v -0.14010 0.73200 0.05450
v -0.14010 0.70800 0.05450
v -0.14010 0.70800 0.05450
v -0.14010 0.73200 0.05450
v -0.05469 0.73200 0.08605
v -0.05469 0.70800 0.08605
v -0.05469 0.70800 0.08605
v -0.05469 0.73200 0.08605
v 0.02056 0.73200 0.12051
v 0.02056 0.70800 0.12051
v 0.02056 0.70800 0.12051
v 0.02056 0.73200 0.12051
v 0.08095 0.73200 0.15189
v 0.08095 0.70800 0.15189
v 0.08095 0.70800 0.15189
v 0.08095 0.73200 0.15189
v 0.13706 0.73200 0.18547
v 0.13706 0.70800 0.18547
v 0.13706 0.70800 0.18547
v 0.13706 0.73200 0.18547
v 0.19556 0.73200 0.22897
v 0.19556 0.70800 0.22897
v 0.19556 0.70800 0.22897
v 0.19556 0.73200 0.22897
v 0.24653 0.73200 0.27354
v 0.24653 0.70800 0.27354
v 0.24653 0.70800 0.27354
v 0.24653 0.73200 0.27354
v 0.28145 0.73200 0.30304
v 0.28145 0.70800 0.30304
v 0.28145 0.70800 0.30304
v 0.28145 0.73200 0.30304
v 0.30834 0.73200 0.32194
v 0.30834 0.70800 0.32194
v 0.30834 0.70800 0.32194
v 0.30834 0.73200 0.32194
v 0.33687 0.73200 0.34929
v 0.33687 0.70800 0.34929
v 0.33687 0.70800 0.34929
v 0.33687 0.73200 0.34929
v 0.36346 0.73200 0.38318
v 0.36346 0.70800 0.38318
v 0.36346 0.70800 0.38318
v 0.36346 0.73200 0.38318
v 0.38257 0.73200 0.39933
v 0.38257 0.70800 0.39933
v 0.38257 0.70800 0.39933
v 0.38257 0.73200 0.39933
v 0.39867 0.73200 0.39148
v 0.39867 0.70800 0.39148
v 0.39867 0.70800 0.39148
v 0.39867 0.73200 0.39148
v 0.41658 0.73200 0.38292
v 0.41658 0.70800 0.38292
v 0.41658 0.70800 0.38292
v 0.41658 0.73200 0.38292
v 0.43381 0.73200 0.38631
v 0.43381 0.70800 0.38631
v -0.49500 1.18800 0.00000
v -0.49500 1.21200 0.00000
v -0.40164 1.21200 0.00369
v -0.40164 1.18800 0.00369
v -0.40164 1.18800 0.00369
v -0.40164 1.21200 0.00369
v -0.30969 1.21200 0.01464
v -0.30969 1.18800 0.01464
v -0.30969 1.18800 0.01464
v -0.30969 1.21200 0.01464
v -0.22050 1.21200 0.03244
v -0.22050 1.18800 0.03244
v -0.22050 1.18800 0.03244
v -0.22050 1.21200 0.03244
v -0.13534 1.21200 0.05643
v -0.13534 1.18800 0.05643
v -0.13534 1.18800 0.05643
v -0.13534 1.21200 0.05643
v -0.05531 1.21200 0.08573
v -0.05531 1.18800 0.08573
v -0.05531 1.18800 0.08573
v -0.05531 1.21200 0.08573
v 0.01867 1.21200 0.11928
v 0.01867 1.18800 0.11928
v 0.01867 1.18800 0.11928
v 0.01867 1.21200 0.11928
v 0.08590 1.21200 0.15582
v 0.08590 1.18800 0.15582
v 0.08590 1.18800 0.15582
v 0.08590 1.21200 0.15582
v 0.14593 1.21200 0.19403
v 0.14593 1.18800 0.19403
v 0.14593 1.18800 0.19403
v 0.14593 1.21200 0.19403
v 0.19858 1.21200 0.23250
v 0.19858 1.18800 0.23250
v 0.19858 1.18800 0.23250
v 0.19858 1.21200 0.23250
v 0.24393 1.21200 0.26981
v 0.24393 1.18800 0.26981
v 0.24393 1.18800 0.26981
v 0.24393 1.21200 0.26981
v 0.28233 1.21200 0.30460
v 0.28233 1.18800 0.30460
v 0.28233 1.18800 0.30460
v 0.28233 1.21200 0.30460
v 0.31441 1.21200 0.33558
v 0.31441 1.18800 0.33558
v 0.31441 1.18800 0.33558
v 0.31441 1.21200 0.33558
v 0.34100 1.21200 0.36162
v 0.34100 1.18800 0.36162
v 0.34100 1.18800 0.36162
v 0.34100 1.21200 0.36162
v 0.36313 1.21200 0.38175
v 0.36313 1.18800 0.38175
v 0.36313 1.18800 0.38175
v 0.36313 1.21200 0.38175
v 0.38204 1.21200 0.39525
v 0.38204 1.18800 0.39525
v 0.38204 1.18800 0.39525
v 0.38204 1.21200 0.39525
v 0.39902 1.21200 0.40161
v 0.39902 1.18800 0.40161
v 0.39902 1.18800 0.40161
v 0.39902 1.21200 0.40161
v 0.41550 1.21200 0.40060
v 0.41550 1.18800 0.40060
v 0.41550 1.18800 0.40060
v 0.41550 1.21200 0.40060
v 0.43287 1.21200 0.39226
v 0.43287 1.18800 0.39226
f 1 2 3
f 1 3 4
f 5 6 7
f 5 7 8
f 9 10 11
f 9 11 12
f 13 14 15
f 13 15 16
f 17 18 19
f 17 19 20
f 21 22 23
f 21 23 24
f 25 26 27
f 25 27 28
f 29 30 31
f 29 31 32
f 33 34 35
f 33 35 36
f 37 38 39
f 37 39 40
f 41 42 43
f 41 43 44
f 45 46 47
f 45 47 48
f 49 50 51
f 49 51 52
f 53 54 55
f 53 55 56
f 57 58 59
f 57 59 60
f 61 62 63
f 61 63 64
f 65 66 67
f 65 67 68
f 69 70 71
f 69 71 72
f 73 74 75
f 73 75 76
f 77 78 79
f 77 79 80
f 81 82 83
f 81 83 84
f 85 86 87
f 85 87 88
f 89 90 91
f 89 91 92
f 93 94 95
f 93 95 96
f 97 98 99
f 97 99 100
f 101 102 103
f 101 103 104
f 105 106 107
f 105 107 108
f 109 110 111
f 109 111 112
f 113 114 115
f 113 115 116
f 117 118 119
f 117 119 120
f 121 122 123
f 121 123 124
f 125 126 127
f 125 127 128
f 129 130 131
f 129 131 132
f 133 134 135
f 133 135 136
f 137 138 139
f 137 139 140
f 141 142 143
f 141 143 144
f 145 146 147
f 145 147 148
f 149 150 151
f 149 151 152
f 153 154 155
f 153 155 156
f 157 158 159
f 157 159 160
f 161 162 163
f 161 163 164
f 165 166 167
f 165 167 168
f 169 170 171
f 169 171 172
f 173 174 175
f 173 175 176
f 177 178 179
f 177 179 180
f 181 182 183
f 181 183 184
f 185 186 187
f 185 187 188
f 189 190 191
f 189 191 192
f 193 194 195
f 193 195 196
f 197 198 199
f 197 199 200
f 201 202 203
f 201 203 204
f 205 206 207
f 205 207 208
f 209 210 211
f 209 211 212
f 213 214 215
f 213 215 216
f 217 218 219
f 217 219 220
f 221 222 223
f 221 223 224
f 225 226 227
f 225 227 228
f 229 230 231
f 229 231 232
f 233 234 235
f 233 235 236
f 237 238 239
f 237 239 240
f 241 242 243
f 241 243 244
f 245 246 247
f 245 247 248
f 249 250 251
f 249 251 252
f 253 254 255
f 253 255 256
f 257 258 259
f 257 259 260
f 261 262 263
f 261 263 264
f 265 266 267
f 265 267 268
f 269 270 271
f 269 271 272
f 273 274 275
f 273 275 276
f 277 278 279
f 277 279 280
f 281 282 283
f 281 283 284
f 285 286 287
f 285 287 288
f 289 290 291
f 289 291 292
f 293 294 295
f 293 295 296
f 297 298 299
f 297 299 300
f 301 302 303
f 301 303 304
f 305 306 307
f 305 307 308
f 309 310 311
f 309 311 312
f 313 314 315
f 313 315 316
f 317 318 319
f 317 319 320
f 321 322 323
f 321 323 324
f 325 326 327
f 325 327 328
f 329 330 331
f 329 331 332
f 333 334 335
f 333 335 336
f 337 338 339
f 337 339 340
f 341 342 343
f 341 343 344
f 345 346 347
f 345 347 348
f 349 350 351
f 349 351 352
f 353 354 355
f 353 355 356
f 357 358 359
f 357 359 360
f 361 362 363
f 361 363 364
f 365 366 367
f 365 367 368
f 369 370 371
f 369 371 372
f 373 374 375
f 373 375 376
f 377 378 379
f 377 379 380
f 381 382 383
f 381 383 384
f 385 386 387
f 385 387 388
f 389 390 391
f 389 391 392
f 393 394 395
f 393 395 396
f 397 398 399
f 397 399 400
f 401 402 403
f 401 403 404
f 405 406 407
f 405 407 408
f 409 410 411
f 409 411 412
f 413 414 415
f 413 415 416
f 417 418 419
f 417 419 420
f 421 422 423
f 421 423 424
f 425 426 427
f 425 427 428
f 429 430 431
f 429 431 432
f 433 434 435
f 433 435 436
f 437 438 439
f 437 439 440
f 441 442 443
f 441 443 444
f 445 446 447
f 445 447 448
f 449 450 451
f 449 451 452
f 453 454 455
f 453 455 456
f 457 458 459
f 457 459 460
f 461 462 463
f 461 463 464
f 465 466 467
f 465 467 468
f 469 470 471
f 469 471 472
f 473 474 475
f 473 475 476
f 477 478 479
f 477 479 480
f 481 482 483
f 481 483 484
f 485 486 487
f 485 487 488
f 489 490 491
f 489 491 492
f 493 494 495
f 493 495 496
f 497 498 499
f 497 499 500
f 501 502 503
f 501 503 504
f 505 506 507
f 505 507 508
f 509 510 511
f 509 511 512
f 513 514 515
f 513 515 516
f 517 518 519
f 517 519 520
f 521 522 523
f 521 523 524
f 525 526 527
f 525 527 528
f 529 530 531
f 529 531 532
f 533 534 535
f 533 535 536
f 537 538 539
f 537 539 540
f 541 542 543
f 541 543 544
f 545 546 547
f 545 547 548
f 549 550 551
f 549 551 552
f 553 554 555
f 553 555 556
f 557 558 559
f 557 559 560
f 561 562 563
f 561 563 564
f 565 566 567
f 565 567 568
f 569 570 571
f 569 571 572
f 573 574 575
f 573 575 576
f 577 578 579
f 577 579 580
f 581 582 583
f 581 583 584
f 585 586 587
f 585 587 588
f 589 590 591
f 589 591 592
f 593 594 595
f 593 595 596
f 597 598 599
f 597 599 600
f 601 602 603
f 601 603 604
f 605 606 607
f 605 607 608
f 609 610 611
f 609 611 612
f 613 614 615
f 613 615 616
f 617 618 619
f 617 619 620
f 621 622 623
f 621 623 624
f 625 626 627
f 625 627 628
f 629 630 631
f 629 631 632
f 633 634 635
f 633 635 636
f 637 638 639
f 637 639 640
f 641 642 643
f 641 643 644
f 645 646 647
f 645 647 648
f 649 650 651
f 649 651 652
f 653 654 655
f 653 655 656
f 657 658 659
f 657 659 660
f 661 662 663
f 661 663 664
f 665 666 667
f 665 667 668
f 669 670 671
f 669 671 672
f 673 674 675
f 673 675 676
f 677 678 679
f 677 679 680
f 681 682 683
f 681 683 684
f 685 686 687
f 685 687 688
f 689 690 691
f 689 691 692
f 693 694 695
f 693 695 696
f 697 698 699
f 697 699 700
f 701 702 703
f 701 703 704
f 705 706 707
f 705 707 708
f 709 710 711
f 709 711 712
f 713 714 715
f 713 715 716
f 717 718 719
f 717 719 720
f 721 722 723
f 721 723 724
f 725 726 727
f 725 727 728
f 729 730 731
f 729 731 732
f 733 734 735
f 733 735 736
f 737 738 739
f 737 739 740
f 741 742 743
f 741 743 744
f 745 746 747
f 745 747 748
f 749 750 751
f 749 751 752
f 753 754 755
f 753 755 756
f 757 758 759
f 757 759 760
f 761 762 763
f 761 763 764
f 765 766 767
f 765 767 768
f 769 770 771
f 769 771 772
f 773 774 775
f 773 775 776
f 777 778 779
f 777 779 780
f 781 782 783
f 781 783 784
f 785 786 787
f 785 787 788
f 789 790 791
f 789 791 792
f 793 794 795
f 793 795 796
f 797 798 799
f 797 799 800
f 801 802 803
f 801 803 804
f 805 806 807
f 805 807 808
f 809 810 811
f 809 811 812
f 813 814 815
f 813 815 816
f 817 818 819
f 817 819 820
f 821 822 823
f 821 823 824
f 825 826 827
f 825 827 828
f 829 830 831
f 829 831 832
