# iteration_02_KnittingStitches_field
o iteration_02_KnittingStitches_field
v 0.01200 -1.20000 0.00000
v -0.01200 -1.20000 0.00000
v -0.01200 -0.96000 0.00000
v 0.01200 -0.96000 0.00000
v 0.01200 -0.96000 0.00000
v -0.01200 -0.96000 0.00000
v -0.01200 -0.72000 0.00000
v 0.01200 -0.72000 0.00000
v 0.01200 -0.72000 0.00000
v -0.01200 -0.72000 0.00000
v -0.01200 -0.48000 0.00000
v 0.01200 -0.48000 0.00000
v 0.01200 -0.48000 0.00000
v -0.01200 -0.48000 0.00000
v -0.01200 -0.24000 0.00000
v 0.01200 -0.24000 0.00000
v 0.01200 -0.24000 0.00000
v -0.01200 -0.24000 0.00000
v -0.01200 0.00000 0.00000
v 0.01200 0.00000 0.00000
v 0.01200 0.00000 0.00000
v -0.01200 0.00000 0.00000
v -0.01200 0.24000 0.00000
v 0.01200 0.24000 0.00000
v 0.01200 0.24000 0.00000
v -0.01200 0.24000 0.00000
v -0.01200 0.48000 0.00000
v 0.01200 0.48000 0.00000
v 0.01200 0.48000 0.00000
v -0.01200 0.48000 0.00000
v -0.01200 0.72000 0.00000
v 0.01200 0.72000 0.00000
v 0.01200 0.72000 0.00000
v -0.01200 0.72000 0.00000
v -0.01200 0.96000 0.00000
v 0.01200 0.96000 0.00000
v 0.01200 0.96000 0.00000
v -0.01200 0.96000 0.00000
v -0.01200 1.20000 0.00000
v 0.01200 1.20000 0.00000
v 0.23706 -1.20019 0.08192
v 0.21307 -1.19981 0.08192
v 0.21681 -0.95981 0.08328
v 0.24080 -0.96019 0.08328
v 0.24081 -0.96006 0.08328
v 0.21681 -0.95994 0.08328
v 0.21798 -0.71994 0.08371
v 0.24198 -0.72006 0.08371
v 0.24198 -0.71990 0.08371
v 0.21798 -0.72010 0.08371
v 0.21606 -0.48010 0.08301
v 0.24005 -0.47990 0.08301
v 0.24005 -0.47986 0.08301
v 0.21606 -0.48014 0.08301
v 0.21333 -0.24014 0.08201
v 0.23733 -0.23986 0.08201
v 0.23733 -0.23999 0.08201
v 0.21333 -0.24001 0.08201
v 0.21308 -0.00001 0.08192
v 0.23708 0.00001 0.08192
v 0.23708 -0.00019 0.08192
v 0.21308 0.00019 0.08192
v 0.21689 0.24019 0.08331
v 0.24089 0.23981 0.08331
v 0.24088 0.23968 0.08331
v 0.21689 0.24032 0.08331
v 0.22331 0.48032 0.08564
v 0.24730 0.47968 0.08564
v 0.24730 0.47972 0.08564
v 0.22330 0.48028 0.08564
v 0.22899 0.72028 0.08771
v 0.25298 0.71972 0.08771
v 0.25298 0.71988 0.08771
v 0.22899 0.72012 0.08771
v 0.23144 0.96012 0.08860
v 0.25544 0.95988 0.08860
v 0.25544 0.96002 0.08860
v 0.23144 0.95998 0.08860
v 0.23107 1.19998 0.08847
v 0.25507 1.20002 0.08847
v 0.35681 -1.19950 0.28934
v 0.33283 -1.20050 0.28934
v 0.32286 -0.96050 0.28097
v 0.34684 -0.95950 0.28097
v 0.34685 -0.95995 0.28097
v 0.32285 -0.96005 0.28097
v 0.32185 -0.72005 0.28013
v 0.34585 -0.71995 0.28013
v 0.34584 -0.72048 0.28013
v 0.32185 -0.71952 0.28013
v 0.33137 -0.47952 0.28812
v 0.35535 -0.48048 0.28812
v 0.35535 -0.48067 0.28812
v 0.33138 -0.47933 0.28812
v 0.34479 -0.23933 0.29937
v 0.36875 -0.24067 0.29937
v 0.36877 -0.24039 0.29937
v 0.34478 -0.23961 0.29937
v 0.35264 0.00039 0.30596
v 0.37663 -0.00039 0.30596
v 0.37663 0.00011 0.30596
v 0.35263 -0.00011 0.30596
v 0.35041 0.23989 0.30410
v 0.37441 0.24011 0.30410
v 0.37440 0.24041 0.30410
v 0.35042 0.23959 0.30410
v 0.34228 0.47959 0.29727
v 0.36627 0.48041 0.29727
v 0.36627 0.48022 0.29727
v 0.34227 0.47978 0.29727
v 0.33782 0.71978 0.29353
v 0.36182 0.72022 0.29353
v 0.36181 0.71968 0.29353
v 0.33782 0.72032 0.29353
v 0.34426 0.96032 0.29894
v 0.36826 0.95968 0.29894
v 0.36823 0.95919 0.29894
v 0.34429 0.96081 0.29894
v 0.36043 1.20081 0.31249
v 0.38438 1.19919 0.31249
v 0.31521 -1.20062 0.52521
v 0.29125 -1.19938 0.52521
v 0.30363 -0.95938 0.54667
v 0.32760 -0.96062 0.54667
v 0.32762 -0.96014 0.54667
v 0.30362 -0.95986 0.54667
v 0.30651 -0.71986 0.55168
v 0.33051 -0.72014 0.55168
v 0.33051 -0.71958 0.55168
v 0.30652 -0.72042 0.55168
v 0.29809 -0.48042 0.53708
v 0.32208 -0.47958 0.53708
v 0.32207 -0.47941 0.53708
v 0.29810 -0.48059 0.53708
v 0.28620 -0.24059 0.51647
v 0.31017 -0.23941 0.51647
v 0.31018 -0.23979 0.51647
v 0.28618 -0.24021 0.51647
v 0.28200 -0.00021 0.50922
v 0.30599 0.00021 0.50922
v 0.30599 -0.00044 0.50922
v 0.28200 0.00044 0.50922
v 0.29090 0.24044 0.52463
v 0.31489 0.23956 0.52463
v 0.31486 0.23915 0.52463
v 0.29092 0.24085 0.52463
v 0.30796 0.48085 0.55414
v 0.33190 0.47915 0.55414
v 0.33191 0.47931 0.55414
v 0.30795 0.48069 0.55414
v 0.32177 0.72069 0.57808
v 0.34573 0.71931 0.57808
v 0.34575 0.71990 0.57808
v 0.32175 0.72010 0.57808
v 0.32380 0.96010 0.58163
v 0.34780 0.95990 0.58163
v 0.34779 0.96042 0.58163
v 0.32381 0.95958 0.58163
v 0.31550 1.19958 0.56723
v 0.33948 1.20042 0.56723
v 0.13175 -1.19973 0.67917
v 0.10776 -1.20027 0.67917
v 0.10240 -0.96027 0.64878
v 0.12639 -0.95973 0.64878
v 0.12640 -0.95997 0.64878
v 0.10240 -0.96003 0.64878
v 0.10171 -0.72003 0.64489
v 0.12571 -0.71997 0.64489
v 0.12571 -0.72024 0.64489
v 0.10171 -0.71976 0.64489
v 0.10652 -0.47976 0.67216
v 0.13052 -0.48024 0.67216
v 0.13052 -0.48034 0.67216
v 0.10653 -0.47966 0.67216
v 0.11330 -0.23966 0.71060
v 0.13729 -0.24034 0.71060
v 0.13730 -0.24019 0.71060
v 0.11330 -0.23981 0.71060
v 0.11702 0.00019 0.73172
v 0.14102 -0.00019 0.73172
v 0.14102 0.00009 0.73172
v 0.11702 -0.00009 0.73172
v 0.11528 0.23991 0.72183
v 0.13928 0.24009 0.72183
v 0.13928 0.24025 0.72183
v 0.11528 0.23975 0.72183
v 0.11029 0.47975 0.69352
v 0.13428 0.48025 0.69352
v 0.13429 0.48016 0.69352
v 0.11029 0.47984 0.69352
v 0.10715 0.71984 0.67574
v 0.13115 0.72016 0.67574
v 0.13115 0.71987 0.67574
v 0.10715 0.72013 0.67574
v 0.10971 0.96013 0.69026
v 0.13371 0.95987 0.69026
v 0.13371 0.95962 0.69026
v 0.10972 0.96038 0.69026
v 0.11734 1.20038 0.73350
v 0.14133 1.19962 0.73350
v -0.10776 -1.19972 0.67917
v -0.13175 -1.20028 0.67917
v -0.13730 -0.96028 0.71064
v -0.11331 -0.95972 0.71064
v -0.11331 -0.95994 0.71064
v -0.13731 -0.96006 0.71064
v -0.13857 -0.72006 0.71779
v -0.11457 -0.71994 0.71779
v -0.11457 -0.72019 0.71779
v -0.13856 -0.71981 0.71779
v -0.13471 -0.47981 0.69595
v -0.11072 -0.48019 0.69595
v -0.11072 -0.48027 0.69595
v -0.13471 -0.47973 0.69595
v -0.12927 -0.23973 0.66512
v -0.10528 -0.24027 0.66512
v -0.10528 -0.24010 0.66512
v -0.12928 -0.23990 0.66512
v -0.12728 0.00010 0.65378
v -0.10328 -0.00010 0.65378
v -0.10328 0.00019 0.65378
v -0.12728 -0.00019 0.65378
v -0.13113 0.23981 0.67562
v -0.10713 0.24019 0.67562
v -0.10714 0.24037 0.67562
v -0.13112 0.23963 0.67562
v -0.13861 0.47963 0.71806
v -0.11462 0.48037 0.71806
v -0.11462 0.48030 0.71806
v -0.13861 0.47970 0.71806
v -0.14462 0.71970 0.75213
v -0.12063 0.72030 0.75213
v -0.12062 0.72003 0.75213
v -0.14462 0.71997 0.75213
v -0.14532 0.95997 0.75609
v -0.12132 0.96003 0.75609
v -0.12132 0.95980 0.75609
v -0.14532 0.96020 0.75609
v -0.14133 1.20020 0.73350
v -0.11734 1.19980 0.73350
v -0.29125 -1.20059 0.52521
v -0.31522 -1.19941 0.52521
v -0.30331 -0.95941 0.50460
v -0.27934 -0.96059 0.50460
v -0.27933 -0.96007 0.50460
v -0.30333 -0.95993 0.50460
v -0.30189 -0.71993 0.50210
v -0.27789 -0.72007 0.50210
v -0.27790 -0.71946 0.50210
v -0.30188 -0.72054 0.50210
v -0.31273 -0.48054 0.52091
v -0.28876 -0.47946 0.52091
v -0.28877 -0.47924 0.52091
v -0.31272 -0.48076 0.52091
v -0.32802 -0.24076 0.54740
v -0.30407 -0.23924 0.54740
v -0.30405 -0.23957 0.54740
v -0.32803 -0.24043 0.54740
v -0.33659 -0.00043 0.56222
v -0.31260 0.00043 0.56222
v -0.31260 -0.00018 0.56222
v -0.33659 0.00018 0.56222
v -0.33303 0.24018 0.55605
v -0.30904 0.23982 0.55605
v -0.30905 0.23946 0.55605
v -0.33302 0.24054 0.55605
v -0.32229 0.48054 0.53746
v -0.29831 0.47946 0.53746
v -0.29831 0.47967 0.53746
v -0.32230 0.48033 0.53746
v -0.31576 0.72033 0.52613
v -0.29176 0.71967 0.52613
v -0.29176 0.72031 0.52613
v -0.31576 0.71969 0.52613
v -0.32195 0.95969 0.53686
v -0.29796 0.96031 0.53686
v -0.29799 0.96087 0.53686
v -0.32193 0.95913 0.53686
v -0.33946 1.19913 0.56723
v -0.31552 1.20087 0.56723
v -0.33283 -1.19947 0.28934
v -0.35681 -1.20053 0.28934
v -0.36734 -0.96053 0.29817
v -0.34336 -0.95947 0.29817
v -0.34335 -0.95987 0.29817
v -0.36735 -0.96013 0.29817
v -0.37000 -0.72013 0.30040
v -0.34600 -0.71987 0.30040
v -0.34601 -0.72034 0.30040
v -0.37000 -0.71966 0.30040
v -0.36324 -0.47966 0.29473
v -0.33925 -0.48034 0.29473
v -0.33925 -0.48048 0.29473
v -0.36324 -0.47952 0.29473
v -0.35369 -0.23952 0.28672
v -0.32971 -0.24048 0.28672
v -0.32970 -0.24014 0.28672
v -0.35370 -0.23986 0.28672
v -0.35080 0.00014 0.28429
v -0.32681 -0.00014 0.28429
v -0.32681 0.00041 0.28429
v -0.35080 -0.00041 0.28429
v -0.35909 0.23959 0.29125
v -0.33510 0.24041 0.29125
v -0.33512 0.24076 0.29125
v -0.35907 0.23924 0.29125
v -0.37438 0.47924 0.30409
v -0.35043 0.48076 0.30409
v -0.35042 0.48064 0.30409
v -0.37439 0.47936 0.30409
v -0.38712 0.71936 0.31477
v -0.36315 0.72064 0.31477
v -0.36313 0.72015 0.31477
v -0.38713 0.71985 0.31477
v -0.39007 0.95985 0.31724
v -0.36607 0.96015 0.31724
v -0.36608 0.95972 0.31724
v -0.39007 0.96028 0.31724
v -0.38440 1.20028 0.31249
v -0.36041 1.19972 0.31249
v -0.21307 -1.20017 0.08192
v -0.23707 -1.19983 0.08192
v -0.23369 -0.95983 0.08069
v -0.20969 -0.96017 0.08069
v -0.20969 -0.96000 0.08069
v -0.23369 -0.96000 0.08069
v -0.23359 -0.72000 0.08065
v -0.20959 -0.72000 0.08065
v -0.20959 -0.71981 0.08065
v -0.23359 -0.72019 0.08065
v -0.23732 -0.48019 0.08201
v -0.21332 -0.47981 0.08201
v -0.21332 -0.47974 0.08201
v -0.23732 -0.48026 0.08201
v -0.24256 -0.24026 0.08392
v -0.21857 -0.23974 0.08392
v -0.21857 -0.23983 0.08392
v -0.24256 -0.24017 0.08392
v -0.24605 -0.00017 0.08519
v -0.22205 0.00017 0.08519
v -0.22205 0.00001 0.08519
v -0.24605 -0.00001 0.08519
v -0.24621 0.23999 0.08524
v -0.22221 0.24001 0.08524
v -0.22221 0.23991 0.08524
v -0.24621 0.24009 0.08524
v -0.24448 0.48009 0.08461
v -0.22048 0.47991 0.08461
v -0.22048 0.47999 0.08461
v -0.24448 0.48001 0.08461
v -0.24419 0.72001 0.08451
v -0.22019 0.71999 0.08451
v -0.22020 0.72018 0.08451
v -0.24419 0.71982 0.08451
v -0.24786 0.95982 0.08585
v -0.22386 0.96018 0.08585
v -0.22387 0.96036 0.08585
v -0.24786 0.95964 0.08585
v -0.25507 1.19964 0.08847
v -0.23108 1.20036 0.08847
v 0.01200 -1.20000 0.00000
v -0.01200 -1.20000 0.00000
v -0.01200 -0.96000 0.00000
v 0.01200 -0.96000 0.00000
v 0.01200 -0.96000 0.00000
v -0.01200 -0.96000 0.00000
v -0.01200 -0.72000 0.00000
v 0.01200 -0.72000 0.00000
v 0.01200 -0.72000 0.00000
v -0.01200 -0.72000 0.00000
v -0.01200 -0.48000 0.00000
v 0.01200 -0.48000 0.00000
v 0.01200 -0.48000 0.00000
v -0.01200 -0.48000 0.00000
v -0.01200 -0.24000 0.00000
v 0.01200 -0.24000 0.00000
v 0.01200 -0.24000 0.00000
v -0.01200 -0.24000 0.00000
v -0.01200 -0.00000 0.00000
v 0.01200 0.00000 0.00000
v 0.01200 0.00000 0.00000
v -0.01200 -0.00000 0.00000
v -0.01200 0.24000 0.00000
v 0.01200 0.24000 0.00000
v 0.01200 0.24000 0.00000
v -0.01200 0.24000 0.00000
v -0.01200 0.48000 0.00000
v 0.01200 0.48000 0.00000
v 0.01200 0.48000 0.00000
v -0.01200 0.48000 0.00000
v -0.01200 0.72000 0.00000
v 0.01200 0.72000 0.00000
v 0.01200 0.72000 0.00000
v -0.01200 0.72000 0.00000
v -0.01200 0.96000 0.00000
v 0.01200 0.96000 0.00000
v 0.01200 0.96000 0.00000
v -0.01200 0.96000 0.00000
v -0.01200 1.20000 0.00000
v 0.01200 1.20000 0.00000
v 0.00000 -1.21200 0.00000
v 0.00000 -1.18800 0.00000
v 0.11976 -1.18800 0.02112
v 0.11976 -1.21200 0.02112
v 0.11976 -1.21200 0.02112
v 0.11976 -1.18800 0.02112
v 0.22507 -1.18800 0.08192
v 0.22507 -1.21200 0.08192
v 0.22507 -1.21200 0.08192
v 0.22507 -1.18800 0.08192
v 0.30323 -1.18800 0.17507
v 0.30323 -1.21200 0.17507
v 0.30323 -1.21200 0.17507
v 0.30323 -1.18800 0.17507
v 0.34482 -1.18800 0.28934
v 0.34482 -1.21200 0.28934
v 0.34482 -1.18800 0.28934
v 0.34482 -1.21200 0.28934
v 0.34482 -1.21200 0.41094
v 0.34482 -1.18800 0.41094
v 0.34482 -1.18800 0.41094
v 0.34482 -1.21200 0.41094
v 0.30323 -1.21200 0.52521
v 0.30323 -1.18800 0.52521
v 0.30323 -1.18800 0.52521
v 0.30323 -1.21200 0.52521
v 0.22507 -1.21200 0.61836
v 0.22507 -1.18800 0.61836
v 0.22507 -1.18800 0.61836
v 0.22507 -1.21200 0.61836
v 0.11976 -1.21200 0.67917
v 0.11976 -1.18800 0.67917
v 0.11976 -1.18800 0.67917
v 0.11976 -1.21200 0.67917
v 0.00000 -1.21200 0.70028
v 0.00000 -1.18800 0.70028
v 0.00000 -1.18800 0.70028
v 0.00000 -1.21200 0.70028
v -0.11976 -1.21200 0.67917
v -0.11976 -1.18800 0.67917
v -0.11976 -1.18800 0.67917
v -0.11976 -1.21200 0.67917
v -0.22507 -1.21200 0.61836
v -0.22507 -1.18800 0.61836
v -0.22507 -1.18800 0.61836
v -0.22507 -1.21200 0.61836
v -0.30323 -1.21200 0.52521
v -0.30323 -1.18800 0.52521
v -0.30323 -1.18800 0.52521
v -0.30323 -1.21200 0.52521
v -0.34482 -1.21200 0.41094
v -0.34482 -1.18800 0.41094
v -0.34482 -1.21200 0.41094
v -0.34482 -1.18800 0.41094
v -0.34482 -1.18800 0.28934
v -0.34482 -1.21200 0.28934
v -0.34482 -1.21200 0.28934
v -0.34482 -1.18800 0.28934
v -0.30323 -1.18800 0.17507
v -0.30323 -1.21200 0.17507
v -0.30323 -1.21200 0.17507
v -0.30323 -1.18800 0.17507
v -0.22507 -1.18800 0.08192
v -0.22507 -1.21200 0.08192
v -0.22507 -1.21200 0.08192
v -0.22507 -1.18800 0.08192
v -0.11976 -1.18800 0.02112
v -0.11976 -1.21200 0.02112
v -0.11976 -1.21200 0.02112
v -0.11976 -1.18800 0.02112
v -0.00000 -1.18800 0.00000
v -0.00000 -1.21200 0.00000
v 0.00000 -0.73200 0.00000
v 0.00000 -0.70800 0.00000
v 0.12657 -0.70800 0.02232
v 0.12657 -0.73200 0.02232
v 0.12657 -0.73200 0.02232
v 0.12657 -0.70800 0.02232
v 0.22998 -0.70800 0.08371
v 0.22998 -0.73200 0.08371
v 0.22998 -0.73200 0.08371
v 0.22998 -0.70800 0.08371
v 0.28989 -0.70800 0.16737
v 0.28989 -0.73200 0.16737
v 0.28989 -0.73200 0.16737
v 0.28989 -0.70800 0.16737
v 0.33385 -0.70800 0.28013
v 0.33385 -0.73200 0.28013
v 0.33385 -0.73200 0.28013
v 0.33385 -0.70800 0.28013
v 0.35800 -0.70800 0.42665
v 0.35800 -0.73200 0.42665
v 0.35800 -0.70800 0.42665
v 0.35800 -0.73200 0.42665
v 0.31851 -0.73200 0.55168
v 0.31851 -0.70800 0.55168
v 0.31851 -0.70800 0.55168
v 0.31851 -0.73200 0.55168
v 0.22159 -0.73200 0.60882
v 0.22159 -0.70800 0.60882
v 0.22159 -0.70800 0.60882
v 0.22159 -0.73200 0.60882
v 0.11371 -0.73200 0.64489
v 0.11371 -0.70800 0.64489
v 0.11371 -0.70800 0.64489
v 0.11371 -0.73200 0.64489
v 0.00000 -0.73200 0.70252
v 0.00000 -0.70800 0.70252
v 0.00000 -0.70800 0.70252
v 0.00000 -0.73200 0.70252
v -0.12657 -0.73200 0.71779
v -0.12657 -0.70800 0.71779
v -0.12657 -0.70800 0.71779
v -0.12657 -0.73200 0.71779
v -0.22998 -0.73200 0.63187
v -0.22998 -0.70800 0.63187
v -0.22998 -0.70800 0.63187
v -0.22998 -0.73200 0.63187
v -0.28989 -0.73200 0.50210
v -0.28989 -0.70800 0.50210
v -0.28989 -0.70800 0.50210
v -0.28989 -0.73200 0.50210
v -0.33385 -0.73200 0.39786
v -0.33385 -0.70800 0.39786
v -0.33385 -0.70800 0.39786
v -0.33385 -0.73200 0.39786
v -0.35800 -0.73200 0.30040
v -0.35800 -0.70800 0.30040
v -0.35800 -0.73200 0.30040
v -0.35800 -0.70800 0.30040
v -0.31851 -0.70800 0.18389
v -0.31851 -0.73200 0.18389
v -0.31851 -0.73200 0.18389
v -0.31851 -0.70800 0.18389
v -0.22159 -0.70800 0.08065
v -0.22159 -0.73200 0.08065
v -0.22159 -0.73200 0.08065
v -0.22159 -0.70800 0.08065
v -0.11371 -0.70800 0.02005
v -0.11371 -0.73200 0.02005
v -0.11371 -0.73200 0.02005
v -0.11371 -0.70800 0.02005
v -0.00000 -0.70800 0.00000
v -0.00000 -0.73200 0.00000
v 0.00000 -0.25200 0.00000
v 0.00000 -0.22800 0.00000
v 0.11728 -0.22800 0.02068
v 0.11728 -0.25200 0.02068
v 0.11728 -0.25200 0.02068
v 0.11728 -0.22800 0.02068
v 0.22533 -0.22800 0.08201
v 0.22533 -0.25200 0.08201
v 0.22533 -0.25200 0.08201
v 0.22533 -0.22800 0.08201
v 0.31604 -0.22800 0.18247
v 0.31604 -0.25200 0.18247
v 0.31604 -0.25200 0.18247
v 0.31604 -0.22800 0.18247
v 0.35677 -0.22800 0.29937
v 0.35677 -0.25200 0.29937
v 0.35677 -0.22800 0.29937
v 0.35677 -0.25200 0.29937
v 0.34170 -0.25200 0.40722
v 0.34170 -0.22800 0.40722
v 0.34170 -0.22800 0.40722
v 0.34170 -0.25200 0.40722
v 0.29818 -0.25200 0.51647
v 0.29818 -0.22800 0.51647
v 0.29818 -0.22800 0.51647
v 0.29818 -0.25200 0.51647
v 0.23056 -0.25200 0.63347
v 0.23056 -0.22800 0.63347
v 0.23056 -0.22800 0.63347
v 0.23056 -0.25200 0.63347
v 0.12530 -0.25200 0.71060
v 0.12530 -0.22800 0.71060
v 0.12530 -0.22800 0.71060
v 0.12530 -0.25200 0.71060
v 0.00000 -0.25200 0.70925
v 0.00000 -0.22800 0.70925
v 0.00000 -0.22800 0.70925
v 0.00000 -0.25200 0.70925
v -0.11728 -0.25200 0.66512
v -0.11728 -0.22800 0.66512
v -0.11728 -0.22800 0.66512
v -0.11728 -0.25200 0.66512
v -0.22533 -0.25200 0.61909
v -0.22533 -0.22800 0.61909
v -0.22533 -0.22800 0.61909
v -0.22533 -0.25200 0.61909
v -0.31604 -0.25200 0.54740
v -0.31604 -0.22800 0.54740
v -0.31604 -0.22800 0.54740
v -0.31604 -0.25200 0.54740
v -0.35677 -0.25200 0.42518
v -0.35677 -0.22800 0.42518
v -0.35677 -0.25200 0.42518
v -0.35677 -0.22800 0.42518
v -0.34170 -0.22800 0.28672
v -0.34170 -0.25200 0.28672
v -0.34170 -0.25200 0.28672
v -0.34170 -0.22800 0.28672
v -0.29818 -0.22800 0.17216
v -0.29818 -0.25200 0.17216
v -0.29818 -0.25200 0.17216
v -0.29818 -0.22800 0.17216
v -0.23056 -0.22800 0.08392
v -0.23056 -0.25200 0.08392
v -0.23056 -0.25200 0.08392
v -0.23056 -0.22800 0.08392
v -0.12530 -0.22800 0.02209
v -0.12530 -0.25200 0.02209
v -0.12530 -0.25200 0.02209
v -0.12530 -0.22800 0.02209
v -0.00000 -0.22800 0.00000
v -0.00000 -0.25200 0.00000
v 0.00000 0.22800 0.00000
v 0.00000 0.25200 0.00000
v 0.11913 0.25200 0.02101
v 0.11913 0.22800 0.02101
v 0.11913 0.22800 0.02101
v 0.11913 0.25200 0.02101
v 0.22889 0.25200 0.08331
v 0.22889 0.22800 0.08331
v 0.22889 0.22800 0.08331
v 0.22889 0.25200 0.08331
v 0.32103 0.25200 0.18535
v 0.32103 0.22800 0.18535
v 0.32103 0.22800 0.18535
v 0.32103 0.25200 0.18535
v 0.36241 0.25200 0.30410
v 0.36241 0.22800 0.30410
v 0.36241 0.25200 0.30410
v 0.36241 0.22800 0.30410
v 0.34710 0.22800 0.41365
v 0.34710 0.25200 0.41365
v 0.34710 0.25200 0.41365
v 0.34710 0.22800 0.41365
v 0.30289 0.22800 0.52463
v 0.30289 0.25200 0.52463
v 0.30289 0.25200 0.52463
v 0.30289 0.22800 0.52463
v 0.23421 0.22800 0.64348
v 0.23421 0.25200 0.64348
v 0.23421 0.25200 0.64348
v 0.23421 0.22800 0.64348
v 0.12728 0.22800 0.72183
v 0.12728 0.25200 0.72183
v 0.12728 0.25200 0.72183
v 0.12728 0.22800 0.72183
v 0.00000 0.22800 0.72045
v 0.00000 0.25200 0.72045
v 0.00000 0.25200 0.72045
v 0.00000 0.22800 0.72045
v -0.11913 0.22800 0.67562
v -0.11913 0.25200 0.67562
v -0.11913 0.25200 0.67562
v -0.11913 0.22800 0.67562
v -0.22889 0.22800 0.62887
v -0.22889 0.25200 0.62887
v -0.22889 0.25200 0.62887
v -0.22889 0.22800 0.62887
v -0.32103 0.22800 0.55605
v -0.32103 0.25200 0.55605
v -0.32103 0.25200 0.55605
v -0.32103 0.22800 0.55605
v -0.36241 0.22800 0.43190
v -0.36241 0.25200 0.43190
v -0.36241 0.22800 0.43190
v -0.36241 0.25200 0.43190
v -0.34710 0.25200 0.29125
v -0.34710 0.22800 0.29125
v -0.34710 0.22800 0.29125
v -0.34710 0.25200 0.29125
v -0.30289 0.25200 0.17488
v -0.30289 0.22800 0.17488
v -0.30289 0.22800 0.17488
v -0.30289 0.25200 0.17488
v -0.23421 0.25200 0.08524
v -0.23421 0.22800 0.08524
v -0.23421 0.22800 0.08524
v -0.23421 0.25200 0.08524
v -0.12728 0.25200 0.02244
v -0.12728 0.22800 0.02244
v -0.12728 0.22800 0.02244
v -0.12728 0.25200 0.02244
v -0.00000 0.25200 0.00000
v -0.00000 0.22800 0.00000
v 0.00000 0.70800 0.00000
v 0.00000 0.73200 0.00000
v 0.13262 0.73200 0.02338
v 0.13262 0.70800 0.02338
v 0.13262 0.70800 0.02338
v 0.13262 0.73200 0.02338
v 0.24099 0.73200 0.08771
v 0.24099 0.70800 0.08771
v 0.24099 0.70800 0.08771
v 0.24099 0.73200 0.08771
v 0.30376 0.73200 0.17538
v 0.30376 0.70800 0.17538
v 0.30376 0.70800 0.17538
v 0.30376 0.73200 0.17538
v 0.34982 0.73200 0.29353
v 0.34982 0.70800 0.29353
v 0.34982 0.70800 0.29353
v 0.34982 0.73200 0.29353
v 0.37513 0.73200 0.44707
v 0.37513 0.70800 0.44707
v 0.37513 0.73200 0.44707
v 0.37513 0.70800 0.44707
v 0.33375 0.70800 0.57808
v 0.33375 0.73200 0.57808
v 0.33375 0.73200 0.57808
v 0.33375 0.70800 0.57808
v 0.23219 0.70800 0.63795
v 0.23219 0.73200 0.63795
v 0.23219 0.73200 0.63795
v 0.23219 0.70800 0.63795
v 0.11915 0.70800 0.67574
v 0.11915 0.73200 0.67574
v 0.11915 0.73200 0.67574
v 0.11915 0.70800 0.67574
v 0.00000 0.70800 0.73614
v 0.00000 0.73200 0.73614
v 0.00000 0.73200 0.73614
v 0.00000 0.70800 0.73614
v -0.13262 0.70800 0.75213
v -0.13262 0.73200 0.75213
v -0.13262 0.73200 0.75213
v -0.13262 0.70800 0.75213
v -0.24099 0.70800 0.66210
v -0.24099 0.73200 0.66210
v -0.24099 0.73200 0.66210
v -0.24099 0.70800 0.66210
v -0.30376 0.70800 0.52613
v -0.30376 0.73200 0.52613
v -0.30376 0.73200 0.52613
v -0.30376 0.70800 0.52613
v -0.34982 0.70800 0.41690
v -0.34982 0.73200 0.41690
v -0.34982 0.73200 0.41690
v -0.34982 0.70800 0.41690
v -0.37513 0.70800 0.31477
v -0.37513 0.73200 0.31477
v -0.37513 0.70800 0.31477
v -0.37513 0.73200 0.31477
v -0.33375 0.73200 0.19269
v -0.33375 0.70800 0.19269
v -0.33375 0.70800 0.19269
v -0.33375 0.73200 0.19269
v -0.23219 0.73200 0.08451
v -0.23219 0.70800 0.08451
v -0.23219 0.70800 0.08451
v -0.23219 0.73200 0.08451
v -0.11915 0.73200 0.02101
v -0.11915 0.70800 0.02101
v -0.11915 0.70800 0.02101
v -0.11915 0.73200 0.02101
v -0.00000 0.73200 0.00000
v -0.00000 0.70800 0.00000
v 0.00000 1.18800 0.00000
v 0.00000 1.21200 0.00000
v 0.12934 1.21200 0.02281
v 0.12934 1.18800 0.02281
v 0.12934 1.18800 0.02281
v 0.12934 1.21200 0.02281
v 0.24307 1.21200 0.08847
v 0.24307 1.18800 0.08847
v 0.24307 1.18800 0.08847
v 0.24307 1.21200 0.08847
v 0.32749 1.21200 0.18908
v 0.32749 1.18800 0.18908
v 0.32749 1.18800 0.18908
v 0.32749 1.21200 0.18908
v 0.37241 1.21200 0.31249
v 0.37241 1.18800 0.31249
v 0.37241 1.21200 0.31249
v 0.37241 1.18800 0.31249
v 0.37241 1.18800 0.44382
v 0.37241 1.21200 0.44382
v 0.37241 1.21200 0.44382
v 0.37241 1.18800 0.44382
v 0.32749 1.18800 0.56723
v 0.32749 1.21200 0.56723
v 0.32749 1.21200 0.56723
v 0.32749 1.18800 0.56723
v 0.24307 1.18800 0.66783
v 0.24307 1.21200 0.66783
v 0.24307 1.21200 0.66783
v 0.24307 1.18800 0.66783
v 0.12934 1.18800 0.73350
v 0.12934 1.21200 0.73350
v 0.12934 1.21200 0.73350
v 0.12934 1.18800 0.73350
v 0.00000 1.18800 0.75630
v 0.00000 1.21200 0.75630
v 0.00000 1.21200 0.75630
v 0.00000 1.18800 0.75630
v -0.12934 1.18800 0.73350
v -0.12934 1.21200 0.73350
v -0.12934 1.21200 0.73350
v -0.12934 1.18800 0.73350
v -0.24307 1.18800 0.66783
v -0.24307 1.21200 0.66783
v -0.24307 1.21200 0.66783
v -0.24307 1.18800 0.66783
v -0.32749 1.18800 0.56723
v -0.32749 1.21200 0.56723
v -0.32749 1.21200 0.56723
v -0.32749 1.18800 0.56723
v -0.37241 1.18800 0.44382
v -0.37241 1.21200 0.44382
v -0.37241 1.18800 0.44382
v -0.37241 1.21200 0.44382
v -0.37241 1.21200 0.31249
v -0.37241 1.18800 0.31249
v -0.37241 1.18800 0.31249
v -0.37241 1.21200 0.31249
v -0.32749 1.21200 0.18908
v -0.32749 1.18800 0.18908
v -0.32749 1.18800 0.18908
v -0.32749 1.21200 0.18908
v -0.24307 1.21200 0.08847
v -0.24307 1.18800 0.08847
v -0.24307 1.18800 0.08847
v -0.24307 1.21200 0.08847
v -0.12934 1.21200 0.02281
v -0.12934 1.18800 0.02281
v -0.12934 1.18800 0.02281
v -0.12934 1.21200 0.02281
v -0.00000 1.21200 0.00000
v -0.00000 1.18800 0.00000
f 1 2 3
f 1 3 4
f 5 6 7
f 5 7 8
f 9 10 11
f 9 11 12
f 13 14 15
f 13 15 16
f 17 18 19
f 17 19 20
f 21 22 23
f 21 23 24
f 25 26 27
f 25 27 28
f 29 30 31
f 29 31 32
f 33 34 35
f 33 35 36
f 37 38 39
f 37 39 40
f 41 42 43
f 41 43 44
f 45 46 47
f 45 47 48
f 49 50 51
f 49 51 52
f 53 54 55
f 53 55 56
f 57 58 59
f 57 59 60
f 61 62 63
f 61 63 64
f 65 66 67
f 65 67 68
f 69 70 71
f 69 71 72
f 73 74 75
f 73 75 76
f 77 78 79
f 77 79 80
f 81 82 83
f 81 83 84
f 85 86 87
f 85 87 88
f 89 90 91
f 89 91 92
f 93 94 95
f 93 95 96
f 97 98 99
f 97 99 100
f 101 102 103
f 101 103 104
f 105 106 107
f 105 107 108
f 109 110 111
f 109 111 112
f 113 114 115
f 113 115 116
f 117 118 119
f 117 119 120
f 121 122 123
f 121 123 124
f 125 126 127
f 125 127 128
f 129 130 131
f 129 131 132
f 133 134 135
f 133 135 136
f 137 138 139
f 137 139 140
f 141 142 143
f 141 143 144
f 145 146 147
f 145 147 148
f 149 150 151
f 149 151 152
f 153 154 155
f 153 155 156
f 157 158 159
f 157 159 160
f 161 162 163
f 161 163 164
f 165 166 167
f 165 167 168
f 169 170 171
f 169 171 172
f 173 174 175
f 173 175 176
f 177 178 179
f 177 179 180
f 181 182 183
f 181 183 184
f 185 186 187
f 185 187 188
f 189 190 191
f 189 191 192
f 193 194 195
f 193 195 196
f 197 198 199
f 197 199 200
f 201 202 203
f 201 203 204
f 205 206 207
f 205 207 208
f 209 210 211
f 209 211 212
f 213 214 215
f 213 215 216
f 217 218 219
f 217 219 220
f 221 222 223
f 221 223 224
f 225 226 227
f 225 227 228
f 229 230 231
f 229 231 232
f 233 234 235
f 233 235 236
f 237 238 239
f 237 239 240
f 241 242 243
f 241 243 244
f 245 246 247
f 245 247 248
f 249 250 251
f 249 251 252
f 253 254 255
f 253 255 256
f 257 258 259
f 257 259 260
f 261 262 263
f 261 263 264
f 265 266 267
f 265 267 268
f 269 270 271
f 269 271 272
f 273 274 275
f 273 275 276
f 277 278 279
f 277 279 280
f 281 282 283
f 281 283 284
f 285 286 287
f 285 287 288
f 289 290 291
f 289 291 292
f 293 294 295
f 293 295 296
f 297 298 299
f 297 299 300
f 301 302 303
f 301 303 304
f 305 306 307
f 305 307 308
f 309 310 311
f 309 311 312
f 313 314 315
f 313 315 316
f 317 318 319
f 317 319 320
f 321 322 323
f 321 323 324
f 325 326 327
f 325 327 328
f 329 330 331
f 329 331 332
f 333 334 335
f 333 335 336
f 337 338 339
f 337 339 340
f 341 342 343
f 341 343 344
f 345 346 347
f 345 347 348
f 349 350 351
f 349 351 352
f 353 354 355
f 353 355 356
f 357 358 359
f 357 359 360
f 361 362 363
f 361 363 364
f 365 366 367
f 365 367 368
f 369 370 371
f 369 371 372
f 373 374 375
f 373 375 376
f 377 378 379
f 377 379 380
f 381 382 383
f 381 383 384
f 385 386 387
f 385 387 388
f 389 390 391
f 389 391 392
f 393 394 395
f 393 395 396
f 397 398 399
f 397 399 400
f 401 402 403
f 401 403 404
f 405 406 407
f 405 407 408
f 409 410 411
f 409 411 412
f 413 414 415
f 413 415 416
f 417 418 419
f 417 419 420
f 421 422 423
f 421 423 424
f 425 426 427
f 425 427 428
f 429 430 431
f 429 431 432
f 433 434 435
f 433 435 436
f 437 438 439
f 437 439 440
f 441 442 443
f 441 443 444
f 445 446 447
f 445 447 448
f 449 450 451
f 449 451 452
f 453 454 455
f 453 455 456
f 457 458 459
f 457 459 460
f 461 462 463
f 461 463 464
f 465 466 467
f 465 467 468
f 469 470 471
f 469 471 472
f 473 474 475
f 473 475 476
f 477 478 479
f 477 479 480
f 481 482 483
f 481 483 484
f 485 486 487
f 485 487 488
f 489 490 491
f 489 491 492
f 493 494 495
f 493 495 496
f 497 498 499
f 497 499 500
f 501 502 503
f 501 503 504
f 505 506 507
f 505 507 508
f 509 510 511
f 509 511 512
f 513 514 515
f 513 515 516
f 517 518 519
f 517 519 520
f 521 522 523
f 521 523 524
f 525 526 527
f 525 527 528
f 529 530 531
f 529 531 532
f 533 534 535
f 533 535 536
f 537 538 539
f 537 539 540
f 541 542 543
f 541 543 544
f 545 546 547
f 545 547 548
f 549 550 551
f 549 551 552
f 553 554 555
f 553 555 556
f 557 558 559
f 557 559 560
f 561 562 563
f 561 563 564
f 565 566 567
f 565 567 568
f 569 570 571
f 569 571 572
f 573 574 575
f 573 575 576
f 577 578 579
f 577 579 580
f 581 582 583
f 581 583 584
f 585 586 587
f 585 587 588
f 589 590 591
f 589 591 592
f 593 594 595
f 593 595 596
f 597 598 599
f 597 599 600
f 601 602 603
f 601 603 604
f 605 606 607
f 605 607 608
f 609 610 611
f 609 611 612
f 613 614 615
f 613 615 616
f 617 618 619
f 617 619 620
f 621 622 623
f 621 623 624
f 625 626 627
f 625 627 628
f 629 630 631
f 629 631 632
f 633 634 635
f 633 635 636
f 637 638 639
f 637 639 640
f 641 642 643
f 641 643 644
f 645 646 647
f 645 647 648
f 649 650 651
f 649 651 652
f 653 654 655
f 653 655 656
f 657 658 659
f 657 659 660
f 661 662 663
f 661 663 664
f 665 666 667
f 665 667 668
f 669 670 671
f 669 671 672
f 673 674 675
f 673 675 676
f 677 678 679
f 677 679 680
f 681 682 683
f 681 683 684
f 685 686 687
f 685 687 688
f 689 690 691
f 689 691 692
f 693 694 695
f 693 695 696
f 697 698 699
f 697 699 700
f 701 702 703
f 701 703 704
f 705 706 707
f 705 707 708
f 709 710 711
f 709 711 712
f 713 714 715
f 713 715 716
f 717 718 719
f 717 719 720
f 721 722 723
f 721 723 724
f 725 726 727
f 725 727 728
f 729 730 731
f 729 731 732
f 733 734 735
f 733 735 736
f 737 738 739
f 737 739 740
f 741 742 743
f 741 743 744
f 745 746 747
f 745 747 748
f 749 750 751
f 749 751 752
f 753 754 755
f 753 755 756
f 757 758 759
f 757 759 760
f 761 762 763
f 761 763 764
f 765 766 767
f 765 767 768
f 769 770 771
f 769 771 772
f 773 774 775
f 773 775 776
f 777 778 779
f 777 779 780
f 781 782 783
f 781 783 784
f 785 786 787
f 785 787 788
f 789 790 791
f 789 791 792
f 793 794 795
f 793 795 796
f 797 798 799
f 797 799 800
f 801 802 803
f 801 803 804
f 805 806 807
f 805 807 808
f 809 810 811
f 809 811 812
f 813 814 815
f 813 815 816
f 817 818 819
f 817 819 820
f 821 822 823
f 821 823 824
f 825 826 827
f 825 827 828
f 829 830 831
f 829 831 832
