# iteration_01_cut_body.obj
o iteration_01_cut_body.obj
v -0.49500 -1.20000 0.00000
v -0.41239 -1.20000 0.00287
v -0.33077 -1.20000 0.01139
v -0.25109 -1.20000 0.02530
v -0.17425 -1.20000 0.04419
v -0.10106 -1.20000 0.06751
v -0.03224 -1.20000 0.09455
v 0.03165 -1.20000 0.12451
v 0.09017 -1.20000 0.15649
v 0.14305 -1.20000 0.18955
v 0.19021 -1.20000 0.22270
v 0.23169 -1.20000 0.25496
v 0.26776 -1.20000 0.28535
v 0.29879 -1.20000 0.31299
v 0.32535 -1.20000 0.33703
v 0.34812 -1.20000 0.35678
v 0.36789 -1.20000 0.37163
v 0.38555 -1.20000 0.38115
v 0.40205 -1.20000 0.38506
v 0.41837 -1.20000 0.38323
v 0.43549 -1.20000 0.37573
v -0.49500 -1.02857 0.00000
v -0.41177 -1.02857 0.00292
v -0.33000 -1.02857 0.01152
v -0.25216 -1.02857 0.02501
v -0.17651 -1.02857 0.04338
v -0.10103 -1.02857 0.06752
v -0.02911 -1.02857 0.09633
v 0.03376 -1.02857 0.12597
v 0.08803 -1.02857 0.15473
v 0.13951 -1.02857 0.18606
v 0.19025 -1.02857 0.22275
v 0.23513 -1.02857 0.25976
v 0.26974 -1.02857 0.28870
v 0.29710 -1.02857 0.30945
v 0.32301 -1.02857 0.33083
v 0.34814 -1.02857 0.35686
v 0.36923 -1.02857 0.37864
v 0.38601 -1.02857 0.38563
v 0.40198 -1.02857 0.38071
v 0.41887 -1.02857 0.37618
v 0.43548 -1.02857 0.37581
v -0.49500 -0.85714 0.00000
v -0.41140 -0.85714 0.00295
v -0.32953 -0.85714 0.01160
v -0.25272 -0.85714 0.02487
v -0.17772 -0.85714 0.04295
v -0.10093 -0.85714 0.06757
v -0.02726 -0.85714 0.09739
v 0.03505 -0.85714 0.12686
v 0.08693 -0.85714 0.15381
v 0.13761 -0.85714 0.18420
v 0.19038 -0.85714 0.22290
v 0.23717 -0.85714 0.26262
v 0.27095 -0.85714 0.29075
v 0.29622 -0.85714 0.30763
v 0.32176 -0.85714 0.32751
v 0.34821 -0.85714 0.35710
v 0.37002 -0.85714 0.38280
v 0.38629 -0.85714 0.38836
v 0.40195 -0.85714 0.37847
v 0.41913 -0.85714 0.37240
v 0.43544 -0.85714 0.37607
v -0.49500 -0.68571 0.00000
v -0.41143 -0.68571 0.00295
v -0.32955 -0.68571 0.01160
v -0.25248 -0.68571 0.02493
v -0.17731 -0.68571 0.04309
v -0.10077 -0.68571 0.06764
v -0.02743 -0.68571 0.09729
v 0.03501 -0.68571 0.12683
v 0.08740 -0.68571 0.15420
v 0.13825 -0.68571 0.18482
v 0.19059 -0.68571 0.22315
v 0.23698 -0.68571 0.26235
v 0.27091 -0.68571 0.29069
v 0.29659 -0.68571 0.30840
v 0.32218 -0.68571 0.32862
v 0.34832 -0.68571 0.35750
v 0.36995 -0.68571 0.38241
v 0.38628 -0.68571 0.38828
v 0.40196 -0.68571 0.37942
v 0.41904 -0.68571 0.37367
v 0.43537 -0.68571 0.37649
v -0.49500 -0.51429 0.00000
v -0.41184 -0.51429 0.00292
v -0.33001 -0.51429 0.01152
v -0.25151 -0.51429 0.02519
v -0.17540 -0.51429 0.04378
v -0.10054 -0.51429 0.06775
v -0.02949 -0.51429 0.09612
v 0.03374 -0.51429 0.12595
v 0.08932 -0.51429 0.15580
v 0.14124 -0.51429 0.18777
v 0.19089 -0.51429 0.22350
v 0.23472 -0.51429 0.25919
v 0.26972 -0.51429 0.28867
v 0.29812 -0.51429 0.31159
v 0.32415 -0.51429 0.33386
v 0.34848 -0.51429 0.35806
v 0.36907 -0.51429 0.37780
v 0.38601 -0.51429 0.38559
v 0.40202 -0.51429 0.38335
v 0.41862 -0.51429 0.37962
v 0.43528 -0.51429 0.37708
v -0.49500 -0.34286 0.00000
v -0.41243 -0.34286 0.00286
v -0.33067 -0.34286 0.01140
v -0.25016 -0.34286 0.02555
v -0.17274 -0.34286 0.04474
v -0.10024 -0.34286 0.06789
v -0.03242 -0.34286 0.09445
v 0.03191 -0.34286 0.12469
v 0.09201 -0.34286 0.15802
v 0.14542 -0.34286 0.19188
v 0.19127 -0.34286 0.22395
v 0.23150 -0.34286 0.25468
v 0.26801 -0.34286 0.28577
v 0.30026 -0.34286 0.31603
v 0.32692 -0.34286 0.34118
v 0.34869 -0.34286 0.35878
v 0.36782 -0.34286 0.37123
v 0.38561 -0.34286 0.38172
v 0.40211 -0.34286 0.38881
v 0.41803 -0.34286 0.38795
v 0.43516 -0.34286 0.37784
v -0.49500 -0.17143 0.00000
v -0.41290 -0.17143 0.00282
v -0.33119 -0.17143 0.01131
v -0.24893 -0.17143 0.02587
v -0.17036 -0.17143 0.04559
v -0.09988 -0.17143 0.06805
v -0.03480 -0.17143 0.09309
v 0.03048 -0.17143 0.12370
v 0.09445 -0.17143 0.16003
v 0.14914 -0.17143 0.19555
v 0.19174 -0.17143 0.22450
v 0.22888 -0.17143 0.25101
v 0.26666 -0.17143 0.28351
v 0.30220 -0.17143 0.32007
v 0.32938 -0.17143 0.34769
v 0.34893 -0.17143 0.35966
v 0.36680 -0.17143 0.36588
v 0.38530 -0.17143 0.37869
v 0.40219 -0.17143 0.39378
v 0.41751 -0.17143 0.39536
v 0.43501 -0.17143 0.37877
v -0.49500 0.00000 0.00000
v -0.41303 0.00000 0.00281
v -0.33127 0.00000 0.01130
v -0.24825 0.00000 0.02605
v -0.16919 0.00000 0.04602
v -0.09945 0.00000 0.06825
v -0.03542 0.00000 0.09273
v 0.03026 0.00000 0.12355
v 0.09578 0.00000 0.16114
v 0.15099 0.00000 0.19736
v 0.19230 0.00000 0.22515
v 0.22820 0.00000 0.25006
v 0.26646 0.00000 0.28316
v 0.30325 0.00000 0.32227
v 0.33060 0.00000 0.35092
v 0.34923 0.00000 0.36070
v 0.36653 0.00000 0.36449
v 0.38525 0.00000 0.37823
v 0.40223 0.00000 0.39648
v 0.41725 0.00000 0.39903
v 0.43484 0.00000 0.37986
v -0.49500 0.17143 0.00000
v -0.41270 0.17143 0.00284
v -0.33078 0.17143 0.01138
v -0.24832 0.17143 0.02603
v -0.16957 0.17143 0.04588
v -0.09896 0.17143 0.06848
v -0.03379 0.17143 0.09367
v 0.03160 0.17143 0.12447
v 0.09565 0.17143 0.16103
v 0.15038 0.17143 0.19677
v 0.19294 0.17143 0.22590
v 0.23000 0.17143 0.25258
v 0.26771 0.17143 0.28527
v 0.30315 0.17143 0.32207
v 0.33020 0.17143 0.34986
v 0.34957 0.17143 0.36190
v 0.36723 0.17143 0.36816
v 0.38554 0.17143 0.38105
v 0.40222 0.17143 0.39623
v 0.41733 0.17143 0.39782
v 0.43464 0.17143 0.38113
v -0.49500 0.34286 0.00000
v -0.41201 0.34286 0.00290
v -0.32985 0.34286 0.01154
v -0.24895 0.34286 0.02586
v -0.17118 0.34286 0.04530
v -0.09840 0.34286 0.06874
v -0.03035 0.34286 0.09563
v 0.03417 0.34286 0.12625
v 0.09440 0.34286 0.15999
v 0.14786 0.34286 0.19428
v 0.19367 0.34286 0.22675
v 0.23377 0.34286 0.25787
v 0.27012 0.34286 0.28935
v 0.30215 0.34286 0.31999
v 0.32853 0.34286 0.34544
v 0.34995 0.34286 0.36326
v 0.36870 0.34286 0.37587
v 0.38610 0.34286 0.38649
v 0.40218 0.34286 0.39367
v 0.41769 0.34286 0.39280
v 0.43441 0.34286 0.38256
v -0.49500 0.51429 0.00000
v -0.41121 0.51429 0.00297
v -0.32877 0.51429 0.01173
v -0.24973 0.51429 0.02566
v -0.17312 0.51429 0.04460
v -0.09778 0.51429 0.06902
v -0.02632 0.51429 0.09792
v 0.03717 0.51429 0.12832
v 0.09286 0.51429 0.15872
v 0.14482 0.51429 0.19130
v 0.19448 0.51429 0.22770
v 0.23820 0.51429 0.26406
v 0.27293 0.51429 0.29410
v 0.30094 0.51429 0.31745
v 0.32652 0.51429 0.34013
v 0.35038 0.51429 0.36479
v 0.37042 0.51429 0.38490
v 0.38675 0.51429 0.39283
v 0.40214 0.51429 0.39055
v 0.41812 0.51429 0.38676
v 0.43415 0.51429 0.38416
v -0.49500 0.68571 0.00000
v -0.41058 0.68571 0.00302
v -0.32788 0.68571 0.01189
v -0.25012 0.68571 0.02555
v -0.17431 0.68571 0.04417
v -0.09709 0.68571 0.06934
v -0.02315 0.68571 0.09973
v 0.03962 0.68571 0.13002
v 0.09207 0.68571 0.15807
v 0.14296 0.68571 0.18946
v 0.19537 0.68571 0.22875
v 0.24168 0.68571 0.26893
v 0.27522 0.68571 0.29798
v 0.30031 0.68571 0.31614
v 0.32529 0.68571 0.33687
v 0.35085 0.68571 0.36647
v 0.37178 0.68571 0.39200
v 0.38728 0.68571 0.39802
v 0.40211 0.68571 0.38894
v 0.41838 0.68571 0.38305
v 0.43387 0.68571 0.38594
v -0.49500 0.85714 0.00000
v -0.41032 0.85714 0.00305
v -0.32745 0.85714 0.01196
v -0.24977 0.85714 0.02565
v -0.17397 0.85714 0.04429
v -0.09633 0.85714 0.06969
v -0.02190 0.85714 0.10045
v 0.04082 0.85714 0.13084
v 0.09277 0.85714 0.15864
v 0.14349 0.85714 0.18998
v 0.19636 0.85714 0.22990
v 0.24306 0.85714 0.27087
v 0.27635 0.85714 0.29988
v 0.30086 0.85714 0.31729
v 0.32564 0.85714 0.33779
v 0.35137 0.85714 0.36831
v 0.37232 0.85714 0.39482
v 0.38754 0.85714 0.40056
v 0.40213 0.85714 0.39035
v 0.41830 0.85714 0.38410
v 0.43357 0.85714 0.38788
v -0.49500 1.02857 0.00000
v -0.41049 1.02857 0.00303
v -0.32751 1.02857 0.01195
v -0.24861 1.02857 0.02596
v -0.17196 1.02857 0.04502
v -0.09551 1.02857 0.07007
v -0.02275 1.02857 0.09996
v 0.04063 1.02857 0.13072
v 0.09508 1.02857 0.16056
v 0.14664 1.02857 0.19308
v 0.19742 1.02857 0.23115
v 0.24213 1.02857 0.26956
v 0.27618 1.02857 0.29959
v 0.30270 1.02857 0.32112
v 0.32772 1.02857 0.34330
v 0.35194 1.02857 0.37031
v 0.37195 1.02857 0.39292
v 0.38750 1.02857 0.40017
v 0.40221 1.02857 0.39507
v 0.41786 1.02857 0.39036
v 0.43323 1.02857 0.38998
v -0.49500 1.20000 0.00000
v -0.41093 1.20000 0.00299
v -0.32790 1.20000 0.01189
v -0.24689 1.20000 0.02641
v -0.16885 1.20000 0.04614
v -0.09462 1.20000 0.07048
v -0.02495 1.20000 0.09871
v 0.03957 1.20000 0.12998
v 0.09849 1.20000 0.16338
v 0.15153 1.20000 0.19789
v 0.19858 1.20000 0.23250
v 0.23971 1.20000 0.26617
v 0.27518 1.20000 0.29791
v 0.30541 1.20000 0.32676
v 0.33096 1.20000 0.35186
v 0.35255 1.20000 0.37247
v 0.37101 1.20000 0.38798
v 0.38727 1.20000 0.39792
v 0.40232 1.20000 0.40200
v 0.41717 1.20000 0.40010
v 0.43287 1.20000 0.39226
f 1 2 23
f 1 23 22
f 2 3 24
f 2 24 23
f 3 4 25
f 3 25 24
f 4 5 26
f 4 26 25
f 5 6 27
f 5 27 26
f 6 7 28
f 6 28 27
f 7 8 29
f 7 29 28
f 8 9 30
f 8 30 29
f 9 10 31
f 9 31 30
f 10 11 32
f 10 32 31
f 11 12 33
f 11 33 32
f 12 13 34
f 12 34 33
f 13 14 35
f 13 35 34
f 14 15 36
f 14 36 35
f 15 16 37
f 15 37 36
f 16 17 38
f 16 38 37
f 17 18 39
f 17 39 38
f 18 19 40
f 18 40 39
f 19 20 41
f 19 41 40
f 20 21 42
f 20 42 41
f 22 23 44
f 22 44 43
f 23 24 45
f 23 45 44
f 24 25 46
f 24 46 45
f 25 26 47
f 25 47 46
f 26 27 48
f 26 48 47
f 27 28 49
f 27 49 48
f 28 29 50
f 28 50 49
f 29 30 51
f 29 51 50
f 30 31 52
f 30 52 51
f 31 32 53
f 31 53 52
f 32 33 54
f 32 54 53
f 33 34 55
f 33 55 54
f 34 35 56
f 34 56 55
f 35 36 57
f 35 57 56
f 36 37 58
f 36 58 57
f 37 38 59
f 37 59 58
f 38 39 60
f 38 60 59
f 39 40 61
f 39 61 60
f 40 41 62
f 40 62 61
f 41 42 63
f 41 63 62
f 43 44 65
f 43 65 64
f 44 45 66
f 44 66 65
f 45 46 67
f 45 67 66
f 46 47 68
f 46 68 67
f 47 48 69
f 47 69 68
f 48 49 70
f 48 70 69
f 49 50 71
f 49 71 70
f 50 51 72
f 50 72 71
f 51 52 73
f 51 73 72
f 52 53 74
f 52 74 73
f 53 54 75
f 53 75 74
f 54 55 76
f 54 76 75
f 55 56 77
f 55 77 76
f 56 57 78
f 56 78 77
f 57 58 79
f 57 79 78
f 58 59 80
f 58 80 79
f 59 60 81
f 59 81 80
f 60 61 82
f 60 82 81
f 61 62 83
f 61 83 82
f 62 63 84
f 62 84 83
f 64 65 86
f 64 86 85
f 65 66 87
f 65 87 86
f 66 67 88
f 66 88 87
f 67 68 89
f 67 89 88
f 68 69 90
f 68 90 89
f 69 70 91
f 69 91 90
f 70 71 92
f 70 92 91
f 71 72 93
f 71 93 92
f 72 73 94
f 72 94 93
f 73 74 95
f 73 95 94
f 74 75 96
f 74 96 95
f 75 76 97
f 75 97 96
f 76 77 98
f 76 98 97
f 77 78 99
f 77 99 98
f 78 79 100
f 78 100 99
f 79 80 101
f 79 101 100
f 80 81 102
f 80 102 101
f 81 82 103
f 81 103 102
f 82 83 104
f 82 104 103
f 83 84 105
f 83 105 104
f 85 86 107
f 85 107 106
f 86 87 108
f 86 108 107
f 87 88 109
f 87 109 108
f 88 89 110
f 88 110 109
f 89 90 111
f 89 111 110
f 90 91 112
f 90 112 111
f 91 92 113
f 91 113 112
f 92 93 114
f 92 114 113
f 93 94 115
f 93 115 114
f 94 95 116
f 94 116 115
f 95 96 117
f 95 117 116
f 96 97 118
f 96 118 117
f 97 98 119
f 97 119 118
f 98 99 120
f 98 120 119
f 99 100 121
f 99 121 120
f 100 101 122
f 100 122 121
f 101 102 123
f 101 123 122
f 102 103 124
f 102 124 123
f 103 104 125
f 103 125 124
f 104 105 126
f 104 126 125
f 106 107 128
f 106 128 127
f 107 108 129
f 107 129 128
f 108 109 130
f 108 130 129
f 109 110 131
f 109 131 130
f 110 111 132
f 110 132 131
f 111 112 133
f 111 133 132
f 112 113 134
f 112 134 133
f 113 114 135
f 113 135 134
f 114 115 136
f 114 136 135
f 115 116 137
f 115 137 136
f 116 117 138
f 116 138 137
f 117 118 139
f 117 139 138
f 118 119 140
f 118 140 139
f 119 120 141
f 119 141 140
f 120 121 142
f 120 142 141
f 121 122 143
f 121 143 142
f 122 123 144
f 122 144 143
f 123 124 145
f 123 145 144
f 124 125 146
f 124 146 145
f 125 126 147
f 125 147 146
f 127 128 149
f 127 149 148
f 128 129 150
f 128 150 149
f 129 130 151
f 129 151 150
f 130 131 152
f 130 152 151
f 131 132 153
f 131 153 152
f 132 133 154
f 132 154 153
f 133 134 155
f 133 155 154
f 134 135 156
f 134 156 155
f 135 136 157
f 135 157 156
f 136 137 158
f 136 158 157
f 137 138 159
f 137 159 158
f 138 139 160
f 138 160 159
f 139 140 161
f 139 161 160
f 140 141 162
f 140 162 161
f 141 142 163
f 141 163 162
f 142 143 164
f 142 164 163
f 143 144 165
f 143 165 164
f 144 145 166
f 144 166 165
f 145 146 167
f 145 167 166
f 146 147 168
f 146 168 167
f 148 149 170
f 148 170 169
f 149 150 171
f 149 171 170
f 150 151 172
f 150 172 171
f 151 152 173
f 151 173 172
f 152 153 174
f 152 174 173
f 153 154 175
f 153 175 174
f 154 155 176
f 154 176 175
f 155 156 177
f 155 177 176
f 156 157 178
f 156 178 177
f 157 158 179
f 157 179 178
f 158 159 180
f 158 180 179
f 159 160 181
f 159 181 180
f 160 161 182
f 160 182 181
f 161 162 183
f 161 183 182
f 162 163 184
f 162 184 183
f 163 164 185
f 163 185 184
f 164 165 186
f 164 186 185
f 165 166 187
f 165 187 186
f 166 167 188
f 166 188 187
f 167 168 189
f 167 189 188
f 169 170 191
f 169 191 190
f 170 171 192
f 170 192 191
f 171 172 193
f 171 193 192
f 172 173 194
f 172 194 193
f 173 174 195
f 173 195 194
f 174 175 196
f 174 196 195
f 175 176 197
f 175 197 196
f 176 177 198
f 176 198 197
f 177 178 199
f 177 199 198
f 178 179 200
f 178 200 199
f 179 180 201
f 179 201 200
f 180 181 202
f 180 202 201
f 181 182 203
f 181 203 202
f 182 183 204
f 182 204 203
f 183 184 205
f 183 205 204
f 184 185 206
f 184 206 205
f 185 186 207
f 185 207 206
f 186 187 208
f 186 208 207
f 187 188 209
f 187 209 208
f 188 189 210
f 188 210 209
f 190 191 212
f 190 212 211
f 191 192 213
f 191 213 212
f 192 193 214
f 192 214 213
f 193 194 215
f 193 215 214
f 194 195 216
f 194 216 215
f 195 196 217
f 195 217 216
f 196 197 218
f 196 218 217
f 197 198 219
f 197 219 218
f 198 199 220
f 198 220 219
f 199 200 221
f 199 221 220
f 200 201 222
f 200 222 221
f 201 202 223
f 201 223 222
f 202 203 224
f 202 224 223
f 203 204 225
f 203 225 224
f 204 205 226
f 204 226 225
f 205 206 227
f 205 227 226
f 206 207 228
f 206 228 227
f 207 208 229
f 207 229 228
f 208 209 230
f 208 230 229
f 209 210 231
f 209 231 230
f 211 212 233
f 211 233 232
f 212 213 234
f 212 234 233
f 213 214 235
f 213 235 234
f 214 215 236
f 214 236 235
f 215 216 237
f 215 237 236
f 216 217 238
f 216 238 237
f 217 218 239
f 217 239 238
f 218 219 240
f 218 240 239
f 219 220 241
f 219 241 240
f 220 221 242
f 220 242 241
f 221 222 243
f 221 243 242
f 222 223 244
f 222 244 243
f 223 224 245
f 223 245 244
f 224 225 246
f 224 246 245
f 225 226 247
f 225 247 246
f 226 227 248
f 226 248 247
f 227 228 249
f 227 249 248
f 228 229 250
f 228 250 249
f 229 230 251
f 229 251 250
f 230 231 252
f 230 252 251
f 232 233 254
f 232 254 253
f 233 234 255
f 233 255 254
f 234 235 256
f 234 256 255
f 235 236 257
f 235 257 256
f 236 237 258
f 236 258 257
f 237 238 259
f 237 259 258
f 238 239 260
f 238 260 259
f 239 240 261
f 239 261 260
f 240 241 262
f 240 262 261
f 241 242 263
f 241 263 262
f 242 243 264
f 242 264 263
f 243 244 265
f 243 265 264
f 244 245 266
f 244 266 265
f 245 246 267
f 245 267 266
f 246 247 268
f 246 268 267
f 247 248 269
f 247 269 268
f 248 249 270
f 248 270 269
f 249 250 271
f 249 271 270
f 250 251 272
f 250 272 271
f 251 252 273
f 251 273 272
f 253 254 275
f 253 275 274
f 254 255 276
f 254 276 275
f 255 256 277
f 255 277 276
f 256 257 278
f 256 278 277
f 257 258 279
f 257 279 278
f 258 259 280
f 258 280 279
f 259 260 281
f 259 281 280
f 260 261 282
f 260 282 281
f 261 262 283
f 261 283 282
f 262 263 284
f 262 284 283
f 263 264 285
f 263 285 284
f 264 265 286
f 264 286 285
f 265 266 287
f 265 287 286
f 266 267 288
f 266 288 287
f 267 268 289
f 267 289 288
f 268 269 290
f 268 290 289
f 269 270 291
f 269 291 290
f 270 271 292
f 270 292 291
f 271 272 293
f 271 293 292
f 272 273 294
f 272 294 293
f 274 275 296
f 274 296 295
f 275 276 297
f 275 297 296
f 276 277 298
f 276 298 297
f 277 278 299
f 277 299 298
f 278 279 300
f 278 300 299
f 279 280 301
f 279 301 300
f 280 281 302
f 280 302 301
f 281 282 303
f 281 303 302
f 282 283 304
f 282 304 303
f 283 284 305
f 283 305 304
f 284 285 306
f 284 306 305
f 285 286 307
f 285 307 306
f 286 287 308
f 286 308 307
f 287 288 309
f 287 309 308
f 288 289 310
f 288 310 309
f 289 290 311
f 289 311 310
f 290 291 312
f 290 312 311
f 291 292 313
f 291 313 312
f 292 293 314
f 292 314 313
f 293 294 315
f 293 315 314
