v 9.953077387495885 0.0001682012614757244 0.9717065527671799 0.0 0.15 1.0
v 10.563828873198052 2.500400789299889 1.109524407817551 0.06471845510300082 0.15 0.9352815448969992
v 11.169561656766616 4.999912938356561 1.279587566718972 0.12683064048237336 0.15 0.8731693595176266
v 11.775074091613183 7.499383357684678 1.4510556131316819 0.19178386556144425 0.15 0.8082161344385558
v 12.381573131629581 9.999040200569064 1.616182092587384 0.2520081221812572 0.15 0.7479918778187429
v 12.988918000330584 12.498845850130413 1.7758526143095026 0.31464052811248205 0.15 0.685359471887518
v 13.596899512512536 14.998756675686282 1.9314049758081098 0.3772501780368803 0.15 0.6227498219631197
v 14.205384144366024 17.498745794407675 2.083694351373043 0.42716999123858584 0.15 0.5728300087614142
v 14.814301917586844 19.998799139388513 2.233170232511331 0.48751909797115084 0.15 0.5124809020288492
v 15.42349045114544 22.498891356012976 2.380885218529996 0.5789953649926709 0.15 0.4210046350073291
v 16.032771808424712 24.998997158683018 2.5279968821353784 0.6293972712078647 0.15 0.3706027287921353
v 16.641868089471128 27.49907717585616 2.676313297186399 0.6923192849852008 0.15 0.3076807150147992
v 17.250644172782632 29.999110784635207 2.826711207266742 0.7552118836711187 0.15 0.2447881163288813
v 17.859263544496123 32.49912145409606 2.9781299762437534 0.8173980408294957 0.15 0.18260195917050426
v 18.468330231804874 34.99919614013635 3.1266465125125524 0.8791274323824874 0.15 0.12087256761751264
v 19.078651137366418 37.499434047867396 3.266991493236979 0.9401776052194297 0.15 0.059822394780570276
v 19.69134194656644 39.999908257906455 3.3917688790600877 1.0 0.15 0.0
l 1 2
l 2 3
l 3 4
l 4 5
l 5 6
l 6 7
l 7 8
l 8 9
l 9 10
l 10 11
l 11 12
l 12 13
l 13 14
l 14 15
l 15 16
l 16 17
v 9.434722244944867 -1.807071689976076e-05 3.27924190189105 0.0 0.15 1.0
v 10.027682573429713 2.500411193424199 3.475318047364025 0.06537387827951967 0.15 0.9346261217204803
v 10.625015305722798 5.00074308739406 3.659101957317759 0.1288512187991118 0.15 0.8711487812008882
v 11.226937297559726 7.500893807488068 3.829925478736378 0.19156172276056416 0.15 0.8084382772394358
v 11.832367298675955 10.000858732597692 3.990807143788427 0.2540605785280252 0.15 0.7459394214719748
v 12.439530902923714 12.500715963656104 4.146763786261244 0.31675047530665495 0.15 0.683249524693345
v 13.047651747424736 15.000509028527816 4.299997582246124 0.3792850239131944 0.15 0.6207149760868056
v 13.656669319451755 17.500238981044838 4.450678393605121 0.44192325967458956 0.15 0.5580767403254104
v 14.266733425971315 19.999891535282057 4.598377034243112 0.5045875940698259 0.15 0.4954124059301741
v 14.877662848218089 22.49947752164806 4.743607877312852 0.567468179575253 0.15 0.432531820424747
v 15.488404248976302 24.999078382145118 4.889375394818277 0.6304489969432564 0.15 0.3695510030567436
v 16.09698933160128 27.49883812667898 5.041287024006221 0.6930642362116249 0.15 0.30693576378837506
v 16.701849688809414 29.99883544619206 5.203784706713208 0.7565876695420196 0.15 0.24341233045798039
v 17.30279319674223 32.49903177222977 5.377376681545618 0.8196862942812517 0.15 0.18031370571874827
v 17.900947269482756 34.99933726137937 5.558845522832731 0.8805504921105692 0.15 0.11944950788943076
v 18.497430125232945 37.49969478783091 5.745023672967887 0.940327916594327 0.15 0.05967208340567298
v 19.093014573543687 40.00007761846464 5.933731459450992 1.0 0.15 0.0
l 18 19
l 19 20
l 20 21
l 21 22
l 22 23
l 23 24
l 24 25
l 25 26
l 26 27
l 27 28
l 28 29
l 29 30
l 30 31
l 31 32
l 32 33
l 33 34
v 8.422491609063611 0.001131158756259775 5.3703518875653256 0.0 0.15 1.0
v 8.991525574908836 2.5025884722002814 5.642832463847232 0.0650639305583357 0.15 0.9349360694416643
v 9.590449582299211 5.002409580434029 5.861414313515164 0.12769376600848575 0.15 0.8723062339915142
v 10.21055417746756 7.50021042848869 6.040807827947905 0.19085103297660466 0.15 0.8091489670233953
v 10.839712771941201 9.996997254869195 6.2020946331095885 0.2530434588726094 0.15 0.7469565411273906
v 11.46870205993641 12.493942082465068 6.3616039275601635 0.3156359008882637 0.15 0.6843640991117363
v 12.09658778995753 14.991151965533206 6.521313796942201 0.3776377047772645 0.15 0.6223622952227355
v 12.718914527260708 17.490031780363786 6.676540011657886 0.44129468649455866 0.15 0.5587053135054414
v 13.340175006021653 19.989495524120752 6.82660295739176 0.5031813625122044 0.15 0.49681863748779564
v 13.964003037300925 22.488708661613412 6.970027105589682 0.5652538392075196 0.15 0.4347461607924804
v 14.588533834657081 24.987885752422184 7.110962726105575 0.6287153002116691 0.15 0.3712846997883309
v 15.206194359821357 27.48792401633004 7.26602871383349 0.6804473565200558 0.15 0.31955264347994417
v 15.81157678651603 29.98922241279202 7.446976870714056 0.7432886748004479 0.15 0.2567113251995521
v 16.40482594781188 32.491460670996055 7.653396654549173 0.8341130513340841 0.15 0.1658869486659159
v 16.98831165861614 34.994240494702645 7.880127397213318 0.8693057581232109 0.15 0.13069424187678913
v 17.563712862064307 37.497321685394176 8.123564048480976 0.9294912427908788 0.15 0.0705087572091212
v 18.13081642872992 40.00056296067748 8.384158248458453 1.0 0.15 0.0
l 35 36
l 36 37
l 37 38
l 38 39
l 39 40
l 40 41
l 41 42
l 42 43
l 43 44
l 44 45
l 45 46
l 46 47
l 47 48
l 48 49
l 49 50
l 50 51
v 6.960510484167562 0.0027016636834905545 7.170139330482141 0.0 0.15 1.0
v 7.490776616131343 2.5076776873442563 7.534679799576159 0.0647191727227976 0.15 0.9352808272772024
v 8.086420276907322 5.0084990969249805 7.817776368522431 0.12480330747197271 0.15 0.8751966925280272
v 8.746674783559401 7.501209788520585 8.017100903924407 0.18433265601000315 0.15 0.8156673439899969
v 9.433107600612615 9.989509236780126 8.181602749328626 0.2463639937165562 0.15 0.7536360062834437
v 10.105688652821552 12.480720215162865 8.358787576956013 0.3098907521734123 0.15 0.6901092478265878
v 10.759613829143452 14.977152513192534 8.532280203162118 0.37414059156111995 0.15 0.62585940843888
v 11.410050243411922 17.47451183660085 8.70560564455427 0.43566503413496926 0.15 0.5643349658650307
v 12.061353972629002 19.97186439780381 8.875725209504786 0.5113641784411219 0.15 0.4886358215588781
v 12.721898336888868 22.467747617734002 9.030976408893322 0.561799851264138 0.15 0.438200148735862
v 13.395655402206518 24.96128374776437 9.165871798220598 0.6268295608024199 0.15 0.3731704391975801
v 14.046343376758303 27.459418609428962 9.32560391762652 0.6896474593110452 0.15 0.3103525406889548
v 14.655551351949336 29.964534478924353 9.532729139220077 0.7560351953679689 0.15 0.24396480463203107
v 15.237727699381743 32.4721866888823 9.782731400254427 0.8199360390914432 0.15 0.1800639609085568
v 15.799813392507382 34.981207437685356 10.063215867429669 0.8816865114642258 0.15 0.11831348853577417
v 16.344176444341553 37.491084888592944 10.369752548190448 0.941720396818267 0.15 0.058279603181732975
v 16.8694966254376 40.00145754559429 10.704132492761394 1.0 0.15 0.0
l 52 53
l 53 54
l 54 55
l 55 56
l 56 57
l 57 58
l 58 59
l 59 60
l 60 61
l 61 62
l 62 63
l 63 64
l 64 65
l 65 66
l 66 67
l 67 68
v 5.096434726506871 0.008524226699473161 8.583317324768604 0.0 0.15 1.0
v 5.558374165597517 2.522197620934579 9.050849631277295 0.06326783562511822 0.15 0.9367321643748818
v 6.110250574961784 5.0295116437957486 9.449840740102394 0.12082346951161783 0.15 0.8791765304883822
v 6.825129763468462 7.511758686009249 9.715378452039303 0.17593029029223675 0.15 0.8240697097077633
v 7.663844894464137 9.966521843803985 9.853017000660259 0.23661426112194572 0.15 0.7633857388780543
v 8.386856792556328 12.452977750944966 10.067438670220461 0.3041946742149623 0.15 0.6958053257850376
v 9.082869907264588 14.947358404396597 10.28023730683919 0.36528792168571644 0.15 0.6347120783142836
v 9.775745573358153 17.442709590663988 10.49188790794629 0.43120480340701217 0.15 0.5687951965929878
v 10.461235446968914 19.939779536652107 10.70724660913713 0.4951210421996094 0.15 0.5048789578003906
v 11.150636089340225 22.437048035263352 10.906433341334395 0.5524447964799475 0.15 0.4475552035200525
v 11.922197597848664 24.91617172851954 10.984967409957017 0.6023726711495954 0.15 0.39762732885040464
v 12.630553675795026 27.410691433189807 11.135761892190335 0.685133920515712 0.15 0.314866079484288
v 13.240382562086731 29.92262455102 11.398750743565877 0.7555752388634591 0.15 0.24442476113654088
v 13.805239350073277 32.43959448945038 11.710460219059952 0.8193324524533476 0.15 0.18066754754665237
v 14.338216210319318 34.959156592248746 12.055741098576275 0.8816113749045671 0.15 0.11838862509543291
v 14.841333876151168 37.480381717422475 12.432236970930697 0.9412544635158082 0.15 0.058745536484191785
v 15.311383516172478 40.002563581155094 12.843443677114998 1.0 0.15 0.0
l 69 70
l 70 71
l 71 72
l 72 73
l 73 74
l 74 75
l 75 76
l 76 77
l 77 78
l 78 79
l 79 80
l 80 81
l 81 82
l 82 83
l 83 84
l 84 85
v 10.716869793608012 25.3706165351385 12.316546291044459 0.6297918421555628 0.15 0.37020815784443717
v 11.316948455663635 28.292524305198178 12.757343035221473 0.7054791054787249 0.15 0.29452089452127506
v 11.896553731505717 31.21804609711334 13.217913675996778 0.7706673873054005 0.15 0.22933261269459948
v 12.448929976519446 34.144855616662156 13.703597283301368 0.8659297532487737 0.15 0.13407024675122625
v 13.495945848460781 40.000001338123226 14.727808351189337 1.0 0.15 0.0
l 86 87
l 87 88
l 88 89
l 89 90
v 5.1671255357008645 8.1891635316201 10.881396044357984 0.17900820577265503 0.15 0.820991794227345
v 6.056572214691398 10.774083594962319 11.144062513153324 0.25028580411787077 0.15 0.7497141958821292
v 6.797057441674647 13.404023086082308 11.467810109536558 0.31805978257490086 0.15 0.6819402174250991
v 7.525639002829029 16.03649327432078 11.798057762746312 0.38331489276213343 0.15 0.6166851072378665
v 8.210020040833195 18.67803227971052 12.149109040005417 0.45649816549952105 0.15 0.543501834500479
v 8.806882393739992 21.335348610117112 12.538020543401993 0.5234352583482422 0.15 0.4765647416517578
v 9.213889988725153 23.997834234951974 13.065484617853224 0.5899369499665584 0.15 0.41006305003344157
v 9.428578165202632 26.65370029973525 13.730935215999992 0.658972744273315 0.15 0.341027255726685
v 9.809452988846221 29.32332854756994 14.276115069272535 0.7347636119666652 0.15 0.2652363880333348
v 10.21219346565395 31.993110871897994 14.805101566780518 0.8066629762165817 0.15 0.19333702378341833
v 10.618851952592436 34.66264566350159 15.332350196399005 0.876418388875403 0.15 0.12358161112459698
v 11.44904753817439 39.99995449542929 16.382584323247407 1.0 0.15 0.0
l 91 92
l 92 93
l 93 94
l 94 95
l 95 96
l 96 97
l 97 98
l 98 99
l 99 100
l 100 101
l 101 102
v 3.0367488794486155 0.0024133369034996504 9.519105778890964 0.0 0.15 1.0
v 3.2543325680995983 2.5114791590306926 10.111463303900322 0.06114030735439968 0.15 0.9388596926456003
v 3.5500159735063668 5.019812476276053 10.672765444390887 0.11850221032597814 0.15 0.8814977896740218
v 3.8371591318526392 7.528847196067148 11.234772797662824 0.1716171664102878 0.15 0.8283828335897122
v 3.982485872024364 10.037819578314847 11.845341775768535 0.22747704035470484 0.15 0.7725229596452952
v 4.43248548734266 12.535720195976179 12.342212018915427 0.28802263487256474 0.15 0.7119773651274353
v 5.065898170316738 15.008238668734917 12.765360593109508 0.3514541417185851 0.15 0.648545858281415
v 5.750827651558916 17.474255601460964 13.144782813283056 0.41438885049009117 0.15 0.5856111495099088
v 6.402190659002446 19.94918671407925 13.524489475601754 0.48193417055265053 0.15 0.5180658294473495
v 6.916317670635956 22.44428352728581 13.97426218771499 0.5505490334492358 0.15 0.4494509665507642
v 7.288298182624052 24.951319795218627 14.493955131010171 0.617531328414021 0.15 0.38246867158597897
v 7.625671921085637 27.46006959484246 15.029677807544683 0.6862243263250036 0.15 0.31377567367499637
v 7.973334526789201 29.968664209938357 15.559480082772701 0.7536350370708934 0.15 0.2463649629291066
v 8.309974499943284 32.47786684255906 16.0934529192484 0.8185439374020701 0.15 0.1814560625979299
v 8.619971461704353 34.98803047163996 16.638884882342513 0.8810958000752462 0.15 0.11890419992475376
v 8.89235527165049 37.49892509430154 17.200708991565197 0.9413751003169634 0.15 0.058624899683036635
v 9.116057906510797 40.00977751048996 17.783757543415263 1.0 0.15 0.0
l 103 104
l 104 105
l 105 106
l 106 107
l 107 108
l 108 109
l 109 110
l 110 111
l 111 112
l 112 113
l 113 114
l 114 115
l 115 116
l 116 117
l 117 118
l 118 119
v 0.7229036771975225 0.0031146159349035823 9.958576520471098 0.0 0.15 1.0
v 0.8002769268664499 2.5226567470442287 10.600178621720957 0.06082917191867224 0.15 0.9391708280813278
v 0.9685680165135532 5.042211869827443 11.224732091142641 0.11841500922447384 0.15 0.8815849907755262
v 1.1820623669500447 7.561640848709127 11.83608991625002 0.17303984936206 0.15 0.82696015063794
v 1.4494293944843553 10.080404216312553 12.428079324393522 0.22852773725490755 0.15 0.7714722627450925
v 1.8792167225534473 12.583306533202911 12.987113457269816 0.28214234961732604 0.15 0.7178576503826739
v 2.6376913888137907 15.020362897718643 13.47722147843156 0.3359517287406483 0.15 0.6640482712593516
v 3.4018934631324003 17.46619429481386 13.923922645999609 0.38272486346957524 0.15 0.6172751365304248
v 4.293624310906416 19.873966055591705 14.311971424451317 0.4679527410290541 0.15 0.532047258970946
v 4.834511314471307 22.370676649569877 14.79636186424119 0.5395144737364687 0.15 0.46048552626353134
v 5.233899684921498 24.884248102064856 15.33341816003732 0.6124993866372104 0.15 0.3875006133627896
v 5.573481958868052 27.402566869099793 15.88983748093999 0.6704787819664267 0.15 0.32952121803357326
v 5.882788559421122 29.92316696005199 16.45356888759214 0.7634094269183567 0.15 0.23659057308164333
v 6.157555626683024 32.445956094603595 17.025296419361023 0.8291172496343174 0.15 0.17088275036568257
v 6.3856203812792955 34.97075042819512 17.60851132441259 0.8673262350269193 0.15 0.1326737649730807
v 6.554199269803422 37.49665886552986 18.20679431163213 0.9278739523410429 0.15 0.07212604765895714
v 6.649307856494868 40.021830978171664 18.823930759522504 1.0 0.15 0.0
l 120 121
l 121 122
l 122 123
l 123 124
l 124 125
l 125 126
l 126 127
l 127 128
l 128 129
l 129 130
l 130 131
l 131 132
l 132 133
l 133 134
l 134 135
l 135 136
v 3.125962137682201 18.18078377155718 14.193489867894144 0.41580373924659586 0.15 0.5841962607534041
v 2.8841629029273737 20.885160656636543 14.939194052787416 0.5011389382542664 0.15 0.49886106174573364
v 3.0970875534928046 23.610434800420055 15.596934794583138 0.5813296660170529 0.15 0.41867033398294706
v 3.318444886098318 26.341332579948396 16.24600878361566 0.6545366892360551 0.15 0.3454633107639449
v 3.518431127169458 29.07286548707297 16.899392522451286 0.7277775893197137 0.15 0.2722224106802863
v 3.710789948208857 31.804615933705147 17.55414228864631 0.8003392392872455 0.15 0.19966076071275451
v 3.898491782284057 34.53643663818481 18.209925762525188 0.8713926050929607 0.15 0.12860739490703932
v 4.250420207623402 39.999888487617405 19.528670248386028 1.0 0.15 0.0
l 137 138
l 138 139
l 139 140
l 140 141
l 141 142
l 142 143
l 143 144
v 0.6841562038347426 15.610381863494698 13.86898502965165 0.332978250727623 0.15 0.667021749272377
v 0.8757381147548275 18.313781938689544 14.535423221746084 0.4133305579895443 0.15 0.5866694420104557
v 0.9202329184918948 21.02505086544461 15.211054562599726 0.49893222568151957 0.15 0.5010677743184804
v 1.037378211729942 23.735353753742665 15.882875323112533 0.5812427674482467 0.15 0.41875723255175334
v 1.1530522223330346 26.445708666901 16.554781327959116 0.6617377980471808 0.15 0.3382622019528192
v 1.262668736651324 29.156236594214956 17.227028217166694 0.738900440331076 0.15 0.26109955966892395
v 1.3694956439660695 31.866841261519365 17.899431302864702 0.8017171461323156 0.15 0.1982828538676844
v 1.4726033801014222 34.57754233992602 18.572041215944584 0.8733991413133045 0.15 0.12660085868669546
v 1.6478517013009581 39.999591706079514 19.918944141172712 1.0 0.15 0.0
l 145 146
l 146 147
l 147 148
l 148 149
l 149 150
l 150 151
l 151 152
l 152 153
v -1.6190087362687853 0.0015711126588682281 9.856459863939754 0.0 0.15 1.0
v -1.634055441741544 2.5021349505488866 10.48716106870199 0.06043286767296041 0.15 0.9395671323270396
v -1.6053993398286264 5.001372147057102 11.1228773223638 0.11812580832951845 0.15 0.8818741916704815
v -1.5554110286344958 7.499776645866569 11.760551598393633 0.17276941720327665 0.15 0.8272305827967233
v -1.4807581630874922 9.996917076194 12.400704088790862 0.225257553548296 0.15 0.774742446451704
v -1.3731346235360327 12.491918786082792 13.04448429031457 0.2745750680742003 0.15 0.7254249319257997
v -1.291479576608532 14.989732557734936 13.680675496805534 0.32319776065961137 0.15 0.6768022393403886
v -1.1609573575774275 17.48637398815816 14.312874495573114 0.39186665329536746 0.15 0.6081333467046326
v -1.1108970972879482 19.986982073496957 14.941675845308636 0.46831694985526945 0.15 0.5316830501447305
v -1.0782262736334134 22.48819569962499 15.5693875191545 0.5438715248501411 0.15 0.4561284751498589
v -1.0434640328427385 24.989435026478404 16.196869493868714 0.6164245730939066 0.15 0.38357542690609336
v -1.0138779987238775 27.490868928705243 16.823855458590508 0.68608551792904 0.15 0.31391448207095995
v -0.9910518180382586 29.992508751245527 17.45031927861855 0.739423179377969 0.15 0.260576820622031
v -0.9758871518738068 32.49433823318282 18.07626091466982 0.832852745059613 0.15 0.16714725494038696
v -0.9701584849135999 34.996351342890115 18.701639886280297 0.8682433236276602 0.15 0.1317566763723398
v -0.9774157662696937 37.49853239721501 19.326326719375366 0.9535938495196753 0.15 0.046406150480324704
v -1.00402292621728 40.00082057552386 19.950041849591415 1.0 0.15 0.0
l 154 155
l 155 156
l 156 157
l 157 158
l 158 159
l 159 160
l 160 161
l 161 162
l 162 163
l 163 164
l 164 165
l 165 166
l 166 167
l 167 168
l 168 169
l 169 170
v -3.007273323928798 18.616856411096585 14.335271766506754 0.4297856309245469 0.15 0.5702143690754531
v -3.0734828234011613 21.288460873721274 15.006955817618696 0.5069007789146329 0.15 0.4930992210853671
v -3.13971855618396 23.960353047065603 15.677547626318928 0.5874763318022126 0.15 0.4125236681977874
v -3.2056644865651704 26.63312189363487 16.344664333239596 0.6622509462580587 0.15 0.3377490537419413
v -3.2735712062952254 29.306360633000303 17.00968837258253 0.7349567686488485 0.15 0.2650432313511515
v -3.3448024268546592 31.979716148907464 17.673889576363354 0.8056753461145428 0.15 0.19432465388545717
v -3.4210222467216482 34.65313967894568 18.337244301458576 0.8745456551669357 0.15 0.12545434483306428
v -3.604951161137497 39.999974416625875 19.659850773305365 1.0 0.15 0.0
l 171 172
l 172 173
l 173 174
l 174 175
l 175 176
l 176 177
l 177 178
v -3.8644370519835487 0.0011122625850318749 9.224442616622449 0.0 0.15 1.0
v -4.014583397264041 2.5015836327133685 9.834875082552477 0.060743121784646754 0.15 0.9392568782153532
v -4.129600271890188 5.001140653238738 10.456691350216994 0.1171683984604517 0.15 0.8828316015395483
v -4.2278530151578035 7.499968049139139 11.084288364374137 0.1712616610491313 0.15 0.8287383389508687
v -4.312029853922636 9.998092442092323 11.716714545362798 0.22264540202198463 0.15 0.7773545979780154
v -4.382319807141022 12.495449945728536 12.353888540819217 0.27282590766380954 0.15 0.7271740923361905
v -4.477062962378707 14.993923773986628 12.982594798033592 0.3212031234213276 0.15 0.6787968765786724
v -4.759588163335834 17.492893317203546 13.54423195727217 0.38827982061758204 0.15 0.611720179382418
v -4.915352163317331 19.993768086305458 14.151722510299491 0.46779265705930423 0.15 0.5322073429406957
v -5.063993383468614 22.494472019916103 14.761711800578517 0.5434092674314461 0.15 0.45659073256855387
v -5.214135836212448 24.99520962174807 15.371171672585236 0.6159313651692613 0.15 0.3840686348307387
v -5.365808537495398 27.495982659408348 15.980095384834618 0.6856826214167725 0.15 0.3143173785832275
v -5.518372485100148 29.996775962048705 16.588710874992582 0.7529006432418457 0.15 0.2470993567581543
v -5.671834409208763 32.49759188343244 17.19701957987687 0.8180597099023595 0.15 0.18194029009764046
v -5.8267689672196825 34.99844136691833 17.80482209035309 0.880707900762269 0.15 0.11929209923773099
v -5.985091458291089 37.49936706083967 18.411447636824715 0.94131319984515 0.15 0.05868680015484995
v -6.151109234263691 40.00044146603143 19.015377511809582 1.0 0.15 0.0
l 179 180
l 180 181
l 181 182
l 182 183
l 183 184
l 184 185
l 185 186
l 186 187
l 187 188
l 188 189
l 189 190
l 190 191
l 191 192
l 192 193
l 193 194
l 194 195
v -6.579156458156191 15.987600881144084 12.35312031538244 0.3435490581140448 0.15 0.6564509418859552
v -6.650324939093801 18.64053106368952 13.052249409987288 0.4284970157680927 0.15 0.5715029842319073
v -6.864855225657866 21.30974441808988 13.688071115434681 0.5084711863278014 0.15 0.4915288136721986
v -7.094017334704701 23.979362518085022 14.317084287505043 0.5899079768400942 0.15 0.4100920231599058
v -7.333052405805872 26.649198081153713 14.941487954989944 0.6664079860611137 0.15 0.33359201393888627
v -7.579428317595352 29.31916826024037 15.56245686976091 0.7362932451678964 0.15 0.2637067548321036
v -7.830260959064248 31.9892051994986 16.181336346736867 0.8017670169753477 0.15 0.1982329830246523
v -8.08182158505162 34.65926166881871 16.799876897645408 0.8650278556280904 0.15 0.13497214437190963
v -8.594178411513026 39.99950372357589 18.03262559126113 1.0 0.15 0.0
l 196 197
l 197 198
l 198 199
l 199 200
l 200 201
l 201 202
l 202 203
l 203 204
v -5.887424184427187 0.0019372540649787444 8.071264798392683 0.0 0.15 1.0
v -6.173095240966801 2.5041816681383784 8.63478833572658 0.06018981222165103 0.15 0.939810187778349
v -6.435596626942486 5.004980124582538 9.215845549434432 0.11398139941392157 0.15 0.8860186005860784
v -6.688248868617973 7.504991876170163 9.804637542330052 0.16987103323411482 0.15 0.8301289667658852
v -6.931952100921879 10.004853244496875 10.397856463959119 0.22198683603517055 0.15 0.7780131639648294
v -7.163019688591704 12.506417579145875 10.988932813764603 0.26988694290846194 0.15 0.7301130570915381
v -7.459035951039938 15.00816128709141 11.540676341011975 0.3178424777803145 0.15 0.6821575222196855
v -8.075333157680825 17.47215315350964 11.874626432200143 0.38879567559285194 0.15 0.6112043244071481
v -8.39691785075967 19.975228331027754 12.414742290002122 0.46580044763200534 0.15 0.5341995523679947
v -8.714536874027422 22.478216385818275 12.957691751873966 0.5422870986863007 0.15 0.45771290131369935
v -9.033673146817884 24.98129472551488 13.499337294687114 0.6142550557414427 0.15 0.3857449442585573
v -9.350997701086584 27.484910316210012 14.039566076927473 0.6839375374585961 0.15 0.3160624625414039
v -9.665016449197525 29.98882163675926 14.58034875098621 0.7518187151967856 0.15 0.24818128480321444
v -9.975385067258518 32.49267615685046 15.123495982676875 0.8180042181037654 0.15 0.18199578189623455
v -10.280592929099525 34.99643058672547 15.669993172013587 0.8803938328158044 0.15 0.11960616718419559
v -10.581581387313982 37.50006285309509 16.219361202571825 0.9408161003143365 0.15 0.05918389968566351
v -10.880928671190954 40.00358509387277 16.770149715702992 1.0 0.15 0.0
l 205 206
l 206 207
l 207 208
l 208 209
l 209 210
l 210 211
l 211 212
l 212 213
l 213 214
l 214 215
l 215 216
l 216 217
l 217 218
l 218 219
l 219 220
l 220 221
v -7.611869071734102 0.0034730358580407302 6.474701419806857 0.0 0.15 1.0
v -8.034329248204106 2.50915291657178 6.943686170694982 0.059317986573234824 0.15 0.9406820134267652
v -8.4172201818682 5.01341269180971 7.452825520681173 0.11521923966879363 0.15 0.8847807603312063
v -8.772617683885427 7.516072272835594 7.989136589404012 0.16833579436367765 0.15 0.8316642056363224
v -9.104432429027396 10.016896980659473 8.548622905018581 0.22019139800161808 0.15 0.7798086019983819
v -9.416763325687096 12.515892309197795 9.12717902988794 0.26812129876979324 0.15 0.7318787012302068
v -9.631419112662275 14.999497786559632 9.797120585932177 0.31039982240826514 0.15 0.6896001775917349
v -9.711422709703106 17.454228940575398 10.555158009736914 0.4007046054057817 0.15 0.5992953945942183
v -10.036712322760284 19.957674750288252 11.10664701418608 0.464346766514084 0.15 0.535653233485916
v -10.373610527246385 22.461971750376332 11.647281255645536 0.5399726257677891 0.15 0.46002737423221085
v -10.71871177967811 24.966834499484996 12.180058554057004 0.6127796492473265 0.15 0.38722035075267347
v -11.07273426352231 27.47224606303504 12.704331734081379 0.6829496314342088 0.15 0.31705036856579116
v -11.437103708817336 29.978204589222322 13.2188177563163 0.7506665373710874 0.15 0.24933346262891265
v -11.813916054764075 32.48469294769438 13.72161978012786 0.8160728234366276 0.15 0.18392717656337243
v -12.205552762137525 34.991645171317224 14.210566530663947 0.8803404447636061 0.15 0.11965955523639393
v -12.615629963373143 37.49893406919405 14.6823486385799 0.9411345063300478 0.15 0.058865493669952196
v -13.049163583696167 40.006275271915456 15.132334519177615 1.0 0.15 0.0
l 222 223
l 223 224
l 224 225
l 225 226
l 226 227
l 227 228
l 228 229
l 229 230
l 230 231
l 231 232
l 232 233
l 233 234
l 234 235
l 235 236
l 236 237
l 237 238
v -10.90263895926478 17.276315258731135 9.267255302525239 0.38810333126640506 0.15 0.6118966687335949
v -11.383691305551544 20.1163497467843 9.792476639358485 0.4663810096335571 0.15 0.5336189903664429
v -11.870281738609277 22.95656992421729 10.31165671611034 0.5603167253178893 0.15 0.43968327468211066
v -12.363705917832423 25.79696206640573 10.82336082245187 0.6322937804084539 0.15 0.36770621959154615
v -12.859390870336714 28.637411166781746 11.332591771436139 0.7142850676313848 0.15 0.2857149323686152
v -13.358993918438363 31.47794673446344 11.837531868540088 0.7924599198485212 0.15 0.20754008015147885
v -13.862603512292832 34.31855814027038 12.3380796739769 0.8645912628995827 0.15 0.13540873710041734
v -14.370933230609543 37.159238549891484 12.833445229278553 0.9368551005300273 0.15 0.0631448994699727
v -14.886866859353312 39.99999098891465 13.32044798517355 1.0 0.15 0.0
l 239 240
l 240 241
l 241 242
l 242 243
l 243 244
l 244 245
l 245 246
l 246 247
v -8.907747089667401 0.0018391185575565624 4.536770243093379 0.0 0.15 1.0
v -9.428430607535173 2.504249068722237 4.891049576474547 0.05879649495025685 0.15 0.9412035050497431
v -9.92838278393102 5.004937636706484 5.285317223207944 0.11395383652296794 0.15 0.886046163477032
v -10.406915073825235 7.5051165844057905 5.708393593087853 0.16576530133960987 0.15 0.8342346986603901
v -10.863229669726229 10.004018585353716 6.162373632748824 0.21574507901154036 0.15 0.7842549209884596
v -11.300517358973622 12.50068539652321 6.646440538504382 0.26395431319620577 0.15 0.7360456868037942
v -11.701189500084586 14.99126694355088 7.188117226278077 0.3172125360524295 0.15 0.6827874639475705
v -12.097582681979771 17.478238436580007 7.734701624685309 0.3884463424307402 0.15 0.6115536575692597
v -12.564156002452746 19.97854719368569 8.170246004105728 0.46522191696569903 0.15 0.534778083034301
v -13.039317730124004 22.479697837830898 8.591489438986759 0.5404010569672784 0.15 0.45959894303272164
v -13.520754328637588 24.981402721569168 9.002199334496618 0.6136932261668988 0.15 0.3863067738331012
v -14.007211325599926 27.483838319934303 9.402411326071174 0.6831853992883804 0.15 0.3168146007116196
v -14.498172947638265 29.987021332361216 9.792311567286644 0.7507434898831534 0.15 0.24925651011684657
v -14.99599621160074 32.49053549693999 10.171224271172486 0.8173659314937488 0.15 0.1826340685062512
v -15.501189469000757 34.99434610534692 10.53820323725999 0.8803182965611236 0.15 0.11968170343887641
v -16.015624255941535 37.498383075971624 10.890457789090224 0.9403874674861995 0.15 0.0596125325138005
v -16.542400010659392 40.002486664735244 11.223501241487902 1.0 0.15 0.0
l 248 249
l 249 250
l 250 251
l 251 252
l 252 253
l 253 254
l 254 255
l 255 256
l 256 257
l 257 258
l 258 259
l 259 260
l 260 261
l 261 262
l 262 263
l 263 264
v -12.161638492710278 15.030404931353857 6.424993312837105 0.30754894329490534 0.15 0.6924510567050947
v -13.005166564033338 17.67346482304135 6.185091401828222 0.40597779147166857 0.15 0.5940222085283314
v -13.59342166456194 20.463288716627808 6.570631323142745 0.4809915110507779 0.15 0.5190084889492221
v -14.190387277586277 23.253710313281854 6.938103425481686 0.560194858207253 0.15 0.439805141792747
v -14.793484109204703 26.044468849831983 7.292808928684257 0.6402909140111386 0.15 0.3597090859888614
v -15.400867342284311 28.835422357533645 7.638565473717448 0.7217410097851047 0.15 0.2782589902148953
v -16.0107727741301 31.62647257931184 7.979045779113153 0.7990363058882879 0.15 0.2009636941117121
v -16.621595376395565 34.41755141091443 8.317603591070077 0.8642588083422186 0.15 0.13574119165778142
v -17.23455622780411 37.208704513528915 8.651683871155292 0.9294473737551782 0.15 0.07055262624482184
v -17.850968373201162 39.99995689044298 8.978524980207506 1.0 0.15 0.0
l 265 266
l 266 267
l 267 268
l 268 269
l 269 270
l 270 271
l 271 272
l 272 273
l 273 274
v -9.710771720325871 0.002451562509230406 2.340581847349098 0.0 0.15 1.0
v -10.301774808847087 2.5035280582922175 2.5548415425083117 0.05792613901356791 0.15 0.9420738609864321
v -10.884811940076471 5.003983913877225 2.7965819478863514 0.11279938939700897 0.15 0.887200610602991
v -11.459695442188814 7.503407862273418 3.066632846477252 0.16406152525242929 0.15 0.8359384747475707
v -12.0202323142179 9.999919046107593 3.3882821855402536 0.21050651166654546 0.15 0.7894934883334546
v -12.559953224870531 12.49030904441621 3.7845653181787764 0.2584050688921496 0.15 0.7415949311078505
v -13.090279986391945 14.985593710599113 4.160168983872061 0.3118215764695865 0.15 0.6881784235304135
v -13.664038658081692 17.485311096191655 4.4140422480590304 0.38428897047305877 0.15 0.6157110295269412
v -14.227627963356817 19.98601887551404 4.695918172839727 0.46178050889230804 0.15 0.538219491107692
v -14.797448531022795 22.48727640864505 4.959735980038309 0.5384149673327859 0.15 0.46158503266721407
v -15.371671844452763 24.98887179515733 5.210544755662773 0.6119881041603131 0.15 0.38801189583968687
v -15.949027288484654 27.490677786168586 5.451898105722488 0.6826641345425741 0.15 0.31733586545742587
v -16.529045037416484 29.99263606420704 5.685164427872412 0.7507080800830528 0.15 0.2492919199169472
v -17.11178633447077 32.49471150069019 5.91024287601663 0.8162895510303418 0.15 0.18371044896965816
v -17.697560072862526 34.99687373400152 6.126344143408189 0.8676581818339774 0.15 0.13234181816602264
v -18.28698071373252 37.499077168093166 6.331815422614132 0.9287144548166364 0.15 0.07128554518336361
v -18.88085175928894 40.00124664090494 6.524452338767404 1.0 0.15 0.0
l 275 276
l 276 277
l 277 278
l 278 279
l 279 280
l 280 281
l 281 282
l 282 283
l 283 284
l 284 285
l 285 286
l 286 287
l 287 288
l 288 289
l 289 290
l 290 291
v -14.152531199535057 17.630944707365742 2.664477922648599 0.3812244105356129 0.15 0.6187755894643872
v -14.82542377453145 20.425097282337028 2.884495858660044 0.47410013984553057 0.15 0.5258998601544694
v -15.50362697746446 23.220656575359975 3.0682616264105587 0.5599633593783067 0.15 0.44003664062169334
v -16.182864944042308 26.016910549020665 3.237120916116026 0.6416533605231338 0.15 0.3583466394768662
v -16.862565929656807 28.81351328685006 3.398179008879833 0.7182321815214048 0.15 0.2817678184785952
v -17.543212932589384 31.610173246630307 3.554173411740949 0.7928889706159765 0.15 0.20711102938402348
v -18.224439978580815 34.40683359256445 3.707583072966853 0.8649670334021662 0.15 0.13503296659783381
v -18.906252592664007 37.203436567377715 3.859401089964466 0.9345980191763048 0.15 0.0654019808236952
v -19.588580913572915 39.99993007123179 4.010921096090722 1.0 0.15 0.0
l 292 293
l 293 294
l 294 295
l 295 296
l 296 297
l 297 298
l 298 299
l 299 300
v -13.144406804690881 12.658377196060977 -0.41092583657107074 0.24528442156957617 0.15 0.7547155784304238
v -10.000995681292169 0.0060540043174614295 0.010540502128127776 0.0 0.15 1.0
v -10.62483808523236 2.5115258697179805 0.06194945785000151 0.05849819558659975 0.15 0.9415018044134003
v -11.248319319636943 5.016924846844151 0.12033931240009664 0.11177217579185464 0.15 0.8882278242081454
v -11.871449018883121 7.522236824194263 0.18544206694393933 0.1617011031840749 0.15 0.8382988968159251
v -12.493297191301766 10.027058224737 0.2741345358544562 0.2070583190586212 0.15 0.7929416809413787
v -13.098500243090493 12.511220543497306 0.5965145753993554 0.24255665278571903 0.15 0.757443347214281
v -13.692301835032541 14.972444751860229 1.0342482584401638 0.2965677326985261 0.15 0.7034322673014739
v -14.322304005597267 17.458309598723037 0.8604943595999006 0.37268768486327103 0.15 0.627312315136729
v -14.94399743500381 19.963133131942516 0.952347843359371 0.45573776252631926 0.15 0.5442622374736807
v -15.566418391116564 22.468241752343037 1.0308429320531987 0.5339110113346102 0.15 0.46608898866538984
v -16.18935307692502 24.973505992423192 1.099671956780486 0.6084445328259164 0.15 0.3915554671740836
v -16.812653925078116 27.478860023085712 1.161505273542879 0.6799099196308449 0.15 0.3200900803691551
v -17.436288027017333 29.98428752533828 1.2169281998660937 0.748604942061775 0.15 0.25139505793822503
v -18.0602573110228 32.48976871476711 1.2658023157064353 0.8147305910944859 0.15 0.18526940890551413
v -18.684576240688248 34.99528434011508 1.307733626410102 0.8785524362278322 0.15 0.12144756377216781
v -19.30928451730656 37.5008211589962 1.341848319739193 0.9402598435524595 0.15 0.05974015644754049
v -19.934377769167423 40.006362113795035 1.368146752593157 1.0 0.15 0.0
l 302 303
l 303 304
l 304 305
l 305 306
l 306 307
l 307 308
l 308 309
l 309 310
l 310 311
l 311 312
l 312 313
l 313 314
l 314 315
l 315 316
l 316 317
l 317 318
v -13.673385380549325 14.9384208763814 -1.246158576449897 0.3003122990343894 0.15 0.6996877009656106
v -14.378345969966954 17.699389307478356 -0.9465566035371411 0.3843538412998877 0.15 0.6156461587001123
v -15.075221818716045 20.486646341013778 -0.945303008529704 0.4785826217680459 0.15 0.5214173782319541
v -15.770722514801822 23.274120235111006 -0.9731450858787459 0.5581585957734096 0.15 0.44184140422659035
v -16.465520153106826 26.061600316918312 -1.0153289383399404 0.6397673725535468 0.15 0.36023262744645324
v -17.15988630170493 28.849046743110684 -1.0661255281798123 0.7203389385179382 0.15 0.2796610614820618
v -17.854122607125422 31.636477880217367 -1.11948684129667 0.7972912785186003 0.15 0.20270872148139973
v -18.54848322310565 34.42392225856794 -1.1703851445986198 0.864304266344919 0.15 0.13569573365508103
v -19.24341850392188 37.21141275746 -1.2098209943206353 0.9367586946227785 0.15 0.0632413053772215
v -19.939334162875305 39.99886133457923 -1.2290866118484183 1.0 0.15 0.0
l 319 320
l 320 321
l 321 322
l 322 323
l 323 324
l 324 325
l 325 326
l 326 327
l 327 328
v -13.830146919464928 16.24952507207563 -2.4874590565163155 0.3300475188692905 0.15 0.6699524811307095
v -14.45775362329276 18.883939531152567 -2.739598141197752 0.4210703158935907 0.15 0.5789296841064093
v -15.09893500337958 21.522847279148795 -2.9078706801894856 0.5058432241145174 0.15 0.49415677588548257
v -15.742908988863082 24.16218624933976 -3.058050796846773 0.586353610781229 0.15 0.41364638921877095
v -16.38838336226993 26.801704094016376 -3.1984205605976714 0.662741303326933 0.15 0.33725869667306696
v -17.03472263440608 29.441308833273105 -3.333107479071495 0.7357149281141714 0.15 0.2642850718858286
v -17.681469472884135 32.08094915705245 -3.4651074115778275 0.8057039126434973 0.15 0.19429608735650272
v -18.328249381847776 34.720592708828974 -3.5968898421788884 0.8730177890900551 0.15 0.12698221090994488
v -18.9747781512749 37.360214702236675 -3.7303286903352446 0.9376089249402493 0.15 0.06239107505975072
v -19.621106384230973 39.999819170124994 -3.865089544769826 1.0 0.15 0.0
l 329 330
l 330 331
l 331 332
l 332 333
l 333 334
l 334 335
l 335 336
l 336 337
l 337 338
v -9.742981621786853 0.003294519574461696 -2.211996459328593 0.0 0.15 1.0
v -10.337769740670735 2.5052524849679485 -2.4125396272639943 0.05786914229723773 0.15 0.9421308577027623
v -10.926128350130467 5.006876947594156 -2.6349780013752873 0.11208848604335053 0.15 0.8879115139566495
v -11.50709578935752 7.507794075784021 -2.8832402403571713 0.16252336289001473 0.15 0.8374766371099853
v -12.072703219365359 10.005951914256828 -3.1874999195533653 0.2106919822911088 0.15 0.7893080177088911
v -12.602804083373082 12.492757174943907 -3.6198298576291066 0.25657055475849244 0.15 0.7434294452415076
v -13.12322459512454 14.98113535200729 -4.0551367011495225 0.3062687200248326 0.15 0.6937312799751674
v -13.683777875381566 17.481107861100135 -4.348816556400195 0.37851196656221997 0.15 0.62148803343778
v -14.248815199834484 19.982236328641033 -4.6296780276413 0.46039352746140555 0.15 0.5396064725385945
v -14.821404126376635 22.48400000066994 -4.888683570382061 0.5364173531456523 0.15 0.4635826468543477
v -15.398512210588587 24.986110300340325 -5.1340067958804205 0.6107036571417905 0.15 0.38929634285820947
v -15.97892039072431 27.48845876426006 -5.368888300825498 0.6817947265587724 0.15 0.3182052734412276
v -16.562394128510558 29.99100538629889 -5.593870780179253 0.7501176619110516 0.15 0.24988233808894844
v -17.149158782418386 32.493721206226915 -5.808216451847927 0.815892364759679 0.15 0.18410763524032103
v -17.73962290550182 34.99655602037295 -6.010659277220223 0.8793079149371336 0.15 0.12069208506286644
v -18.334415386109267 37.499439299393714 -6.199308244306827 0.9406287764595299 0.15 0.059371223540470086
v -18.93521107030728 40.0022235778267 -6.369289500458856 1.0 0.15 0.0
l 339 340
l 340 341
l 341 342
l 342 343
l 343 344
l 344 345
l 345 346
l 346 347
l 347 348
l 348 349
l 349 350
l 350 351
l 351 352
l 352 353
l 353 354
l 354 355
v -12.721287043280345 15.874823453609359 -5.7348695238583876 0.31854930717845065 0.15 0.6814506928215494
v -13.21946550253959 18.536955023468916 -6.236286154416161 0.4025396254756045 0.15 0.5974603745243955
v -13.784042618874878 21.218597216175326 -6.608709122519401 0.48206892926580036 0.15 0.5179310707341996
v -14.362385627721062 23.901145337659045 -6.952555629692904 0.5811434856876335 0.15 0.4188565143123665
v -14.94874409708645 26.584046794622722 -7.279661213582105 0.6596782291252922 0.15 0.34032177087470783
v -15.539659634139776 29.26709356308079 -7.597216581946766 0.7342138920981323 0.15 0.26578610790186774
v -16.13239549035091 31.95018457644484 -7.910949050449779 0.8003592895731106 0.15 0.19964071042688936
v -16.726040803995424 34.6333027446137 -8.222774473380907 0.8663120568357324 0.15 0.13368794316426758
v -17.31957477198202 37.31641664681809 -8.534832843441189 0.9341850352903847 0.15 0.06581496470961534
v -17.91312035692525 39.99953249924822 -8.846867798186482 1.0 0.15 0.0
l 356 357
l 357 358
l 358 359
l 359 360
l 360 361
l 361 362
l 362 363
l 363 364
l 364 365
v -8.961979930586761 0.0024184586290365386 -4.420378413689961 0.0 0.15 1.0
v -9.489238544804609 2.5056562941604903 -4.765363741233789 0.05627463951221747 0.15 0.9437253604877825
v -9.996711706988748 5.007602896086559 -5.147464757777019 0.1133620370815054 0.15 0.8866379629184946
v -10.486114731260141 7.507754971057312 -5.563389370121083 0.16502171684278455 0.15 0.8349782831572155
v -10.948596034933107 10.006276393822741 -6.0180881687848355 0.21518776470566267 0.15 0.7848122352943373
v -11.381240933119383 12.502913689860925 -6.510963108907991 0.26529060747676914 0.15 0.7347093925232309
v -11.772105714061874 14.992249348307926 -7.069267770196663 0.32983006431530854 0.15 0.6701699356846915
v -12.144564704839244 17.47407779667542 -7.65401969351153 0.3866926999056028 0.15 0.6133073000943972
v -12.609079098404456 19.9748906583896 -8.093908123890781 0.4641257713953062 0.15 0.5358742286046938
v -13.0851564360272 22.47683310794233 -8.51467351620009 0.5393673030349255 0.15 0.4606326969650745
v -13.56887914557021 24.97941635901564 -8.922730809092329 0.6135571078582832 0.15 0.3864428921417168
v -14.059572253773986 27.48249647037038 -9.319253242834401 0.6828192461511484 0.15 0.3171807538488516
v -14.557100345832486 29.985984328770602 -9.704540325999265 0.7502599318976729 0.15 0.24974006810232707
v -15.061933688348619 32.48981930155205 -10.07789459351328 0.8166604825306041 0.15 0.18333951746939592
v -15.575695273501566 34.993970893806754 -10.436655271479143 0.8794499657291932 0.15 0.1205500342708068
v -16.0989286651607 37.49861497954206 -10.777838359094371 0.9406281221652174 0.15 0.059371877834782594
v -16.637189340291798 40.003106596812465 -11.095896572649702 1.0 0.15 0.0
l 366 367
l 367 368
l 368 369
l 369 370
l 370 371
l 371 372
l 372 373
l 373 374
l 374 375
l 375 376
l 376 377
l 377 378
l 378 379
l 379 380
l 380 381
l 381 382
v -7.6889326779344005 0.007090078761585558 -6.391995149276758 0.0 0.15 1.0
v -8.097837191367788 2.5204913506130575 -6.8753707581918855 0.058984738725544675 0.15 0.9410152612744553
v -8.495458679085107 5.033323485063941 -7.370983585313319 0.11451354570475705 0.15 0.885486454295243
v -8.886959322027048 7.545799687650978 -7.873217368905811 0.16991930946109635 0.15 0.8300806905389037
v -9.27080355345906 10.057796572599328 -8.383720598736874 0.2212811925512552 0.15 0.7787188074487448
v -9.647286326550514 12.56928971288426 -8.902158522913757 0.27193243344096735 0.15 0.7280675665590326
v -10.013836279103153 15.03994951755538 -9.416372962354286 0.31226367459374826 0.15 0.6877363254062517
v -10.886002187213833 17.38816939219018 -9.327200721910621 0.3804929072066909 0.15 0.6195070927933091
v -11.344944786011476 19.902828642034024 -9.755835469599496 0.4623877002975262 0.15 0.5376122997024738
v -11.804853472355632 22.417522755271303 -10.183417300753854 0.5386664879209448 0.15 0.46133351207905515
v -12.268178579192233 24.93222386974892 -10.607232309043617 0.6126524967711817 0.15 0.3873475032288183
v -12.73136932561381 27.446927849607427 -11.031196576168119 0.6754049631896913 0.15 0.32459503681030866
v -13.19110853270014 29.961623117509593 -11.458965831373105 0.7455393945665468 0.15 0.25446060543345317
v -13.644995160884946 32.47628072468402 -11.893178415987196 0.8127746628878915 0.15 0.18722533711210854
v -14.091318497538873 34.9908429119487 -12.33570027895701 0.8774113134834779 0.15 0.1225886865165221
v -14.529202474406116 37.50524484458011 -12.787474004508466 0.9397557966925983 0.15 0.060244203307401656
v -14.961030413331912 40.01949865577164 -13.24587445600302 1.0 0.15 0.0
l 383 384
l 384 385
l 385 386
l 386 387
l 387 388
l 388 389
l 389 390
l 390 391
l 391 392
l 392 393
l 393 394
l 394 395
l 395 396
l 396 397
l 397 398
l 398 399
v -9.619062390192017 16.735630615233422 -10.401570052225175 0.36670692220743706 0.15 0.6332930777925629
v -9.961137808426837 19.318273433236403 -10.961875765577124 0.4426081707815235 0.15 0.5573918292184765
v -10.336219205751737 21.902888864167483 -11.49293142708673 0.5241695398696705 0.15 0.4758304601303295
v -10.719556454379363 24.48780265274641 -12.01660493865075 0.6007172467948244 0.15 0.3992827532051756
v -11.108910484167657 27.07290165409626 -12.534887583106254 0.669254920795095 0.15 0.33074507920490503
v -11.50314797443125 29.65813530187773 -13.04878945508038 0.7400309084200117 0.15 0.25996909157998827
v -11.90067515127135 32.24345099698727 -13.559737414256968 0.8074482819851821 0.15 0.19255171801481785
v -12.30132596911294 34.82883738428972 -14.067878070845971 0.8734902815291574 0.15 0.12650971847084258
v -12.705881578284483 37.414304112260645 -14.572506709545138 0.9376537952318791 0.15 0.062346204768120916
v -13.118933427864146 39.99990540768682 -15.069480178752752 1.0 0.15 0.0
l 400 401
l 401 402
l 402 403
l 403 404
l 404 405
l 405 406
l 406 407
l 407 408
l 408 409
v -5.986297907245213 0.0016748234028747101 -7.996841824476061 0.0 0.15 1.0
v -6.28007968430475 2.5029572107552034 -8.555469823670574 0.059876784320632044 0.15 0.940123215679368
v -6.5508498558726815 5.0029861726857545 -9.131142292114696 0.11645021735868799 0.15 0.883549782641312
v -6.8095576679900045 7.502196094780512 -9.71581667885934 0.16892200326402146 0.15 0.8310779967359785
v -7.057945297647983 10.000645658200233 -10.308162606068267 0.2210911543095928 0.15 0.7789088456904072
v -7.295582345076293 12.499343631460642 -10.903893979263911 0.2690470934959282 0.15 0.7309529065040719
v -7.609777195181229 15.000254947818657 -11.444705097234488 0.3170578652220594 0.15 0.6829421347779405
v -8.163497796907036 17.48229096009079 -11.814606748337466 0.3881048460583192 0.15 0.6118951539416808
v -8.482611508439767 19.984258879258846 -12.356032188017107 0.4665442239014318 0.15 0.5334557760985682
v -8.799974826239495 22.486187705641154 -12.898709454045562 0.5416430604512571 0.15 0.4583569395487429
v -9.120112375200515 24.98822237235855 -13.439270323917773 0.6152261498651909 0.15 0.38477385013480914
v -9.44114550384329 27.49031524939216 -13.979035889777906 0.6838967079534599 0.15 0.3161032920465401
v -9.760926829255336 29.99241616240105 -14.519526104213066 0.7512086594761095 0.15 0.24879134052389051
v -10.077802590872256 32.49462346936764 -15.061238809719312 0.8179199375558828 0.15 0.18208006244411723
v -10.390596385909731 34.99723193784739 -15.603469752527863 0.8800840269564787 0.15 0.1199159730435213
v -10.700812982662121 37.4997160420047 -16.147744050355186 0.9403792504163501 0.15 0.059620749583649935
v -11.014025725849411 40.00208138221633 -16.69083814164083 1.0 0.15 0.0
l 410 411
l 411 412
l 412 413
l 413 414
l 414 415
l 415 416
l 416 417
l 417 418
l 418 419
l 419 420
l 420 421
l 421 422
l 422 423
l 423 424
l 424 425
l 425 426
v -7.023820307956916 15.619752968737954 -11.981906322595766 0.3251496849193484 0.15 0.6748503150806515
v -6.745368001557961 18.25543346121924 -12.8946261184586 0.41694685660337444 0.15 0.5830531433966255
v -6.924809368661952 20.964588550180416 -13.564376377852124 0.5029179599555021 0.15 0.49708204004449785
v -7.16926667231516 23.68372278909245 -14.199832757452402 0.5792093128062458 0.15 0.42079068719375423
v -7.4173830464962025 26.40293288689174 -14.833579450518094 0.6581242665201734 0.15 0.3418757334798266
v -7.6693050098213025 29.12220936508225 -15.465544589577288 0.7331967791587127 0.15 0.26680322084128727
v -7.925174244385228 31.841548753172827 -16.095660200468046 0.8015016076665167 0.15 0.19849839233348332
v -8.185560292603725 34.560949057073756 -16.72365633745589 0.8669852815156386 0.15 0.13301471848436142
v -8.452562621423837 37.28042566971667 -17.348544296165734 0.9421306777123968 0.15 0.05786932228760322
v -8.735267729828902 39.99999173625296 -17.96603011185157 1.0 0.15 0.0
l 427 428
l 428 429
l 429 430
l 430 431
l 431 432
l 432 433
l 433 434
l 434 435
l 435 436
v -3.9769847143358765 0.0009299005718075578 -9.171724576191075 0.0 0.15 1.0
v -4.135268588752527 2.5006747876341895 -9.782901269391976 0.06063863244128978 0.15 0.9393613675587102
v -4.260203299810714 4.998913681376116 -10.407918872752465 0.11791165323557819 0.15 0.8820883467644218
v -4.36471874215117 7.497801590128322 -11.034108930113343 0.17084797530531184 0.15 0.8291520246946882
v -4.453401090878703 9.995982524881795 -11.665496955526425 0.22210831410741702 0.15 0.777891685892583
v -4.526652398599131 12.493383445389204 -12.301961803442914 0.2710806698255836 0.15 0.7289193301744163
v -4.611996489248163 14.991429730110815 -12.934075042561128 0.3207207766302715 0.15 0.6792792233697285
v -4.861602708890824 17.49224459013923 -13.507994012100616 0.37078325842482585 0.15 0.6292167415751742
v -5.016063938068539 19.993069814643228 -14.11584650005863 0.48253683229203254 0.15 0.5174631677079675
v -5.165282393464862 22.493784577684885 -14.72547469823157 0.5591035505497355 0.15 0.4408964494502645
v -5.3170654201834315 24.994566829088537 -15.334173934840086 0.6156162082268036 0.15 0.38438379177319637
v -5.471540962146547 27.49541322742286 -15.941939192718731 0.6854255216219894 0.15 0.31457447837801056
v -5.628165723181923 29.996296380349644 -16.548999267277352 0.7527107361900972 0.15 0.2472892638099028
v -5.787091409185363 32.49720893528604 -17.155339519465944 0.81765795834706 0.15 0.18234204165294
v -5.949044631054218 34.99815222289941 -17.76074223931993 0.88042477755843 0.15 0.11957522244157004
v -6.116050529659636 37.49915030347784 -18.364530486660623 0.9411548913656492 0.15 0.05884510863435077
v -6.295499017379108 40.00028979657405 -18.964124605292337 1.0 0.15 0.0
l 437 438
l 438 439
l 439 440
l 440 441
l 441 442
l 442 443
l 443 444
l 444 445
l 445 446
l 446 447
l 447 448
l 448 449
l 449 450
l 450 451
l 451 452
l 452 453
v -3.1297928959538224 16.249551042154657 -13.695122152188047 0.3442164138785587 0.15 0.6557835861214413
v -3.122078279333769 18.882962986894423 -14.375356504474416 0.4293608897729698 0.15 0.5706391102270302
v -3.180930327507955 21.521424888858423 -15.039956540515924 0.5112968233194919 0.15 0.4887031766805081
v -3.246841408104433 24.160219981998406 -15.702613517357134 0.5906649567662489 0.15 0.40933504323375114
v -3.317707929192333 26.799255101260375 -16.363829698332125 0.6661085463432563 0.15 0.33389145365674366
v -3.3934732875770837 29.43851470957615 -17.02361426580905 0.7396859898193923 0.15 0.26031401018060774
v -3.473024876036365 32.07862078886507 -17.67955607709119 0.807593463992075 0.15 0.192406536007925
v -3.556562644141668 34.71898243699445 -18.333965122844795 0.8747190041727188 0.15 0.12528099582728125
v -3.6458051032510506 37.359431010979684 -18.98724971508767 0.93895664295954 0.15 0.061043357040460045
v -3.7485329765471107 39.99992540601682 -19.638339299887267 1.0 0.15 0.0
l 454 455
l 455 456
l 456 457
l 457 458
l 458 459
l 459 460
l 460 461
l 461 462
l 462 463
v -1.7414245344699393 0.001618746761670781 -9.838017323363218 0.0 0.15 1.0
v -1.763947377108339 2.502665048059915 -10.46781200253209 0.060314235272016625 0.15 0.9396857647279834
v -1.7429841991285204 5.002468148887625 -11.102746026100329 0.11749607696457827 0.15 0.8825039230354217
v -1.6987382312201016 7.501385039148117 -11.740026612739193 0.17253569956684095 0.15 0.827464300433159
v -1.6287516753228848 9.999005675920335 -12.380027184241076 0.22505705431446554 0.15 0.7749429456855345
v -1.526249574776807 12.494553372990515 -13.023672111621636 0.27462473305351576 0.15 0.7253752669464842
v -1.4353701400126961 14.991069744202886 -13.665296004906493 0.32289043995438943 0.15 0.6771095600456105
v -1.2734796301183426 17.484369323079562 -14.304687204919881 0.39158514215306367 0.15 0.6084148578469364
v -1.22035305742041 19.984978928961006 -14.934399435322598 0.46900844607079634 0.15 0.5309915539292036
v -1.188211297842449 22.486318476790196 -15.562834494374853 0.5442816848449834 0.15 0.4557183151550166
v -1.155366304560933 24.987734319903286 -16.19089323859357 0.6158174283743277 0.15 0.38418257162567226
v -1.128528562213772 27.48938993004727 -16.818286282877295 0.6856095311559877 0.15 0.31439046884401234
v -1.1095308310657759 29.991306018038934 -17.444928890338907 0.752897638548508 0.15 0.247102361451492
v -1.0995394668526628 32.49348228347913 -18.070762977212382 0.8178340741059811 0.15 0.18216592589401892
v -1.1005177258627457 34.995907888329725 -18.69568817264402 0.8921958729466937 0.15 0.10780412705330633
v -1.1161853936257982 37.49855903318647 -19.319516429971266 0.9530518700933577 0.15 0.04694812990664232
v -1.156251445359967 40.001314018774366 -19.941739986945024 1.0 0.15 0.0
l 464 465
l 465 466
l 466 467
l 467 468
l 468 469
l 469 470
l 470 471
l 471 472
l 472 473
l 473 474
l 474 475
l 475 476
l 476 477
l 477 478
l 478 479
l 479 480
v 0.6165112068805545 15.541079830110586 -13.8549826940923 0.33270716736582495 0.15 0.667292832634175
v 0.7745379690018626 18.252826839434867 -14.525156104464418 0.41544323885882295 0.15 0.584556761141177
v 0.8138647177564001 20.971685219692414 -15.20293868390161 0.4884202820307138 0.15 0.5115797179692863
v 0.9244792767819411 23.68970111200812 -15.877008529780694 0.5795307022196882 0.15 0.42046929778031183
v 1.0357325083173685 26.407702982778215 -16.551043462621827 0.6581743687638291 0.15 0.34182563123617093
v 1.1405482658427788 29.125871436028948 -17.225436317717147 0.733924402845547 0.15 0.26607559715445295
v 1.2427306399682478 31.844105021997432 -17.899974819783896 0.8022608282626316 0.15 0.19773917173736844
v 1.341060005939331 34.56242669614048 -18.574724612733302 0.8653400018290884 0.15 0.13465999817091157
v 1.4300217365577803 37.28094804695029 -19.249984559251885 0.9410559244579904 0.15 0.058944075542009644
v 1.4987933455579632 39.9997738257155 -19.926312439899576 1.0 0.15 0.0
l 481 482
l 482 483
l 483 484
l 484 485
l 485 486
l 486 487
l 487 488
l 488 489
l 489 490
v 2.512846716025846 19.076593931695427 -14.539639113748711 0.4481476487822857 0.15 0.5518523512177143
v 2.8041877363642405 21.685536248333552 -15.155787265599145 0.5191681281224702 0.15 0.48083187187752985
v 3.0458490881364018 24.29885216761241 -15.779538170465289 0.5973622032869149 0.15 0.4026377967130851
v 3.248996534733273 26.914178625105983 -16.408835247371726 0.670627607104968 0.15 0.32937239289503195
v 3.433740778773342 29.53087439429665 -17.038168976530603 0.7417308172185733 0.15 0.25826918278142674
v 3.6109413038476137 32.14807185849035 -17.667592085924372 0.8103371018912535 0.15 0.18966289810874648
v 3.7838480356573836 34.76537650560819 -18.29774780884291 0.8769655361175543 0.15 0.12303446388244565
v 3.951932419442644 37.38267564900631 -18.929200372953105 0.9401848239469776 0.15 0.059815176053022445
v 4.108207490942094 39.999861291600894 -19.56413300468395 1.0 0.15 0.0
l 491 492
l 492 493
l 493 494
l 494 495
l 495 496
l 496 497
l 497 498
l 498 499
v 0.5987428280661257 0.003304153290660503 -9.963692743872649 0.0 0.15 1.0
v 0.6695810356435359 2.5241534109993253 -10.606807420157544 0.06193139446062083 0.15 0.9380686055393792
v 0.8308048001618109 5.045194799409482 -11.23313468936386 0.11794987519768071 0.15 0.8820501248023193
v 1.039775085331812 7.566033442233273 -11.846282030231452 0.17298655584615497 0.15 0.827013444153845
v 1.3079831593182238 10.084171844559869 -12.44673342276577 0.22675775929248135 0.15 0.7732422407075187
v 1.7351533431353376 12.588116603271258 -13.009753570216269 0.2847119591637801 0.15 0.7152880408362199
v 2.5038520093597 15.022770738223791 -13.499307964429805 0.33465447285621064 0.15 0.6653455271437894
v 3.2678439919420628 17.467881794970268 -13.956662122916484 0.3878372709536007 0.15 0.6121627290463993
v 4.180092651767808 19.865687524342853 -14.346413384522782 0.47407413613440047 0.15 0.5259258638655995
v 4.723863130370395 22.362897873962318 -14.831737935851345 0.5468156208099193 0.15 0.4531843791900807
v 5.1236305838688185 24.877506594726558 -15.370526118615237 0.6103168923981361 0.15 0.38968310760186387
v 5.462395433931311 27.396993154662322 -15.928788201872816 0.6808742277731337 0.15 0.31912577222686633
v 5.7690093484211635 29.918915610054768 -16.494617393955277 0.7493354032924858 0.15 0.2506645967075142
v 6.039526218128313 32.443141657114815 -17.0684682487918 0.8031295813228069 0.15 0.19687041867719313
v 6.261957801912398 34.969442779817946 -17.653658203819 0.8906066335034871 0.15 0.10939336649651288
v 6.423433511638265 37.49686229658659 -18.253687921504557 0.953176445931289 0.15 0.04682355406871097
v 6.506846032227157 40.02325974335511 -18.873298492978144 1.0 0.15 0.0
l 500 501
l 501 502
l 502 503
l 503 504
l 504 505
l 505 506
l 506 507
l 507 508
l 508 509
l 509 510
l 510 511
l 511 512
l 512 513
l 513 514
l 514 515
l 515 516
v 2.919037019716452 0.002279271087915858 -9.560918922715029 0.0 0.15 1.0
v 3.1312648064046678 2.511600808522875 -10.155257062267056 0.06182407576500017 0.15 0.9381759242349998
v 3.4193060341312203 5.020387200256843 -10.719594090087876 0.11789165914417529 0.15 0.8821083408558247
v 3.6972535764391274 7.529856977539368 -11.285340856748071 0.17054319142575955 0.15 0.8294568085742404
v 3.8636930235536844 10.039600525927373 -11.889020183848523 0.22804851169251075 0.15 0.7719514883074893
v 4.309623974336468 12.538005117750293 -12.388029737197927 0.28828815040682004 0.15 0.71171184959318
v 4.943680358918527 15.010501087529128 -12.811553571411471 0.350606878015477 0.15 0.649393121984523
v 5.6355467534214005 17.473870476573634 -13.196997681332126 0.41248845983334104 0.15 0.587511540166659
v 6.291683246638271 19.948021030256093 -13.575012250540064 0.4933881501396299 0.15 0.5066118498603701
v 6.8071873372911265 22.443031812146593 -14.024840081003747 0.5466452039119262 0.15 0.45335479608807383
v 7.181037990045369 24.950067990781456 -14.544281520949998 0.6140033938269694 0.15 0.38599660617303055
v 7.518250404312222 27.458935652735548 -15.080601147100927 0.6833210202270775 0.15 0.3166789797729225
v 7.863017949707845 29.96778879410114 -15.612140092130003 0.7511949388027104 0.15 0.24880506119728962
v 8.195552412737804 32.477319290433286 -16.148202177763995 0.8165961760872414 0.15 0.18340382391275856
v 8.500535401780027 34.987828638798526 -16.69587266710341 0.8810405229032747 0.15 0.11895947709672527
v 8.766948665617711 37.49905564352916 -17.260053610662066 0.9414932560826454 0.15 0.05850674391735455
v 8.980667087191744 40.01006881328108 -17.846935693737382 1.0 0.15 0.0
l 517 518
l 518 519
l 519 520
l 520 521
l 521 522
l 522 523
l 523 524
l 524 525
l 525 526
l 526 527
l 527 528
l 528 529
l 529 530
l 530 531
l 531 532
l 532 533
v 5.364082902776779 8.752532413488474 -10.942335357660163 0.1895737385460599 0.15 0.8104262614539401
v 6.115200748714908 11.322434583507949 -11.270094490357783 0.2662628423930916 0.15 0.7337371576069084
v 6.830842290798298 13.904148022750478 -11.594210182141175 0.3325569348620583 0.15 0.6674430651379417
v 7.5376870927966815 16.487642984559823 -11.923364181545697 0.40338960780312966 0.15 0.5966103921968704
v 8.19877094520066 19.079523344742025 -12.27973794725778 0.4632732517087859 0.15 0.5367267482912141
v 8.766233268545443 21.687572938377194 -12.675480030432034 0.5274094305837572 0.15 0.4725905694162428
v 9.118527461396976 24.299023254654585 -13.22849927691986 0.5928719197206244 0.15 0.40712808027937564
v 9.368703309378041 26.91016231154488 -13.854792423353551 0.6678383141526961 0.15 0.3321616858473039
v 9.74270277474146 29.528499696066657 -14.390118088499301 0.7410078010168267 0.15 0.25899219898317327
v 10.135083596924376 32.14702825461804 -14.911484527715091 0.8105524617187608 0.15 0.18944753828123917
v 10.530206903219645 34.76543276279155 -15.431374353205435 0.8776259747719682 0.15 0.12237402522803176
v 11.327940824557166 40.00113642548648 -16.47094951217653 1.0 0.15 0.0
l 534 535
l 535 536
l 536 537
l 537 538
l 538 539
l 539 540
l 540 541
l 541 542
l 542 543
l 543 544
l 544 545
v 10.46857154951159 24.80156808708876 -12.349822669800169 0.605075168995273 0.15 0.394924831004727
v 11.139487467808689 27.819945359402187 -12.758926251585624 0.6980244814158068 0.15 0.30197551858419325
v 11.737408297944683 30.863630816051117 -13.24271753201093 0.7769677802599819 0.15 0.22303221974001808
v 12.308409721056288 33.90851358662883 -13.75131067427426 0.8658866469399227 0.15 0.13411335306007732
v 12.85786561001765 36.95402101819417 -14.279642071306908 0.9260450246832496 0.15 0.07395497531675044
v 13.387883956741067 39.99983490710832 -14.825693857493514 1.0 0.15 0.0
l 546 547
l 547 548
l 548 549
l 549 550
l 550 551
v 4.988758849203162 0.0092506262182076 -8.646213354971032 0.0 0.15 1.0
v 5.447381676582981 2.5235348191168727 -9.117940731222593 0.062291511436088326 0.15 0.9377084885639116
v 5.9931683443601464 5.032023523245667 -9.522870245630598 0.12204026952297725 0.15 0.8779597304770228
v 6.712468235833217 7.51221797536601 -9.797588776131777 0.17457145354677076 0.15 0.8254285464532293
v 7.561998915329959 9.964320946250565 -9.928283646415181 0.23897321791850382 0.15 0.7610267820814962
v 8.289297200102054 12.449593425686192 -10.150948732652154 0.30427713070639245 0.15 0.6957228692936075
v 8.986191395242866 14.94438011209218 -10.36512033841939 0.3642658599997234 0.15 0.6357341400002766
v 9.680025685718503 17.440138364767762 -10.5778949447457 0.43142584383536353 0.15 0.5685741561646365
v 10.36555866447142 19.937801367361438 -10.795124195584458 0.4911109033798991 0.15 0.508889096620101
v 11.059241275492552 22.434059317909764 -11.001405269273327 0.551555157413249 0.15 0.448444842586751
v 11.837629030359276 24.91176405277729 -11.075403875157091 0.6113525718882815 0.15 0.3886474281117185
v 12.548828909720074 27.40622099689949 -11.224191504104795 0.6856911340808616 0.15 0.3143088659191384
v 13.156491602072844 29.919069928968753 -11.490677155727571 0.7515512505257782 0.15 0.2484487494742218
v 13.718750813685974 32.436948001455924 -11.805912754185503 0.8195578719107204 0.15 0.18044212808927962
v 14.248614466657887 34.957431747403184 -12.154791687318124 0.8815794093310694 0.15 0.11842059066893063
v 14.748045214414644 37.47959747693098 -12.534968337245358 0.9417049812461727 0.15 0.058295018753827255
v 15.211217957543482 40.00269513369893 -12.95275440031119 1.0 0.15 0.0
l 552 553
l 553 554
l 554 555
l 555 556
l 556 557
l 557 558
l 558 559
l 559 560
l 560 561
l 561 562
l 562 563
l 563 564
l 564 565
l 565 566
l 566 567
l 567 568
v 6.869347157130719 0.0027704501190780537 -7.252499332771048 0.0 0.15 1.0
v 7.397359560200787 2.5081954001633635 -7.621292599161707 0.06394553578501296 0.15 0.9360544642149871
v 7.997464705119519 5.0075236042599585 -7.912983496450374 0.12592747933847573 0.15 0.8740725206615243
v 8.658487351079689 7.500508393775277 -8.113366611558256 0.1841834478240634 0.15 0.8158165521759366
v 9.347462830103265 9.988761676986991 -8.276720213161848 0.24853034700843826 0.15 0.7514696529915618
v 10.021194752462778 12.480215287501867 -8.454283071965154 0.3114892593009209 0.15 0.6885107406990791
v 10.681539530400563 14.975111120531167 -8.633679764483439 0.3736480912819694 0.15 0.6263519087180306
v 11.332580971772595 17.47282867010115 -8.807931183441056 0.43802077798496214 0.15 0.5619792220150379
v 11.984299879160094 19.970577243817942 -8.979161173197166 0.49742848176563403 0.15 0.502571518234366
v 12.645492804799112 22.466824485690665 -9.135109316696626 0.5620291780001901 0.15 0.43797082199980986
v 13.321865072811292 24.960345826011444 -9.267807626714015 0.6265622565968851 0.15 0.37343774340311486
v 13.976689805829928 27.457831414102774 -9.429820722180022 0.6907749806529155 0.15 0.30922501934708446
v 14.588432059450932 29.962543883637505 -9.641270849378639 0.7554221394992426 0.15 0.24457786050075736
v 15.169547699892822 32.470710536069326 -9.894394736438368 0.8200200941673421 0.15 0.17997990583265788
v 15.730163347812974 34.98023020624044 -10.178500380118148 0.8816594214506235 0.15 0.11834057854937652
v 16.27256798220291 37.49058777505502 -10.489275884483312 0.941706990998033 0.15 0.05829300900196699
v 16.793719723788534 40.00135808648107 -10.831341603009623 1.0 0.15 0.0
l 569 570
l 570 571
l 571 572
l 572 573
l 573 574
l 574 575
l 575 576
l 576 577
l 577 578
l 578 579
l 579 580
l 580 581
l 581 582
l 582 583
l 583 584
l 584 585
v 8.359613159192481 0.0011410770019777106 -5.475156365795761 0.0 0.15 1.0
v 8.926969648181124 2.5028888890625605 -5.750187866486429 0.06512161374500551 0.15 0.9348783862549945
v 9.524706335306657 5.002968891300466 -5.970950431712925 0.1276553202034081 0.15 0.8723446797965919
v 10.144877120590472 7.500891578130203 -6.150756706572738 0.18939557572217877 0.15 0.8106044242778212
v 10.77464891926455 9.997708671521826 -6.311816765829895 0.2530274175150158 0.15 0.7469725824849842
v 11.404176538325213 12.49467858754207 -6.471465536649039 0.31257175429311485 0.15 0.6874282457068852
v 12.03249683814437 14.991917665080924 -6.631660722549198 0.3779698028588404 0.15 0.6220301971411596
v 12.660836469918056 17.48923496841256 -6.790554262967625 0.439881462819107 0.15 0.560118537180893
v 13.28375360440222 19.98838096493018 -6.941827969896449 0.5027371428217186 0.15 0.49726285717828145
v 13.908197653610864 22.48759645236495 -7.085490295136181 0.5656901395524896 0.15 0.4343098604475104
v 14.533438358584197 24.986774023218192 -7.226287908558552 0.6284811282308221 0.15 0.37151887176917786
v 15.15148906499426 27.48686758827207 -7.381645621264485 0.6926634753744688 0.15 0.3073365246255312
v 15.75657866061095 29.988303797311357 -7.563998658316319 0.7432987542356153 0.15 0.2567012457643847
v 16.34887674556806 32.490740984141325 -7.772770109731686 0.804979325908412 0.15 0.19502067409158796
v 16.9308397329681 34.99377160865086 -8.00250830563115 0.8687724668802291 0.15 0.13122753311977087
v 17.50413811963241 37.49715542642684 -8.249526184815792 0.9289974736425318 0.15 0.07100252635746818
v 18.06709402084593 40.00074086076731 -8.517265511374793 1.0 0.15 0.0
l 586 587
l 587 588
l 588 589
l 589 590
l 590 591
l 591 592
l 592 593
l 593 594
l 594 595
l 595 596
l 596 597
l 597 598
l 598 599
l 599 600
l 600 601
l 601 602
v 9.39319398389802 -2.0169135384683688e-05 -3.395304054238659 0.0 0.15 1.0
v 9.985370472573534 2.5004148633623244 -3.593575166444821 0.06547712526284614 0.15 0.9345228747371539
v 10.582129107747038 5.0007486475234355 -3.778964961783908 0.12875031471789736 0.15 0.8712496852821027
v 11.183893045935505 7.500891262203733 -3.9502242131532515 0.19150626591843886 0.15 0.8084937340815611
v 11.789298636328002 10.000842306403511 -4.111163822476158 0.25401596409892924 0.15 0.7459840359010708
v 12.396424859867556 12.500686510990136 -4.2672152820627955 0.3166792607992365 0.15 0.6833207392007635
v 13.004473277631444 15.000469034481588 -4.420643682875339 0.379340594086062 0.15 0.620659405913938
v 13.613402462104647 17.500189722506846 -4.571564655281004 0.44195297663665417 0.15 0.5580470233633459
v 14.22339262194411 19.99983226051106 -4.719462537231984 0.5045394591836988 0.15 0.4954605408163012
v 14.834294333453455 22.499404595493555 -4.864760707681788 0.5673573374507258 0.15 0.4326426625492742
v 15.445023824948276 24.99899059976647 -5.01055048257187 0.6304106929145427 0.15 0.36958930708545734
v 16.053448606150305 27.4987459176196 -5.1629068465473 0.6935856678814374 0.15 0.3064143321185626
v 16.657890480566994 29.998750851473 -5.326579756202518 0.7565608809423467 0.15 0.24343911905765325
v 17.258077986690477 32.49896255964318 -5.50229601825426 0.8189844804301213 0.15 0.1810155195698787
v 17.85528145632005 34.9992823144405 -5.686432198329996 0.8805542466876595 0.15 0.11944575331234053
v 18.45056518367426 37.4996538596439 -5.875972077566875 0.9409645033806964 0.15 0.05903549661930363
v 19.04343966768695 40.00006987647403 -6.072278313008699 1.0 0.15 0.0
l 603 604
l 604 605
l 605 606
l 606 607
l 607 608
l 608 609
l 609 610
l 610 611
l 611 612
l 612 613
l 613 614
l 614 615
l 615 616
l 616 617
l 617 618
l 618 619
v 9.93463548237074 0.0001742636812885569 -1.096500530244545 0.0 0.15 1.0
v 10.545140163935784 2.500411141916437 -1.2355949146219438 0.06389570592131974 0.15 0.9361042940786802
v 11.15071895652971 4.9999162357671185 -1.4066519848721188 0.1267979898939484 0.15 0.8732020101060516
v 11.756164611685156 7.499394952695199 -1.5785614282167157 0.18945827192393916 0.15 0.8105417280760608
v 12.362625345663096 9.999065771872209 -1.7439549535983185 0.25200901048039054 0.15 0.7479909895196095
v 12.969936353729063 12.498886527415506 -1.9038713139292036 0.31465289643968025 0.15 0.6853471035603198
v 13.57788362765874 14.998812622853036 -2.0596777505143065 0.37849511692254934 0.15 0.6215048830774507
v 14.186334801383769 17.4988178499809 -2.2122217023541464 0.4411303057758767 0.15 0.5588696942241234
v 14.795221394641025 19.998887766335827 -2.3619405017310213 0.5038670303096973 0.15 0.49613296969030274
v 15.404377934574903 22.498996692284006 -2.509905888287204 0.5665175021161927 0.15 0.4334824978838073
v 16.013614183073457 24.99911744196712 -2.6573538497528855 0.6293227174647943 0.15 0.3706772825352057
v 16.622629708215147 27.499207117955958 -2.806237116803031 0.6922491703775883 0.15 0.30775082962241174
v 17.231268417433128 29.999241705873644 -2.957566767222587 0.7551896883919217 0.15 0.2448103116080783
v 17.83968171791538 32.4992422695836 -3.110358236935587 0.8176073464647433 0.15 0.1823926535352567
v 18.448466680969364 34.9992979401456 -3.260737807906691 0.8793928766384734 0.15 0.12060712336152657
v 19.058407756365167 37.49951065069867 -3.4035908531754706 0.9403263082914539 0.15 0.059673691708546084
v 19.67006056271904 39.99991486584888 -3.535230116130885 1.0 0.15 0.0
l 620 621
l 621 622
l 622 623
l 623 624
l 624 625
l 625 626
l 626 627
l 627 628
l 628 629
l 629 630
l 630 631
l 631 632
l 632 633
l 633 634
l 634 635
l 635 636
v 15.397085993631888 21.58857213252634 -0.0011611040204691937 0.5312500000000001 0.15 0.4687499999999999
v 16.046961982177887 24.21829525200884 -0.15494236841626077 0.605156172832777 0.15 0.394843827167223
v 16.696605248703538 26.847846470225985 -0.3125859460667097 0.6714865076846078 0.15 0.3285134923153922
v 17.34619316736651 29.477356308141996 -0.47114585744150433 0.736132885396363 0.15 0.263867114603637
v 17.996018823791832 32.10704203695276 -0.6257612880810459 0.8007495930648373 0.15 0.19925040693516272
v 18.646501977140925 34.7371884048471 -0.7693374373051209 0.8607274420774151 0.15 0.13927255792258486
v 19.952129572225868 39.99998563480815 -0.974351546471129 1.0 0.15 0.0
l 637 638
l 638 639
l 639 640
l 640 641
l 641 642
l 642 643
v 16.555403955259596 26.24999598873887 0.14442285439677366 0.6562500000000002 0.15 0.3437499999999998
v 17.234683968844628 28.99915477746851 0.30746369491513137 0.7205535681149291 0.15 0.2794464318850709
v 17.9139781061808 31.74832411503967 0.4702708910406993 0.7984051506373377 0.15 0.20159484936266225
v 18.593886676940777 34.49792814129369 0.6227827322914419 0.8611950329163821 0.15 0.1388049670836179
v 19.275196277294565 37.24840243562018 0.751205038774682 0.9228842167654028 0.15 0.07711578323459722
v 19.959186337478634 40.00000111876156 0.830786605648316 1.0 0.15 0.0
l 644 645
l 645 646
l 646 647
l 647 648
l 648 649
