v 7.784044973645569 4.794987582300238 -8.029226507786879 0.0 0.15 1.0
v 8.37520158069395 10.6581713992213 -9.431163530427332 0.27856943097301745 0.15 0.7214305690269825
v 8.98610572302642 16.52303829269179 -10.817435859977167 0.4204909864240846 0.15 0.5795090135759153
v 9.616949302916868 22.38951026666039 -12.18786092727798 0.5657580418464889 0.15 0.4342419581535111
v 10.255717771026506 28.25660781203268 -13.55198352850365 0.7223594290460269 0.15 0.2776405709539731
v 11.674949805657274 39.999795679732756 -16.16683691639532 1.0 0.15 0.0
l 1 2
l 2 3
l 3 4
l 4 5
l 5 6
v 3.2264928252713 7.057497274090679e-05 -9.420925245848107 0.0 0.15 1.0
v 3.660400469970254 5.001054012553183 -10.589513095903477 0.1323328203053751 0.15 0.8676671796946249
v 4.13556236386735 10.001250663884994 -11.74538208630755 0.258922563210111 0.15 0.741077436789889
v 4.658379648328016 15.000105482552874 -12.886446058199514 0.3836562882678147 0.15 0.6163437117321853
v 5.197602388538025 19.998390569772642 -14.022385360823156 0.5096383787159225 0.15 0.49036162128407745
v 5.70691596053012 24.997668773388494 -15.167655710044444 0.6362058320370219 0.15 0.36379416796297814
v 6.172961520304634 29.998073272730725 -16.326344095395843 0.7613901573884599 0.15 0.23860984261154006
v 7.021732296755441 40.000197590467835 -18.669337837868483 1.0 0.15 0.0
l 7 8
l 8 9
l 9 10
l 10 11
l 11 12
l 12 13
l 13 14
v -1.2252553505539456 0.0034566104775526495 -9.874174247141612 0.0 0.15 1.0
v -1.0836841258973438 5.009698420312549 -11.153821007744524 0.13108807619135557 0.15 0.8689119238086445
v -0.6541940189329374 9.998584529265107 -12.438516118731513 0.25189679822046274 0.15 0.7481032017795373
v -0.05893358693536542 14.971133034933308 -13.721873778392155 0.37610413668613707 0.15 0.6238958633138629
v 0.5850878491081967 19.957469929289122 -14.925843669998018 0.5039637341417124 0.15 0.49603626585828764
v 1.1073190546413052 24.957114182124844 -16.132750176631554 0.6328290848443069 0.15 0.3671709151556931
v 1.4594692361526105 29.96824914199194 -17.353849933524028 0.7377067710691039 0.15 0.2622932289308961
v 1.7578413424026875 40.00308841409783 -19.822802627565814 1.0 0.15 0.0
l 15 16
l 16 17
l 17 18
l 18 19
l 19 20
l 20 21
l 21 22
v -5.4324145388386 0.008487996247109664 -8.372463019957948 0.0 0.15 1.0
v -5.769274326085804 5.059609451303778 -9.646306596085704 0.13207621594810373 0.15 0.8679237840518963
v -5.565576119905696 10.054172296932572 -11.144116647250602 0.24810030790959903 0.15 0.751899692090401
v -4.914053275771137 14.971222611994337 -12.776150423327737 0.36019189753505854 0.15 0.6398081024649415
v -3.9390021252300604 19.8473512767818 -14.359184926911814 0.4851819490834613 0.15 0.5148180509165388
v -3.4334047847118714 24.8327061572847 -15.817800852149071 0.6288218351030217 0.15 0.3711781648969783
v -3.271716953789636 29.874762631617124 -17.166549902276522 0.7562225227246999 0.15 0.24377747727530008
v -3.6731758136037183 40.01448235062031 -19.616787589011324 1.0 0.15 0.0
l 23 24
l 24 25
l 25 26
l 26 27
l 27 28
l 28 29
l 29 30
v -7.077856371949992 19.99994737050362 -13.143213450634113 0.5080980984087149 0.15 0.4919019015912851
v -7.5087127065729815 26.661585754858947 -14.792210884011576 0.6668708499634203 0.15 0.3331291500365797
v -8.044665008647497 33.32892997877434 -16.38664302321033 0.8496243706025243 0.15 0.15037562939747573
v -8.694747019439315 39.999971703747164 -17.921114691407105 1.0 0.15 0.0
l 31 32
l 32 33
l 33 34
v -9.155587664244639 15.811541631665907 -10.44934781359138 0.37827395058731783 0.15 0.6217260494126822
v -10.370339427274768 21.85051455139026 -11.396091935451855 0.5445654415245951 0.15 0.4554345584754049
v -11.325801733237736 27.90027766970392 -12.559102148059328 0.7129629052446658 0.15 0.28703709475533423
v -12.221844901909131 33.94996137369888 -13.77085087372436 0.8530663019688456 0.15 0.1469336980311544
v -13.170526959089894 39.99993844013615 -14.939494401492034 1.0 0.15 0.0
l 35 36
l 36 37
l 37 38
l 38 39
v -8.4962704162226 0.0005448571089536654 -5.216288203623408 0.0 0.15 1.0
v -9.469889579106972 4.998010350014595 -6.032362785361368 0.121687424003511 0.15 0.878312575996489
v -10.44028866586908 9.994808539082234 -6.854046528698157 0.22529993930772169 0.15 0.7747000606922783
v -11.639590908803063 14.993497568705099 -7.2486066066002035 0.3364453289203024 0.15 0.6635546710796976
v -12.66707477565765 19.995523598632232 -7.966314376885327 0.4832557741364689 0.15 0.5167442258635311
v -13.695336959868555 24.99763486293506 -8.682610996576914 0.6251040903589133 0.15 0.37489590964108666
v -14.710566152443521 29.99888269836285 -9.422834921201654 0.7582698438675626 0.15 0.24173015613243742
v -16.720759302398427 40.0000046422408 -10.940471326459424 1.0 0.15 0.0
l 40 41
l 41 42
l 42 43
l 43 44
l 44 45
l 45 46
l 46 47
v -9.913002200843433 0.008366403326905225 -0.913557027404658 0.0 0.15 1.0
v -11.135689851243532 5.033350271964972 -1.29159251721586 0.12053086828377164 0.15 0.8794691317162283
v -12.322814501590706 10.053092063763748 -1.8250852835158924 0.22868809783536304 0.15 0.771311902164637
v -13.329354103105732 14.914972920688882 -3.0595559776971473 0.3195003651000926 0.15 0.6804996348999074
v -14.328162837478652 19.89175893446908 -4.077219075373234 0.5026396581118836 0.15 0.4973603418881164
v -15.454143945299068 24.915261532909284 -4.7006066270633315 0.6497628171284666 0.15 0.3502371828715334
v -16.601407170986814 29.94371501909704 -5.240334760306638 0.7297687333784791 0.15 0.27023126662152086
v -18.988698561936204 40.009486542302696 -5.958301455551252 1.0 0.15 0.0
l 48 49
l 49 50
l 50 51
l 51 52
l 52 53
l 53 54
l 54 55
v -14.29355382440871 17.274039447578637 -0.2533828975567438 0.3985268712576969 0.15 0.6014731287423031
v -15.70086964315184 22.95545754614174 -0.3857670930820074 0.5605531110863524 0.15 0.4394468889136476
v -17.10723840852458 28.637120340362575 -0.5283879944438767 0.721527301558276 0.15 0.27847269844172395
v -18.515485622565905 34.31874101683926 -0.6518297802673974 0.8741024250975863 0.15 0.1258975749024137
v -19.92785137143273 40.00000516373531 -0.7325504037188553 1.0 0.15 0.0
l 56 57
l 57 58
l 58 59
l 59 60
v -9.374761461146562 0.0017928504985047465 3.380150555406791 0.0 0.15 1.0
v -10.601648731773594 5.007273365675323 3.625725096700444 0.11780392945883465 0.15 0.8821960705411653
v -11.85263626703836 10.010229282904717 3.789688048994348 0.2226444162427004 0.15 0.7773555837572996
v -13.192261174428921 14.986265230360885 3.6383801173463453 0.3321821757192711 0.15 0.6678178242807289
v -14.478789055776932 19.981271401628398 3.6783685653182885 0.4769084921732131 0.15 0.5230915078267868
v -15.726851352437881 24.98467222629806 3.852355918810166 0.6240221773619262 0.15 0.3759778226380738
v -16.964697061132853 29.989298860810635 4.061073463275968 0.7582972820989686 0.15 0.24170271790103137
v -19.39078607014656 40.00194141633981 4.644930700018913 1.0 0.15 0.0
l 61 62
l 62 63
l 63 64
l 64 65
l 65 66
l 66 67
l 67 68
v -11.997136422352714 14.033532360526593 6.073030664722194 0.2828831732849816 0.15 0.7171168267150184
v -13.13205182168072 20.465865634535394 7.344643028898876 0.4943156500003442 0.15 0.5056843499996557
v -14.561080016455175 26.97690062585397 8.107546645121783 0.6887036762948373 0.15 0.3112963237051627
v -16.01365299146551 33.48784675006343 8.826354196927271 0.8524723606052247 0.15 0.1475276393947753
v -17.416848376261996 39.99850809083767 9.637390442554306 1.0 0.15 0.0
l 69 70
l 70 71
l 71 72
l 72 73
v -7.194737645116078 5.1970622921718356e-05 6.920396045336421 0.0 0.15 1.0
v -8.091791965594604 5.000577187257043 7.788436813114965 0.11843532795706595 0.15 0.8815646720429341
v -8.98266517410306 10.000850014211203 8.663910307491337 0.2221822184775221 0.15 0.7778177815224779
v -9.846943489002543 14.99948326018115 9.571146635368468 0.33042031454031145 0.15 0.6695796854596885
v -10.722226070371015 19.999117273071192 10.465366830545006 0.47926058150969325 0.15 0.5207394184903067
v -11.606222405033725 24.99925647526374 11.349167412882585 0.6257516161704252 0.15 0.3742483838295748
v -12.493327743582533 29.999485205376924 12.22921476418849 0.7581085152601467 0.15 0.24189148473985334
v -14.271752164729048 40.0001121597126 13.984241345525785 1.0 0.15 0.0
l 74 75
l 75 76
l 76 77
l 77 78
l 78 79
l 79 80
l 80 81
v -7.370437949697866 18.221335438424116 12.485066420817066 0.4403419802266897 0.15 0.5596580197733103
v -8.23649589655046 25.480760376813436 14.070083546680188 0.6452603061205255 0.15 0.35473969387947446
v -9.977883966976464 39.99999596723209 17.235270532759294 1.0 0.15 0.0
l 82 83
l 83 84
v -3.753033370866419 0.002429443534054375 9.261814198681884 0.0 0.15 1.0
v -4.035549079689616 5.00980938610345 10.4779893233968 0.11836223966222045 0.15 0.8816377603377795
v -4.2170523839322405 10.014569829272029 11.724125225653182 0.22261369103961526 0.15 0.7773863089603847
v -4.0047628336798065 14.982490556135417 13.080138813862103 0.35782148640697886 0.15 0.6421785135930211
v -4.019606408285782 19.97645867923666 14.37402442432116 0.47702740983078995 0.15 0.52297259016921
v -4.1987061400658225 24.981196165829246 15.620883416940465 0.6226235196711042 0.15 0.3773764803288958
v -4.4178677991927024 29.98722746833001 16.855926138375835 0.7573121212187732 0.15 0.24268787878122677
v -5.0364668342004535 40.00263362159558 19.272194853511596 1.0 0.15 0.0
l 85 86
l 86 87
l 87 88
l 88 89
l 89 90
l 90 91
l 91 92
v -0.0037957466606772143 17.161653565452106 14.290376789822187 0.39839601580260275 0.15 0.6016039841973972
v 0.031667439686222626 22.86954440170457 15.713671342146002 0.5633170097911131 0.15 0.4366829902088869
v 0.1516325299783557 28.57979407979363 17.12985577176454 0.7209171384084093 0.15 0.2790828615915907
v 0.3315159878620046 40.00000149449967 19.967195286114553 1.0 0.15 0.0
l 93 94
l 94 95
l 95 96
v 0.5394830100068849 0.008985627227758435 9.947465677412577 0.0 0.15 1.0
v 0.8629433168615575 5.044619474172451 11.182102890153036 0.12017991660930522 0.15 0.8798200833906948
v 1.3687213525966029 10.0747429115952 12.380293092667863 0.228327119892629 0.15 0.771672880107371
v 2.6638282534303874 14.880488652215504 13.423673401953883 0.3196657784313188 0.15 0.6803342215686812
v 3.725722483621488 19.857046560629342 14.417961576987757 0.46669150373865514 0.15 0.5333084962613448
v 4.350616645380131 24.888300338225868 15.55329353538373 0.6168799947631928 0.15 0.3831200052368072
v 4.8849546169479465 29.92546282790909 16.70898633443988 0.7293250916583316 0.15 0.2706749083416684
v 5.563434075444372 40.01218984488018 19.10480231223339 1.0 0.15 0.0
l 97 98
l 98 99
l 99 100
l 100 101
l 101 102
l 102 103
l 103 104
v 4.8811574640452235 0.00041366108732386473 8.675364516876863 0.0 0.15 1.0
v 5.658386087404995 4.998974002351397 9.670056142399691 0.1210318818708987 0.15 0.8789681181291014
v 6.464254194604615 9.996112244098635 10.64903851501522 0.22387367012748222 0.15 0.7761263298725178
v 6.922881177992811 14.996041871397036 11.8144125437755 0.3363577689255916 0.15 0.6636422310744083
v 7.655765945346704 19.99678622542704 12.83342256648088 0.4826367779596299 0.15 0.5173632220403701
v 8.367414016711741 24.998251212166558 13.863987131678325 0.6247834232286569 0.15 0.3752165767713431
v 9.096284925052023 29.999128410935096 14.8851800785372 0.758669515649153 0.15 0.24133048435084703
v 10.578519954650552 39.999992133547536 16.91422281693236 1.0 0.15 0.0
l 105 106
l 106 107
l 107 108
l 108 109
l 109 110
l 110 111
l 111 112
v 10.422948398730984 16.987689080918003 9.649016716917322 0.4113639225112724 0.15 0.5886360774887276
v 11.338069213447525 22.73368006909343 10.787399937006029 0.5535254648758301 0.15 0.4464745351241699
v 12.441044694326344 28.489066210141644 11.700566104579972 0.7160973931921131 0.15 0.2839026068078869
v 14.6824422049737 39.99985884668689 13.483714749200185 1.0 0.15 0.0
l 113 114
l 114 115
l 115 116
v 13.292220438391354 21.076678433554697 7.36736653148715 0.5082897964992925 0.15 0.4917102035007075
v 14.79739552489131 27.382434261578616 7.879466039286553 0.6592027747891411 0.15 0.34079722521085887
v 17.730541024662898 40.00002827946335 9.051315125553087 1.0 0.15 0.0
l 117 118
l 118 119
v 8.168591629121568 0.008361574227758 5.739474371575888 0.0 0.15 1.0
v 9.446380874825143 5.061617350827198 6.14004611994591 0.12798805401116775 0.15 0.8720119459888322
v 10.94183087732169 10.065632079716323 5.963933736341068 0.2395206892141546 0.15 0.7604793107858454
v 12.631466405419168 14.970723492843991 5.303826880670378 0.360078780241669 0.15 0.639921219758331
v 14.246148150775847 19.831248856032932 4.276144396766603 0.4842034278710911 0.15 0.5157965721289088
v 15.71322500226532 24.822068307362457 3.7750931588434904 0.6295263759319155 0.15 0.3704736240680845
v 17.075684196825975 29.868955827096965 3.630360421824 0.7598255423594944 0.15 0.2401744576405056
v 19.55588687653449 40.015681676686924 4.078768165310676 1.0 0.15 0.0
l 120 121
l 121 122
l 122 123
l 123 124
l 124 125
l 125 126
l 126 127
v 9.837638123963316 0.003757785657452272 1.5909974729575618 0.0 0.15 1.0
v 11.114295351144133 5.013880758074524 1.483658853406559 0.13084394695347465 0.15 0.8691560530465253
v 12.403028936333474 10.004639038832352 1.058875903976178 0.2572634370944753 0.15 0.7427365629055247
v 13.69406535561999 14.976646257862377 0.4541603169880354 0.37853179486268584 0.15 0.6214682051373142
v 14.952401231603105 19.949945593255812 -0.20564957197352884 0.5040734058994543 0.15 0.49592659410054574
v 16.166672233341178 24.94981438928283 -0.7331090059580834 0.6388872714092128 0.15 0.36111272859078725
v 17.393715495450255 29.962495756790773 -1.0785736665789916 0.7611156570995972 0.15 0.23888434290040284
v 19.859246125961437 40.004162695773644 -1.3518305963669281 1.0 0.15 0.0
l 128 129
l 129 130
l 130 131
l 131 132
l 132 133
l 133 134
l 134 135
v 9.528881535730736 0.00011107372718981803 -2.870643360696893 0.0 0.15 1.0
v 10.704950299089479 5.001353358757184 -3.2801115900843354 0.13228564222840672 0.15 0.8677143577715933
v 11.860849635318738 10.001541808862084 -3.755166376759125 0.2587946902716221 0.15 0.741205309728378
v 13.00012166411262 15.000196743846418 -4.283719601590484 0.3838536661360837 0.15 0.6161463338639164
v 14.133889685117968 19.99821727733266 -4.829873358903033 0.5095753090498232 0.15 0.4904246909501768
v 15.278431141460068 24.997414390417866 -5.34152027347389 0.6363148462570556 0.15 0.3636851537429444
v 16.43859254424882 29.99790837126535 -5.802786642079445 0.7616012096481786 0.15 0.23839879035182143
v 18.78684355836741 40.00025312665201 -6.634415435176525 1.0 0.15 0.0
l 136 137
l 137 138
l 138 139
l 139 140
l 140 141
l 141 142
l 142 143
v 7.211605095983371 0.00040861498715134966 -6.899982861090532 0.0 0.15 1.0
v 8.342614735452791 5.0020054986010285 -7.483368531148844 0.12930514683942687 0.15 0.8706948531605732
v 9.529587674360533 9.998620540129167 -7.996608954885958 0.2500698608244246 0.15 0.7499301391755754
v 10.708764182496852 14.996045720003842 -8.51966699290465 0.3806585634090308 0.15 0.6193414365909692
v 11.878664130201695 19.994418296640607 -9.054400160078249 0.5063466408101346 0.15 0.4936533591898654
v 13.045498434589458 24.993102071037896 -9.59299086371281 0.6323165271565301 0.15 0.3676834728434699
v 14.203354828905074 29.992650383132453 -10.142860220973391 0.7572819150673455 0.15 0.24271808493265445
v 16.410535205896466 39.9999105312369 -11.378047627430004 1.0 0.15 0.0
l 144 145
l 145 146
l 146 147
l 147 148
l 148 149
l 149 150
l 150 151
