# KnittingStitches from conjugate-height scales + smooth
v 7.784044973645569 4.794987582300238 -8.029226507786879 0.55 0.55 0.55
v 8.37520158069395 10.6581713992213 -9.431163530427332 0.55 0.55 0.55
v 3.660400469970254 5.001054012553183 -10.589513095903477 0.55 0.55 0.55
v 3.2264928252713 7.057497274090679e-05 -9.420925245848107 0.55 0.55 0.55
v 3.2264928252713 7.057497274090679e-05 -9.420925245848107 0.55 0.55 0.55
v 3.660400469970254 5.001054012553183 -10.589513095903477 0.55 0.55 0.55
v -1.0836841258973438 5.009698420312549 -11.153821007744524 0.55 0.55 0.55
v -1.2252553505539456 0.0034566104775526495 -9.874174247141612 0.55 0.55 0.55
v -1.2252553505539456 0.0034566104775526495 -9.874174247141612 0.55 0.55 0.55
v -1.0836841258973438 5.009698420312549 -11.153821007744524 0.55 0.55 0.55
v -5.769274326085804 5.059609451303778 -9.646306596085704 0.55 0.55 0.55
v -5.4324145388386 0.008487996247109664 -8.372463019957948 0.55 0.55 0.55
v -5.4324145388386 0.008487996247109664 -8.372463019957948 0.55 0.55 0.55
v -5.769274326085804 5.059609451303778 -9.646306596085704 0.55 0.55 0.55
v -9.469889579106972 4.998010350014595 -6.032362785361368 0.55 0.55 0.55
v -8.4962704162226 0.0005448571089536654 -5.216288203623408 0.55 0.55 0.55
v -8.4962704162226 0.0005448571089536654 -5.216288203623408 0.55 0.55 0.55
v -9.469889579106972 4.998010350014595 -6.032362785361368 0.55 0.55 0.55
v -11.135689851243532 5.033350271964972 -1.29159251721586 0.55 0.55 0.55
v -9.913002200843433 0.008366403326905225 -0.913557027404658 0.55 0.55 0.55
v -9.913002200843433 0.008366403326905225 -0.913557027404658 0.55 0.55 0.55
v -11.135689851243532 5.033350271964972 -1.29159251721586 0.55 0.55 0.55
v -10.601648731773594 5.007273365675323 3.625725096700444 0.55 0.55 0.55
v -9.374761461146562 0.0017928504985047465 3.380150555406791 0.55 0.55 0.55
v -9.374761461146562 0.0017928504985047465 3.380150555406791 0.55 0.55 0.55
v -10.601648731773594 5.007273365675323 3.625725096700444 0.55 0.55 0.55
v -8.091791965594604 5.000577187257043 7.788436813114965 0.55 0.55 0.55
v -7.194737645116078 5.1970622921718356e-05 6.920396045336421 0.55 0.55 0.55
v -7.194737645116078 5.1970622921718356e-05 6.920396045336421 0.55 0.55 0.55
v -8.091791965594604 5.000577187257043 7.788436813114965 0.55 0.55 0.55
v -4.035549079689616 5.00980938610345 10.4779893233968 0.55 0.55 0.55
v -3.753033370866419 0.002429443534054375 9.261814198681884 0.55 0.55 0.55
v -3.753033370866419 0.002429443534054375 9.261814198681884 0.55 0.55 0.55
v -4.035549079689616 5.00980938610345 10.4779893233968 0.55 0.55 0.55
v 0.8629433168615575 5.044619474172451 11.182102890153036 0.55 0.55 0.55
v 0.5394830100068849 0.008985627227758435 9.947465677412577 0.55 0.55 0.55
v 0.5394830100068849 0.008985627227758435 9.947465677412577 0.55 0.55 0.55
v 0.8629433168615575 5.044619474172451 11.182102890153036 0.55 0.55 0.55
v 5.658386087404995 4.998974002351397 9.670056142399691 0.55 0.55 0.55
v 4.8811574640452235 0.00041366108732386473 8.675364516876863 0.55 0.55 0.55
v 4.8811574640452235 0.00041366108732386473 8.675364516876863 0.55 0.55 0.55
v 5.658386087404995 4.998974002351397 9.670056142399691 0.55 0.55 0.55
v 9.446380874825143 5.061617350827198 6.14004611994591 0.55 0.55 0.55
v 8.168591629121568 0.008361574227758 5.739474371575888 0.55 0.55 0.55
v 8.168591629121568 0.008361574227758 5.739474371575888 0.55 0.55 0.55
v 9.446380874825143 5.061617350827198 6.14004611994591 0.55 0.55 0.55
v 11.114295351144133 5.013880758074524 1.483658853406559 0.55 0.55 0.55
v 9.837638123963316 0.003757785657452272 1.5909974729575618 0.55 0.55 0.55
v 9.837638123963316 0.003757785657452272 1.5909974729575618 0.55 0.55 0.55
v 11.114295351144133 5.013880758074524 1.483658853406559 0.55 0.55 0.55
v 10.704950299089479 5.001353358757184 -3.2801115900843354 0.55 0.55 0.55
v 9.528881535730736 0.00011107372718981803 -2.870643360696893 0.55 0.55 0.55
v 9.528881535730736 0.00011107372718981803 -2.870643360696893 0.55 0.55 0.55
v 10.704950299089479 5.001353358757184 -3.2801115900843354 0.55 0.55 0.55
v 8.342614735452791 5.0020054986010285 -7.483368531148844 0.55 0.55 0.55
v 7.211605095983371 0.00040861498715134966 -6.899982861090532 0.55 0.55 0.55
v 7.211605095983371 0.00040861498715134966 -6.899982861090532 0.55 0.55 0.55
v 8.342614735452791 5.0020054986010285 -7.483368531148844 0.55 0.55 0.55
v 8.37520158069395 10.6581713992213 -9.431163530427332 0.55 0.55 0.55
v 7.784044973645569 4.794987582300238 -8.029226507786879 0.55 0.55 0.55
v 8.37520158069395 10.6581713992213 -9.431163530427332 0.55 0.55 0.55
v 8.98610572302642 16.52303829269179 -10.817435859977167 0.55 0.55 0.55
v 4.13556236386735 10.001250663884994 -11.74538208630755 0.55 0.55 0.55
v 3.660400469970254 5.001054012553183 -10.589513095903477 0.55 0.55 0.55
v 3.660400469970254 5.001054012553183 -10.589513095903477 0.55 0.55 0.55
v 4.13556236386735 10.001250663884994 -11.74538208630755 0.55 0.55 0.55
v -0.6541940189329374 9.998584529265107 -12.438516118731513 0.55 0.55 0.55
v -1.0836841258973438 5.009698420312549 -11.153821007744524 0.55 0.55 0.55
v -1.0836841258973438 5.009698420312549 -11.153821007744524 0.55 0.55 0.55
v -0.6541940189329374 9.998584529265107 -12.438516118731513 0.55 0.55 0.55
v -5.565576119905696 10.054172296932572 -11.144116647250602 0.55 0.55 0.55
v -5.769274326085804 5.059609451303778 -9.646306596085704 0.55 0.55 0.55
v -5.769274326085804 5.059609451303778 -9.646306596085704 0.55 0.55 0.55
v -5.565576119905696 10.054172296932572 -11.144116647250602 0.55 0.55 0.55
v -10.44028866586908 9.994808539082234 -6.854046528698157 0.55 0.55 0.55
v -9.469889579106972 4.998010350014595 -6.032362785361368 0.55 0.55 0.55
v -9.469889579106972 4.998010350014595 -6.032362785361368 0.55 0.55 0.55
v -10.44028866586908 9.994808539082234 -6.854046528698157 0.55 0.55 0.55
v -12.322814501590706 10.053092063763748 -1.8250852835158924 0.55 0.55 0.55
v -11.135689851243532 5.033350271964972 -1.29159251721586 0.55 0.55 0.55
v -11.135689851243532 5.033350271964972 -1.29159251721586 0.55 0.55 0.55
v -12.322814501590706 10.053092063763748 -1.8250852835158924 0.55 0.55 0.55
v -11.85263626703836 10.010229282904717 3.789688048994348 0.55 0.55 0.55
v -10.601648731773594 5.007273365675323 3.625725096700444 0.55 0.55 0.55
v -10.601648731773594 5.007273365675323 3.625725096700444 0.55 0.55 0.55
v -11.85263626703836 10.010229282904717 3.789688048994348 0.55 0.55 0.55
v -8.98266517410306 10.000850014211203 8.663910307491337 0.55 0.55 0.55
v -8.091791965594604 5.000577187257043 7.788436813114965 0.55 0.55 0.55
v -8.091791965594604 5.000577187257043 7.788436813114965 0.55 0.55 0.55
v -8.98266517410306 10.000850014211203 8.663910307491337 0.55 0.55 0.55
v -4.2170523839322405 10.014569829272029 11.724125225653182 0.55 0.55 0.55
v -4.035549079689616 5.00980938610345 10.4779893233968 0.55 0.55 0.55
v -4.035549079689616 5.00980938610345 10.4779893233968 0.55 0.55 0.55
v -4.2170523839322405 10.014569829272029 11.724125225653182 0.55 0.55 0.55
v 1.3687213525966029 10.0747429115952 12.380293092667863 0.55 0.55 0.55
v 0.8629433168615575 5.044619474172451 11.182102890153036 0.55 0.55 0.55
v 0.8629433168615575 5.044619474172451 11.182102890153036 0.55 0.55 0.55
v 1.3687213525966029 10.0747429115952 12.380293092667863 0.55 0.55 0.55
v 6.464254194604615 9.996112244098635 10.64903851501522 0.55 0.55 0.55
v 5.658386087404995 4.998974002351397 9.670056142399691 0.55 0.55 0.55
v 5.658386087404995 4.998974002351397 9.670056142399691 0.55 0.55 0.55
v 6.464254194604615 9.996112244098635 10.64903851501522 0.55 0.55 0.55
v 10.94183087732169 10.065632079716323 5.963933736341068 0.55 0.55 0.55
v 9.446380874825143 5.061617350827198 6.14004611994591 0.55 0.55 0.55
v 9.446380874825143 5.061617350827198 6.14004611994591 0.55 0.55 0.55
v 10.94183087732169 10.065632079716323 5.963933736341068 0.55 0.55 0.55
v 12.403028936333474 10.004639038832352 1.058875903976178 0.55 0.55 0.55
v 11.114295351144133 5.013880758074524 1.483658853406559 0.55 0.55 0.55
v 11.114295351144133 5.013880758074524 1.483658853406559 0.55 0.55 0.55
v 12.403028936333474 10.004639038832352 1.058875903976178 0.55 0.55 0.55
v 11.860849635318738 10.001541808862084 -3.755166376759125 0.55 0.55 0.55
v 10.704950299089479 5.001353358757184 -3.2801115900843354 0.55 0.55 0.55
v 10.704950299089479 5.001353358757184 -3.2801115900843354 0.55 0.55 0.55
v 11.860849635318738 10.001541808862084 -3.755166376759125 0.55 0.55 0.55
v 9.529587674360533 9.998620540129167 -7.996608954885958 0.55 0.55 0.55
v 8.342614735452791 5.0020054986010285 -7.483368531148844 0.55 0.55 0.55
v 8.342614735452791 5.0020054986010285 -7.483368531148844 0.0 0.0 0.0
v 9.529587674360533 9.998620540129167 -7.996608954885958 0.0 0.0 0.0
v 8.37520158069395 10.6581713992213 -9.431163530427332 0.0 0.0 0.0
v 9.529587674360533 9.998620540129167 -7.996608954885958 0.0 0.0 0.0
v 10.708764182496852 14.996045720003842 -8.51966699290465 0.0 0.0 0.0
v 8.37520158069395 10.6581713992213 -9.431163530427332 0.0 0.0 0.0
v 11.860849635318738 10.001541808862084 -3.755166376759125 0.55 0.55 0.55
v 13.00012166411262 15.000196743846418 -4.283719601590484 0.55 0.55 0.55
v 10.708764182496852 14.996045720003842 -8.51966699290465 0.55 0.55 0.55
v 9.529587674360533 9.998620540129167 -7.996608954885958 0.55 0.55 0.55
v 12.403028936333474 10.004639038832352 1.058875903976178 0.55 0.55 0.55
v 13.69406535561999 14.976646257862377 0.4541603169880354 0.55 0.55 0.55
v 13.00012166411262 15.000196743846418 -4.283719601590484 0.55 0.55 0.55
v 11.860849635318738 10.001541808862084 -3.755166376759125 0.55 0.55 0.55
v 10.94183087732169 10.065632079716323 5.963933736341068 0.55 0.55 0.55
v 12.631466405419168 14.970723492843991 5.303826880670378 0.55 0.55 0.55
v 13.69406535561999 14.976646257862377 0.4541603169880354 0.55 0.55 0.55
v 12.403028936333474 10.004639038832352 1.058875903976178 0.55 0.55 0.55
v 6.464254194604615 9.996112244098635 10.64903851501522 0.55 0.55 0.55
v 6.922881177992811 14.996041871397036 11.8144125437755 0.55 0.55 0.55
v 12.631466405419168 14.970723492843991 5.303826880670378 0.55 0.55 0.55
v 10.94183087732169 10.065632079716323 5.963933736341068 0.55 0.55 0.55
v 1.3687213525966029 10.0747429115952 12.380293092667863 0.55 0.55 0.55
v 2.6638282534303874 14.880488652215504 13.423673401953883 0.55 0.55 0.55
v 6.922881177992811 14.996041871397036 11.8144125437755 0.55 0.55 0.55
v 6.464254194604615 9.996112244098635 10.64903851501522 0.55 0.55 0.55
v -4.2170523839322405 10.014569829272029 11.724125225653182 0.55 0.55 0.55
v -4.0047628336798065 14.982490556135417 13.080138813862103 0.55 0.55 0.55
v 2.6638282534303874 14.880488652215504 13.423673401953883 0.55 0.55 0.55
v 1.3687213525966029 10.0747429115952 12.380293092667863 0.55 0.55 0.55
v -8.98266517410306 10.000850014211203 8.663910307491337 0.0 1.0 0.0
v -9.846943489002543 14.99948326018115 9.571146635368468 0.0 1.0 0.0
v -7.370437949697866 18.221335438424116 12.485066420817066 0.0 1.0 0.0
v -4.0047628336798065 14.982490556135417 13.080138813862103 0.0 1.0 0.0
v -4.2170523839322405 10.014569829272029 11.724125225653182 0.0 1.0 0.0
v -11.85263626703836 10.010229282904717 3.789688048994348 0.0 1.0 0.0
v -13.192261174428921 14.986265230360885 3.6383801173463453 0.0 1.0 0.0
v -11.997136422352714 14.033532360526593 6.073030664722194 0.0 1.0 0.0
v -9.846943489002543 14.99948326018115 9.571146635368468 0.0 1.0 0.0
v -8.98266517410306 10.000850014211203 8.663910307491337 0.0 1.0 0.0
v -12.322814501590706 10.053092063763748 -1.8250852835158924 0.0 1.0 0.0
v -13.329354103105732 14.914972920688882 -3.0595559776971473 0.0 1.0 0.0
v -14.29355382440871 17.274039447578637 -0.2533828975567438 0.0 1.0 0.0
v -13.192261174428921 14.986265230360885 3.6383801173463453 0.0 1.0 0.0
v -11.85263626703836 10.010229282904717 3.789688048994348 0.0 1.0 0.0
v -10.44028866586908 9.994808539082234 -6.854046528698157 0.55 0.55 0.55
v -11.639590908803063 14.993497568705099 -7.2486066066002035 0.55 0.55 0.55
v -13.329354103105732 14.914972920688882 -3.0595559776971473 0.55 0.55 0.55
v -12.322814501590706 10.053092063763748 -1.8250852835158924 0.55 0.55 0.55
v -5.565576119905696 10.054172296932572 -11.144116647250602 0.0 1.0 0.0
v -4.914053275771137 14.971222611994337 -12.776150423327737 0.0 1.0 0.0
v -9.155587664244639 15.811541631665907 -10.44934781359138 0.0 1.0 0.0
v -11.639590908803063 14.993497568705099 -7.2486066066002035 0.0 1.0 0.0
v -10.44028866586908 9.994808539082234 -6.854046528698157 0.0 1.0 0.0
v -0.6541940189329374 9.998584529265107 -12.438516118731513 0.55 0.55 0.55
v -0.05893358693536542 14.971133034933308 -13.721873778392155 0.55 0.55 0.55
v -4.914053275771137 14.971222611994337 -12.776150423327737 0.55 0.55 0.55
v -5.565576119905696 10.054172296932572 -11.144116647250602 0.55 0.55 0.55
v 4.13556236386735 10.001250663884994 -11.74538208630755 0.55 0.55 0.55
v 4.658379648328016 15.000105482552874 -12.886446058199514 0.55 0.55 0.55
v -0.05893358693536542 14.971133034933308 -13.721873778392155 0.55 0.55 0.55
v -0.6541940189329374 9.998584529265107 -12.438516118731513 0.55 0.55 0.55
v 8.98610572302642 16.52303829269179 -10.817435859977167 1.0 1.0 1.0
v 4.658379648328016 15.000105482552874 -12.886446058199514 1.0 1.0 1.0
v 4.13556236386735 10.001250663884994 -11.74538208630755 1.0 1.0 1.0
v 8.98610572302642 16.52303829269179 -10.817435859977167 1.0 1.0 1.0
v 5.197602388538025 19.998390569772642 -14.022385360823156 1.0 1.0 1.0
v 4.658379648328016 15.000105482552874 -12.886446058199514 1.0 1.0 1.0
v 4.658379648328016 15.000105482552874 -12.886446058199514 0.55 0.55 0.55
v 5.197602388538025 19.998390569772642 -14.022385360823156 0.55 0.55 0.55
v 0.5850878491081967 19.957469929289122 -14.925843669998018 0.55 0.55 0.55
v -0.05893358693536542 14.971133034933308 -13.721873778392155 0.55 0.55 0.55
v -0.05893358693536542 14.971133034933308 -13.721873778392155 0.55 0.55 0.55
v 0.5850878491081967 19.957469929289122 -14.925843669998018 0.55 0.55 0.55
v -3.9390021252300604 19.8473512767818 -14.359184926911814 0.55 0.55 0.55
v -4.914053275771137 14.971222611994337 -12.776150423327737 0.55 0.55 0.55
v -4.914053275771137 14.971222611994337 -12.776150423327737 0.0 1.0 0.0
v -3.9390021252300604 19.8473512767818 -14.359184926911814 0.0 1.0 0.0
v -7.077856371949992 19.99994737050362 -13.143213450634113 0.0 1.0 0.0
v -10.370339427274768 21.85051455139026 -11.396091935451855 0.0 1.0 0.0
v -9.155587664244639 15.811541631665907 -10.44934781359138 0.0 1.0 0.0
v -9.155587664244639 15.811541631665907 -10.44934781359138 0.55 0.55 0.55
v -10.370339427274768 21.85051455139026 -11.396091935451855 0.55 0.55 0.55
v -12.66707477565765 19.995523598632232 -7.966314376885327 0.55 0.55 0.55
v -11.639590908803063 14.993497568705099 -7.2486066066002035 0.55 0.55 0.55
v -11.639590908803063 14.993497568705099 -7.2486066066002035 0.55 0.55 0.55
v -12.66707477565765 19.995523598632232 -7.966314376885327 0.55 0.55 0.55
v -14.328162837478652 19.89175893446908 -4.077219075373234 0.55 0.55 0.55
v -13.329354103105732 14.914972920688882 -3.0595559776971473 0.55 0.55 0.55
v -13.329354103105732 14.914972920688882 -3.0595559776971473 0.55 0.55 0.55
v -14.328162837478652 19.89175893446908 -4.077219075373234 0.55 0.55 0.55
v -15.70086964315184 22.95545754614174 -0.3857670930820074 0.55 0.55 0.55
v -14.29355382440871 17.274039447578637 -0.2533828975567438 0.55 0.55 0.55
v -14.29355382440871 17.274039447578637 -0.2533828975567438 0.55 0.55 0.55
v -15.70086964315184 22.95545754614174 -0.3857670930820074 0.55 0.55 0.55
v -14.478789055776932 19.981271401628398 3.6783685653182885 0.55 0.55 0.55
v -13.192261174428921 14.986265230360885 3.6383801173463453 0.55 0.55 0.55
v -13.192261174428921 14.986265230360885 3.6383801173463453 0.55 0.55 0.55
v -14.478789055776932 19.981271401628398 3.6783685653182885 0.55 0.55 0.55
v -13.13205182168072 20.465865634535394 7.344643028898876 0.55 0.55 0.55
v -11.997136422352714 14.033532360526593 6.073030664722194 0.55 0.55 0.55
v -11.997136422352714 14.033532360526593 6.073030664722194 0.55 0.55 0.55
v -13.13205182168072 20.465865634535394 7.344643028898876 0.55 0.55 0.55
v -10.722226070371015 19.999117273071192 10.465366830545006 0.55 0.55 0.55
v -9.846943489002543 14.99948326018115 9.571146635368468 0.55 0.55 0.55
v -9.846943489002543 14.99948326018115 9.571146635368468 0.55 0.55 0.55
v -10.722226070371015 19.999117273071192 10.465366830545006 0.55 0.55 0.55
v -8.23649589655046 25.480760376813436 14.070083546680188 0.55 0.55 0.55
v -7.370437949697866 18.221335438424116 12.485066420817066 0.55 0.55 0.55
v -7.370437949697866 18.221335438424116 12.485066420817066 0.55 0.55 0.55
v -8.23649589655046 25.480760376813436 14.070083546680188 0.55 0.55 0.55
v -4.019606408285782 19.97645867923666 14.37402442432116 0.55 0.55 0.55
v -4.0047628336798065 14.982490556135417 13.080138813862103 0.55 0.55 0.55
v -4.0047628336798065 14.982490556135417 13.080138813862103 0.0 0.0 1.0
v -4.019606408285782 19.97645867923666 14.37402442432116 0.0 0.0 1.0
v -0.0037957466606772143 17.161653565452106 14.290376789822187 0.0 0.0 1.0
v 2.6638282534303874 14.880488652215504 13.423673401953883 0.0 0.0 1.0
v -0.0037957466606772143 17.161653565452106 14.290376789822187 0.0 0.0 0.0
v 0.031667439686222626 22.86954440170457 15.713671342146002 0.0 0.0 0.0
v 2.6638282534303874 14.880488652215504 13.423673401953883 0.0 0.0 0.0
v -4.019606408285782 19.97645867923666 14.37402442432116 1.0 1.0 1.0
v 0.031667439686222626 22.86954440170457 15.713671342146002 1.0 1.0 1.0
v -0.0037957466606772143 17.161653565452106 14.290376789822187 1.0 1.0 1.0
v -4.019606408285782 19.97645867923666 14.37402442432116 1.0 1.0 1.0
v 0.1516325299783557 28.57979407979363 17.12985577176454 1.0 1.0 1.0
v 0.031667439686222626 22.86954440170457 15.713671342146002 1.0 1.0 1.0
v 0.031667439686222626 22.86954440170457 15.713671342146002 0.55 0.55 0.55
v 0.1516325299783557 28.57979407979363 17.12985577176454 0.55 0.55 0.55
v 3.725722483621488 19.857046560629342 14.417961576987757 0.55 0.55 0.55
v 2.6638282534303874 14.880488652215504 13.423673401953883 0.55 0.55 0.55
v 2.6638282534303874 14.880488652215504 13.423673401953883 0.55 0.55 0.55
v 3.725722483621488 19.857046560629342 14.417961576987757 0.55 0.55 0.55
v 7.655765945346704 19.99678622542704 12.83342256648088 0.55 0.55 0.55
v 6.922881177992811 14.996041871397036 11.8144125437755 0.55 0.55 0.55
v 6.922881177992811 14.996041871397036 11.8144125437755 0.0 0.0 1.0
v 7.655765945346704 19.99678622542704 12.83342256648088 0.0 0.0 1.0
v 10.422948398730984 16.987689080918003 9.649016716917322 0.0 0.0 1.0
v 12.631466405419168 14.970723492843991 5.303826880670378 0.0 0.0 1.0
v 10.422948398730984 16.987689080918003 9.649016716917322 0.0 0.0 1.0
v 11.338069213447525 22.73368006909343 10.787399937006029 0.0 0.0 1.0
v 13.292220438391354 21.076678433554697 7.36736653148715 0.0 0.0 1.0
v 12.631466405419168 14.970723492843991 5.303826880670378 0.0 0.0 1.0
v 7.655765945346704 19.99678622542704 12.83342256648088 1.0 1.0 1.0
v 11.338069213447525 22.73368006909343 10.787399937006029 1.0 1.0 1.0
v 10.422948398730984 16.987689080918003 9.649016716917322 1.0 1.0 1.0
v 7.655765945346704 19.99678622542704 12.83342256648088 1.0 1.0 1.0
v 12.441044694326344 28.489066210141644 11.700566104579972 1.0 1.0 1.0
v 11.338069213447525 22.73368006909343 10.787399937006029 1.0 1.0 1.0
v 11.338069213447525 22.73368006909343 10.787399937006029 0.55 0.55 0.55
v 12.441044694326344 28.489066210141644 11.700566104579972 0.55 0.55 0.55
v 14.79739552489131 27.382434261578616 7.879466039286553 0.55 0.55 0.55
v 13.292220438391354 21.076678433554697 7.36736653148715 0.55 0.55 0.55
v 13.292220438391354 21.076678433554697 7.36736653148715 0.55 0.55 0.55
v 14.79739552489131 27.382434261578616 7.879466039286553 0.55 0.55 0.55
v 14.246148150775847 19.831248856032932 4.276144396766603 0.55 0.55 0.55
v 12.631466405419168 14.970723492843991 5.303826880670378 0.55 0.55 0.55
v 12.631466405419168 14.970723492843991 5.303826880670378 0.55 0.55 0.55
v 14.246148150775847 19.831248856032932 4.276144396766603 0.55 0.55 0.55
v 14.952401231603105 19.949945593255812 -0.20564957197352884 0.55 0.55 0.55
v 13.69406535561999 14.976646257862377 0.4541603169880354 0.55 0.55 0.55
v 13.69406535561999 14.976646257862377 0.4541603169880354 0.55 0.55 0.55
v 14.952401231603105 19.949945593255812 -0.20564957197352884 0.55 0.55 0.55
v 14.133889685117968 19.99821727733266 -4.829873358903033 0.55 0.55 0.55
v 13.00012166411262 15.000196743846418 -4.283719601590484 0.55 0.55 0.55
v 13.00012166411262 15.000196743846418 -4.283719601590484 0.55 0.55 0.55
v 14.133889685117968 19.99821727733266 -4.829873358903033 0.55 0.55 0.55
v 11.878664130201695 19.994418296640607 -9.054400160078249 0.55 0.55 0.55
v 10.708764182496852 14.996045720003842 -8.51966699290465 0.55 0.55 0.55
v 10.708764182496852 14.996045720003842 -8.51966699290465 0.55 0.55 0.55
v 11.878664130201695 19.994418296640607 -9.054400160078249 0.55 0.55 0.55
v 8.98610572302642 16.52303829269179 -10.817435859977167 0.55 0.55 0.55
v 8.37520158069395 10.6581713992213 -9.431163530427332 0.55 0.55 0.55
v 8.98610572302642 16.52303829269179 -10.817435859977167 0.55 0.55 0.55
v 9.616949302916868 22.38951026666039 -12.18786092727798 0.55 0.55 0.55
v 5.70691596053012 24.997668773388494 -15.167655710044444 0.55 0.55 0.55
v 5.197602388538025 19.998390569772642 -14.022385360823156 0.55 0.55 0.55
v 5.197602388538025 19.998390569772642 -14.022385360823156 0.55 0.55 0.55
v 5.70691596053012 24.997668773388494 -15.167655710044444 0.55 0.55 0.55
v 1.1073190546413052 24.957114182124844 -16.132750176631554 0.55 0.55 0.55
v 0.5850878491081967 19.957469929289122 -14.925843669998018 0.55 0.55 0.55
v 0.5850878491081967 19.957469929289122 -14.925843669998018 0.55 0.55 0.55
v 1.1073190546413052 24.957114182124844 -16.132750176631554 0.55 0.55 0.55
v -3.4334047847118714 24.8327061572847 -15.817800852149071 0.55 0.55 0.55
v -3.9390021252300604 19.8473512767818 -14.359184926911814 0.55 0.55 0.55
v -3.9390021252300604 19.8473512767818 -14.359184926911814 0.55 0.55 0.55
v -3.4334047847118714 24.8327061572847 -15.817800852149071 0.55 0.55 0.55
v -7.5087127065729815 26.661585754858947 -14.792210884011576 0.55 0.55 0.55
v -7.077856371949992 19.99994737050362 -13.143213450634113 0.55 0.55 0.55
v -7.077856371949992 19.99994737050362 -13.143213450634113 0.55 0.55 0.55
v -7.5087127065729815 26.661585754858947 -14.792210884011576 0.55 0.55 0.55
v -11.325801733237736 27.90027766970392 -12.559102148059328 0.55 0.55 0.55
v -10.370339427274768 21.85051455139026 -11.396091935451855 0.55 0.55 0.55
v -10.370339427274768 21.85051455139026 -11.396091935451855 0.55 0.55 0.55
v -11.325801733237736 27.90027766970392 -12.559102148059328 0.55 0.55 0.55
v -13.695336959868555 24.99763486293506 -8.682610996576914 0.55 0.55 0.55
v -12.66707477565765 19.995523598632232 -7.966314376885327 0.55 0.55 0.55
v -12.66707477565765 19.995523598632232 -7.966314376885327 0.55 0.55 0.55
v -13.695336959868555 24.99763486293506 -8.682610996576914 0.55 0.55 0.55
v -15.454143945299068 24.915261532909284 -4.7006066270633315 0.55 0.55 0.55
v -14.328162837478652 19.89175893446908 -4.077219075373234 0.55 0.55 0.55
v -14.328162837478652 19.89175893446908 -4.077219075373234 0.55 0.55 0.55
v -15.454143945299068 24.915261532909284 -4.7006066270633315 0.55 0.55 0.55
v -17.10723840852458 28.637120340362575 -0.5283879944438767 0.55 0.55 0.55
v -15.70086964315184 22.95545754614174 -0.3857670930820074 0.55 0.55 0.55
v -15.70086964315184 22.95545754614174 -0.3857670930820074 0.55 0.55 0.55
v -17.10723840852458 28.637120340362575 -0.5283879944438767 0.55 0.55 0.55
v -15.726851352437881 24.98467222629806 3.852355918810166 0.55 0.55 0.55
v -14.478789055776932 19.981271401628398 3.6783685653182885 0.55 0.55 0.55
v -14.478789055776932 19.981271401628398 3.6783685653182885 0.55 0.55 0.55
v -15.726851352437881 24.98467222629806 3.852355918810166 0.55 0.55 0.55
v -14.561080016455175 26.97690062585397 8.107546645121783 0.55 0.55 0.55
v -13.13205182168072 20.465865634535394 7.344643028898876 0.55 0.55 0.55
v -13.13205182168072 20.465865634535394 7.344643028898876 0.55 0.55 0.55
v -14.561080016455175 26.97690062585397 8.107546645121783 0.55 0.55 0.55
v -11.606222405033725 24.99925647526374 11.349167412882585 0.55 0.55 0.55
v -10.722226070371015 19.999117273071192 10.465366830545006 0.55 0.55 0.55
v -10.722226070371015 19.999117273071192 10.465366830545006 0.0 0.0 0.0
v -11.606222405033725 24.99925647526374 11.349167412882585 0.0 0.0 0.0
v -8.23649589655046 25.480760376813436 14.070083546680188 0.0 0.0 0.0
v -11.606222405033725 24.99925647526374 11.349167412882585 0.0 0.0 0.0
v -12.493327743582533 29.999485205376924 12.22921476418849 0.0 0.0 0.0
v -8.23649589655046 25.480760376813436 14.070083546680188 0.0 0.0 0.0
v -14.561080016455175 26.97690062585397 8.107546645121783 0.55 0.55 0.55
v -16.01365299146551 33.48784675006343 8.826354196927271 0.55 0.55 0.55
v -12.493327743582533 29.999485205376924 12.22921476418849 0.55 0.55 0.55
v -11.606222405033725 24.99925647526374 11.349167412882585 0.55 0.55 0.55
v -15.726851352437881 24.98467222629806 3.852355918810166 0.55 0.55 0.55
v -16.964697061132853 29.989298860810635 4.061073463275968 0.55 0.55 0.55
v -16.01365299146551 33.48784675006343 8.826354196927271 0.55 0.55 0.55
v -14.561080016455175 26.97690062585397 8.107546645121783 0.55 0.55 0.55
v -17.10723840852458 28.637120340362575 -0.5283879944438767 0.55 0.55 0.55
v -18.515485622565905 34.31874101683926 -0.6518297802673974 0.55 0.55 0.55
v -16.964697061132853 29.989298860810635 4.061073463275968 0.55 0.55 0.55
v -15.726851352437881 24.98467222629806 3.852355918810166 0.55 0.55 0.55
v -15.454143945299068 24.915261532909284 -4.7006066270633315 0.55 0.55 0.55
v -16.601407170986814 29.94371501909704 -5.240334760306638 0.55 0.55 0.55
v -18.515485622565905 34.31874101683926 -0.6518297802673974 0.55 0.55 0.55
v -17.10723840852458 28.637120340362575 -0.5283879944438767 0.55 0.55 0.55
v -13.695336959868555 24.99763486293506 -8.682610996576914 0.55 0.55 0.55
v -14.710566152443521 29.99888269836285 -9.422834921201654 0.55 0.55 0.55
v -16.601407170986814 29.94371501909704 -5.240334760306638 0.55 0.55 0.55
v -15.454143945299068 24.915261532909284 -4.7006066270633315 0.55 0.55 0.55
v -11.325801733237736 27.90027766970392 -12.559102148059328 0.55 0.55 0.55
v -12.221844901909131 33.94996137369888 -13.77085087372436 0.55 0.55 0.55
v -14.710566152443521 29.99888269836285 -9.422834921201654 0.55 0.55 0.55
v -13.695336959868555 24.99763486293506 -8.682610996576914 0.55 0.55 0.55
v -7.5087127065729815 26.661585754858947 -14.792210884011576 0.55 0.55 0.55
v -8.044665008647497 33.32892997877434 -16.38664302321033 0.55 0.55 0.55
v -12.221844901909131 33.94996137369888 -13.77085087372436 0.55 0.55 0.55
v -11.325801733237736 27.90027766970392 -12.559102148059328 0.55 0.55 0.55
v -3.4334047847118714 24.8327061572847 -15.817800852149071 0.55 0.55 0.55
v -3.271716953789636 29.874762631617124 -17.166549902276522 0.55 0.55 0.55
v -8.044665008647497 33.32892997877434 -16.38664302321033 0.55 0.55 0.55
v -7.5087127065729815 26.661585754858947 -14.792210884011576 0.55 0.55 0.55
v 1.1073190546413052 24.957114182124844 -16.132750176631554 0.55 0.55 0.55
v 1.4594692361526105 29.96824914199194 -17.353849933524028 0.55 0.55 0.55
v -3.271716953789636 29.874762631617124 -17.166549902276522 0.55 0.55 0.55
v -3.4334047847118714 24.8327061572847 -15.817800852149071 0.55 0.55 0.55
v 5.70691596053012 24.997668773388494 -15.167655710044444 0.55 0.55 0.55
v 6.172961520304634 29.998073272730725 -16.326344095395843 0.55 0.55 0.55
v 1.4594692361526105 29.96824914199194 -17.353849933524028 0.55 0.55 0.55
v 1.1073190546413052 24.957114182124844 -16.132750176631554 0.55 0.55 0.55
v 9.616949302916868 22.38951026666039 -12.18786092727798 0.55 0.55 0.55
v 10.255717771026506 28.25660781203268 -13.55198352850365 0.55 0.55 0.55
v 6.172961520304634 29.998073272730725 -16.326344095395843 0.55 0.55 0.55
v 5.70691596053012 24.997668773388494 -15.167655710044444 0.55 0.55 0.55
v 11.878664130201695 19.994418296640607 -9.054400160078249 0.55 0.55 0.55
v 13.045498434589458 24.993102071037896 -9.59299086371281 0.55 0.55 0.55
v 9.616949302916868 22.38951026666039 -12.18786092727798 0.55 0.55 0.55
v 8.98610572302642 16.52303829269179 -10.817435859977167 0.55 0.55 0.55
v 14.133889685117968 19.99821727733266 -4.829873358903033 0.55 0.55 0.55
v 15.278431141460068 24.997414390417866 -5.34152027347389 0.55 0.55 0.55
v 13.045498434589458 24.993102071037896 -9.59299086371281 0.55 0.55 0.55
v 11.878664130201695 19.994418296640607 -9.054400160078249 0.55 0.55 0.55
v 14.952401231603105 19.949945593255812 -0.20564957197352884 0.55 0.55 0.55
v 16.166672233341178 24.94981438928283 -0.7331090059580834 0.55 0.55 0.55
v 15.278431141460068 24.997414390417866 -5.34152027347389 0.55 0.55 0.55
v 14.133889685117968 19.99821727733266 -4.829873358903033 0.55 0.55 0.55
v 14.246148150775847 19.831248856032932 4.276144396766603 0.55 0.55 0.55
v 15.71322500226532 24.822068307362457 3.7750931588434904 0.55 0.55 0.55
v 16.166672233341178 24.94981438928283 -0.7331090059580834 0.55 0.55 0.55
v 14.952401231603105 19.949945593255812 -0.20564957197352884 0.55 0.55 0.55
v 14.79739552489131 27.382434261578616 7.879466039286553 1.0 1.0 1.0
v 15.71322500226532 24.822068307362457 3.7750931588434904 1.0 1.0 1.0
v 14.246148150775847 19.831248856032932 4.276144396766603 1.0 1.0 1.0
v 14.79739552489131 27.382434261578616 7.879466039286553 1.0 1.0 1.0
v 17.075684196825975 29.868955827096965 3.630360421824 1.0 1.0 1.0
v 15.71322500226532 24.822068307362457 3.7750931588434904 1.0 1.0 1.0
v 15.71322500226532 24.822068307362457 3.7750931588434904 0.55 0.55 0.55
v 17.075684196825975 29.868955827096965 3.630360421824 0.55 0.55 0.55
v 17.393715495450255 29.962495756790773 -1.0785736665789916 0.55 0.55 0.55
v 16.166672233341178 24.94981438928283 -0.7331090059580834 0.55 0.55 0.55
v 16.166672233341178 24.94981438928283 -0.7331090059580834 0.55 0.55 0.55
v 17.393715495450255 29.962495756790773 -1.0785736665789916 0.55 0.55 0.55
v 16.43859254424882 29.99790837126535 -5.802786642079445 0.55 0.55 0.55
v 15.278431141460068 24.997414390417866 -5.34152027347389 0.55 0.55 0.55
v 15.278431141460068 24.997414390417866 -5.34152027347389 0.55 0.55 0.55
v 16.43859254424882 29.99790837126535 -5.802786642079445 0.55 0.55 0.55
v 14.203354828905074 29.992650383132453 -10.142860220973391 0.55 0.55 0.55
v 13.045498434589458 24.993102071037896 -9.59299086371281 0.55 0.55 0.55
v 13.045498434589458 24.993102071037896 -9.59299086371281 0.55 0.55 0.55
v 14.203354828905074 29.992650383132453 -10.142860220973391 0.55 0.55 0.55
v 10.255717771026506 28.25660781203268 -13.55198352850365 0.55 0.55 0.55
v 9.616949302916868 22.38951026666039 -12.18786092727798 0.55 0.55 0.55
v 10.255717771026506 28.25660781203268 -13.55198352850365 0.55 0.55 0.55
v 11.674949805657274 39.999795679732756 -16.16683691639532 0.55 0.55 0.55
v 7.021732296755441 40.000197590467835 -18.669337837868483 0.55 0.55 0.55
v 6.172961520304634 29.998073272730725 -16.326344095395843 0.55 0.55 0.55
v 6.172961520304634 29.998073272730725 -16.326344095395843 0.55 0.55 0.55
v 7.021732296755441 40.000197590467835 -18.669337837868483 0.55 0.55 0.55
v 1.7578413424026875 40.00308841409783 -19.822802627565814 0.55 0.55 0.55
v 1.4594692361526105 29.96824914199194 -17.353849933524028 0.55 0.55 0.55
v 1.4594692361526105 29.96824914199194 -17.353849933524028 0.55 0.55 0.55
v 1.7578413424026875 40.00308841409783 -19.822802627565814 0.55 0.55 0.55
v -3.6731758136037183 40.01448235062031 -19.616787589011324 0.55 0.55 0.55
v -3.271716953789636 29.874762631617124 -17.166549902276522 0.55 0.55 0.55
v -3.271716953789636 29.874762631617124 -17.166549902276522 0.55 0.55 0.55
v -3.6731758136037183 40.01448235062031 -19.616787589011324 0.55 0.55 0.55
v -8.694747019439315 39.999971703747164 -17.921114691407105 0.55 0.55 0.55
v -8.044665008647497 33.32892997877434 -16.38664302321033 0.55 0.55 0.55
v -8.044665008647497 33.32892997877434 -16.38664302321033 0.55 0.55 0.55
v -8.694747019439315 39.999971703747164 -17.921114691407105 0.55 0.55 0.55
v -13.170526959089894 39.99993844013615 -14.939494401492034 0.55 0.55 0.55
v -12.221844901909131 33.94996137369888 -13.77085087372436 0.55 0.55 0.55
v -12.221844901909131 33.94996137369888 -13.77085087372436 0.55 0.55 0.55
v -13.170526959089894 39.99993844013615 -14.939494401492034 0.55 0.55 0.55
v -16.720759302398427 40.0000046422408 -10.940471326459424 0.55 0.55 0.55
v -14.710566152443521 29.99888269836285 -9.422834921201654 0.55 0.55 0.55
v -14.710566152443521 29.99888269836285 -9.422834921201654 0.55 0.55 0.55
v -16.720759302398427 40.0000046422408 -10.940471326459424 0.55 0.55 0.55
v -18.988698561936204 40.009486542302696 -5.958301455551252 0.55 0.55 0.55
v -16.601407170986814 29.94371501909704 -5.240334760306638 0.55 0.55 0.55
v -16.601407170986814 29.94371501909704 -5.240334760306638 0.55 0.55 0.55
v -18.988698561936204 40.009486542302696 -5.958301455551252 0.55 0.55 0.55
v -19.92785137143273 40.00000516373531 -0.7325504037188553 0.55 0.55 0.55
v -18.515485622565905 34.31874101683926 -0.6518297802673974 0.55 0.55 0.55
v -18.515485622565905 34.31874101683926 -0.6518297802673974 0.55 0.55 0.55
v -19.92785137143273 40.00000516373531 -0.7325504037188553 0.55 0.55 0.55
v -19.39078607014656 40.00194141633981 4.644930700018913 0.55 0.55 0.55
v -16.964697061132853 29.989298860810635 4.061073463275968 0.55 0.55 0.55
v -16.964697061132853 29.989298860810635 4.061073463275968 0.55 0.55 0.55
v -19.39078607014656 40.00194141633981 4.644930700018913 0.55 0.55 0.55
v -17.416848376261996 39.99850809083767 9.637390442554306 0.55 0.55 0.55
v -16.01365299146551 33.48784675006343 8.826354196927271 0.55 0.55 0.55
v -16.01365299146551 33.48784675006343 8.826354196927271 0.55 0.55 0.55
v -17.416848376261996 39.99850809083767 9.637390442554306 0.55 0.55 0.55
v -14.271752164729048 40.0001121597126 13.984241345525785 0.55 0.55 0.55
v -12.493327743582533 29.999485205376924 12.22921476418849 0.55 0.55 0.55
v -12.493327743582533 29.999485205376924 12.22921476418849 0.55 0.55 0.55
v -14.271752164729048 40.0001121597126 13.984241345525785 0.55 0.55 0.55
v -9.977883966976464 39.99999596723209 17.235270532759294 0.55 0.55 0.55
v -8.23649589655046 25.480760376813436 14.070083546680188 0.55 0.55 0.55
v -8.23649589655046 25.480760376813436 14.070083546680188 0.55 0.55 0.55
v -9.977883966976464 39.99999596723209 17.235270532759294 0.55 0.55 0.55
v -4.1987061400658225 24.981196165829246 15.620883416940465 0.55 0.55 0.55
v -4.019606408285782 19.97645867923666 14.37402442432116 0.55 0.55 0.55
v -4.019606408285782 19.97645867923666 14.37402442432116 0.0 0.0 0.0
v -4.1987061400658225 24.981196165829246 15.620883416940465 0.0 0.0 0.0
v 0.1516325299783557 28.57979407979363 17.12985577176454 0.0 0.0 0.0
v -4.1987061400658225 24.981196165829246 15.620883416940465 0.0 0.0 0.0
v -4.4178677991927024 29.98722746833001 16.855926138375835 0.0 0.0 0.0
v 0.1516325299783557 28.57979407979363 17.12985577176454 0.0 0.0 0.0
v -9.977883966976464 39.99999596723209 17.235270532759294 1.0 1.0 1.0
v -4.4178677991927024 29.98722746833001 16.855926138375835 1.0 1.0 1.0
v -4.1987061400658225 24.981196165829246 15.620883416940465 1.0 1.0 1.0
v -9.977883966976464 39.99999596723209 17.235270532759294 1.0 1.0 1.0
v -5.0364668342004535 40.00263362159558 19.272194853511596 1.0 1.0 1.0
v -4.4178677991927024 29.98722746833001 16.855926138375835 1.0 1.0 1.0
v -4.4178677991927024 29.98722746833001 16.855926138375835 0.55 0.55 0.55
v -5.0364668342004535 40.00263362159558 19.272194853511596 0.55 0.55 0.55
v 0.3315159878620046 40.00000149449967 19.967195286114553 0.55 0.55 0.55
v 0.1516325299783557 28.57979407979363 17.12985577176454 0.55 0.55 0.55
v 0.1516325299783557 28.57979407979363 17.12985577176454 0.55 0.55 0.55
v 0.3315159878620046 40.00000149449967 19.967195286114553 0.55 0.55 0.55
v 4.350616645380131 24.888300338225868 15.55329353538373 0.55 0.55 0.55
v 3.725722483621488 19.857046560629342 14.417961576987757 0.55 0.55 0.55
v 3.725722483621488 19.857046560629342 14.417961576987757 0.55 0.55 0.55
v 4.350616645380131 24.888300338225868 15.55329353538373 0.55 0.55 0.55
v 8.367414016711741 24.998251212166558 13.863987131678325 0.55 0.55 0.55
v 7.655765945346704 19.99678622542704 12.83342256648088 0.55 0.55 0.55
v 7.655765945346704 19.99678622542704 12.83342256648088 0.0 0.0 0.0
v 8.367414016711741 24.998251212166558 13.863987131678325 0.0 0.0 0.0
v 12.441044694326344 28.489066210141644 11.700566104579972 0.0 0.0 0.0
v 8.367414016711741 24.998251212166558 13.863987131678325 0.0 0.0 0.0
v 9.096284925052023 29.999128410935096 14.8851800785372 0.0 0.0 0.0
v 12.441044694326344 28.489066210141644 11.700566104579972 0.0 0.0 0.0
v 4.350616645380131 24.888300338225868 15.55329353538373 0.55 0.55 0.55
v 4.8849546169479465 29.92546282790909 16.70898633443988 0.55 0.55 0.55
v 9.096284925052023 29.999128410935096 14.8851800785372 0.55 0.55 0.55
v 8.367414016711741 24.998251212166558 13.863987131678325 0.55 0.55 0.55
v 0.3315159878620046 40.00000149449967 19.967195286114553 1.0 1.0 1.0
v 4.8849546169479465 29.92546282790909 16.70898633443988 1.0 1.0 1.0
v 4.350616645380131 24.888300338225868 15.55329353538373 1.0 1.0 1.0
v 0.3315159878620046 40.00000149449967 19.967195286114553 1.0 1.0 1.0
v 5.563434075444372 40.01218984488018 19.10480231223339 1.0 1.0 1.0
v 4.8849546169479465 29.92546282790909 16.70898633443988 1.0 1.0 1.0
v 4.8849546169479465 29.92546282790909 16.70898633443988 0.55 0.55 0.55
v 5.563434075444372 40.01218984488018 19.10480231223339 0.55 0.55 0.55
v 10.578519954650552 39.999992133547536 16.91422281693236 0.55 0.55 0.55
v 9.096284925052023 29.999128410935096 14.8851800785372 0.55 0.55 0.55
v 9.096284925052023 29.999128410935096 14.8851800785372 0.55 0.55 0.55
v 10.578519954650552 39.999992133547536 16.91422281693236 0.55 0.55 0.55
v 14.6824422049737 39.99985884668689 13.483714749200185 0.55 0.55 0.55
v 12.441044694326344 28.489066210141644 11.700566104579972 0.55 0.55 0.55
v 12.441044694326344 28.489066210141644 11.700566104579972 0.55 0.55 0.55
v 14.6824422049737 39.99985884668689 13.483714749200185 0.55 0.55 0.55
v 17.730541024662898 40.00002827946335 9.051315125553087 0.55 0.55 0.55
v 14.79739552489131 27.382434261578616 7.879466039286553 0.55 0.55 0.55
v 14.79739552489131 27.382434261578616 7.879466039286553 0.55 0.55 0.55
v 17.730541024662898 40.00002827946335 9.051315125553087 0.55 0.55 0.55
v 19.55588687653449 40.015681676686924 4.078768165310676 0.55 0.55 0.55
v 17.075684196825975 29.868955827096965 3.630360421824 0.55 0.55 0.55
v 17.075684196825975 29.868955827096965 3.630360421824 0.55 0.55 0.55
v 19.55588687653449 40.015681676686924 4.078768165310676 0.55 0.55 0.55
v 19.859246125961437 40.004162695773644 -1.3518305963669281 0.55 0.55 0.55
v 17.393715495450255 29.962495756790773 -1.0785736665789916 0.55 0.55 0.55
v 17.393715495450255 29.962495756790773 -1.0785736665789916 0.55 0.55 0.55
v 19.859246125961437 40.004162695773644 -1.3518305963669281 0.55 0.55 0.55
v 18.78684355836741 40.00025312665201 -6.634415435176525 0.55 0.55 0.55
v 16.43859254424882 29.99790837126535 -5.802786642079445 0.55 0.55 0.55
v 16.43859254424882 29.99790837126535 -5.802786642079445 0.55 0.55 0.55
v 18.78684355836741 40.00025312665201 -6.634415435176525 0.55 0.55 0.55
v 16.410535205896466 39.9999105312369 -11.378047627430004 0.55 0.55 0.55
v 14.203354828905074 29.992650383132453 -10.142860220973391 0.55 0.55 0.55
v 14.203354828905074 29.992650383132453 -10.142860220973391 0.55 0.55 0.55
v 16.410535205896466 39.9999105312369 -11.378047627430004 0.55 0.55 0.55
v 11.674949805657274 39.999795679732756 -16.16683691639532 0.55 0.55 0.55
v 10.255717771026506 28.25660781203268 -13.55198352850365 0.55 0.55 0.55
f 1 2 3 4
f 5 6 7 8
f 9 10 11 12
f 13 14 15 16
f 17 18 19 20
f 21 22 23 24
f 25 26 27 28
f 29 30 31 32
f 33 34 35 36
f 37 38 39 40
f 41 42 43 44
f 45 46 47 48
f 49 50 51 52
f 53 54 55 56
f 57 58 59 60
f 61 62 63 64
f 65 66 67 68
f 69 70 71 72
f 73 74 75 76
f 77 78 79 80
f 81 82 83 84
f 85 86 87 88
f 89 90 91 92
f 93 94 95 96
f 97 98 99 100
f 101 102 103 104
f 105 106 107 108
f 109 110 111 112
f 113 114 115 116
f 117 118 119
f 120 121 122
f 123 124 125 126
f 127 128 129 130
f 131 132 133 134
f 135 136 137 138
f 139 140 141 142
f 143 144 145 146
f 147 148 149 150 151
f 152 153 154 155 156
f 157 158 159 160 161
f 162 163 164 165
f 166 167 168 169 170
f 171 172 173 174
f 175 176 177 178
f 179 180 181
f 182 183 184
f 185 186 187 188
f 189 190 191 192
f 193 194 195 196 197
f 198 199 200 201
f 202 203 204 205
f 206 207 208 209
f 210 211 212 213
f 214 215 216 217
f 218 219 220 221
f 222 223 224 225
f 226 227 228 229
f 230 231 232 233
f 234 235 236
f 237 238 239
f 240 241 242
f 243 244 245 246
f 247 248 249 250
f 251 252 253 254
f 255 256 257 258
f 259 260 261
f 262 263 264
f 265 266 267 268
f 269 270 271 272
f 273 274 275 276
f 277 278 279 280
f 281 282 283 284
f 285 286 287 288
f 289 290 291 292
f 293 294 295 296
f 297 298 299 300
f 301 302 303 304
f 305 306 307 308
f 309 310 311 312
f 313 314 315 316
f 317 318 319 320
f 321 322 323 324
f 325 326 327 328
f 329 330 331 332
f 333 334 335
f 336 337 338
f 339 340 341 342
f 343 344 345 346
f 347 348 349 350
f 351 352 353 354
f 355 356 357 358
f 359 360 361 362
f 363 364 365 366
f 367 368 369 370
f 371 372 373 374
f 375 376 377 378
f 379 380 381 382
f 383 384 385 386
f 387 388 389 390
f 391 392 393 394
f 395 396 397 398
f 399 400 401
f 402 403 404
f 405 406 407 408
f 409 410 411 412
f 413 414 415 416
f 417 418 419 420
f 421 422 423 424
f 425 426 427 428
f 429 430 431 432
f 433 434 435 436
f 437 438 439 440
f 441 442 443 444
f 445 446 447 448
f 449 450 451 452
f 453 454 455 456
f 457 458 459 460
f 461 462 463 464
f 465 466 467 468
f 469 470 471 472
f 473 474 475
f 476 477 478
f 479 480 481
f 482 483 484
f 485 486 487 488
f 489 490 491 492
f 493 494 495 496
f 497 498 499
f 500 501 502
f 503 504 505 506
f 507 508 509
f 510 511 512
f 513 514 515 516
f 517 518 519 520
f 521 522 523 524
f 525 526 527 528
f 529 530 531 532
f 533 534 535 536
f 537 538 539 540
f 541 542 543 544
