v 19.558606738248375 -0.0002205938852685334 4.087388418590151 0.0 0.15 1.0
v 18.91451699154912 2.6678165490645807 3.9273802150695625 0.06149709822937568 0.15 0.9385029017706243
v 18.27065969443258 5.335772189442981 3.7649578588153316 0.12707845139893675 0.15 0.8729215486010633
v 17.627882906152216 8.003675247373911 3.5973761550229506 0.19385553110215048 0.15 0.8061444688978495
v 16.984709633149077 10.671472950470912 3.429624356276341 0.2610641917510457 0.15 0.7389358082489543
v 16.340235404821936 13.339137990812912 3.264782701257738 0.33746218511277204 0.15 0.662537814887228
v 15.69198665545324 16.00604713651994 3.102537272657152 0.39590379041431856 0.15 0.6040962095856814
v 15.041933189764276 18.67257874769557 2.9412957095017793 0.46285852163421737 0.15 0.5371414783657826
v 14.391747218291993 21.33899840403634 2.7787455209242045 0.5299401166361349 0.15 0.47005988336386506
v 13.741655471816232 24.005262467053864 2.6132942043119223 0.5972432360871524 0.15 0.40275676391284765
v 13.091777908971048 26.67135971176575 2.4443510853328583 0.6648931972995825 0.15 0.3351068027004175
v 12.442242674024524 29.337273701692993 2.27125554575046 0.7330280835092727 0.15 0.26697191649072727
v 11.793282892303644 32.002945676570796 2.092388613815387 0.8018934482566763 0.15 0.1981065517433237
v 11.145165486092393 34.668296487826986 1.9058397820827366 0.8711017225153205 0.15 0.12889827748467952
v 10.497520606977943 37.33349602169426 1.7155318476807975 0.9352249227221885 0.15 0.06477507727781151
v 9.847203853664876 39.999743085054455 1.5509462347865188 1.0 0.15 0.0
l 1 2
l 2 3
l 3 4
l 4 5
l 5 6
l 6 7
l 7 8
l 8 9
l 9 10
l 10 11
l 11 12
l 12 13
l 13 14
l 14 15
l 15 16
v 18.7966877722563 -4.737862673629389e-05 6.601961880929455 0.0 0.15 1.0
v 18.173376801532555 2.666427422909631 6.3711941897789375 0.06609568484231206 0.15 0.9339043151576879
v 17.545327696915084 5.333126823238037 6.15593294187415 0.13426840022990838 0.15 0.8657315997700916
v 16.914319009950088 7.9999045057490985 5.950425072442322 0.20415369515912155 0.15 0.7958463048408785
v 16.27921875629263 10.666717386589283 5.758423937391569 0.2732725665044353 0.15 0.7267274334955647
v 15.639071655332204 13.333480652677368 5.583136127123539 0.3434578062049812 0.15 0.6565421937950189
v 14.994563994353115 16.0001208387405 5.422346965934884 0.3886778489971485 0.15 0.6113221510028515
v 14.348450568440969 18.66669678255348 5.266909471220762 0.4594554452082156 0.15 0.5405445547917844
v 13.703038083164724 21.333305037715895 5.109121422416249 0.5288627837966451 0.15 0.4711372162033549
v 13.058803384498214 23.99996251220015 4.947381189091993 0.5973237319831983 0.15 0.4026762680168017
v 12.415447574164183 26.666651009217162 4.782674404050194 0.6650575466686437 0.15 0.3349424533313563
v 11.772838638724092 29.33336189922993 4.615428484616795 0.7320569319394521 0.15 0.2679430680605479
v 11.131610051820653 32.00010883326628 4.443528008073228 0.7983234468560627 0.15 0.2016765531439373
v 10.493785404463393 34.666913508539615 4.2602685003392455 0.8642463943686315 0.15 0.1357536056313685
v 9.861695412430677 37.33370687654583 4.058010556390922 0.9307863617551879 0.15 0.06921363824481208
v 9.234931935543234 40.00009511835186 3.8348984649410904 1.0 0.15 0.0
l 17 18
l 18 19
l 19 20
l 20 21
l 21 22
l 22 23
l 23 24
l 24 25
l 25 26
l 26 27
l 27 28
l 28 29
l 29 30
l 30 31
l 31 32
v 17.752323405821663 0.00010174617092297289 9.014301310175897 0.0 0.15 1.0
v 17.162171102694572 2.6704624361009515 8.704694132752499 0.039476179286905375 0.15 0.9605238207130946
v 16.55639541715692 5.340856499332513 8.426553079180893 0.10912376848508999 0.15 0.89087623151491
v 15.938905321748734 8.010940571012307 8.17223929128488 0.21232352187825596 0.15 0.787676478121744
v 15.306825572192118 10.680167104164612 7.946913330634555 0.25056021973352055 0.15 0.7494397802664794
v 14.656326600207281 13.34770373993235 7.75767099278959 0.33968865063025977 0.15 0.6603113493697402
v 13.989886047234592 16.01339833570336 7.599449173266123 0.3962994170824515 0.15 0.6037005829175486
v 13.320172615177613 18.678688440083427 7.44727961893275 0.4655248302612529 0.15 0.5344751697387471
v 12.655313975829937 21.344599258075895 7.284907682752139 0.5278543178379542 0.15 0.4721456821620458
v 11.993129670962723 24.010776927142743 7.116091618324071 0.5903762776281913 0.15 0.40962372237180866
v 11.33100151125206 26.676850505792633 6.945417607906 0.6703464408693238 0.15 0.3296535591306762
v 10.667263474244058 29.34257961158294 6.775621325944334 0.7349426129062406 0.15 0.26505738709375937
v 10.002342076906016 32.00798636476363 6.605384678758792 0.7979361062591557 0.15 0.20206389374084432
v 9.329120114958043 34.66932532868344 6.407103461095032 0.8685261685135185 0.15 0.1314738314864815
v 8.67976068627001 37.33248440567229 6.159924915899911 0.9351290944140778 0.15 0.06487090558592223
v 8.075709072904992 39.9995963853174 5.848816640648238 1.0 0.15 0.0
l 33 34
l 34 35
l 35 36
l 36 37
l 37 38
l 38 39
l 39 40
l 40 41
l 41 42
l 42 43
l 43 44
l 44 45
l 45 46
l 46 47
l 47 48
v 16.46008741848709 -0.00024712105269221707 11.3219776614188 0.0 0.15 1.0
v 15.91553150988428 2.6786841339879524 10.92978550263367 0.05881596486432045 0.15 0.9411840351356795
v 15.338448986756164 5.356767024726039 10.580426320970227 0.12364932377144444 0.15 0.8763506762285556
v 14.737060896781868 8.033499322277597 10.263389555151274 0.19034143405329176 0.15 0.8096585659467083
v 14.105996543113664 10.707601361197428 9.985028032662996 0.25869687696210736 0.15 0.7413031230378926
v 13.429752758717402 13.375667244480365 9.764873996814407 0.3271383507496578 0.15 0.6728616492503422
v 12.701245315311338 16.03472746159604 9.612029395727856 0.4096775101568661 0.15 0.5903224898431338
v 11.977884696853897 18.69512255519524 9.451789353436567 0.4700551926139996 0.15 0.5299448073860005
v 11.275422749282962 21.35937668934228 9.263277160325362 0.5337954229502647 0.15 0.4662045770497353
v 10.577055596535784 24.02419005038565 9.067568796620856 0.5941355160437805 0.15 0.40586448395621955
v 9.876562853820984 26.688455390013754 8.871984210071714 0.6568513644186332 0.15 0.34314863558136677
v 9.168321172216599 29.35114562439196 8.683083532790478 0.7416942116477049 0.15 0.2583057883522951
v 8.439646885746102 32.009125238678806 8.506965541636086 0.8166339397893458 0.15 0.18336606021065416
v 7.692669605730151 34.65813344710959 8.280769269423645 0.8761312476137237 0.15 0.12386875238627626
v 7.047470600077961 37.3235672690749 7.956956568956084 0.9296882644418565 0.15 0.07031173555814352
v 6.491701196117907 39.99741922906979 7.546749502013457 1.0 0.15 0.0
l 49 50
l 50 51
l 51 52
l 52 53
l 53 54
l 54 55
l 55 56
l 56 57
l 57 58
l 58 59
l 59 60
l 60 61
l 61 62
l 62 63
l 63 64
v 14.768368324758134 -0.0028785233861639012 13.362328138698206 0.0 0.15 1.0
v 14.294887538968272 2.693892610723091 12.902514828783495 0.06826569592208251 0.15 0.9317343040779175
v 13.774370541614198 5.389659951701609 12.489923814723864 0.11937797606944246 0.15 0.8806220239305576
v 13.216351357670844 8.083229388343172 12.114081209008932 0.1843300985238482 0.15 0.8156699014761518
v 12.620319380596483 10.773545605297677 11.776716240925326 0.261003623786512 0.15 0.738996376213488
v 11.949073849902176 13.454170138951277 11.526386857751039 0.33760016150088806 0.15 0.6623998384991119
v 11.120265340579694 16.100383609705805 11.422954482031777 0.41357827872802294 0.15 0.5864217212719771
v 10.314093097215983 18.747010516308617 11.242486299579838 0.4617587815795705 0.15 0.5382412184204295
v 9.579946088019486 21.413032678614005 10.993269088695454 0.5382998501523167 0.15 0.46170014984768326
v 8.835823078751654 24.076788259045617 10.748750097080606 0.6102885953549766 0.15 0.3897114046450234
v 8.087995717685796 26.739379252733368 10.502593891664304 0.6708483792226935 0.15 0.32915162077730653
v 7.330984011559852 29.399587796885218 10.25885294902713 0.7600657707338677 0.15 0.23993422926613228
v 6.459336125325715 32.02781577952965 10.073944773474667 0.8265772988880279 0.15 0.1734227011119721
v 5.5870715128024155 34.62445683415862 9.820371104980017 0.8705553223745345 0.15 0.12944467762546552
v 5.018602782199308 37.30406554212468 9.367866830413314 0.9339796925688802 0.15 0.06602030743111975
v 4.542218855700653 39.98976126061209 8.849474098600162 1.0 0.15 0.0
l 65 66
l 66 67
l 67 68
l 68 69
l 69 70
l 70 71
l 71 72
l 72 73
l 73 74
l 74 75
l 75 76
l 76 77
l 77 78
l 78 79
l 79 80
v 12.88516218818593 1.6249321827076337e-05 15.17370180673209 0.0 0.15 1.0
v 12.433663879912409 2.7635228233915825 14.654792434527828 0.04413921979286746 0.15 0.9558607802071325
v 11.953723800165417 5.526606497342792 14.159360669480414 0.150921486928566 0.15 0.849078513071434
v 11.455863716639872 8.289141947989702 13.678811987695624 0.19484152886690786 0.15 0.8051584711330921
v 10.940023216612339 11.050907558029875 13.21326722348272 0.27299518353944763 0.15 0.7270048164605524
v 10.40928407420532 13.811749327830825 12.760246734500303 0.3576178349264225 0.15 0.6423821650735775
l 81 82
l 82 83
l 83 84
l 84 85
l 85 86
v 10.78948113530619 -0.0025520448760098023 16.80218388489663 0.0 0.15 1.0
v 10.432190871913306 2.663985807456374 16.24091045687563 0.05884463806959561 0.15 0.9411553619304044
v 10.054371415720336 5.330034394681025 15.690748139093527 0.12260398532629796 0.15 0.8773960146737021
v 9.667433519889117 7.995776108720913 15.1455463038309 0.1904027968366028 0.15 0.8095972031633972
v 9.276466771855297 10.661359070550276 14.602542716559075 0.261952979173114 0.15 0.738047020826886
v 8.908031868006958 13.327386283982449 14.047370286060515 0.33746125816609096 0.15 0.662538741833909
v 8.60704717965477 15.994278522795137 13.455900930548466 0.4108463606508918 0.15 0.5891536393491081
v 8.221200714159133 18.656550746649106 12.911094481471745 0.47959998967645456 0.15 0.5204000103235454
v 7.631167854566517 21.30503450671206 12.479317750862103 0.5495930190327617 0.15 0.4504069809672383
v 6.952561948070892 23.940755167081875 12.098484866163922 0.6111468250781549 0.15 0.3888531749218451
v 6.25078865193589 26.572474414779236 11.731164021730601 0.6796506652875524 0.15 0.32034933471244764
v 5.593946492186589 29.211334338873357 11.337812566899794 0.7340528069922984 0.15 0.26594719300770164
v 5.069368627793574 31.854492928087712 10.872551643163357 0.8035735716715879 0.15 0.19642642832841206
l 87 88
l 88 89
l 89 90
l 90 91
l 91 92
l 92 93
l 93 94
l 94 95
l 95 96
l 96 97
l 97 98
l 98 99
v 8.392073005993923 -0.011955400800493591 18.06699771469841 0.0 0.15 1.0
v 8.196594573921685 2.669266155575141 17.43557158454267 0.05892141859604355 0.15 0.9410785814039564
v 7.933037259543031 5.351004659337003 16.83144782929841 0.11980599103637618 0.15 0.8801940089636238
v 7.622685845063384 8.031627437692084 16.244829864048825 0.18488661771372747 0.15 0.8151133822862725
v 7.282235694552296 10.71076976759246 15.668051593810546 0.25863685516655543 0.15 0.7413631448334446
v 6.927100004587783 13.388680458750219 15.09397595565938 0.3345468212085436 0.15 0.6654531787914564
v 6.561125704730145 16.065476224146813 14.521695671043522 0.41024881899673216 0.15 0.5897511810032678
v 6.093123686529382 18.735894696196738 14.002640464860173 0.4843076101637243 0.15 0.5156923898362757
v 5.464961539606754 21.388070538953617 13.565575327287846 0.5358497946818589 0.15 0.4641502053181411
v 4.721941810015019 24.00968531271924 13.116785422417738 0.6185728273944072 0.15 0.3814271726055928
v 3.9918614614462715 26.63371490059379 12.662180152859568 0.6914002668744578 0.15 0.30859973312554223
v 3.4431971721068635 29.287704597848833 12.143036707883025 0.7457418068616084 0.15 0.2542581931383916
v 3.168192057763067 31.963216399589665 11.533123638382733 0.808983498634682 0.15 0.191016501365318
v 2.912220153745732 34.64146583544492 10.914107736260267 0.870928486704093 0.15 0.12907151329590705
v 2.6317999882873835 37.31911237971418 10.299612225666412 0.931959922985185 0.15 0.06804007701481496
v 2.4256296397674117 39.99738467163381 9.658947817075799 1.0 0.15 0.0
l 100 101
l 101 102
l 102 103
l 103 104
l 104 105
l 105 106
l 106 107
l 107 108
l 108 109
l 109 110
l 110 111
l 111 112
l 112 113
l 113 114
l 114 115
v 5.88023106656861 -0.03256709182167274 19.00248299963412 0.0 0.15 1.0
v 5.832139483226232 2.670952337050821 18.33628139791776 0.08931289820203926 0.15 0.9106871017979608
v 5.683322561468264 5.376058687871748 17.69105569816747 0.1512746154412089 0.15 0.8487253845587911
v 5.458590065569548 8.079568140103165 17.061080939235755 0.1864454346335951 0.15 0.8135545653664049
v 5.173477642800698 10.7801663721303 16.44305477575234 0.28143632483567693 0.15 0.7185636751643231
v 4.840458582956422 13.477406083585043 15.834438529688288 0.34010928437803456 0.15 0.6598907156219654
v 4.45687022072089 16.170334253808363 15.237454306630184 0.4214866047075112 0.15 0.5785133952924888
v 3.978443844799826 18.852837405923694 14.668321344013053 0.49372870823461323 0.15 0.5062712917653868
v 3.2022842204069173 21.47320088774453 14.203199084548224 0.5873402387147204 0.15 0.4126597612852796
v 2.2836263861061394 24.057909030697402 13.733453167731092 0.6538608375075377 0.15 0.34613916249246235
v 1.2943963271325651 26.5360849491077 13.228397566194417 0.6949767024093422 0.15 0.3050232975906578
v 0.8003708220556035 29.205732800093664 12.622326640518786 0.743861600727497 0.15 0.25613839927250304
v 0.4952098921270059 31.899362256483922 11.986438915436944 0.8193807189310893 0.15 0.18061928106891068
v 0.28405670201244765 34.598414489048444 11.333454171193132 0.878727665889134 0.15 0.12127233411086602
v 0.1447140152132925 37.298414038562974 10.665473638098733 0.9388659270463732 0.15 0.06113407295362683
v 0.10820865446996779 39.99707504924493 9.978886755115017 1.0 0.15 0.0
l 116 117
l 117 118
l 118 119
l 119 120
l 120 121
l 121 122
l 122 123
l 123 124
l 124 125
l 125 126
l 126 127
l 127 128
l 128 129
l 129 130
l 130 131
v 3.479614466599667 3.7867495896431064e-05 19.657278410781263 0.0 0.15 1.0
v 3.3616563360319316 2.5866541275377037 19.022242211047914 0.058936372541698714 0.15 0.9410636274583013
v 3.2205767039363273 5.172725072516143 18.389619603556614 0.12025038534614736 0.15 0.8797496146538526
v 3.0700999047232136 7.758506435125009 17.757994937329933 0.1826741056595993 0.15 0.8173258943404007
v 2.9112054415531645 10.344005325823275 17.127269951083345 0.2495185961960761 0.15 0.7504814038039239
v 2.7442593772143713 12.929204258430087 16.49741297310962 0.31577207008089453 0.15 0.6842279299191054
v 2.5612138119235914 15.513723872143373 15.86931148218316 0.3874075969237284 0.15 0.6125924030762716
v 2.3483914554444767 18.096681216751296 15.24453332137478 0.45762696309785633 0.15 0.5423730369021437
v 2.1281538324797196 20.677872528464288 14.62092700410786 0.5688565970175027 0.15 0.4311434029824973
l 132 133
l 133 134
l 134 135
l 135 136
l 136 137
l 137 138
l 138 139
l 139 140
v 0.8414679624436553 0.0005541359828426809 19.916984102868547 0.0 0.15 1.0
v 0.8230233205721695 2.729219500289364 19.236634401390763 0.05896239811270854 0.15 0.9410376018872915
v 0.7625695802006743 5.458330038339592 18.56031094017959 0.12154674075665334 0.15 0.8784532592433467
v 0.6832187068115446 8.187429828750028 17.885851372310157 0.1917872214717413 0.15 0.8082127785282587
v 0.5939478511589141 10.916476622260571 17.2123820853991 0.26762602588706763 0.15 0.7323739741129324
v 0.49914982094010146 13.64547670936484 16.539468855380203 0.34546365708455873 0.15 0.6545363429154413
v 0.4022378728923171 16.374436953078096 15.866773787965272 0.4253553813593573 0.15 0.5746446186406426
v 0.31025938088374716 19.10338401599106 15.193596113586022 0.5067458756591277 0.15 0.49325412434087235
v 0.28608434847600467 21.83194836988984 14.51383605780975 0.5893026911832469 0.15 0.41069730881675315
v 0.484927402001869 24.545100453739316 13.815963705609581 0.6726810236845945 0.15 0.3273189763154055
l 141 142
l 142 143
l 143 144
l 144 145
l 145 146
l 146 147
l 147 148
l 148 149
l 149 150
v -1.8054898511181268 -0.0018754519596021985 19.824006553440775 0.0 0.15 1.0
v -1.7199506355244811 2.6682688828176246 19.16336172774634 0.0894052545716148 0.15 0.9105947454283851
v -1.6726689977648683 5.33866972897153 18.499674829032756 0.10728233458297433 0.15 0.8927176654170257
v -1.6480939564451609 8.00898746279041 17.834387089039033 0.21534264519644825 0.15 0.7846573548035518
v -1.6418326178203198 10.679080805741748 17.167790487768865 0.2814872810165917 0.15 0.7185127189834083
v -1.6520961070978053 13.348822505451304 16.49991666466592 0.33075917402568356 0.15 0.6692408259743164
v -1.67873503970109 16.018060636815104 15.830641743024367 0.4208739661730745 0.15 0.5791260338269255
v -1.71826207599644 18.686792658243572 15.160133151256998 0.49399496121763875 0.15 0.5060050387823612
v -1.7704591440230353 21.35493054617077 14.488257638520919 0.5696834570162177 0.15 0.4303165429837823
v -1.9342943157086934 24.010432597536564 13.80810079995536 0.6628477317426487 0.15 0.33715226825735134
v -2.0947581760687237 26.66924170616288 13.126826717197524 0.7099460139316357 0.15 0.2900539860683643
v -2.1989340182413715 29.334310662419334 12.448733920532307 0.7613699261053238 0.15 0.23863007389467616
v -2.2668950064898326 32.00114502355623 11.772791969956055 0.8154348246881534 0.15 0.18456517531184657
v -2.2989974705354705 34.66589722981203 11.085921847333037 0.876547470801433 0.15 0.12345252919856697
v -2.294113938836293 37.331233883456434 10.400567931173674 0.9393157174000817 0.15 0.060684282599918316
v -2.2367083256951634 39.998829831817716 9.72658955846093 1.0 0.15 0.0
l 151 152
l 152 153
l 153 154
l 154 155
l 155 156
l 156 157
l 157 158
l 158 159
l 159 160
l 160 161
l 161 162
l 162 163
l 163 164
l 164 165
l 165 166
v -4.38929208449373 0.00010609972877449381 19.467800856171312 0.0 0.15 1.0
v -4.242248445112687 2.564423359360357 18.84570582874112 0.059032836084264025 0.15 0.940967163915736
v -4.124753214547404 5.128132641972167 18.21480544821578 0.11999087518256457 0.15 0.8800091248174354
v -4.021521114946724 7.691412075534322 17.57969016761597 0.1829503919158877 0.15 0.8170496080841123
v -3.9273396785468946 10.254382270348009 16.941909781027334 0.2484435435647315 0.15 0.7515564564352685
v -3.8386657411953418 12.817137405388188 16.302514644050632 0.31541419293579925 0.15 0.6845858070642008
v -3.753957749125261 15.379727255104829 15.661959406285046 0.38608024151507675 0.15 0.6139197584849232
v -3.671569664487413 17.942198704313977 15.020731233600495 0.4573734543953247 0.15 0.5426265456046753
v -3.5904873429652686 20.50459742859167 14.37912585277396 0.5637176944206927 0.15 0.43628230557930725
v -3.370366573117363 23.054118137350496 13.783045514270249 0.6117882917251386 0.15 0.3882117082748614
l 167 168
l 168 169
l 169 170
l 170 171
l 171 172
l 172 173
l 173 174
l 174 175
l 175 176
v -6.916993531739026 -0.000910794643571122 18.699711995651732 0.0 0.15 1.0
v -6.685779252556522 2.6684679972328347 18.07684413640503 0.05914346494271733 0.15 0.9408565350572826
v -6.478347224084667 5.338106135928626 17.446691934828348 0.12021610604638636 0.15 0.8797838939536137
v -6.280884306379963 8.00774934801995 16.813362415455828 0.18629192618759283 0.15 0.8137080738124072
v -6.08979436104565 10.677329702086372 16.17781488274707 0.25945115086806037 0.15 0.7405488491319396
v -5.907014716350564 13.346786215615678 15.539328232465687 0.3350624281241363 0.15 0.6649375718758637
v -5.733839985036633 16.01606162513625 14.89737534572883 0.41303976735561987 0.15 0.5869602326443801
v -5.572473263612 18.685051383299445 14.251165804240902 0.4933119693700023 0.15 0.5066880306299977
v -5.4200538127732845 21.35373742092256 13.601422785411442 0.5749990336651173 0.15 0.4250009663348827
v -5.213659705346832 24.020480521642043 12.967501369023925 0.6496139073402095 0.15 0.3503860926597905
v -5.107564594421537 26.686138924682094 12.302235868650056 0.7218974892495403 0.15 0.27810251075045966
v -5.030372148553436 29.344597141737488 11.599285198484575 0.7666794346426266 0.15 0.23332056535737344
v -4.927196577381341 32.00489401524512 10.906745201458861 0.8265070551833513 0.15 0.17349294481664868
v -4.793486586578271 34.66743915652125 10.22829941412848 0.8826250412235419 0.15 0.1173749587764581
v -4.631767733283584 37.33161079533103 9.562501493264111 0.9333715673323864 0.15 0.06662843266761365
v -4.433026156528185 39.99751568697252 8.913866690079585 1.0 0.15 0.0
l 177 178
l 178 179
l 179 180
l 180 181
l 181 182
l 182 183
l 183 184
l 184 185
l 185 186
l 186 187
l 187 188
l 188 189
l 189 190
l 190 191
l 191 192
v -9.306072132372933 0.0006525868514728189 17.59417848618541 0.0 0.15 1.0
v -8.985540853849114 2.656728206849247 17.016208415213196 0.08971147999646195 0.15 0.910288520003538
v -8.69539028601166 5.31277549373605 16.42200754555496 0.10677202836605734 0.15 0.8932279716339426
v -8.420566699036923 7.968625096672048 15.819669986093023 0.21626516614378566 0.15 0.7837348338562143
v -8.15520418594387 10.624290220016345 15.212327439087261 0.25357583673187445 0.15 0.7464241632681256
v -7.8953820898014895 13.279817765206205 14.602062273025357 0.3518353822141022 0.15 0.6481646177858977
v -7.638810772626025 15.935239822149208 13.99008930489926 0.4164368672242907 0.15 0.5835631327757094
v -7.383191188356177 18.590595708995032 13.377626275898987 0.4966265425953246 0.15 0.5033734574046753
v -7.130179560444252 21.24576725693648 12.763821282027184 0.5745616394064837 0.15 0.42543836059351625
v -6.655735838282828 23.815716876988876 12.292415895282867 0.6510908912500832 0.15 0.34890910874991676
l 193 194
l 194 195
l 195 196
l 196 197
l 197 198
l 198 199
l 199 200
l 200 201
l 201 202
v -11.555179873936156 -0.0033238714256371557 16.26626512281557 0.0 0.15 1.0
v -11.179824035226865 2.6669894119366617 15.714861814761251 0.05927433476865514 0.15 0.9407256652313448
v -10.814263348773137 5.337001621768023 15.155516732582853 0.12049440731307628 0.15 0.8795055926869237
v -10.451611378943044 8.006926322649592 14.593812702258319 0.18823433378725218 0.15 0.8117656662127478
v -10.090812875221996 10.67677861479486 14.030610855738118 0.26000822148552505 0.15 0.739991778514475
v -9.732846891195333 13.346529180723264 13.46511718176799 0.33529429489672885 0.15 0.6647057051032712
v -9.380598923929517 16.01604420245588 12.895006664638988 0.4142301501395012 0.15 0.5857698498604988
v -9.039825848913015 18.685015361032054 12.315653964900182 0.49757413866552547 0.15 0.5024258613344745
v -8.719464504724717 21.352831515799174 11.71992155975809 0.5775719099099148 0.15 0.4224280900900852
v -8.250570104910738 24.012340991622327 11.248760589398929 0.6682956927759194 0.15 0.3317043072240806
v -7.842454391931256 26.668689550118806 10.72873721864404 0.7196538556408025 0.15 0.28034614435919747
v -7.595065173130267 29.33083373351741 10.074943679701375 0.7571615329788357 0.15 0.2428384670211643
v -7.327920066624481 31.994851594225317 9.436760264213998 0.8166302534978133 0.15 0.18336974650218674
v -7.0375350844516085 34.660790784202106 8.817030994830137 0.8757485285817699 0.15 0.12425147141823012
v -6.724705868121523 37.328320508675475 8.21520932997873 0.9370396570684668 0.15 0.06296034293153319
v -6.386299475545313 39.9972799726376 7.633918081488054 1.0 0.15 0.0
l 203 204
l 204 205
l 205 206
l 206 207
l 207 208
l 208 209
l 209 210
l 210 211
l 211 212
l 212 213
l 213 214
l 214 215
l 215 216
l 216 217
l 217 218
v -13.653856152419914 -0.010616845764728365 14.528605676502798 0.0 0.15 1.0
v -13.14873559715083 2.6693690462370574 14.098443659073046 0.059399938422316716 0.15 0.9406000615776833
v -12.680051020028825 5.349732115338516 13.630988821451506 0.12102270782478494 0.15 0.878977292175215
v -12.235097129345451 8.029535043044064 13.137753226086536 0.19000523943359465 0.15 0.8099947605664053
v -11.810004348992983 10.708486953545442 12.622808007254118 0.2638739166142434 0.15 0.7361260833857566
v -11.403430503331702 13.386444142521723 12.088114611750584 0.34049381900828335 0.15 0.6595061809917167
v -11.014544150586739 16.063345381598207 11.535197294882392 0.41993592775339145 0.15 0.5800640722466086
v -10.646319856791573 18.73899826472754 10.962505281711175 0.5019143210078953 0.15 0.49808567899210465
v -10.316973721545525 21.412223880977603 10.35630227817498 0.5835725513822982 0.15 0.41642744861770176
v -10.10601721149778 24.059673238903038 9.613701871822736 0.6670728155953625 0.15 0.33292718440463753
v -9.995214143085132 26.637026204246446 8.745222882185905 0.7145031457221361 0.15 0.28549685427786387
v -9.679080203183002 29.300745922729522 8.09111699702563 0.7700217201354844 0.15 0.22997827986451558
v -9.33346517458529 31.9683914384266 7.4690275636614025 0.8217651731797486 0.15 0.17823482682025138
v -8.938111589992786 34.64141511895529 6.902556712467583 0.875394143779479 0.15 0.124605856220521
v -8.497245663620832 37.31762240176552 6.3869055344515955 0.934563956385205 0.15 0.06543604361479505
v -8.013448174448401 39.99525698799606 5.919114557920023 1.0 0.15 0.0
l 219 220
l 220 221
l 221 222
l 222 223
l 223 224
l 224 225
l 225 226
l 226 227
l 227 228
l 228 229
l 229 230
l 230 231
l 231 232
l 232 233
l 233 234
v -15.375952067394977 0.00011124290552104555 12.63868227982728 0.0 0.15 1.0
v -14.860113120294796 2.6946749765623035 12.210480629553327 0.039237217086311706 0.15 0.9607627829136883
v -14.35079189905511 5.389220638072901 11.774344124854489 0.15263448192522294 0.15 0.847365518074777
v -13.843405867590802 8.083747438991551 11.335857054614548 0.18387265154512056 0.15 0.8161273484548794
v -13.33911091059566 10.778234915304882 10.893618921225004 0.26120262611833445 0.15 0.7387973738816656
v -12.840189835769438 13.472631951032218 10.44486809318689 0.3542337058574236 0.15 0.6457662941425764
v -12.350110698945269 16.166813086405032 9.98542807131597 0.426898305815532 0.15 0.573101694184468
v -11.8740649507522 18.860445202761092 9.509103626034959 0.5027506551893123 0.15 0.4972493448106877
v -11.437417213936758 21.551670751691102 8.985716309079567 0.5816442308707005 0.15 0.4183557691292995
l 235 236
l 236 237
l 237 238
l 238 239
l 239 240
l 240 241
l 241 242
l 242 243
v -16.976269946310982 -0.004679587558392791 10.464911910106967 0.0 0.15 1.0
v -16.37591908621545 2.669197006209957 10.17685709677599 0.05949348947849218 0.15 0.9405065105215078
v -15.79477561754549 5.343220354222987 9.852790339715183 0.12096422143619423 0.15 0.8790357785638058
v -15.227843420653763 8.016977230848322 9.502276808963165 0.18831794009322192 0.15 0.8116820599067781
v -14.673273596899138 10.690221011546763 9.12890569933875 0.2613087916541027 0.15 0.7386912083458973
v -14.129197915464061 13.362850845004433 8.73622547434102 0.3380044019527303 0.15 0.6619955980472697
v -13.595082853065252 16.034728601192825 8.325307164216827 0.418656479945921 0.15 0.5813435200540791
v -13.07331361165306 18.705430191919987 7.891912222466373 0.5042136716348933 0.15 0.4957863283651067
v -12.581201892976537 21.37213595135593 7.405140882476981 0.5718562583187615 0.15 0.4281437416812385
v -12.191340409866154 24.006126544865825 6.744339400230091 0.6663505599381526 0.15 0.3336494400618474
v -11.738258743558584 26.666509450005172 6.187885064639241 0.7237490386416918 0.15 0.2762509613583082
v -11.31870301245648 29.319187328579336 5.572774747051108 0.767705489844032 0.15 0.23229451015596803
v -10.866315521847516 31.979157669787117 5.015239387860611 0.8344370958538093 0.15 0.16556290414619068
v -10.345837415610296 34.64938075412851 4.579681382685407 0.8853527182231835 0.15 0.11464728177681649
v -9.79072563121233 37.32254558298522 4.207365898664451 0.9420405142504947 0.15 0.05795948574950527
v -9.216203067627209 39.99645358471142 3.8709731301607535 1.0 0.15 0.0
l 244 245
l 245 246
l 246 247
l 247 248
l 248 249
l 249 250
l 250 251
l 251 252
l 252 253
l 253 254
l 254 255
l 255 256
l 256 257
l 257 258
l 258 259
v -18.18999964809583 -3.145346409970344e-05 8.191730191964023 0.0 0.15 1.0
v -17.550574299722904 2.8123776124787847 7.903663153543436 0.0603993784415049 0.15 0.9396006215584951
v -16.912725189593385 5.624837840485369 7.612620273956793 0.1299252490472429 0.15 0.8700747509527571
v -16.27427807903935 8.437284191998438 7.322703482333186 0.20587467094148537 0.15 0.7941253290585146
v -15.63672837036683 11.249764208801848 7.03109001215076 0.2850655751102926 0.15 0.7149344248897074
v -15.001065556070818 14.062297720191228 6.735918188170547 0.3679080070451786 0.15 0.6320919929548214
v -14.368794315724019 16.874904640215753 6.434362404462629 0.4550241367492171 0.15 0.5449758632507828
v -13.7440797348041 19.68760986984629 6.118617255569957 0.5444981304730827 0.15 0.4555018695269173
v -13.14131035825236 22.499992409319695 5.7619857692760394 0.6292278940325945 0.15 0.3707721059674055
l 260 261
l 261 262
l 262 263
l 263 264
l 264 265
l 265 266
l 266 267
l 267 268
v -19.068515589351897 -7.512414831071822e-07 5.70565085035898 0.0 0.15 1.0
v -18.431484978203954 2.6603495085979447 5.525535509555431 0.08993015233358813 0.15 0.9100698476664119
v -17.796696241777344 5.320725114207059 5.338008061312223 0.10713450358807876 0.15 0.8928654964119213
v -17.162122348886154 7.981101789418885 5.149771445232206 0.21768969579552175 0.15 0.7823103042044782
v -16.527587338467757 10.641478871628882 4.96140632952565 0.2539132529362015 0.15 0.7460867470637985
v -15.892882693484475 13.30185920296474 4.773597611228191 0.35513545298761373 0.15 0.6448645470123863
v -15.257754087564805 15.96223327887221 4.587191906060243 0.41417382107672496 0.15 0.585826178923275
v -14.621663248458232 18.622595800455745 4.403968112787169 0.5059843689494758 0.15 0.49401563105052415
v -13.981803110892283 21.282860147193155 4.233254227049821 0.5918003976750656 0.15 0.40819960232493435
l 269 270
l 270 271
l 271 272
l 272 273
l 273 274
l 274 275
l 275 276
l 276 277
v -19.686914238799194 0.0022500121312187204 3.1609893493922403 0.0 0.15 1.0
v -19.050090796127606 2.5904536720851996 3.0606562579629055 0.05950771660850696 0.15 0.940492283391493
v -18.414676409776476 5.178811792473369 2.9554855432660987 0.12099578734206229 0.15 0.8790042126579377
v -17.779019980273603 7.7672759287355 2.854675003003698 0.18463488862110472 0.15 0.8153651113788953
v -17.14205988564441 10.355700679347278 2.7617204179800834 0.2534405743437786 0.15 0.7465594256562214
v -16.50260577250409 12.943914813429092 2.681517473249556 0.3252273349697277 0.15 0.6747726650302723
v -15.859604307566268 15.531689718568023 2.6175532793079115 0.40294133035682717 0.15 0.5970586696431728
v -15.211282785725695 18.118609907153804 2.5810033685797746 0.48473686913925823 0.15 0.5152631308607418
v -14.554120350811509 20.702909644954982 2.6039907618278733 0.5696625332800073 0.15 0.43033746671999273
v -13.86016623017087 23.23529792954115 2.910738880480736 0.6341386231959306 0.15 0.3658613768040694
v -13.074715069422975 25.604262608175947 3.503471523614309 0.7099189435328565 0.15 0.29008105646714355
v -12.456071075763003 28.185808845428397 3.3673402031435904 0.7761282953529929 0.15 0.22387170464700712
l 278 279
l 279 280
l 280 281
l 281 282
l 282 283
l 283 284
l 284 285
l 285 286
l 286 287
l 287 288
l 288 289
v -19.944940893785883 -0.007211103753846011 0.5773283612933261 0.0 0.15 1.0
v -19.282188687678136 2.669363442265928 0.5124350851873692 0.05942282619305143 0.15 0.9405771738069486
v -18.617089604027395 5.345849142232116 0.4715955648091312 0.12224363296964623 0.15 0.8777563670303538
v -17.949400487023194 8.021973165483566 0.45797114413852263 0.19164641180965591 0.15 0.8083535881903441
v -17.27969280429924 10.69761144973891 0.4660745031735759 0.26441080262298616 0.15 0.7355891973770139
v -16.608196872862248 13.372652172825813 0.49385105045904404 0.3405225836040482 0.15 0.6594774163959518
v -15.93495829326137 16.046957755297495 0.5411869928676457 0.4203021095800881 0.15 0.5796978904199119
v -15.259502007608994 18.720082449023696 0.6140371342823628 0.5041184367898442 0.15 0.49588156321015575
v -14.579523647103263 21.38973665121818 0.7416097813751071 0.5924118968260237 0.15 0.4075881031739763
v -13.897355175980671 24.04861615327938 0.9187683507915111 0.6564826543858707 0.15 0.3435173456141293
v -13.219113001336625 26.71948666106035 1.025625866037198 0.7224193670588167 0.15 0.2775806329411833
v -12.519265868436595 29.32877432912059 1.5081574731646599 0.7836599902705301 0.15 0.21634000972946987
v -11.835697720874512 31.96136957835891 1.7662443175842308 0.8377316624350327 0.15 0.16226833756496728
v -11.165632783155786 34.63625061014578 1.7798970663933502 0.8883233308486438 0.15 0.11167666915135621
v -10.498499099485803 37.31230866101126 1.7608007092088256 0.9422610810358711 0.15 0.05773891896412886
v -9.833727367795678 39.988752740547085 1.7167431532214503 1.0 0.15 0.0
l 290 291
l 291 292
l 292 293
l 293 294
l 294 295
l 295 296
l 296 297
l 297 298
l 298 299
l 299 300
l 300 301
l 301 302
l 302 303
l 303 304
l 304 305
v -19.368663785957693 0.00025803633949401895 -4.715972999933654 0.0 0.15 1.0
v -18.74602052958739 2.606623621298938 -4.53469797608254 0.05929482695243024 0.15 0.9407051730475697
v -18.121808091788854 5.21297070812391 -4.358611695611338 0.12054395197843658 0.15 0.8794560480215634
v -17.497816547703877 7.819316160827118 -4.181798677837604 0.18389042209029435 0.15 0.8161095779097056
v -16.87469475466783 10.425660373318632 -4.002119483678775 0.2504858633379717 0.15 0.7495141366620284
v -16.253622645880796 13.0320008860457 -3.815686616282484 0.3213257663040141 0.15 0.6786742336959859
v -15.636214212820164 15.638311801312907 -3.617201536648434 0.3980172556871056 0.15 0.6019827443128944
v -15.025790744767235 18.244402183532028 -3.39587917809463 0.47742957475522463 0.15 0.5225704252447754
v -14.428221103226885 20.84951932002104 -3.133017532103559 0.5585787965108504 0.15 0.4414212034891496
v -13.863132280049001 23.44825905929685 -2.76854692048376 0.6141089119778911 0.15 0.3858910880221089
l 306 307
l 307 308
l 308 309
l 309 310
l 310 311
l 311 312
l 312 313
l 313 314
l 314 315
v -19.796828362414175 -0.036286860827304486 -2.154942860975312 0.0 0.15 1.0
v -19.13728314988825 2.654124069755469 -2.0223676538917514 0.04145754036452558 0.15 0.9585424596354745
v -18.475811541258164 5.344909369407321 -1.908401189462433 0.15239852806293458 0.15 0.8476014719370655
v -17.813061884151917 8.03588701864051 -1.8069227463338524 0.18915537762238754 0.15 0.8108446223776125
v -17.149278713929057 10.726983193301976 -1.7156368782129003 0.28391685842620995 0.15 0.71608314157379
v -16.484899560839114 13.418125047611188 -1.630286173537675 0.3464510062449082 0.15 0.6535489937550918
v -15.82060019848202 16.10925221033007 -1.5441626464130305 0.4256161960327475 0.15 0.5743838039672525
v -15.157499366560028 18.800211415435516 -1.446296536661671 0.5004463610987913 0.15 0.49955363890120874
v -14.498714222097 21.49018069076153 -1.3071252778444864 0.5896541615310193 0.15 0.41034583846898065
v -13.843896195370265 24.144525378937157 -1.218100793565197 0.6627270844969712 0.15 0.33727291550302885
v -13.179957089497961 26.559272480906387 -1.8298529701045305 0.7199043856344723 0.15 0.28009561436552766
v -12.541185841069295 29.23915695708719 -1.5130753585364727 0.7638875419063642 0.15 0.2361124580936358
v -11.900276219419347 31.920555522301683 -1.214165848037204 0.82264851862452 0.15 0.17735148137547996
v -11.248644141735069 34.60815923511965 -1.008372744625314 0.8775899147648233 0.15 0.12241008523517671
v -10.592822455866568 37.29748091260262 -0.8407567778414687 0.9360297767789879 0.15 0.06397022322101209
v -9.93523610759991 39.987348038380226 -0.6896731956781075 1.0 0.15 0.0
l 316 317
l 317 318
l 318 319
l 319 320
l 320 321
l 321 322
l 322 323
l 323 324
l 324 325
l 325 326
l 326 327
l 327 328
l 328 329
l 329 330
l 330 331
v -18.59859352074342 -0.006370744459488371 -7.26023591636297 0.0 0.15 1.0
v -17.99038774145016 2.664880248339151 -6.97575500700071 0.05914465561500691 0.15 0.9408553443849931
v -17.3802821425491 5.336354874639864 -6.697345471787599 0.12251511913547139 0.15 0.8774848808645286
v -16.769468927474616 8.007896453668275 -6.4212112233576715 0.19085135073806875 0.15 0.8091486492619313
v -16.157701329037735 10.679534364628086 -6.148140616216275 0.26244947200004687 0.15 0.7375505279999531
v -15.545766959359806 13.35117836952294 -5.875614548141575 0.33722273743873793 0.15 0.662777262561262
v -14.935049468455826 16.022691182898065 -5.599189410666811 0.4155842251264138 0.15 0.5844157748735862
v -14.327932306163413 18.693778270957182 -5.311260470878795 0.4984222756025624 0.15 0.5015777243974375
v -13.72815349347676 21.363857517817273 -5.000004005267767 0.5620869864546797 0.15 0.4379130135453203
v -13.05722680225544 24.01581190012075 -4.938825096155684 0.6672130137817476 0.15 0.3327869862182524
v -12.403594090292207 26.661297140714755 -4.826180092235308 0.7185752937939512 0.15 0.28142470620604876
v -11.836180652789128 29.32487456941983 -4.41380186336309 0.7739205977811706 0.15 0.22607940221882938
v -11.26533693236772 31.989332711792652 -4.011976757647504 0.8121465110742991 0.15 0.18785348892570086
v -10.682403090569615 34.65652082583402 -3.6476677695335162 0.8737156812609317 0.15 0.1262843187390683
v -10.090078601013591 37.3254910910844 -3.3127881957323067 0.9355359834469342 0.15 0.06446401655306577
v -9.487563748918745 39.99603767191717 -3.0101506560346833 1.0 0.15 0.0
l 332 333
l 333 334
l 334 335
l 335 336
l 336 337
l 337 338
l 338 339
l 339 340
l 340 341
l 341 342
l 342 343
l 343 344
l 344 345
l 345 346
l 346 347
v -17.43508229775457 0.000320374095781407 -9.60389549601484 0.0 0.15 1.0
v -16.882323580850944 2.5992334358343587 -9.266366648210365 0.08840707042330243 0.15 0.9115929295766976
v -16.32910003961077 5.198156196470922 -8.92970236283604 0.10063860006765563 0.15 0.8993613999323444
v -15.777358839071661 7.79703992636389 -8.590285387590557 0.16836662271256952 0.15 0.8316333772874305
v -15.227707101411129 10.39586518594092 -8.246990193955083 0.2382681336018614 0.15 0.7617318663981386
v -14.681727289725385 12.994555803332808 -7.8968963425892325 0.3510753810930669 0.15 0.6489246189069331
v -14.141772165579228 15.592970463792517 -7.535676771153439 0.385516743049132 0.15 0.614483256950868
v -13.611255890122877 18.190821504299013 -7.157095792181408 0.4968454430710301 0.15 0.5031545569289699
v -13.095551962493788 20.78746007568221 -6.751442815043354 0.5540910323412431 0.15 0.44590896765875687
v -12.628515732785122 23.37545955238607 -6.259298523492611 0.6543182437881147 0.15 0.34568175621188535
l 348 349
l 349 350
l 350 351
l 351 352
l 352 353
l 353 354
l 354 355
l 355 356
l 356 357
v -16.039367567704215 -0.0009288248170882208 -11.832042183655805 0.0 0.15 1.0
v -15.521894949437389 2.669107932203013 -11.41353132272229 0.058991247903468214 0.15 0.9410087520965318
v -15.008360599421286 5.339323383056665 -10.991395702297348 0.11991093707998568 0.15 0.8800890629200143
v -14.499084210456845 8.009657178596873 -10.564928439817221 0.18288241774043423 0.15 0.8171175822595658
v -13.990557781814365 10.680073500321027 -10.138076608704234 0.25680971699992233 0.15 0.7431902830000776
v -13.48486305737453 13.35051743072738 -9.707983449692009 0.3333568947301052 0.15 0.6666431052698948
v -12.983466139644511 16.02090678551808 -9.27255269923254 0.4122714279160239 0.15 0.5877285720839761
v -12.488821821903546 18.69113587382652 -8.828492409160432 0.4934253048572329 0.15 0.5065746951427671
v -12.00308899965616 21.361066114466063 -8.372884001310828 0.5764916209183332 0.15 0.42350837908166683
v -11.483523225530554 24.030845347096946 -7.957411083937471 0.6584775239234604 0.15 0.3415224760765396
v -10.925302601995051 26.673179185253396 -7.598274207752522 0.7146505945645474 0.15 0.2853494054354526
v -10.487103408934463 29.340167765767802 -7.081404787320388 0.7640844078265002 0.15 0.23591559217349978
v -10.027390520398392 32.003275707142194 -6.562984147733414 0.8213872622634457 0.15 0.17861273773655428
v -9.548114143376129 34.665987800900005 -6.060428876380083 0.8828282906812821 0.15 0.1171717093187179
v -9.051124334588259 37.33089149975439 -5.587832157513866 0.9400608362097022 0.15 0.059939163790297845
v -8.531212608462843 39.99808685938877 -5.154595088687735 1.0 0.15 0.0
l 358 359
l 359 360
l 360 361
l 361 362
l 362 363
l 363 364
l 364 365
l 365 366
l 366 367
l 367 368
l 368 369
l 369 370
l 370 371
l 371 372
l 372 373
v -14.367085710024892 -3.37853104128275e-05 -13.868046358016947 0.0 0.15 1.0
v -13.918425001602179 2.569592134404297 -13.406985880299425 0.05884920316801752 0.15 0.9411507968319824
v -13.475545518717785 5.138974183501931 -12.938976483133915 0.11996299840754629 0.15 0.8800370015924537
v -13.038188711448909 7.708084176681969 -12.464344507619868 0.18250702616578157 0.15 0.8174929738342185
v -12.60530197832479 10.27694660243377 -11.984362805655879 0.24858310870112865 0.15 0.7514168912988713
v -12.175986214458812 12.84560330149401 -11.500110453808345 0.3159098316971935 0.15 0.6840901683028064
v -11.751271833401706 15.413971522053265 -11.010364543176573 0.38682659276272674 0.15 0.6131734072372732
v -11.331982140567881 17.981985101240344 -10.514147681747144 0.45840950241500555 0.15 0.5415904975849944
v -10.921268086610322 20.549376849229567 -10.007725180556946 0.5348944380721529 0.15 0.46510556192784713
v -10.499915581062984 23.11681434255867 -9.514247775878037 0.6074760198853859 0.15 0.3925239801146141
l 374 375
l 375 376
l 376 377
l 377 378
l 378 379
l 379 380
l 380 381
l 381 382
l 382 383
v -12.388393045558601 -0.0007734395975343142 -15.58197325358093 0.0 0.15 1.0
v -11.980541297025066 2.6680826988823245 -15.057377030879115 0.03909373296439324 0.15 0.9609062670356068
v -11.585739522559207 5.336825875511909 -14.52225652443397 0.1508633004672205 0.15 0.8491366995327795
v -11.202894637327582 8.005364891740424 -13.977509624464895 0.18023203276668623 0.15 0.8197679672333138
v -10.82928327296665 10.673693484249306 -13.425344642402615 0.2538382873411999 0.15 0.7461617126588
v -10.463915196018377 13.341774981254153 -12.866557305166365 0.3491135539926902 0.15 0.6508864460073098
v -10.106832350238482 16.00956128988481 -12.301100084760678 0.4071633966441308 0.15 0.5928366033558692
v -9.759020595557487 18.676958596980498 -11.728165347367742 0.4928672912963764 0.15 0.5071327087036236
v -9.418989099706863 21.343973371407916 -11.14894574422227 0.5701340821646695 0.15 0.42986591783533046
v -9.108051956085925 24.006493172775915 -10.547244269883873 0.6432829430461241 0.15 0.3567170569538759
v -8.7918072811156 26.669597453871507 -9.949630050497936 0.7011193172783129 0.15 0.2988806827216871
v -8.5081718165033 29.332942154406897 -9.325067787207281 0.7737323008686594 0.15 0.2262676991313406
v -8.202429472485518 31.99789924358344 -8.717991438080686 0.8230737836641046 0.15 0.17692621633589545
v -7.8746144697017 34.66419468766771 -8.128432551281536 0.8776050713440283 0.15 0.12239492865597168
v -7.522011591136126 37.33164760313048 -7.55864889456868 0.9356550386499664 0.15 0.06434496135003365
v -7.122772857043891 39.999080945984886 -7.020282788142418 1.0 0.15 0.0
l 384 385
l 385 386
l 386 387
l 387 388
l 388 389
l 389 390
l 390 391
l 391 392
l 392 393
l 393 394
l 394 395
l 395 396
l 396 397
l 397 398
l 398 399
v -10.221773114659321 2.869587127812842e-05 -17.104902104859313 0.0 0.15 1.0
v -9.887623942365712 2.8384065687561897 -16.48278222261756 0.07493077052023635 0.15 0.9250692294797637
v -9.561144453016508 5.676751418637867 -15.856572134407058 0.12272721117514233 0.15 0.8772727888248577
v -9.237809075233285 8.515091065183542 -15.228682958862326 0.2028887995053379 0.15 0.7971112004946621
v -8.920246790853726 11.353407308042307 -14.597714595720397 0.28468508803246945 0.15 0.7153149119675306
v -8.609298629560657 14.191677351201793 -13.963223950963947 0.3680374403031445 0.15 0.6319625596968554
v -8.306923016287396 17.029866894263275 -13.324173886894704 0.4528634521777144 0.15 0.5471365478222856
v -8.017734676927125 19.86785792127046 -12.67813108599273 0.530596935816249 0.15 0.469403064183751
v -7.761576877186906 22.70351117579259 -12.015092592312277 0.6109786836188151 0.15 0.38902131638118487
l 400 401
l 401 402
l 402 403
l 403 404
l 404 405
l 405 406
l 406 407
l 407 408
v -7.932358062352291 -0.0037738008695844673 -18.32969268177774 0.0 0.15 1.0
v -7.650952354013117 2.6698464915884808 -17.72586006554868 0.05864042021845342 0.15 0.9413595797815466
v -7.397437167560982 5.342909526869931 -17.107276918032312 0.12354598171555244 0.15 0.8764540182844476
v -7.166530080716061 8.015231786069474 -16.47681844675223 0.19098574989557293 0.15 0.8090142501044271
v -6.953438710628323 10.686806161926796 -15.837048277540621 0.2612134553939817 0.15 0.7387865446060182
v -6.755320819141278 13.357647457565504 -15.189481413413858 0.3344580786976984 0.15 0.6655419213023016
v -6.570299505191356 16.02776080314894 -14.535119648976771 0.4111253619975974 0.15 0.5888746380024026
v -6.39678732477048 18.69716659857118 -13.8748057288855 0.49178680101499894 0.15 0.5082131989850011
v -6.230414938684345 21.36612547189588 -13.210801583451573 0.575998727160716 0.15 0.424001272839284
v -6.129960113465382 24.026942630331966 -12.513860613602638 0.6454662547358601 0.15 0.35453374526413994
v -6.198140255511751 26.651791403744426 -11.736929293240133 0.7040667794177987 0.15 0.2959332205822013
v -6.088021530580929 29.316312684399694 -11.044108825229094 0.757173937064401 0.15 0.24282606293559905
v -5.94146953925663 31.98384507657226 -10.369912831904564 0.8102559139739017 0.15 0.18974408602609827
v -5.7637801685438435 34.65347967628685 -9.711767091013854 0.8671288428466308 0.15 0.13287115715336917
v -5.551478172508454 37.324941810913316 -9.071606644133178 0.9389125275043626 0.15 0.061087472495637396
v -5.282396399944409 39.998237939315366 -8.461278227741651 1.0 0.15 0.0
l 409 410
l 410 411
l 411 412
l 412 413
l 413 414
l 414 415
l 415 416
l 416 417
l 417 418
l 418 419
l 419 420
l 420 421
l 421 422
l 422 423
l 423 424
v -5.352773289363936 -0.006825812772330924 -19.17733427787816 0.0 0.15 1.0
v -5.241106191868843 2.664951520160351 -18.516569187521768 0.08869939109263121 0.15 0.9113006089073687
v -5.118760946787034 5.337052891618359 -17.858959048299536 0.11044904428294923 0.15 0.8895509557170508
v -4.987764657337769 8.009373456040958 -17.203916185519592 0.21398203462481266 0.15 0.7860179653751873
v -4.8483917729887125 10.681876679418075 -16.551366851070046 0.2569232293965447 0.15 0.7430767706034553
v -4.703117723737513 13.354496927757292 -15.900577182092123 0.347860285711152 0.15 0.652139714288848
v -4.555495085940976 16.02715316201504 -15.250490606017848 0.41101249409234597 0.15 0.588987505907654
v -4.408975753394244 18.69978712779563 -14.600075120383078 0.4928760541418386 0.15 0.5071239458581613
v -4.261845272613052 21.37242791811559 -13.949843267944152 0.5710901924645926 0.15 0.4289098075354074
v -3.7298592778528437 24.00066425806356 -13.42790080994019 0.6435431523692019 0.15 0.3564568476307981
v -3.467390649642708 26.6486286149153 -12.819072057618774 0.6954508666145265 0.15 0.3045491333854735
v -3.437356087391911 29.31658367686496 -12.134537777835034 0.7516597235839826 0.15 0.2483402764160174
v -3.38608677379764 31.985806066905567 -11.456115497716329 0.8113257195834402 0.15 0.18867428041655976
v -3.3244579427715277 34.65558182709841 -10.780691852090113 0.8721590331514001 0.15 0.1278409668485999
v -3.255884887912872 37.325676117305235 -10.107291925952676 0.9336294550872949 0.15 0.06637054491270511
v -3.161787800424067 39.99682657058324 -9.441360019728885 1.0 0.15 0.0
l 425 426
l 426 427
l 427 428
l 428 429
l 429 430
l 430 431
l 431 432
l 432 433
l 433 434
l 434 435
l 435 436
l 436 437
l 437 438
l 438 439
l 439 440
v -2.8141210079612726 0.0005798742620069925 -19.722688295706668 0.0 0.15 1.0
v -2.7609868962755924 2.617758274198786 -19.073626951707745 0.06388281165688761 0.15 0.9361171883431124
v -2.7077776828609745 5.2349273584207205 -18.42457532875023 0.13038113572488252 0.15 0.8696188642751175
v -2.657579116606717 7.85208011993585 -17.77523126821621 0.1815702932465248 0.15 0.8184297067534752
v -2.6113919304651843 10.46920139013361 -17.125499989185748 0.2467126123883052 0.15 0.7532873876116948
v -2.571925574179205 13.086263830563313 -16.47512147838613 0.3166252744074323 0.15 0.6833747255925677
v -2.5429193580112734 15.703198951756539 -15.82374455895963 0.39265381707556213 0.15 0.6073461829244379
v -2.5300905141229157 18.319879272287206 -15.170838011583637 0.47179268606661834 0.15 0.5282073139333816
v -2.5436191636903174 20.935939148356297 -14.515490585605685 0.5534368604734065 0.15 0.44656313952659354
v -2.7317523455619703 23.53468129032213 -13.847275549748824 0.6077588402669889 0.15 0.3922411597330111
l 441 442
l 442 443
l 443 444
l 444 445
l 445 446
l 446 447
l 447 448
l 448 449
l 449 450
v -0.1820447675598853 -0.0010725013055998306 -19.982338280153655 0.0 0.15 1.0
v -0.21653239208481526 2.6672410807803537 -19.311863150178464 0.05950310232819308 0.15 0.9404968976718069
v -0.255622729951378 5.335388337690084 -18.640976273432987 0.12427319705320009 0.15 0.8757268029467999
v -0.29706068588983275 8.003440814419509 -17.969881871963324 0.1913419969399972 0.15 0.8086580030600028
v -0.3393777666278817 10.671454793765768 -17.29871050809137 0.26102800517715385 0.15 0.7389719948228461
v -0.38371482660186673 13.339386104561045 -16.627360861391022 0.3336040747644452 0.15 0.6663959252355548
v -0.4328567081234814 16.00710972948133 -15.955589901783046 0.40958015476206966 0.15 0.5904198452379303
v -0.48762879287359984 18.67458648560528 -15.283326133656917 0.4891016549238794 0.15 0.5108983450761206
v -0.5241165033357783 21.342747228478757 -14.612692221493907 0.5695874178047662 0.15 0.4304125821952338
v -0.42744359398719123 24.007651667381452 -13.955987563048604 0.639877860425038 0.15 0.360122139574962
v -0.3991950046265659 26.671878561011027 -13.292713082503093 0.7046432229608203 0.15 0.29535677703917973
v -0.5443954285065702 29.33387989376454 -12.61291175603324 0.7642812837276287 0.15 0.2357187162723713
v -0.6611466752675181 31.998046884475176 -11.93537101346789 0.8038174088927037 0.15 0.1961825911072963
v -0.7505854540145849 34.663850599009976 -11.260111133911124 0.8683422410900709 0.15 0.13165775890992915
v -0.8280560941388733 37.33028334221527 -10.585872756457432 0.933070451102631 0.15 0.06692954889736902
v -0.8698432575514301 39.99828103316593 -9.914757656155397 1.0 0.15 0.0
l 451 452
l 452 453
l 453 454
l 454 455
l 455 456
l 456 457
l 457 458
l 458 459
l 459 460
l 460 461
l 461 462
l 462 463
l 463 464
l 464 465
l 465 466
v 2.4094028152408935 0.0022968699657757823 -19.76212031074899 0.0 0.15 1.0
v 2.3327852924208172 2.8226790608737375 -19.064570932514453 0.049737588943182615 0.15 0.9502624110568174
v 2.2106546484801424 5.642631856320349 -18.371611551916086 0.1503772061079537 0.15 0.8496227938920463
v 2.059523603016355 8.461937080684336 -17.681670354834797 0.21136679970068858 0.15 0.7886332002993114
v 1.893668807396964 11.280769573950257 -16.993297504450712 0.2795803900737138 0.15 0.7204196099262862
v 1.7323733362527314 14.099751044035411 -16.304438352977108 0.36232057231201537 0.15 0.6376794276879847
v 1.5816073270897728 16.919026489236778 -15.614468649617352 0.4177841334983515 0.15 0.5822158665016486
v 1.4339377854251785 19.738393468965068 -14.924171084037548 0.49186409321859137 0.15 0.5081359067814086
v 1.7913031231571273 22.506991741422322 -14.196824103763475 0.6031334101442489 0.15 0.3968665898557511
l 467 468
l 468 469
l 469 470
l 470 471
l 471 472
l 472 473
l 473 474
l 474 475
v 5.018462068337562 0.000277081002701289 -19.276899783040726 0.0 0.15 1.0
v 4.796282561537779 2.8902621665280055 -18.59292615197393 0.07484577805776688 0.15 0.9251542219422331
v 4.575269381425266 5.780247609549756 -17.908598628771284 0.14933168255828302 0.15 0.850668317441717
v 4.355089233527203 8.67022912517107 -17.224019445516458 0.2143034615092535 0.15 0.7856965384907465
v 4.128153317430634 11.56019044302049 -16.54149484238812 0.3045175548078925 0.15 0.6954824451921076
v 3.8836881594601507 14.45000560567661 -15.864325680086724 0.3799687685120519 0.15 0.6200312314879481
v 3.5945058596058934 17.338864525210056 -15.200969930201598 0.45340456026276743 0.15 0.5465954397372326
v 3.156799933016474 20.216412690335737 -14.585609014667725 0.5324165291851374 0.15 0.4675834708148626
l 476 477
l 477 478
l 478 479
l 479 480
l 480 481
l 481 482
l 482 483
v 7.432754220728409 -0.014454645894929886 -18.54754384984347 0.0 0.15 1.0
v 7.274709535963542 2.6713330958496413 -17.897613504730533 0.06121800629901656 0.15 0.9387819937009835
v 7.0492102045415495 5.357220099372369 -17.26824692450474 0.12655326939816355 0.15 0.8734467306018364
v 6.768128634677814 8.041854703733406 -16.656070535320985 0.19444889683795052 0.15 0.8055511031620495
v 6.445490738491885 10.724741719182333 -16.056833474615672 0.26512182482250507 0.15 0.7348781751774949
v 6.094104809396698 13.40599785266019 -15.466494396639451 0.3380264429368744 0.15 0.6619735570631256
v 5.709162724977461 16.08483993281277 -14.886589486677273 0.4125394078855285 0.15 0.5874605921144715
v 5.230815406874407 18.754050935264583 -14.337024832251428 0.4900049511891218 0.15 0.5099950488108782
v 4.556863661436504 21.390214223790494 -13.854763348735556 0.5652502883539461 0.15 0.4347497116460539
v 3.745851247622736 24.00039259659784 -13.420083844221539 0.6264008262510202 0.15 0.3735991737489798
v 2.988659047896047 26.6230515835279 -12.964957850846591 0.6908945598462403 0.15 0.30910544015375974
v 2.4293914069513165 29.275881733415407 -12.420808826744162 0.7507285905345311 0.15 0.24927140946546889
v 2.0984196990746393 31.952460501798516 -11.803150885897743 0.8169985953682041 0.15 0.18300140463179593
v 1.8401005514343298 34.634244232168186 -11.168775028509652 0.880013880917877 0.15 0.11998611908212298
v 1.6120464817089726 37.3155849973233 -10.521429277822588 0.9383938317046623 0.15 0.061606168295337715
v 1.4732639358825046 39.99779140919687 -9.853186324248016 1.0 0.15 0.0
l 484 485
l 485 486
l 486 487
l 487 488
l 488 489
l 489 490
l 490 491
l 491 492
l 492 493
l 493 494
l 494 495
l 495 496
l 496 497
l 497 498
l 498 499
v 9.808489649732435 -0.007149350168108311 -17.327583999875237 0.0 0.15 1.0
v 9.526950893181283 2.669540620830213 -16.7232500705284 0.06489129342008317 0.15 0.9351087065799168
v 9.202788431723809 5.346432665236812 -16.141514944257583 0.13179725467333664 0.15 0.8682027453266634
v 8.84345058051374 8.022881714751087 -15.578590208210926 0.18752930908723073 0.15 0.8124706909127692
v 8.461685835682518 10.698739273915843 -15.02771466433136 0.28157267045762563 0.15 0.7184273295423744
v 8.08271548031292 13.374591094012574 -14.475253200740273 0.34360713493805173 0.15 0.6563928650619483
v 7.744278218536815 16.051346313622208 -13.900788790631026 0.4170458170340027 0.15 0.5829541829659973
v 7.312531564892945 18.722291836403354 -13.377767129322944 0.48157252006783086 0.15 0.5184274799321691
v 6.703662879583552 21.377951063233695 -12.953671986494552 0.5513025122138772 0.15 0.44869748778612284
v 6.02887048134812 24.024540689955415 -12.567323991068635 0.609644096526859 0.15 0.390355903473141
v 5.372376360024659 26.674174495060864 -12.170299846003589 0.6839644496686846 0.15 0.31603555033131536
v 4.818302266250808 29.33274846720062 -11.691171787649742 0.7541166927716549 0.15 0.24588330722834506
v 4.646809901974261 32.00341536245229 -11.053747057846477 0.8319604050894773 0.15 0.16803959491052267
v 4.411801781515772 34.64715664844508 -10.433048967193233 0.8765550388215821 0.15 0.12344496117841786
v 4.043032360562201 37.322750466605214 -9.872862461730765 0.9381691857768885 0.15 0.06183081422311154
v 3.7628462789548425 39.997032329249414 -9.257301446205336 1.0 0.15 0.0
l 500 501
l 501 502
l 502 503
l 503 504
l 504 505
l 505 506
l 506 507
l 507 508
l 508 509
l 509 510
l 510 511
l 511 512
l 512 513
l 513 514
l 514 515
v 11.93449748744532 0.7986434570511844 -15.703923828620553 0.0 0.15 1.0
v 11.507895545285 3.3874148307993495 -15.211487110744523 0.08848104467641711 0.15 0.9115189553235828
v 11.094079994112226 5.97726719397968 -14.713965838210727 0.15048423178863707 0.15 0.849515768211363
v 10.688060181186538 8.567856315975012 -14.2140273910567 0.21452235410348192 0.15 0.785477645896518
v 10.28570816365222 11.158812013922201 -13.713602940480419 0.2817402413052162 0.15 0.7182597586947839
v 9.90014652510926 13.749085165424422 -13.200648719636005 0.34090072814436356 0.15 0.6590992718556364
v 9.971243311014643 16.16474948268276 -12.36865207061366 0.41590690828683613 0.15 0.5840930917131639
v 9.41727388472277 18.74886944579276 -11.992931694462435 0.47321293775271145 0.15 0.5267870622472886
v 8.827211854249986 21.328602674116897 -11.644314950548376 0.5371427450419637 0.15 0.4628572549580363
v 8.180015315609554 23.900397845082697 -11.339621461236003 0.6007594840894759 0.15 0.3992405159105241
v 7.487176825342235 26.464070833872942 -11.067930864075937 0.6901152409550817 0.15 0.3098847590449183
v 6.720811669471671 29.0055464029815 -10.786501198364457 0.7423862024145109 0.15 0.2576137975854891
v 5.826703794233017 31.509801657940173 -10.587822661772918 0.8023389199525908 0.15 0.19766108004740923
l 516 517
l 517 518
l 518 519
l 519 520
l 520 521
l 521 522
l 522 523
l 523 524
l 524 525
l 525 526
l 526 527
l 527 528
v 14.11337305493501 0.0004917064687831269 -14.16558215894618 0.0 0.15 1.0
v 13.569395825456018 2.906695364135408 -13.676640715373734 0.06774662918918369 0.15 0.9322533708108163
v 13.01948989582199 5.812603367403225 -13.192659913286757 0.1389927253894674 0.15 0.8610072746105326
v 12.446132552352681 8.71713443433261 -12.728368457585722 0.21396814186641086 0.15 0.7860318581335891
v 11.822831555154622 11.617611914687778 -12.30636928057079 0.29491264849053356 0.15 0.7050873515094664
v 11.072041942506003 14.49958617579905 -11.994952681539305 0.38565220098273106 0.15 0.614347799017269
l 529 530
l 530 531
l 531 532
l 532 533
l 533 534
v 15.779531260017045 -0.0021779301079915448 -12.138837342782715 0.0 0.15 1.0
v 15.254685622575929 2.682342175463483 -11.732432438086837 0.06497525101826139 0.15 0.9350247489817386
v 14.701333542734362 5.366050428805644 -11.359752054621412 0.13165455667549908 0.15 0.8683454433245009
v 14.118442148177664 8.048124403919397 -11.021998902281565 0.19971061182174749 0.15 0.8002893881782525
v 13.500344276298405 10.727115207152039 -10.726269211828907 0.25950492197371394 0.15 0.740495078026286
v 12.826032923998607 13.398242792530878 -10.499658494799395 0.34566422709949257 0.15 0.6543357729005075
v 12.078895331956483 16.056762674464345 -10.363895134471772 0.40798677310488823 0.15 0.5920132268951117
v 11.334627388246048 18.715696556322456 -10.221262928127288 0.48306669691042 0.15 0.51693330308958
v 10.628995909793039 21.382390979775643 -10.024925939927746 0.5348589590138589 0.15 0.46514104098614106
v 9.923785598542702 24.04887557855488 -9.82419885662423 0.6061458737305095 0.15 0.39385412626949046
v 9.192892690725163 26.706704804223765 -9.602408772565633 0.6758125325737603 0.15 0.3241874674262397
v 8.44670272693075 29.359871308301305 -9.375308831477561 0.7509443147889047 0.15 0.24905568521109533
v 7.645825217606352 31.999838023194794 -9.190223980390169 0.8095141749271969 0.15 0.1904858250728031
v 6.879701923453463 34.64664127158266 -8.965884851349541 0.8674013326407392 0.15 0.13259866735926085
v 6.256405508784739 37.31633628830648 -8.607025615090981 0.9373595079193695 0.15 0.0626404920806305
v 5.732142326695184 39.99318295022498 -8.153239529917295 1.0 0.15 0.0
l 535 536
l 536 537
l 537 538
l 538 539
l 539 540
l 540 541
l 541 542
l 542 543
l 543 544
l 544 545
l 545 546
l 546 547
l 547 548
l 548 549
l 549 550
v 17.05686307386312 0.8548195806175566 -9.845996135122014 0.0 0.15 1.0
v 16.4923941753806 3.4731270680670896 -9.534142289738991 0.08819598771668877 0.15 0.9118040122833112
v 15.912044185774658 6.090819154274246 -9.247170637021988 0.14960556678714532 0.15 0.8503944332128547
v 15.314931320791453 8.707553142591589 -8.987190609344376 0.2120007862030922 0.15 0.7879992137969078
v 14.697100846019875 11.322682737129778 -8.762220738808344 0.2754771208466017 0.15 0.7245228791533983
v 14.053542247395832 13.93505401759581 -8.582522905270276 0.34667930468401725 0.15 0.6533206953159827
v 13.39094310360305 16.54485391601481 -8.435778007222742 0.41178610133730975 0.15 0.5882138986626902
v 12.727043081181296 19.1542998577345 -8.287910585827602 0.4755155692309868 0.15 0.5244844307690132
v 12.062315140416672 21.762491720132086 -8.123011546674396 0.5297285397418858 0.15 0.47027146025811417
v 11.384093422162719 24.36608412682279 -7.940713879811588 0.6113406344227866 0.15 0.38865936557721337
v 10.705457364193057 26.96940839553699 -7.756162459806357 0.6812571700954977 0.15 0.3187428299045023
v 10.023046742135868 29.571848633781205 -7.573098075854459 0.7296264795779337 0.15 0.2703735204220663
v 9.33189344043823 32.17247465976314 -7.397334958209314 0.8002598461936947 0.15 0.19974015380630528
v 8.654361555899243 34.77507648297641 -7.199542973336103 0.86953745706393 0.15 0.13046254293606996
v 8.025972280395138 37.38391877109957 -6.934173324659462 0.9325371905300873 0.15 0.06746280946991268
v 7.457105420447922 39.99698514811605 -6.588771464307813 1.0 0.15 0.0
l 551 552
l 552 553
l 553 554
l 554 555
l 555 556
l 556 557
l 557 558
l 558 559
l 559 560
l 560 561
l 561 562
l 562 563
l 563 564
l 564 565
l 565 566
v 18.48937491658666 -0.00021318494094693075 -7.612053610196435 0.0 0.15 1.0
v 17.871885666492858 2.669547669931889 -7.365720501728752 0.06227069796467806 0.15 0.9377293020353219
v 17.249178543438386 5.338976337600375 -7.129126133263594 0.11888042205752643 0.15 0.8811195779424735
v 16.617456301364868 8.007488340861899 -6.906546664312068 0.19314135986372521 0.15 0.8068586401362747
v 15.97513852572915 10.674856414799905 -6.7013084991516845 0.25985146853717633 0.15 0.7401485314628237
v 15.321535864172871 13.341038833278526 -6.51744145624186 0.32707490895456254 0.15 0.6729250910454374
v 14.658276804206913 16.006044023893523 -6.351964548814446 0.3943902151588167 0.15 0.6056097848411832
v 13.99166363265024 18.670605550153567 -6.1927699444361535 0.4618973147053902 0.15 0.5381026852946098
v 13.326813940052409 21.3353920067531 -6.030000531623872 0.530222540384022 0.15 0.46977745961597805
v 12.66431551342176 24.000475938684502 -5.862588456050084 0.6001393883433704 0.15 0.39986061165662956
v 12.003229659817562 26.665736285263613 -5.692423826900366 0.6726137023174547 0.15 0.32738629768254535
v 11.342948558586299 29.33109982903041 -5.5207525915454685 0.7180801705015056 0.15 0.28191982949849437
v 10.683670663286465 31.99659281097339 -5.347259580496477 0.7905981909925278 0.15 0.20940180900747218
v 10.03071020132295 34.66282388577857 -5.161751567812864 0.8606330877566442 0.15 0.13936691224335584
v 9.393250932137278 37.33057298495597 -4.946705442350301 0.9296694005154454 0.15 0.07033059948455456
v 8.780024092475877 39.999864478108094 -4.685843352962275 1.0 0.15 0.0
l 567 568
l 568 569
l 569 570
l 570 571
l 571 572
l 572 573
l 573 574
l 574 575
l 575 576
l 576 577
l 577 578
l 578 579
l 579 580
l 580 581
l 581 582
v 19.253300346166544 -4.2914021182568086e-05 -5.096533249734603 0.0 0.15 1.0
v 18.61285621003923 2.666619982622036 -4.922260424390936 0.0660034834129328 0.15 0.9339965165870672
v 17.974823112630073 5.333359771109624 -4.739973602092422 0.133505005637427 0.15 0.866494994362573
v 17.336372929081442 8.000106292080643 -4.559055967787531 0.20213783005448482 0.15 0.7978621699455152
v 16.69606323595426 10.666817361024572 -4.384298702996011 0.2715390322562747 0.15 0.7284609677437253
v 16.05314849050468 13.333453707743395 -4.218193179373735 0.33703328109725206 0.15 0.6629667189027479
v 15.408184758335734 16.00001572349417 -4.058905985959881 0.40117245317764394 0.15 0.5988275468223561
v 14.762542646671973 18.66655292612966 -3.901876350248357 0.46390942831538895 0.15 0.536090571684611
v 14.117367022759165 21.333112967383805 -3.7432893720163403 0.5265308689875772 0.15 0.47346913101242283
v 13.47311741272681 23.999712006809936 -3.58161626494043 0.589162953271721 0.15 0.41083704672827903
v 12.82986172304828 26.66634840547225 -3.416634673821331 0.6534717058279508 0.15 0.3465282941720492
v 12.187681208641347 29.333020227381674 -3.2480782855315167 0.7196117087006512 0.15 0.28038829129934884
v 11.547047353174332 31.99973442656652 -3.0743869620868827 0.7889177650548826 0.15 0.21108223494511735
v 10.908930428725805 34.666495534338274 -2.892358148488495 0.8581805196718582 0.15 0.14181948032814184
v 10.273346243383793 37.333277145790035 -2.7019625271353034 0.9280481774130995 0.15 0.07195182258690047
v 9.637854835280509 40.00002143975888 -2.5112929840277323 1.0 0.15 0.0
l 583 584
l 584 585
l 585 586
l 586 587
l 587 588
l 588 589
l 589 590
l 590 591
l 591 592
l 592 593
l 593 594
l 594 595
l 595 596
l 596 597
l 597 598
v 19.530233138946347 0.8825079324084599 -2.5295595556365833 0.0 0.15 1.0
v 18.89062968447573 3.491287858693914 -2.401715659548503 0.09104318989240172 0.15 0.9089568101075983
v 18.252945676355633 6.0995964600148085 -2.25557962195234 0.15385292086081687 0.15 0.8461470791391832
v 17.616153850035975 8.70764325681439 -2.101049679282152 0.2161345104112523 0.15 0.7838654895887477
v 16.979668113024374 11.315591661441053 -1.9436616792828114 0.2786380094239886 0.15 0.7213619905760114
v 16.343188262301602 13.923534849161703 -1.7862271810494363 0.34125294707742143 0.15 0.6587470529225785
v 15.706650017493489 16.5314944793864 -1.6293438113404137 0.40388983534966927 0.15 0.5961101646503307
v 15.070158009877103 19.13944032208722 -1.4720260008968153 0.48514649324447134 0.15 0.5148535067555287
v 14.433858059379407 21.747324521548325 -1.3129146572435182 0.5405208088539829 0.15 0.4594791911460171
v 13.797866073677591 24.355106494217118 -1.1509359856166674 0.6045753630540173 0.15 0.39542463694598273
v 13.162255695330272 26.962759371312412 -0.9854104653955763 0.6686565934428292 0.15 0.33134340655717076
v 12.527122190010642 29.570244897160073 -0.8154679621261197 0.7327679517392583 0.15 0.26723204826074165
v 11.892626661047078 32.177496480676886 -0.6396417891195663 0.796907127519551 0.15 0.20309287248044905
v 11.258830389702593 34.784480326017025 -0.45739553168703634 0.8749999999999999 0.15 0.1250000000000001
v 10.624881138969945 37.39152680811507 -0.2765435110624268 0.9374999999999999 0.15 0.06250000000000011
v 9.987493594446331 39.99974299224109 -0.12763202410528113 1.0 0.15 0.0
l 599 600
l 600 601
l 601 602
l 602 603
l 603 604
l 604 605
l 605 606
l 606 607
l 607 608
l 608 609
l 609 610
l 610 611
l 611 612
l 612 613
l 613 614
v 19.848897362639796 6.458252968522964e-05 1.5340068478066535 0.0 0.15 1.0
v 19.19702472506235 2.6516943964609516 1.421968496124734 0.09158318465626855 0.15 0.9084168153437314
v 18.547535056934663 5.302853694167663 1.2869297412501361 0.13488189793059535 0.15 0.8651181020694046
v 17.899664252857626 7.953586790223753 1.1365362156682683 0.20348549615010902 0.15 0.796514503849891
v 17.252583934608875 10.604081585121543 0.9787216331408669 0.27364209171817006 0.15 0.7263579082818299
v 16.605828187060844 13.254472847059231 0.8178744150181728 0.3441137911367094 0.15 0.6558862088632906
v 15.959188049636394 15.904826683388041 0.6559483993191321 0.3899551030045611 0.15 0.6100448969954388
v 15.312575289841106 18.555171855035564 0.4937663934817771 0.45988079646291363 0.15 0.5401192035370863
v 14.666019971657262 21.205500016084663 0.3310443619260579 0.5280908488652833 0.15 0.47190915113471665
v 14.019569477527305 23.855794785510803 0.16734278397691227 0.5949579266656299 0.15 0.40504207333437015
v 13.37325006831744 26.50604607400271 0.002420649860980648 0.6874999999999999 0.15 0.3125000000000001
l 615 616
l 616 617
l 617 618
l 618 619
l 619 620
l 620 621
l 621 622
l 622 623
l 623 624
l 624 625
