v -22.090565794623338 0.39044323611586823 -10.610856595608256 1.0 0.0 0.0
v -19.720154424920185 4.826724477291602 -9.080622647181729 1.0 0.0 0.0
v -18.345993356153777 9.796631091723475 -9.082861219058582 1.0 0.0 0.0
v -19.46632017074887 14.53230743780132 -11.059614554400895 1.0 0.0 0.0
v -21.15815570545394 18.511134048603815 -14.142983709033555 1.0 0.0 0.0
v -22.813477547517067 23.193586214867334 -15.932047430451357 1.0 0.0 0.0
v -23.989447260535236 28.352094638980333 -16.064250290240015 1.0 0.0 0.0
v -24.239951037036068 33.6120877292337 -15.362603309172373 1.0 0.0 0.0
v -24.139277228572883 38.71206292314699 -13.893259544867954 1.0 0.0 0.0
v -23.671120251414486 43.72236276380935 -12.215178828705469 1.0 0.0 0.0
v -22.950928465925344 48.914410435007326 -11.383312045776313 1.0 0.0 0.0
v -22.30070735494329 54.06760918583996 -10.5218950341183 1.0 0.0 0.0
l 1 2
l 2 3
l 3 4
l 4 5
l 5 6
l 6 7
l 7 8
l 8 9
l 9 10
l 10 11
l 11 12
v -23.865514174887384 16.242208193382005 -10.453783318933922 0.0 1.0 0.0
v -26.60476294063978 20.768994617029133 -13.214295128064393 0.0 1.0 0.0
v -28.489181471305447 26.35817762977877 -14.035228695615105 0.0 1.0 0.0
v -28.809471029595844 32.2872477977675 -13.374538346656834 0.0 1.0 0.0
v -28.480629318430495 38.00910212904185 -11.637958537010428 0.0 1.0 0.0
v -28.068419870596053 43.85354447760661 -10.757190005604656 0.0 1.0 0.0
v -27.299130765044083 49.778761975243285 -10.887826490462002 0.0 1.0 0.0
v -25.861792717447507 55.525396760560085 -11.393592626308234 0.0 1.0 0.0
l 13 14
l 14 15
l 15 16
l 16 17
l 17 18
l 18 19
l 19 20
v -26.391659488921853 0.36187021864775365 -6.706726509730275 0.0 0.0 1.0
v -22.70760281346524 4.548769885797302 -4.801519690702435 0.0 0.0 1.0
v -19.21654799805654 8.798827465267687 -4.04652232214392 0.0 0.0 1.0
v -22.47949446532838 12.98038498684208 -5.6511810400049685 0.0 0.0 1.0
v -26.720829830124483 16.616037342606347 -7.525272504848388 0.0 0.0 1.0
v -30.25072548060662 20.926900419994855 -9.47120736954006 0.0 0.0 1.0
v -32.1371417850413 26.460000478494063 -10.286565886822098 0.0 0.0 1.0
v -31.965197612239166 32.32234651539236 -10.089553478383804 0.0 0.0 1.0
l 21 22
l 22 23
l 23 24
l 24 25
l 25 26
l 26 27
l 27 28
v -26.50366269671325 0.352138 -2.9796344521816995 0.0 0.0 1.0
v -25.772350102024166 0.3550129998838686 -2.169608663143145 0.0 0.0 1.0
v -24.66141813599646 2.6914769969704637 -1.8464252549971143 0.0 0.0 1.0
v -23.068452941595673 0.34931894738161684 1.4640136105512302 0.0 0.0 1.0
v -19.928335821574372 5.699153174161728 0.17102061450223785 0.0 0.0 1.0
v -23.028941886011214 12.272520999158312 -0.20895679020010213 0.0 0.0 1.0
l 32 33
l 33 34
v -21.687532506903462 0.35462965076847797 4.963982771311054 0.0 0.0 1.0
v -16.463602241813646 5.336753568389209 4.256327415876193 0.0 0.0 1.0
v -16.593426913481682 10.235743998845308 1.7581946178315164 0.0 0.0 1.0
l 35 36
l 36 37
v -23.544904280696464 0.3486914420887605 9.38193035407323 0.0 0.0 1.0
v -17.34715605307528 6.749639563385995 8.951303519105883 0.0 0.0 1.0
l 38 39
v -22.83769572899804 0.352139 14.298698590622116 0.0 0.0 1.0
v -21.748704693544443 3.692044960357683 14.136197546256225 0.0 0.0 1.0
l 40 41
v -26.821994169653493 14.729164708567012 -2.597306879429471 1.0 1.0 0.0
v -30.820114122233946 18.695016344066858 -4.175427211414817 1.0 1.0 0.0
v -33.45512570279624 23.739647301167967 -5.292218052748228 1.0 1.0 0.0
v -34.32822382454378 29.425649278427038 -5.9368216849834585 1.0 1.0 0.0
v -33.4922737160339 35.1541190424477 -6.651838989285109 1.0 1.0 0.0
v -32.22507758819778 40.74523301000248 -7.540179509302616 1.0 1.0 0.0
v -32.23680990765202 46.34795760983092 -9.200173805188646 1.0 1.0 0.0
l 42 43
l 43 44
l 44 45
l 45 46
l 46 47
l 47 48
v -18.106305024209185 1.2369989996461381 17.769676276791472 0.0 0.0 1.0
v -26.227301168452716 14.254540281416133 2.4021111681588128 0.0 1.0 0.0
v -30.30637513865518 17.92837976034516 0.9717878550383091 0.0 1.0 0.0
v -33.522206715093105 22.51868050623931 0.1154540724847109 0.0 1.0 0.0
v -35.41440478064719 27.791638906276606 -0.8243772458788479 0.0 1.0 0.0
v -35.76935548590111 33.39250459416556 -1.6347634260606558 0.0 1.0 0.0
v -35.075293679529814 38.85305977974183 -2.912172174902998 0.0 1.0 0.0
v -35.747370650870316 44.15912304323578 -4.734689706747566 0.0 1.0 0.0
v -34.48469166424529 49.4695345742634 -6.292996470385509 0.0 1.0 0.0
v -29.11292572431172 58.38364186266895 -10.307521442515034 0.0 1.0 0.0
l 50 51
l 51 52
l 52 53
l 53 54
l 54 55
l 55 56
l 56 57
l 57 58
v -32.008133 21.650438 5.806356 1.0 1.0 0.0
v -25.814653413226896 16.00279162246117 7.163326920135601 1.0 1.0 0.0
l 59 60
v -34.407274651090646 25.889156997781413 5.095767904838883 0.0 1.0 0.0
v -35.57891118858705 31.52410785159176 4.071040766083057 0.0 1.0 0.0
v -35.18064840840141 37.17142302179307 2.494901295208093 0.0 1.0 0.0
v -37.32595892568673 42.28701327176145 0.7679350124119044 0.0 1.0 0.0
v -37.42550344258895 47.85028241988215 -1.0234440937023428 0.0 1.0 0.0
v -35.64188851493545 53.168199795506226 -2.7233185913817386 0.0 1.0 0.0
v -29.369096043216267 61.24897646651941 -7.738347247765621 0.0 1.0 0.0
l 61 62
l 62 63
l 63 64
l 64 65
l 65 66
l 66 67
v -31.770502062558542 61.81167339309002 -3.2317445352611984 0.0 1.0 0.0
v -32.37710346489257 62.25280780630781 -0.7487214036015074 1.0 1.0 0.0
v -31.681490496247932 62.80714103891213 2.1428537065644617 0.0 1.0 0.0
v -25.310275172902983 63.493550978658575 -0.0968394921794341 0.0 1.0 0.0
l 70 71
v -22.51306327526663 63.43147104037262 1.626895479549193 0.0 1.0 0.0
v -19.66919822153636 62.65448691113055 6.560691935589605 1.0 1.0 0.0
v -17.012728396871015 59.888665918269126 5.3534439708971835 1.0 1.0 0.0
l 73 74
v -26.660148036699475 63.068902478987944 -4.113633675107416 0.0 1.0 0.0
v -18.034543536039504 57.28143105230519 8.985261762921137 1.0 1.0 0.0
v -21.74057613696985 61.18480127766155 11.62813716661914 1.0 1.0 0.0
l 76 77
v -19.273396098614164 12.647901124817299 5.86148272271246 1.0 1.0 0.0
v -21.213563480633155 15.152833638809954 9.699962426165971 1.0 1.0 0.0
v -24.976084603579253 18.632913148510184 11.590665937738448 1.0 1.0 0.0
v -28.46113098732197 22.92067772269741 12.066850806549382 1.0 1.0 0.0
v -31.2087774462981 27.63048705061241 11.14558105384463 1.0 1.0 0.0
v -33.17261613722387 32.46738162393377 9.20925961841474 1.0 1.0 0.0
v -33.78271314022292 37.61876121102196 7.204781781823184 1.0 1.0 0.0
v -36.58926436020505 42.16970988845982 5.981320733220124 1.0 1.0 0.0
v -38.09438028033206 47.16400619220836 4.343307923402296 1.0 1.0 0.0
v -37.07270432846431 52.3149561626638 2.5410572021703466 1.0 1.0 0.0
v -36.14936883492172 57.297341403984866 0.2828600088135176 1.0 1.0 0.0
l 78 79
l 79 80
l 80 81
l 81 82
l 82 83
l 83 84
l 84 85
l 85 86
l 86 87
l 87 88
v -15.315263296357543 4.9017312700879465 15.077542265392776 1.0 1.0 0.0
v -14.384209699201215 9.262579234706308 12.59916547520244 1.0 1.0 0.0
v -15.838658969027723 14.143879228548268 12.213417396599857 1.0 1.0 0.0
v -18.96641544586344 18.007007726217186 13.66377647423006 1.0 1.0 0.0
v -22.348258668540854 21.826263620617212 14.711881624382675 1.0 1.0 0.0
v -25.42112424960597 26.02162502032903 14.932621028596913 1.0 1.0 0.0
v -28.105609931291703 30.37138523146639 13.955965256817475 1.0 1.0 0.0
v -30.170631646283258 34.78734493728129 12.111213340217294 1.0 1.0 0.0
v -32.81486266352736 38.96981029535768 11.809134399191404 1.0 1.0 0.0
v -36.448325057849345 42.52104020450234 11.055173304946855 1.0 1.0 0.0
v -37.31953839167535 47.438392371682625 9.830314236971123 1.0 1.0 0.0
v -36.6981213438987 52.202548508074955 7.817069578894383 1.0 1.0 0.0
v -36.84430422785947 56.88322242091522 5.6108035156090414 1.0 1.0 0.0
v -35.8799128855761 60.91799278780817 2.574878324878615 1.0 1.0 0.0
l 89 90
l 90 91
l 91 92
l 92 93
l 93 94
l 94 95
l 95 96
l 96 97
l 97 98
l 98 99
l 99 100
l 100 101
l 101 102
v -35.457216054268706 41.033223653666084 15.810369644812887 1.0 1.0 0.0
v -36.9543802363007 47.16896846697037 15.505908110328242 1.0 1.0 0.0
v -36.12509286694152 53.129373087228245 12.957553385470769 1.0 1.0 0.0
v -33.00628453828309 62.282754780021335 4.658454597557456 1.0 1.0 0.0
l 103 104
l 104 105
l 105 106
v -29.842190645636272 39.48528457815444 16.77710943729808 0.0 1.0 0.0
v -32.27433520594071 44.3139671835092 19.42073713054456 0.0 1.0 0.0
v -33.43312602602789 50.252816048872035 19.118136844573996 0.0 1.0 0.0
v -32.90685869343975 55.619769217119554 16.203418724452455 0.0 1.0 0.0
v -31.53891440502825 60.01714812309066 12.12892307175323 0.0 1.0 0.0
v -29.306741417828405 62.81989374922868 7.146179785546601 0.0 1.0 0.0
v -25.349411696364893 63.53495451610722 2.6914300226749206 0.0 1.0 0.0
l 107 108
l 108 109
l 109 110
l 110 111
l 111 112
l 112 113
v -10.9744605666741 0.3304173716340264 15.887810590506906 0.0 0.0 1.0
v -9.826577919154316 5.450946694279206 14.943202517181955 0.0 0.0 1.0
v -10.190499878171714 10.720236612094254 14.697050790659278 0.0 0.0 1.0
v -12.007795499013817 15.742772529552814 14.874666699831339 0.0 0.0 1.0
v -14.97095498451245 20.146650766593957 15.391163944614119 0.0 0.0 1.0
v -18.310838581637647 24.24895032968409 16.12806710377998 0.0 0.0 1.0
v -21.409850762634633 28.590593489203208 16.386763482455418 0.0 0.0 1.0
v -24.04726992291004 33.15162527656582 15.47426559396212 0.0 0.0 1.0
v -26.492134346179476 37.702262576499294 14.667170356337616 0.0 0.0 1.0
v -26.586138504585616 40.99244759190287 18.682031437983085 0.0 0.0 1.0
v -27.07455776611934 45.73565880757452 20.80700594715682 0.0 0.0 1.0
v -27.660105893530062 50.99942137872361 20.126879282409746 0.0 0.0 1.0
v -27.780541405818443 55.86915068837412 17.99808310132658 0.0 0.0 1.0
v -25.70367990833116 62.30481572472786 9.944018901633529 0.0 0.0 1.0
l 114 115
l 115 116
l 116 117
l 117 118
l 118 119
l 119 120
l 120 121
l 121 122
l 122 123
l 123 124
l 124 125
l 125 126
l 126 127
v -6.762381918098881 0.33256820963546563 18.542364462205654 0.0 0.0 1.0
v -5.605534558384282 5.0987961284111964 16.933753081580278 0.0 0.0 1.0
v -4.908380283561136 9.154062351054208 13.914586342146755 0.0 0.0 1.0
v -6.240504093358553 14.11691969366896 14.338439257639537 0.0 0.0 1.0
v -8.248169978159199 18.8373459742163 15.138343372088626 0.0 0.0 1.0
v -11.092819289260762 23.176815709101465 15.519173797113048 0.0 0.0 1.0
v -14.305711463178271 27.17291620584465 16.371015924302885 0.0 0.0 1.0
v -17.113037767081735 31.535501027970728 16.27551723878995 0.0 0.0 1.0
v -19.607256325680293 36.021874752913654 15.415011893554931 0.0 0.0 1.0
v -22.08059280988773 40.363982478180304 14.740393417130887 0.0 0.0 1.0
v -22.511228096967653 44.72943832176988 17.386273671737065 0.0 0.0 1.0
v -23.465360100949663 49.75429278913393 16.824416995105455 0.0 0.0 1.0
v -23.63793923710217 54.6726001747358 15.201136153338506 0.0 0.0 1.0
v -22.854903740094006 62.768806571041324 9.633441300444709 0.0 0.0 1.0
l 128 129
l 129 130
l 130 131
l 131 132
l 132 133
l 133 134
l 134 135
l 135 136
l 136 137
l 137 138
l 138 139
l 139 140
l 140 141
v -2.282217188228602 0.2595135801766204 21.455925915786644 0.0 0.0 1.0
v -1.442881081439981 5.101062197625244 19.773017921855843 0.0 0.0 1.0
v -0.6582417042098836 9.269708349669095 16.750772305996882 0.0 0.0 1.0
v -1.664184994946038 14.385996172921681 15.729949834398223 0.0 0.0 1.0
v -3.342085150599704 19.430608933522088 15.703730996281754 0.0 0.0 1.0
v -5.650619284690554 24.201834049016625 15.515186524793842 0.0 0.0 1.0
v -8.871615134850025 28.38255852523728 15.77738189999044 0.0 0.0 1.0
v -11.92449886207231 32.71754116580089 15.430476874376179 0.0 0.0 1.0
v -14.655245256539748 37.15531904371473 14.447507513412349 0.0 0.0 1.0
v -17.413596874436212 41.41365501140346 12.991771663452395 0.0 0.0 1.0
v -18.736191055223706 46.421148026532464 13.869049560729946 0.0 0.0 1.0
v -19.82917771756556 56.41747529837809 10.91820012659683 0.0 0.0 1.0
l 142 143
l 143 144
l 144 145
l 145 146
l 146 147
l 147 148
l 148 149
l 149 150
l 150 151
l 151 152
l 152 153
v 4.546432080674517 0.36915465626876265 20.041514059281848 0.0 0.0 1.0
v 3.476505137473519 6.245862120711382 18.95914485046905 0.0 0.0 1.0
v 2.082314130913662 12.141393504251033 19.813062583455174 0.0 0.0 1.0
v 0.05657057367976537 17.94413330091456 19.973899454386757 0.0 0.0 1.0
v -2.425209461078066 23.550577122335845 19.764275622815795 0.0 0.0 1.0
l 154 155
l 155 156
l 156 157
l 157 158
v 8.481669168143727 0.20801514334374577 18.344189723228972 0.0 0.0 1.0
v 8.426066632853688 5.434742828491109 19.36890538894448 0.0 0.0 1.0
v 7.2968039019077136 10.16471885671901 21.64924275544563 0.0 0.0 1.0
v 5.547331881352013 15.17975682091324 22.445650938414488 0.0 0.0 1.0
v 3.23409720982776 20.05435051853203 22.617992960857507 0.0 0.0 1.0
v 0.39874139262674674 24.60587382553104 22.269469393367846 0.0 0.0 1.0
v -2.3663643455397665 27.89715764853139 19.185623240007484 0.0 0.0 1.0
v -5.14667518463678 31.743828536495453 16.846387242434695 0.0 0.0 1.0
v -8.068149737351549 35.72020134260726 14.67301335567543 0.0 0.0 1.0
v -10.957655829945598 39.77127852865122 12.59062593345149 0.0 0.0 1.0
v -14.07113515528979 43.46385289246712 10.172274471127409 0.0 0.0 1.0
v -16.52610169852653 53.51113224027527 7.620292456719355 0.0 0.0 1.0
l 159 160
l 160 161
l 161 162
l 162 163
l 163 164
l 164 165
l 165 166
l 166 167
l 167 168
l 168 169
l 169 170
v 8.45201685006732 19.15219549228299 23.890047770633622 1.0 1.0 0.0
v 6.000159380288599 24.38941131687581 23.74609440618991 1.0 1.0 0.0
v 3.206329787720817 29.216512879151264 22.26818522446171 1.0 1.0 0.0
v 0.9484898470577052 32.57471959534118 18.186173122034376 1.0 1.0 0.0
v -2.2309072782501578 36.45323907976134 15.382106128707878 1.0 1.0 0.0
v -5.343411713244015 40.103762527779296 12.128837718685148 1.0 1.0 0.0
v -9.09353162078132 43.52755526441149 9.350184719602838 1.0 1.0 0.0
v -13.00490332189389 46.80301077133235 6.775841033838118 1.0 1.0 0.0
l 171 172
l 172 173
l 173 174
l 174 175
l 175 176
l 176 177
l 177 178
v 13.618853 15.811298 22.970055 1.0 1.0 0.0
v 13.68249417967845 0.011668427729592729 16.967178022263724 1.0 0.0 0.0
v 13.487033392694737 4.587118445152365 18.83130975927654 1.0 0.0 0.0
v 13.15125144645448 8.759586283586318 21.511557606498524 1.0 0.0 0.0
v 12.39991973807196 13.443326098715344 23.08379128492048 1.0 0.0 0.0
v 12.67288451359901 18.41334698731728 23.416369339505728 1.0 0.0 0.0
v 11.350138230312488 23.21009021490433 23.651026513774188 1.0 0.0 0.0
v 9.30124052020113 27.703741447408223 22.916136185453666 1.0 0.0 0.0
v 7.230559335985779 31.683963716067055 20.895752334776088 1.0 0.0 0.0
v 5.7854597229329165 34.6242592058332 17.26800489943656 1.0 0.0 0.0
v 2.740877529984061 38.0717087239877 15.380141528356784 1.0 0.0 0.0
v -0.11572201654533132 41.18055447433951 12.728027740478582 1.0 0.0 0.0
v -2.8462445279011526 43.826973910230265 9.494076628356254 1.0 0.0 0.0
v -6.336616439103167 46.024204464392824 6.747216574054097 1.0 0.0 0.0
v -10.237196504648393 48.09496925878666 4.4262543157332 1.0 0.0 0.0
v -13.3204460118186 51.54616593684897 2.9041366601277794 1.0 0.0 0.0
v -15.93254822333129 55.44129808541362 1.5247067691465777 1.0 0.0 0.0
l 180 181
l 181 182
l 182 183
l 183 184
l 184 185
l 185 186
l 186 187
l 187 188
l 188 189
l 189 190
l 190 191
l 191 192
l 192 193
l 193 194
l 194 195
v -10.324395213672087 49.01463747032231 -0.7262300447996426 1.0 1.0 0.0
v -0.9185721753981819 47.88148605711956 -2.1327580855555235 1.0 1.0 0.0
l 196 197
v -6.4068452477719315 48.11588327952957 -1.1337320697883366 1.0 1.0 0.0
v -3.9397689292630247 47.16248400621345 2.252136126050794 1.0 1.0 0.0
l 198 199
v -12.868212647335492 50.50017324385214 -3.41545239298125 0.0 1.0 0.0
v -14.361801171973926 50.19683599605632 -6.861991122977871 0.0 1.0 0.0
v 2.6232581797072942 44.819990819105925 10.941649707884878 1.0 1.0 0.0
v 8.000237926914728 46.546925542007386 10.731148019435166 1.0 1.0 0.0
v 12.924636 48.533028 8.402229 1.0 1.0 0.0
l 202 203
l 203 204
v 11.398274 49.57761 6.25886 1.0 1.0 0.0
v 3.0974857987662916 47.77103504122681 6.362193086085981 1.0 1.0 0.0
l 205 206
v 2.7418639567338143 48.89386720203765 1.2064119498230488 0.0 1.0 0.0
v -1.7064346583132841 48.071929114461696 -2.811466158230806 0.0 1.0 0.0
v -6.206895771364113 47.41796660471929 -6.67250460504953 0.0 1.0 0.0
v -17.118006830384115 52.261301307452435 -8.651118648641116 0.0 1.0 0.0
l 207 208
l 208 209
l 209 210
v -14.897721 55.624995999999996 -4.498063500000001 0.0 1.0 0.0
v 19.093655452445084 0.41298242891541237 16.245361900584715 0.0 0.0 1.0
v 18.136508545003146 5.867187170319184 17.965846323997688 0.0 0.0 1.0
v 17.887815374676475 11.119217267370479 20.424460570821942 0.0 0.0 1.0
v 17.707601827488723 16.794920306229116 21.785535264482213 0.0 0.0 1.0
v 16.670680057015232 22.46654265851532 22.574901112838397 0.0 0.0 1.0
v 14.744086238111018 27.93200902212943 22.582165879425474 0.0 0.0 1.0
v 11.635708235514851 32.537272319911814 20.903122883778657 0.0 0.0 1.0
l 212 213
l 213 214
l 214 215
l 215 216
l 216 217
l 217 218
v 22.046664399090268 7.500691103574424 16.376562600582602 1.0 1.0 0.0
v 22.42694944489953 12.77577697614836 18.665609462204355 1.0 1.0 0.0
v 22.089462207644704 18.44860285539942 19.966429342826615 1.0 1.0 0.0
v 21.02568953134759 24.08999359884917 20.597937633745758 1.0 1.0 0.0
v 18.927820674485364 29.50058091809495 20.129570138519977 1.0 1.0 0.0
v 15.620086604015158 33.9134206133417 18.333938909229193 1.0 1.0 0.0
v 11.462051469429207 37.37562967980928 16.37042843869948 1.0 1.0 0.0
v 7.031424579329842 40.82862640373725 14.892071459153549 1.0 1.0 0.0
l 219 220
l 220 221
l 221 222
l 222 223
l 223 224
l 224 225
l 225 226
v 13.560611 50.581352 -0.869954 1.0 1.0 0.0
v 10.500228 50.350845 -1.434569 1.0 1.0 0.0
l 227 228
v 23.205287604302605 0.34453242309692167 11.645081508548513 0.0 0.0 1.0
v 25.245799381341673 4.977315987648269 13.3537175621526 0.0 0.0 1.0
v 26.225304434677337 10.040764081568794 14.909734312773606 0.0 0.0 1.0
v 26.216984966232953 15.226266966176865 16.30136222078838 0.0 0.0 1.0
v 25.843238761548694 20.476898775542868 17.419110470700538 0.0 0.0 1.0
v 25.065198984976806 25.76073558874581 18.11610408009698 0.0 0.0 1.0
v 23.245985354718737 30.830373481883452 17.992374500011262 0.0 0.0 1.0
v 20.61518490705016 35.41448175709056 17.047827475615282 0.0 0.0 1.0
v 16.886716594138328 38.84594303410182 15.202963659445807 0.0 0.0 1.0
v 12.852746466436201 42.25232325725647 14.148606410759307 0.0 0.0 1.0
l 229 230
l 230 231
l 231 232
l 232 233
l 233 234
l 234 235
l 235 236
l 236 237
l 237 238
v 29.017773 13.788177 14.357708 1.0 1.0 0.0
v 31.667091 12.276165 10.695154 1.0 1.0 0.0
l 239 240
v 32.290771 14.457385 10.743063 1.0 1.0 0.0
v 34.399574 17.282202 7.558794 1.0 1.0 0.0
l 241 242
v 25.38938675811887 0.35349088057498573 7.015122719288879 0.0 0.0 1.0
v 30.19467753246795 7.9277754705207375 10.72673801758287 0.0 0.0 1.0
l 243 244
v 29.08225982645194 0.3591968400060137 3.865337298176783 0.0 0.0 1.0
v 34.182432040620775 4.905647183979788 8.441015452126866 0.0 0.0 1.0
v 36.1475404138252 12.665976553860961 9.579973539917535 0.0 0.0 1.0
l 245 246
l 246 247
v 31.325286999999996 0.35213799999999995 -1.1733849999999961 0.0 0.0 1.0
v 35.14044513888395 2.9147673853569867 2.5362059059310544 0.0 0.0 1.0
v 38.78011885802597 6.150138328541294 5.68852604633032 0.0 0.0 1.0
v 40.84628789034057 11.39689050951119 7.16287493621842 0.0 0.0 1.0
v 38.81401054905287 16.533935706964982 6.996422162306655 0.0 0.0 1.0
l 248 249
l 249 250
l 250 251
l 251 252
v 34.36687303875589 2.080450890615121 2.1714578752792226 0.0 0.0 1.0
v 36.157017 2.737808 -0.242376 0.0 0.0 1.0
l 253 254
v 29.339564038043708 18.212057069714778 14.130801083790924 1.0 1.0 0.0
v 29.40899601178084 24.184047428254047 14.976108198628964 1.0 1.0 0.0
v 28.16417360472145 30.066568924241412 15.337435245982178 1.0 1.0 0.0
v 25.490021464535374 35.42031260914542 14.555963378021769 1.0 1.0 0.0
v 21.875548576649322 40.098316706344335 13.333716467891753 1.0 1.0 0.0
v 17.327126965759472 43.94561984007133 12.340834481858446 1.0 1.0 0.0
v 12.43242295949927 47.00265327139236 10.592484861818988 1.0 1.0 0.0
l 255 256
l 256 257
l 257 258
l 258 259
l 259 260
l 260 261
v 32.67640547119777 20.38529265239037 10.732188414397065 1.0 1.0 0.0
v 32.450482557775345 26.255447776068515 11.204648486309479 1.0 1.0 0.0
v 31.047881099320122 31.95960914879675 11.451587701801747 1.0 1.0 0.0
v 28.548590623317466 37.288565558862224 11.123883816943236 1.0 1.0 0.0
v 25.293320706067703 42.117016085609556 10.377897404522558 1.0 1.0 0.0
v 20.878686343261293 45.88107963890796 9.491621421455314 1.0 1.0 0.0
v 15.871736589269293 48.62578228008297 8.060921659409596 1.0 1.0 0.0
l 262 263
l 263 264
l 264 265
l 265 266
l 266 267
l 267 268
v 35.204623564753874 19.121029899964604 6.077317888984306 1.0 1.0 0.0
v 34.87305503168637 25.451438800347436 6.698664078040569 1.0 1.0 0.0
v 33.657172430122536 31.68272179925452 7.088736669862844 1.0 1.0 0.0
v 31.23338502242398 37.568924959512785 7.121903029349359 1.0 1.0 0.0
l 269 270
l 270 271
l 271 272
v 21.280827607309945 48.101513668142665 4.302534608659719 1.0 1.0 0.0
v 15.594716407220318 50.23641943290778 2.839299787701799 1.0 1.0 0.0
l 273 274
v 29.718165412794512 0.352138 -4.7684958023651935 0.0 0.0 1.0
v 32.05424858998546 2.1725471226862316 -6.982967139505381 0.0 0.0 1.0
l 275 276
v 35.985482255617036 23.754095830630085 1.8274448121311824 1.0 1.0 0.0
v 35.164194666126264 30.374742056444678 2.4467194836723625 1.0 1.0 0.0
v 32.78813532195245 36.5814009533801 3.2768965077561476 1.0 1.0 0.0
v 29.22725584993352 41.86863911930115 4.822109173182295 1.0 1.0 0.0
v 25.797247121558062 45.22247515594086 5.338775777111509 1.0 1.0 0.0
l 277 278
l 278 279
l 279 280
l 280 281
v 35.943439 26.894593999999998 -2.536187 1.0 1.0 0.0
v 38.569426806870524 4.354933219699549 0.9985467213274655 1.0 1.0 0.0
v 43.06857612871733 10.81761346978489 2.536155828930821 1.0 1.0 0.0
v 41.549896397631606 18.396866965898987 3.2617805080005615 1.0 1.0 0.0
l 283 284
l 284 285
v 36.43644608353604 3.193689731316911 -3.257032648523244 1.0 1.0 0.0
v 41.74035167908048 8.13372518922009 -2.8993379167405604 1.0 1.0 0.0
v 43.53687954481543 15.000740934313855 -1.7572594540705804 1.0 1.0 0.0
v 38.710896 19.383301 -1.586543 1.0 1.0 0.0
l 286 287
l 287 288
l 288 289
v 38.635525 17.411915 -5.512014 1.0 1.0 0.0
v 41.015919 13.68697 -6.720177 1.0 1.0 0.0
l 290 291
v 38.619835 15.238018 -7.387548 1.0 1.0 0.0
v 34.31996437684683 4.212774062105568 -7.772464635663882 1.0 1.0 0.0
v 39.59184731814333 8.964959202577653 -7.526293977958229 1.0 1.0 0.0
l 293 294
v 35.69343283480115 29.271359203410654 -1.6723874489475385 1.0 1.0 0.0
v 33.66113359507229 35.68751572477336 -1.0523512656562146 1.0 1.0 0.0
v 30.062431041345636 41.408374295938316 -1.1976375892761433 1.0 1.0 0.0
v 25.251827061716774 46.14910506218452 -1.3483732690833934 1.0 1.0 0.0
v 19.33735192839829 49.42667874750978 -1.3290507766341548 1.0 1.0 0.0
l 295 296
l 296 297
l 297 298
l 298 299
v 35.93834778234927 20.76131362330102 -4.710919484630503 1.0 1.0 0.0
v 35.7106007654307 26.41039823300699 -5.354104208783799 1.0 1.0 0.0
v 34.61179373042205 31.94602347437591 -5.9494241596797055 1.0 1.0 0.0
v 32.335451827142144 37.14298045642524 -5.95368345954064 1.0 1.0 0.0
v 29.08361850109488 41.80588474645509 -6.068463981513123 1.0 1.0 0.0
v 24.844684077464375 45.58974472293887 -5.953082186653546 1.0 1.0 0.0
v 20.00367728168246 48.5222734266116 -5.528954306943947 1.0 1.0 0.0
v 15.41217909522073 49.91519011996714 -5.361604540959425 1.0 1.0 0.0
v 13.729588000000001 47.789467 -10.334834000000003 1.0 1.0 0.0
l 300 301
l 301 302
l 302 303
l 303 304
l 304 305
l 305 306
l 306 307
l 307 308
v 34.458396967863834 8.922256856554057 -9.964469457144881 1.0 1.0 0.0
v 34.05371635987348 14.111182197954129 -8.775595279511945 1.0 1.0 0.0
v 34.1652542167012 19.41528352105329 -9.477112466829706 1.0 1.0 0.0
v 34.112315970334464 24.769658110368766 -9.92039130124047 1.0 1.0 0.0
v 33.2411795876695 30.00645405129759 -10.401491104085988 1.0 1.0 0.0
v 31.390114949080495 35.034430200098534 -10.679463154218045 1.0 1.0 0.0
v 28.635305381327985 39.623304267760446 -10.675226727654348 1.0 1.0 0.0
v 24.80153763507892 43.36479863014932 -10.438529941917505 1.0 1.0 0.0
v 20.31777880465605 46.24975019384097 -9.877571518072338 1.0 1.0 0.0
l 309 310
l 310 311
l 311 312
l 312 313
l 313 314
l 314 315
l 315 316
l 316 317
v 25.941475574446542 0.2939837100012357 -6.993004123142408 0.0 0.0 1.0
v 28.35573598183641 4.280657931512716 -9.68789991288289 0.0 0.0 1.0
v 30.194926758263282 9.105222124431519 -11.375658858801435 0.0 0.0 1.0
v 31.452248888434895 14.151031297006169 -12.94854210572158 0.0 0.0 1.0
v 31.4712522608404 19.4977248343907 -13.818091995166967 0.0 0.0 1.0
v 31.432368174707825 24.859140113403114 -14.619073383764237 0.0 0.0 1.0
v 29.891088863123436 30.03279722229097 -14.62045647247879 0.0 0.0 1.0
v 27.63545870885842 34.98143236293799 -14.59335997256218 0.0 0.0 1.0
v 24.273359222783668 39.21136788653769 -14.062838784732474 0.0 0.0 1.0
v 20.49318834773947 43.063677651571716 -13.472824679143582 0.0 0.0 1.0
v 16.094089248631935 45.947157307403124 -12.211949977958463 0.0 0.0 1.0
v 12.504907070333957 48.489618088630856 -9.101697475668262 0.0 0.0 1.0
v 7.415087993236859 48.94998510519362 -7.535061022280349 0.0 0.0 1.0
v 3.1090668205426923 48.46959130648038 -5.771696946821063 0.0 0.0 1.0
v -1.883846048948747 47.339501140046636 -3.930724444288394 0.0 0.0 1.0
l 318 319
l 319 320
l 320 321
l 321 322
l 322 323
l 323 324
l 324 325
l 325 326
l 326 327
l 327 328
l 328 329
l 329 330
l 330 331
l 331 332
v 22.24935103235064 0.3122558880011811 -10.912894504123908 0.0 0.0 1.0
v 24.95467231001927 4.272853753203253 -13.070644658606751 0.0 0.0 1.0
v 27.246626793353112 8.487459386225488 -15.129759776300942 0.0 0.0 1.0
v 28.056227576807338 13.484805375568172 -16.555747246784964 0.0 0.0 1.0
v 28.057003261289697 18.66668242216152 -17.446921633743933 0.0 0.0 1.0
v 27.497915719732077 23.87159748002722 -17.85163668087187 0.0 0.0 1.0
v 26.263230691487614 28.96548388296897 -17.883950540200658 0.0 0.0 1.0
v 23.7428578331362 33.56586505585554 -17.598797920313473 0.0 0.0 1.0
v 20.334731626370512 37.46250349479613 -16.687753154686863 0.0 0.0 1.0
v 16.65881468750396 41.174629033920304 -16.166215911849147 0.0 0.0 1.0
v 12.356322428760723 43.779846836838466 -14.766242225593468 0.0 0.0 1.0
v 7.901672525919659 45.718843700146635 -12.751591539566334 0.0 0.0 1.0
v 3.063222738183648 46.07762401480126 -10.819884318688274 0.0 0.0 1.0
v -1.9111071149326277 45.93505087635748 -9.201210373979231 0.0 0.0 1.0
l 333 334
l 334 335
l 335 336
l 336 337
l 337 338
l 338 339
l 339 340
l 340 341
l 341 342
l 342 343
l 343 344
l 344 345
l 345 346
v 20.91724580159651 0.3769873971004232 -15.960985150904612 0.0 0.0 1.0
v 23.089382660042567 5.595646260669213 -17.86501894923311 0.0 0.0 1.0
v 24.23993788843177 11.110336844414524 -19.73270935918472 0.0 0.0 1.0
v 23.88960416780839 17.009312351893175 -20.655366089286403 0.0 0.0 1.0
v 23.303645435783903 22.95184746747278 -20.792448160207222 0.0 0.0 1.0
v 21.70523805293013 28.651609271362304 -20.274791196547366 0.0 0.0 1.0
v 18.189720529477487 33.295022282012006 -19.129914983089147 0.0 0.0 1.0
v 14.108283564160118 37.425737592009625 -17.728774686819897 0.0 0.0 1.0
l 347 348
l 348 349
l 349 350
l 350 351
l 351 352
l 352 353
l 353 354
v 17.671747432905946 28.80832939071584 -22.75661083457256 1.0 1.0 0.0
v 8.042397 38.461475 -18.657484 1.0 1.0 0.0
v 17.84190191218144 0.33274166580314835 -18.347957503417994 0.0 0.0 1.0
v 19.006081282766566 5.258826904264042 -20.20109997580103 0.0 0.0 1.0
v 19.38471747592367 10.287553644171114 -22.065727000821408 0.0 0.0 1.0
v 18.471104685967997 15.492936830074354 -23.111358932040943 0.0 0.0 1.0
v 16.639341599373484 20.445823005368716 -24.17560223506366 0.0 0.0 1.0
v 14.998702800962121 25.56934960466912 -24.26607914293479 0.0 0.0 1.0
v 13.579982442809307 30.525835208063597 -22.968628202270118 0.0 0.0 1.0
v 10.988034107416327 34.27151033796268 -20.11035249462901 0.0 0.0 1.0
v 8.378092478666117 38.60875709933264 -18.49697573877973 0.0 0.0 1.0
v 6.469201466678932 42.1144883295111 -15.392814720380025 0.0 0.0 1.0
l 357 358
l 358 359
l 359 360
l 360 361
l 361 362
l 362 363
l 363 364
l 364 365
l 365 366
v 13.951725343198243 0.37689739852917226 -19.18055150524234 0.0 0.0 1.0
v 14.299556213682148 5.151476789512704 -21.277752388312926 0.0 0.0 1.0
v 14.072874915605137 9.937283786592879 -23.342644913086545 0.0 0.0 1.0
v 13.106043426001314 14.905322052787684 -24.709592775759788 0.0 0.0 1.0
v 11.684972953719484 19.87253692936582 -25.635553159657064 0.0 0.0 1.0
v 10.264811948121217 24.913559381122997 -25.91312310385972 0.0 0.0 1.0
v 8.891461782713998 29.780722145268996 -24.658231292847056 0.0 0.0 1.0
v 6.69284323520942 33.256100915852016 -21.47369086064751 0.0 0.0 1.0
v 4.231591792821655 37.14660378861069 -19.013859968776 0.0 0.0 1.0
v 0.9957697703204811 40.513467871102925 -16.646402539179498 0.0 0.0 1.0
v -3.2952180337218184 42.20304631581659 -14.443858963608402 0.0 0.0 1.0
l 367 368
l 368 369
l 369 370
l 370 371
l 371 372
l 372 373
l 373 374
l 374 375
l 375 376
l 376 377
v 10.178171100349731 5.160647634401897 -21.96470704883298 1.0 1.0 0.0
v 8.9705066561181 10.421947441103173 -24.504545783040626 1.0 1.0 0.0
v 7.583276034193261 16.007810458979158 -26.080126638293223 1.0 1.0 0.0
v 5.851926304129615 21.641295996939782 -27.037706557532623 1.0 1.0 0.0
v 4.337652714383595 27.347386430307612 -26.462278153479396 1.0 1.0 0.0
v 2.6922391003797164 31.68720433626929 -22.906100299409342 1.0 1.0 0.0
v 0.049367976347939074 35.534092028326185 -19.47669879520521 1.0 1.0 0.0
v -2.939921082531529 39.57757169668368 -16.38794004952777 1.0 1.0 0.0
l 378 379
l 379 380
l 380 381
l 381 382
l 382 383
l 383 384
l 384 385
v -5.22082762028291 37.748702805472426 -17.507029334941496 1.0 1.0 0.0
v -5.661612181495651 40.52569613842195 -16.055779551417068 1.0 1.0 0.0
l 386 387
v 7.673032709153896 0.4214342553095914 -20.20924654936968 0.0 0.0 1.0
v 5.600689395012996 5.094590167167113 -22.29312865764601 0.0 0.0 1.0
v 4.017259512941749 9.864099098737384 -24.70253725176892 0.0 0.0 1.0
v 2.5674911316247875 14.94825784220237 -26.472353008594713 0.0 0.0 1.0
v 0.9366075194632171 20.199032246710587 -27.3982060921336 0.0 0.0 1.0
v -0.431616915183855 25.55725157503827 -26.849800506318985 0.0 0.0 1.0
v -1.320024916854965 29.938873229862217 -23.733506057863874 0.0 0.0 1.0
v -2.550178517941469 33.113904967126004 -19.45616244546842 0.0 0.0 1.0
l 388 389
l 389 390
l 390 391
l 391 392
l 392 393
l 393 394
l 394 395
v 1.331028422374123 0.36488523195657463 -21.624911795020942 0.0 0.0 1.0
v 0.36919079833880575 6.141604390767494 -22.07331627041898 0.0 0.0 1.0
v -1.0713679634493334 11.662751562834957 -23.505982151129835 0.0 0.0 1.0
v -2.84294318601989 17.1757848798137 -24.576629423978208 0.0 0.0 1.0
v -4.38876805463367 22.820254171553547 -24.572055525966295 0.0 0.0 1.0
v -4.523766761632307 27.994242366279025 -21.942524397908763 0.0 0.0 1.0
l 396 397
l 397 398
l 398 399
l 399 400
l 400 401
v -11.61593320167529 44.78690140785562 -13.597052915633766 1.0 1.0 0.0
v -10.05410537890231 46.21147457240485 -12.105723748268325 1.0 1.0 0.0
l 402 403
v -13.885156729786894 44.07870755317022 -14.10940088946822 1.0 1.0 0.0
v -7.532652328888707 0.36007465750312195 -22.875656081248778 0.0 0.0 1.0
v -5.167662642494275 4.685923776717965 -21.048592906991303 0.0 0.0 1.0
v -3.8358306012070065 9.380527536890241 -19.337806666641136 0.0 0.0 1.0
v -4.597585232555529 14.645564586475071 -19.443150834450122 0.0 0.0 1.0
v -5.985378773729572 19.789664692097258 -19.733182431615933 0.0 0.0 1.0
v -7.252515244566878 24.961492098934848 -19.42481905613013 0.0 0.0 1.0
v -8.756170053183428 30.072231426995955 -19.23652913198103 0.0 0.0 1.0
v -9.921900683933092 35.14168477049052 -18.069419672578867 0.0 0.0 1.0
v -10.796642234879705 40.00535688965225 -16.123177063238145 0.0 0.0 1.0
l 405 406
l 406 407
l 407 408
l 408 409
l 409 410
l 410 411
l 411 412
l 412 413
v -11.524634256680386 0.48872267016173354 -20.09183444886505 0.0 0.0 1.0
v -9.034620803191393 4.599705209792692 -17.521222992544903 0.0 0.0 1.0
v -6.178820376693762 8.14716854846389 -14.625510484697156 0.0 0.0 1.0
v -6.704057506816334 13.396518491833216 -14.742496630762776 0.0 0.0 1.0
v -8.900005735099814 18.21414511431238 -15.93929256398322 0.0 0.0 1.0
v -11.06157611257959 23.054194366281312 -17.25560431500689 0.0 0.0 1.0
v -12.941336342082723 28.059985513929547 -18.334228313587836 0.0 0.0 1.0
v -14.62159995131725 33.24159923217896 -18.369070980728466 0.0 0.0 1.0
v -15.645015845181778 38.40003542668223 -16.946957466767696 0.0 0.0 1.0
v -15.966389131545805 47.02977570721525 -10.57642105047873 0.0 0.0 1.0
l 414 415
l 415 416
l 416 417
l 417 418
l 418 419
l 419 420
l 420 421
l 421 422
l 422 423
v -13.779937796719606 0.385663300632453 -13.913704393092512 0.0 0.0 1.0
v -11.816035895466547 5.527262136617694 -12.978540837724301 0.0 0.0 1.0
v -11.44695535083325 11.081316056501203 -13.263113946312961 0.0 0.0 1.0
v -13.778478381576823 16.063137152862787 -14.418347350283392 0.0 0.0 1.0
v -15.680795214190729 21.004678852326915 -16.37260413415391 0.0 0.0 1.0
v -17.57301332546434 26.053712887674735 -17.917015411603966 0.0 0.0 1.0
v -19.17587530850206 31.44798598284267 -17.742137529505627 0.0 0.0 1.0
v -20.180848757273893 36.866199040944956 -16.5078219238677 0.0 0.0 1.0
v -20.565359062687268 41.91007987061362 -14.049741726623935 0.0 0.0 1.0
v -20.32355611777782 46.6352380582604 -10.996402541616803 0.0 0.0 1.0
l 424 425
l 425 426
l 426 427
l 427 428
l 428 429
l 429 430
l 430 431
l 431 432
l 432 433
v -16.550553989877052 0.3514584013574852 -12.997723818172323 0.0 0.0 1.0
v -15.19570876341426 5.509942437864115 -11.538841435797613 0.0 0.0 1.0
l 434 435
