v -22.335420740692943 0.40043758133997465 -10.510261476757718 0.0 0.15 1.0
v -20.279813187081835 4.887603848358541 -8.541888418692754 0.08000792190212161 0.15 0.9199920780978784
v -18.59395832740401 9.762955798837003 -8.822896897965906 0.18245140723473968 0.15 0.8175485927652604
v -20.36597222848203 14.400191036793643 -10.495192117255918 0.28851550674007087 0.15 0.7114844932599291
v -22.587504446217725 18.40090163195454 -13.32110135071578 0.37955275878514466 0.15 0.6204472412148554
v -24.32140626405166 23.066268675319066 -15.272172841934076 0.46024677816018067 0.15 0.5397532218398193
v -25.340007530189386 28.306928497296358 -15.549447305917283 0.5442584131220238 0.15 0.45574158687797617
v -25.740730856717636 33.609459345800566 -14.774927357823925 0.6329698341181986 0.15 0.3670301658818014
v -25.704504543314087 38.74062676610739 -13.164280896910778 0.7162323833396613 0.15 0.2837676166603387
v -25.128654707234258 43.89782586144746 -11.806284252652718 0.8073331433295877 0.15 0.19266685667041228
v -24.29018278066159 49.162326833256124 -11.380662037485717 0.9038870806308591 0.15 0.0961129193691409
v -22.654193278245835 54.20697949406312 -10.622020912158437 0.9999999999999999 0.15 1.1102230246251565e-16
l 1 2
l 2 3
l 3 4
l 4 5
l 5 6
l 6 7
l 7 8
l 8 9
l 9 10
l 10 11
l 11 12
v -26.082641580905783 0.45283398596000535 -6.658272399123705 0.0 0.15 1.0
v -23.252081430352927 4.11159765429591 -4.763156452058187 0.05675467796283142 0.15 0.9432453220371686
v -19.78648537349146 7.374604752760343 -3.702750528961831 0.14716643755079478 0.15 0.8528335624492052
v -21.019752522299008 11.710122837073872 -4.40999539833364 0.23188569567197526 0.15 0.7681143043280247
v -24.274589077331253 14.52652683793684 -6.926207543196773 0.3012426309919141 0.15 0.6987573690080859
v -26.417011548804815 18.087514750419118 -9.691105873282247 0.37510328351472905 0.15 0.624896716485271
v -28.394207026696503 22.122461976850232 -11.821813805298532 0.45189231025968585 0.15 0.5481076897403141
v -29.568391590017303 26.82967798007321 -12.798169991750559 0.5180031684647807 0.15 0.48199683153521933
v -29.980495629486132 31.794618560430163 -12.52045413471466 0.597836749696573 0.15 0.40216325030342703
v -29.843115891665043 36.66651077507091 -11.354042970674632 0.6803153548222626 0.15 0.3196846451777374
v -29.417723432973744 41.51507737421988 -10.331096129974084 0.7491958675218605 0.15 0.2508041324781395
v -29.41711655413839 46.522129071895925 -10.537692970543459 0.836291387294708 0.15 0.16370861270529202
v -28.497991814273526 51.44125813769334 -10.436154230230942 0.9159873494817578 0.15 0.08401265051824225
v -26.621371609516245 55.945117474210626 -11.194293215051397 1.0 0.15 0.0
l 13 14
l 14 15
l 15 16
l 16 17
l 17 18
l 18 19
l 19 20
l 20 21
l 21 22
l 22 23
l 23 24
l 24 25
l 25 26
v -28.466247423866967 17.395953398549477 -6.671735836938785 0.3847703209203523 0.15 0.6152296790796477
v -31.520135340233086 21.96713151699383 -8.236191631605273 0.46690858621291353 0.15 0.5330914137870865
v -32.897852819771856 27.51645513455182 -9.138869065789264 0.5565076339642099 0.15 0.4434923660357901
v -32.86866688807507 33.279676048580846 -8.691115139925776 0.6404978583565747 0.15 0.3595021416434253
v -32.641425629795755 38.84546458354203 -7.06068972497111 0.7298696904292535 0.15 0.27013030957074646
v -33.051269243545455 50.21575961498701 -8.296925834653067 0.87735230645156 0.15 0.12264769354843996
l 27 28
l 28 29
l 29 30
l 30 31
l 31 32
v -26.147227778261744 0.490807356442875 -2.6460747428692555 0.0 0.15 1.0
v -23.71743953542649 4.403674347212861 -0.831751369731741 0.07533262620111096 0.15 0.9246673737988891
v -24.645638407458055 9.928388386861437 -0.9220504353898165 0.209652160246552 0.15 0.790347839753448
v -26.902843468091937 14.585181348210622 -1.3486950506944118 0.32361221969055615 0.15 0.6763877803094438
v -30.779502869824896 18.420016197418324 -2.510723378647913 0.40493294536037694 0.15 0.5950670546396231
v -33.66956075307744 23.06301974865329 -3.5708591028674483 0.4844941250247004 0.15 0.5155058749752996
v -35.01785174401428 28.371882686550315 -4.436066735064991 0.5566596694027959 0.15 0.4433403305972041
v -34.528850983052614 33.90094464981019 -4.930840968552677 0.6362778063640774 0.15 0.3637221936359226
l 33 34
l 34 35
l 35 36
l 36 37
l 37 38
l 38 39
l 39 40
v -21.906787597456667 0.5313757299924946 2.0342387015634866 0.0 0.15 1.0
v -18.448167421560903 4.8338936467665965 1.0489686779487426 0.10303087184912949 0.15 0.8969691281508705
v -18.06890550635093 9.821604220908654 1.095774086244651 0.17473146361970923 0.15 0.8252685363802907
v -22.892701586168897 12.538495368418333 1.9920115491475419 0.25211490351489513 0.15 0.7478850964851049
v -27.32904178496572 15.912341882994728 2.460378171417845 0.33723020012925153 0.15 0.6627697998707485
v -31.155155453743966 20.015343128392363 2.1871199253056117 0.4278391296965649 0.15 0.5721608703034351
v -34.12338290409641 24.697813622231017 1.3175436364374895 0.48920429388175934 0.15 0.5107957061182407
v -35.85274082559224 29.918011336043456 0.2757043589319265 0.5670750147233414 0.15 0.43292498527665857
v -35.78793227737046 35.412707258133416 -0.8483764152311137 0.6477892316205975 0.15 0.35221076837940246
v -36.27888576970932 40.68153766803626 -2.2625837044163 0.7249682553462773 0.15 0.2750317446537227
v -36.52998717507555 46.0669682233094 -3.6582277451214265 0.7954178726610651 0.15 0.20458212733893488
v -35.08038761138131 51.29297333687405 -4.977838841192715 0.8756140778165629 0.15 0.12438592218343714
v -32.03226801306863 54.7460989903651 -7.502548394217382 0.9224608423283289 0.15 0.07753915767167108
v -29.246201856957292 58.9883458667089 -9.698394355015857 1.0 0.15 0.0
l 41 42
l 42 43
l 43 44
l 44 45
l 45 46
l 46 47
l 47 48
l 48 49
l 49 50
l 50 51
l 51 52
l 52 53
l 53 54
v -21.777177912767062 0.41963698929276005 5.689543582355426 0.0 0.15 1.0
v -18.285683828150038 4.728830390236556 5.898579115433876 0.08425987340104928 0.15 0.9157401265989508
v -17.222319673773036 9.89271005213792 5.853670565073128 0.175941002254715 0.15 0.824058997745285
v -21.229613242559132 13.479262795152945 6.5395657516575705 0.26431757693082264 0.15 0.7356824230691774
v -25.689890180397565 16.70400974032528 7.488671308214666 0.3530499453630109 0.15 0.6469500546369891
v -29.825764683142673 20.392244813132862 7.13277386674046 0.41761553012807356 0.15 0.5823844698719265
v -33.09302926044327 24.854379626911477 6.527893912798877 0.48476766345057176 0.15 0.5152323365494282
v -35.461763167984586 29.75350124383658 5.314762494569699 0.5475600518891692 0.15 0.45243994811083077
v -35.71569313891635 35.18479491563592 4.117214132219904 0.6215629552194509 0.15 0.37843704478054907
v -36.61192111250342 40.36612752839798 2.7015473142638293 0.6983712281168362 0.15 0.30162877188316384
v -38.07208189032796 45.573516408461934 1.8005970616339324 0.7603819990540996 0.15 0.23961800094590036
v -37.03988306367648 50.840155033656366 0.30730219853156343 0.8292047801529789 0.15 0.17079521984702106
v -34.9808760425003 55.543311079760535 -1.855770915978429 0.8903074594537466 0.15 0.10969254054625344
v -32.57766453751727 59.724123980629116 -4.646278941021572 1.0 0.15 0.0
l 55 56
l 56 57
l 57 58
l 58 59
l 59 60
l 60 61
l 61 62
l 62 63
l 63 64
l 64 65
l 65 66
l 66 67
l 67 68
v -23.811457831225603 0.3889131136589038 11.141610201281805 0.0 0.15 1.0
v -20.563855486365892 4.5971302300913965 10.64551584635424 0.06657022167736902 0.15 0.933429778322631
v -16.624788379987983 8.084201336964128 10.578433386658181 0.13576004187367122 0.15 0.8642399581263288
v -17.23833835328487 13.09973218771448 10.485790156288209 0.23032240663185588 0.15 0.7696775933681441
v -21.302925106223313 16.419558929275937 11.505799351714852 0.3222108938968592 0.15 0.6777891061031408
v -25.163649319091707 20.041358080055225 12.203747372788621 0.3839056493110733 0.15 0.6160943506889267
v -29.033789366771753 23.61785988615747 11.30478974024541 0.44704807538637104 0.15 0.552951924613629
v -31.590982216549953 28.210407981814203 10.390394590753585 0.512620973490705 0.15 0.487379026509295
v -33.09629788066444 33.1873747656967 9.212735644988276 0.5806840567008721 0.15 0.4193159432991279
v -33.78526551568405 38.34040730775568 7.95393515845651 0.648994575342307 0.15 0.351005424657693
v -36.8804559167671 42.67105843458081 7.683671964946588 0.7108726542729007 0.15 0.2891273457270993
v -37.91520152546871 47.71497804436259 6.56128138839789 0.771095015636068 0.15 0.22890498436393203
v -36.946071145907375 52.69809756433238 4.94457676938322 0.8225790432534157 0.15 0.1774209567465843
v -36.65338089003285 57.45418975012926 2.4954553045080243 0.8784991444666125 0.15 0.12150085553338752
v -34.30740583105058 60.85317412125914 -0.701995812207689 0.924231772384208 0.15 0.07576822761579205
v -30.795458817029598 62.14256443498307 -4.327551818578281 1.0 0.15 0.0
l 69 70
l 70 71
l 71 72
l 72 73
l 73 74
l 74 75
l 75 76
l 76 77
l 77 78
l 78 79
l 79 80
l 80 81
l 81 82
l 82 83
l 83 84
v -21.318898507503796 0.35184696396286447 16.322046491667006 0.0 0.15 1.0
v -18.496717965594968 5.6705053881916845 14.080335690275575 0.07965234138118629 0.15 0.9203476586188137
l 85 86
v -24.893685711024556 23.450421725312943 15.21318693070726 0.4210291932244896 0.15 0.5789708067755104
v -27.73096321987489 28.18262466182117 14.08120130980056 0.4976927578541327 0.15 0.5023072421458673
v -29.357234208862643 33.42978273724395 12.616759327294105 0.5712013128157211 0.15 0.42879868718427894
v -31.58959365884581 38.3320488440119 12.413939956202707 0.640037765051389 0.15 0.359962234948611
v -36.03009114632892 41.793284274875326 12.46531657641299 0.6924488575798816 0.15 0.3075511424201184
v -37.38477802067064 47.12324129127328 11.970932591530275 0.742629394979004 0.15 0.25737060502099596
v -36.54303105675891 52.56279097848824 10.582394238982515 0.7951193574671056 0.15 0.2048806425328944
v -36.19766263627262 57.576359990513325 7.938929593959401 0.8450841717805329 0.15 0.15491582821946714
v -34.0963400068335 61.56703004145755 4.664059313447684 0.894704027531532 0.15 0.105295972468468
v -25.73799634290635 63.33039824727285 -2.582838352900689 1.0 0.15 0.0
l 87 88
l 88 89
l 89 90
l 90 91
l 91 92
l 92 93
l 93 94
l 94 95
l 95 96
v -16.1722915083762 0.3608420528239525 17.664881736777282 0.0 0.15 1.0
v -13.938720487931452 4.540696832170117 15.577010210632274 0.06300518260280552 0.15 0.9369948173971945
v -12.49820982567577 9.143491569660554 13.828791166099833 0.1541838555497794 0.15 0.8458161444502206
v -13.470381430481867 14.326824723425549 13.757628707465802 0.24776931883840397 0.15 0.752230681161596
v -16.455151721966107 18.583458677436262 14.348492410765173 0.3316659494356772 0.15 0.6683340505643228
v -19.615801254319354 22.623888018171172 15.5901058981498 0.39670394440552226 0.15 0.6032960555944777
v -22.469490108701795 27.031656532985277 16.247745355433775 0.4618498186180412 0.15 0.5381501813819588
v -24.314725342834613 31.938807604075272 15.625175873327047 0.5393039881429145 0.15 0.46069601185708553
v -26.358634250067883 36.638711163395115 14.317909809619062 0.6117268315098415 0.15 0.38827316849015847
v -29.615269780554737 39.530170314764085 16.909783066574118 0.6630405309911309 0.15 0.3369594690088691
v -33.94367107446864 42.41271108895943 17.090569885566474 0.669289704551711 0.15 0.330710295448289
v -35.49922608426395 47.304851170345586 16.773710835872578 0.7262434011824372 0.15 0.27375659881756276
v -35.17072234120015 52.416050073091775 15.46259564807024 0.7746673966158152 0.15 0.22533260338418482
v -34.31629856891928 57.033156459667616 13.052479962709025 0.817738970922678 0.15 0.182261029077322
v -32.32615437070098 60.781683916265585 9.93364827923879 0.8644395831957206 0.15 0.13556041680427944
v -29.584161518846212 62.92987382359745 5.988019551659533 0.9122667599551708 0.15 0.08773324004482919
v -25.97603254660768 63.658607935220004 2.199401900338826 0.9628781655659481 0.15 0.037121834434051926
v -22.514671175460965 63.51514800001337 -1.7848815558095494 1.0 0.15 0.0
l 97 98
l 98 99
l 99 100
l 100 101
l 101 102
l 102 103
l 103 104
l 104 105
l 105 106
l 106 107
l 107 108
l 108 109
l 109 110
l 110 111
l 111 112
l 112 113
l 113 114
v -30.24958144743586 42.38287783427738 19.469037791147265 0.6852392594608907 0.15 0.3147607405391093
v -32.19359100608075 48.37692263880173 20.30754343261469 0.7415843656049812 0.15 0.2584156343950188
v -31.778429241077344 54.31198665323556 18.242099261002217 0.7999311525104347 0.15 0.20006884748956533
v -29.494745932510472 59.0925617751733 14.716450030300795 0.8540583750195252 0.15 0.1459416249804748
v -26.667697947662695 62.29579408204986 10.013796397052955 0.9035927664545415 0.15 0.09640723354545855
v -23.43377352663409 63.49510545421249 4.744561332961975 0.9709590739278869 0.15 0.02904092607211306
l 115 116
l 116 117
l 117 118
l 118 119
l 119 120
v -25.554858340997512 41.16662476419908 19.310781277346955 0.6667776093436162 0.15 0.3332223906563838
v -27.325890890275616 48.76934604090066 20.982223872513746 0.7423415913670762 0.15 0.2576584086329238
v -27.714951914276995 56.33532946320874 17.56097475211097 0.8312064482889795 0.15 0.1687935517110205
l 121 122
l 122 123
v -7.530856360966036 0.4894662348773964 17.31921414666256 0.0 0.15 1.0
v -7.439404428943827 5.29315486556105 15.379409128039063 0.08500476884219423 0.15 0.9149952311578058
v -7.643485678722902 10.286893957283505 14.242150023698718 0.16788348515679427 0.15 0.8321165148432057
v -9.386190826324214 15.142365202786063 15.019828944694202 0.2475923653375856 0.15 0.7524076346624144
v -11.58773722064276 19.8692401143377 15.44095217265085 0.32005043690598817 0.15 0.6799495630940118
v -14.170619233531909 24.344022329163984 16.201009213168163 0.4042944988088099 0.15 0.59570550119119
v -17.16906595170514 28.597007924705622 16.541379855205108 0.4684522173226559 0.15 0.531547782677344
v -19.18019571128789 33.3724441045774 16.08340966527761 0.5515576211107993 0.15 0.4484423788892007
v -20.94049189466828 38.12061881955335 14.8202582817678 0.6251225365183206 0.15 0.3748774634816794
v -22.369334652932842 42.44247098758339 16.232536187441497 0.6775303277666553 0.15 0.32246967223334466
v -23.053891651560726 47.31225765162219 17.743306772301477 0.7338425026736413 0.15 0.26615749732635874
v -24.184018806582483 52.26400396340249 16.71129304824691 0.7866640533568925 0.15 0.2133359466431075
v -24.060397629849685 57.0888009332294 14.796639235773853 0.8402278042634874 0.15 0.15977219573651258
v -22.868344833262807 60.90143124980597 11.495982981149137 0.8926806215207848 0.15 0.10731937847921524
v -21.03848994918291 62.767834381540176 6.997041541440946 0.9491764785056845 0.15 0.05082352149431546
v -20.374223323168902 63.645698069551344 2.001220531800685 1.0 0.15 0.0
l 124 125
l 125 126
l 126 127
l 127 128
l 128 129
l 129 130
l 130 131
l 131 132
l 132 133
l 133 134
l 134 135
l 135 136
l 136 137
l 137 138
l 138 139
v -4.031983728985098 0.42498697731008106 20.901558900048506 0.0 0.15 1.0
v -3.5048884013362533 5.175183317456588 18.561243435299094 0.07018874033939865 0.15 0.9298112596606014
v -2.800731465046904 8.98489477100267 14.857658109560537 0.13718094121650076 0.15 0.8628190587834992
v -3.6020281004376713 14.191015200625998 14.221945735733268 0.2016516466592519 0.15 0.798348353340748
v -5.602955581907104 19.10943295205088 14.791653061703155 0.28152205785468776 0.15 0.7184779421453122
v -8.30859029573254 23.703912644117004 15.526096484464338 0.3645168451908294 0.15 0.6354831548091706
v -10.930637268621961 28.39671544209125 15.585913911430662 0.44573357420189236 0.15 0.5542664257981076
v -13.944138012311665 32.82746948939155 15.621944431590961 0.5245357861173895 0.15 0.4754642138826105
v -16.09406955195762 37.57658477621965 14.318834847847716 0.6094171959173913 0.15 0.3905828040826087
v -18.031983754095243 42.3787088562951 13.190496210062786 0.6819384826041268 0.15 0.3180615173958732
v -19.470661192893935 47.39271094050108 14.212964325432837 0.7483118806791327 0.15 0.2516881193208673
v -20.876276032974488 52.382406207251925 12.85864514826329 0.8117050295078746 0.15 0.1882949704921254
v -20.048112354354828 57.419782378541264 11.270403393920068 0.8787053911267614 0.15 0.12129460887323862
v -18.15110537997223 60.68695621268162 8.128570873833938 0.9452455680964957 0.15 0.054754431903504264
l 140 141
l 141 142
l 142 143
l 143 144
l 144 145
l 145 146
l 146 147
l 147 148
l 148 149
l 149 150
l 150 151
l 151 152
l 152 153
v 0.8273144433293731 0.3975818330300369 21.435532223280948 0.0 0.15 1.0
v 1.0054373322294767 5.509958086324379 19.698552896529932 0.06917155520249255 0.15 0.9308284447975075
v 0.49182091782242454 10.360867583046888 17.908457805942742 0.14903486085859774 0.15 0.8509651391414023
v -0.653696961989783 15.697415004148741 17.620023685037893 0.22069392714323777 0.15 0.7793060728567622
v -2.493625128131038 20.84890356660656 17.53108283080057 0.2918127693568443 0.15 0.7081872306431557
v -4.583211355585267 25.851876085655235 16.72452220164712 0.37825472941317045 0.15 0.6217452705868296
v -6.75386654565978 30.85998297769466 16.500336919454426 0.4623611717059437 0.15 0.5376388282940563
v -10.064955300850063 34.95156212109297 15.053178556350506 0.5427892996735707 0.15 0.4572107003264293
v -13.246659161578112 39.01665678074289 13.297183690855391 0.6291622277616115 0.15 0.37083777223838854
l 154 155
l 155 156
l 156 157
l 157 158
l 158 159
l 159 160
l 160 161
l 161 162
v 5.920551360667623 0.2731748448044252 19.16370065576062 0.0 0.15 1.0
v 5.619974856606941 5.196711227476274 19.41877785771438 0.06796937260426364 0.15 0.9320306273957364
v 4.6137346673482185 9.823710699963273 20.90946880138892 0.14093782971485455 0.15 0.8590621702851454
v 3.172612344925576 14.577069002154134 21.49349241898542 0.21430442874419348 0.15 0.7856955712558065
v 1.462497085106621 19.25767766182332 21.54493401237436 0.27396213188361856 0.15 0.7260378681163815
v -0.6750527566820945 23.713951348413328 21.05594858031443 0.3379813845457241 0.15 0.662018615454276
v -1.7041150789674893 28.182320207072593 19.16098856398917 0.4076595148883996 0.15 0.5923404851116004
v -2.5958551005834063 32.41403185689075 16.808346657665897 0.47880839616367543 0.15 0.5211916038363246
v -5.263899216489521 36.16718224194216 14.929145777151769 0.5409025635513803 0.15 0.45909743644861967
v -8.561616740843982 39.36930048689134 12.952031910985685 0.6126871943438806 0.15 0.38731280565611936
v -11.91873956097419 42.56872081211654 11.1014984267043 0.6727960229335395 0.15 0.32720397706646054
v -14.664603997856887 46.38054198374879 10.246849220980575 0.7397594480258493 0.15 0.26024055197415075
v -16.274604324382103 51.00251952761587 9.44925491891579 0.8046238965792699 0.15 0.19537610342073009
v -17.348035919981974 55.376291414683784 7.348732097450975 0.8764846690431436 0.15 0.1235153309568564
v -17.360072534051074 59.63076572715269 4.768228003483368 0.942949406724108 0.15 0.057050593275892014
v -17.76646064025544 62.76997652919313 0.9146745095650367 1.0 0.15 0.0
l 163 164
l 164 165
l 165 166
l 166 167
l 167 168
l 168 169
l 169 170
l 170 171
l 171 172
l 172 173
l 173 174
l 174 175
l 175 176
l 176 177
l 177 178
v 10.908027984848758 0.43517618038769545 18.02625937820074 0.0 0.15 1.0
v 10.660679896283165 5.984694360863339 19.71680768993376 0.07951075012640751 0.15 0.9204892498735925
v 9.339864506035775 11.244383503825754 21.996892688323467 0.14679519664199786 0.15 0.8532048033580022
v 7.6595579042456805 16.81830145651637 23.131290797368823 0.21925083487681718 0.15 0.7807491651231828
v 5.116370261195191 22.174095706757 23.631038144490745 0.29265250657962616 0.15 0.7073474934203738
v 2.378159958164343 27.380006649144853 22.899498075351662 0.3559375518053966 0.15 0.6440624481946033
v 0.6103199274976854 31.43407878656659 19.126446659075636 0.44854520249915986 0.15 0.5514547975008401
l 179 180
l 180 181
l 181 182
l 182 183
l 183 184
l 184 185
v 15.51938765763824 0.00934716886661982 16.786324914959927 0.0 0.15 1.0
v 15.596915744138737 4.833076015188638 18.700267285680063 0.06313608580711698 0.15 0.9368639141928831
v 15.216737288073503 9.320553080987288 21.286394327527297 0.1244954046947894 0.15 0.8755045953052106
v 14.09461468074818 14.165898125510616 22.895857038711643 0.18634383922767186 0.15 0.8136561607723282
v 12.446488547384678 19.052397316075986 23.447863857483895 0.24308839061040127 0.15 0.7569116093895987
v 10.373145354921057 23.812876251443917 23.515529957383652 0.29991982755658886 0.15 0.7000801724434111
v 7.783508924816905 28.274342371310144 22.75609784102091 0.36161885998819077 0.15 0.6383811400118092
v 5.097915137503337 31.91864400077147 20.304542520179698 0.41770736741473574 0.15 0.5822926325852642
v 2.271606604255809 34.67432255728392 16.967620823056293 0.4954712725160586 0.15 0.5045287274839414
v -0.5328329727156541 38.488165066642125 14.780752861742924 0.5564494881664752 0.15 0.4435505118335248
v -4.076035992800553 41.05473344251866 11.944508127192496 0.6208057004916901 0.15 0.37919429950830985
v -7.397864584001675 44.10327421851974 9.297958034340613 0.6876287884655032 0.15 0.31237121153449676
v -10.96586631747109 46.65265755938261 6.493630849497112 0.756728109448983 0.15 0.24327189055101694
v -13.433651962335922 50.82638323467604 4.972016285135184 0.8346352773813279 0.15 0.16536472261867208
v -15.336900702318776 55.06906001204083 2.61272699879837 0.913349688152598 0.15 0.08665031184740202
v -15.666295322102524 59.16352722383347 -0.521642895651614 1.0 0.15 0.0
l 186 187
l 187 188
l 188 189
l 189 190
l 190 191
l 191 192
l 192 193
l 193 194
l 194 195
l 195 196
l 196 197
l 197 198
l 198 199
l 199 200
l 200 201
v 20.387001897967643 0.45423177462016173 15.752015761327007 0.0 0.15 1.0
v 20.07187893418239 6.26770602730662 17.114869253851833 0.06757889979408338 0.15 0.9324211002059166
v 19.532743488010805 11.675873024584781 19.6581474588101 0.13717868251468546 0.15 0.8628213174853145
v 18.249038201443607 17.245025985758904 21.60013776656826 0.19859383037768144 0.15 0.8014061696223186
v 16.488717065686544 22.915964581015405 22.581201940703 0.2671325725210556 0.15 0.7328674274789444
v 13.938885811392183 28.328106615286302 22.634172391834184 0.3221816785752775 0.15 0.6778183214247224
v 10.42820890308252 32.629578204971615 20.524153832225597 0.39458633808422405 0.15 0.605413661915776
v 6.990893538670308 35.2838264621829 16.38848596625306 0.4617737011529107 0.15 0.5382262988470893
l 202 203
l 203 204
l 204 205
l 205 206
l 206 207
l 207 208
l 208 209
v 22.812697940629093 -0.14138273033271223 11.78241224555629 0.0 0.15 1.0
v 24.361808888851442 4.592416974666556 14.028476508316798 0.05113878382934725 0.15 0.9488612161706528
v 24.573566056583417 9.677545047991188 16.186897277568693 0.1049214962839484 0.15 0.8950785037160516
v 23.91465098657915 14.772977312423045 18.16175516238449 0.16897021019682187 0.15 0.8310297898031781
v 22.729282905488873 19.931179173142723 19.81259585959544 0.21778385902188271 0.15 0.7822161409781173
v 20.863509163441858 25.07125259731977 20.332120447858898 0.28143804401328215 0.15 0.7185619559867178
v 18.176796552577876 29.893497739384962 20.116151445529088 0.33992448948400567 0.15 0.6600755105159943
v 14.66178197288383 33.716762835832384 18.22742542891747 0.3980476065891328 0.15 0.6019523934108673
v 11.114861314885236 37.345660335203185 16.254658660987175 0.4651434263257954 0.15 0.5348565736742046
v 6.677346540120202 40.33042546566348 14.824658201657583 0.5279017698183901 0.15 0.4720982301816099
v 2.5713522295869637 43.0041106117388 12.222414401770644 0.5973380162993376 0.15 0.4026619837006624
v -1.5656105117801884 44.70114361100222 8.991274863983307 0.6550166052807281 0.15 0.34498339471927186
v -5.257857363716934 46.726338107382254 5.3914270210689414 0.730778667011784 0.15 0.26922133298821604
v -9.350571423901949 48.8601229542226 2.328338539177791 0.7994716967553621 0.15 0.20052830324463788
v -13.095596408028394 51.947982414225024 -0.09344207935204388 0.8896152640139476 0.15 0.11038473598605236
v -14.910379689148208 55.79814980930287 -3.5512894015906946 1.0 0.15 0.0
l 210 211
l 211 212
l 212 213
l 213 214
l 214 215
l 215 216
l 216 217
l 217 218
l 218 219
l 219 220
l 220 221
l 221 222
l 222 223
l 223 224
l 224 225
v 28.09594127082547 9.641650743876795 13.236680529205469 0.07927422086654759 0.15 0.9207257791334524
v 27.98507355525006 14.703567963356095 15.141182224364034 0.1476998431319003 0.15 0.8523001568680997
v 26.662021133769333 19.805778161954574 16.67922374953534 0.21086594512843643 0.15 0.7891340548715635
v 25.49917983181668 25.023008239347135 17.8452764348163 0.25776219729160227 0.15 0.7422378027083978
v 23.39994921219968 30.074389581216877 18.0783316499925 0.3133392584916785 0.15 0.6866607415083215
v 20.415015478890545 34.642071603128315 17.459378973375483 0.36725643502557465 0.15 0.6327435649744253
v 17.11311843589671 38.49187500177012 15.372070356599032 0.4267362563551025 0.15 0.5732637436448975
v 12.96704021462028 41.95034355128761 14.50285985535028 0.48529008102715 0.15 0.51470991897285
v 8.489507528464472 44.564433274880635 12.711434238737915 0.5474824404718713 0.15 0.45251755952812867
v 4.254389434269732 46.43747752123771 9.793086493786474 0.6215816336539446 0.15 0.3784183663460554
l 226 227
l 227 228
l 228 229
l 229 230
l 230 231
l 231 232
l 232 233
l 233 234
l 234 235
v 24.504467539959442 0.3399796188288391 8.203758393283193 0.0 0.15 1.0
v 27.97294474740056 4.066936287852029 9.568542231254252 0.04231588410806522 0.15 0.9576841158919348
v 30.13659754227361 8.722073939494543 10.962084430170785 0.07869295547449735 0.15 0.9213070445255026
v 31.431377024007418 13.802292850006229 11.806549870104718 0.13053868489315146 0.15 0.8694613151068485
v 30.863846265632272 18.94176498896972 13.227176009034144 0.18161213835047227 0.15 0.8183878616495277
v 29.873430216835036 24.089944833989886 14.40060571003255 0.236490585078631 0.15 0.763509414921369
v 28.44170292275128 29.207691897850875 15.108731651172256 0.28788333472652433 0.15 0.7121166652734756
v 26.124418412748103 34.031041304221766 14.809609244517766 0.3389715894840674 0.15 0.6610284105159325
v 23.01702616817142 38.33713940819943 14.015232847387777 0.38704836641520096 0.15 0.6129516335847991
v 19.407008338288136 42.175634786544585 12.991634875054682 0.44924163620591606 0.15 0.5507583637940839
v 15.130594939521277 45.26632021721171 12.001111699805309 0.5010672210581455 0.15 0.4989327789418545
v 10.519913145048433 47.27097979271513 10.144441881947401 0.5616338659328186 0.15 0.4383661340671814
v 5.688973405962187 47.91900876682362 7.951705217019341 0.619877831007259 0.15 0.380122168992741
v 0.8937706383261002 47.097647544301694 5.713473566274487 0.6769105702126348 0.15 0.3230894297873652
l 236 237
l 237 238
l 238 239
l 239 240
l 240 241
l 241 242
l 242 243
l 243 244
l 244 245
l 245 246
l 246 247
l 247 248
l 248 249
v 28.777371740634024 -0.20157142828311433 4.4800838186530125 0.0 0.15 1.0
v 32.08833948111848 2.74623140841046 6.777926007883002 0.04220676907741375 0.15 0.9577932309225863
v 34.47641748099225 6.5852835946754125 8.860553160588777 0.08183059852824558 0.15 0.9181694014717544
v 35.55869147618903 11.348519575339239 9.617856024032092 0.11815198965322614 0.15 0.8818480103467738
v 34.53380450611402 16.066616117299688 8.717699331511756 0.15193194377146363 0.15 0.8480680562285363
v 33.71559605664782 20.72436828278565 10.172006285561256 0.19062414658454707 0.15 0.8093758534154529
v 32.93803085818863 25.56006198567874 11.016389574278758 0.2443784776943638 0.15 0.7556215223056362
v 31.694975645414203 30.38730929477683 11.420412423111777 0.2906065908217098 0.15 0.7093934091782902
v 29.629578167454564 34.93139224478274 11.142757066751935 0.33594514766051975 0.15 0.6640548523394803
v 26.984524787565324 39.17070226347708 10.934150312322574 0.384866794283318 0.15 0.6151332057166821
v 23.628978106097367 42.81158651832493 10.21760496506226 0.433349139856783 0.15 0.566650860143217
v 19.69702939358438 45.717212142974034 9.302561065051274 0.4804551326491098 0.15 0.5195448673508902
v 15.540394794275363 48.03516306191642 7.823063934549577 0.5330578780280438 0.15 0.46694212197195617
v 11.103755250612615 49.23388796223356 5.858055512502493 0.5923344495861563 0.15 0.40766555041384367
v 6.451288807921504 49.474066692689746 4.044960181488731 0.6435082018561383 0.15 0.35649179814386167
v 1.7871314343119986 49.02827663893422 2.291782268090462 0.7084247268596026 0.15 0.29157527314039744
v -2.721686648349582 48.5502255028142 0.2483444679830342 0.7571913442299639 0.15 0.24280865577003607
v -7.073398892428608 49.05663450458651 -2.1662233934399846 0.8117793414543946 0.15 0.18822065854560543
v -11.419792864748079 49.54970568679926 -4.416294539769507 0.8778179560298282 0.15 0.12218204397017185
v -15.418400606885111 51.54022518413274 -6.497879620185932 1.0 0.15 0.0
l 250 251
l 251 252
l 252 253
l 253 254
l 254 255
l 255 256
l 256 257
l 257 258
l 258 259
l 259 260
l 260 261
l 261 262
l 262 263
l 263 264
l 264 265
l 265 266
l 266 267
l 267 268
l 268 269
v 31.167817341409005 0.43484324948319714 -0.12287536496829352 0.0 0.15 1.0
v 35.07208480422009 2.4437715815651955 2.7546467281474043 0.03109056750350947 0.15 0.9689094324964905
v 38.431577007178106 5.664625704921683 5.393478433744718 0.07021662847284557 0.15 0.9297833715271544
v 40.49531268640263 10.234865492089938 7.207954591002719 0.1076925504326987 0.15 0.8923074495673013
v 39.844240816836304 15.41984970755937 7.280729644894704 0.147152976908558 0.15 0.852847023091442
v 36.4503605716921 18.642622780203837 5.215603937060233 0.19431015736948634 0.15 0.8056898426305137
v 34.96268325434131 23.081062298141877 6.7013341823375585 0.22130428822020426 0.15 0.7786957117797957
v 34.43301992192113 28.41259538518356 7.005167035793084 0.26730348622326444 0.15 0.7326965137767356
v 33.14499669126367 33.61517384826133 6.798702048824745 0.31716651071636454 0.15 0.6828334892836354
v 30.89505375668837 38.48721488251837 6.825215519727338 0.3696660064311335 0.15 0.6303339935688665
v 27.725264358027932 42.82130018609853 6.775324331719293 0.4138451995971966 0.15 0.5861548004028034
v 23.830398021612332 46.397434685490296 5.8493987340319125 0.46075008031148673 0.15 0.5392499196885132
v 19.261934764396297 48.9436636792996 4.640521958473319 0.5143200557810966 0.15 0.48567994421890337
v 14.541311585763875 50.33452307401079 2.5195272777503157 0.5733082291058142 0.15 0.42669177089418575
l 270 271
l 271 272
l 272 273
l 273 274
l 274 275
l 275 276
l 276 277
l 277 278
l 278 279
l 279 280
l 280 281
l 281 282
l 282 283
v 37.51203119608919 3.473059224745192 -1.0892467881611727 0.02326673111380674 0.15 0.9767332688861933
v 40.966089904227815 6.8139738742668055 1.1632347469836313 0.07312084821446076 0.15 0.9268791517855393
v 42.818332245609405 11.520403265917823 2.634402866081812 0.11287269801704077 0.15 0.8871273019829592
v 42.11225897899085 16.677077863367057 3.192491273264364 0.16051249311295074 0.15 0.8394875068870493
v 38.21656675338161 19.86014095525416 2.1915767048697683 0.20336974960074983 0.15 0.7966302503992502
v 36.30977705206093 24.56778976736622 1.9357422508740154 0.22379200901384871 0.15 0.7762079909861512
v 35.1202769016183 29.74053566655015 2.0503626955781273 0.27399997522780484 0.15 0.7260000247721952
v 33.476362064592635 34.79812109797922 1.638639263906116 0.32093198068561335 0.15 0.6790680193143867
v 31.072513721594806 39.543137643528325 1.7328535355240322 0.3744144119974949 0.15 0.6255855880025051
v 27.916187381307484 43.81582485088933 1.7367601973066167 0.41795773608157216 0.15 0.5820422639184278
v 23.856069065330907 47.228037369901024 1.2894531620241259 0.476026474944601 0.15 0.523973525055399
v 19.04602738196411 49.472633731566276 1.00329095285241 0.5479571315220984 0.15 0.45204286847790165
l 284 285
l 285 286
l 286 287
l 287 288
l 288 289
l 289 290
l 290 291
l 291 292
l 292 293
l 293 294
l 294 295
v 42.74899628913629 9.805404022204314 -1.6694244810051635 0.0881206131942791 0.15 0.9118793868057209
v 42.12186859260784 18.18058706063855 -1.976700933101183 0.1785511903953318 0.15 0.8214488096046682
l 296 297
v 30.785837525497353 0.3558817836598072 -4.1595629463807615 0.0 0.15 1.0
v 35.32347015246626 2.7857200118267142 -4.1648300743219355 0.015581250439660854 0.15 0.9844187495603391
v 38.95549327440869 6.247908820607705 -4.755183742853593 0.05516208727613397 0.15 0.9448379127238661
v 40.8566080202248 10.92484016679198 -5.339651406936923 0.0963699418293912 0.15 0.9036300581706088
v 40.75478013746401 16.008753126396243 -5.009564494534884 0.14902926219770382 0.15 0.8509707378022962
v 37.9658395812462 19.79299322979165 -3.088225836489055 0.19378826747911676 0.15 0.8062117325208833
v 36.832644480227664 24.739103097850418 -3.280094580593286 0.22570458013336553 0.15 0.7742954198666345
v 35.943125808088276 29.826075858922817 -3.284154620306876 0.2854851914336254 0.15 0.7145148085663746
v 34.10063542119847 34.65184879776018 -3.275306003992172 0.320668397254069 0.15 0.6793316027459311
v 31.44952761837846 39.069852175659946 -3.3707681235809166 0.3709834448240038 0.15 0.6290165551759962
v 28.206378713973322 43.06816004454789 -3.07143640593546 0.41821455999787555 0.15 0.5817854400021245
v 24.25931022135173 46.37466497814358 -2.878025212188923 0.47362850747772484 0.15 0.5263714925222751
v 19.826477067177688 48.931168403234366 -2.2158998075245098 0.5379813120575729 0.15 0.46201868794242706
v 14.885568903952612 50.347151014806265 -1.9320757600143004 0.5837885515084406 0.15 0.41621144849155944
v 10.307842113654777 50.4511213489086 -0.3354667823574915 0.6283888976039184 0.15 0.37161110239608164
v 5.307685196259244 49.641800537508026 -1.2872751260959505 0.6761461567073828 0.15 0.32385384329261724
v 0.3845080802845398 48.0945467373489 -1.3097800374329944 0.7433773499844792 0.15 0.25662265001552076
l 298 299
l 299 300
l 300 301
l 301 302
l 302 303
l 303 304
l 304 305
l 305 306
l 306 307
l 307 308
l 308 309
l 309 310
l 310 311
l 311 312
l 312 313
l 313 314
v 35.133216212809714 4.358778272226498 -7.567617507302383 0.04344399382594815 0.15 0.9565560061740519
v 36.93413090177127 9.20366940958597 -8.875310452417569 0.09431695292764412 0.15 0.9056830470723559
v 36.74634981520105 14.363719422121388 -7.963261308310546 0.14113894724161932 0.15 0.8588610527583806
v 35.61084113161919 19.384281982654826 -7.273330238911597 0.19254815117498275 0.15 0.8074518488250173
v 35.174890511547915 24.729515926189183 -7.786189336017537 0.23543889855645983 0.15 0.7645611014435402
v 34.28060523090625 29.990771885905843 -8.211298475865288 0.2894534612977523 0.15 0.7105465387022477
v 32.45398611092305 35.04962000355336 -8.040299463450443 0.3320166308315384 0.15 0.6679833691684616
v 29.704546212110625 39.68159659402874 -8.07992131139017 0.3846194818441252 0.15 0.6153805181558748
v 26.204636309939488 43.741050508357176 -7.671654156573275 0.4369590877913385 0.15 0.5630409122086615
v 21.971335745981985 46.986878861567284 -7.069499532102443 0.4856173509668593 0.15 0.5143826490331407
v 17.120930482905507 49.18875615283743 -6.616959987435703 0.5454610632498427 0.15 0.45453893675015733
v 11.805696018186985 49.83237485634557 -6.161115729675634 0.601881037770976 0.15 0.398118962229024
v 6.472695623666228 49.268798569320886 -5.707906860939311 0.6633196188594079 0.15 0.33668038114059207
v 1.2887282152175485 47.84116111286994 -5.361516968197182 0.7200189523553098 0.15 0.27998104764469023
l 315 316
l 316 317
l 317 318
l 318 319
l 319 320
l 320 321
l 321 322
l 322 323
l 323 324
l 324 325
l 325 326
l 326 327
l 327 328
v 27.564599601311077 0.2819912898977784 -6.550553092561762 0.0 0.15 1.0
v 30.39912754915286 3.9050593763485573 -8.90241004585414 0.0439531433987349 0.15 0.9560468566012651
v 31.973067493680187 8.686350109293395 -10.179934928151207 0.09328196682562262 0.15 0.9067180331743774
v 32.836538955049235 13.812091864619617 -10.58163022797209 0.15112718693023328 0.15 0.8488728130697667
v 33.22543653192627 18.93006616760258 -11.486485522320095 0.19658570264562505 0.15 0.803414297354375
v 32.91830782946074 24.07171339270703 -12.32152917485054 0.24914088541590756 0.15 0.7508591145840924
v 31.968926100306874 29.141366887474728 -12.86337889435966 0.29853411366553956 0.15 0.7014658863344605
v 30.300061537797067 34.07504010285656 -12.588458632437519 0.3417450542927914 0.15 0.6582549457072087
v 27.68839534855071 38.583414355463205 -12.386210975900697 0.39292113804540135 0.15 0.6070788619545986
v 24.145976362367847 42.40554561133494 -11.996801571823646 0.44048898516425894 0.15 0.5595110148357411
v 20.12340021498984 45.60256064699874 -11.152074367743808 0.4932882692141951 0.15 0.5067117307858049
v 15.293858822731334 47.48168489912886 -10.56317343408812 0.558980620590632 0.15 0.441019379409368
v 10.15330214581552 48.08273720114166 -9.85576005772733 0.617358353325145 0.15 0.382641646674855
v 5.053816855674979 47.75044394447226 -8.934532291313168 0.6844705175413262 0.15 0.31552948245867385
l 329 330
l 330 331
l 331 332
l 332 333
l 333 334
l 334 335
l 335 336
l 336 337
l 337 338
l 338 339
l 339 340
l 340 341
l 341 342
v 22.82373894848849 0.3872641519848086 -9.683087558495327 0.0 0.15 1.0
v 26.2211482061831 4.45405170684885 -11.325344330721007 0.0436148197336655 0.15 0.9563851802663345
v 28.568260168345716 9.139889403043126 -13.313851519553726 0.10081304246502017 0.15 0.8991869575349798
v 29.97362479303585 14.382565933808369 -14.666986319158063 0.15777820121575623 0.15 0.8422217987842437
v 29.817621193751744 19.91190672710209 -15.575071242963482 0.21903162342875507 0.15 0.780968376571245
v 29.43648190671818 25.440701207480778 -16.417752610743054 0.26764855396970144 0.15 0.7323514460302986
v 27.776644499917175 30.780362663972674 -16.243977819923682 0.32714631388521065 0.15 0.6728536861147894
v 25.11467611224388 35.69540336636056 -15.935357996758755 0.3818564132968477 0.15 0.6181435867031523
v 21.59377448787573 39.999759228937805 -15.183885181543607 0.4433464195625074 0.15 0.5566535804374926
v 17.161914634447687 43.374652581317676 -14.645907725360818 0.5049501117570526 0.15 0.4950498882429474
v 12.163713652418782 45.34175701562204 -13.13253277238377 0.579432515423718 0.15 0.420567484576282
l 343 344
l 344 345
l 345 346
l 346 347
l 347 348
l 348 349
l 349 350
l 350 351
l 351 352
l 352 353
v 21.507576863144386 0.0924961053901261 -13.370777026795952 0.0 0.15 1.0
v 23.965193874960207 4.232778313195408 -15.381841709120724 0.057680201900117134 0.15 0.9423197980998829
v 25.958270436719353 8.67919026081711 -17.11448953965951 0.11368861813538202 0.15 0.886311381864618
v 26.459233570601985 13.756328244911883 -18.156085401969648 0.1666017652645238 0.15 0.8333982347354763
v 26.296882233151635 18.880735939483262 -19.117493329895307 0.21923110023780565 0.15 0.7807688997621943
v 25.529805072779585 24.032559409151578 -19.333267232536496 0.27494661973008466 0.15 0.7250533802699153
v 23.827170422360137 28.931676325748278 -19.170212714670143 0.330465115161501 0.15 0.669534884838499
v 21.165723052390888 33.3760098873959 -18.591485210363853 0.390671588734247 0.15 0.609328411265753
v 17.917868578056883 37.27548901837891 -17.38911503624641 0.45337778858878836 0.15 0.5466222114112116
v 14.03065461042498 40.68929953181353 -16.804317882337486 0.5325270893469826 0.15 0.46747291065301744
v 9.54292583876904 42.47029010720609 -15.478931223229253 0.5864114647143637 0.15 0.4135885352856363
v 5.385914416656405 44.681258818938126 -13.285661830983962 0.6567365499834689 0.15 0.34326345001653114
v 1.1240731318448844 46.073511119559605 -10.64496944943853 0.7137691242406741 0.15 0.28623087575932593
v -7.9458316923415815 47.58399718577678 -6.453094375332798 0.8176133442004273 0.15 0.1823866557995727
l 354 355
l 355 356
l 356 357
l 357 358
l 358 359
l 359 360
l 360 361
l 361 362
l 362 363
l 363 364
l 364 365
l 365 366
l 366 367
v 21.216126658991158 4.541491272315687 -18.830310194693748 0.0 0.15 1.0
v 22.51474242320974 10.177839717373088 -20.775310506335558 0.12914381641821462 0.15 0.8708561835817854
v 22.20396219520171 16.215762613749686 -21.711446272450143 0.19654376588421152 0.15 0.8034562341157885
v 21.391755306413984 22.27382545230007 -21.886013003351206 0.2656773478412923 0.15 0.7343226521587076
v 19.547325885940023 28.08166494430068 -21.822964031964542 0.32952335191511445 0.15 0.6704766480848856
v 16.184997295130636 32.772372048020586 -19.907464533448703 0.4059850115275553 0.15 0.5940149884724447
v 12.372343942100727 37.1468050098686 -18.007540205849253 0.48661290342647273 0.15 0.5133870965735272
l 368 369
l 369 370
l 370 371
l 371 372
l 372 373
l 373 374
v 19.147471776760142 2.4055778519896687 -18.964284171526373 0.0 0.15 1.0
v 17.44655720697731 6.9424949768496935 -21.415678680982605 0.08867675175900881 0.15 0.9113232482409912
v 17.6587517987082 12.24976022506749 -22.913463975682607 0.16666900453562145 0.15 0.8333309954643786
v 17.311460355014074 17.69500837831514 -23.860089640564038 0.21932220031217364 0.15 0.7806777996878264
v 16.56623045044557 23.154924402796205 -24.124440457860107 0.29449054324918245 0.15 0.7055094567508176
v 14.449866022695343 28.25757285188228 -23.847002078199985 0.35394785761045233 0.15 0.6460521423895477
v 11.547833086767966 32.37129482948568 -21.7186994368966 0.4284344296384084 0.15 0.5715655703615916
v 8.442104374645158 36.12290840109551 -19.225623486672106 0.5013228108305545 0.15 0.4986771891694455
v 4.863323514248904 39.787145920986006 -17.215587011001446 0.5907605958890902 0.15 0.40923940411090975
v 0.6491190377113754 42.392752269969314 -14.819684397529853 0.672050113435907 0.15 0.32794988656409296
v -4.070850976083342 44.27064024352157 -12.620788723059643 0.7414262980963189 0.15 0.2585737019036811
v -13.830420974169689 48.07579221382586 -9.443051637699078 0.8782922172560723 0.15 0.12170778274392768
l 375 376
l 376 377
l 377 378
l 378 379
l 379 380
l 380 381
l 381 382
l 382 383
l 383 384
l 384 385
l 385 386
v 12.939671423203368 0.3803244372250174 -19.543004376695436 0.0 0.15 1.0
v 12.937015931882037 5.3491858494555045 -21.56710994441543 0.06924442600590501 0.15 0.930755573994095
v 12.810941136292024 10.346327904304609 -23.500198971614434 0.1342044420523475 0.15 0.8657955579476525
v 12.567024224308014 15.57215142241548 -24.797666173630912 0.2095249361641151 0.15 0.7904750638358848
v 12.022393178762693 20.875963469072534 -25.651778273450482 0.2797792819018493 0.15 0.7202207180981507
v 10.289624863058714 25.97397861041514 -25.998534538798424 0.3442886810615779 0.15 0.655711318938422
v 7.826614923954966 30.523867947584552 -24.65786768354288 0.4078475416947135 0.15 0.5921524583052865
v 5.381509415588012 33.70868500002912 -21.101804429991223 0.48230197828437654 0.15 0.5176980217156235
v 2.1160150538937414 37.008358780364595 -18.383959125474284 0.5627289467117762 0.15 0.4372710532882238
l 387 388
l 388 389
l 389 390
l 390 391
l 391 392
l 392 393
l 393 394
l 394 395
v 8.173878201631393 0.27882110681828765 -19.93363394154129 0.0 0.15 1.0
v 8.155462202672872 5.301448794890392 -22.461020072584038 0.07926764237126208 0.15 0.920732357628738
v 8.007152215029597 10.451338754431609 -24.746033901727046 0.15471062024749568 0.15 0.8452893797525043
v 7.66654931691725 15.935187962858903 -26.005566733261933 0.23530918984577337 0.15 0.7646908101542267
v 6.339955359223273 21.357022011168254 -26.84990241802248 0.2992097174454966 0.15 0.7007902825545034
v 4.556236478440281 26.68922272421433 -26.55433328019321 0.3783213715516268 0.15 0.6216786284483732
v 2.4581496727294674 30.99930858164248 -23.73785281547492 0.4530494665506762 0.15 0.5469505334493239
v -0.27075715923425236 34.19090445805586 -20.18355380140828 0.538024235350961 0.15 0.461975764649039
v -3.090436932560506 38.347105306632535 -17.65597952591997 0.6353232558910047 0.15 0.3646767441089953
v -6.721687150502956 41.54593957017628 -14.894901584329805 0.7225142139017586 0.15 0.27748578609824137
l 396 397
l 397 398
l 398 399
l 399 400
l 400 401
l 401 402
l 402 403
l 403 404
l 404 405
v 2.981083585415372 0.4062782095661689 -21.080298321994643 0.0 0.15 1.0
v 3.1900643785623752 5.643433837520999 -22.512302817501418 0.07829379091080539 0.15 0.9217062090891947
v 3.042555430249695 10.57222850584364 -24.884605619799913 0.15670952335284358 0.15 0.8432904766471564
v 2.5720710650469876 15.708223599327725 -26.66432255777267 0.23795507325592155 0.15 0.7620449267440784
v 0.8226376461424078 20.77309331085406 -27.500111851319254 0.3104623433413801 0.15 0.6895376566586199
v -0.40110229480732124 26.001382198684524 -26.797653195945568 0.386368098984876 0.15 0.613631901015124
v -1.4003574686407991 30.08959424778881 -23.480806817858223 0.46026779144133867 0.15 0.5397322085586613
l 406 407
l 407 408
l 408 409
l 409 410
l 410 411
l 411 412
v 0.630086160735738 8.984127410453748 -23.110570670936028 0.12144629680738094 0.15 0.878553703192619
v -1.6700604295866819 14.249552963168293 -24.476671385764096 0.22198884607826017 0.15 0.7780111539217398
v -3.4275768366473716 19.874847003534352 -25.027528236716545 0.31765831092255115 0.15 0.6823416890774489
v -4.357191802312316 25.541380629591206 -23.61906460832186 0.402492026476698 0.15 0.597507973523302
v -4.423711178748937 30.520660814287123 -20.40510411980726 0.5012468923935325 0.15 0.4987531076064675
v -6.147148007052419 35.77299849969051 -18.219827158601362 0.6144785114198298 0.15 0.3855214885801702
v -9.340550519766998 40.30586201807992 -16.114785884895646 0.7306926491843991 0.15 0.26930735081560087
l 413 414
l 414 415
l 415 416
l 416 417
l 417 418
l 418 419
v -1.9662131167732175 0.38822770624343683 -22.376994119935407 0.0 0.15 1.0
v -1.8334833088201719 6.173158651916815 -21.34006551412107 0.09170332652144775 0.15 0.9082966734785523
v -3.415588589544949 11.772106945327769 -20.498471598471443 0.20328627298790541 0.15 0.7967137270120945
v -5.047794023456186 17.430948989852197 -20.428247859086607 0.2868482029996295 0.15 0.7131517970003705
v -6.622892821496068 23.090516234771272 -20.08639454208131 0.36694513008640167 0.15 0.6330548699135983
v -8.461115520941757 28.6217236312432 -19.30576806517626 0.49149005390956246 0.15 0.5085099460904375
v -10.09692244608382 34.191947061888236 -18.21104784935002 0.5946178087905185 0.15 0.4053821912094815
v -12.259960651387594 39.35488717504892 -16.426387991688525 0.7240147152012872 0.15 0.27598528479871276
l 420 421
l 421 422
l 422 423
l 423 424
l 424 425
l 425 426
l 426 427
v -7.939941129332092 0.3546235789415121 -22.641041791925876 0.0 0.15 1.0
v -5.460821718602683 6.089557469770875 -19.17465776849927 0.09545018688008092 0.15 0.9045498131199191
v -5.272772764404227 12.048077594413092 -15.623869582657523 0.2183282461550783 0.15 0.7816717538449217
l 428 429
l 429 430
v -11.91317422601138 0.4397302868697659 -19.50921825074464 0.0 0.15 1.0
v -9.668004999525193 4.597368300152807 -16.545516126336693 0.07486586257154816 0.15 0.9251341374284519
v -6.9882245573119075 8.202986898473478 -13.332738883412524 0.16323499664176283 0.15 0.8367650033582372
v -6.909057120494207 13.464715711015 -14.491164360951894 0.23562272176192173 0.15 0.7643772782380782
v -8.311642330397733 18.55986382190791 -16.089123977814307 0.29672394859473455 0.15 0.7032760514052654
v -10.692262968897738 23.45710197503534 -17.35406350647728 0.3963439304726521 0.15 0.6036560695273478
v -12.746315570820407 28.5507772236389 -18.276627424747616 0.5016846601025831 0.15 0.49831533989741694
v -14.251781798821282 33.92985270947424 -18.104687471218586 0.6122082915578637 0.15 0.3877917084421363
v -15.487329854756824 39.130999688999 -16.523835253641668 0.7079239201063577 0.15 0.29207607989364226
v -15.540964505222638 43.985926423936675 -14.125636700535841 0.8096380702153494 0.15 0.1903619297846506
v -17.32739350156265 48.094250350147206 -10.814036077214753 0.8819908727185781 0.15 0.11800912728142188
v -17.9420999092962 53.02245002501593 -8.503241614533254 1.0 0.15 0.0
l 431 432
l 432 433
l 433 434
l 434 435
l 435 436
l 436 437
l 437 438
l 438 439
l 439 440
l 440 441
l 441 442
v -14.083229576065827 0.3082909168053695 -13.835661571071677 0.0 0.15 1.0
v -12.399667120790195 5.8275425197527655 -12.586477443401431 0.10785150348708512 0.15 0.8921484965129148
v -11.983647420003155 11.635207481298036 -13.180558623562804 0.21196481328197503 0.15 0.788035186718025
v -13.12813211930296 17.130875924513965 -15.043185239905162 0.3052038126602636 0.15 0.6947961873397364
v -15.290520123366825 22.239229632489472 -17.097435459741448 0.4028688189527747 0.15 0.5971311810472253
v -17.561320862337435 27.509765257521487 -18.351076353924835 0.5098009517134707 0.15 0.49019904828652927
v -18.938220144023905 33.20480366473579 -17.69223174333136 0.6164067053208092 0.15 0.3835932946791908
v -20.188473159648428 38.5491546979242 -15.541737170652453 0.7171680707912373 0.15 0.28283192920876266
l 443 444
l 444 445
l 445 446
l 446 447
l 447 448
l 448 449
l 449 450
v -17.724345526972872 0.35254597918315894 -12.638043849857212 0.0 0.15 1.0
v -16.81702622189082 5.603044524369902 -10.496329590962995 0.10750517750426926 0.15 0.8924948224957308
v -16.294123100961375 11.129972520753125 -11.830053389263682 0.20325844013184982 0.15 0.7967415598681502
v -16.42628964836605 16.35445628721009 -13.759555212925228 0.3134700375547917 0.15 0.6865299624452084
v -18.678324999390487 20.825062199192047 -16.58912381644314 0.41585579998865596 0.15 0.584144200011344
v -20.24849160253919 26.22878675156817 -17.563356702753456 0.5117816730000349 0.15 0.48821832699996515
v -21.051279201193303 31.896614952970744 -16.94810619333121 0.6096461105279315 0.15 0.3903538894720685
v -21.28558790354157 37.45784046123166 -15.579813792858815 0.7062815235006394 0.15 0.29371847649936056
v -20.678102303632887 42.65915214169594 -13.218709244554901 0.7953710758183986 0.15 0.2046289241816014
l 451 452
l 452 453
l 453 454
l 454 455
l 455 456
l 456 457
l 457 458
l 458 459
