# Standrad Cylinder cols_resample: 25 wales, plain tube, no shaping
v 19.588072963515447 2.7836882911034397 2.857142856481437 0 0.15 1
v 19.58807541446956 2.7836633983612242 8.571428570943405 0.16666666666666666 0.15 0.8333333333333334
v 19.588075296022602 2.783664606333118 14.285714286431006 0.3333333333333333 0.15 0.6666666666666667
v 19.588074915122533 2.7836684800832527 19.999999999999996 0.5 0.15 0.5
v 19.588075296022605 2.7836646063331028 25.714285713568994 0.6666666666666666 0.15 0.33333333333333337
v 19.58807541446957 2.783663398361197 31.42857142905659 0.8333333333333334 0.15 0.16666666666666663
v 19.588072963515454 2.7836882911034073 37.142857143518555 1 0.15 0
v 18.255577202939932 7.5485529350536815 2.857142857142854 0 0.15 1
v 18.25557719936632 7.548552943358854 8.571428571428568 0.16666666666666666 0.15 0.8333333333333334
v 18.255577200947553 7.548552939286127 14.285714285714283 0.3333333333333333 0.15 0.6666666666666667
v 18.255577203258085 7.548552933631229 20 0.5 0.15 0.5
v 18.25557720094756 7.548552939286109 25.714285714285715 0.6666666666666666 0.15 0.33333333333333337
v 18.255577199366336 7.548552943358823 31.428571428571427 0.8333333333333334 0.15 0.16666666666666663
v 18.25557720293995 7.5485529350536495 37.14285714285714 1 0.15 0
v 15.832055091263374 11.863104181184863 2.8571428571428545 0 0.15 1
v 15.832055087994412 11.863104186758402 8.57142857142857 0.16666666666666666 0.15 0.8333333333333334
v 15.832055088945328 11.863104185078125 14.285714285714281 0.3333333333333333 0.15 0.6666666666666667
v 15.832055090513256 11.863104182269872 19.999999999999996 0.5 0.15 0.5
v 15.832055088945339 11.863104185078104 25.714285714285715 0.6666666666666666 0.15 0.33333333333333337
v 15.832055087994434 11.86310418675837 31.428571428571427 0.8333333333333334 0.15 0.16666666666666663
v 15.832055091263399 11.86310418118483 37.14285714285714 1 0.15 0
v 12.409346939691517 15.427236884767698 2.8571428571428545 0 0.15 1
v 12.409346936608323 15.427236886984252 8.57142857142857 0.16666666666666666 0.15 0.8333333333333334
v 12.409346936912916 15.427236886717905 14.285714285714281 0.3333333333333333 0.15 0.6666666666666667
v 12.409346937479608 15.4272368862838 19.999999999999996 0.5 0.15 0.5
v 12.409346936912934 15.42723688671789 25.714285714285715 0.6666666666666666 0.15 0.33333333333333337
v 12.409346936608358 15.427236886984229 31.428571428571427 0.8333333333333334 0.15 0.16666666666666663
v 12.409346939691563 15.42723688476767 37.14285714285714 1 0.15 0
v 8.182035634860119 17.993180077723707 2.857142857142854 0 0.15 1
v 8.182035628514742 17.993180080169132 8.571428571428568 0.16666666666666666 0.15 0.8333333333333334
v 8.182035629600673 17.993180079804308 14.285714285714281 0.3333333333333333 0.15 0.6666666666666667
v 8.182035632136886 17.9931800789483 19.999999999999996 0.5 0.15 0.5
v 8.182035629600694 17.993180079804297 25.714285714285715 0.6666666666666666 0.15 0.33333333333333337
v 8.182035628514784 17.99318008016912 31.428571428571427 0.8333333333333334 0.15 0.16666666666666663
v 8.182035634860181 17.99318007772369 37.14285714285714 1 0.15 0
v 3.455134022207636 19.454408071298758 2.8571428571428545 0 0.15 1
v 3.4551340153747563 19.454408072810295 8.57142857142857 0.16666666666666666 0.15 0.8333333333333334
v 3.455134016572854 19.454408072501224 14.285714285714281 0.3333333333333333 0.15 0.6666666666666667
v 3.4551340195275184 19.454408071767457 19.999999999999996 0.5 0.15 0.5
v 3.4551340165728748 19.454408072501224 25.714285714285715 0.6666666666666666 0.15 0.33333333333333337
v 3.4551340153748034 19.454408072810292 31.428571428571427 0.8333333333333334 0.15 0.16666666666666663
v 3.45513402220771 19.45440807129875 37.14285714285714 1 0.15 0
v -1.4853085232099472 19.747324823325513 2.8571428571428545 0 0.15 1
v -1.4853085261132504 19.747324823545636 8.57142857142857 0.16666666666666666 0.15 0.8333333333333334
v -1.4853085258473766 19.747324823519648 14.285714285714285 0.3333333333333333 0.15 0.6666666666666667
v -1.485308525032637 19.74732482344801 19.999999999999996 0.5 0.15 0.5
v -1.4853085258473562 19.747324823519655 25.714285714285715 0.6666666666666666 0.15 0.33333333333333337
v -1.4853085261132004 19.747324823545643 31.428571428571427 0.8333333333333334 0.15 0.16666666666666663
v -1.485308523209866 19.74732482332553 37.14285714285714 1 0.15 0
v -6.326500592025316 18.761767855191724 2.857142857142856 0 0.15 1
v -6.326500593980983 18.76176785418427 8.571428571428571 0.16666666666666666 0.15 0.8333333333333334
v -6.326500593751753 18.761767854306683 14.285714285714285 0.3333333333333333 0.15 0.6666666666666667
v -6.3265005930844005 18.761767854658444 20 0.5 0.15 0.5
v -6.326500593751733 18.761767854306697 25.714285714285715 0.6666666666666666 0.15 0.33333333333333337
v -6.326500593980933 18.761767854184296 31.428571428571427 0.8333333333333334 0.15 0.16666666666666663
v -6.326500592025237 18.76176785519176 37.142857142857146 1 0.15 0
v -10.76328614085116 16.566930024348046 2.8571428571428563 0 0.15 1
v -10.76328614421589 16.566930022099452 8.57142857142857 0.16666666666666666 0.15 0.8333333333333334
v -10.763286143646319 16.56693002250143 14.285714285714283 0.3333333333333333 0.15 0.6666666666666667
v -10.763286142183627 16.56693002351699 20 0.5 0.15 0.5
v -10.763286143646301 16.566930022501445 25.714285714285715 0.6666666666666666 0.15 0.33333333333333337
v -10.763286144215845 16.566930022099488 31.428571428571427 0.8333333333333334 0.15 0.16666666666666663
v -10.76328614085109 16.566930024348096 37.14285714285714 1 0.15 0
v -14.552298527842739 13.385009935398607 2.8571428571428545 0 0.15 1
v -14.552298529852816 13.385009933575056 8.57142857142857 0.16666666666666666 0.15 0.8333333333333334
v -14.55229852949207 13.385009933879033 14.285714285714281 0.3333333333333333 0.15 0.6666666666666667
v -14.55229852860799 13.385009934631364 19.999999999999996 0.5 0.15 0.5
v -14.552298529492056 13.38500993387905 25.714285714285715 0.6666666666666666 0.15 0.33333333333333337
v -14.552298529852777 13.385009933575098 31.428571428571427 0.8333333333333334 0.15 0.16666666666666663
v -14.552298527842678 13.38500993539867 37.14285714285714 1 0.15 0
v -17.439046815314033 9.37205374217396 2.8571428571428545 0 0.15 1
v -17.43904681582873 9.372053741385727 8.57142857142857 0.16666666666666666 0.15 0.8333333333333334
v -17.439046815805302 9.372053741421585 14.285714285714281 0.3333333333333333 0.15 0.6666666666666667
v -17.43904681572604 9.372053741542956 19.999999999999996 0.5 0.15 0.5
v -17.439046815805288 9.372053741421608 25.714285714285715 0.6666666666666666 0.15 0.33333333333333337
v -17.439046815828704 9.372053741385777 31.428571428571427 0.8333333333333334 0.15 0.16666666666666663
v -17.439046815313993 9.372053742174035 37.14285714285714 1 0.15 0
v -19.19635432092805 4.752457867483196 2.8571428571428545 0 0.15 1
v -19.196354321025417 4.752457867026116 8.57142857142857 0.16666666666666666 0.15 0.8333333333333334
v -19.196354321017722 4.752457867080122 14.285714285714281 0.3333333333333333 0.15 0.6666666666666667
v -19.196354320995592 4.752457867223014 19.999999999999996 0.5 0.15 0.5
v -19.19635432101772 4.752457867080146 25.714285714285715 0.6666666666666666 0.15 0.33333333333333337
v -19.196354321025407 4.75245786702617 31.428571428571427 0.8333333333333334 0.15 0.16666666666666663
v -19.196354320928037 4.752457867483272 37.14285714285714 1 0.15 0
v -19.754660273743465 -0.16402771967704965 2.8571428571428545 0 0.15 1
v -19.75466027378017 -0.1640277197075275 8.57142857142857 0.16666666666666666 0.15 0.8333333333333334
v -19.754660273773496 -0.1640277196904748 14.285714285714281 0.3333333333333333 0.15 0.6666666666666667
v -19.75466027375656 -0.16402771965534757 19.999999999999996 0.5 0.15 0.5
v -19.7546602737735 -0.16402771969045304 25.714285714285715 0.6666666666666666 0.15 0.33333333333333337
v -19.754660273780175 -0.16402771970747898 31.428571428571427 0.8333333333333334 0.15 0.16666666666666663
v -19.754660273743472 -0.16402771967698793 37.14285714285714 1 0.15 0
v -19.13235388119658 -5.0742098144322885 2.8571428571428545 0 0.15 1
v -19.132353881239627 -5.074209814174841 8.57142857142857 0.16666666666666666 0.15 0.8333333333333334
v -19.13235388123606 -5.074209814203725 14.285714285714281 0.3333333333333333 0.15 0.6666666666666667
v -19.132353881225356 -5.074209814285232 19.999999999999996 0.5 0.15 0.5
v -19.132353881236064 -5.07420981420371 25.714285714285715 0.6666666666666666 0.15 0.33333333333333337
v -19.132353881239634 -5.074209814174807 31.428571428571427 0.8333333333333334 0.15 0.16666666666666663
v -19.132353881196593 -5.074209814432247 37.14285714285714 1 0.15 0
v -17.28664011949072 -9.657186618018232 2.8571428571428545 0 0.15 1
v -17.286640120177957 -9.657186617126392 8.57142857142857 0.16666666666666666 0.15 0.8333333333333334
v -17.286640120122595 -9.657186617196073 14.285714285714281 0.3333333333333333 0.15 0.6666666666666667
v -17.286640119957433 -9.657186617405564 19.999999999999996 0.5 0.15 0.5
v -17.2866401201226 -9.65718661719607 25.714285714285715 0.6666666666666666 0.15 0.33333333333333337
v -17.286640120177967 -9.657186617126374 31.428571428571427 0.8333333333333334 0.15 0.16666666666666663
v -17.28664011949073 -9.657186618018214 37.14285714285714 1 0.15 0
v -14.320328302151712 -13.61698016105009 2.8571428571428545 0 0.15 1
v -14.320328304370294 -13.61698015896637 8.57142857142857 0.16666666666666666 0.15 0.8333333333333334
v -14.320328303966 -13.616980159319766 14.285714285714281 0.3333333333333333 0.15 0.6666666666666667
v -14.320328302985 -13.616980160188978 19.999999999999996 0.5 0.15 0.5
v -14.320328303965995 -13.61698015931977 25.714285714285715 0.6666666666666666 0.15 0.33333333333333337
v -14.3203283043703 -13.616980158966367 31.428571428571427 0.8333333333333334 0.15 0.16666666666666663
v -14.320328302151715 -13.616980161050089 37.14285714285714 1 0.15 0
v -10.490518013000383 -16.74918786377533 2.8571428571428545 0 0.15 1
v -10.490518015907297 -16.749187861775834 8.57142857142857 0.16666666666666666 0.15 0.8333333333333334
v -10.490518015471828 -16.749187862108755 14.285714285714281 0.3333333333333333 0.15 0.6666666666666667
v -10.490518014394386 -16.749187862919264 19.999999999999996 0.5 0.15 0.5
v -10.490518015471823 -16.749187862108762 25.714285714285715 0.6666666666666666 0.15 0.33333333333333337
v -10.490518015907291 -16.749187861775837 31.428571428571427 0.8333333333333334 0.15 0.16666666666666663
v -10.49051801300038 -16.749187863775337 37.14285714285714 1 0.15 0
v -6.018572505666727 -18.86295488892533 2.8571428571428577 0 0.15 1
v -6.018572507610452 -18.862954888145538 8.571428571428571 0.16666666666666666 0.15 0.8333333333333334
v -6.018572507603642 -18.862954888183474 14.285714285714285 0.3333333333333333 0.15 0.6666666666666667
v -6.0185725073727765 -18.862954888318548 20 0.5 0.15 0.5
v -6.018572507603642 -18.862954888183477 25.714285714285715 0.6666666666666666 0.15 0.33333333333333337
v -6.018572507610443 -18.862954888145545 31.42857142857143 0.8333333333333334 0.15 0.16666666666666663
v -6.018572505666705 -18.862954888925334 37.14285714285714 1 0.15 0
v -1.1587121968250769 -19.754660273963026 2.857142857142858 0 0.15 1
v -1.1587122008308919 -19.754660274240486 8.571428571428573 0.16666666666666666 0.15 0.8333333333333334
v -1.1587122003479406 -19.754660274177425 14.285714285714285 0.3333333333333333 0.15 0.6666666666666667
v -1.1587121989003024 -19.754660274029572 20 0.5 0.15 0.5
v -1.158712200347951 -19.754660274177425 25.714285714285715 0.6666666666666666 0.15 0.33333333333333337
v -1.1587122008308928 -19.754660274240486 31.428571428571427 0.8333333333333334 0.15 0.16666666666666663
v -1.1587121968250402 -19.754660273963026 37.14285714285714 1 0.15 0
v 3.77688596865808 -19.390407631597128 2.857142857142856 0 0.15 1
v 3.7768859612082037 -19.39040763315817 8.571428571428571 0.16666666666666666 0.15 0.8333333333333334
v 3.7768859625697777 -19.39040763286019 14.285714285714285 0.3333333333333333 0.15 0.6666666666666667
v 3.776885966023105 -19.390407632114673 19.999999999999996 0.5 0.15 0.5
v 3.776885962569759 -19.390407632860192 25.714285714285715 0.6666666666666666 0.15 0.33333333333333337
v 3.7768859612081918 -19.390407633158176 31.428571428571427 0.8333333333333334 0.15 0.16666666666666663
v 3.7768859686581155 -19.390407631597125 37.14285714285714 1 0.15 0
v 8.485119341992986 -17.86763869604331 2.8571428571428563 0 0.15 1
v 8.485119336710303 -17.867638697933423 8.57142857142857 0.16666666666666666 0.15 0.8333333333333334
v 8.485119337606562 -17.86763869763929 14.285714285714283 0.3333333333333333 0.15 0.6666666666666667
v 8.485119339800093 -17.867638696924278 20 0.5 0.15 0.5
v 8.485119337606537 -17.8676386976393 25.714285714285715 0.6666666666666666 0.15 0.33333333333333337
v 8.485119336710284 -17.867638697933433 31.428571428571427 0.8333333333333334 0.15 0.16666666666666663
v 8.485119341993006 -17.867638696043304 37.14285714285714 1 0.15 0
v 12.659267995645802 -15.22213197433467 2.857142857142856 0 0.15 1
v 12.659267992707122 -15.222131977064393 8.571428571428571 0.16666666666666666 0.15 0.8333333333333334
v 12.659267993019501 -15.222131976749626 14.285714285714285 0.3333333333333333 0.15 0.6666666666666667
v 12.659267993570467 -15.222131976225072 19.999999999999996 0.5 0.15 0.5
v 12.659267993019478 -15.22213197674965 25.714285714285715 0.6666666666666666 0.15 0.33333333333333337
v 12.659267992707107 -15.22213197706441 31.428571428571427 0.8333333333333334 0.15 0.16666666666666663
v 12.659267995645813 -15.222131974334667 37.14285714285714 1 0.15 0
v 16.0143129293296 -11.590336055298717 2.8571428571428577 0 0.15 1
v 16.014312925094657 -11.590336062116364 8.571428571428571 0.16666666666666666 0.15 0.8333333333333334
v 16.01431292627893 -11.590336060041707 14.285714285714285 0.3333333333333333 0.15 0.6666666666666667
v 16.01431292823078 -11.59033605660948 20 0.5 0.15 0.5
v 16.014312926278915 -11.59033606004174 25.714285714285715 0.6666666666666666 0.15 0.33333333333333337
v 16.014312925094647 -11.590336062116387 31.428571428571427 0.8333333333333334 0.15 0.16666666666666663
v 16.014312929329602 -11.590336055298724 37.14285714285714 1 0.15 0
v 18.381118583937884 -7.245469228961352 2.857142857142857 0 0.15 1
v 18.38111858061087 -7.245469236307034 8.571428571428571 0.16666666666666666 0.15 0.8333333333333334
v 18.381118582223856 -7.245469232370073 14.285714285714285 0.3333333333333333 0.15 0.6666666666666667
v 18.38111858444386 -7.245469227354905 20 0.5 0.15 0.5
v 18.38111858222385 -7.245469232370099 25.714285714285715 0.6666666666666666 0.15 0.33333333333333337
v 18.381118580610867 -7.2454692363070565 31.428571428571427 0.8333333333333334 0.15 0.16666666666666663
v 18.38111858393788 -7.245469228961367 37.14285714285714 1 0.15 0
v 19.635918082634713 -2.305320636021475 2.8571428564814383 0 0.15 1
v 19.63592053393822 -2.3053455351008556 8.571428570943407 0.16666666666666666 0.15 0.8333333333333334
v 19.63592041535436 -2.3053443224264605 14.285714286431004 0.3333333333333333 0.15 0.6666666666666667
v 19.635920034124375 -2.3053404436031646 20 0.5 0.15 0.5
v 19.63592041535436 -2.305344322426479 25.71428571356899 0.6666666666666666 0.15 0.33333333333333337
v 19.63592053393822 -2.30534553510088 31.428571429056593 0.8333333333333334 0.15 0.16666666666666663
v 19.63591808263471 -2.3053206360215004 37.142857143518555 1 0.15 0
l 1 2
l 2 3
l 3 4
l 4 5
l 5 6
l 6 7
l 8 9
l 9 10
l 10 11
l 11 12
l 12 13
l 13 14
l 15 16
l 16 17
l 17 18
l 18 19
l 19 20
l 20 21
l 22 23
l 23 24
l 24 25
l 25 26
l 26 27
l 27 28
l 29 30
l 30 31
l 31 32
l 32 33
l 33 34
l 34 35
l 36 37
l 37 38
l 38 39
l 39 40
l 40 41
l 41 42
l 43 44
l 44 45
l 45 46
l 46 47
l 47 48
l 48 49
l 50 51
l 51 52
l 52 53
l 53 54
l 54 55
l 55 56
l 57 58
l 58 59
l 59 60
l 60 61
l 61 62
l 62 63
l 64 65
l 65 66
l 66 67
l 67 68
l 68 69
l 69 70
l 71 72
l 72 73
l 73 74
l 74 75
l 75 76
l 76 77
l 78 79
l 79 80
l 80 81
l 81 82
l 82 83
l 83 84
l 85 86
l 86 87
l 87 88
l 88 89
l 89 90
l 90 91
l 92 93
l 93 94
l 94 95
l 95 96
l 96 97
l 97 98
l 99 100
l 100 101
l 101 102
l 102 103
l 103 104
l 104 105
l 106 107
l 107 108
l 108 109
l 109 110
l 110 111
l 111 112
l 113 114
l 114 115
l 115 116
l 116 117
l 117 118
l 118 119
l 120 121
l 121 122
l 122 123
l 123 124
l 124 125
l 125 126
l 127 128
l 128 129
l 129 130
l 130 131
l 131 132
l 132 133
l 134 135
l 135 136
l 136 137
l 137 138
l 138 139
l 139 140
l 141 142
l 142 143
l 143 144
l 144 145
l 145 146
l 146 147
l 148 149
l 149 150
l 150 151
l 151 152
l 152 153
l 153 154
l 155 156
l 156 157
l 157 158
l 158 159
l 159 160
l 160 161
l 162 163
l 163 164
l 164 165
l 165 166
l 166 167
l 167 168
l 169 170
l 170 171
l 171 172
l 172 173
l 173 174
l 174 175
