# KnittingStitches from conjugate-height scales + smooth
v 19.968414998923414 0.32068788757954086 -9.412279858258517e-11 0.55 0.55 0.55
v 19.968423756860027 0.320598966759637 5.71428571173416 0.55 0.55 0.55
v 19.20772654717288 5.246733161519302 5.714285714285713 0.55 0.55 0.55
v 19.207726551105466 5.246733148555279 -2.2434787001326716e-15 0.55 0.55 0.55
v 19.207726551105466 5.246733148555279 -2.2434787001326716e-15 0.55 0.55 0.55
v 19.20772654717288 5.246733161519302 5.714285714285713 0.55 0.55 0.55
v 17.303427853018366 9.85037272203407 5.714285714285711 0.55 0.55 0.55
v 17.303427860463025 9.850372708106075 -3.525466528779913e-15 0.55 0.55 0.55
v 17.303427860463025 9.850372708106075 -3.525466528779913e-15 0.55 0.55 0.55
v 17.303427853018366 9.85037272203407 5.714285714285711 0.55 0.55 0.55
v 14.360682324204486 13.875835649226794 5.714285714285712 0.55 0.55 0.55
v 14.36068232736761 13.875835645372515 -2.3503110191866082e-15 0.55 0.55 0.55
v 14.36068232736761 13.875835645372515 -2.3503110191866082e-15 0.55 0.55 0.55
v 14.360682324204486 13.875835649226794 5.714285714285712 0.55 0.55 0.55
v 10.458011549536348 16.978638124406203 5.714285714285712 0.55 0.55 0.55
v 10.458011557657626 16.978638120065288 -2.3503110191866082e-15 0.55 0.55 0.55
v 10.458011557657626 16.978638120065288 -2.3503110191866082e-15 0.55 0.55 0.55
v 10.458011549536348 16.978638124406203 5.714285714285712 0.55 0.55 0.55
v 5.906059710393691 19.007722034949715 5.714285714285711 0.55 0.55 0.55
v 5.906059721852811 19.007722031473623 -3.311801890672039e-15 0.55 0.55 0.55
v 5.906059721852811 19.007722031473623 -3.311801890672039e-15 0.55 0.55 0.55
v 5.906059710393691 19.007722034949715 5.714285714285711 0.55 0.55 0.55
v 1.0042083238689454 19.901094109821482 5.714285714285712 0.55 0.55 0.55
v 1.0042083327150941 19.90109410895021 -2.3503110191866082e-15 0.55 0.55 0.55
v 1.0042083327150941 19.90109410895021 -2.3503110191866082e-15 0.55 0.55 0.55
v 1.0042083238689454 19.901094109821482 5.714285714285712 0.55 0.55 0.55
v -3.9748253749977223 19.593555537178492 5.714285714285713 0.55 0.55 0.55
v -3.9748253744261066 19.593555537351882 -2.6708079763484186e-15 0.55 0.55 0.55
v -3.9748253744261066 19.593555537351882 -2.6708079763484186e-15 0.55 0.55 0.55
v -3.9748253749977223 19.593555537178492 5.714285714285713 0.55 0.55 0.55
v -8.678175812088007 17.929980171648737 5.714285714285714 0.55 0.55 0.55
v -8.67817580658943 17.929980174587783 4.2732927621574694e-16 0.55 0.55 0.55
v -8.67817580658943 17.929980174587783 4.2732927621574694e-16 0.55 0.55 0.55
v -8.678175812088007 17.929980171648737 5.714285714285714 0.55 0.55 0.55
v -12.848396474557545 15.203879873777314 5.714285714285712 0.55 0.55 0.55
v -12.848396470169662 15.203879877378352 -2.3503110191866082e-15 0.55 0.55 0.55
v -12.848396470169662 15.203879877378352 -2.3503110191866082e-15 0.55 0.55 0.55
v -12.848396474557545 15.203879873777314 5.714285714285712 0.55 0.55 0.55
v -16.256200584101418 11.5661399942695 5.714285714285712 0.55 0.55 0.55
v -16.256200582542327 11.56613999616926 -2.3503110191866082e-15 0.55 0.55 0.55
v -16.256200582542327 11.56613999616926 -2.3503110191866082e-15 0.55 0.55 0.55
v -16.256200584101418 11.5661399942695 5.714285714285712 0.55 0.55 0.55
v -18.621893047444384 7.177967488672973 5.714285714285712 0.55 0.55 0.55
v -18.621893047167998 7.177967489584108 -2.3503110191866082e-15 0.55 0.55 0.55
v -18.621893047167998 7.177967489584108 -2.3503110191866082e-15 0.55 0.55 0.55
v -18.621893047444384 7.177967488672973 5.714285714285712 0.55 0.55 0.55
v -19.77081559457758 2.326948245557023 5.714285714285712 0.55 0.55 0.55
v -19.770815594522254 2.326948246118679 -2.3503110191866082e-15 0.55 0.55 0.55
v -19.770815594522254 2.326948246118679 -2.3503110191866082e-15 0.55 0.55 0.55
v -19.77081559457758 2.326948245557023 5.714285714285712 0.55 0.55 0.55
v -19.738504952962234 -2.655003684935936 5.714285714285712 0.55 0.55 0.55
v -19.7385049529118 -2.655003685447965 -2.3503110191866082e-15 0.55 0.55 0.55
v -19.7385049529118 -2.655003685447965 -2.3503110191866082e-15 0.55 0.55 0.55
v -19.738504952962234 -2.655003684935936 5.714285714285712 0.55 0.55 0.55
v -18.526202809502742 -7.4934159435189995 5.714285714285712 0.55 0.55 0.55
v -18.526202809409536 -7.493415943826253 -2.3503110191866082e-15 0.55 0.55 0.55
v -18.526202809409536 -7.493415943826253 -2.3503110191866082e-15 0.55 0.55 0.55
v -18.526202809502742 -7.4934159435189995 5.714285714285712 0.55 0.55 0.55
v -16.047077430633582 -11.820957291013396 5.714285714285712 0.55 0.55 0.55
v -16.04707742841702 -11.820957293714278 -2.3503110191866082e-15 0.55 0.55 0.55
v -16.04707742841702 -11.820957293714278 -2.3503110191866082e-15 0.55 0.55 0.55
v -16.047077430633582 -11.820957291013396 5.714285714285712 0.55 0.55 0.55
v -12.593579176953599 -15.413003027950975 5.714285714285712 0.55 0.55 0.55
v -12.593579172602642 -15.413003031521708 -2.3503110191866082e-15 0.55 0.55 0.55
v -12.593579172602642 -15.413003031521708 -2.3503110191866082e-15 0.55 0.55 0.55
v -12.593579176953599 -15.413003027950975 5.714285714285712 0.55 0.55 0.55
v -8.387456853577042 -18.085372696555865 5.714285714285712 0.55 0.55 0.55
v -8.387456848868247 -18.085372699072767 -2.3503110191866082e-15 0.55 0.55 0.55
v -8.387456848868247 -18.085372699072767 -2.3503110191866082e-15 0.55 0.55 0.55
v -8.387456853577042 -18.085372696555865 5.714285714285712 0.55 0.55 0.55
v -3.6496881611957392 -19.640537079929484 5.714285714285718 0.55 0.55 0.55
v -3.6496881590258785 -19.640537080143204 3.2046356737778737e-15 0.55 0.55 0.55
v -3.6496881590258785 -19.640537080143204 3.2046356737778737e-15 0.55 0.55 0.55
v -3.6496881611957392 -19.640537079929484 5.714285714285718 0.55 0.55 0.55
v 1.3322637614633492 -19.8687834683819 5.714285714285712 0.55 0.55 0.55
v 1.3322637714579608 -19.868783467397513 -2.3503110191866082e-15 0.55 0.55 0.55
v 1.3322637714579608 -19.868783467397513 -2.3503110191866082e-15 0.55 0.55 0.55
v 1.3322637614633492 -19.8687834683819 5.714285714285712 0.55 0.55 0.55
v 6.221508165136586 -18.912031797039365 5.714285714285714 0.55 0.55 0.55
v 6.2215081765744245 -18.91203179356973 5.341615952696835e-16 0.55 0.55 0.55
v 6.2215081765744245 -18.91203179356973 5.341615952696835e-16 0.55 0.55 0.55
v 6.221508165136586 -18.912031797039365 5.714285714285714 0.55 0.55 0.55
v 10.748730510878588 -16.823245597985725 5.714285714285712 0.55 0.55 0.55
v 10.748730515382345 -16.82324559557842 -2.3503110191866082e-15 0.55 0.55 0.55
v 10.748730515382345 -16.82324559557842 -2.3503110191866082e-15 0.55 0.55 0.55
v 10.748730510878588 -16.823245597985725 5.714285714285712 0.55 0.55 0.55
v 14.569805475012855 -13.621018355723464 5.714285714285714 0.55 0.55 0.55
v 14.569805481309421 -13.621018348051072 5.341615952696835e-16 0.55 0.55 0.55
v 14.569805481309421 -13.621018348051072 5.341615952696835e-16 0.55 0.55 0.55
v 14.569805475012855 -13.621018355723464 5.714285714285714 0.55 0.55 0.55
v 17.45882037671162 -9.559653765794097 5.714285714285714 0.55 0.55 0.55
v 17.4588203842845 -9.559653751626236 -2.1366463810787347e-16 0.55 0.55 0.55
v 17.4588203842845 -9.559653751626236 -2.1366463810787347e-16 0.55 0.55 0.55
v 17.45882037671162 -9.559653765794097 5.714285714285714 0.55 0.55 0.55
v 19.303416785724163 -4.931284704663533 5.714285714285714 0.55 0.55 0.55
v 19.303416789031246 -4.931284693761544 5.341615952696835e-16 0.55 0.55 0.55
v 19.303416789031246 -4.931284693761544 5.341615952696835e-16 0.55 0.55 0.55
v 19.303416785724163 -4.931284704663533 5.714285714285714 0.55 0.55 0.55
v 19.968423756860027 0.320598966759637 5.71428571173416 0.55 0.55 0.55
v 19.968414998923414 0.32068788757954086 -9.412279858258517e-11 0.55 0.55 0.55
v 19.968423756860027 0.320598966759637 5.71428571173416 0.55 0.55 0.55
v 19.96842480728337 0.3205883016327554 11.428571429182321 0.55 0.55 0.55
v 19.207726546561968 5.246733163533203 11.428571428571427 0.55 0.55 0.55
v 19.20772654717288 5.246733161519302 5.714285714285713 0.55 0.55 0.55
v 19.20772654717288 5.246733161519302 5.714285714285713 0.55 0.55 0.55
v 19.207726546561968 5.246733163533203 11.428571428571427 0.55 0.55 0.55
v 17.303427850712072 9.850372726348839 11.428571428571425 0.55 0.55 0.55
v 17.303427853018366 9.85037272203407 5.714285714285711 0.55 0.55 0.55
v 17.303427853018366 9.85037272203407 5.714285714285711 0.55 0.55 0.55
v 17.303427850712072 9.850372726348839 11.428571428571425 0.55 0.55 0.55
v 14.360682324042724 13.875835649423905 11.428571428571425 0.55 0.55 0.55
v 14.360682324204486 13.875835649226794 5.714285714285712 0.55 0.55 0.55
v 14.360682324204486 13.875835649226794 5.714285714285712 0.55 0.55 0.55
v 14.360682324042724 13.875835649423905 11.428571428571425 0.55 0.55 0.55
v 10.458011548649736 16.978638124880106 11.428571428571425 0.55 0.55 0.55
v 10.458011549536348 16.978638124406203 5.714285714285712 0.55 0.55 0.55
v 10.458011549536348 16.978638124406203 5.714285714285712 0.55 0.55 0.55
v 10.458011548649736 16.978638124880106 11.428571428571425 0.55 0.55 0.55
v 5.906059705479192 19.007722036440516 11.428571428571425 0.55 0.55 0.55
v 5.906059710393691 19.007722034949715 5.714285714285711 0.55 0.55 0.55
v 5.906059710393691 19.007722034949715 5.714285714285711 0.55 0.55 0.55
v 5.906059705479192 19.007722036440516 11.428571428571425 0.55 0.55 0.55
v 1.0042083217571949 19.90109411002947 11.428571428571425 0.55 0.55 0.55
v 1.0042083238689454 19.901094109821482 5.714285714285712 0.55 0.55 0.55
v 1.0042083238689454 19.901094109821482 5.714285714285712 0.55 0.55 0.55
v 1.0042083217571949 19.90109411002947 11.428571428571425 0.55 0.55 0.55
v -3.9748253750814198 19.5935555371531 11.428571428571427 0.55 0.55 0.55
v -3.9748253749977223 19.593555537178492 5.714285714285713 0.55 0.55 0.55
v -3.9748253749977223 19.593555537178492 5.714285714285713 0.55 0.55 0.55
v -3.9748253750814198 19.5935555371531 11.428571428571427 0.55 0.55 0.55
v -8.678175813756782 17.929980170756757 11.428571428571429 0.55 0.55 0.55
v -8.678175812088007 17.929980171648737 5.714285714285714 0.55 0.55 0.55
v -8.678175812088007 17.929980171648737 5.714285714285714 0.55 0.55 0.55
v -8.678175813756782 17.929980170756757 11.428571428571429 0.55 0.55 0.55
v -12.848396476461229 15.203879872215003 11.428571428571425 0.55 0.55 0.55
v -12.848396474557545 15.203879873777314 5.714285714285712 0.55 0.55 0.55
v -12.848396474557545 15.203879873777314 5.714285714285712 0.55 0.55 0.55
v -12.848396476461229 15.203879872215003 11.428571428571425 0.55 0.55 0.55
v -16.25620058429107 11.56613999403841 11.428571428571425 0.55 0.55 0.55
v -16.256200584101418 11.5661399942695 5.714285714285712 0.55 0.55 0.55
v -16.256200584101418 11.5661399942695 5.714285714285712 0.55 0.55 0.55
v -16.25620058429107 11.56613999403841 11.428571428571425 0.55 0.55 0.55
v -18.621893047478036 7.177967488562031 11.428571428571425 0.55 0.55 0.55
v -18.621893047444384 7.177967488672973 5.714285714285712 0.55 0.55 0.55
v -18.621893047444384 7.177967488672973 5.714285714285712 0.55 0.55 0.55
v -18.621893047478036 7.177967488562031 11.428571428571425 0.55 0.55 0.55
v -19.770815594601668 2.3269482453124395 11.428571428571425 0.55 0.55 0.55
v -19.77081559457758 2.326948245557023 5.714285714285712 0.55 0.55 0.55
v -19.77081559457758 2.326948245557023 5.714285714285712 0.55 0.55 0.55
v -19.770815594601668 2.3269482453124395 11.428571428571425 0.55 0.55 0.55
v -19.738504952979202 -2.655003684763636 11.428571428571425 0.55 0.55 0.55
v -19.738504952962234 -2.655003684935936 5.714285714285712 0.55 0.55 0.55
v -19.738504952962234 -2.655003684935936 5.714285714285712 0.55 0.55 0.55
v -19.738504952979202 -2.655003684763636 11.428571428571425 0.55 0.55 0.55
v -18.52620280951433 -7.493415943480794 11.428571428571425 0.55 0.55 0.55
v -18.526202809502742 -7.4934159435189995 5.714285714285712 0.55 0.55 0.55
v -18.526202809502742 -7.4934159435189995 5.714285714285712 0.55 0.55 0.55
v -18.52620280951433 -7.493415943480794 11.428571428571425 0.55 0.55 0.55
v -16.047077431061176 -11.820957290492373 11.428571428571425 0.55 0.55 0.55
v -16.047077430633582 -11.820957291013396 5.714285714285712 0.55 0.55 0.55
v -16.047077430633582 -11.820957291013396 5.714285714285712 0.55 0.55 0.55
v -16.047077431061176 -11.820957290492373 11.428571428571425 0.55 0.55 0.55
v -12.59357917883282 -15.413003026408738 11.428571428571425 0.55 0.55 0.55
v -12.593579176953599 -15.413003027950975 5.714285714285712 0.55 0.55 0.55
v -12.593579176953599 -15.413003027950975 5.714285714285712 0.55 0.55 0.55
v -12.59357917883282 -15.413003026408738 11.428571428571425 0.55 0.55 0.55
v -8.387456854265725 -18.085372696187754 11.428571428571425 0.55 0.55 0.55
v -8.387456853577042 -18.085372696555865 5.714285714285712 0.55 0.55 0.55
v -8.387456853577042 -18.085372696555865 5.714285714285712 0.55 0.55 0.55
v -8.387456854265725 -18.085372696187754 11.428571428571425 0.55 0.55 0.55
v -3.649688161403302 -19.640537079909045 11.428571428571432 0.55 0.55 0.55
v -3.6496881611957392 -19.640537079929484 5.714285714285718 0.55 0.55 0.55
v -3.6496881611957392 -19.640537079929484 5.714285714285718 0.55 0.55 0.55
v -3.649688161403302 -19.640537079909045 11.428571428571432 0.55 0.55 0.55
v 1.3322637578121244 -19.868783468741512 11.428571428571425 0.55 0.55 0.55
v 1.3322637614633492 -19.8687834683819 5.714285714285712 0.55 0.55 0.55
v 1.3322637614633492 -19.8687834683819 5.714285714285712 0.55 0.55 0.55
v 1.3322637578121244 -19.868783468741512 11.428571428571425 0.55 0.55 0.55
v 6.221508160420755 -18.912031798469897 11.428571428571429 0.55 0.55 0.55
v 6.221508165136586 -18.912031797039365 5.714285714285714 0.55 0.55 0.55
v 6.221508165136586 -18.912031797039365 5.714285714285714 0.55 0.55 0.55
v 6.221508160420755 -18.912031798469897 11.428571428571429 0.55 0.55 0.55
v 10.748730510405283 -16.82324559823871 11.428571428571425 0.55 0.55 0.55
v 10.748730510878588 -16.823245597985725 5.714285714285712 0.55 0.55 0.55
v 10.748730510878588 -16.823245597985725 5.714285714285712 0.55 0.55 0.55
v 10.748730510405283 -16.82324559823871 11.428571428571425 0.55 0.55 0.55
v 14.569805474531764 -13.621018356309678 11.428571428571429 0.55 0.55 0.55
v 14.569805475012855 -13.621018355723464 5.714285714285714 0.55 0.55 0.55
v 14.569805475012855 -13.621018355723464 5.714285714285714 0.55 0.55 0.55
v 14.569805474531764 -13.621018356309678 11.428571428571429 0.55 0.55 0.55
v 17.45882037412238 -9.559653770638224 11.428571428571429 0.55 0.55 0.55
v 17.45882037671162 -9.559653765794097 5.714285714285714 0.55 0.55 0.55
v 17.45882037671162 -9.559653765794097 5.714285714285714 0.55 0.55 0.55
v 17.45882037412238 -9.559653770638224 11.428571428571429 0.55 0.55 0.55
v 19.303416785885318 -4.931284704132282 11.428571428571429 0.55 0.55 0.55
v 19.303416785724163 -4.931284704663533 5.714285714285714 0.55 0.55 0.55
v 19.303416785724163 -4.931284704663533 5.714285714285714 0.55 0.55 0.55
v 19.303416785885318 -4.931284704132282 11.428571428571429 0.55 0.55 0.55
v 19.96842480728337 0.3205883016327554 11.428571429182321 0.55 0.55 0.55
v 19.968423756860027 0.320598966759637 5.71428571173416 0.55 0.55 0.55
v 19.96842480728337 0.3205883016327554 11.428571429182321 0.55 0.55 0.55
v 19.96842327994541 0.3206038089548144 17.142857145113126 0.55 0.55 0.55
v 19.207726550299657 5.2467331512117 17.142857142857142 0.55 0.55 0.55
v 19.207726546561968 5.246733163533203 11.428571428571427 0.55 0.55 0.55
v 19.207726546561968 5.246733163533203 11.428571428571427 0.55 0.55 0.55
v 19.207726550299657 5.2467331512117 17.142857142857142 0.55 0.55 0.55
v 17.30342785621651 9.850372716050767 17.14285714285714 0.55 0.55 0.55
v 17.303427850712072 9.850372726348839 11.428571428571425 0.55 0.55 0.55
v 17.303427850712072 9.850372726348839 11.428571428571425 0.55 0.55 0.55
v 17.30342785621651 9.850372716050767 17.14285714285714 0.55 0.55 0.55
v 14.360682324809998 13.875835648488984 17.14285714285714 0.55 0.55 0.55
v 14.360682324042724 13.875835649423905 11.428571428571425 0.55 0.55 0.55
v 14.360682324042724 13.875835649423905 11.428571428571425 0.55 0.55 0.55
v 14.360682324809998 13.875835648488984 17.14285714285714 0.55 0.55 0.55
v 10.458011550149207 16.978638124078625 17.14285714285714 0.55 0.55 0.55
v 10.458011548649736 16.978638124880106 11.428571428571425 0.55 0.55 0.55
v 10.458011548649736 16.978638124880106 11.428571428571425 0.55 0.55 0.55
v 10.458011550149207 16.978638124078625 17.14285714285714 0.55 0.55 0.55
v 5.906059714124555 19.007722033817977 17.14285714285714 0.55 0.55 0.55
v 5.906059705479192 19.007722036440516 11.428571428571425 0.55 0.55 0.55
v 5.906059705479192 19.007722036440516 11.428571428571425 0.55 0.55 0.55
v 5.906059714124555 19.007722033817977 17.14285714285714 0.55 0.55 0.55
v 1.0042083249304734 19.901094109716933 17.14285714285714 0.55 0.55 0.55
v 1.0042083217571949 19.90109411002947 11.428571428571425 0.55 0.55 0.55
v 1.0042083217571949 19.90109411002947 11.428571428571425 0.55 0.55 0.55
v 1.0042083249304734 19.901094109716933 17.14285714285714 0.55 0.55 0.55
v -3.9748253749957545 19.593555537179093 17.142857142857142 0.55 0.55 0.55
v -3.9748253750814198 19.5935555371531 11.428571428571427 0.55 0.55 0.55
v -3.9748253750814198 19.5935555371531 11.428571428571427 0.55 0.55 0.55
v -3.9748253749957545 19.593555537179093 17.142857142857142 0.55 0.55 0.55
v -8.678175811173054 17.929980172137792 17.142857142857142 0.55 0.55 0.55
v -8.678175813756782 17.929980170756757 11.428571428571429 0.55 0.55 0.55
v -8.678175813756782 17.929980170756757 11.428571428571429 0.55 0.55 0.55
v -8.678175811173054 17.929980172137792 17.142857142857142 0.55 0.55 0.55
v -12.848396473194214 15.203879874896174 17.14285714285714 0.55 0.55 0.55
v -12.848396476461229 15.203879872215003 11.428571428571425 0.55 0.55 0.55
v -12.848396476461229 15.203879872215003 11.428571428571425 0.55 0.55 0.55
v -12.848396473194214 15.203879874896174 17.14285714285714 0.55 0.55 0.55
v -16.256200584021776 11.566139994366546 17.14285714285714 0.55 0.55 0.55
v -16.25620058429107 11.56613999403841 11.428571428571425 0.55 0.55 0.55
v -16.25620058429107 11.56613999403841 11.428571428571425 0.55 0.55 0.55
v -16.256200584021776 11.566139994366546 17.14285714285714 0.55 0.55 0.55
v -18.621893047430316 7.177967488719352 17.14285714285714 0.55 0.55 0.55
v -18.621893047478036 7.177967488562031 11.428571428571425 0.55 0.55 0.55
v -18.621893047478036 7.177967488562031 11.428571428571425 0.55 0.55 0.55
v -18.621893047430316 7.177967488719352 17.14285714285714 0.55 0.55 0.55
v -19.770815594560872 2.3269482457266655 17.14285714285714 0.55 0.55 0.55
v -19.770815594601668 2.3269482453124395 11.428571428571425 0.55 0.55 0.55
v -19.770815594601668 2.3269482453124395 11.428571428571425 0.55 0.55 0.55
v -19.770815594560872 2.3269482457266655 17.14285714285714 0.55 0.55 0.55
v -19.738504952952244 -2.6550036850373684 17.14285714285714 0.55 0.55 0.55
v -19.738504952979202 -2.655003684763636 11.428571428571425 0.55 0.55 0.55
v -19.738504952979202 -2.655003684763636 11.428571428571425 0.55 0.55 0.55
v -19.738504952952244 -2.6550036850373684 17.14285714285714 0.55 0.55 0.55
v -18.526202809498464 -7.493415943533101 17.14285714285714 0.55 0.55 0.55
v -18.52620280951433 -7.493415943480794 11.428571428571425 0.55 0.55 0.55
v -18.52620280951433 -7.493415943480794 11.428571428571425 0.55 0.55 0.55
v -18.526202809498464 -7.493415943533101 17.14285714285714 0.55 0.55 0.55
v -16.047077430416408 -11.820957291278026 17.14285714285714 0.55 0.55 0.55
v -16.047077431061176 -11.820957290492373 11.428571428571425 0.55 0.55 0.55
v -16.047077431061176 -11.820957290492373 11.428571428571425 0.55 0.55 0.55
v -16.047077430416408 -11.820957291278026 17.14285714285714 0.55 0.55 0.55
v -12.593579175553602 -15.413003029099926 17.14285714285714 0.55 0.55 0.55
v -12.59357917883282 -15.413003026408738 11.428571428571425 0.55 0.55 0.55
v -12.59357917883282 -15.413003026408738 11.428571428571425 0.55 0.55 0.55
v -12.593579175553602 -15.413003029099926 17.14285714285714 0.55 0.55 0.55
v -8.387456853235168 -18.085372696738602 17.14285714285714 0.55 0.55 0.55
v -8.387456854265725 -18.085372696187754 11.428571428571425 0.55 0.55 0.55
v -8.387456854265725 -18.085372696187754 11.428571428571425 0.55 0.55 0.55
v -8.387456853235168 -18.085372696738602 17.14285714285714 0.55 0.55 0.55
v -3.649688161510373 -19.640537079898497 17.142857142857146 0.55 0.55 0.55
v -3.649688161403302 -19.640537079909045 11.428571428571432 0.55 0.55 0.55
v -3.649688161403302 -19.640537079909045 11.428571428571432 0.55 0.55 0.55
v -3.649688161510373 -19.640537079898497 17.142857142857146 0.55 0.55 0.55
v 1.3322637637097876 -19.86878346816064 17.14285714285714 0.55 0.55 0.55
v 1.3322637578121244 -19.868783468741512 11.428571428571425 0.55 0.55 0.55
v 1.3322637578121244 -19.868783468741512 11.428571428571425 0.55 0.55 0.55
v 1.3322637637097876 -19.86878346816064 17.14285714285714 0.55 0.55 0.55
v 6.221508168336444 -18.9120317960687 17.142857142857142 0.55 0.55 0.55
v 6.221508160420755 -18.912031798469897 11.428571428571429 0.55 0.55 0.55
v 6.221508160420755 -18.912031798469897 11.428571428571429 0.55 0.55 0.55
v 6.221508168336444 -18.9120317960687 17.142857142857142 0.55 0.55 0.55
v 10.74873051126377 -16.82324559777984 17.14285714285714 0.55 0.55 0.55
v 10.748730510405283 -16.82324559823871 11.428571428571425 0.55 0.55 0.55
v 10.748730510405283 -16.82324559823871 11.428571428571425 0.55 0.55 0.55
v 10.74873051126377 -16.82324559777984 17.14285714285714 0.55 0.55 0.55
v 14.56980547587719 -13.621018354670273 17.142857142857142 0.55 0.55 0.55
v 14.569805474531764 -13.621018356309678 11.428571428571429 0.55 0.55 0.55
v 14.569805474531764 -13.621018356309678 11.428571428571429 0.55 0.55 0.55
v 14.56980547587719 -13.621018354670273 17.142857142857142 0.55 0.55 0.55
v 17.45882038058439 -9.559653758548658 17.142857142857142 0.55 0.55 0.55
v 17.45882037412238 -9.559653770638224 11.428571428571429 0.55 0.55 0.55
v 17.45882037412238 -9.559653770638224 11.428571428571429 0.55 0.55 0.55
v 17.45882038058439 -9.559653758548658 17.142857142857142 0.55 0.55 0.55
v 19.30341678830334 -4.931284696161129 17.142857142857142 0.55 0.55 0.55
v 19.303416785885318 -4.931284704132282 11.428571428571429 0.55 0.55 0.55
v 19.303416785885318 -4.931284704132282 11.428571428571429 0.55 0.55 0.55
v 19.30341678830334 -4.931284696161129 17.142857142857142 0.55 0.55 0.55
v 19.96842327994541 0.3206038089548144 17.142857145113126 0.55 0.55 0.55
v 19.96842480728337 0.3205883016327554 11.428571429182321 0.55 0.55 0.55
v 19.96842327994541 0.3206038089548144 17.142857145113126 0.55 0.55 0.55
v 19.96842327994541 0.3206038089548063 22.857142854886867 0.55 0.55 0.55
v 19.207726550299657 5.246733151211691 22.857142857142858 0.55 0.55 0.55
v 19.207726550299657 5.2467331512117 17.142857142857142 0.55 0.55 0.55
v 19.207726550299657 5.2467331512117 17.142857142857142 0.55 0.55 0.55
v 19.207726550299657 5.246733151211691 22.857142857142858 0.55 0.55 0.55
v 17.303427856216512 9.850372716050757 22.857142857142854 0.55 0.55 0.55
v 17.30342785621651 9.850372716050767 17.14285714285714 0.55 0.55 0.55
v 17.30342785621651 9.850372716050767 17.14285714285714 0.55 0.55 0.55
v 17.303427856216512 9.850372716050757 22.857142857142854 0.55 0.55 0.55
v 14.360682324810005 13.875835648488973 22.857142857142854 0.55 0.55 0.55
v 14.360682324809998 13.875835648488984 17.14285714285714 0.55 0.55 0.55
v 14.360682324809998 13.875835648488984 17.14285714285714 0.55 0.55 0.55
v 14.360682324810005 13.875835648488973 22.857142857142854 0.55 0.55 0.55
v 10.458011550149218 16.97863812407862 22.857142857142854 0.55 0.55 0.55
v 10.458011550149207 16.978638124078625 17.14285714285714 0.55 0.55 0.55
v 10.458011550149207 16.978638124078625 17.14285714285714 0.55 0.55 0.55
v 10.458011550149218 16.97863812407862 22.857142857142854 0.55 0.55 0.55
v 5.906059714124564 19.007722033817974 22.857142857142854 0.55 0.55 0.55
v 5.906059714124555 19.007722033817977 17.14285714285714 0.55 0.55 0.55
v 5.906059714124555 19.007722033817977 17.14285714285714 0.55 0.55 0.55
v 5.906059714124564 19.007722033817974 22.857142857142854 0.55 0.55 0.55
v 1.00420832493048 19.901094109716933 22.857142857142854 0.55 0.55 0.55
v 1.0042083249304734 19.901094109716933 17.14285714285714 0.55 0.55 0.55
v 1.0042083249304734 19.901094109716933 17.14285714285714 0.55 0.55 0.55
v 1.00420832493048 19.901094109716933 22.857142857142854 0.55 0.55 0.55
v -3.974825374995747 19.593555537179093 22.857142857142858 0.55 0.55 0.55
v -3.9748253749957545 19.593555537179093 17.142857142857142 0.55 0.55 0.55
v -3.9748253749957545 19.593555537179093 17.142857142857142 0.55 0.55 0.55
v -3.974825374995747 19.593555537179093 22.857142857142858 0.55 0.55 0.55
v -8.678175811173045 17.929980172137796 22.857142857142858 0.55 0.55 0.55
v -8.678175811173054 17.929980172137792 17.142857142857142 0.55 0.55 0.55
v -8.678175811173054 17.929980172137792 17.142857142857142 0.55 0.55 0.55
v -8.678175811173045 17.929980172137796 22.857142857142858 0.55 0.55 0.55
v -12.848396473194201 15.203879874896183 22.857142857142854 0.55 0.55 0.55
v -12.848396473194214 15.203879874896174 17.14285714285714 0.55 0.55 0.55
v -12.848396473194214 15.203879874896174 17.14285714285714 0.55 0.55 0.55
v -12.848396473194201 15.203879874896183 22.857142857142854 0.55 0.55 0.55
v -16.256200584021766 11.56613999436656 22.857142857142854 0.55 0.55 0.55
v -16.256200584021776 11.566139994366546 17.14285714285714 0.55 0.55 0.55
v -16.256200584021776 11.566139994366546 17.14285714285714 0.55 0.55 0.55
v -16.256200584021766 11.56613999436656 22.857142857142854 0.55 0.55 0.55
v -18.62189304743031 7.177967488719367 22.857142857142854 0.55 0.55 0.55
v -18.621893047430316 7.177967488719352 17.14285714285714 0.55 0.55 0.55
v -18.621893047430316 7.177967488719352 17.14285714285714 0.55 0.55 0.55
v -18.62189304743031 7.177967488719367 22.857142857142854 0.55 0.55 0.55
v -19.770815594560872 2.326948245726673 22.857142857142854 0.55 0.55 0.55
v -19.770815594560872 2.3269482457266655 17.14285714285714 0.55 0.55 0.55
v -19.770815594560872 2.3269482457266655 17.14285714285714 0.55 0.55 0.55
v -19.770815594560872 2.326948245726673 22.857142857142854 0.55 0.55 0.55
v -19.738504952952248 -2.65500368503736 22.857142857142854 0.55 0.55 0.55
v -19.738504952952244 -2.6550036850373684 17.14285714285714 0.55 0.55 0.55
v -19.738504952952244 -2.6550036850373684 17.14285714285714 0.55 0.55 0.55
v -19.738504952952248 -2.65500368503736 22.857142857142854 0.55 0.55 0.55
v -18.526202809498468 -7.493415943533098 22.857142857142854 0.55 0.55 0.55
v -18.526202809498464 -7.493415943533101 17.14285714285714 0.55 0.55 0.55
v -18.526202809498464 -7.493415943533101 17.14285714285714 0.55 0.55 0.55
v -18.526202809498468 -7.493415943533098 22.857142857142854 0.55 0.55 0.55
v -16.0470774304164 -11.820957291278033 22.857142857142854 0.55 0.55 0.55
v -16.047077430416408 -11.820957291278026 17.14285714285714 0.55 0.55 0.55
v -16.047077430416408 -11.820957291278026 17.14285714285714 0.55 0.55 0.55
v -16.0470774304164 -11.820957291278033 22.857142857142854 0.55 0.55 0.55
v -12.593579175553595 -15.413003029099931 22.857142857142854 0.55 0.55 0.55
v -12.593579175553602 -15.413003029099926 17.14285714285714 0.55 0.55 0.55
v -12.593579175553602 -15.413003029099926 17.14285714285714 0.55 0.55 0.55
v -12.593579175553595 -15.413003029099931 22.857142857142854 0.55 0.55 0.55
v -8.387456853235173 -18.0853726967386 22.857142857142854 0.55 0.55 0.55
v -8.387456853235168 -18.085372696738602 17.14285714285714 0.55 0.55 0.55
v -8.387456853235168 -18.085372696738602 17.14285714285714 0.55 0.55 0.55
v -8.387456853235173 -18.0853726967386 22.857142857142854 0.55 0.55 0.55
v -3.649688161510392 -19.640537079898497 22.85714285714286 0.55 0.55 0.55
v -3.649688161510373 -19.640537079898497 17.142857142857146 0.55 0.55 0.55
v -3.649688161510373 -19.640537079898497 17.142857142857146 0.55 0.55 0.55
v -3.649688161510392 -19.640537079898497 22.85714285714286 0.55 0.55 0.55
v 1.332263763709767 -19.868783468160647 22.857142857142854 0.55 0.55 0.55
v 1.3322637637097876 -19.86878346816064 17.14285714285714 0.55 0.55 0.55
v 1.3322637637097876 -19.86878346816064 17.14285714285714 0.55 0.55 0.55
v 1.332263763709767 -19.868783468160647 22.857142857142854 0.55 0.55 0.55
v 6.221508168336421 -18.912031796068707 22.857142857142858 0.55 0.55 0.55
v 6.221508168336444 -18.9120317960687 17.142857142857142 0.55 0.55 0.55
v 6.221508168336444 -18.9120317960687 17.142857142857142 0.55 0.55 0.55
v 6.221508168336421 -18.912031796068707 22.857142857142858 0.55 0.55 0.55
v 10.748730511263739 -16.823245597779863 22.857142857142854 0.55 0.55 0.55
v 10.74873051126377 -16.82324559777984 17.14285714285714 0.55 0.55 0.55
v 10.74873051126377 -16.82324559777984 17.14285714285714 0.55 0.55 0.55
v 10.748730511263739 -16.823245597779863 22.857142857142854 0.55 0.55 0.55
v 14.569805475877166 -13.621018354670307 22.857142857142858 0.55 0.55 0.55
v 14.56980547587719 -13.621018354670273 17.142857142857142 0.55 0.55 0.55
v 14.56980547587719 -13.621018354670273 17.142857142857142 0.55 0.55 0.55
v 14.569805475877166 -13.621018354670307 22.857142857142858 0.55 0.55 0.55
v 17.458820380584374 -9.559653758548684 22.857142857142858 0.55 0.55 0.55
v 17.45882038058439 -9.559653758548658 17.142857142857142 0.55 0.55 0.55
v 17.45882038058439 -9.559653758548658 17.142857142857142 0.55 0.55 0.55
v 17.458820380584374 -9.559653758548684 22.857142857142858 0.55 0.55 0.55
v 19.30341678830334 -4.931284696161149 22.857142857142858 0.55 0.55 0.55
v 19.30341678830334 -4.931284696161129 17.142857142857142 0.55 0.55 0.55
v 19.30341678830334 -4.931284696161129 17.142857142857142 0.55 0.55 0.55
v 19.30341678830334 -4.931284696161149 22.857142857142858 0.55 0.55 0.55
v 19.96842327994541 0.3206038089548063 22.857142854886867 0.55 0.55 0.55
v 19.96842327994541 0.3206038089548144 17.142857145113126 0.55 0.55 0.55
v 19.96842327994541 0.3206038089548063 22.857142854886867 0.55 0.55 0.55
v 19.968424807283373 0.32058830163273355 28.571428570817673 0.55 0.55 0.55
v 19.207726546561982 5.24673316353318 28.571428571428573 0.55 0.55 0.55
v 19.207726550299657 5.246733151211691 22.857142857142858 0.55 0.55 0.55
v 19.207726550299657 5.246733151211691 22.857142857142858 0.55 0.55 0.55
v 19.207726546561982 5.24673316353318 28.571428571428573 0.55 0.55 0.55
v 17.303427850712087 9.85037272634881 28.57142857142857 0.55 0.55 0.55
v 17.303427856216512 9.850372716050757 22.857142857142854 0.55 0.55 0.55
v 17.303427856216512 9.850372716050757 22.857142857142854 0.55 0.55 0.55
v 17.303427850712087 9.85037272634881 28.57142857142857 0.55 0.55 0.55
v 14.360682324042749 13.87583564942388 28.57142857142857 0.55 0.55 0.55
v 14.360682324810005 13.875835648488973 22.857142857142854 0.55 0.55 0.55
v 14.360682324810005 13.875835648488973 22.857142857142854 0.55 0.55 0.55
v 14.360682324042749 13.87583564942388 28.57142857142857 0.55 0.55 0.55
v 10.458011548649768 16.978638124880092 28.57142857142857 0.55 0.55 0.55
v 10.458011550149218 16.97863812407862 22.857142857142854 0.55 0.55 0.55
v 10.458011550149218 16.97863812407862 22.857142857142854 0.55 0.55 0.55
v 10.458011548649768 16.978638124880092 28.57142857142857 0.55 0.55 0.55
v 5.906059705479225 19.00772203644051 28.57142857142857 0.55 0.55 0.55
v 5.906059714124564 19.007722033817974 22.857142857142854 0.55 0.55 0.55
v 5.906059714124564 19.007722033817974 22.857142857142854 0.55 0.55 0.55
v 5.906059705479225 19.00772203644051 28.57142857142857 0.55 0.55 0.55
v 1.0042083217572284 19.901094110029472 28.57142857142857 0.55 0.55 0.55
v 1.00420832493048 19.901094109716933 22.857142857142854 0.55 0.55 0.55
v 1.00420832493048 19.901094109716933 22.857142857142854 0.55 0.55 0.55
v 1.0042083217572284 19.901094110029472 28.57142857142857 0.55 0.55 0.55
v -3.9748253750813864 19.59355553715311 28.571428571428573 0.55 0.55 0.55
v -3.974825374995747 19.593555537179093 22.857142857142858 0.55 0.55 0.55
v -3.974825374995747 19.593555537179093 22.857142857142858 0.55 0.55 0.55
v -3.9748253750813864 19.59355553715311 28.571428571428573 0.55 0.55 0.55
v -8.678175813756756 17.929980170756778 28.571428571428573 0.55 0.55 0.55
v -8.678175811173045 17.929980172137796 22.857142857142858 0.55 0.55 0.55
v -8.678175811173045 17.929980172137796 22.857142857142858 0.55 0.55 0.55
v -8.678175813756756 17.929980170756778 28.571428571428573 0.55 0.55 0.55
v -12.848396476461206 15.203879872215024 28.57142857142857 0.55 0.55 0.55
v -12.848396473194201 15.203879874896183 22.857142857142854 0.55 0.55 0.55
v -12.848396473194201 15.203879874896183 22.857142857142854 0.55 0.55 0.55
v -12.848396476461206 15.203879872215024 28.57142857142857 0.55 0.55 0.55
v -16.25620058429105 11.566139994038435 28.57142857142857 0.55 0.55 0.55
v -16.256200584021766 11.56613999436656 22.857142857142854 0.55 0.55 0.55
v -16.256200584021766 11.56613999436656 22.857142857142854 0.55 0.55 0.55
v -16.25620058429105 11.566139994038435 28.57142857142857 0.55 0.55 0.55
v -18.62189304747803 7.177967488562066 28.57142857142857 0.55 0.55 0.55
v -18.62189304743031 7.177967488719367 22.857142857142854 0.55 0.55 0.55
v -18.62189304743031 7.177967488719367 22.857142857142854 0.55 0.55 0.55
v -18.62189304747803 7.177967488562066 28.57142857142857 0.55 0.55 0.55
v -19.770815594601668 2.3269482453124803 28.57142857142857 0.55 0.55 0.55
v -19.770815594560872 2.326948245726673 22.857142857142854 0.55 0.55 0.55
v -19.770815594560872 2.326948245726673 22.857142857142854 0.55 0.55 0.55
v -19.770815594601668 2.3269482453124803 28.57142857142857 0.55 0.55 0.55
v -19.738504952979206 -2.655003684763606 28.57142857142857 0.55 0.55 0.55
v -19.738504952952248 -2.65500368503736 22.857142857142854 0.55 0.55 0.55
v -19.738504952952248 -2.65500368503736 22.857142857142854 0.55 0.55 0.55
v -19.738504952979206 -2.655003684763606 28.57142857142857 0.55 0.55 0.55
v -18.526202809514338 -7.493415943480779 28.57142857142857 0.55 0.55 0.55
v -18.526202809498468 -7.493415943533098 22.857142857142854 0.55 0.55 0.55
v -18.526202809498468 -7.493415943533098 22.857142857142854 0.55 0.55 0.55
v -18.526202809514338 -7.493415943480779 28.57142857142857 0.55 0.55 0.55
v -16.04707743106118 -11.82095729049237 28.57142857142857 0.55 0.55 0.55
v -16.0470774304164 -11.820957291278033 22.857142857142854 0.55 0.55 0.55
v -16.0470774304164 -11.820957291278033 22.857142857142854 0.55 0.55 0.55
v -16.04707743106118 -11.82095729049237 28.57142857142857 0.55 0.55 0.55
v -12.593579178832815 -15.413003026408745 28.57142857142857 0.55 0.55 0.55
v -12.593579175553595 -15.413003029099931 22.857142857142854 0.55 0.55 0.55
v -12.593579175553595 -15.413003029099931 22.857142857142854 0.55 0.55 0.55
v -12.593579178832815 -15.413003026408745 28.57142857142857 0.55 0.55 0.55
v -8.387456854265707 -18.08537269618777 28.57142857142857 0.55 0.55 0.55
v -8.387456853235173 -18.0853726967386 22.857142857142854 0.55 0.55 0.55
v -8.387456853235173 -18.0853726967386 22.857142857142854 0.55 0.55 0.55
v -8.387456854265707 -18.08537269618777 28.57142857142857 0.55 0.55 0.55
v -3.6496881614032946 -19.640537079909045 28.571428571428577 0.55 0.55 0.55
v -3.649688161510392 -19.640537079898497 22.85714285714286 0.55 0.55 0.55
v -3.649688161510392 -19.640537079898497 22.85714285714286 0.55 0.55 0.55
v -3.6496881614032946 -19.640537079909045 28.571428571428577 0.55 0.55 0.55
v 1.332263757812115 -19.868783468741515 28.57142857142857 0.55 0.55 0.55
v 1.332263763709767 -19.868783468160647 22.857142857142854 0.55 0.55 0.55
v 1.332263763709767 -19.868783468160647 22.857142857142854 0.55 0.55 0.55
v 1.332263757812115 -19.868783468741515 28.57142857142857 0.55 0.55 0.55
v 6.2215081604207345 -18.912031798469904 28.571428571428573 0.55 0.55 0.55
v 6.221508168336421 -18.912031796068707 22.857142857142858 0.55 0.55 0.55
v 6.221508168336421 -18.912031796068707 22.857142857142858 0.55 0.55 0.55
v 6.2215081604207345 -18.912031798469904 28.571428571428573 0.55 0.55 0.55
v 10.748730510405254 -16.823245598238728 28.57142857142857 0.55 0.55 0.55
v 10.748730511263739 -16.823245597779863 22.857142857142854 0.55 0.55 0.55
v 10.748730511263739 -16.823245597779863 22.857142857142854 0.55 0.55 0.55
v 10.748730510405254 -16.823245598238728 28.57142857142857 0.55 0.55 0.55
v 14.569805474531748 -13.621018356309708 28.571428571428573 0.55 0.55 0.55
v 14.569805475877166 -13.621018354670307 22.857142857142858 0.55 0.55 0.55
v 14.569805475877166 -13.621018354670307 22.857142857142858 0.55 0.55 0.55
v 14.569805474531748 -13.621018356309708 28.571428571428573 0.55 0.55 0.55
v 17.458820374122368 -9.559653770638254 28.571428571428573 0.55 0.55 0.55
v 17.458820380584374 -9.559653758548684 22.857142857142858 0.55 0.55 0.55
v 17.458820380584374 -9.559653758548684 22.857142857142858 0.55 0.55 0.55
v 17.458820374122368 -9.559653770638254 28.571428571428573 0.55 0.55 0.55
v 19.303416785885315 -4.931284704132306 28.571428571428573 0.55 0.55 0.55
v 19.30341678830334 -4.931284696161149 22.857142857142858 0.55 0.55 0.55
v 19.30341678830334 -4.931284696161149 22.857142857142858 0.55 0.55 0.55
v 19.303416785885315 -4.931284704132306 28.571428571428573 0.55 0.55 0.55
v 19.968424807283373 0.32058830163273355 28.571428570817673 0.55 0.55 0.55
v 19.96842327994541 0.3206038089548063 22.857142854886867 0.55 0.55 0.55
v 19.968424807283373 0.32058830163273355 28.571428570817673 0.55 0.55 0.55
v 19.968423756860027 0.32059896675960553 34.28571428826583 0.55 0.55 0.55
v 19.207726547172893 5.24673316151927 34.285714285714285 0.55 0.55 0.55
v 19.207726546561982 5.24673316353318 28.571428571428573 0.55 0.55 0.55
v 19.207726546561982 5.24673316353318 28.571428571428573 0.55 0.55 0.55
v 19.207726547172893 5.24673316151927 34.285714285714285 0.55 0.55 0.55
v 17.30342785301838 9.850372722034036 34.285714285714285 0.55 0.55 0.55
v 17.303427850712087 9.85037272634881 28.57142857142857 0.55 0.55 0.55
v 17.303427850712087 9.85037272634881 28.57142857142857 0.55 0.55 0.55
v 17.30342785301838 9.850372722034036 34.285714285714285 0.55 0.55 0.55
v 14.36068232420452 13.875835649226762 34.285714285714285 0.55 0.55 0.55
v 14.360682324042749 13.87583564942388 28.57142857142857 0.55 0.55 0.55
v 14.360682324042749 13.87583564942388 28.57142857142857 0.55 0.55 0.55
v 14.36068232420452 13.875835649226762 34.285714285714285 0.55 0.55 0.55
v 10.458011549536398 16.978638124406178 34.285714285714285 0.55 0.55 0.55
v 10.458011548649768 16.978638124880092 28.57142857142857 0.55 0.55 0.55
v 10.458011548649768 16.978638124880092 28.57142857142857 0.55 0.55 0.55
v 10.458011549536398 16.978638124406178 34.285714285714285 0.55 0.55 0.55
v 5.90605971039375 19.007722034949705 34.285714285714285 0.55 0.55 0.55
v 5.906059705479225 19.00772203644051 28.57142857142857 0.55 0.55 0.55
v 5.906059705479225 19.00772203644051 28.57142857142857 0.55 0.55 0.55
v 5.90605971039375 19.007722034949705 34.285714285714285 0.55 0.55 0.55
v 1.0042083238690103 19.90109410982148 34.285714285714285 0.55 0.55 0.55
v 1.0042083217572284 19.901094110029472 28.57142857142857 0.55 0.55 0.55
v 1.0042083217572284 19.901094110029472 28.57142857142857 0.55 0.55 0.55
v 1.0042083238690103 19.90109410982148 34.285714285714285 0.55 0.55 0.55
v -3.9748253749976534 19.593555537178517 34.28571428571429 0.55 0.55 0.55
v -3.9748253750813864 19.59355553715311 28.571428571428573 0.55 0.55 0.55
v -3.9748253750813864 19.59355553715311 28.571428571428573 0.55 0.55 0.55
v -3.9748253749976534 19.593555537178517 34.28571428571429 0.55 0.55 0.55
v -8.678175812087938 17.929980171648776 34.285714285714285 0.55 0.55 0.55
v -8.678175813756756 17.929980170756778 28.571428571428573 0.55 0.55 0.55
v -8.678175813756756 17.929980170756778 28.571428571428573 0.55 0.55 0.55
v -8.678175812087938 17.929980171648776 34.285714285714285 0.55 0.55 0.55
v -12.848396474557479 15.203879873777371 34.285714285714285 0.55 0.55 0.55
v -12.848396476461206 15.203879872215024 28.57142857142857 0.55 0.55 0.55
v -12.848396476461206 15.203879872215024 28.57142857142857 0.55 0.55 0.55
v -12.848396474557479 15.203879873777371 34.285714285714285 0.55 0.55 0.55
v -16.25620058410137 11.566139994269562 34.285714285714285 0.55 0.55 0.55
v -16.25620058429105 11.566139994038435 28.57142857142857 0.55 0.55 0.55
v -16.25620058429105 11.566139994038435 28.57142857142857 0.55 0.55 0.55
v -16.25620058410137 11.566139994269562 34.285714285714285 0.55 0.55 0.55
v -18.62189304744436 7.177967488673044 34.285714285714285 0.55 0.55 0.55
v -18.62189304747803 7.177967488562066 28.57142857142857 0.55 0.55 0.55
v -18.62189304747803 7.177967488562066 28.57142857142857 0.55 0.55 0.55
v -18.62189304744436 7.177967488673044 34.285714285714285 0.55 0.55 0.55
v -19.770815594577574 2.32694824555709 34.285714285714285 0.55 0.55 0.55
v -19.770815594601668 2.3269482453124803 28.57142857142857 0.55 0.55 0.55
v -19.770815594601668 2.3269482453124803 28.57142857142857 0.55 0.55 0.55
v -19.770815594577574 2.32694824555709 34.285714285714285 0.55 0.55 0.55
v -19.73850495296224 -2.6550036849358802 34.285714285714285 0.55 0.55 0.55
v -19.738504952979206 -2.655003684763606 28.57142857142857 0.55 0.55 0.55
v -19.738504952979206 -2.655003684763606 28.57142857142857 0.55 0.55 0.55
v -19.73850495296224 -2.6550036849358802 34.285714285714285 0.55 0.55 0.55
v -18.526202809502756 -7.493415943518964 34.285714285714285 0.55 0.55 0.55
v -18.526202809514338 -7.493415943480779 28.57142857142857 0.55 0.55 0.55
v -18.526202809514338 -7.493415943480779 28.57142857142857 0.55 0.55 0.55
v -18.526202809502756 -7.493415943518964 34.285714285714285 0.55 0.55 0.55
v -16.047077430633596 -11.820957291013382 34.285714285714285 0.55 0.55 0.55
v -16.04707743106118 -11.82095729049237 28.57142857142857 0.55 0.55 0.55
v -16.04707743106118 -11.82095729049237 28.57142857142857 0.55 0.55 0.55
v -16.047077430633596 -11.820957291013382 34.285714285714285 0.55 0.55 0.55
v -12.593579176953607 -15.413003027950971 34.285714285714285 0.55 0.55 0.55
v -12.593579178832815 -15.413003026408745 28.57142857142857 0.55 0.55 0.55
v -12.593579178832815 -15.413003026408745 28.57142857142857 0.55 0.55 0.55
v -12.593579176953607 -15.413003027950971 34.285714285714285 0.55 0.55 0.55
v -8.387456853577039 -18.08537269655587 34.285714285714285 0.55 0.55 0.55
v -8.387456854265707 -18.08537269618777 28.57142857142857 0.55 0.55 0.55
v -8.387456854265707 -18.08537269618777 28.57142857142857 0.55 0.55 0.55
v -8.387456853577039 -18.08537269655587 34.285714285714285 0.55 0.55 0.55
v -3.6496881611957344 -19.640537079929484 34.285714285714285 0.55 0.55 0.55
v -3.6496881614032946 -19.640537079909045 28.571428571428577 0.55 0.55 0.55
v -3.6496881614032946 -19.640537079909045 28.571428571428577 0.55 0.55 0.55
v -3.6496881611957344 -19.640537079929484 34.285714285714285 0.55 0.55 0.55
v 1.3322637614633437 -19.868783468381903 34.285714285714285 0.55 0.55 0.55
v 1.332263757812115 -19.868783468741515 28.57142857142857 0.55 0.55 0.55
v 1.332263757812115 -19.868783468741515 28.57142857142857 0.55 0.55 0.55
v 1.3322637614633437 -19.868783468381903 34.285714285714285 0.55 0.55 0.55
v 6.221508165136573 -18.912031797039372 34.285714285714285 0.55 0.55 0.55
v 6.2215081604207345 -18.912031798469904 28.571428571428573 0.55 0.55 0.55
v 6.2215081604207345 -18.912031798469904 28.571428571428573 0.55 0.55 0.55
v 6.221508165136573 -18.912031797039372 34.285714285714285 0.55 0.55 0.55
v 10.748730510878575 -16.823245597985736 34.285714285714285 0.55 0.55 0.55
v 10.748730510405254 -16.823245598238728 28.57142857142857 0.55 0.55 0.55
v 10.748730510405254 -16.823245598238728 28.57142857142857 0.55 0.55 0.55
v 10.748730510878575 -16.823245597985736 34.285714285714285 0.55 0.55 0.55
v 14.569805475012855 -13.621018355723477 34.285714285714285 0.55 0.55 0.55
v 14.569805474531748 -13.621018356309708 28.571428571428573 0.55 0.55 0.55
v 14.569805474531748 -13.621018356309708 28.571428571428573 0.55 0.55 0.55
v 14.569805475012855 -13.621018355723477 34.285714285714285 0.55 0.55 0.55
v 17.458820376711614 -9.559653765794113 34.285714285714285 0.55 0.55 0.55
v 17.458820374122368 -9.559653770638254 28.571428571428573 0.55 0.55 0.55
v 17.458820374122368 -9.559653770638254 28.571428571428573 0.55 0.55 0.55
v 17.458820376711614 -9.559653765794113 34.285714285714285 0.55 0.55 0.55
v 19.303416785724163 -4.931284704663554 34.285714285714285 0.55 0.55 0.55
v 19.303416785885315 -4.931284704132306 28.571428571428573 0.55 0.55 0.55
v 19.303416785885315 -4.931284704132306 28.571428571428573 0.55 0.55 0.55
v 19.303416785724163 -4.931284704663554 34.285714285714285 0.55 0.55 0.55
v 19.968423756860027 0.32059896675960553 34.28571428826583 0.55 0.55 0.55
v 19.968424807283373 0.32058830163273355 28.571428570817673 0.55 0.55 0.55
v 19.968423756860027 0.32059896675960553 34.28571428826583 0.55 0.55 0.55
v 19.96841499892341 0.3206878875795064 40.00000000009412 0.55 0.55 0.55
v 19.207726551105488 5.246733148555247 40.0 0.55 0.55 0.55
v 19.207726547172893 5.24673316151927 34.285714285714285 0.55 0.55 0.55
v 19.207726547172893 5.24673316151927 34.285714285714285 0.55 0.55 0.55
v 19.207726551105488 5.246733148555247 40.0 0.55 0.55 0.55
v 17.30342786046305 9.850372708106043 40.0 0.55 0.55 0.55
v 17.30342785301838 9.850372722034036 34.285714285714285 0.55 0.55 0.55
v 17.30342785301838 9.850372722034036 34.285714285714285 0.55 0.55 0.55
v 17.30342786046305 9.850372708106043 40.0 0.55 0.55 0.55
v 14.360682327367645 13.87583564537248 40.0 0.55 0.55 0.55
v 14.36068232420452 13.875835649226762 34.285714285714285 0.55 0.55 0.55
v 14.36068232420452 13.875835649226762 34.285714285714285 0.55 0.55 0.55
v 14.360682327367645 13.87583564537248 40.0 0.55 0.55 0.55
v 10.458011557657684 16.97863812006526 40.0 0.55 0.55 0.55
v 10.458011549536398 16.978638124406178 34.285714285714285 0.55 0.55 0.55
v 10.458011549536398 16.978638124406178 34.285714285714285 0.55 0.55 0.55
v 10.458011557657684 16.97863812006526 40.0 0.55 0.55 0.55
v 5.906059721852893 19.007722031473612 40.0 0.55 0.55 0.55
v 5.90605971039375 19.007722034949705 34.285714285714285 0.55 0.55 0.55
v 5.90605971039375 19.007722034949705 34.285714285714285 0.55 0.55 0.55
v 5.906059721852893 19.007722031473612 40.0 0.55 0.55 0.55
v 1.0042083327151878 19.901094108950208 40.0 0.55 0.55 0.55
v 1.0042083238690103 19.90109410982148 34.285714285714285 0.55 0.55 0.55
v 1.0042083238690103 19.90109410982148 34.285714285714285 0.55 0.55 0.55
v 1.0042083327151878 19.901094108950208 40.0 0.55 0.55 0.55
v -3.9748253744260085 19.59355553735192 40.00000000000001 0.55 0.55 0.55
v -3.9748253749976534 19.593555537178517 34.28571428571429 0.55 0.55 0.55
v -3.9748253749976534 19.593555537178517 34.28571428571429 0.55 0.55 0.55
v -3.9748253744260085 19.59355553735192 40.00000000000001 0.55 0.55 0.55
v -8.678175806589346 17.929980174587833 40.0 0.55 0.55 0.55
v -8.678175812087938 17.929980171648776 34.285714285714285 0.55 0.55 0.55
v -8.678175812087938 17.929980171648776 34.285714285714285 0.55 0.55 0.55
v -8.678175806589346 17.929980174587833 40.0 0.55 0.55 0.55
v -12.848396470169593 15.203879877378416 40.0 0.55 0.55 0.55
v -12.848396474557479 15.203879873777371 34.285714285714285 0.55 0.55 0.55
v -12.848396474557479 15.203879873777371 34.285714285714285 0.55 0.55 0.55
v -12.848396470169593 15.203879877378416 40.0 0.55 0.55 0.55
v -16.256200582542267 11.566139996169333 40.0 0.55 0.55 0.55
v -16.25620058410137 11.566139994269562 34.285714285714285 0.55 0.55 0.55
v -16.25620058410137 11.566139994269562 34.285714285714285 0.55 0.55 0.55
v -16.256200582542267 11.566139996169333 40.0 0.55 0.55 0.55
v -18.621893047167966 7.177967489584198 40.0 0.55 0.55 0.55
v -18.62189304744436 7.177967488673044 34.285714285714285 0.55 0.55 0.55
v -18.62189304744436 7.177967488673044 34.285714285714285 0.55 0.55 0.55
v -18.621893047167966 7.177967489584198 40.0 0.55 0.55 0.55
v -19.770815594522254 2.3269482461187527 40.0 0.55 0.55 0.55
v -19.770815594577574 2.32694824555709 34.285714285714285 0.55 0.55 0.55
v -19.770815594577574 2.32694824555709 34.285714285714285 0.55 0.55 0.55
v -19.770815594522254 2.3269482461187527 40.0 0.55 0.55 0.55
v -19.73850495291181 -2.655003685447914 40.0 0.55 0.55 0.55
v -19.73850495296224 -2.6550036849358802 34.285714285714285 0.55 0.55 0.55
v -19.73850495296224 -2.6550036849358802 34.285714285714285 0.55 0.55 0.55
v -19.73850495291181 -2.655003685447914 40.0 0.55 0.55 0.55
v -18.52620280940955 -7.493415943826228 40.0 0.55 0.55 0.55
v -18.526202809502756 -7.493415943518964 34.285714285714285 0.55 0.55 0.55
v -18.526202809502756 -7.493415943518964 34.285714285714285 0.55 0.55 0.55
v -18.52620280940955 -7.493415943826228 40.0 0.55 0.55 0.55
v -16.047077428417026 -11.82095729371428 40.0 0.55 0.55 0.55
v -16.047077430633596 -11.820957291013382 34.285714285714285 0.55 0.55 0.55
v -16.047077430633596 -11.820957291013382 34.285714285714285 0.55 0.55 0.55
v -16.047077428417026 -11.82095729371428 40.0 0.55 0.55 0.55
v -12.593579172602634 -15.413003031521724 40.0 0.55 0.55 0.55
v -12.593579176953607 -15.413003027950971 34.285714285714285 0.55 0.55 0.55
v -12.593579176953607 -15.413003027950971 34.285714285714285 0.55 0.55 0.55
v -12.593579172602634 -15.413003031521724 40.0 0.55 0.55 0.55
v -8.387456848868231 -18.085372699072778 40.0 0.55 0.55 0.55
v -8.387456853577039 -18.08537269655587 34.285714285714285 0.55 0.55 0.55
v -8.387456853577039 -18.08537269655587 34.285714285714285 0.55 0.55 0.55
v -8.387456848868231 -18.085372699072778 40.0 0.55 0.55 0.55
v -3.6496881590258186 -19.640537080143204 40.0 0.55 0.55 0.55
v -3.6496881611957344 -19.640537079929484 34.285714285714285 0.55 0.55 0.55
v -3.6496881611957344 -19.640537079929484 34.285714285714285 0.55 0.55 0.55
v -3.6496881590258186 -19.640537080143204 40.0 0.55 0.55 0.55
v 1.3322637714580492 -19.86878346739751 40.0 0.55 0.55 0.55
v 1.3322637614633437 -19.868783468381903 34.285714285714285 0.55 0.55 0.55
v 1.3322637614633437 -19.868783468381903 34.285714285714285 0.55 0.55 0.55
v 1.3322637714580492 -19.86878346739751 40.0 0.55 0.55 0.55
v 6.221508176574497 -18.912031793569714 40.0 0.55 0.55 0.55
v 6.221508165136573 -18.912031797039372 34.285714285714285 0.55 0.55 0.55
v 6.221508165136573 -18.912031797039372 34.285714285714285 0.55 0.55 0.55
v 6.221508176574497 -18.912031793569714 40.0 0.55 0.55 0.55
v 10.748730515382377 -16.8232455955784 40.0 0.55 0.55 0.55
v 10.748730510878575 -16.823245597985736 34.285714285714285 0.55 0.55 0.55
v 10.748730510878575 -16.823245597985736 34.285714285714285 0.55 0.55 0.55
v 10.748730515382377 -16.8232455955784 40.0 0.55 0.55 0.55
v 14.569805481309444 -13.62101834805106 40.0 0.55 0.55 0.55
v 14.569805475012855 -13.621018355723477 34.285714285714285 0.55 0.55 0.55
v 14.569805475012855 -13.621018355723477 34.285714285714285 0.55 0.55 0.55
v 14.569805481309444 -13.62101834805106 40.0 0.55 0.55 0.55
v 17.458820384284497 -9.559653751626243 40.0 0.55 0.55 0.55
v 17.458820376711614 -9.559653765794113 34.285714285714285 0.55 0.55 0.55
v 17.458820376711614 -9.559653765794113 34.285714285714285 0.55 0.55 0.55
v 17.458820384284497 -9.559653751626243 40.0 0.55 0.55 0.55
v 19.303416789031246 -4.93128469376156 40.0 0.55 0.55 0.55
v 19.303416785724163 -4.931284704663554 34.285714285714285 0.55 0.55 0.55
v 19.303416785724163 -4.931284704663554 34.285714285714285 0.55 0.55 0.55
v 19.303416789031246 -4.93128469376156 40.0 0.55 0.55 0.55
v 19.96841499892341 0.3206878875795064 40.00000000009412 0.55 0.55 0.55
v 19.968423756860027 0.32059896675960553 34.28571428826583 0.55 0.55 0.55
f 1 2 3 4
f 5 6 7 8
f 9 10 11 12
f 13 14 15 16
f 17 18 19 20
f 21 22 23 24
f 25 26 27 28
f 29 30 31 32
f 33 34 35 36
f 37 38 39 40
f 41 42 43 44
f 45 46 47 48
f 49 50 51 52
f 53 54 55 56
f 57 58 59 60
f 61 62 63 64
f 65 66 67 68
f 69 70 71 72
f 73 74 75 76
f 77 78 79 80
f 81 82 83 84
f 85 86 87 88
f 89 90 91 92
f 93 94 95 96
f 97 98 99 100
f 101 102 103 104
f 105 106 107 108
f 109 110 111 112
f 113 114 115 116
f 117 118 119 120
f 121 122 123 124
f 125 126 127 128
f 129 130 131 132
f 133 134 135 136
f 137 138 139 140
f 141 142 143 144
f 145 146 147 148
f 149 150 151 152
f 153 154 155 156
f 157 158 159 160
f 161 162 163 164
f 165 166 167 168
f 169 170 171 172
f 173 174 175 176
f 177 178 179 180
f 181 182 183 184
f 185 186 187 188
f 189 190 191 192
f 193 194 195 196
f 197 198 199 200
f 201 202 203 204
f 205 206 207 208
f 209 210 211 212
f 213 214 215 216
f 217 218 219 220
f 221 222 223 224
f 225 226 227 228
f 229 230 231 232
f 233 234 235 236
f 237 238 239 240
f 241 242 243 244
f 245 246 247 248
f 249 250 251 252
f 253 254 255 256
f 257 258 259 260
f 261 262 263 264
f 265 266 267 268
f 269 270 271 272
f 273 274 275 276
f 277 278 279 280
f 281 282 283 284
f 285 286 287 288
f 289 290 291 292
f 293 294 295 296
f 297 298 299 300
f 301 302 303 304
f 305 306 307 308
f 309 310 311 312
f 313 314 315 316
f 317 318 319 320
f 321 322 323 324
f 325 326 327 328
f 329 330 331 332
f 333 334 335 336
f 337 338 339 340
f 341 342 343 344
f 345 346 347 348
f 349 350 351 352
f 353 354 355 356
f 357 358 359 360
f 361 362 363 364
f 365 366 367 368
f 369 370 371 372
f 373 374 375 376
f 377 378 379 380
f 381 382 383 384
f 385 386 387 388
f 389 390 391 392
f 393 394 395 396
f 397 398 399 400
f 401 402 403 404
f 405 406 407 408
f 409 410 411 412
f 413 414 415 416
f 417 418 419 420
f 421 422 423 424
f 425 426 427 428
f 429 430 431 432
f 433 434 435 436
f 437 438 439 440
f 441 442 443 444
f 445 446 447 448
f 449 450 451 452
f 453 454 455 456
f 457 458 459 460
f 461 462 463 464
f 465 466 467 468
f 469 470 471 472
f 473 474 475 476
f 477 478 479 480
f 481 482 483 484
f 485 486 487 488
f 489 490 491 492
f 493 494 495 496
f 497 498 499 500
f 501 502 503 504
f 505 506 507 508
f 509 510 511 512
f 513 514 515 516
f 517 518 519 520
f 521 522 523 524
f 525 526 527 528
f 529 530 531 532
f 533 534 535 536
f 537 538 539 540
f 541 542 543 544
f 545 546 547 548
f 549 550 551 552
f 553 554 555 556
f 557 558 559 560
f 561 562 563 564
f 565 566 567 568
f 569 570 571 572
f 573 574 575 576
f 577 578 579 580
f 581 582 583 584
f 585 586 587 588
f 589 590 591 592
f 593 594 595 596
f 597 598 599 600
f 601 602 603 604
f 605 606 607 608
f 609 610 611 612
f 613 614 615 616
f 617 618 619 620
f 621 622 623 624
f 625 626 627 628
f 629 630 631 632
f 633 634 635 636
f 637 638 639 640
f 641 642 643 644
f 645 646 647 648
f 649 650 651 652
f 653 654 655 656
f 657 658 659 660
f 661 662 663 664
f 665 666 667 668
f 669 670 671 672
f 673 674 675 676
f 677 678 679 680
f 681 682 683 684
f 685 686 687 688
f 689 690 691 692
f 693 694 695 696
f 697 698 699 700
