# KnittingStitches fat cylinder scale_mode=propagate
# finished faces_ring only; path_generate stopped before the next row
v 8.948867813923592 0.05633250783375266 2.7112603014853054 0.55 0.55 0.55
v 9.761717912488674 4.10346832294744 2.9771433216875156 0.55 0.55 0.55
v 7.978896741458692 4.116466109585394 6.385652566060775 0.55 0.55 0.55
v 7.1469776105018745 0.06461329657054486 6.087481103672262 0.55 0.55 0.55
v 7.1469776105018745 0.06461329657054486 6.087481103672262 0.55 0.55 0.55
v 7.978896741458692 4.116466109585394 6.385652566060775 0.55 0.55 0.55
v 5.0298852395372275 4.171384475236576 8.932769479488245 0.55 0.55 0.55
v 4.157508482284211 0.09645424752141442 8.539746442221686 0.55 0.55 0.55
v 4.157508482284211 0.09645424752141442 8.539746442221686 0.55 0.55 0.55
v 5.0298852395372275 4.171384475236576 8.932769479488245 0.55 0.55 0.55
v 1.3233960522686168 4.110561975138828 10.134960026725862 0.55 0.55 0.55
v 1.0002827004223318 0.06153322599456725 9.320749798983286 0.55 0.55 0.55
v 1.0002827004223318 0.06153322599456725 9.320749798983286 0.55 0.55 0.55
v 1.3233960522686168 4.110561975138828 10.134960026725862 0.55 0.55 0.55
v -2.617972405203648 4.106506984310321 9.879420249237699 0.55 0.55 0.55
v -2.566169265816587 0.05897267947263891 9.014010633096508 0.55 0.55 0.55
v -2.566169265816587 0.05897267947263891 9.014010633096508 0.55 0.55 0.55
v -2.617972405203648 4.106506984310321 9.879420249237699 0.55 0.55 0.55
v -6.188734159103059 4.1039632024712756 8.132379588588918 0.55 0.55 0.55
v -5.779972698030147 0.057072112145677076 7.373991762580962 0.55 0.55 0.55
v -5.779972698030147 0.057072112145677076 7.373991762580962 0.55 0.55 0.55
v -6.188734159103059 4.1039632024712756 8.132379588588918 0.55 0.55 0.55
v -8.85194912405239 4.103379396297185 5.105584738553297 0.55 0.55 0.55
v -8.163246003101595 0.05654234828293899 4.590263589917528 0.55 0.55 0.55
v -8.163246003101595 0.05654234828293899 4.590263589917528 0.55 0.55 0.55
v -8.85194912405239 4.103379396297185 5.105584738553297 0.55 0.55 0.55
v -10.144355899780985 4.104940234373844 1.182666928872207 0.55 0.55 0.55
v -9.304578121802223 0.05690285514522396 1.008636532135423 0.55 0.55 0.55
v -9.304578121802223 0.05690285514522396 1.008636532135423 0.55 0.55 0.55
v -10.144355899780985 4.104940234373844 1.182666928872207 0.55 0.55 0.55
v -9.754986682224875 4.135408960358787 -2.996863856652954 0.55 0.55 0.55
v -8.919606454206793 0.06788231087634948 -2.7983963882122382 0.55 0.55 0.55
v -8.919606454206793 0.06788231087634948 -2.7983963882122382 0.55 0.55 0.55
v -9.754986682224875 4.135408960358787 -2.996863856652954 0.55 0.55 0.55
v -7.80096355551807 4.120907736019679 -6.577514720270209 0.55 0.55 0.55
v -7.127707897028589 0.06540067209048521 -6.046279185560526 0.55 0.55 0.55
v -7.127707897028589 0.06540067209048521 -6.046279185560526 0.55 0.55 0.55
v -7.80096355551807 4.120907736019679 -6.577514720270209 0.55 0.55 0.55
v -4.676536219497088 4.111963676284757 -9.068363204371696 0.55 0.55 0.55
v -4.289443878906391 0.060896028273130676 -8.304740755290732 0.55 0.55 0.55
v -4.289443878906391 0.060896028273130676 -8.304740755290732 0.55 0.55 0.55
v -4.676536219497088 4.111963676284757 -9.068363204371696 0.55 0.55 0.55
v -0.876475365436812 4.105895823340312 -10.165240825225405 0.55 0.55 0.55
v -0.8491497467490425 0.057814072178342606 -9.309775172296085 0.55 0.55 0.55
v -0.8491497467490425 0.057814072178342606 -9.309775172296085 0.55 0.55 0.55
v -0.876475365436812 4.105895823340312 -10.165240825225405 0.55 0.55 0.55
v 3.045574903904658 4.112418089578253 -9.737969758338549 0.55 0.55 0.55
v 2.7055296782970615 0.05929199273033158 -8.949680426860134 0.55 0.55 0.55
v 2.7055296782970615 0.05929199273033158 -8.949680426860134 0.55 0.55 0.55
v 3.045574903904658 4.112418089578253 -9.737969758338549 0.55 0.55 0.55
v 6.4550822487898465 4.138057861012767 -7.932706882190042 0.55 0.55 0.55
v 5.600817754140067 0.07779381939888301 -7.593484115279603 0.55 0.55 0.55
v 5.600817754140067 0.07779381939888301 -7.593484115279603 0.55 0.55 0.55
v 6.4550822487898465 4.138057861012767 -7.932706882190042 0.55 0.55 0.55
v 8.925670234291358 4.108033452854719 -4.965838260768944 0.55 0.55 0.55
v 8.107185739613245 0.05898511051886847 -4.691276943439448 0.55 0.55 0.55
v 8.107185739613245 0.05898511051886847 -4.691276943439448 0.55 0.55 0.55
v 8.925670234291358 4.108033452854719 -4.965838260768944 0.55 0.55 0.55
v 10.135888033148106 4.101739262513888 -1.296522075630161 0.55 0.55 0.55
v 9.309495118158132 0.056192597088124116 -1.031355226422978 0.55 0.55 0.55
v 9.309495118158132 0.056192597088124116 -1.031355226422978 0.55 0.55 0.55
v 10.135888033148106 4.101739262513888 -1.296522075630161 0.55 0.55 0.55
v 9.761717912488674 4.10346832294744 2.9771433216875156 0.55 0.55 0.55
v 8.948867813923592 0.05633250783375266 2.7112603014853054 0.55 0.55 0.55
v 9.761717912488674 4.10346832294744 2.9771433216875156 0.55 0.55 0.55
v 10.788347043928399 8.095204682180901 3.3294052474954747 0.55 0.55 0.55
v 9.03374616875712 8.10740671217091 6.783936536464719 0.55 0.55 0.55
v 7.978896741458692 4.116466109585394 6.385652566060775 0.55 0.55 0.55
v 7.978896741458692 4.116466109585394 6.385652566060775 0.55 0.55 0.55
v 9.03374616875712 8.10740671217091 6.783936536464719 0.55 0.55 0.55
v 6.082841172284782 8.183251808166577 9.497087281320459 0.55 0.55 0.55
v 5.0298852395372275 4.171384475236576 8.932769479488245 0.55 0.55 0.55
v 5.0298852395372275 4.171384475236576 8.932769479488245 0.55 0.55 0.55
v 6.082841172284782 8.183251808166577 9.497087281320459 0.55 0.55 0.55
v 1.7372522270293052 8.102734635884401 11.16203529001365 0.55 0.55 0.55
v 1.3233960522686168 4.110561975138828 10.134960026725862 0.55 0.55 0.55
v 1.3233960522686168 4.110561975138828 10.134960026725862 0.55 0.55 0.55
v 1.7372522270293052 8.102734635884401 11.16203529001365 0.55 0.55 0.55
v -2.6798732098350198 8.098111955817636 10.974281967300476 0.55 0.55 0.55
v -2.617972405203648 4.106506984310321 9.879420249237699 0.55 0.55 0.55
v -2.617972405203648 4.106506984310321 9.879420249237699 0.55 0.55 0.55
v -2.6798732098350198 8.098111955817636 10.974281967300476 0.55 0.55 0.55
v -6.691872709834697 8.094948228119593 9.101718314672292 0.55 0.55 0.55
v -6.188734159103059 4.1039632024712756 8.132379588588918 0.55 0.55 0.55
v -6.188734159103059 4.1039632024712756 8.132379588588918 0.55 0.55 0.55
v -6.691872709834697 8.094948228119593 9.101718314672292 0.55 0.55 0.55
v -9.710182787449241 8.094296876860666 5.779568521242828 0.55 0.55 0.55
v -8.85194912405239 4.103379396297185 5.105584738553297 0.55 0.55 0.55
v -8.85194912405239 4.103379396297185 5.105584738553297 0.55 0.55 0.55
v -9.710182787449241 8.094296876860666 5.779568521242828 0.55 0.55 0.55
v -11.212799000834437 8.096846751103604 1.3977849597738854 0.55 0.55 0.55
v -10.144355899780985 4.104940234373844 1.182666928872207 0.55 0.55 0.55
v -10.144355899780985 4.104940234373844 1.182666928872207 0.55 0.55 0.55
v -11.212799000834437 8.096846751103604 1.3977849597738854 0.55 0.55 0.55
v -10.799106324286436 8.14675256576565 -3.315751394081653 0.55 0.55 0.55
v -9.754986682224875 4.135408960358787 -2.996863856652954 0.55 0.55 0.55
v -9.754986682224875 4.135408960358787 -2.996863856652954 0.55 0.55 0.55
v -10.799106324286436 8.14675256576565 -3.315751394081653 0.55 0.55 0.55
v -8.606740762019237 8.120519319731326 -7.310554997268915 0.55 0.55 0.55
v -7.80096355551807 4.120907736019679 -6.577514720270209 0.55 0.55 0.55
v -7.80096355551807 4.120907736019679 -6.577514720270209 0.55 0.55 0.55
v -8.606740762019237 8.120519319731326 -7.310554997268915 0.55 0.55 0.55
v -5.111600029736848 8.107072988951208 -10.065953485379826 0.55 0.55 0.55
v -4.676536219497088 4.111963676284757 -9.068363204371696 0.55 0.55 0.55
v -4.676536219497088 4.111963676284757 -9.068363204371696 0.55 0.55 0.55
v -5.111600029736848 8.107072988951208 -10.065953485379826 0.55 0.55 0.55
v -0.8586708860578932 8.097636723281429 -11.254447294492307 0.55 0.55 0.55
v -0.876475365436812 4.105895823340312 -10.165240825225405 0.55 0.55 0.55
v -0.876475365436812 4.105895823340312 -10.165240825225405 0.55 0.55 0.55
v -0.8586708860578932 8.097636723281429 -11.254447294492307 0.55 0.55 0.55
v 3.5433210148349747 8.107300743071693 -10.717099261517017 0.55 0.55 0.55
v 3.045574903904658 4.112418089578253 -9.737969758338549 0.55 0.55 0.55
v 3.045574903904658 4.112418089578253 -9.737969758338549 0.55 0.55 0.55
v 3.5433210148349747 8.107300743071693 -10.717099261517017 0.55 0.55 0.55
v 7.516106877448114 8.13580991638831 -8.404839197902936 0.55 0.55 0.55
v 6.4550822487898465 4.138057861012767 -7.932706882190042 0.55 0.55 0.55
v 6.4550822487898465 4.138057861012767 -7.932706882190042 0.55 0.55 0.55
v 7.516106877448114 8.13580991638831 -8.404839197902936 0.55 0.55 0.55
v 9.958044566415422 8.101067657942595 -5.327692458384905 0.55 0.55 0.55
v 8.925670234291358 4.108033452854719 -4.965838260768944 0.55 0.55 0.55
v 8.925670234291358 4.108033452854719 -4.965838260768944 0.55 0.55 0.55
v 9.958044566415422 8.101067657942595 -5.327692458384905 0.55 0.55 0.55
v 11.175454913202186 8.091015247122632 -1.6529077839162634 0.55 0.55 0.55
v 10.135888033148106 4.101739262513888 -1.296522075630161 0.55 0.55 0.55
v 10.135888033148106 4.101739262513888 -1.296522075630161 0.55 0.55 0.55
v 11.175454913202186 8.091015247122632 -1.6529077839162634 0.55 0.55 0.55
v 10.788347043928399 8.095204682180901 3.3294052474954747 0.55 0.55 0.55
v 9.761717912488674 4.10346832294744 2.9771433216875156 0.55 0.55 0.55
v 10.788347043928399 8.095204682180901 3.3294052474954747 0.55 0.55 0.55
v 11.986391979297563 12.037136327982864 3.7034054112716444 0.55 0.55 0.55
v 10.2855081233177 12.042599490391 7.169231367230178 0.55 0.55 0.55
v 9.03374616875712 8.10740671217091 6.783936536464719 0.55 0.55 0.55
v 9.03374616875712 8.10740671217091 6.783936536464719 0.55 0.55 0.55
v 10.2855081233177 12.042599490391 7.169231367230178 0.55 0.55 0.55
v 7.433935110116594 12.103541126304673 10.051731178457782 0.55 0.55 0.55
v 6.082841172284782 8.183251808166577 9.497087281320459 0.55 0.55 0.55
v 6.082841172284782 8.183251808166577 9.497087281320459 0.55 0.55 0.55
v 7.433935110116594 12.103541126304673 10.051731178457782 0.55 0.55 0.55
v 2.1877609420719177 12.045132572409472 12.353414749256565 0.55 0.55 0.55
v 1.7372522270293052 8.102734635884401 11.16203529001365 0.55 0.55 0.55
v 1.7372522270293052 8.102734635884401 11.16203529001365 0.55 0.55 0.55
v 2.1877609420719177 12.045132572409472 12.353414749256565 0.55 0.55 0.55
v -2.7556191279109017 12.039217583279388 12.238938501463029 0.55 0.55 0.55
v -2.6798732098350198 8.098111955817636 10.974281967300476 0.55 0.55 0.55
v -2.6798732098350198 8.098111955817636 10.974281967300476 0.55 0.55 0.55
v -2.7556191279109017 12.039217583279388 12.238938501463029 0.55 0.55 0.55
v -7.2511525584562415 12.034735690690882 10.236534935255975 0.55 0.55 0.55
v -6.691872709834697 8.094948228119593 9.101718314672292 0.55 0.55 0.55
v -6.691872709834697 8.094948228119593 9.101718314672292 0.55 0.55 0.55
v -7.2511525584562415 12.034735690690882 10.236534935255975 0.55 0.55 0.55
v -10.663051206543905 12.03378575437999 6.611319851007023 0.55 0.55 0.55
v -9.710182787449241 8.094296876860666 5.779568521242828 0.55 0.55 0.55
v -9.710182787449241 8.094296876860666 5.779568521242828 0.55 0.55 0.55
v -10.663051206543905 12.03378575437999 6.611319851007023 0.55 0.55 0.55
v -12.440489742184324 12.0352755889124 1.7188499161912927 0.55 0.55 0.55
v -11.212799000834437 8.096846751103604 1.3977849597738854 0.55 0.55 0.55
v -11.212799000834437 8.096846751103604 1.3977849597738854 0.55 0.55 0.55
v -12.440489742184324 12.0352755889124 1.7188499161912927 0.55 0.55 0.55
v -11.97174173533912 12.10667447940658 -3.7925104355891146 0.55 0.55 0.55
v -10.799106324286436 8.14675256576565 -3.315751394081653 0.55 0.55 0.55
v -10.799106324286436 8.14675256576565 -3.315751394081653 0.55 0.55 0.55
v -11.97174173533912 12.10667447940658 -3.7925104355891146 0.55 0.55 0.55
v -9.488123867859702 12.068970265476526 -8.215271293452494 0.55 0.55 0.55
v -8.606740762019237 8.120519319731326 -7.310554997268915 0.55 0.55 0.55
v -8.606740762019237 8.120519319731326 -7.310554997268915 0.55 0.55 0.55
v -9.488123867859702 12.068970265476526 -8.215271293452494 0.55 0.55 0.55
v -5.577191273097058 12.051622810083568 -11.237025105293958 0.55 0.55 0.55
v -5.111600029736848 8.107072988951208 -10.065953485379826 0.55 0.55 0.55
v -5.111600029736848 8.107072988951208 -10.065953485379826 0.55 0.55 0.55
v -5.577191273097058 12.051622810083568 -11.237025105293958 0.55 0.55 0.55
v -0.8303163763768993 12.039189308814663 -12.513948212575515 0.55 0.55 0.55
v -0.8586708860578932 8.097636723281429 -11.254447294492307 0.55 0.55 0.55
v -0.8586708860578932 8.097636723281429 -11.254447294492307 0.55 0.55 0.55
v -0.8303163763768993 12.039189308814663 -12.513948212575515 0.55 0.55 0.55
v 4.204859220511808 12.04621271499694 -11.817658946274278 0.55 0.55 0.55
v 3.5433210148349747 8.107300743071693 -10.717099261517017 0.55 0.55 0.55
v 3.5433210148349747 8.107300743071693 -10.717099261517017 0.55 0.55 0.55
v 4.204859220511808 12.04621271499694 -11.817658946274278 0.55 0.55 0.55
v 8.845625578667937 12.054070331863008 -8.859600202704243 0.55 0.55 0.55
v 7.516106877448114 8.13580991638831 -8.404839197902936 0.55 0.55 0.55
v 7.516106877448114 8.13580991638831 -8.404839197902936 0.55 0.55 0.55
v 8.845625578667937 12.054070331863008 -8.859600202704243 0.55 0.55 0.55
v 11.17430348754273 12.04141293774895 -5.698260139163041 0.55 0.55 0.55
v 9.958044566415422 8.101067657942595 -5.327692458384905 0.55 0.55 0.55
v 9.958044566415422 8.101067657942595 -5.327692458384905 0.55 0.55 0.55
v 11.17430348754273 12.04141293774895 -5.698260139163041 0.55 0.55 0.55
v 12.377989525286006 12.031683191943868 -2.038751730471567 0.55 0.55 0.55
v 11.175454913202186 8.091015247122632 -1.6529077839162634 0.55 0.55 0.55
v 11.175454913202186 8.091015247122632 -1.6529077839162634 0.55 0.55 0.55
v 12.377989525286006 12.031683191943868 -2.038751730471567 0.55 0.55 0.55
v 11.986391979297563 12.037136327982864 3.7034054112716444 0.55 0.55 0.55
v 10.788347043928399 8.095204682180901 3.3294052474954747 0.55 0.55 0.55
v 11.986391979297563 12.037136327982864 3.7034054112716444 0.55 0.55 0.55
v 13.290420384328476 15.947067924196908 4.060079126181749 0.55 0.55 0.55
v 11.671129500202264 15.936721121509779 7.5141844963029225 0.55 0.55 0.55
v 10.2855081233177 12.042599490391 7.169231367230178 0.55 0.55 0.55
v 10.2855081233177 12.042599490391 7.169231367230178 0.55 0.55 0.55
v 11.671129500202264 15.936721121509779 7.5141844963029225 0.55 0.55 0.55
v 9.081226229601318 15.931685982380309 10.44253372313835 0.55 0.55 0.55
v 7.433935110116594 12.103541126304673 10.051731178457782 0.55 0.55 0.55
v 5.445529311656209 14.740005163909286 11.602163480596797 1.0 0.0 0.0
v 7.433935110116594 12.103541126304673 10.051731178457782 1.0 0.0 0.0
v 9.081226229601318 15.931685982380309 10.44253372313835 1.0 0.0 0.0
v 2.874126823093377 15.929249068323168 13.584068101664135 1.0 0.0 0.0
v 2.1877609420719177 12.045132572409472 12.353414749256565 1.0 0.0 0.0
v 2.1877609420719177 12.045132572409472 12.353414749256565 0.0 1.0 0.0
v 2.874126823093377 15.929249068323168 13.584068101664135 0.0 1.0 0.0
v 0.42205086443239537 16.016228724407586 13.304673943658603 0.0 1.0 0.0
v -2.654322488253994 15.93475570162379 13.630033295934005 0.0 1.0 0.0
v -2.7556191279109017 12.039217583279388 12.238938501463029 0.0 1.0 0.0
v -2.7556191279109017 12.039217583279388 12.238938501463029 0.0 1.0 0.0
v -2.654322488253994 15.93475570162379 13.630033295934005 0.0 1.0 0.0
v -4.946376758021651 16.01618872312499 12.37023745174773 0.0 1.0 0.0
v -7.803805292415777 15.939606462773284 11.488172522854764 0.0 1.0 0.0
v -7.2511525584562415 12.034735690690882 10.236534935255975 0.0 1.0 0.0
v -7.2511525584562415 12.034735690690882 10.236534935255975 0.0 1.0 0.0
v -7.803805292415777 15.939606462773284 11.488172522854764 0.0 1.0 0.0
v -9.483088800908114 15.852907702541614 9.2700934058188 0.0 1.0 0.0
v -11.715814229735608 15.940496588361164 7.463056675854921 0.0 1.0 0.0
v -10.663051206543905 12.03378575437999 6.611319851007023 0.0 1.0 0.0
v -10.663051206543905 12.03378575437999 6.611319851007023 0.0 1.0 0.0
v -11.715814229735608 15.940496588361164 7.463056675854921 0.0 1.0 0.0
v -12.290924467068916 15.611072706387793 4.701079138236771 0.0 1.0 0.0
v -13.725740221811408 15.9378609701462 2.167006897698743 0.0 1.0 0.0
v -12.440489742184324 12.0352755889124 1.7188499161912927 0.0 1.0 0.0
v -12.440489742184324 12.0352755889124 1.7188499161912927 0.0 1.0 0.0
v -13.725740221811408 15.9378609701462 2.167006897698743 0.0 1.0 0.0
v -13.062827339376256 15.413613550925369 -0.5520263797062904 0.0 1.0 0.0
v -13.389973231207087 15.82217244424352 -3.575734666037855 0.0 1.0 0.0
v -11.97174173533912 12.10667447940658 -3.7925104355891146 0.0 1.0 0.0
v -11.97174173533912 12.10667447940658 -3.7925104355891146 0.55 0.55 0.55
v -13.389973231207087 15.82217244424352 -3.575734666037855 0.55 0.55 0.55
v -10.84328685502679 15.903064911619808 -8.67728470065272 0.55 0.55 0.55
v -9.488123867859702 12.068970265476526 -8.215271293452494 0.55 0.55 0.55
v -9.488123867859702 12.068970265476526 -8.215271293452494 0.55 0.55 0.55
v -10.84328685502679 15.903064911619808 -8.67728470065272 0.55 0.55 0.55
v -6.5115548360045565 15.925381538983803 -12.267777038997309 0.55 0.55 0.55
v -5.577191273097058 12.051622810083568 -11.237025105293958 0.55 0.55 0.55
v -5.577191273097058 12.051622810083568 -11.237025105293958 0.0 1.0 0.0
v -6.5115548360045565 15.925381538983803 -12.267777038997309 0.0 1.0 0.0
v -3.997979639327084 16.016178475924814 -12.692078442773536 0.0 1.0 0.0
v -1.1169847493322518 15.940384533868972 -13.844469287009844 0.0 1.0 0.0
v -0.8303163763768993 12.039189308814663 -12.513948212575515 0.0 1.0 0.0
v -0.8303163763768993 12.039189308814663 -12.513948212575515 0.0 1.0 0.0
v -1.1169847493322518 15.940384533868972 -13.844469287009844 0.0 1.0 0.0
v 1.3272235187918489 16.015559584746914 -13.244592121050589 0.0 1.0 0.0
v 4.317696967548384 15.90859170845667 -13.187132500334107 0.0 1.0 0.0
v 4.204859220511808 12.04621271499694 -11.817658946274278 0.0 1.0 0.0
v 4.204859220511808 12.04621271499694 -11.817658946274278 0.0 1.0 0.0
v 4.317696967548384 15.90859170845667 -13.187132500334107 0.0 1.0 0.0
v 7.269087210514792 17.598066635276652 -11.908090704181452 0.0 1.0 0.0
v 10.337571828826677 15.923303912751248 -9.231767581934884 0.0 1.0 0.0
v 8.845625578667937 12.054070331863008 -8.859600202704243 0.0 1.0 0.0
v 8.845625578667937 12.054070331863008 -8.859600202704243 0.55 0.55 0.55
v 10.337571828826677 15.923303912751248 -9.231767581934884 0.55 0.55 0.55
v 12.50677790173459 15.94648534222424 -6.043828575915432 0.55 0.55 0.55
v 11.17430348754273 12.04141293774895 -5.698260139163041 0.55 0.55 0.55
v 11.17430348754273 12.04141293774895 -5.698260139163041 0.55 0.55 0.55
v 12.50677790173459 15.94648534222424 -6.043828575915432 0.55 0.55 0.55
v 13.680614260273238 15.941976139884167 -2.4098108393568847 0.55 0.55 0.55
v 12.377989525286006 12.031683191943868 -2.038751730471567 0.55 0.55 0.55
v 12.377989525286006 12.031683191943868 -2.038751730471567 0.0 1.0 0.0
v 13.680614260273238 15.941976139884167 -2.4098108393568847 0.0 1.0 0.0
v 13.261736383636151 15.87222451926463 0.09168697333442133 0.0 1.0 0.0
v 13.290420384328476 15.947067924196908 4.060079126181749 0.0 1.0 0.0
v 11.986391979297563 12.037136327982864 3.7034054112716444 0.0 1.0 0.0
v 13.290420384328476 15.947067924196908 4.060079126181749 0.55 0.55 0.55
v 14.620605228855151 19.849939452627495 4.397439120996783 0.55 0.55 0.55
v 13.102199175886742 19.81801327817643 7.815606741945101 0.55 0.55 0.55
v 11.671129500202264 15.936721121509779 7.5141844963029225 0.55 0.55 0.55
v 11.671129500202264 15.936721121509779 7.5141844963029225 0.55 0.55 0.55
v 13.102199175886742 19.81801327817643 7.815606741945101 0.55 0.55 0.55
v 10.815678478092709 19.68437672453231 10.643338471812962 0.55 0.55 0.55
v 9.081226229601318 15.931685982380309 10.44253372313835 0.55 0.55 0.55
v 9.081226229601318 15.931685982380309 10.44253372313835 0.55 0.55 0.55
v 10.815678478092709 19.68437672453231 10.643338471812962 0.55 0.55 0.55
v 6.265292266413024 18.768266488182658 13.142631560555621 0.55 0.55 0.55
v 5.445529311656209 14.740005163909286 11.602163480596797 0.55 0.55 0.55
v 5.445529311656209 14.740005163909286 11.602163480596797 0.55 0.55 0.55
v 6.265292266413024 18.768266488182658 13.142631560555621 0.55 0.55 0.55
v 3.472535116512828 19.823708455929136 14.855961454917914 0.55 0.55 0.55
v 2.874126823093377 15.929249068323168 13.584068101664135 0.55 0.55 0.55
v 2.874126823093377 15.929249068323168 13.584068101664135 0.55 0.55 0.55
v 3.472535116512828 19.823708455929136 14.855961454917914 0.55 0.55 0.55
v 0.42655469447930344 19.8425862842602 14.97261912782489 0.55 0.55 0.55
v 0.42205086443239537 16.016228724407586 13.304673943658603 0.55 0.55 0.55
v 0.42205086443239537 16.016228724407586 13.304673943658603 0.55 0.55 0.55
v 0.42655469447930344 19.8425862842602 14.97261912782489 0.55 0.55 0.55
v -2.749518809040194 19.83757395753104 15.00556802058331 0.55 0.55 0.55
v -2.654322488253994 15.93475570162379 13.630033295934005 0.55 0.55 0.55
v -2.654322488253994 15.93475570162379 13.630033295934005 0.55 0.55 0.55
v -2.749518809040194 19.83757395753104 15.00556802058331 0.55 0.55 0.55
v -5.607578817578232 19.843141870504315 13.90401214143908 0.55 0.55 0.55
v -4.946376758021651 16.01618872312499 12.37023745174773 0.55 0.55 0.55
v -4.946376758021651 16.01618872312499 12.37023745174773 0.55 0.55 0.55
v -5.607578817578232 19.843141870504315 13.90401214143908 0.55 0.55 0.55
v -8.506545612862707 19.844288982948882 12.664608116130555 0.55 0.55 0.55
v -7.803805292415777 15.939606462773284 11.488172522854764 0.55 0.55 0.55
v -7.803805292415777 15.939606462773284 11.488172522854764 0.55 0.55 0.55
v -8.506545612862707 19.844288982948882 12.664608116130555 0.55 0.55 0.55
v -10.666091836157474 19.703462312736505 10.459837451030031 0.55 0.55 0.55
v -9.483088800908114 15.852907702541614 9.2700934058188 0.55 0.55 0.55
v -9.483088800908114 15.852907702541614 9.2700934058188 0.55 0.55 0.55
v -10.666091836157474 19.703462312736505 10.459837451030031 0.55 0.55 0.55
v -12.854843962811085 19.845316197151057 8.22213394882986 0.55 0.55 0.55
v -11.715814229735608 15.940496588361164 7.463056675854921 0.55 0.55 0.55
v -11.715814229735608 15.940496588361164 7.463056675854921 0.55 0.55 0.55
v -12.854843962811085 19.845316197151057 8.22213394882986 0.55 0.55 0.55
v -13.871554350960725 19.505662741805835 5.3049802527843966 0.55 0.55 0.55
v -12.290924467068916 15.611072706387793 4.701079138236771 0.55 0.55 0.55
v -12.290924467068916 15.611072706387793 4.701079138236771 0.55 0.55 0.55
v -13.871554350960725 19.505662741805835 5.3049802527843966 0.55 0.55 0.55
v -15.075473924551124 19.84298095187422 2.401285713079156 0.55 0.55 0.55
v -13.725740221811408 15.9378609701462 2.167006897698743 0.55 0.55 0.55
v -13.725740221811408 15.9378609701462 2.167006897698743 0.55 0.55 0.55
v -15.075473924551124 19.84298095187422 2.401285713079156 0.55 0.55 0.55
v -14.780505354331527 19.371059140998558 -0.6544490003462798 0.55 0.55 0.55
v -13.062827339376256 15.413613550925369 -0.5520263797062904 0.55 0.55 0.55
v -13.062827339376256 15.413613550925369 -0.5520263797062904 0.55 0.55 0.55
v -14.780505354331527 19.371059140998558 -0.6544490003462798 0.55 0.55 0.55
v -14.737431418651788 19.745518580498466 -3.8370538316279945 0.55 0.55 0.55
v -13.389973231207087 15.82217244424352 -3.575734666037855 0.55 0.55 0.55
v -13.389973231207087 15.82217244424352 -3.575734666037855 0.0 1.0 0.0
v -14.737431418651788 19.745518580498466 -3.8370538316279945 0.0 1.0 0.0
v -13.001673454053073 18.934813842802836 -6.359797231948112 0.0 1.0 0.0
v -12.008707371223858 19.80765585715006 -9.419659818025705 0.0 1.0 0.0
v -10.84328685502679 15.903064911619808 -8.67728470065272 0.0 1.0 0.0
v -10.84328685502679 15.903064911619808 -8.67728470065272 0.0 1.0 0.0
v -12.008707371223858 19.80765585715006 -9.419659818025705 0.0 1.0 0.0
v -9.161928763274453 18.013009333565805 -10.724652994387226 0.0 1.0 0.0
v -7.256363467158704 19.829245672763836 -13.424212738757998 0.0 1.0 0.0
v -6.5115548360045565 15.925381538983803 -12.267777038997309 0.0 1.0 0.0
v -6.5115548360045565 15.925381538983803 -12.267777038997309 0.55 0.55 0.55
v -7.256363467158704 19.829245672763836 -13.424212738757998 0.55 0.55 0.55
v -4.3492106447852885 19.841463121560853 -14.330520006801516 0.55 0.55 0.55
v -3.997979639327084 16.016178475924814 -12.692078442773536 0.55 0.55 0.55
v -3.997979639327084 16.016178475924814 -12.692078442773536 0.55 0.55 0.55
v -4.3492106447852885 19.841463121560853 -14.330520006801516 0.55 0.55 0.55
v -1.2979637021428998 19.843480713357316 -15.203180759318144 0.55 0.55 0.55
v -1.1169847493322518 15.940384533868972 -13.844469287009844 0.55 0.55 0.55
v -1.1169847493322518 15.940384533868972 -13.844469287009844 0.55 0.55 0.55
v -1.2979637021428998 19.843480713357316 -15.203180759318144 0.55 0.55 0.55
v 1.7398712638923517 19.83513939561693 -14.883795664520308 0.55 0.55 0.55
v 1.3272235187918489 16.015559584746914 -13.244592121050589 0.55 0.55 0.55
v 1.3272235187918489 16.015559584746914 -13.244592121050589 0.55 0.55 0.55
v 1.7398712638923517 19.83513939561693 -14.883795664520308 0.55 0.55 0.55
v 4.8974150457714085 19.816435483226055 -14.434420808320215 0.55 0.55 0.55
v 4.317696967548384 15.90859170845667 -13.187132500334107 0.55 0.55 0.55
v 4.317696967548384 15.90859170845667 -13.187132500334107 0.55 0.55 0.55
v 4.8974150457714085 19.816435483226055 -14.434420808320215 0.55 0.55 0.55
v 8.040509704553024 21.807015918090343 -13.553520892688859 0.55 0.55 0.55
v 7.269087210514792 17.598066635276652 -11.908090704181452 0.55 0.55 0.55
v 7.269087210514792 17.598066635276652 -11.908090704181452 0.0 1.0 0.0
v 8.040509704553024 21.807015918090343 -13.553520892688859 0.0 1.0 0.0
v 10.802975222534185 23.164205771420008 -12.016768075397058 0.0 1.0 0.0
v 11.901671922192106 19.771453237263056 -9.491699613614987 0.0 1.0 0.0
v 10.337571828826677 15.923303912751248 -9.231767581934884 0.0 1.0 0.0
v 10.337571828826677 15.923303912751248 -9.231767581934884 0.55 0.55 0.55
v 11.901671922192106 19.771453237263056 -9.491699613614987 0.55 0.55 0.55
v 13.871355463527756 19.8426836947519 -6.363856984880949 0.55 0.55 0.55
v 12.50677790173459 15.94648534222424 -6.043828575915432 0.55 0.55 0.55
v 12.50677790173459 15.94648534222424 -6.043828575915432 0.55 0.55 0.55
v 13.871355463527756 19.8426836947519 -6.363856984880949 0.55 0.55 0.55
v 15.006535265761496 19.846298630809784 -2.7610454995082034 0.55 0.55 0.55
v 13.680614260273238 15.941976139884167 -2.4098108393568847 0.55 0.55 0.55
v 13.680614260273238 15.941976139884167 -2.4098108393568847 0.55 0.55 0.55
v 15.006535265761496 19.846298630809784 -2.7610454995082034 0.55 0.55 0.55
v 14.953881585726858 19.795042190958785 0.5298603222735837 0.55 0.55 0.55
v 13.261736383636151 15.87222451926463 0.09168697333442133 0.55 0.55 0.55
v 13.261736383636151 15.87222451926463 0.09168697333442133 0.55 0.55 0.55
v 14.953881585726858 19.795042190958785 0.5298603222735837 0.55 0.55 0.55
v 14.620605228855151 19.849939452627495 4.397439120996783 0.55 0.55 0.55
v 13.290420384328476 15.947067924196908 4.060079126181749 0.55 0.55 0.55
v 14.620605228855151 19.849939452627495 4.397439120996783 0.55 0.55 0.55
v 15.882690231100703 23.775023322648597 4.737241241494654 0.55 0.55 0.55
v 14.406086102214198 23.73807032198259 8.178794789318852 0.55 0.55 0.55
v 13.102199175886742 19.81801327817643 7.815606741945101 0.55 0.55 0.55
v 13.102199175886742 19.81801327817643 7.815606741945101 0.55 0.55 0.55
v 14.406086102214198 23.73807032198259 8.178794789318852 0.55 0.55 0.55
v 12.219354552281425 23.60028127327983 11.047516089713824 0.55 0.55 0.55
v 10.815678478092709 19.68437672453231 10.643338471812962 0.55 0.55 0.55
v 10.815678478092709 19.68437672453231 10.643338471812962 0.0 1.0 0.0
v 12.219354552281425 23.60028127327983 11.047516089713824 0.0 1.0 0.0
v 9.908175703007087 23.873603391130025 13.143524246168614 0.0 1.0 0.0
v 6.957155521641319 22.85562871333603 14.637940792797231 0.0 1.0 0.0
v 6.265292266413024 18.768266488182658 13.142631560555621 0.0 1.0 0.0
v 6.265292266413024 18.768266488182658 13.142631560555621 0.55 0.55 0.55
v 6.957155521641319 22.85562871333603 14.637940792797231 0.55 0.55 0.55
v 3.861240470194463 23.753271232514493 16.110313144374043 0.55 0.55 0.55
v 3.472535116512828 19.823708455929136 14.855961454917914 0.55 0.55 0.55
v 3.472535116512828 19.823708455929136 14.855961454917914 0.55 0.55 0.55
v 3.861240470194463 23.753271232514493 16.110313144374043 0.55 0.55 0.55
v 0.5180128309979483 23.722099663390917 16.516472333867647 0.55 0.55 0.55
v 0.42655469447930344 19.8425862842602 14.97261912782489 0.55 0.55 0.55
v 0.42655469447930344 19.8425862842602 14.97261912782489 0.55 0.55 0.55
v 0.5180128309979483 23.722099663390917 16.516472333867647 0.55 0.55 0.55
v -2.90695782760569 23.764970201064507 16.30501676730659 0.55 0.55 0.55
v -2.749518809040194 19.83757395753104 15.00556802058331 0.55 0.55 0.55
v -2.749518809040194 19.83757395753104 15.00556802058331 0.55 0.55 0.55
v -2.90695782760569 23.764970201064507 16.30501676730659 0.55 0.55 0.55
v -6.149103847448703 23.72244085539072 15.35338274996082 0.55 0.55 0.55
v -5.607578817578232 19.843141870504315 13.90401214143908 0.55 0.55 0.55
v -5.607578817578232 19.843141870504315 13.90401214143908 0.55 0.55 0.55
v -6.149103847448703 23.72244085539072 15.35338274996082 0.55 0.55 0.55
v -9.18501178038211 23.770838075863704 13.780669904047286 0.55 0.55 0.55
v -8.506545612862707 19.844288982948882 12.664608116130555 0.55 0.55 0.55
v -8.506545612862707 19.844288982948882 12.664608116130555 0.55 0.55 0.55
v -9.18501178038211 23.770838075863704 13.780669904047286 0.55 0.55 0.55
v -11.756866299558611 23.607967308734104 11.579747779572898 0.55 0.55 0.55
v -10.666091836157474 19.703462312736505 10.459837451030031 0.55 0.55 0.55
v -10.666091836157474 19.703462312736505 10.459837451030031 0.55 0.55 0.55
v -11.756866299558611 23.607967308734104 11.579747779572898 0.55 0.55 0.55
v -13.932064378125423 23.77180304534184 8.958919679098491 0.55 0.55 0.55
v -12.854843962811085 19.845316197151057 8.22213394882986 0.55 0.55 0.55
v -12.854843962811085 19.845316197151057 8.22213394882986 0.55 0.55 0.55
v -13.932064378125423 23.77180304534184 8.958919679098491 0.55 0.55 0.55
v -15.340583006993558 23.450596861209675 5.886562057694417 0.55 0.55 0.55
v -13.871554350960725 19.505662741805835 5.3049802527843966 0.55 0.55 0.55
v -13.871554350960725 19.505662741805835 5.3049802527843966 0.55 0.55 0.55
v -15.340583006993558 23.450596861209675 5.886562057694417 0.55 0.55 0.55
v -16.360671662405622 23.769787691246503 2.633313585775513 0.55 0.55 0.55
v -15.075473924551124 19.84298095187422 2.401285713079156 0.55 0.55 0.55
v -15.075473924551124 19.84298095187422 2.401285713079156 0.55 0.55 0.55
v -16.360671662405622 23.769787691246503 2.633313585775513 0.55 0.55 0.55
v -16.385196997904483 23.377240702781723 -0.721642299878898 0.55 0.55 0.55
v -14.780505354331527 19.371059140998558 -0.6544490003462798 0.55 0.55 0.55
v -14.780505354331527 19.371059140998558 -0.6544490003462798 0.55 0.55 0.55
v -16.385196997904483 23.377240702781723 -0.721642299878898 0.55 0.55 0.55
v -16.014586999789806 23.68989988836476 -4.148717665532996 0.55 0.55 0.55
v -14.737431418651788 19.745518580498466 -3.8370538316279945 0.55 0.55 0.55
v -14.737431418651788 19.745518580498466 -3.8370538316279945 0.55 0.55 0.55
v -16.014586999789806 23.68989988836476 -4.148717665532996 0.55 0.55 0.55
v -14.520145452547725 22.970181840868108 -7.1279534547873125 0.55 0.55 0.55
v -13.001673454053073 18.934813842802836 -6.359797231948112 0.55 0.55 0.55
v -13.001673454053073 18.934813842802836 -6.359797231948112 0.55 0.55 0.55
v -14.520145452547725 22.970181840868108 -7.1279534547873125 0.55 0.55 0.55
v -13.042041959790533 23.741194658205078 -10.223695685764625 0.55 0.55 0.55
v -12.008707371223858 19.80765585715006 -9.419659818025705 0.55 0.55 0.55
v -12.008707371223858 19.80765585715006 -9.419659818025705 0.55 0.55 0.55
v -13.042041959790533 23.741194658205078 -10.223695685764625 0.55 0.55 0.55
v -10.264916220494653 22.151025612025574 -12.099735226818506 0.55 0.55 0.55
v -9.161928763274453 18.013009333565805 -10.724652994387226 0.55 0.55 0.55
v -9.161928763274453 18.013009333565805 -10.724652994387226 0.55 0.55 0.55
v -10.264916220494653 22.151025612025574 -12.099735226818506 0.55 0.55 0.55
v -7.86712680375419 23.7588350037566 -14.578901622643551 0.55 0.55 0.55
v -7.256363467158704 19.829245672763836 -13.424212738757998 0.55 0.55 0.55
v -7.256363467158704 19.829245672763836 -13.424212738757998 0.55 0.55 0.55
v -7.86712680375419 23.7588350037566 -14.578901622643551 0.55 0.55 0.55
v -4.740879784983088 23.720439335893722 -15.830704012012117 0.55 0.55 0.55
v -4.3492106447852885 19.841463121560853 -14.330520006801516 0.55 0.55 0.55
v -4.3492106447852885 19.841463121560853 -14.330520006801516 0.55 0.55 0.55
v -4.740879784983088 23.720439335893722 -15.830704012012117 0.55 0.55 0.55
v -1.3780320118104328 23.77038011654258 -16.50562552698622 0.55 0.55 0.55
v -1.2979637021428998 19.843480713357316 -15.203180759318144 0.55 0.55 0.55
v -1.2979637021428998 19.843480713357316 -15.203180759318144 0.55 0.55 0.55
v -1.3780320118104328 23.77038011654258 -16.50562552698622 0.55 0.55 0.55
v 1.9954760882757827 23.714643205506707 -16.417245373011596 0.55 0.55 0.55
v 1.7398712638923517 19.83513939561693 -14.883795664520308 0.55 0.55 0.55
v 1.7398712638923517 19.83513939561693 -14.883795664520308 0.55 0.55 0.55
v 1.9954760882757827 23.714643205506707 -16.417245373011596 0.55 0.55 0.55
v 5.3452707873991665 23.7484708587842 -15.662439434939689 0.55 0.55 0.55
v 4.8974150457714085 19.816435483226055 -14.434420808320215 0.55 0.55 0.55
v 4.8974150457714085 19.816435483226055 -14.434420808320215 0.55 0.55 0.55
v 5.3452707873991665 23.7484708587842 -15.662439434939689 0.55 0.55 0.55
v 8.869537968118252 26.10408372695749 -14.933166912597736 0.55 0.55 0.55
v 8.040509704553024 21.807015918090343 -13.553520892688859 0.55 0.55 0.55
v 8.040509704553024 21.807015918090343 -13.553520892688859 0.55 0.55 0.55
v 8.869537968118252 26.10408372695749 -14.933166912597736 0.55 0.55 0.55
v 11.943985041018019 27.267750703701047 -13.056969944515762 0.55 0.55 0.55
v 10.802975222534185 23.164205771420008 -12.016768075397058 0.55 0.55 0.55
v 10.802975222534185 23.164205771420008 -12.016768075397058 0.55 0.55 0.55
v 11.943985041018019 27.267750703701047 -13.056969944515762 0.55 0.55 0.55
v 13.260134868492644 23.686047108306404 -9.872474620674513 0.55 0.55 0.55
v 11.901671922192106 19.771453237263056 -9.491699613614987 0.55 0.55 0.55
v 11.901671922192106 19.771453237263056 -9.491699613614987 0.55 0.55 0.55
v 13.260134868492644 23.686047108306404 -9.872474620674513 0.55 0.55 0.55
v 15.149229059870683 23.76491564479057 -6.719005325227638 0.55 0.55 0.55
v 13.871355463527756 19.8426836947519 -6.363856984880949 0.55 0.55 0.55
v 13.871355463527756 19.8426836947519 -6.363856984880949 0.55 0.55 0.55
v 15.149229059870683 23.76491564479057 -6.719005325227638 0.55 0.55 0.55
v 16.269719605174014 23.772333397018663 -3.1000364718302498 0.55 0.55 0.55
v 15.006535265761496 19.846298630809784 -2.7610454995082034 0.55 0.55 0.55
v 15.006535265761496 19.846298630809784 -2.7610454995082034 0.55 0.55 0.55
v 16.269719605174014 23.772333397018663 -3.1000364718302498 0.55 0.55 0.55
v 16.519756776164673 23.77373694638495 0.929720080799692 0.55 0.55 0.55
v 14.953881585726858 19.795042190958785 0.5298603222735837 0.55 0.55 0.55
v 14.953881585726858 19.795042190958785 0.5298603222735837 0.55 0.55 0.55
v 16.519756776164673 23.77373694638495 0.929720080799692 0.55 0.55 0.55
v 15.882690231100703 23.775023322648597 4.737241241494654 0.55 0.55 0.55
v 14.620605228855151 19.849939452627495 4.397439120996783 0.55 0.55 0.55
v 15.882690231100703 23.775023322648597 4.737241241494654 0.55 0.55 0.55
v 16.991297387838625 27.74622331960953 5.0734687497755075 0.55 0.55 0.55
v 15.49759984362179 27.716168129745494 8.605998944023815 0.55 0.55 0.55
v 14.406086102214198 23.73807032198259 8.178794789318852 0.55 0.55 0.55
v 14.406086102214198 23.73807032198259 8.178794789318852 0.55 0.55 0.55
v 15.49759984362179 27.716168129745494 8.605998944023815 0.55 0.55 0.55
v 13.27612021366024 27.605632050249213 11.648693785218345 0.55 0.55 0.55
v 12.219354552281425 23.60028127327983 11.047516089713824 0.55 0.55 0.55
v 12.219354552281425 23.60028127327983 11.047516089713824 0.55 0.55 0.55
v 13.27612021366024 27.605632050249213 11.648693785218345 0.55 0.55 0.55
v 10.962069495384325 28.33477656598117 14.359425274001351 0.55 0.55 0.55
v 9.908175703007087 23.873603391130025 13.143524246168614 0.55 0.55 0.55
v 9.908175703007087 23.873603391130025 13.143524246168614 0.55 0.55 0.55
v 10.962069495384325 28.33477656598117 14.359425274001351 0.55 0.55 0.55
v 7.613789409890674 27.016229413241394 15.932180241911787 0.55 0.55 0.55
v 6.957155521641319 22.85562871333603 14.637940792797231 0.55 0.55 0.55
v 6.957155521641319 22.85562871333603 14.637940792797231 0.0 0.0 0.0
v 7.613789409890674 27.016229413241394 15.932180241911787 0.0 0.0 0.0
v 3.861240470194463 23.753271232514493 16.110313144374043 0.0 0.0 0.0
v 7.613789409890674 27.016229413241394 15.932180241911787 0.0 0.0 0.0
v 8.151393416830402 31.268155371470968 16.953602182638168 0.0 0.0 0.0
v 3.861240470194463 23.753271232514493 16.110313144374043 0.0 0.0 0.0
v 10.962069495384325 28.33477656598117 14.359425274001351 1.0 1.0 1.0
v 8.151393416830402 31.268155371470968 16.953602182638168 1.0 1.0 1.0
v 7.613789409890674 27.016229413241394 15.932180241911787 1.0 1.0 1.0
v 10.962069495384325 28.33477656598117 14.359425274001351 1.0 1.0 1.0
v 8.50678384239974 35.60820950657281 17.618395568908117 1.0 1.0 1.0
v 8.151393416830402 31.268155371470968 16.953602182638168 1.0 1.0 1.0
v 8.151393416830402 31.268155371470968 16.953602182638168 0.55 0.55 0.55
v 8.50678384239974 35.60820950657281 17.618395568908117 0.55 0.55 0.55
v 4.201918004918303 27.72881244389244 17.22513285089146 0.55 0.55 0.55
v 3.861240470194463 23.753271232514493 16.110313144374043 0.55 0.55 0.55
v 3.861240470194463 23.753271232514493 16.110313144374043 0.55 0.55 0.55
v 4.201918004918303 27.72881244389244 17.22513285089146 0.55 0.55 0.55
v 0.599642960575265 27.67504523492456 17.860859691335097 0.55 0.55 0.55
v 0.5180128309979483 23.722099663390917 16.516472333867647 0.55 0.55 0.55
v 0.5180128309979483 23.722099663390917 16.516472333867647 0.55 0.55 0.55
v 0.599642960575265 27.67504523492456 17.860859691335097 0.55 0.55 0.55
v -3.050266536102523 27.738131677076513 17.457888267347855 0.55 0.55 0.55
v -2.90695782760569 23.764970201064507 16.30501676730659 0.55 0.55 0.55
v -2.90695782760569 23.764970201064507 16.30501676730659 0.55 0.55 0.55
v -3.050266536102523 27.738131677076513 17.457888267347855 0.55 0.55 0.55
v -6.61824214014742 27.675223751092982 16.616401929852405 0.55 0.55 0.55
v -6.149103847448703 23.72244085539072 15.35338274996082 0.55 0.55 0.55
v -6.149103847448703 23.72244085539072 15.35338274996082 0.55 0.55 0.55
v -6.61824214014742 27.675223751092982 16.616401929852405 0.55 0.55 0.55
v -9.788399744393171 27.742954006194925 14.770476121057085 0.55 0.55 0.55
v -9.18501178038211 23.770838075863704 13.780669904047286 0.55 0.55 0.55
v -9.18501178038211 23.770838075863704 13.780669904047286 0.55 0.55 0.55
v -9.788399744393171 27.742954006194925 14.770476121057085 0.55 0.55 0.55
v -12.708748707805112 27.58617468392916 12.556419842501342 0.55 0.55 0.55
v -11.756866299558611 23.607967308734104 11.579747779572898 0.55 0.55 0.55
v -11.756866299558611 23.607967308734104 11.579747779572898 0.55 0.55 0.55
v -12.708748707805112 27.58617468392916 12.556419842501342 0.55 0.55 0.55
v -14.888315027159244 27.74379592793139 9.612625459726047 0.55 0.55 0.55
v -13.932064378125423 23.77180304534184 8.958919679098491 0.55 0.55 0.55
v -13.932064378125423 23.77180304534184 8.958919679098491 0.55 0.55 0.55
v -14.888315027159244 27.74379592793139 9.612625459726047 0.55 0.55 0.55
v -16.62474077106986 27.46914768768642 6.3943360379083325 0.55 0.55 0.55
v -15.340583006993558 23.450596861209675 5.886562057694417 0.55 0.55 0.55
v -15.340583006993558 23.450596861209675 5.886562057694417 0.55 0.55 0.55
v -16.62474077106986 27.46914768768642 6.3943360379083325 0.55 0.55 0.55
v -17.50156638392442 27.742152040896876 2.8384371269611854 0.55 0.55 0.55
v -16.360671662405622 23.769787691246503 2.633313585775513 0.55 0.55 0.55
v -16.360671662405622 23.769787691246503 2.633313585775513 0.55 0.55 0.55
v -17.50156638392442 27.742152040896876 2.8384371269611854 0.55 0.55 0.55
v -17.78573908562718 27.458856506802313 -0.7878964899447216 0.55 0.55 0.55
v -16.385196997904483 23.377240702781723 -0.721642299878898 0.55 0.55 0.55
v -16.385196997904483 23.377240702781723 -0.721642299878898 0.55 0.55 0.55
v -17.78573908562718 27.458856506802313 -0.7878964899447216 0.55 0.55 0.55
v -17.150971386473007 27.67925577467567 -4.427667554138452 0.55 0.55 0.55
v -16.014586999789806 23.68989988836476 -4.148717665532996 0.55 0.55 0.55
v -16.014586999789806 23.68989988836476 -4.148717665532996 0.55 0.55 0.55
v -17.150971386473007 27.67925577467567 -4.427667554138452 0.55 0.55 0.55
v -15.849549096664308 27.088149982718274 -7.799301636475267 0.55 0.55 0.55
v -14.520145452547725 22.970181840868108 -7.1279534547873125 0.55 0.55 0.55
v -14.520145452547725 22.970181840868108 -7.1279534547873125 0.0 0.0 0.0
v -15.849549096664308 27.088149982718274 -7.799301636475267 0.0 0.0 0.0
v -13.042041959790533 23.741194658205078 -10.223695685764625 0.0 0.0 0.0
v -15.849549096664308 27.088149982718274 -7.799301636475267 0.0 0.0 0.0
v -16.901969337352977 31.304787346973672 -8.330068508973868 0.0 0.0 0.0
v -13.042041959790533 23.741194658205078 -10.223695685764625 0.0 0.0 0.0
v -17.150971386473007 27.67925577467567 -4.427667554138452 1.0 1.0 1.0
v -16.901969337352977 31.304787346973672 -8.330068508973868 1.0 1.0 1.0
v -15.849549096664308 27.088149982718274 -7.799301636475267 1.0 1.0 1.0
v -17.150971386473007 27.67925577467567 -4.427667554138452 1.0 1.0 1.0
v -17.587658833656786 35.61453659701408 -8.675362166418997 1.0 1.0 1.0
v -16.901969337352977 31.304787346973672 -8.330068508973868 1.0 1.0 1.0
v -16.901969337352977 31.304787346973672 -8.330068508973868 0.55 0.55 0.55
v -17.587658833656786 35.61453659701408 -8.675362166418997 0.55 0.55 0.55
v -13.958559288446008 27.720141620463625 -10.939730444151945 0.55 0.55 0.55
v -13.042041959790533 23.741194658205078 -10.223695685764625 0.55 0.55 0.55
v -13.042041959790533 23.741194658205078 -10.223695685764625 0.55 0.55 0.55
v -13.958559288446008 27.720141620463625 -10.939730444151945 0.55 0.55 0.55
v -11.251067871506882 26.367463865965632 -13.314598258431287 0.55 0.55 0.55
v -10.264916220494653 22.151025612025574 -12.099735226818506 0.55 0.55 0.55
v -10.264916220494653 22.151025612025574 -12.099735226818506 0.0 0.0 0.0
v -11.251067871506882 26.367463865965632 -13.314598258431287 0.0 0.0 0.0
v -7.86712680375419 23.7588350037566 -14.578901622643551 0.0 0.0 0.0
v -11.251067871506882 26.367463865965632 -13.314598258431287 0.0 0.0 0.0
v -12.04504175067886 30.68384729210722 -14.293598145773897 0.0 0.0 0.0
v -7.86712680375419 23.7588350037566 -14.578901622643551 0.0 0.0 0.0
v -13.958559288446008 27.720141620463625 -10.939730444151945 1.0 1.0 1.0
v -12.04504175067886 30.68384729210722 -14.293598145773897 1.0 1.0 1.0
v -11.251067871506882 26.367463865965632 -13.314598258431287 1.0 1.0 1.0
v -13.958559288446008 27.720141620463625 -10.939730444151945 1.0 1.0 1.0
v -12.576651405150313 35.09911800173367 -14.951732426879342 1.0 1.0 1.0
v -12.04504175067886 30.68384729210722 -14.293598145773897 1.0 1.0 1.0
v -12.04504175067886 30.68384729210722 -14.293598145773897 0.55 0.55 0.55
v -12.576651405150313 35.09911800173367 -14.951732426879342 0.55 0.55 0.55
v -8.40533774437431 27.73383417238812 -15.606201763396612 0.55 0.55 0.55
v -7.86712680375419 23.7588350037566 -14.578901622643551 0.55 0.55 0.55
v -7.86712680375419 23.7588350037566 -14.578901622643551 0.55 0.55 0.55
v -8.40533774437431 27.73383417238812 -15.606201763396612 0.55 0.55 0.55
v -5.085097040503384 27.673269290848957 -17.136228912531642 0.55 0.55 0.55
v -4.740879784983088 23.720439335893722 -15.830704012012117 0.55 0.55 0.55
v -4.740879784983088 23.720439335893722 -15.830704012012117 0.55 0.55 0.55
v -5.085097040503384 27.673269290848957 -17.136228912531642 0.55 0.55 0.55
v -1.4471702252135008 27.742739755204106 -17.661825323198336 0.55 0.55 0.55
v -1.3780320118104328 23.77038011654258 -16.50562552698622 0.55 0.55 0.55
v -1.3780320118104328 23.77038011654258 -16.50562552698622 0.55 0.55 0.55
v -1.4471702252135008 27.742739755204106 -17.661825323198336 0.55 0.55 0.55
v 2.2121863603415393 27.668423763345594 -17.753318279163423 0.55 0.55 0.55
v 1.9954760882757827 23.714643205506707 -16.417245373011596 0.55 0.55 0.55
v 1.9954760882757827 23.714643205506707 -16.417245373011596 0.55 0.55 0.55
v 2.2121863603415393 27.668423763345594 -17.753318279163423 0.55 0.55 0.55
v 5.753724898777808 27.725705270556766 -16.749667180298886 0.55 0.55 0.55
v 5.3452707873991665 23.7484708587842 -15.662439434939689 0.55 0.55 0.55
v 5.3452707873991665 23.7484708587842 -15.662439434939689 0.55 0.55 0.55
v 5.753724898777808 27.725705270556766 -16.749667180298886 0.55 0.55 0.55
v 9.565974430307746 30.50415010009942 -16.03041778958472 0.55 0.55 0.55
v 8.869537968118252 26.10408372695749 -14.933166912597736 0.55 0.55 0.55
v 8.869537968118252 26.10408372695749 -14.933166912597736 0.55 0.55 0.55
v 9.565974430307746 30.50415010009942 -16.03041778958472 0.55 0.55 0.55
v 12.817751018892263 31.482052603571923 -13.889541116001535 0.55 0.55 0.55
v 11.943985041018019 27.267750703701047 -13.056969944515762 0.55 0.55 0.55
v 11.943985041018019 27.267750703701047 -13.056969944515762 0.55 0.55 0.55
v 12.817751018892263 31.482052603571923 -13.889541116001535 0.55 0.55 0.55
v 14.334157692642908 27.674871303659767 -10.387744020594646 0.55 0.55 0.55
v 13.260134868492644 23.686047108306404 -9.872474620674513 0.55 0.55 0.55
v 13.260134868492644 23.686047108306404 -9.872474620674513 0.55 0.55 0.55
v 14.334157692642908 27.674871303659767 -10.387744020594646 0.55 0.55 0.55
v 16.250509838794425 27.737250827786855 -7.105100229029698 0.55 0.55 0.55
v 15.149229059870683 23.76491564479057 -6.719005325227638 0.55 0.55 0.55
v 15.149229059870683 23.76491564479057 -6.719005325227638 0.55 0.55 0.55
v 16.250509838794425 27.737250827786855 -7.105100229029698 0.55 0.55 0.55
v 17.38719667109833 27.74371183521388 -3.4188014528782817 0.55 0.55 0.55
v 16.269719605174014 23.772333397018663 -3.1000364718302498 0.55 0.55 0.55
v 16.269719605174014 23.772333397018663 -3.1000364718302498 0.55 0.55 0.55
v 17.38719667109833 27.74371183521388 -3.4188014528782817 0.55 0.55 0.55
v 17.874572099755834 27.833509597696068 1.2781855433656617 0.55 0.55 0.55
v 16.519756776164673 23.77373694638495 0.929720080799692 0.55 0.55 0.55
v 16.519756776164673 23.77373694638495 0.929720080799692 0.55 0.55 0.55
v 17.874572099755834 27.833509597696068 1.2781855433656617 0.55 0.55 0.55
v 16.991297387838625 27.74622331960953 5.0734687497755075 0.55 0.55 0.55
v 15.882690231100703 23.775023322648597 4.737241241494654 0.55 0.55 0.55
v 16.991297387838625 27.74622331960953 5.0734687497755075 0.55 0.55 0.55
v 17.8688994993745 31.777991505742037 5.362286157104408 0.55 0.55 0.55
v 16.347773258158288 31.75671139366467 8.990489687566285 0.55 0.55 0.55
v 15.49759984362179 27.716168129745494 8.605998944023815 0.55 0.55 0.55
v 15.49759984362179 27.716168129745494 8.605998944023815 0.55 0.55 0.55
v 16.347773258158288 31.75671139366467 8.990489687566285 0.55 0.55 0.55
v 14.086262798434984 31.678574263435188 12.171666883336327 0.55 0.55 0.55
v 13.27612021366024 27.605632050249213 11.648693785218345 0.55 0.55 0.55
v 13.27612021366024 27.605632050249213 11.648693785218345 0.55 0.55 0.55
v 14.086262798434984 31.678574263435188 12.171666883336327 0.55 0.55 0.55
v 11.733420173633805 32.926878648996286 15.252000207925189 0.55 0.55 0.55
v 10.962069495384325 28.33477656598117 14.359425274001351 0.55 0.55 0.55
v 10.962069495384325 28.33477656598117 14.359425274001351 0.0 0.0 0.0
v 11.733420173633805 32.926878648996286 15.252000207925189 0.0 0.0 0.0
v 8.50678384239974 35.60820950657281 17.618395568908117 0.0 0.0 0.0
v 11.733420173633805 32.926878648996286 15.252000207925189 0.0 0.0 0.0
v 12.148310413330075 37.62439627559337 15.732983073194845 0.0 0.0 0.0
v 8.50678384239974 35.60820950657281 17.618395568908117 0.0 0.0 0.0
v 14.086262798434984 31.678574263435188 12.171666883336327 0.55 0.55 0.55
v 14.608105658942897 35.81602715529047 12.5242642373243 0.55 0.55 0.55
v 12.148310413330075 37.62439627559337 15.732983073194845 0.55 0.55 0.55
v 11.733420173633805 32.926878648996286 15.252000207925189 0.55 0.55 0.55
v 16.347773258158288 31.75671139366467 8.990489687566285 0.55 0.55 0.55
v 16.89812338259689 35.858138259890815 9.251229544022367 0.55 0.55 0.55
v 14.608105658942897 35.81602715529047 12.5242642373243 0.55 0.55 0.55
v 14.086262798434984 31.678574263435188 12.171666883336327 0.55 0.55 0.55
v 17.8688994993745 31.777991505742037 5.362286157104408 0.55 0.55 0.55
v 18.439716832961228 35.86966167645649 5.556457664204073 0.55 0.55 0.55
v 16.89812338259689 35.858138259890815 9.251229544022367 0.55 0.55 0.55
v 16.347773258158288 31.75671139366467 8.990489687566285 0.55 0.55 0.55
v 17.874572099755834 27.833509597696068 1.2781855433656617 0.55 0.55 0.55
v 18.92431368007008 31.987861536319 1.5496317506763422 0.55 0.55 0.55
v 17.8688994993745 31.777991505742037 5.362286157104408 0.55 0.55 0.55
v 16.991297387838625 27.74622331960953 5.0734687497755075 0.55 0.55 0.55
v 17.38719667109833 27.74371183521388 -3.4188014528782817 0.55 0.55 0.55
v 18.276493593018767 31.77567746910561 -3.685052741887383 0.55 0.55 0.55
v 18.92431368007008 31.987861536319 1.5496317506763422 0.55 0.55 0.55
v 17.874572099755834 27.833509597696068 1.2781855433656617 0.55 0.55 0.55
v 16.250509838794425 27.737250827786855 -7.105100229029698 0.55 0.55 0.55
v 17.11307518370744 31.771698021221017 -7.447384198316509 0.55 0.55 0.55
v 18.276493593018767 31.77567746910561 -3.685052741887383 0.55 0.55 0.55
v 17.38719667109833 27.74371183521388 -3.4188014528782817 0.55 0.55 0.55
v 14.334157692642908 27.674871303659767 -10.387744020594646 0.55 0.55 0.55
v 15.16029952955965 31.72876880214983 -10.847399495299435 0.55 0.55 0.55
v 17.11307518370744 31.771698021221017 -7.447384198316509 0.55 0.55 0.55
v 16.250509838794425 27.737250827786855 -7.105100229029698 0.55 0.55 0.55
v 12.817751018892263 31.482052603571923 -13.889541116001535 1.0 1.0 1.0
v 15.16029952955965 31.72876880214983 -10.847399495299435 1.0 1.0 1.0
v 14.334157692642908 27.674871303659767 -10.387744020594646 1.0 1.0 1.0
v 12.817751018892263 31.482052603571923 -13.889541116001535 1.0 1.0 1.0
v 15.691933322861292 35.84511536482955 -11.160306112997231 1.0 1.0 1.0
v 15.16029952955965 31.72876880214983 -10.847399495299435 1.0 1.0 1.0
v 15.16029952955965 31.72876880214983 -10.847399495299435 0.55 0.55 0.55
v 15.691933322861292 35.84511536482955 -11.160306112997231 0.55 0.55 0.55
v 17.670970131365223 35.866627357091126 -7.681465976051596 0.55 0.55 0.55
v 17.11307518370744 31.771698021221017 -7.447384198316509 0.55 0.55 0.55
v 17.11307518370744 31.771698021221017 -7.447384198316509 0.55 0.55 0.55
v 17.670970131365223 35.866627357091126 -7.681465976051596 0.55 0.55 0.55
v 18.856126194752804 35.868007748551015 -3.8632940247704286 0.55 0.55 0.55
v 18.276493593018767 31.77567746910561 -3.685052741887383 0.55 0.55 0.55
v 18.276493593018767 31.77567746910561 -3.685052741887383 0.55 0.55 0.55
v 18.856126194752804 35.868007748551015 -3.8632940247704286 0.55 0.55 0.55
v 19.5770936603485 36.227465108729 1.7168749448078666 0.55 0.55 0.55
v 18.92431368007008 31.987861536319 1.5496317506763422 0.55 0.55 0.55
v 18.92431368007008 31.987861536319 1.5496317506763422 0.55 0.55 0.55
v 19.5770936603485 36.227465108729 1.7168749448078666 0.55 0.55 0.55
v 18.439716832961228 35.86966167645649 5.556457664204073 0.55 0.55 0.55
v 17.8688994993745 31.777991505742037 5.362286157104408 0.55 0.55 0.55
v 18.439716832961228 35.86966167645649 5.556457664204073 0.55 0.55 0.55
v 18.63817622339632 39.999900261271634 5.623072784096869 0.55 0.55 0.55
v 17.092983275176906 39.99869887159024 9.343425651475718 0.55 0.55 0.55
v 16.89812338259689 35.858138259890815 9.251229544022367 0.55 0.55 0.55
v 16.89812338259689 35.858138259890815 9.251229544022367 0.55 0.55 0.55
v 17.092983275176906 39.99869887159024 9.343425651475718 0.55 0.55 0.55
v 14.79036746049527 39.995050878295054 12.647455662113956 0.55 0.55 0.55
v 14.608105658942897 35.81602715529047 12.5242642373243 0.55 0.55 0.55
v 14.608105658942897 35.81602715529047 12.5242642373243 0.55 0.55 0.55
v 14.79036746049527 39.995050878295054 12.647455662113956 0.55 0.55 0.55
v 12.151339016989795 42.36417230744565 15.731680600269044 0.55 0.55 0.55
v 12.148310413330075 37.62439627559337 15.732983073194845 0.55 0.55 0.55
v 12.148310413330075 37.62439627559337 15.732983073194845 0.55 0.55 0.55
v 12.151339016989795 42.36417230744565 15.731680600269044 0.55 0.55 0.55
v 8.635151508802009 40.00481756303117 17.853903397800355 0.55 0.55 0.55
v 8.50678384239974 35.60820950657281 17.618395568908117 0.55 0.55 0.55
v 8.50678384239974 35.60820950657281 17.618395568908117 0.55 0.55 0.55
v 8.635151508802009 40.00481756303117 17.853903397800355 0.55 0.55 0.55
v 4.476600576275309 31.76536388821471 18.114561164346533 0.55 0.55 0.55
v 4.201918004918303 27.72881244389244 17.22513285089146 0.55 0.55 0.55
v 4.201918004918303 27.72881244389244 17.22513285089146 0.55 0.55 0.55
v 4.476600576275309 31.76536388821471 18.114561164346533 0.55 0.55 0.55
v 0.6691628385576935 31.713715282862257 18.919014769625097 0.55 0.55 0.55
v 0.599642960575265 27.67504523492456 17.860859691335097 0.55 0.55 0.55
v 0.599642960575265 27.67504523492456 17.860859691335097 0.55 0.55 0.55
v 0.6691628385576935 31.713715282862257 18.919014769625097 0.55 0.55 0.55
v -3.1642750785841183 31.77204433495833 18.378027999342553 0.55 0.55 0.55
v -3.050266536102523 27.738131677076513 17.457888267347855 0.55 0.55 0.55
v -3.050266536102523 27.738131677076513 17.457888267347855 0.55 0.55 0.55
v -3.1642750785841183 31.77204433495833 18.378027999342553 0.55 0.55 0.55
v -6.984625888351052 31.713820540399407 17.611845537618347 0.55 0.55 0.55
v -6.61824214014742 27.675223751092982 16.616401929852405 0.55 0.55 0.55
v -6.61824214014742 27.675223751092982 16.616401929852405 0.55 0.55 0.55
v -6.984625888351052 31.713820540399407 17.611845537618347 0.55 0.55 0.55
v -10.26927530961194 31.775582748798435 15.56065635161442 0.55 0.55 0.55
v -9.788399744393171 27.742954006194925 14.770476121057085 0.55 0.55 0.55
v -9.788399744393171 27.742954006194925 14.770476121057085 0.55 0.55 0.55
v -10.26927530961194 31.775582748798435 15.56065635161442 0.55 0.55 0.55
v -13.458352457275861 31.65109889027292 13.328462746711127 0.55 0.55 0.55
v -12.708748707805112 27.58617468392916 12.556419842501342 0.55 0.55 0.55
v -12.708748707805112 27.58617468392916 12.556419842501342 0.55 0.55 0.55
v -13.458352457275861 31.65109889027292 13.328462746711127 0.55 0.55 0.55
v -15.650780151425522 31.776242514481382 10.13500484874271 0.55 0.55 0.55
v -14.888315027159244 27.74379592793139 9.612625459726047 0.55 0.55 0.55
v -14.888315027159244 27.74379592793139 9.612625459726047 0.55 0.55 0.55
v -15.650780151425522 31.776242514481382 10.13500484874271 0.55 0.55 0.55
v -17.63892540248053 31.57527445528712 6.79639675590468 0.55 0.55 0.55
v -16.62474077106986 27.46914768768642 6.3943360379083325 0.55 0.55 0.55
v -16.62474077106986 27.46914768768642 6.3943360379083325 0.55 0.55 0.55
v -17.63892540248053 31.57527445528712 6.79639675590468 0.55 0.55 0.55
v -18.411660726215956 31.77505241647179 3.0034934321012696 0.55 0.55 0.55
v -17.50156638392442 27.742152040896876 2.8384371269611854 0.55 0.55 0.55
v -17.50156638392442 27.742152040896876 2.8384371269611854 0.55 0.55 0.55
v -18.411660726215956 31.77505241647179 3.0034934321012696 0.55 0.55 0.55
v -18.88685233431246 31.630771544617268 -0.8458956345989016 0.55 0.55 0.55
v -17.78573908562718 27.458856506802313 -0.7878964899447216 0.55 0.55 0.55
v -17.78573908562718 27.458856506802313 -0.7878964899447216 0.55 0.55 0.55
v -18.88685233431246 31.630771544617268 -0.8458956345989016 0.55 0.55 0.55
v -18.059847619892782 31.729444813770467 -4.651771869127973 0.55 0.55 0.55
v -17.150971386473007 27.67925577467567 -4.427667554138452 0.55 0.55 0.55
v -17.150971386473007 27.67925577467567 -4.427667554138452 0.0 0.0 0.0
v -18.059847619892782 31.729444813770467 -4.651771869127973 0.0 0.0 0.0
v -17.587658833656786 35.61453659701408 -8.675362166418997 0.0 0.0 0.0
v -18.059847619892782 31.729444813770467 -4.651771869127973 0.0 0.0 0.0
v -18.654911683963455 35.840455736819095 -4.797832877659028 0.0 0.0 0.0
v -17.587658833656786 35.61453659701408 -8.675362166418997 0.0 0.0 0.0
v -18.88685233431246 31.630771544617268 -0.8458956345989016 0.55 0.55 0.55
v -19.591258694552735 35.887289394480646 -0.8872058953776036 0.55 0.55 0.55
v -18.654911683963455 35.840455736819095 -4.797832877659028 0.55 0.55 0.55
v -18.059847619892782 31.729444813770467 -4.651771869127973 0.55 0.55 0.55
v -18.411660726215956 31.77505241647179 3.0034934321012696 0.55 0.55 0.55
v -19.00547235401807 35.86798805037905 3.1121246773263325 0.55 0.55 0.55
v -19.591258694552735 35.887289394480646 -0.8872058953776036 0.55 0.55 0.55
v -18.88685233431246 31.630771544617268 -0.8458956345989016 0.55 0.55 0.55
v -17.63892540248053 31.57527445528712 6.79639675590468 0.55 0.55 0.55
v -18.29680506722982 35.76391188989775 7.058789912419424 0.55 0.55 0.55
v -19.00547235401807 35.86798805037905 3.1121246773263325 0.55 0.55 0.55
v -18.411660726215956 31.77505241647179 3.0034934321012696 0.55 0.55 0.55
v -15.650780151425522 31.776242514481382 10.13500484874271 0.55 0.55 0.55
v -16.147515246802104 35.868629947545976 10.477248667933932 0.55 0.55 0.55
v -18.29680506722982 35.76391188989775 7.058789912419424 0.55 0.55 0.55
v -17.63892540248053 31.57527445528712 6.79639675590468 0.55 0.55 0.55
v -13.458352457275861 31.65109889027292 13.328462746711127 0.55 0.55 0.55
v -13.94309053589563 35.797104102178224 13.830587909237638 0.55 0.55 0.55
v -16.147515246802104 35.868629947545976 10.477248667933932 0.55 0.55 0.55
v -15.650780151425522 31.776242514481382 10.13500484874271 0.55 0.55 0.55
v -10.26927530961194 31.775582748798435 15.56065635161442 0.55 0.55 0.55
v -10.581827975724584 35.86821663112429 16.077252660013738 0.55 0.55 0.55
v -13.94309053589563 35.797104102178224 13.830587909237638 0.55 0.55 0.55
v -13.458352457275861 31.65109889027292 13.328462746711127 0.55 0.55 0.55
v -6.984625888351052 31.713820540399407 17.611845537618347 0.55 0.55 0.55
v -7.219115410032292 35.83207046143683 18.257118912729076 0.55 0.55 0.55
v -10.581827975724584 35.86821663112429 16.077252660013738 0.55 0.55 0.55
v -10.26927530961194 31.775582748798435 15.56065635161442 0.55 0.55 0.55
v -3.1642750785841183 31.77204433495833 18.378027999342553 0.55 0.55 0.55
v -3.2372117674677563 35.86621041053922 18.978973364145386 0.55 0.55 0.55
v -7.219115410032292 35.83207046143683 18.257118912729076 0.55 0.55 0.55
v -6.984625888351052 31.713820540399407 17.611845537618347 0.55 0.55 0.55
v 0.6691628385576935 31.713715282862257 18.919014769625097 0.55 0.55 0.55
v 0.7182307221125949 35.83200000016639 19.603715943548046 0.55 0.55 0.55
v -3.2372117674677563 35.86621041053922 18.978973364145386 0.55 0.55 0.55
v -3.1642750785841183 31.77204433495833 18.378027999342553 0.55 0.55 0.55
v 4.476600576275309 31.76536388821471 18.114561164346533 0.55 0.55 0.55
v 4.658803235452442 35.86255248558106 18.694771119479867 0.55 0.55 0.55
v 0.7182307221125949 35.83200000016639 19.603715943548046 0.55 0.55 0.55
v 0.6691628385576935 31.713715282862257 18.919014769625097 0.55 0.55 0.55
v 8.635151508802009 40.00481756303117 17.853903397800355 1.0 1.0 1.0
v 4.658803235452442 35.86255248558106 18.694771119479867 1.0 1.0 1.0
v 4.476600576275309 31.76536388821471 18.114561164346533 1.0 1.0 1.0
v 8.635151508802009 40.00481756303117 17.853903397800355 1.0 1.0 1.0
v 4.723723262659851 39.99890449403509 18.896159657948925 1.0 1.0 1.0
v 4.658803235452442 35.86255248558106 18.694771119479867 1.0 1.0 1.0
v 4.658803235452442 35.86255248558106 18.694771119479867 0.55 0.55 0.55
v 4.723723262659851 39.99890449403509 18.896159657948925 0.55 0.55 0.55
v 0.7377383300599702 40.000015799533315 19.840228158833174 0.55 0.55 0.55
v 0.7182307221125949 35.83200000016639 19.603715943548046 0.55 0.55 0.55
v 0.7182307221125949 35.83200000016639 19.603715943548046 0.55 0.55 0.55
v 0.7377383300599702 40.000015799533315 19.840228158833174 0.55 0.55 0.55
v -3.2605711431439004 39.999229500759064 19.18813632487676 0.55 0.55 0.55
v -3.2372117674677563 35.86621041053922 18.978973364145386 0.55 0.55 0.55
v -3.2372117674677563 35.86621041053922 18.978973364145386 0.55 0.55 0.55
v -3.2605711431439004 39.999229500759064 19.18813632487676 0.55 0.55 0.55
v -7.297403682366544 40.00006457554202 18.481090629809255 0.55 0.55 0.55
v -7.219115410032292 35.83207046143683 18.257118912729076 0.55 0.55 0.55
v -7.219115410032292 35.83207046143683 18.257118912729076 0.55 0.55 0.55
v -7.297403682366544 40.00006457554202 18.481090629809255 0.55 0.55 0.55
v -10.688723545043857 39.9995072534363 16.25773561528467 0.55 0.55 0.55
v -10.581827975724584 35.86821663112429 16.077252660013738 0.55 0.55 0.55
v -10.581827975724584 35.86821663112429 16.077252660013738 0.55 0.55 0.55
v -10.688723545043857 39.9995072534363 16.25773561528467 0.55 0.55 0.55
v -14.112792959726429 39.99395648971924 14.009477631864682 0.55 0.55 0.55
v -13.94309053589563 35.797104102178224 13.830587909237638 0.55 0.55 0.55
v -13.94309053589563 35.797104102178224 13.830587909237638 0.55 0.55 0.55
v -14.112792959726429 39.99395648971924 14.009477631864682 0.55 0.55 0.55
v -16.318910720263602 39.99961550782938 10.597695907929921 0.55 0.55 0.55
v -16.147515246802104 35.868629947545976 10.477248667933932 0.55 0.55 0.55
v -16.147515246802104 35.868629947545976 10.477248667933932 0.55 0.55 0.55
v -16.318910720263602 39.99961550782938 10.597695907929921 0.55 0.55 0.55
v -18.524281421559706 40.004562868262845 7.1514144006383535 0.55 0.55 0.55
v -18.29680506722982 35.76391188989775 7.058789912419424 0.55 0.55 0.55
v -18.29680506722982 35.76391188989775 7.058789912419424 0.55 0.55 0.55
v -18.524281421559706 40.004562868262845 7.1514144006383535 0.55 0.55 0.55
v -19.211323555336907 39.99958219989748 3.1517583184650126 0.55 0.55 0.55
v -19.00547235401807 35.86798805037905 3.1121246773263325 0.55 0.55 0.55
v -19.00547235401807 35.86798805037905 3.1121246773263325 0.55 0.55 0.55
v -19.211323555336907 39.99958219989748 3.1517583184650126 0.55 0.55 0.55
v -19.81689753335394 40.195499272967396 -0.9043084082596121 0.55 0.55 0.55
v -19.591258694552735 35.887289394480646 -0.8872058953776036 0.55 0.55 0.55
v -19.591258694552735 35.887289394480646 -0.8872058953776036 0.55 0.55 0.55
v -19.81689753335394 40.195499272967396 -0.9043084082596121 0.55 0.55 0.55
v -18.866751088468558 39.99097526990238 -4.84816066392175 0.55 0.55 0.55
v -18.654911683963455 35.840455736819095 -4.797832877659028 0.55 0.55 0.55
v -18.654911683963455 35.840455736819095 -4.797832877659028 0.55 0.55 0.55
v -18.866751088468558 39.99097526990238 -4.84816066392175 0.55 0.55 0.55
v -17.829892942782703 39.983402421839074 -8.795333580944448 0.55 0.55 0.55
v -17.587658833656786 35.61453659701408 -8.675362166418997 0.55 0.55 0.55
v -17.587658833656786 35.61453659701408 -8.675362166418997 0.55 0.55 0.55
v -17.829892942782703 39.983402421839074 -8.795333580944448 0.55 0.55 0.55
v -14.689319850162272 31.75975421936655 -11.512951355120457 0.55 0.55 0.55
v -13.958559288446008 27.720141620463625 -10.939730444151945 0.55 0.55 0.55
v -13.958559288446008 27.720141620463625 -10.939730444151945 0.0 0.0 0.0
v -14.689319850162272 31.75975421936655 -11.512951355120457 0.0 0.0 0.0
v -12.576651405150313 35.09911800173367 -14.951732426879342 0.0 0.0 0.0
v -14.689319850162272 31.75975421936655 -11.512951355120457 0.0 0.0 0.0
v -15.166269385711463 35.8595646558025 -11.88824372294533 0.0 0.0 0.0
v -12.576651405150313 35.09911800173367 -14.951732426879342 0.0 0.0 0.0
v -17.829892942782703 39.983402421839074 -8.795333580944448 1.0 1.0 1.0
v -15.166269385711463 35.8595646558025 -11.88824372294533 1.0 1.0 1.0
v -14.689319850162272 31.75975421936655 -11.512951355120457 1.0 1.0 1.0
v -17.829892942782703 39.983402421839074 -8.795333580944448 1.0 1.0 1.0
v -15.335895113868055 39.998278905206895 -12.019976565835107 1.0 1.0 1.0
v -15.166269385711463 35.8595646558025 -11.88824372294533 1.0 1.0 1.0
v -15.166269385711463 35.8595646558025 -11.88824372294533 0.55 0.55 0.55
v -15.335895113868055 39.998278905206895 -12.019976565835107 0.55 0.55 0.55
v -12.790692497060503 39.581384382303035 -15.212839923238942 0.55 0.55 0.55
v -12.576651405150313 35.09911800173367 -14.951732426879342 0.55 0.55 0.55
v -12.576651405150313 35.09911800173367 -14.951732426879342 0.55 0.55 0.55
v -12.790692497060503 39.581384382303035 -15.212839923238942 0.55 0.55 0.55
v -8.834003495720307 31.769362616752417 -16.42671397184742 0.55 0.55 0.55
v -8.40533774437431 27.73383417238812 -15.606201763396612 0.55 0.55 0.55
v -8.40533774437431 27.73383417238812 -15.606201763396612 0.55 0.55 0.55
v -8.834003495720307 31.769362616752417 -16.42671397184742 0.55 0.55 0.55
v -5.357654087489268 31.712236495973247 -18.16370965050324 0.55 0.55 0.55
v -5.085097040503384 27.673269290848957 -17.136228912531642 0.55 0.55 0.55
v -5.085097040503384 27.673269290848957 -17.136228912531642 0.55 0.55 0.55
v -5.357654087489268 31.712236495973247 -18.16370965050324 0.55 0.55 0.55
v -1.4999611569852984 31.775535135497908 -18.584580051672614 0.55 0.55 0.55
v -1.4471702252135008 27.742739755204106 -17.661825323198336 0.55 0.55 0.55
v -1.4471702252135008 27.742739755204106 -17.661825323198336 0.55 0.55 0.55
v -1.4999611569852984 31.775535135497908 -18.584580051672614 0.55 0.55 0.55
v 2.38499722481496 31.708650515089143 -18.805304270548618 0.55 0.55 0.55
v 2.2121863603415393 27.668423763345594 -17.753318279163423 0.55 0.55 0.55
v 2.2121863603415393 27.668423763345594 -17.753318279163423 0.55 0.55 0.55
v 2.38499722481496 31.708650515089143 -18.805304270548618 0.55 0.55 0.55
v 6.086387830406318 31.763408431085896 -17.61566609418942 0.55 0.55 0.55
v 5.753724898777808 27.725705270556766 -16.749667180298886 0.55 0.55 0.55
v 5.753724898777808 27.725705270556766 -16.749667180298886 0.55 0.55 0.55
v 6.086387830406318 31.763408431085896 -17.61566609418942 0.55 0.55 0.55
v 10.034490581612399 35.0070726872828 -16.767449585211455 0.55 0.55 0.55
v 9.565974430307746 30.50415010009942 -16.03041778958472 0.55 0.55 0.55
v 9.565974430307746 30.50415010009942 -16.03041778958472 0.0 0.0 0.0
v 10.034490581612399 35.0070726872828 -16.767449585211455 0.0 0.0 0.0
v 12.817751018892263 31.482052603571923 -13.889541116001535 0.0 0.0 0.0
v 10.034490581612399 35.0070726872828 -16.767449585211455 0.0 0.0 0.0
v 10.22166654783512 39.579852484721215 -17.062315616636 0.0 0.0 0.0
v 12.817751018892263 31.482052603571923 -13.889541116001535 0.0 0.0 0.0
v 6.086387830406318 31.763408431085896 -17.61566609418942 0.55 0.55 0.55
v 6.304926741597816 35.86117909613428 -18.181173987151563 0.55 0.55 0.55
v 10.22166654783512 39.579852484721215 -17.062315616636 0.55 0.55 0.55
v 10.034490581612399 35.0070726872828 -16.767449585211455 0.55 0.55 0.55
v 2.38499722481496 31.708650515089143 -18.805304270548618 0.55 0.55 0.55
v 2.4975384218253303 35.82924199856276 -19.486397456088557 0.55 0.55 0.55
v 6.304926741597816 35.86117909613428 -18.181173987151563 0.55 0.55 0.55
v 6.086387830406318 31.763408431085896 -17.61566609418942 0.55 0.55 0.55
v -1.4999611569852984 31.775535135497908 -18.584580051672614 0.55 0.55 0.55
v -1.5331741616403176 35.868268281561555 -19.18689257720096 0.55 0.55 0.55
v 2.4975384218253303 35.82924199856276 -19.486397456088557 0.55 0.55 0.55
v 2.38499722481496 31.708650515089143 -18.805304270548618 0.55 0.55 0.55
v -5.357654087489268 31.712236495973247 -18.16370965050324 0.55 0.55 0.55
v -5.533714295760571 35.831189971484875 -18.829032764327163 0.55 0.55 0.55
v -1.5331741616403176 35.868268281561555 -19.18689257720096 0.55 0.55 0.55
v -1.4999611569852984 31.775535135497908 -18.584580051672614 0.55 0.55 0.55
v -8.834003495720307 31.769362616752417 -16.42671397184742 0.55 0.55 0.55
v -9.112288383654402 35.86484013408565 -16.963366385846847 0.55 0.55 0.55
v -5.533714295760571 35.831189971484875 -18.829032764327163 0.55 0.55 0.55
v -5.357654087489268 31.712236495973247 -18.16370965050324 0.55 0.55 0.55
v -12.790692497060503 39.581384382303035 -15.212839923238942 1.0 1.0 1.0
v -9.112288383654402 35.86484013408565 -16.963366385846847 1.0 1.0 1.0
v -8.834003495720307 31.769362616752417 -16.42671397184742 1.0 1.0 1.0
v -12.790692497060503 39.581384382303035 -15.212839923238942 1.0 1.0 1.0
v -9.211791213846821 39.99894743145973 -17.152662695252175 1.0 1.0 1.0
v -9.112288383654402 35.86484013408565 -16.963366385846847 1.0 1.0 1.0
v -9.112288383654402 35.86484013408565 -16.963366385846847 0.55 0.55 0.55
v -9.211791213846821 39.99894743145973 -17.152662695252175 0.55 0.55 0.55
v -5.596327851844033 40.00011675100401 -19.058425826680214 0.55 0.55 0.55
v -5.533714295760571 35.831189971484875 -18.829032764327163 0.55 0.55 0.55
v -5.533714295760571 35.831189971484875 -18.829032764327163 0.55 0.55 0.55
v -5.596327851844033 40.00011675100401 -19.058425826680214 0.55 0.55 0.55
v -1.5459606129094623 39.99959385943423 -19.396053509159835 0.55 0.55 0.55
v -1.5331741616403176 35.868268281561555 -19.18689257720096 0.55 0.55 0.55
v -1.5331741616403176 35.868268281561555 -19.18689257720096 0.55 0.55 0.55
v -1.5459606129094623 39.99959385943423 -19.396053509159835 0.55 0.55 0.55
v 2.5348969793121774 40.000078245963124 -19.72199709238718 0.55 0.55 0.55
v 2.4975384218253303 35.82924199856276 -19.486397456088557 0.55 0.55 0.55
v 2.4975384218253303 35.82924199856276 -19.486397456088557 0.55 0.55 0.55
v 2.5348969793121774 40.000078245963124 -19.72199709238718 0.55 0.55 0.55
v 6.380795076052976 39.99778301011653 -18.38171972955151 0.55 0.55 0.55
v 6.304926741597816 35.86117909613428 -18.181173987151563 0.55 0.55 0.55
v 6.304926741597816 35.86117909613428 -18.181173987151563 0.55 0.55 0.55
v 6.380795076052976 39.99778301011653 -18.38171972955151 0.55 0.55 0.55
v 10.095418790148214 44.16027089473568 -16.86986854797371 0.55 0.55 0.55
v 10.22166654783512 39.579852484721215 -17.062315616636 0.55 0.55 0.55
v 10.22166654783512 39.579852484721215 -17.062315616636 0.55 0.55 0.55
v 10.095418790148214 44.16027089473568 -16.86986854797371 0.55 0.55 0.55
v 13.371627649487849 35.796417248870526 -14.428910150406546 0.55 0.55 0.55
v 12.817751018892263 31.482052603571923 -13.889541116001535 0.55 0.55 0.55
v 12.817751018892263 31.482052603571923 -13.889541116001535 0.55 0.55 0.55
v 13.371627649487849 35.796417248870526 -14.428910150406546 0.55 0.55 0.55
v 15.874369687965315 40.001653113074674 -11.271782593144147 0.55 0.55 0.55
v 15.691933322861292 35.84511536482955 -11.160306112997231 0.55 0.55 0.55
v 15.691933322861292 35.84511536482955 -11.160306112997231 0.55 0.55 0.55
v 15.874369687965315 40.001653113074674 -11.271782593144147 0.55 0.55 0.55
v 17.863134876780833 40.00037130439234 -7.765913924204643 0.55 0.55 0.55
v 17.670970131365223 35.866627357091126 -7.681465976051596 0.55 0.55 0.55
v 17.670970131365223 35.866627357091126 -7.681465976051596 0.55 0.55 0.55
v 17.863134876780833 40.00037130439234 -7.765913924204643 0.55 0.55 0.55
v 19.05702110734477 39.999322666003216 -3.927272098228829 0.55 0.55 0.55
v 18.856126194752804 35.868007748551015 -3.8632940247704286 0.55 0.55 0.55
v 18.856126194752804 35.868007748551015 -3.8632940247704286 0.0 1.0 0.0
v 19.05702110734477 39.999322666003216 -3.927272098228829 0.0 1.0 0.0
v 19.996253368667762 39.99997550192192 -0.04610869286058127 0.0 1.0 0.0
v 19.75589241339227 40.51569437373578 1.7606596648293629 0.0 1.0 0.0
v 19.5770936603485 36.227465108729 1.7168749448078666 0.0 1.0 0.0
v 19.5770936603485 36.227465108729 1.7168749448078666 0.55 0.55 0.55
v 19.75589241339227 40.51569437373578 1.7606596648293629 0.55 0.55 0.55
v 18.63817622339632 39.999900261271634 5.623072784096869 0.55 0.55 0.55
v 18.439716832961228 35.86966167645649 5.556457664204073 0.55 0.55 0.55
f 1 2 3 4
f 5 6 7 8
f 9 10 11 12
f 13 14 15 16
f 17 18 19 20
f 21 22 23 24
f 25 26 27 28
f 29 30 31 32
f 33 34 35 36
f 37 38 39 40
f 41 42 43 44
f 45 46 47 48
f 49 50 51 52
f 53 54 55 56
f 57 58 59 60
f 61 62 63 64
f 65 66 67 68
f 69 70 71 72
f 73 74 75 76
f 77 78 79 80
f 81 82 83 84
f 85 86 87 88
f 89 90 91 92
f 93 94 95 96
f 97 98 99 100
f 101 102 103 104
f 105 106 107 108
f 109 110 111 112
f 113 114 115 116
f 117 118 119 120
f 121 122 123 124
f 125 126 127 128
f 129 130 131 132
f 133 134 135 136
f 137 138 139 140
f 141 142 143 144
f 145 146 147 148
f 149 150 151 152
f 153 154 155 156
f 157 158 159 160
f 161 162 163 164
f 165 166 167 168
f 169 170 171 172
f 173 174 175 176
f 177 178 179 180
f 181 182 183 184
f 185 186 187 188
f 189 190 191 192
f 193 194 195 196
f 197 198 199 200
f 201 202 203 204 205
f 206 207 208 209 210
f 211 212 213 214 215
f 216 217 218 219 220
f 221 222 223 224 225
f 226 227 228 229 230
f 231 232 233 234
f 235 236 237 238
f 239 240 241 242 243
f 244 245 246 247 248
f 249 250 251 252 253
f 254 255 256 257
f 258 259 260 261
f 262 263 264 265 266
f 267 268 269 270
f 271 272 273 274
f 275 276 277 278
f 279 280 281 282
f 283 284 285 286
f 287 288 289 290
f 291 292 293 294
f 295 296 297 298
f 299 300 301 302
f 303 304 305 306
f 307 308 309 310
f 311 312 313 314
f 315 316 317 318
f 319 320 321 322
f 323 324 325 326 327
f 328 329 330 331 332
f 333 334 335 336
f 337 338 339 340
f 341 342 343 344
f 345 346 347 348
f 349 350 351 352
f 353 354 355 356 357
f 358 359 360 361
f 362 363 364 365
f 366 367 368 369
f 370 371 372 373
f 374 375 376 377
f 378 379 380 381
f 382 383 384 385 386
f 387 388 389 390
f 391 392 393 394
f 395 396 397 398
f 399 400 401 402
f 403 404 405 406
f 407 408 409 410
f 411 412 413 414
f 415 416 417 418
f 419 420 421 422
f 423 424 425 426
f 427 428 429 430
f 431 432 433 434
f 435 436 437 438
f 439 440 441 442
f 443 444 445 446
f 447 448 449 450
f 451 452 453 454
f 455 456 457 458
f 459 460 461 462
f 463 464 465 466
f 467 468 469 470
f 471 472 473 474
f 475 476 477 478
f 479 480 481 482
f 483 484 485 486
f 487 488 489 490
f 491 492 493 494
f 495 496 497 498
f 499 500 501 502
f 503 504 505 506
f 507 508 509
f 510 511 512
f 513 514 515
f 516 517 518
f 519 520 521 522
f 523 524 525 526
f 527 528 529 530
f 531 532 533 534
f 535 536 537 538
f 539 540 541 542
f 543 544 545 546
f 547 548 549 550
f 551 552 553 554
f 555 556 557 558
f 559 560 561 562
f 563 564 565 566
f 567 568 569
f 570 571 572
f 573 574 575
f 576 577 578
f 579 580 581 582
f 583 584 585 586
f 587 588 589
f 590 591 592
f 593 594 595
f 596 597 598
f 599 600 601 602
f 603 604 605 606
f 607 608 609 610
f 611 612 613 614
f 615 616 617 618
f 619 620 621 622
f 623 624 625 626
f 627 628 629 630
f 631 632 633 634
f 635 636 637 638
f 639 640 641 642
f 643 644 645 646
f 647 648 649 650
f 651 652 653 654
f 655 656 657 658
f 659 660 661
f 662 663 664
f 665 666 667 668
f 669 670 671 672
f 673 674 675 676
f 677 678 679 680
f 681 682 683 684
f 685 686 687 688
f 689 690 691 692
f 693 694 695
f 696 697 698
f 699 700 701 702
f 703 704 705 706
f 707 708 709 710
f 711 712 713 714
f 715 716 717 718
f 719 720 721 722
f 723 724 725 726
f 727 728 729 730
f 731 732 733 734
f 735 736 737 738
f 739 740 741 742
f 743 744 745 746
f 747 748 749 750
f 751 752 753 754
f 755 756 757 758
f 759 760 761 762
f 763 764 765 766
f 767 768 769 770
f 771 772 773 774
f 775 776 777
f 778 779 780
f 781 782 783 784
f 785 786 787 788
f 789 790 791 792
f 793 794 795 796
f 797 798 799 800
f 801 802 803 804
f 805 806 807 808
f 809 810 811 812
f 813 814 815 816
f 817 818 819 820
f 821 822 823
f 824 825 826
f 827 828 829 830
f 831 832 833 834
f 835 836 837 838
f 839 840 841 842
f 843 844 845 846
f 847 848 849 850
f 851 852 853 854
f 855 856 857 858
f 859 860 861 862
f 863 864 865 866
f 867 868 869 870
f 871 872 873 874
f 875 876 877
f 878 879 880
f 881 882 883
f 884 885 886
f 887 888 889 890
f 891 892 893 894
f 895 896 897 898
f 899 900 901 902
f 903 904 905 906
f 907 908 909 910
f 911 912 913 914
f 915 916 917
f 918 919 920
f 921 922 923 924
f 925 926 927 928
f 929 930 931 932
f 933 934 935 936
f 937 938 939 940
f 941 942 943
f 944 945 946
f 947 948 949 950
f 951 952 953 954
f 955 956 957 958
f 959 960 961 962
f 963 964 965 966
f 967 968 969 970
f 971 972 973 974
f 975 976 977 978
f 979 980 981 982
f 983 984 985 986 987
f 988 989 990 991
