v 8.948867813923592 0.05633250783375266 2.7112603014853054 0.0 0.15 1.0
v 9.761717912488674 4.10346832294744 2.9771433216875156 0.05 0.15 0.95
v 10.788347043928399 8.095204682180901 3.3294052474954747 0.09999999999999999 0.15 0.9
v 11.986391979297563 12.037136327982864 3.7034054112716444 0.15 0.15 0.85
v 13.290420384328476 15.947067924196908 4.060079126181749 0.2 0.15 0.8
v 14.620605228855151 19.849939452627495 4.397439120996783 0.25 0.15 0.75
v 15.882690231100703 23.775023322648597 4.737241241494654 0.3 0.15 0.7
v 16.991297387838625 27.74622331960953 5.0734687497755075 0.35000000000000003 0.15 0.6499999999999999
v 17.8688994993745 31.777991505742037 5.362286157104408 0.4 0.15 0.6
v 18.439716832961228 35.86966167645649 5.556457664204073 0.45 0.15 0.55
v 18.63817622339632 39.999900261271634 5.623072784096869 0.5 0.15 0.5
v 18.441462833784936 44.13013782676919 5.551394414169509 0.55 0.15 0.44999999999999996
v 17.87230732521389 48.221807476776824 5.352384364721014 0.6 0.15 0.4
v 16.996199252334097 52.253586428745244 5.059205673153568 0.65 0.15 0.35
v 15.888895499829266 56.224822548151344 4.719131216760544 0.7 0.15 0.30000000000000004
v 14.627941171812118 60.14997381564394 4.375933105547684 0.75 0.15 0.25
v 13.298685082026712 64.05291750256463 4.035756230363635 0.8 0.15 0.19999999999999996
v 11.99526877923602 67.9628863672082 3.677247700155165 0.85 0.15 0.15000000000000002
v 10.797464763083488 71.9048247244598 3.3025318166917805 0.8999999999999999 0.15 0.10000000000000009
v 9.770624454440496 75.89656143539656 2.9508854885403486 0.9500000000000001 0.15 0.04999999999999993
v 8.957205192658545 79.94369135289817 2.6866645548345205 1.0 0.15 0.0
l 1 2
l 2 3
l 3 4
l 4 5
l 5 6
l 6 7
l 7 8
l 8 9
l 9 10
l 10 11
l 11 12
l 12 13
l 13 14
l 14 15
l 15 16
l 16 17
l 17 18
l 18 19
l 19 20
l 20 21
v 7.1469776105018745 0.06461329657054486 6.087481103672262 0.0 0.15 1.0
v 7.978896741458692 4.116466109585394 6.385652566060775 0.049999999999999996 0.15 0.95
v 9.03374616875712 8.10740671217091 6.783936536464719 0.1 0.15 0.9
v 10.2855081233177 12.042599490391 7.169231367230178 0.14999999999999997 0.15 0.8500000000000001
v 11.671129500202264 15.936721121509779 7.5141844963029225 0.19999999999999998 0.15 0.8
v 13.102199175886742 19.81801327817643 7.815606741945101 0.25 0.15 0.75
v 14.406086102214198 23.73807032198259 8.178794789318852 0.3 0.15 0.7
v 15.49759984362179 27.716168129745494 8.605998944023815 0.35 0.15 0.65
v 16.347773258158288 31.75671139366467 8.990489687566285 0.4 0.15 0.6
v 16.89812338259689 35.858138259890815 9.251229544022367 0.45 0.15 0.55
v 17.092983275176906 39.99869887159024 9.343425651475718 0.5 0.15 0.5
v 16.900842942975824 44.13928067604364 9.246544120236946 0.55 0.15 0.44999999999999996
v 16.353125017536282 48.24077908205405 8.981381757253116 0.6 0.15 0.4
v 15.505264682417616 52.28142367450164 8.592875767485248 0.6499999999999999 0.15 0.3500000000000001
v 14.415746675504037 56.259687150732965 8.162167320781634 0.7 0.15 0.30000000000000004
v 13.11503383460694 60.1805930698605 7.796729670977844 0.75 0.15 0.25
v 11.685822051944417 64.06235417936962 7.49246126204046 0.8 0.15 0.19999999999999996
v 10.301395391978412 67.95676257505768 7.1459524615921035 0.8499999999999999 0.15 0.15000000000000013
v 9.052096872790198 71.89280798936105 6.761480937609558 0.9 0.15 0.09999999999999998
v 7.996828880655195 75.88376649546584 6.364468523303418 0.9499999999999998 0.15 0.050000000000000155
v 7.164090425963016 79.93559063857535 6.068208386590651 1.0 0.15 0.0
l 22 23
l 23 24
l 24 25
l 25 26
l 26 27
l 27 28
l 28 29
l 29 30
l 30 31
l 31 32
l 32 33
l 33 34
l 34 35
l 35 36
l 36 37
l 37 38
l 38 39
l 39 40
l 40 41
l 41 42
v 4.157508482284211 0.09645424752141442 8.539746442221686 0.0 0.15 1.0
v 5.0298852395372275 4.171384475236576 8.932769479488245 0.05 0.15 0.95
v 6.082841172284782 8.183251808166577 9.497087281320459 0.1 0.15 0.9
v 7.433935110116594 12.103541126304673 10.051731178457782 0.15000000000000002 0.15 0.85
v 9.081226229601318 15.931685982380309 10.44253372313835 0.20000000000000004 0.15 0.7999999999999999
v 10.815678478092709 19.68437672453231 10.643338471812962 0.25000000000000006 0.15 0.75
v 12.219354552281425 23.60028127327983 11.047516089713824 0.3 0.15 0.7
v 13.27612021366024 27.605632050249213 11.648693785218345 0.35000000000000003 0.15 0.6499999999999999
v 14.086262798434984 31.678574263435188 12.171666883336327 0.4 0.15 0.6
v 14.608105658942897 35.81602715529047 12.5242642373243 0.45000000000000007 0.15 0.5499999999999999
v 14.79036746049527 39.995050878295054 12.647455662113956 0.5000000000000001 0.15 0.4999999999999999
v 14.613124526647676 44.17420309871707 12.52117083155434 0.55 0.15 0.44999999999999996
v 14.095697299177784 48.31194481792914 12.165412026690591 0.6000000000000001 0.15 0.3999999999999999
v 13.289289198683438 52.385265948861345 11.639586155584428 0.65 0.15 0.35
v 12.235508699994911 56.39102205997959 11.035916018160869 0.7 0.15 0.30000000000000004
v 10.836701236398223 60.30829667435757 10.626007906930033 0.75 0.15 0.25
v 9.102869813077634 64.06692950722862 10.424944119447263 0.8 0.15 0.19999999999999996
v 7.460283239732143 67.89701950489801 10.033422978784822 0.8500000000000001 0.15 0.1499999999999999
v 6.108298595517088 71.8172020227778 9.480083745903277 0.9000000000000001 0.15 0.09999999999999987
v 5.055070855606906 75.82947757288136 8.919554430698346 0.9500000000000001 0.15 0.04999999999999993
v 4.180898812129835 79.90421406580293 8.528537033826222 1.0 0.15 0.0
l 43 44
l 44 45
l 45 46
l 46 47
l 47 48
l 48 49
l 49 50
l 50 51
l 51 52
l 52 53
l 53 54
l 54 55
l 55 56
l 56 57
l 57 58
l 58 59
l 59 60
l 60 61
l 61 62
l 62 63
v 9.908175703007087 23.873603391130025 13.143524246168614 0.3056902356285539 0.15 0.6943097643714461
v 10.962069495384325 28.33477656598117 14.359425274001351 0.35974422677150547 0.15 0.6402557732284946
v 11.733420173633805 32.926878648996286 15.252000207925189 0.4153723655353441 0.15 0.5846276344646559
v 12.148310413330075 37.62439627559337 15.732983073194845 0.4716671844051844 0.15 0.5283328155948156
v 12.151339016989795 42.36417230744565 15.731680600269044 0.5278585677847769 0.15 0.4721414322152231
v 11.741908818235942 47.06187130222514 15.247884829023567 0.5845809322276512 0.15 0.4154190677723488
v 10.975858734179443 51.65457300918972 14.353866806029309 0.641436419054478 0.15 0.358563580945522
v 9.924787657938108 56.116211170952965 13.137201690919875 0.6994034325039634 0.15 0.3005965674960366
l 64 65
l 65 66
l 66 67
l 67 68
l 68 69
l 69 70
l 70 71
v 5.445529311656209 14.740005163909286 11.602163480596797 0.1729215273106474 0.15 0.8270784726893526
v 6.265292266413024 18.768266488182658 13.142631560555621 0.23659387722495906 0.15 0.7634061227750409
v 6.957155521641319 22.85562871333603 14.637940792797231 0.28795277277177395 0.15 0.7120472272282261
v 7.613789409890674 27.016229413241394 15.932180241911787 0.34273731441353106 0.15 0.6572626855864689
v 8.151393416830402 31.268155371470968 16.953602182638168 0.3949184111739163 0.15 0.6050815888260836
v 8.50678384239974 35.60820950657281 17.618395568908117 0.44723402733911494 0.15 0.5527659726608851
v 8.635151508802009 40.00481756303117 17.853903397800355 0.4997941895739466 0.15 0.5002058104260534
v 8.511077458120226 44.401347615694924 17.614752953953698 0.5522182167027341 0.15 0.4477817832972659
v 8.15974315329815 48.74123750622057 16.946859457591497 0.6055786502727873 0.15 0.39442134972721266
v 7.625927413410776 52.99299152287832 15.92276938009141 0.6589369093221017 0.15 0.3410630906778983
v 6.971974291217799 57.15345753456443 14.62677244480716 0.713540300746332 0.15 0.286459699253668
v 6.282424819174712 61.24077453187127 13.130278919928449 0.763623813112851 0.15 0.236376186887149
v 5.467196630597206 65.26897046497172 11.587891405898338 0.827429981480044 0.15 0.17257001851995601
l 72 73
l 73 74
l 74 75
l 75 76
l 76 77
l 77 78
l 78 79
l 79 80
l 80 81
l 81 82
l 82 83
l 83 84
v 1.0002827004223318 0.06153322599456725 9.320749798983286 0.0 0.15 1.0
v 1.3233960522686168 4.110561975138828 10.134960026725862 0.049999999999999996 0.15 0.95
v 1.7372522270293052 8.102734635884401 11.16203529001365 0.09999999999999999 0.15 0.9
v 2.1877609420719177 12.045132572409472 12.353414749256565 0.15 0.15 0.85
v 2.874126823093377 15.929249068323168 13.584068101664135 0.19999999999999998 0.15 0.8
v 3.472535116512828 19.823708455929136 14.855961454917914 0.24999999999999994 0.15 0.75
v 3.861240470194463 23.753271232514493 16.110313144374043 0.3 0.15 0.7
v 4.201918004918303 27.72881244389244 17.22513285089146 0.35 0.15 0.65
v 4.476600576275309 31.76536388821471 18.114561164346533 0.39999999999999997 0.15 0.6000000000000001
v 4.658803235452442 35.86255248558106 18.694771119479867 0.44999999999999996 0.15 0.55
v 4.723723262659851 39.99890449403509 18.896159657948925 0.49999999999999994 0.15 0.5
v 4.6641191579017605 44.13529789293223 18.693943187186516 0.5499999999999999 0.15 0.45000000000000007
v 4.486879261733235 48.232585518142905 18.112879263517694 0.5999999999999999 0.15 0.40000000000000013
v 4.216457068459398 52.26926293073548 17.222705498806977 0.6499999999999999 0.15 0.3500000000000001
v 3.8790797978142018 56.244928654508925 16.10729972648904 0.7 0.15 0.30000000000000004
v 3.4927320176156917 60.174597530647745 14.852533931233621 0.75 0.15 0.25
v 2.8983586728955997 64.06956447900413 13.579721145834405 0.7999999999999999 0.15 0.20000000000000007
v 2.2196440869746326 67.9546888444012 12.347331005588059 0.85 0.15 0.15000000000000002
v 1.767426110760989 71.89702839512984 11.156481917425431 0.8999999999999999 0.15 0.10000000000000009
v 1.3516557091522754 75.88951507782755 10.131493492223978 0.9499999999999998 0.15 0.050000000000000155
v 1.0265322018756475 79.93866097882965 9.318560465898488 0.9999999999999998 0.15 2.220446049250313e-16
l 85 86
l 86 87
l 87 88
l 88 89
l 89 90
l 90 91
l 91 92
l 92 93
l 93 94
l 94 95
l 95 96
l 96 97
l 97 98
l 98 99
l 99 100
l 100 101
l 101 102
l 102 103
l 103 104
l 104 105
v 0.42205086443239537 16.016228724407586 13.304673943658603 0.19473476276853954 0.15 0.8052652372314605
v 0.42655469447930344 19.8425862842602 14.97261912782489 0.24951634442816392 0.15 0.750483655571836
v 0.5180128309979483 23.722099663390917 16.516472333867647 0.29879149216193274 0.15 0.7012085078380672
v 0.599642960575265 27.67504523492456 17.860859691335097 0.34961423994828494 0.15 0.6503857600517151
v 0.6691628385576935 31.713715282862257 18.919014769625097 0.3995993025798981 0.15 0.6004006974201019
v 0.7182307221125949 35.83200000016639 19.603715943548046 0.4498947173940827 0.15 0.5501052826059173
v 0.7377383300599702 40.000015799533315 19.840228158833174 0.5001392843629031 0.15 0.4998607156370969
v 0.7238087669709905 44.16803196758523 19.603336653536832 0.550292939775505 0.15 0.449707060224495
v 0.6797997307651533 48.28631741797928 18.918304249660654 0.6004350570559326 0.15 0.3995649429440674
v 0.6143410123932361 52.32498139887042 17.859886279124574 0.6508649380167106 0.15 0.34913506198328936
v 0.535452326294411 56.277916377000594 16.515326160701854 0.700390072182799 0.15 0.29960992781720097
v 0.4450400990128272 60.15741773001358 14.971414479416032 0.750501084010467 0.15 0.249498915989533
v 0.4363680131843761 63.98374278123934 13.303743325149988 0.8053030166852015 0.15 0.19469698331479846
l 106 107
l 107 108
l 108 109
l 109 110
l 110 111
l 111 112
l 112 113
l 113 114
l 114 115
l 115 116
l 116 117
l 117 118
v -2.566169265816587 0.05897267947263891 9.014010633096508 0.0 0.15 1.0
v -2.617972405203648 4.106506984310321 9.879420249237699 0.05 0.15 0.95
v -2.6798732098350198 8.098111955817636 10.974281967300476 0.1 0.15 0.9
v -2.7556191279109017 12.039217583279388 12.238938501463029 0.15000000000000002 0.15 0.85
v -2.654322488253994 15.93475570162379 13.630033295934005 0.19999999999999998 0.15 0.8
v -2.749518809040194 19.83757395753104 15.00556802058331 0.25 0.15 0.75
v -2.90695782760569 23.764970201064507 16.30501676730659 0.30000000000000004 0.15 0.7
v -3.050266536102523 27.738131677076513 17.457888267347855 0.35000000000000003 0.15 0.6499999999999999
v -3.1642750785841183 31.77204433495833 18.378027999342553 0.4 0.15 0.6
v -3.2372117674677563 35.86621041053922 18.978973364145386 0.45000000000000007 0.15 0.5499999999999999
v -3.2605711431439004 39.999229500759064 19.18813632487676 0.5 0.15 0.5
v -3.232016983667082 44.1322759028185 18.980142326324003 0.55 0.15 0.44999999999999996
v -3.1542347136581794 48.2265081100881 18.380241604665038 0.6000000000000001 0.15 0.3999999999999999
v -3.0360634950449468 52.26050650126399 17.460988271916047 0.65 0.15 0.35
v -2.8895044534582737 56.233755887342795 16.308805285625237 0.7 0.15 0.30000000000000004
v -2.729689784538862 60.161232434619386 15.009866370194533 0.75 0.15 0.25
v -2.6301286728766717 64.0643579240859 13.635151651756082 0.7999999999999999 0.15 0.20000000000000007
v -2.7252399976777135 67.96045586785243 12.245205248330624 0.85 0.15 0.15000000000000002
v -2.650302113484867 71.90156662313655 10.980536026059267 0.9000000000000001 0.15 0.09999999999999987
v -2.5903514188342878 75.89314228226971 9.885472187483437 0.9500000000000001 0.15 0.04999999999999993
v -2.5410913778331397 79.94113756557701 9.021922313888854 1.0 0.15 0.0
l 119 120
l 120 121
l 121 122
l 122 123
l 123 124
l 124 125
l 125 126
l 126 127
l 127 128
l 128 129
l 129 130
l 130 131
l 131 132
l 132 133
l 133 134
l 134 135
l 135 136
l 136 137
l 137 138
l 138 139
v -4.946376758021651 16.01618872312499 12.37023745174773 0.1940223558243176 0.15 0.8059776441756824
v -5.607578817578232 19.843141870504315 13.90401214143908 0.24857965274691662 0.15 0.7514203472530834
v -6.149103847448703 23.72244085539072 15.35338274996082 0.2987913500291258 0.15 0.7012086499708742
v -6.61824214014742 27.675223751092982 16.616401929852405 0.34914464745871315 0.15 0.6508553525412868
v -6.984625888351052 31.713820540399407 17.611845537618347 0.39950088567871267 0.15 0.6004991143212873
v -7.219115410032292 35.83207046143683 18.257118912729076 0.44951537413017517 0.15 0.5504846258698248
v -7.297403682366544 40.00006457554202 18.481090629809255 0.5000111029206086 0.15 0.4999888970793914
v -7.2138994317477225 44.16805086155589 18.258868954554234 0.5501722776058051 0.15 0.4498277223941949
v -6.97463024404285 48.286277783408316 17.615212775036625 0.600499945427609 0.15 0.399500054572391
v -6.604365994934997 52.32484364832604 16.621090468847353 0.6508793677893724 0.15 0.3491206322106276
v -6.132500562182066 56.277593623658696 15.359007234057056 0.7012255038277361 0.15 0.2987744961722639
v -5.589669533874634 60.15687252196794 13.910088406382712 0.7514586238152883 0.15 0.24854137618471173
v -4.930000119140901 63.983789319039666 12.375802494231213 0.8060813257852851 0.15 0.19391867421471487
l 140 141
l 141 142
l 142 143
l 143 144
l 144 145
l 145 146
l 146 147
l 147 148
l 148 149
l 149 150
l 150 151
l 151 152
v -5.779972698030147 0.057072112145677076 7.373991762580962 0.0 0.15 1.0
v -6.188734159103059 4.1039632024712756 8.132379588588918 0.049999999999999996 0.15 0.95
v -6.691872709834697 8.094948228119593 9.101718314672292 0.09999999999999999 0.15 0.9
v -7.2511525584562415 12.034735690690882 10.236534935255975 0.15 0.15 0.85
v -7.803805292415777 15.939606462773284 11.488172522854764 0.19999999999999998 0.15 0.8
v -8.506545612862707 19.844288982948882 12.664608116130555 0.25 0.15 0.75
v -9.18501178038211 23.770838075863704 13.780669904047286 0.3 0.15 0.7
v -9.788399744393171 27.742954006194925 14.770476121057085 0.3499999999999999 0.15 0.6500000000000001
v -10.26927530961194 31.775582748798435 15.56065635161442 0.39999999999999997 0.15 0.6000000000000001
v -10.581827975724584 35.86821663112429 16.077252660013738 0.44999999999999996 0.15 0.55
v -10.688723545043857 39.9995072534363 16.25773561528467 0.5 0.15 0.5
v -10.577499243647898 44.13081116841395 16.0801940796872 0.5499999999999999 0.15 0.45000000000000007
v -10.26091373238738 48.22348004202874 15.566333213707404 0.6 0.15 0.4
v -9.776571771303857 52.25615506681653 14.7784952052516 0.6499999999999999 0.15 0.3500000000000001
v -9.170481547688514 56.22832081365313 13.790525230964716 0.7 0.15 0.30000000000000004
v -8.490050644675408 60.154918467910896 12.675821716371448 0.7499999999999999 0.15 0.2500000000000001
v -7.784100143708759 64.05968784582252 11.501590179745056 0.7999999999999999 0.15 0.20000000000000007
v -7.225889692348139 67.96483956395086 10.253682938126731 0.8499999999999999 0.15 0.15000000000000013
v -6.667276791150243 71.90463922555779 9.11859730963626 0.8999999999999999 0.15 0.10000000000000009
v -6.165694904565505 75.89561941152904 8.148447207363196 0.95 0.15 0.050000000000000044
v -5.75983409594525 79.94297186569028 7.390936263081086 1.0 0.15 0.0
l 153 154
l 154 155
l 155 156
l 156 157
l 157 158
l 158 159
l 159 160
l 160 161
l 161 162
l 162 163
l 163 164
l 164 165
l 165 166
l 166 167
l 167 168
l 168 169
l 169 170
l 170 171
l 171 172
l 172 173
v -9.483088800908114 15.852907702541614 9.2700934058188 0.1907119355993223 0.15 0.8092880644006777
v -10.666091836157474 19.703462312736505 10.459837451030031 0.24649457094062904 0.15 0.753505429059371
v -11.756866299558611 23.607967308734104 11.579747779572898 0.2972025925029682 0.15 0.7027974074970318
v -12.708748707805112 27.58617468392916 12.556419842501342 0.34794152291975095 0.15 0.6520584770802491
v -13.458352457275861 31.65109889027292 13.328462746711127 0.39862754754794616 0.15 0.6013724524520538
v -13.94309053589563 35.797104102178224 13.830587909237638 0.44948950025658935 0.15 0.5505104997434107
v -14.112792959726429 39.99395648971924 14.009477631864682 0.4999347865047374 0.15 0.5000652134952626
v -13.940491632553607 44.19092505814171 13.835810013299064 0.5504514506994667 0.15 0.44954854930053334
v -13.453363722231058 48.33724254824695 13.338470390670077 0.6012363202738976 0.15 0.3987636797261024
v -12.70164926855804 52.40248873806214 12.570142373412208 0.6519257690768901 0.15 0.34807423092310985
v -11.748264460525844 56.38094323152429 11.595930412729727 0.7026508445409947 0.15 0.2973491554590053
v -10.656671619865177 60.285544193216666 10.477121498993737 0.753344050975578 0.15 0.246655949024422
v -9.474605351169698 64.13626398240103 9.28570445018876 0.8091556486266044 0.15 0.19084435137339562
l 174 175
l 175 176
l 176 177
l 177 178
l 178 179
l 179 180
l 180 181
l 181 182
l 182 183
l 183 184
l 184 185
l 185 186
v -8.163246003101595 0.05654234828293899 4.590263589917528 0.0 0.15 1.0
v -8.85194912405239 4.103379396297185 5.105584738553297 0.05 0.15 0.95
v -9.710182787449241 8.094296876860666 5.779568521242828 0.1 0.15 0.9
v -10.663051206543905 12.03378575437999 6.611319851007023 0.15 0.15 0.85
v -11.715814229735608 15.940496588361164 7.463056675854921 0.2 0.15 0.8
v -12.854843962811085 19.845316197151057 8.22213394882986 0.25 0.15 0.75
v -13.932064378125423 23.77180304534184 8.958919679098491 0.29999999999999993 0.15 0.7000000000000001
v -14.888315027159244 27.74379592793139 9.612625459726047 0.35 0.15 0.65
v -15.650780151425522 31.776242514481382 10.13500484874271 0.4000000000000001 0.15 0.5999999999999999
v -16.147515246802104 35.868629947545976 10.477248667933932 0.4500000000000001 0.15 0.5499999999999998
v -16.318910720263602 39.99961550782938 10.597695907929921 0.5000000000000001 0.15 0.4999999999999999
v -16.144581346023646 44.13060322209083 10.481629743970911 0.55 0.15 0.44999999999999996
v -15.64513783032228 48.22299992017844 10.14347900431861 0.6000000000000001 0.15 0.3999999999999999
v -14.880350913337445 52.25545534470861 9.624611856297504 0.65 0.15 0.35
v -13.92231348620121 56.22746184010734 8.973658914905654 0.7000000000000001 0.15 0.29999999999999993
v -12.843840925841796 60.15396886769429 8.238874086998337 0.7500000000000001 0.15 0.2499999999999999
v -11.703198716710087 64.05880107593107 7.482423673287001 0.8 0.15 0.19999999999999996
v -10.646570714291643 67.96553988570231 6.6367300983368755 0.85 0.15 0.15000000000000002
v -9.694220770265652 71.90505851906481 5.804538065762985 0.8999999999999999 0.15 0.10000000000000009
v -8.838902770907604 75.89654626141805 5.130412171205948 0.9500000000000001 0.15 0.04999999999999993
v -8.151587467057496 79.94343987521661 4.613628387640831 1.0 0.15 0.0
l 187 188
l 188 189
l 189 190
l 190 191
l 191 192
l 192 193
l 193 194
l 194 195
l 195 196
l 196 197
l 197 198
l 198 199
l 199 200
l 200 201
l 201 202
l 202 203
l 203 204
l 204 205
l 205 206
l 206 207
v -12.290924467068916 15.611072706387793 4.701079138236771 0.18720768273959307 0.15 0.8127923172604069
v -13.871554350960725 19.505662741805835 5.3049802527843966 0.2458682089203493 0.15 0.7541317910796507
v -15.340583006993558 23.450596861209675 5.886562057694417 0.29658731053335013 0.15 0.7034126894666499
v -16.62474077106986 27.46914768768642 6.3943360379083325 0.34636537462536676 0.15 0.6536346253746332
v -17.63892540248053 31.57527445528712 6.79639675590468 0.3977518618480512 0.15 0.6022481381519488
v -18.29680506722982 35.76391188989775 7.058789912419424 0.44874876521594664 0.15 0.5512512347840534
v -18.524281421559706 40.004562868262845 7.1514144006383535 0.4998719113738571 0.15 0.5001280886261429
v -18.293786630514127 44.2451521327957 7.063796365232103 0.5513560266607697 0.15 0.44864397333923034
v -17.633380297283814 48.4336686593035 6.805940004691252 0.6023350414818187 0.15 0.3976649585181813
v -16.61723687015348 52.539666049411075 6.407448259338356 0.653040360994066 0.15 0.34695963900593396
v -15.331879581317011 56.558117655997684 5.901889990557974 0.7053643671871983 0.15 0.2946356328128017
v -13.862511846349793 60.50303435076804 5.3209503593531595 0.7569213824425133 0.15 0.24307861755748672
v -12.283905395208812 64.39830446664234 4.711204611858336 0.8121392064154302 0.15 0.18786079358456975
l 208 209
l 209 210
l 210 211
l 211 212
l 212 213
l 213 214
l 214 215
l 215 216
l 216 217
l 217 218
l 218 219
l 219 220
v -9.304578121802223 0.05690285514522396 1.008636532135423 0.0 0.15 1.0
v -10.144355899780985 4.104940234373844 1.182666928872207 0.05 0.15 0.95
v -11.212799000834437 8.096846751103604 1.3977849597738854 0.1 0.15 0.9
v -12.440489742184324 12.0352755889124 1.7188499161912927 0.15000000000000002 0.15 0.85
v -13.725740221811408 15.9378609701462 2.167006897698743 0.2 0.15 0.8
v -15.075473924551124 19.84298095187422 2.401285713079156 0.25 0.15 0.75
v -16.360671662405622 23.769787691246503 2.633313585775513 0.30000000000000004 0.15 0.7
v -17.50156638392442 27.742152040896876 2.8384371269611854 0.35000000000000003 0.15 0.6499999999999999
v -18.411660726215956 31.77505241647179 3.0034934321012696 0.4 0.15 0.6
v -19.00547235401807 35.86798805037905 3.1121246773263325 0.45000000000000007 0.15 0.5499999999999999
v -19.211323555336907 39.99958219989748 3.1517583184650126 0.5 0.15 0.5
v -19.004504662399132 44.13117413317555 3.1172619577816914 0.55 0.15 0.44999999999999996
v -18.409803315499385 48.22410479118198 3.013436437580544 0.6000000000000001 0.15 0.3999999999999999
v -17.498976191017185 52.25700088729347 2.8524594915309986 0.65 0.15 0.35
v -16.357536586560595 56.22936758945645 2.6505777487111724 0.7000000000000001 0.15 0.29999999999999993
v -15.072015044581144 60.15618665077108 2.4207908605751944 0.75 0.15 0.25
v -13.722019978947856 64.06133108948795 2.1885757964402037 0.8 0.15 0.19999999999999996
v -12.435990843900562 67.96377046670266 1.7455336997027286 0.8500000000000001 0.15 0.1499999999999999
v -11.210358618837775 71.90315110619142 1.4272133255916482 0.9000000000000001 0.15 0.09999999999999987
v -10.142333007983034 75.8950816375072 1.2103704710516616 0.95 0.15 0.050000000000000044
v -9.30309539320725 79.9431508369405 1.0344761073535742 1.0 0.15 0.0
l 221 222
l 222 223
l 223 224
l 224 225
l 225 226
l 226 227
l 227 228
l 228 229
l 229 230
l 230 231
l 231 232
l 232 233
l 233 234
l 234 235
l 235 236
l 236 237
l 237 238
l 238 239
l 239 240
l 240 241
v -13.062827339376256 15.413613550925369 -0.5520263797062904 0.18650724646300715 0.15 0.8134927535369929
v -14.780505354331527 19.371059140998558 -0.6544490003462798 0.2429134288049956 0.15 0.7570865711950043
v -16.385196997904483 23.377240702781723 -0.721642299878898 0.29524623864120214 0.15 0.7047537613587979
v -17.78573908562718 27.458856506802313 -0.7878964899447216 0.3478097595416986 0.15 0.6521902404583013
v -18.88685233431246 31.630771544617268 -0.8458956345989016 0.4000061762543667 0.15 0.5999938237456333
v -19.591258694552735 35.887289394480646 -0.8872058953776036 0.4518155916150439 0.15 0.5481844083849561
v -19.81689753335394 40.195499272967396 -0.9043084082596121 0.503637946727279 0.15 0.496362053272721
v -19.535465945512843 44.500310261083044 -0.892933473391431 0.5554278586516764 0.15 0.44457214134832357
v -18.7892701498913 48.74946653713012 -0.8537397957466986 0.6070661262212445 0.15 0.39293387377875555
v -17.659926875126725 52.91359638980931 -0.7883542520186196 0.6584544007759799 0.15 0.34154559922402006
v -16.245980019034114 56.99013014050698 -0.6970742746994403 0.7103795067841989 0.15 0.2896204932158011
v -14.643771713068599 60.996250289553416 -0.5813392585088659 0.7618199113727896 0.15 0.2381800886272104
v -12.99917704091243 64.8548882365082 -0.06956509203336977 0.8151126099269765 0.15 0.18488739007302346
l 242 243
l 243 244
l 244 245
l 245 246
l 246 247
l 247 248
l 248 249
l 249 250
l 250 251
l 251 252
l 252 253
l 253 254
v -8.919606454206793 0.06788231087634948 -2.7983963882122382 0.0 0.15 1.0
v -9.754986682224875 4.135408960358787 -2.996863856652954 0.049999999999999996 0.15 0.95
v -10.799106324286436 8.14675256576565 -3.315751394081653 0.09999999999999999 0.15 0.9
v -11.97174173533912 12.10667447940658 -3.7925104355891146 0.15 0.15 0.85
v -13.389973231207087 15.82217244424352 -3.575734666037855 0.19999999999999998 0.15 0.8
v -14.737431418651788 19.745518580498466 -3.8370538316279945 0.25 0.15 0.75
v -16.014586999789806 23.68989988836476 -4.148717665532996 0.3 0.15 0.7
v -17.150971386473007 27.67925577467567 -4.427667554138452 0.35 0.15 0.65
v -18.059847619892782 31.729444813770467 -4.651771869127973 0.39999999999999997 0.15 0.6000000000000001
v -18.654911683963455 35.840455736819095 -4.797832877659028 0.45 0.15 0.55
v -18.866751088468558 39.99097526990238 -4.84816066392175 0.5 0.15 0.5
v -18.658568840890705 44.14162643814791 -4.79325465831751 0.5499999999999999 0.15 0.45000000000000007
v -18.06677003590633 48.25300496826132 -4.643035086366092 0.6 0.15 0.4
v -17.160249129454954 52.30352153534848 -4.415175086449062 0.6499999999999999 0.15 0.3500000000000001
v -16.02542950592412 56.29311672987892 -4.1332824370177335 0.6999999999999998 0.15 0.30000000000000016
v -14.749086931569417 60.23756006364065 -3.81924812067694 0.7499999999999999 0.15 0.2500000000000001
v -13.403089115797512 64.16104700524676 -3.5490912829669674 0.7999999999999999 0.15 0.20000000000000007
v -11.98182123565409 67.89380768749665 -3.7631910744585095 0.8499999999999999 0.15 0.15000000000000013
v -10.808775665353686 71.85377172022267 -3.2877407830864773 0.8999999999999999 0.15 0.10000000000000009
v -9.764067012267635 75.86509282374405 -2.9704961943779242 0.95 0.15 0.050000000000000044
v -8.927903578096782 79.93255031910847 -2.7739059907433927 1.0 0.15 0.0
l 255 256
l 256 257
l 257 258
l 258 259
l 259 260
l 260 261
l 261 262
l 262 263
l 263 264
l 264 265
l 265 266
l 266 267
l 267 268
l 268 269
l 269 270
l 270 271
l 271 272
l 272 273
l 273 274
l 274 275
v -13.001673454053073 18.934813842802836 -6.359797231948112 0.24323820320199413 0.15 0.7567617967980058
v -14.520145452547725 22.970181840868108 -7.1279534547873125 0.2913029929379289 0.15 0.7086970070620711
v -15.849549096664308 27.088149982718274 -7.799301636475267 0.34410128598910283 0.15 0.6558987140108972
v -16.901969337352977 31.304787346973672 -8.330068508973868 0.3954341996040874 0.15 0.6045658003959127
v -17.587658833656786 35.61453659701408 -8.675362166418997 0.44754255196373255 0.15 0.5524574480362674
v -17.829892942782703 39.983402421839074 -8.795333580944448 0.49992275147140053 0.15 0.5000772485285995
v -17.594315672134062 44.3525628003192 -8.672379538714582 0.5522778081818194 0.15 0.4477221918181806
v -16.913907805280846 48.662918534050704 -8.324051693689357 0.6042782291930401 0.15 0.3957217708069599
v -15.865561119324237 52.88022001313276 -7.790613190092365 0.6558010474729326 0.15 0.34419895252706745
v -14.53852571933705 56.99867574012899 -7.117563435306604 0.7067765992718428 0.15 0.2932234007281572
v -13.020959436246669 61.03412533883695 -6.348023228492137 0.7567276038932271 0.15 0.24327239610677287
l 276 277
l 277 278
l 278 279
l 279 280
l 280 281
l 281 282
l 282 283
l 283 284
l 284 285
l 285 286
v -7.127707897028589 0.06540067209048521 -6.046279185560526 0.0 0.15 1.0
v -7.80096355551807 4.120907736019679 -6.577514720270209 0.05 0.15 0.95
v -8.606740762019237 8.120519319731326 -7.310554997268915 0.1 0.15 0.9
v -9.488123867859702 12.068970265476526 -8.215271293452494 0.15000000000000002 0.15 0.85
v -10.84328685502679 15.903064911619808 -8.67728470065272 0.2 0.15 0.8
v -12.008707371223858 19.80765585715006 -9.419659818025705 0.24999999999999997 0.15 0.75
v -13.042041959790533 23.741194658205078 -10.223695685764625 0.30000000000000004 0.15 0.7
v -13.958559288446008 27.720141620463625 -10.939730444151945 0.35000000000000003 0.15 0.6499999999999999
v -14.689319850162272 31.75975421936655 -11.512951355120457 0.4000000000000001 0.15 0.5999999999999999
v -15.166269385711463 35.8595646558025 -11.88824372294533 0.45 0.15 0.55
v -15.335895113868055 39.998278905206895 -12.019976565835107 0.5 0.15 0.5
v -15.170213286100637 44.13702801801639 -11.884604340072318 0.55 0.15 0.44999999999999996
v -14.696867180061625 48.23694773572765 -11.505808998154384 0.6000000000000001 0.15 0.3999999999999999
v -13.969121377044937 52.276682648281856 -10.929577171274335 0.6500000000000001 0.15 0.34999999999999987
v -13.054917478964379 56.25573281563889 -10.211137682767978 0.7000000000000002 0.15 0.2999999999999998
v -12.023070006302884 60.18933611294078 -9.405468494213682 0.7500000000000001 0.15 0.2499999999999999
v -10.859321698142043 64.09447958308567 -8.660755461850563 0.8 0.15 0.19999999999999996
v -9.508771588554172 67.93137870326777 -8.191897979916716 0.8500000000000002 0.15 0.1499999999999998
v -8.626527833779248 71.87984615674604 -7.288107437147384 0.9 0.15 0.09999999999999998
v -7.81947374383967 75.87944307399415 -6.556386373950347 0.9500000000000001 0.15 0.04999999999999993
v -7.1447453781828525 79.93488843123545 -6.026543686827563 1.0 0.15 0.0
l 287 288
l 288 289
l 289 290
l 290 291
l 291 292
l 292 293
l 293 294
l 294 295
l 295 296
l 296 297
l 297 298
l 298 299
l 299 300
l 300 301
l 301 302
l 302 303
l 303 304
l 304 305
l 305 306
l 306 307
v -9.161928763274453 18.013009333565805 -10.724652994387226 0.2258880646120933 0.15 0.7741119353879067
v -10.264916220494653 22.151025612025574 -12.099735226818506 0.27975479367697126 0.15 0.7202452063230287
v -11.251067871506882 26.367463865965632 -13.314598258431287 0.3335991579054803 0.15 0.6664008420945198
v -12.04504175067886 30.68384729210722 -14.293598145773897 0.38716968410430885 0.15 0.6128303158956911
v -12.576651405150313 35.09911800173367 -14.951732426879342 0.44116555454319994 0.15 0.5588344454568
v -12.790692497060503 39.581384382303035 -15.212839923238942 0.4952630676621118 0.15 0.5047369323378882
v -12.655270635209307 44.071163813286454 -15.039189048801262 0.5489274609460205 0.15 0.4510725390539795
v -12.179871398607373 48.50238369624645 -14.446886945873034 0.6028226515269243 0.15 0.39717734847307573
v -11.428881318192888 52.83621771157606 -13.513047350154464 0.6563905986114317 0.15 0.3436094013885683
v -10.468187819491797 57.06485263026339 -12.321365133323587 0.7103994922511305 0.15 0.2896005077488695
v -9.367846856767148 61.20444242715193 -10.94940361068077 0.7616324161338527 0.15 0.23836758386614731
l 308 309
l 309 310
l 310 311
l 311 312
l 312 313
l 313 314
l 314 315
l 315 316
l 316 317
l 317 318
v -4.289443878906391 0.060896028273130676 -8.304740755290732 0.0 0.15 1.0
v -4.676536219497088 4.111963676284757 -9.068363204371696 0.05 0.15 0.95
v -5.111600029736848 8.107072988951208 -10.065953485379826 0.09999999999999999 0.15 0.9
v -5.577191273097058 12.051622810083568 -11.237025105293958 0.14999999999999997 0.15 0.8500000000000001
v -6.5115548360045565 15.925381538983803 -12.267777038997309 0.2 0.15 0.8
v -7.256363467158704 19.829245672763836 -13.424212738757998 0.25 0.15 0.75
v -7.86712680375419 23.7588350037566 -14.578901622643551 0.3 0.15 0.7
v -8.40533774437431 27.73383417238812 -15.606201763396612 0.35 0.15 0.65
v -8.834003495720307 31.769362616752417 -16.42671397184742 0.4 0.15 0.6
v -9.112288383654402 35.86484013408565 -16.963366385846847 0.45000000000000007 0.15 0.5499999999999999
v -9.211791213846821 39.99894743145973 -17.152662695252175 0.5 0.15 0.5
v -9.117155844440067 44.13307252182395 -16.961229918120704 0.5499999999999999 0.15 0.45000000000000007
v -8.843458504716963 48.22861974426806 -16.422704940137525 0.6 0.15 0.4
v -8.41874036643587 52.26421214578185 -15.600429328724198 0.65 0.15 0.35
v -7.883466466589638 56.23927077605232 -14.57179497851339 0.7 0.15 0.30000000000000004
v -7.27488773613443 60.168898269306546 -13.416055320725745 0.75 0.15 0.25
v -6.533027089342158 64.07304297572752 -12.25799362517346 0.7999999999999999 0.15 0.20000000000000007
v -5.60512173179445 67.94856833952294 -11.223336863245025 0.8500000000000001 0.15 0.1499999999999999
v -5.138576504431023 71.89313323075362 -10.052705776544126 0.9000000000000001 0.15 0.09999999999999987
v -4.70183542598993 75.8882490652157 -9.055873360345954 0.95 0.15 0.050000000000000044
v -4.312909544762972 79.9392865594422 -8.293019641949105 1.0 0.15 0.0
l 319 320
l 320 321
l 321 322
l 322 323
l 323 324
l 324 325
l 325 326
l 326 327
l 327 328
l 328 329
l 329 330
l 330 331
l 331 332
l 332 333
l 333 334
l 334 335
l 335 336
l 336 337
l 337 338
l 338 339
v -3.997979639327084 16.016178475924814 -12.692078442773536 0.19545088626219936 0.15 0.8045491137378007
v -4.3492106447852885 19.841463121560853 -14.330520006801516 0.2484948284038076 0.15 0.7515051715961925
v -4.740879784983088 23.720439335893722 -15.830704012012117 0.29881825518507676 0.15 0.7011817448149232
v -5.085097040503384 27.673269290848957 -17.136228912531642 0.34974696009151834 0.15 0.6502530399084816
v -5.357654087489268 31.712236495973247 -18.16370965050324 0.3996274844984538 0.15 0.6003725155015462
v -5.533714295760571 35.831189971484875 -18.829032764327163 0.44968879496183906 0.15 0.5503112050381609
v -5.596327851844033 40.00011675100401 -19.058425826680214 0.5000255319452485 0.15 0.49997446805475154
v -5.538918322841667 44.1690187272472 -18.82723200833441 0.5501430575008851 0.15 0.4498569424991149
v -5.367635900884395 48.28791034258739 -18.160284924258097 0.6004250690684566 0.15 0.3995749309315434
v -5.09892852144959 52.32680320811224 -17.131512677565095 0.6508488779910813 0.15 0.34915112200891874
v -4.757429841909228 56.279565377297146 -15.825088308689876 0.7003496333230366 0.15 0.29965036667696343
v -4.367042432591755 60.158497558269985 -14.324487907215813 0.7505097192302089 0.15 0.24949028076979107
v -4.013969128245596 63.98378340679484 -12.686660459562596 0.8046516427340727 0.15 0.19534835726592725
l 340 341
l 341 342
l 342 343
l 343 344
l 344 345
l 345 346
l 346 347
l 347 348
l 348 349
l 349 350
l 350 351
l 351 352
v -0.8491497467490425 0.057814072178342606 -9.309775172296085 0.0 0.15 1.0
v -0.876475365436812 4.105895823340312 -10.165240825225405 0.049999999999999996 0.15 0.95
v -0.8586708860578932 8.097636723281429 -11.254447294492307 0.1 0.15 0.9
v -0.8303163763768993 12.039189308814663 -12.513948212575515 0.15 0.15 0.85
v -1.1169847493322518 15.940384533868972 -13.844469287009844 0.19999999999999998 0.15 0.8
v -1.2979637021428998 19.843480713357316 -15.203180759318144 0.25 0.15 0.75
v -1.3780320118104328 23.77038011654258 -16.50562552698622 0.3 0.15 0.7
v -1.4471702252135008 27.742739755204106 -17.661825323198336 0.35 0.15 0.65
v -1.4999611569852984 31.775535135497908 -18.584580051672614 0.39999999999999997 0.15 0.6000000000000001
v -1.5331741616403176 35.868268281561555 -19.18689257720096 0.45 0.15 0.55
v -1.5459606129094623 39.99959385943423 -19.396053509159835 0.5 0.15 0.5
v -1.5384866526527397 44.13092461921898 -19.18670119559728 0.55 0.15 0.44999999999999996
v -1.5102189521729215 48.22366165160757 -18.58414368938584 0.6 0.15 0.4
v -1.4616788784826165 52.25646780650351 -17.661189983944187 0.65 0.15 0.35
v -1.395863497187338 56.22884347696799 -16.504818851279197 0.7 0.15 0.30000000000000004
v -1.3181867387530704 60.15575238224062 -15.202232462688638 0.75 0.15 0.25
v -1.141132742661613 64.05903440409674 -13.843162318387993 0.8 0.15 0.19999999999999996
v -0.8614449928562301 67.96084766550415 -12.511964392260026 0.85 0.15 0.15000000000000002
v -0.8888518111144085 71.90241891789537 -11.252504219395256 0.8999999999999999 0.15 0.10000000000000009
v -0.9047021388783382 75.89419298550196 -10.163385700531675 0.9500000000000001 0.15 0.04999999999999993
v -0.875390396288367 79.94227406707127 -9.307980531121222 1.0 0.15 0.0
l 353 354
l 354 355
l 355 356
l 356 357
l 357 358
l 358 359
l 359 360
l 360 361
l 361 362
l 362 363
l 363 364
l 364 365
l 365 366
l 366 367
l 367 368
l 368 369
l 369 370
l 370 371
l 371 372
l 372 373
v 1.3272235187918489 16.015559584746914 -13.244592121050589 0.19415330521716126 0.15 0.8058466947828388
v 1.7398712638923517 19.83513939561693 -14.883795664520308 0.24886438048180082 0.15 0.7511356195181992
v 1.9954760882757827 23.714643205506707 -16.417245373011596 0.2992252219258831 0.15 0.7007747780741169
v 2.2121863603415393 27.668423763345594 -17.753318279163423 0.34947614765488394 0.15 0.650523852345116
v 2.38499722481496 31.708650515089143 -18.805304270548618 0.3996764136627769 0.15 0.6003235863372232
v 2.4975384218253303 35.82924199856276 -19.486397456088557 0.4498840434603826 0.15 0.5501159565396174
v 2.5348969793121774 40.000078245963124 -19.72199709238718 0.500050306085708 0.15 0.499949693914292
v 2.4919872162627037 44.170880259269694 -19.486739496547635 0.55021482232176 0.15 0.44978517767824
v 2.374395846830579 48.29138791337168 -18.805993444582416 0.6004227182356234 0.15 0.39957728176437657
v 2.1974844298641165 52.33151564558557 -17.75430871044108 0.6506289849708493 0.15 0.3493710150291507
v 1.9780954869824934 56.285214206158194 -16.418448398504776 0.7008795944814811 0.15 0.29912040551851893
v 1.7213161900805205 60.16467275114003 -14.885095570967314 0.7512672583504806 0.15 0.24873274164951942
v 1.3119291734309373 63.984357959273396 -13.245613833135902 0.8059254941001802 0.15 0.19407450589981978
l 374 375
l 375 376
l 376 377
l 377 378
l 378 379
l 379 380
l 380 381
l 381 382
l 382 383
l 383 384
l 384 385
l 385 386
v 2.7055296782970615 0.05929199273033158 -8.949680426860134 0.0 0.15 1.0
v 3.045574903904658 4.112418089578253 -9.737969758338549 0.05 0.15 0.95
v 3.5433210148349747 8.107300743071693 -10.717099261517017 0.09999999999999999 0.15 0.9
v 4.204859220511808 12.04621271499694 -11.817658946274278 0.14999999999999997 0.15 0.8500000000000001
v 4.317696967548384 15.90859170845667 -13.187132500334107 0.19999999999999998 0.15 0.8
v 4.8974150457714085 19.816435483226055 -14.434420808320215 0.25 0.15 0.75
v 5.3452707873991665 23.7484708587842 -15.662439434939689 0.3 0.15 0.7
v 5.753724898777808 27.725705270556766 -16.749667180298886 0.35 0.15 0.65
v 6.086387830406318 31.763408431085896 -17.61566609418942 0.39999999999999997 0.15 0.6000000000000001
v 6.304926741597816 35.86117909613428 -18.181173987151563 0.44999999999999996 0.15 0.55
v 6.380795076052976 39.99778301011653 -18.38171972955151 0.5 0.15 0.5
v 6.300039009684151 44.1344049715565 -18.183541790782837 0.5499999999999999 0.15 0.45000000000000007
v 6.076980016599076 48.23226237450332 -17.620325451025337 0.5999999999999999 0.15 0.40000000000000013
v 5.740367100944501 52.27002294476245 -16.75610285175919 0.6499999999999999 0.15 0.3500000000000001
v 5.32876119472106 56.24729262540407 -15.670199233722498 0.7 0.15 0.30000000000000004
v 4.878397687416609 60.179328368380055 -14.443090732011028 0.75 0.15 0.25
v 4.296106257053129 64.08706536160771 -13.196551142709458 0.7999999999999999 0.15 0.20000000000000007
v 4.171912985090108 67.95369424069898 -11.82921269075454 0.8499999999999999 0.15 0.15000000000000013
v 3.514232048491915 71.89284687602162 -10.727188611478635 0.8999999999999999 0.15 0.10000000000000009
v 3.0186149607715627 75.88778242040074 -9.74718226258339 0.9500000000000001 0.15 0.04999999999999993
v 2.6804638067218 79.94089392431367 -8.95799974871517 1.0 0.15 0.0
l 387 388
l 388 389
l 389 390
l 390 391
l 391 392
l 392 393
l 393 394
l 394 395
l 395 396
l 396 397
l 397 398
l 398 399
l 399 400
l 400 401
l 401 402
l 402 403
l 403 404
l 404 405
l 405 406
l 406 407
v 7.269087210514792 17.598066635276652 -11.908090704181452 0.19999999999999998 0.15 0.8
v 8.040509704553024 21.807015918090343 -13.553520892688859 0.27342833813121786 0.15 0.7265716618687821
v 8.869537968118252 26.10408372695749 -14.933166912597736 0.33000204779285164 0.15 0.6699979522071484
v 9.565974430307746 30.50415010009942 -16.03041778958472 0.38504052273679706 0.15 0.614959477263203
v 10.034490581612399 35.0070726872828 -16.767449585211455 0.43989800144564656 0.15 0.5601019985543534
v 10.22166654783512 39.579852484721215 -17.062315616636 0.4948626089127608 0.15 0.5051373910872392
v 10.095418790148214 44.16027089473568 -16.86986854797371 0.550274649926733 0.15 0.44972535007326697
v 9.668804695865658 48.67927582949812 -16.209462351052444 0.604801369678662 0.15 0.39519863032133795
v 9.002257932845279 53.097174629863254 -15.168153389364953 0.659835572180517 0.15 0.340164427819483
v 8.175033354668045 57.40683993702819 -13.828028833242255 0.7156276755698802 0.15 0.28437232443011984
v 7.382878464679131 61.62026769938457 -12.193700172149143 0.7719974196893319 0.15 0.2280025803106681
l 408 409
l 409 410
l 410 411
l 411 412
l 412 413
l 413 414
l 414 415
l 415 416
l 416 417
l 417 418
v 10.802975222534185 23.164205771420008 -12.016768075397058 0.27342833813121786 0.15 0.7265716618687821
v 11.943985041018019 27.267750703701047 -13.056969944515762 0.3445824568261451 0.15 0.6554175431738549
v 12.817751018892263 31.482052603571923 -13.889541116001535 0.39726169621605417 0.15 0.6027383037839458
v 13.371627649487849 35.796417248870526 -14.428910150406546 0.44951988281723976 0.15 0.5504801171827602
v 13.550408469795094 40.171833220448235 -14.606358334279554 0.5019718866275759 0.15 0.49802811337242414
v 13.333701313559748 44.54400277985583 -14.398141620572593 0.5547749646958837 0.15 0.4452250353041163
v 12.74934307544124 48.85160534406353 -13.83890325731067 0.6066949571627491 0.15 0.3933050428372509
v 11.849326741631197 53.05824896407768 -12.995771659864209 0.6589869876563904 0.15 0.3410130123436096
v 10.684468175379214 57.15558928297044 -11.958527108721487 0.7106713806137548 0.15 0.2893286193862452
l 419 420
l 420 421
l 421 422
l 422 423
l 423 424
l 424 425
l 425 426
l 426 427
v 5.600817754140067 0.07779381939888301 -7.593484115279603 0.0 0.15 1.0
v 6.4550822487898465 4.138057861012767 -7.932706882190042 0.05 0.15 0.95
v 7.516106877448114 8.13580991638831 -8.404839197902936 0.1 0.15 0.9
v 8.845625578667937 12.054070331863008 -8.859600202704243 0.15000000000000002 0.15 0.85
v 10.337571828826677 15.923303912751248 -9.231767581934884 0.2 0.15 0.8
v 11.901671922192106 19.771453237263056 -9.491699613614987 0.25 0.15 0.75
v 13.260134868492644 23.686047108306404 -9.872474620674513 0.30000000000000004 0.15 0.7
v 14.334157692642908 27.674871303659767 -10.387744020594646 0.35 0.15 0.65
v 15.16029952955965 31.72876880214983 -10.847399495299435 0.39999999999999997 0.15 0.6000000000000001
v 15.691933322861292 35.84511536482955 -11.160306112997231 0.44999999999999996 0.15 0.55
v 15.874369687965315 40.001653113074674 -11.271782593144147 0.5 0.15 0.5
v 15.688383680234056 44.15814283645198 -11.164510014055956 0.55 0.15 0.44999999999999996
v 15.153473858749852 48.27436680830895 -10.85560426004449 0.6 0.15 0.4
v 14.3244461581006 52.32808075568077 -10.399506388391291 0.65 0.15 0.35
v 13.24798043158064 56.31664813159826 -9.887303492832789 0.7000000000000001 0.15 0.29999999999999993
v 11.885843855058845 60.23008827966565 -9.508711993707676 0.7500000000000001 0.15 0.2499999999999999
v 10.319407671675021 64.0774129371052 -9.251627002787004 0.8 0.15 0.19999999999999996
v 8.823979780837796 67.94534911346848 -8.879816251236662 0.85 0.15 0.15000000000000002
v 7.494306848834092 71.86350475229179 -8.42479613074228 0.8999999999999999 0.15 0.10000000000000009
v 6.434208679994774 75.86133626222014 -7.951267540931552 0.9500000000000001 0.15 0.04999999999999993
v 5.581159004473216 79.92170695969075 -7.610270681612482 1.0 0.15 0.0
l 428 429
l 429 430
l 430 431
l 431 432
l 432 433
l 433 434
l 434 435
l 435 436
l 436 437
l 437 438
l 438 439
l 439 440
l 440 441
l 441 442
l 442 443
l 443 444
l 444 445
l 445 446
l 446 447
l 447 448
v 8.107185739613245 0.05898511051886847 -4.691276943439448 0.0 0.15 1.0
v 8.925670234291358 4.108033452854719 -4.965838260768944 0.049999999999999996 0.15 0.95
v 9.958044566415422 8.101067657942595 -5.327692458384905 0.09999999999999999 0.15 0.9
v 11.17430348754273 12.04141293774895 -5.698260139163041 0.15 0.15 0.85
v 12.50677790173459 15.94648534222424 -6.043828575915432 0.19999999999999998 0.15 0.8
v 13.871355463527756 19.8426836947519 -6.363856984880949 0.25 0.15 0.75
v 15.149229059870683 23.76491564479057 -6.719005325227638 0.3 0.15 0.7
v 16.250509838794425 27.737250827786855 -7.105100229029698 0.35 0.15 0.65
v 17.11307518370744 31.771698021221017 -7.447384198316509 0.39999999999999997 0.15 0.6000000000000001
v 17.670970131365223 35.866627357091126 -7.681465976051596 0.44999999999999996 0.15 0.55
v 17.863134876780833 40.00037130439234 -7.765913924204643 0.5 0.15 0.5
v 17.66851158167982 44.13409453712707 -7.686245038956522 0.5499999999999999 0.15 0.45000000000000007
v 17.108312499482015 48.22896657860141 -7.456720248546568 0.5999999999999999 0.15 0.40000000000000013
v 16.24371388234831 52.26332176518931 -7.118507486455376 0.65 0.15 0.35
v 15.140707236802783 56.23552072219191 -6.7359505550134315 0.6999999999999998 0.15 0.30000000000000016
v 13.861258160113497 60.15753995591259 -6.384146278822195 0.7499999999999999 0.15 0.2500000000000001
v 12.495371997174141 64.05351028790243 -6.066952995156854 0.7999999999999999 0.15 0.20000000000000007
v 11.162057852759741 67.9584523079455 -5.723162949571542 0.8499999999999999 0.15 0.15000000000000013
v 9.945497582843581 71.89876028462889 -5.353216035199667 0.9 0.15 0.09999999999999998
v 8.913464194468812 75.89181729250785 -4.990657660926772 0.95 0.15 0.050000000000000044
v 8.095788000276238 79.94091824087512 -4.714469984626243 1.0 0.15 0.0
l 449 450
l 450 451
l 451 452
l 452 453
l 453 454
l 454 455
l 455 456
l 456 457
l 457 458
l 458 459
l 459 460
l 460 461
l 461 462
l 462 463
l 463 464
l 464 465
l 465 466
l 466 467
l 467 468
l 468 469
v 9.309495118158132 0.056192597088124116 -1.031355226422978 0.0 0.15 1.0
v 10.135888033148106 4.101739262513888 -1.296522075630161 0.049999999999999996 0.15 0.95
v 11.175454913202186 8.091015247122632 -1.6529077839162634 0.09999999999999999 0.15 0.9
v 12.377989525286006 12.031683191943868 -2.038751730471567 0.15 0.15 0.85
v 13.680614260273238 15.941976139884167 -2.4098108393568847 0.19999999999999998 0.15 0.8
v 15.006535265761496 19.846298630809784 -2.7610454995082034 0.24999999999999997 0.15 0.75
v 16.269719605174014 23.772333397018663 -3.1000364718302498 0.3 0.15 0.7
v 17.38719667109833 27.74371183521388 -3.4188014528782817 0.35 0.15 0.65
v 18.276493593018767 31.77567746910561 -3.685052741887383 0.39999999999999997 0.15 0.6000000000000001
v 18.856126194752804 35.868007748551015 -3.8632940247704286 0.4499999999999999 0.15 0.55
v 19.05702110734477 39.999322666003216 -3.927272098228829 0.49999999999999994 0.15 0.5
v 18.855170637740013 44.13066973335632 -3.8685708654785587 0.5499999999999999 0.15 0.45000000000000007
v 18.274593689567975 48.22308379157147 -3.6953881143138054 0.6 0.15 0.4
v 17.384409637314047 52.255157366248284 -3.4337725976496456 0.65 0.15 0.35
v 16.266154469517975 56.22664325597187 -3.1190950560294683 0.7 0.15 0.30000000000000004
v 15.002326324270486 60.15277347971483 -2.7836135320715583 0.75 0.15 0.25
v 13.675929685727999 64.05718922523128 -2.4352157644588432 0.7999999999999999 0.15 0.20000000000000007
v 12.373066082465932 67.96758124538424 -2.066048187482827 0.85 0.15 0.15000000000000002
v 11.170560514767594 71.90833716393989 -1.681025913391146 0.8999999999999999 0.15 0.10000000000000009
v 10.133605160846834 75.89825759006656 -1.3245998103418775 0.9499999999999998 0.15 0.050000000000000155
v 9.30780362137897 79.94382061406584 -1.0578289519008548 0.9999999999999998 0.15 2.220446049250313e-16
l 470 471
l 471 472
l 472 473
l 473 474
l 474 475
l 475 476
l 476 477
l 477 478
l 478 479
l 479 480
l 480 481
l 481 482
l 482 483
l 483 484
l 484 485
l 485 486
l 486 487
l 487 488
l 488 489
l 489 490
v 19.996253368667762 39.99997550192192 -0.04610869286058127 0.4998772533449925 0.15 0.5001227466550076
v 13.261736383636151 15.87222451926463 0.09168697333442133 0.19691770114241453 0.15 0.8030822988575854
v 14.953881585726858 19.795042190958785 0.5298603222735837 0.24805702043936392 0.15 0.751942979560636
v 16.519756776164673 23.77373694638495 0.929720080799692 0.2978344067405754 0.15 0.7021655932594246
v 17.874572099755834 27.833509597696068 1.2781855433656617 0.34843494868627956 0.15 0.6515650513137204
v 18.92431368007008 31.987861536319 1.5496317506763422 0.4004133556702634 0.15 0.5995866443297366
v 19.5770936603485 36.227465108729 1.7168749448078666 0.4531550340947351 0.15 0.5468449659052649
v 19.75589241339227 40.51569437373578 1.7606596648293629 0.5062156010968855 0.15 0.49378439890311454
v 19.444467561003457 44.79559018541736 1.6774901959389819 0.5595247531723878 0.15 0.4404752468276122
v 18.68389070783125 49.01549729430539 1.477325543468739 0.6123109588596705 0.15 0.38768904114032954
v 17.556581926852076 53.147722116091956 1.1822881074541356 0.6634401053575287 0.15 0.33655989464247127
v 16.15865408582129 57.19166110622338 0.8195461126860184 0.7139936035482237 0.15 0.2860063964517763
v 14.583508127927216 61.16594960552371 0.4112672362988273 0.7639853905087742 0.15 0.23601460949122577
v 12.918247610337415 65.09977284675011 -0.03201930016393521 0.8157521699344444 0.15 0.18424783006555556
l 492 493
l 493 494
l 494 495
l 495 496
l 496 497
l 497 498
l 498 499
l 499 500
l 500 501
l 501 502
l 502 503
l 503 504
