v 19.7383520444659 -2.3503110191866082e-15 -3.0749911734410214 0.0 0.15 1.0
v 19.738352044218857 5.714285714285712 -3.0749911751065007 0.13954015683956986 0.15 0.8604598431604301
v 19.738352044362053 11.428571428571425 -3.0749911741411493 0.2782042185231473 0.15 0.7217957814768527
v 19.73835204429844 17.14285714285714 -3.0749911745699747 0.42187498558269776 0.15 0.5781250144173022
v 19.73835204429844 22.857142857142854 -3.0749911745699494 0.5678403642405785 0.15 0.4321596357594215
v 19.73835204436206 28.57142857142857 -3.0749911741410703 0.7052215209116708 0.15 0.2947784790883292
v 19.738352044218868 34.285714285714285 -3.0749911751063768 0.8522717439995879 0.15 0.14772825600041206
v 19.73835204446592 40.0 -3.0749911734408784 1.0 0.15 0.0
l 1 2
l 2 3
l 3 4
l 4 5
l 5 6
l 6 7
l 7 8
v 18.374878286552715 3.2046356737778737e-15 -7.870835743960777 0.0 0.15 1.0
v 18.37487828628831 5.714285714285718 -7.870835744519806 0.14358067150782983 0.15 0.8564193284921702
v 18.374878286416035 11.428571428571432 -7.870835744249757 0.28583855501948896 0.15 0.714161444980511
v 18.374878286436203 17.142857142857146 -7.870835744207105 0.43074201935909234 0.15 0.5692579806409077
v 18.37487828643622 22.85714285714286 -7.870835744207084 0.5692579086839807 0.15 0.43074209131601926
v 18.37487828641607 28.571428571428577 -7.870835744249679 0.7141613832604803 0.15 0.2858386167395197
v 18.374878286288375 34.285714285714285 -7.870835744519678 0.8564192889678119 0.15 0.14358071103218806
v 18.374878286552786 40.0 -7.870835743960629 1.0 0.15 0.0
l 9 10
l 10 11
l 11 12
l 12 13
l 13 14
l 14 15
l 15 16
v 15.845257743705467 -2.3503110191866082e-15 -12.168687677409208 0.0 0.15 1.0
v 15.84525774264384 5.714285714285712 -12.16868767884065 0.14325472878849135 0.15 0.8567452712115087
v 15.845257742750666 11.428571428571425 -12.16868767869661 0.28802776759965276 0.15 0.7119722324003472
v 15.845257742599562 17.14285714285714 -12.16868767890035 0.42633923861530876 0.15 0.5736607613846912
v 15.845257742599577 22.857142857142854 -12.168687678900332 0.5736606605381732 0.15 0.4263393394618268
v 15.845257742750723 28.57142857142857 -12.168687678696537 0.7119721459955094 0.15 0.2880278540044906
v 15.845257742643941 34.285714285714285 -12.168687678840513 0.8567452179660698 0.15 0.14325478203393016
v 15.845257743705588 40.0 -12.16868767740905 1.0 0.15 0.0
l 17 18
l 18 19
l 19 20
l 20 21
l 21 22
l 22 23
l 23 24
v 12.342716806496195 -2.3503110191866082e-15 -15.716188951876031 0.0 0.15 1.0
v 12.342716805459608 5.714285714285712 -15.716188952644819 0.14414466796251 0.15 0.85585533203749
v 12.342716805378066 11.428571428571425 -15.7161889527053 0.28124995932006325 0.15 0.7187500406799368
v 12.342716805493561 17.14285714285714 -15.716188952619639 0.43031015304200654 0.15 0.5696898469579934
v 12.342716805493584 22.857142857142854 -15.716188952619625 0.5696897281001307 0.15 0.43031027189986926
v 12.342716805378146 28.57142857142857 -15.716188952705242 0.7187499413671689 0.15 0.28125005863283115
v 12.342716805459764 34.285714285714285 -15.716188952644707 0.8558552701871619 0.15 0.1441447298128381
v 12.34271680649639 40.0 -15.716188951875889 1.0 0.15 0.0
l 25 26
l 26 27
l 27 28
l 28 29
l 29 30
l 30 31
l 31 32
v 8.06670102027251 -2.3503110191866082e-15 -18.28224090654402 0.0 0.15 1.0
v 8.066701019227075 5.714285714285712 -18.282240907038474 0.14397999021822303 0.15 0.856020009781777
v 8.066701019149995 11.428571428571425 -18.282240907074932 0.2812499536850916 0.15 0.7187500463149084
v 8.066701019204967 17.14285714285714 -18.28224090704893 0.43051598896075627 0.15 0.5694840110392437
v 8.066701019204993 22.857142857142854 -18.28224090704892 0.5694838770723362 0.15 0.43051612292766384
v 8.066701019150099 28.57142857142857 -18.282240907074883 0.7187499349637758 0.15 0.2812500650362242
v 8.066701019227269 34.285714285714285 -18.282240907038382 0.8560199411390029 0.15 0.14398005886099707
v 8.066701020272768 40.0 -18.282240906543894 1.0 0.15 0.0
l 33 34
l 34 35
l 35 36
l 36 37
l 37 38
l 38 39
l 39 40
v 3.2893137688256897 -2.3503110191866082e-15 -19.706560292877054 0.0 0.15 1.0
v 3.289313767528786 5.714285714285712 -19.706560293069437 0.14307616812816093 0.15 0.8569238318718391
v 3.2893137675588804 11.428571428571425 -19.70656029306497 0.28832533949472644 0.15 0.7116746605052735
v 3.2893137673617434 17.14285714285714 -19.706560293094217 0.4263392188104289 0.15 0.5736607811895711
v 3.2893137673617767 22.857142857142854 -19.706560293094213 0.5736606396569727 0.15 0.42633936034302733
v 3.289313767558998 28.57142857142857 -19.706560293064957 0.7116745413351516 0.15 0.2883254586648484
v 3.289313767529014 34.285714285714285 -19.706560293069405 0.8569237598452597 0.15 0.1430762401547403
v 3.289313768826019 40.0 -19.706560292877015 1.0 0.15 0.0
l 41 42
l 42 43
l 43 44
l 44 45
l 45 46
l 46 47
l 47 48
v -1.6932466003243105 -2.3503110191866082e-15 -19.916816099476307 0.0 0.15 1.0
v -1.693246600891346 5.714285714285712 -19.916816099448454 0.14369320749712378 0.15 0.8563067925028762
v -1.6932466009656706 11.428571428571425 -19.9168160994448 0.2832059561497972 0.15 0.7167940438502027
v -1.6932466008727656 17.14285714285714 -19.916816099449363 0.42940745104074096 0.15 0.570592548959259
v -1.6932466008727276 22.857142857142854 -19.916816099449367 0.570592401315976 0.15 0.429407598684024
v -1.6932466009655265 28.57142857142857 -19.91681609944481 0.7167939210985276 0.15 0.2832060789014724
v -1.6932466008911056 34.285714285714285 -19.916816099448464 0.8563067177898246 0.15 0.1436932822101754
v -1.6932466003239637 40.0 -19.916816099476325 1.0 0.15 0.0
l 49 50
l 50 51
l 51 52
l 52 53
l 53 54
l 54 55
l 55 56
v -6.567097461630514 -2.3503110191866082e-15 -18.866372032512604 0.0 0.15 1.0
v -6.567097462583331 5.714285714285712 -18.866372032171682 0.14010399066178297 0.15 0.8598960093382171
v -6.567097462487411 11.428571428571425 -18.866372032206 0.27862706858739283 0.15 0.7213729314126072
v -6.5670974627616046 17.14285714285714 -18.866372032107893 0.42187492869460846 0.15 0.5781250713053916
v -6.567097462761566 22.857142857142854 -18.86637203210791 0.568545122546267 0.15 0.431454877453733
v -6.567097462487266 28.57142857142857 -18.866372032206055 0.7052919465477482 0.15 0.2947080534522518
v -6.567097462583097 34.285714285714285 -18.866372032171768 0.852483154766962 0.15 0.14751684523303799
v -6.567097461630167 40.0 -18.86637203251273 1.0 0.15 0.0
l 57 58
l 58 59
l 59 60
l 60 61
l 61 62
l 62 63
l 63 64
v -11.044555836677251 -2.3503110191866082e-15 -16.669459867252773 0.0 0.15 1.0
v -11.044555836768993 5.714285714285712 -16.669459867197787 0.14304967903160384 0.15 0.8569503209683962
v -11.044555836779836 11.428571428571425 -16.66945986719129 0.2851365350710684 0.15 0.7148634649289316
v -11.04455583676366 17.14285714285714 -16.669459867200985 0.4287639207665711 0.15 0.5712360792334289
v -11.044555836763628 22.857142857142854 -16.669459867201002 0.5712359253871436 0.15 0.42876407461285637
v -11.0445558367797 28.57142857142857 -16.66945986719137 0.7148633367075523 0.15 0.2851366632924477
v -11.044555836768769 34.285714285714285 -16.669459867197922 0.8569502437420904 0.15 0.1430497562579096
v -11.04455583667693 40.0 -16.66945986725297 1.0 0.15 0.0
l 65 66
l 66 67
l 67 68
l 68 69
l 69 70
l 70 71
l 71 72
v -14.812456972031685 -2.3503110191866082e-15 -13.402549989127472 0.0 0.15 1.0
v -14.812456972391093 5.714285714285712 -13.402549988730929 0.13730241738083213 0.15 0.8626975826191678
v -14.81245697235895 11.428571428571425 -13.402549988766397 0.27652588759659935 0.15 0.7234741124034006
v -14.812456972462716 17.14285714285714 -13.402549988651913 0.4218749266329913 0.15 0.5781250733670087
v -14.812456972462694 22.857142857142854 -13.402549988651934 0.5650431543102655 0.15 0.4349568456897345
v -14.812456972358843 28.57142857142857 -13.402549988766514 0.7049417481634581 0.15 0.2950582518365419
v -14.812456972390912 34.285714285714285 -13.402549988731133 0.8514325636876106 0.15 0.14856743631238944
v -14.812456972031443 40.0 -13.402549989127746 1.0 0.15 0.0
l 73 74
l 74 75
l 75 76
l 76 77
l 77 78
l 78 79
l 79 80
v -17.68611660635491 -2.3503110191866082e-15 -9.327099908515232 0.0 0.15 1.0
v -17.68611660637872 5.714285714285712 -9.327099908464886 0.14314336281003817 0.15 0.8568566371899619
v -17.686116606381567 11.428571428571425 -9.327099908458864 0.2848554809033712 0.15 0.7151445190966288
v -17.686116606377382 17.14285714285714 -9.327099908467723 0.4288576038119896 0.15 0.5711423961880104
v -17.68611660637736 22.857142857142854 -9.327099908467764 0.5711422396659681 0.15 0.4288577603340319
v -17.686116606381503 28.57142857142857 -9.327099908459001 0.7151443888102391 0.15 0.2848556111897609
v -17.686116606378608 34.285714285714285 -9.327099908465136 0.8568565587325512 0.15 0.14314344126744882
v -17.686116606354744 40.0 -9.327099908515589 1.0 0.15 0.0
l 81 82
l 82 83
l 83 84
l 84 85
l 85 86
l 86 87
l 87 88
v -19.42737928799459 -2.3503110191866082e-15 -4.653647169642505 0.0 0.15 1.0
v -19.427379288035677 5.714285714285712 -4.653647169478486 0.1406249705804609 0.15 0.8593750294195391
v -19.42737928803165 11.428571428571425 -4.653647169494572 0.27919084304665254 0.15 0.7208091569533475
v -19.4273792880432 17.14285714285714 -4.653647169448473 0.4218749258458647 0.15 0.5781250741541353
v -19.427379288043184 22.857142857142854 -4.653647169448533 0.5691963462294789 0.15 0.4308036537705211
v -19.427379288031613 28.57142857142857 -4.653647169494731 0.7053859069779346 0.15 0.2946140930220654
v -19.42737928803561 34.285714285714285 -4.6536471694787735 0.8527650418934838 0.15 0.1472349581065162
v -19.427379287994484 40.0 -4.653647169642932 1.0 0.15 0.0
l 89 90
l 90 91
l 91 92
l 92 93
l 93 94
l 94 95
l 95 96
v -19.98522937018113 -2.3503110191866082e-15 0.30066297165669037 0.0 0.15 1.0
v -19.98522937018078 5.714285714285712 0.3006629716638424 0.1438447719141515 0.15 0.8561552280858485
v -19.985229370180733 11.428571428571425 0.30066297166478995 0.28275125271386603 0.15 0.717248747286134
v -19.98522937018079 17.14285714285714 0.30066297166362776 0.4295590127822993 0.15 0.5704409872177008
v -19.985229370180797 22.857142857142854 0.30066297166355216 0.5704408298898179 0.15 0.4295591701101821
v -19.985229370180743 28.57142857142857 0.3006629716645857 0.7172486169420924 0.15 0.2827513830579076
v -19.9852293701808 34.285714285714285 0.3006629716634981 0.8561551489765719 0.15 0.14384485102342814
v -19.985229370181155 40.0 0.3006629716562326 1.0 0.15 0.0
l 97 98
l 98 99
l 99 100
l 100 101
l 101 102
l 102 103
l 103 104
v -19.281092791265106 -2.3503110191866082e-15 5.237655591610867 0.0 0.15 1.0
v -19.28109279129869 5.714285714285712 5.237655591476823 0.1428325278917928 0.15 0.8571674721082072
v -19.281092791298736 11.428571428571425 5.237655591476645 0.2887313948792786 0.15 0.7112686051207213
v -19.281092791302818 17.14285714285714 5.237655591460344 0.4263392111501795 0.15 0.5736607888498205
v -19.281092791302843 22.857142857142854 5.2376555914602525 0.5736606318873558 0.15 0.42633936811264417
v -19.2810927912988 28.57142857142857 5.2376555914764085 0.7112684732835397 0.15 0.2887315267164603
v -19.281092791298796 34.285714285714285 5.237655591476402 0.8571673933590226 0.15 0.1428326066409774
v -19.281092791265234 40.0 5.237655591610388 1.0 0.15 0.0
l 105 106
l 106 107
l 107 108
l 108 109
l 109 110
l 110 111
l 111 112
v -17.38625435012487 -2.3503110191866082e-15 9.848656506832977 0.0 0.15 1.0
v -17.38625435029148 5.714285714285712 9.848656506555006 0.1437512060160889 0.15 0.8562487939839111
v -17.386254350301936 11.428571428571425 9.848656506537564 0.2812499449195949 0.15 0.7187500550804051
v -17.386254350303144 17.14285714285714 9.848656506535553 0.4308019518640678 0.15 0.5691980481359322
v -17.386254350303204 22.857142857142854 9.848656506535454 0.5691978914204652 0.15 0.4308021085795348
v -17.386254350302096 28.57142857142857 9.848656506537305 0.7187499256990278 0.15 0.28125007430097215
v -17.386254350291747 34.285714285714285 9.848656506554565 0.8562487152470493 0.15 0.14375128475295074
v -17.386254350125178 40.0 9.848656506832466 1.0 0.15 0.0
l 113 114
l 114 115
l 115 116
l 116 117
l 117 118
l 118 119
l 119 120
v -14.408144121520088 -2.3503110191866082e-15 13.848640445146973 0.0 0.15 1.0
v -14.4081441217352 5.714285714285712 13.84864044490964 0.14432708125615204 0.15 0.855672918743848
v -14.408144121765313 11.428571428571425 13.848640444876409 0.281249945430272 0.15 0.7187500545697281
v -14.408144121733976 17.14285714285714 13.848640444910986 0.4300821087495541 0.15 0.5699178912504459
v -14.408144121734066 22.857142857142854 13.848640444910885 0.5699177359041521 0.15 0.43008226409584793
v -14.408144121765556 28.57142857142857 13.848640444876144 0.7187499262170407 0.15 0.2812500737829593
v -14.408144121735576 34.285714285714285 13.84864044490922 0.8556728403245626 0.15 0.1443271596754374
v -14.40814412152056 40.0 13.848640445146454 1.0 0.15 0.0
l 121 122
l 122 123
l 123 124
l 124 125
l 125 126
l 126 127
l 127 128
v -10.528159350405524 -2.3503110191866082e-15 16.978976013885543 0.0 0.15 1.0
v -10.528159351128823 5.714285714285712 16.978976013452016 0.14345570661753393 0.15 0.8565442933824661
v -10.528159351092595 11.428571428571425 16.97897601347373 0.2876927663199001 0.15 0.7123072336801
v -10.528159351244183 17.14285714285714 16.978976013382876 0.4263392128968195 0.15 0.5736607871031805
v -10.528159351244327 22.857142857142854 16.978976013382788 0.5736606336445385 0.15 0.42633936635546155
v -10.528159351092937 28.57142857142857 16.97897601347353 0.7123071049064427 0.15 0.28769289509355733
v -10.528159351129327 34.285714285714285 16.978976013451717 0.8565442159455281 0.15 0.1434557840544719
v -10.528159350406256 40.0 16.978976013885106 1.0 0.15 0.0
l 129 130
l 130 131
l 131 132
l 132 133
l 133 134
l 134 135
l 135 136
v -6.000239776958967 -2.3503110191866082e-15 19.069196935741967 0.0 0.15 1.0
v -6.00023977725148 5.714285714285712 19.06919693563731 0.14345243992863957 0.15 0.8565475600713605
v -6.000239777287798 11.428571428571425 19.069196935624316 0.28392825563261975 0.15 0.7160717443673803
v -6.0002397772381055 17.14285714285714 19.069196935642097 0.42916668257941276 0.15 0.5708333174205873
v -6.000239777238249 22.857142857142854 19.069196935642044 0.5708331666816294 0.15 0.4291668333183706
v -6.0002397772881775 28.57142857142857 19.06919693562418 0.7160716189559059 0.15 0.2839283810440941
v -6.000239777252033 34.285714285714285 19.069196935637112 0.8565474840687957 0.15 0.14345251593120434
v -6.0002397769598765 40.0 19.06919693574165 1.0 0.15 0.0
l 137 138
l 138 139
l 139 140
l 140 141
l 141 142
l 142 143
l 143 144
v -1.091920656904084 -2.3503110191866082e-15 19.94635735911929 0.0 0.15 1.0
v -1.0919206583245429 5.714285714285712 19.94635735904951 0.13889184178095076 0.15 0.8611081582190492
v -1.0919206581911836 11.428571428571425 19.946357359056066 0.27771795795949356 0.15 0.7222820420405065
v -1.0919206585998926 17.14285714285714 19.946357359035982 0.4218749310198474 0.15 0.5781250689801526
v -1.0919206586000076 22.857142857142854 19.94635735903598 0.5670299373053778 0.15 0.43297006269462224
v -1.0919206581915515 28.57142857142857 19.946357359056048 0.7222819215096783 0.15 0.2777180784903217
v -1.0919206583251218 34.285714285714285 19.946357359049482 0.852028599483785 0.15 0.14797140051621505
v -1.091920656904981 40.0 19.946357359119254 1.0 0.15 0.0
l 145 146
l 146 147
l 147 148
l 148 149
l 149 150
l 150 151
l 151 152
v 3.8848486159353084 -2.3503110191866082e-15 19.61822104946772 0.0 0.15 1.0
v 3.884848615900426 5.714285714285712 19.618221049472897 0.14289680332558347 0.15 0.8571031966744165
v 3.884848615901121 11.428571428571425 19.618221049472794 0.2855951759341027 0.15 0.7144048240658973
v 3.884848615911862 17.14285714285714 19.618221049471202 0.42861104875165634 0.15 0.5713889512483437
v 3.884848615911801 22.857142857142854 19.61822104947121 0.5713888106346572 0.15 0.4286111893653428
v 3.884848615900864 28.57142857142857 19.618221049472833 0.7144047063387804 0.15 0.2855952936612196
v 3.884848615899887 34.285714285714285 19.61822104947298 0.8571031254116748 0.15 0.14289687458832523
v 3.8848486159344775 40.0 19.618221049467845 1.0 0.15 0.0
l 153 154
l 154 155
l 155 156
l 156 157
l 157 158
l 158 159
l 159 160
v 8.61094880184437 -2.3503110191866082e-15 18.02483086679752 0.0 0.15 1.0
v 8.610948800264362 5.714285714285712 18.024830867544807 0.13828013211195853 0.15 0.8617198678880414
v 8.610948800423573 11.428571428571425 18.024830867469507 0.2772591790268808 0.15 0.7227408209731192
v 8.610948799977434 17.14285714285714 18.024830867680517 0.42187493832572703 0.15 0.578125061674273
v 8.610948799977402 22.857142857142854 18.02483086768053 0.5662653038397152 0.15 0.4337346961602848
v 8.610948800423397 28.57142857142857 18.024830867469593 0.7050639719768292 0.15 0.29493602802317076
v 8.610948800263914 34.285714285714285 18.024830867545024 0.8517992107567389 0.15 0.14820078924326108
v 8.610948801843666 40.0 18.02483086679786 1.0 0.15 0.0
l 161 162
l 162 163
l 163 164
l 164 165
l 165 166
l 166 167
l 167 168
v 12.815559679325645 -2.6708079763484186e-15 15.344474015158667 0.0 0.15 1.0
v 12.815559678987203 5.714285714285713 15.344474015465421 0.14333261605737957 0.15 0.8566673839426204
v 12.815559678977635 11.428571428571427 15.344474015474091 0.284287759582104 0.15 0.7157122404178959
v 12.815559679064886 17.142857142857142 15.344474015395013 0.42904686771112005 0.15 0.5709531322888799
v 12.815559679064856 22.857142857142858 15.34447401539504 0.5709530135199844 0.15 0.4290469864800156
v 12.815559678977502 28.571428571428573 15.344474015474214 0.7157121405551236 0.15 0.28428785944487645
v 12.815559678986892 34.28571428571429 15.344474015465707 0.8566673223759184 0.15 0.14333267762408164
v 12.815559679325187 40.00000000000001 15.344474015159095 1.0 0.15 0.0
l 169 170
l 170 171
l 171 172
l 172 173
l 173 174
l 174 175
l 175 176
v 16.203899177333604 -2.3503110191866082e-15 11.685115657681212 0.0 0.15 1.0
v 16.203899176191346 5.714285714285712 11.685115659221363 0.14062498228220083 0.15 0.8593750177177992
v 16.203899176348113 11.428571428571425 11.685115659009991 0.2803454918407623 0.15 0.7196545081592377
v 16.2038991761195 17.14285714285714 11.685115659318244 0.42187495382668144 0.15 0.5781250461733185
v 16.203899176119467 22.857142857142854 11.685115659318285 0.5691963755938582 0.15 0.43080362440614184
v 16.20389917634801 28.57142857142857 11.685115659010131 0.7055783699657776 0.15 0.2944216300342224
v 16.203899176191133 34.285714285714285 11.685115659221657 0.8533423702312075 0.15 0.14665762976879249
v 16.20389917733332 40.0 11.6851156576816 1.0 0.15 0.0
l 177 178
l 178 179
l 179 180
l 180 181
l 181 182
l 182 183
l 183 184
v 18.599483890788402 -2.3503110191866082e-15 7.312999920723441 0.0 0.15 1.0
v 18.599483890416977 5.714285714285712 7.312999921761514 0.1441607414688546 0.15 0.8558392585311454
v 18.599483890467848 11.428571428571425 7.312999921619342 0.28180342738365005 0.15 0.71819657261635
v 18.599483890597405 17.14285714285714 7.312999921257267 0.429875006560506 0.15 0.5701249934394941
v 18.599483890597377 22.857142857142854 7.312999921257349 0.5701249215154965 0.15 0.42987507848450346
v 18.59948389046779 28.57142857142857 7.312999921619509 0.7181965113163297 0.15 0.28180348868367033
v 18.599483890416877 34.285714285714285 7.312999921761804 0.8558392188852988 0.15 0.1441607811147012
v 18.599483890788274 40.0 7.31299992072381 1.0 0.15 0.0
l 185 186
l 186 187
l 187 188
l 188 189
l 189 190
l 190 191
l 191 192
v 19.826691287829753 -2.3503110191866082e-15 2.479456326638026 0.0 0.15 1.0
v 19.826691287712478 5.714285714285712 2.4794563274286383 0.14231254891252706 0.15 0.8576874510874729
v 19.826691287815176 11.428571428571425 2.4794563267363237 0.28959811421179166 0.15 0.7104018857882084
v 19.82669128784853 17.14285714285714 2.479456326511484 0.4263392724973618 0.15 0.5736607275026382
v 19.82669128784852 22.857142857142854 2.4794563265115563 0.5736606986660232 0.15 0.4263393013339768
v 19.82669128781515 28.57142857142857 2.479456326736505 0.7104018601122861 0.15 0.2895981398877139
v 19.826691287712443 34.285714285714285 2.4794563274289074 0.8576874332542965 0.15 0.14231256674570347
v 19.826691287829703 40.0 2.4794563266383918 1.0 0.15 0.0
l 193 194
l 194 195
l 195 196
l 196 197
l 197 198
l 198 199
l 199 200
