# KnittingStitches from conjugate-height scales + smooth
v 19.538670305018194 0.05558864370070214 -6.3235458757933065 0.55 0.55 0.55
v 18.494353177629076 5.105439804833696 -5.965250210214374 0.55 0.55 0.55
v 16.395320292671954 5.1203018056102225 -10.55050814067806 0.55 0.55 0.55
v 17.44226664813872 0.060826849465857286 -10.998852012585687 0.55 0.55 0.55
v 17.44226664813872 0.060826849465857286 -10.998852012585687 0.55 0.55 0.55
v 16.395320292671954 5.1203018056102225 -10.55050814067806 0.55 0.55 0.55
v 12.839116812996942 7.2645993396246284 -14.174436448278751 0.55 0.55 0.55
v 13.42474304533901 -0.0005694981394545629 -14.728654963040544 0.55 0.55 0.55
v 13.42474304533901 -0.0005694981394545629 -14.728654963040544 0.55 0.55 0.55
v 12.839116812996942 7.2645993396246284 -14.174436448278751 0.55 0.55 0.55
v 8.942205795962526 5.125367928602373 -17.25082360856394 0.55 0.55 0.55
v 9.562403913127792 0.05336630826421972 -18.17775701303878 0.55 0.55 0.55
v 9.562403913127792 0.05336630826421972 -18.17775701303878 0.55 0.55 0.55
v 8.942205795962526 5.125367928602373 -17.25082360856394 0.55 0.55 0.55
v 4.149518853944083 6.487036081078203 -18.860770248564055 0.55 0.55 0.55
v 4.306222904275078 -0.002677799904167119 -19.490469186429248 0.55 0.55 0.55
v 4.306222904275078 -0.002677799904167119 -19.490469186429248 0.55 0.55 0.55
v 4.149518853944083 6.487036081078203 -18.860770248564055 0.55 0.55 0.55
v -0.8226515342137072 5.110537498841177 -19.441317591894865 0.55 0.55 0.55
v -0.7579411799155804 0.05669876941669874 -20.556362546159605 0.55 0.55 0.55
v -0.7579411799155804 0.05669876941669874 -20.556362546159605 0.55 0.55 0.55
v -0.8226515342137072 5.110537498841177 -19.441317591894865 0.55 0.55 0.55
v -5.7149989272608375 7.376119199790862 -18.20578011236908 0.55 0.55 0.55
v -5.926965727731639 -0.0019018773785127612 -18.999789549259237 0.55 0.55 0.55
v -5.926965727731639 -0.0019018773785127612 -18.999789549259237 0.55 0.55 0.55
v -5.7149989272608375 7.376119199790862 -18.20578011236908 0.55 0.55 0.55
v -10.397008959724213 5.107329538184721 -16.4758419451541 0.55 0.55 0.55
v -10.920885688998707 0.0551630455106034 -17.45551346271808 0.55 0.55 0.55
v -10.920885688998707 0.0551630455106034 -17.45551346271808 0.55 0.55 0.55
v -10.397008959724213 5.107329538184721 -16.4758419451541 0.55 0.55 0.55
v -14.183581583305342 6.271573830359733 -13.128309158367761 0.55 0.55 0.55
v -14.608400432148446 -0.0027559080305125283 -13.570629917832484 0.55 0.55 0.55
v -14.608400432148446 -0.0027559080305125283 -13.570629917832484 0.55 0.55 0.55
v -14.183581583305342 6.271573830359733 -13.128309158367761 0.55 0.55 0.55
v -17.16352803725087 5.105972359403916 -9.10504669515621 0.55 0.55 0.55
v -18.1140205534032 0.05548442803281687 -9.668254898044893 0.55 0.55 0.55
v -18.1140205534032 0.05548442803281687 -9.668254898044893 0.55 0.55 0.55
v -17.16352803725087 5.105972359403916 -9.10504669515621 0.55 0.55 0.55
v -18.801035805761924 6.4820485666788725 -4.349283854143845 0.55 0.55 0.55
v -19.433422419009194 -0.0031334883490795823 -4.494885296558685 0.55 0.55 0.55
v -19.433422419009194 -0.0031334883490795823 -4.494885296558685 0.55 0.55 0.55
v -18.801035805761924 6.4820485666788725 -4.349283854143845 0.55 0.55 0.55
v -19.460869557875114 5.107829072132507 0.6283193812270048 0.55 0.55 0.55
v -20.569667428543372 0.05592566634047157 0.6303027547768277 0.55 0.55 0.55
v -20.569667428543372 0.05592566634047157 0.6303027547768277 0.55 0.55 0.55
v -19.460869557875114 5.107829072132507 0.6283193812270048 0.55 0.55 0.55
v -18.27762603913418 7.332312524592659 5.511168541021707 0.55 0.55 0.55
v -19.0556381734672 -0.0018410505978660242 5.743200266267576 0.55 0.55 0.55
v -19.0556381734672 -0.0018410505978660242 5.743200266267576 0.55 0.55 0.55
v -18.27762603913418 7.332312524592659 5.511168541021707 0.55 0.55 0.55
v -16.566630914638008 5.106751532255169 10.221589285545809 0.55 0.55 0.55
v -17.51615182258571 0.05561464614958017 10.786923078370357 0.55 0.55 0.55
v -17.51615182258571 0.05561464614958017 10.786923078370357 0.55 0.55 0.55
v -16.566630914638008 5.106751532255169 10.221589285545809 0.55 0.55 0.55
v -13.338700540932392 5.99816686750128 14.076589086967882 0.55 0.55 0.55
v -13.707517160621194 -0.0023002860327482034 14.496106242740815 0.55 0.55 0.55
v -13.707517160621194 -0.0023002860327482034 14.496106242740815 0.55 0.55 0.55
v -13.338700540932392 5.99816686750128 14.076589086967882 0.55 0.55 0.55
v -9.278366152126587 5.1061289322411865 17.07085332661698 0.55 0.55 0.55
v -9.795623414888794 0.05558443505289102 18.045992082922403 0.55 0.55 0.55
v -9.795623414888794 0.05558443505289102 18.045992082922403 0.55 0.55 0.55
v -9.278366152126587 5.1061289322411865 17.07085332661698 0.55 0.55 0.55
v -4.575904023408922 5.637808725238295 18.892598983173052 0.55 0.55 0.55
v -4.682250132293086 -0.0019811408113501283 19.377198348951982 0.55 0.55 0.55
v -4.682250132293086 -0.0019811408113501283 19.377198348951982 0.55 0.55 0.55
v -4.575904023408922 5.637808725238295 18.892598983173052 0.55 0.55 0.55
v 0.4364296110521131 5.105840245695974 19.48149845843474 0.55 0.55 0.55
v 0.5056661564860315 0.054963502065107 20.58686936014734 0.55 0.55 0.55
v 0.5056661564860315 0.054963502065107 20.58686936014734 0.55 0.55 0.55
v 0.4364296110521131 5.105840245695974 19.48149845843474 0.55 0.55 0.55
v 5.368163553282085 6.693243186282317 18.451924412137263 0.55 0.55 0.55
v 5.537217973220156 -0.0006467507160792769 19.115752850912138 0.55 0.55 0.55
v 5.537217973220156 -0.0006467507160792769 19.115752850912138 0.55 0.55 0.55
v 5.368163553282085 6.693243186282317 18.451924412137263 0.55 0.55 0.55
v 9.934956807413437 6.578110482756925 16.499605895075575 0.55 0.55 0.55
v 10.305492993419145 -0.0011000383881447225 17.058721758344472 0.55 0.55 0.55
v 10.305492993419145 -0.0011000383881447225 17.058721758344472 0.55 0.55 0.55
v 9.934956807413437 6.578110482756925 16.499605895075575 0.55 0.55 0.55
v 14.055045891346502 5.177633870442058 13.50685710397827 0.55 0.55 0.55
v 15.117892018852576 0.07377024172627351 14.073891607073758 0.55 0.55 0.55
v 15.117892018852576 0.07377024172627351 14.073891607073758 0.55 0.55 0.55
v 14.055045891346502 5.177633870442058 13.50685710397827 0.55 0.55 0.55
v 16.99670137992175 5.111138924763972 9.421356573494851 0.55 0.55 0.55
v 18.02614225947278 0.056441500602001884 9.8524664646522 0.55 0.55 0.55
v 18.02614225947278 0.056441500602001884 9.8524664646522 0.55 0.55 0.55
v 16.99670137992175 5.111138924763972 9.421356573494851 0.55 0.55 0.55
v 18.86636613575313 5.105385855716795 4.742199249422433 0.55 0.55 0.55
v 19.912866052550772 0.055031669273510726 5.099949596705143 0.55 0.55 0.55
v 19.912866052550772 0.055031669273510726 5.099949596705143 0.55 0.55 0.55
v 18.86636613575313 5.105385855716795 4.742199249422433 0.55 0.55 0.55
v 19.308902841618924 6.14509103066193 -0.9968593323316208 0.55 0.55 0.55
v 19.88640556473351 -0.000722140118977712 -1.1490790931986103 0.55 0.55 0.55
v 19.88640556473351 -0.000722140118977712 -1.1490790931986103 0.55 0.55 0.55
v 19.308902841618924 6.14509103066193 -0.9968593323316208 0.55 0.55 0.55
v 18.494353177629076 5.105439804833696 -5.965250210214374 0.55 0.55 0.55
v 19.538670305018194 0.05558864370070214 -6.3235458757933065 0.55 0.55 0.55
v 18.494353177629076 5.105439804833696 -5.965250210214374 0.55 0.55 0.55
v 17.13681461322684 10.069915233560119 -5.480043412812774 0.55 0.55 0.55
v 15.070127653572596 10.093791655669698 -9.911532792058777 0.55 0.55 0.55
v 16.395320292671954 5.1203018056102225 -10.55050814067806 0.55 0.55 0.55
v 16.395320292671954 5.1203018056102225 -10.55050814067806 0.55 0.55 0.55
v 15.070127653572596 10.093791655669698 -9.911532792058777 0.55 0.55 0.55
v 11.36335280391486 14.290929412393997 -12.766883170967636 0.55 0.55 0.55
v 12.839116812996942 7.2645993396246284 -14.174436448278751 0.55 0.55 0.55
v 12.839116812996942 7.2645993396246284 -14.174436448278751 0.55 0.55 0.55
v 11.36335280391486 14.290929412393997 -12.766883170967636 0.55 0.55 0.55
v 8.15673251275364 10.110615763972298 -16.024528160940278 0.55 0.55 0.55
v 8.942205795962526 5.125367928602373 -17.25082360856394 0.55 0.55 0.55
v 8.942205795962526 5.125367928602373 -17.25082360856394 0.55 0.55 0.55
v 8.15673251275364 10.110615763972298 -16.024528160940278 0.55 0.55 0.55
v 3.693774127909919 12.797442364358993 -17.257195425222058 0.55 0.55 0.55
v 4.149518853944083 6.487036081078203 -18.860770248564055 0.55 0.55 0.55
v 4.149518853944083 6.487036081078203 -18.860770248564055 0.55 0.55 0.55
v 3.693774127909919 12.797442364358993 -17.257195425222058 0.55 0.55 0.55
v -0.8747533436699537 10.07832120739247 -17.98831314206444 0.55 0.55 0.55
v -0.8226515342137072 5.110537498841177 -19.441317591894865 0.55 0.55 0.55
v -0.8226515342137072 5.110537498841177 -19.441317591894865 0.55 0.55 0.55
v -0.8747533436699537 10.07832120739247 -17.98831314206444 0.55 0.55 0.55
v -5.161460706952154 14.510563347383957 -16.201170526984892 0.55 0.55 0.55
v -5.7149989272608375 7.376119199790862 -18.20578011236908 0.55 0.55 0.55
v -5.7149989272608375 7.376119199790862 -18.20578011236908 0.55 0.55 0.55
v -5.161460706952154 14.510563347383957 -16.201170526984892 0.55 0.55 0.55
v -9.694779758486312 10.07414172583727 -15.210654652822663 0.55 0.55 0.55
v -10.397008959724213 5.107329538184721 -16.4758419451541 0.55 0.55 0.55
v -10.397008959724213 5.107329538184721 -16.4758419451541 0.55 0.55 0.55
v -9.694779758486312 10.07414172583727 -15.210654652822663 0.55 0.55 0.55
v -13.045591231425492 12.380668514215447 -12.04225140373527 0.55 0.55 0.55
v -14.183581583305342 6.271573830359733 -13.128309158367761 0.55 0.55 0.55
v -14.183581583305342 6.271573830359733 -13.128309158367761 0.55 0.55 0.55
v -13.045591231425492 12.380668514215447 -12.04225140373527 0.55 0.55 0.55
v -15.915377526457783 10.071530969574525 -8.385071567054986 0.55 0.55 0.55
v -17.16352803725087 5.105972359403916 -9.10504669515621 0.55 0.55 0.55
v -17.16352803725087 5.105972359403916 -9.10504669515621 0.55 0.55 0.55
v -15.915377526457783 10.071530969574525 -8.385071567054986 0.55 0.55 0.55
v -17.186533064479768 12.7879620691618 -3.937883737300307 0.55 0.55 0.55
v -18.801035805761924 6.4820485666788725 -4.349283854143845 0.55 0.55 0.55
v -18.801035805761924 6.4820485666788725 -4.349283854143845 0.55 0.55 0.55
v -17.186533064479768 12.7879620691618 -3.937883737300307 0.55 0.55 0.55
v -18.01517045631413 10.07420979213937 0.6096090130152779 0.55 0.55 0.55
v -19.460869557875114 5.107829072132507 0.6283193812270048 0.55 0.55 0.55
v -19.460869557875114 5.107829072132507 0.6283193812270048 0.55 0.55 0.55
v -18.01517045631413 10.07420979213937 0.6096090130152779 0.55 0.55 0.55
v -16.308363952681525 14.425971968396336 4.908899200195025 0.55 0.55 0.55
v -18.27762603913418 7.332312524592659 5.511168541021707 0.55 0.55 0.55
v -18.27762603913418 7.332312524592659 5.511168541021707 0.55 0.55 0.55
v -16.308363952681525 14.425971968396336 4.908899200195025 0.55 0.55 0.55
v -15.334963360238778 10.072434641866419 9.470326541576878 0.55 0.55 0.55
v -16.566630914638008 5.106751532255169 10.221589285545809 0.55 0.55 0.55
v -16.566630914638008 5.106751532255169 10.221589285545809 0.55 0.55 0.55
v -15.334963360238778 10.072434641866419 9.470326541576878 0.55 0.55 0.55
v -12.337478156980055 11.848564128845759 13.014250432791716 0.55 0.55 0.55
v -13.338700540932392 5.99816686750128 14.076589086967882 0.55 0.55 0.55
v -13.338700540932392 5.99816686750128 14.076589086967882 0.55 0.55 0.55
v -12.337478156980055 11.848564128845759 13.014250432791716 0.55 0.55 0.55
v -8.6110320086098 10.07169709140831 15.794503521326721 0.55 0.55 0.55
v -9.278366152126587 5.1061289322411865 17.07085332661698 0.55 0.55 0.55
v -9.278366152126587 5.1061289322411865 17.07085332661698 0.55 0.55 0.55
v -8.6110320086098 10.07169709140831 15.794503521326721 0.55 0.55 0.55
v -4.300699936328558 11.147466416390225 17.60935641718796 0.55 0.55 0.55
v -4.575904023408922 5.637808725238295 18.892598983173052 0.55 0.55 0.55
v -4.575904023408922 5.637808725238295 18.892598983173052 0.55 0.55 0.55
v -4.300699936328558 11.147466416390225 17.60935641718796 0.55 0.55 0.55
v 0.3474764134826858 10.071510205772675 18.04039899154832 0.55 0.55 0.55
v 0.4364296110521131 5.105840245695974 19.48149845843474 0.55 0.55 0.55
v 0.4364296110521131 5.105840245695974 19.48149845843474 0.55 0.55 0.55
v 0.3474764134826858 10.071510205772675 18.04039899154832 0.55 0.55 0.55
v 4.757100448835231 13.191993111071945 16.794168319721162 0.55 0.55 0.55
v 5.368163553282085 6.693243186282317 18.451924412137263 0.55 0.55 0.55
v 5.368163553282085 6.693243186282317 18.451924412137263 0.55 0.55 0.55
v 4.757100448835231 13.191993111071945 16.794168319721162 0.55 0.55 0.55
v 8.979472681162612 12.970681587976221 15.078280883854232 0.55 0.55 0.55
v 9.934956807413437 6.578110482756925 16.499605895075575 0.55 0.55 0.55
v 9.934956807413437 6.578110482756925 16.499605895075575 0.55 0.55 0.55
v 8.979472681162612 12.970681587976221 15.078280883854232 0.55 0.55 0.55
v 12.754540947861493 10.192558997593064 12.691355626414822 0.55 0.55 0.55
v 14.055045891346502 5.177633870442058 13.50685710397827 0.55 0.55 0.55
v 14.055045891346502 5.177633870442058 13.50685710397827 0.55 0.55 0.55
v 12.754540947861493 10.192558997593064 12.691355626414822 0.55 0.55 0.55
v 15.676827124598159 10.080598161215399 8.819174533105683 0.55 0.55 0.55
v 16.99670137992175 5.111138924763972 9.421356573494851 0.55 0.55 0.55
v 16.99670137992175 5.111138924763972 9.421356573494851 0.55 0.55 0.55
v 15.676827124598159 10.080598161215399 8.819174533105683 0.55 0.55 0.55
v 17.501847081082488 10.070477688602244 4.273829519784975 0.55 0.55 0.55
v 18.86636613575313 5.105385855716795 4.742199249422433 0.55 0.55 0.55
v 18.86636613575313 5.105385855716795 4.742199249422433 0.55 0.55 0.55
v 17.501847081082488 10.070477688602244 4.273829519784975 0.55 0.55 0.55
v 17.832199518045407 12.130407219667267 -0.5841029157895999 0.55 0.55 0.55
v 19.308902841618924 6.14509103066193 -0.9968593323316208 0.55 0.55 0.55
v 19.308902841618924 6.14509103066193 -0.9968593323316208 0.55 0.55 0.55
v 17.832199518045407 12.130407219667267 -0.5841029157895999 0.55 0.55 0.55
v 17.13681461322684 10.069915233560119 -5.480043412812774 0.55 0.55 0.55
v 18.494353177629076 5.105439804833696 -5.965250210214374 0.55 0.55 0.55
v 17.13681461322684 10.069915233560119 -5.480043412812774 0.55 0.55 0.55
v 15.582189662427695 14.970105934553471 -4.931429784238182 0.55 0.55 0.55
v 13.560114297444901 15.002750071543693 -9.18558893125556 0.55 0.55 0.55
v 15.070127653572596 10.093791655669698 -9.911532792058777 0.55 0.55 0.55
v 15.070127653572596 10.093791655669698 -9.911532792058777 0.55 0.55 0.55
v 13.560114297444901 15.002750071543693 -9.18558893125556 0.55 0.55 0.55
v 9.01227261793486 21.05777343907724 -11.381268293702757 0.55 0.55 0.55
v 11.36335280391486 14.290929412393997 -12.766883170967636 0.55 0.55 0.55
v 11.36335280391486 14.290929412393997 -12.766883170967636 0.55 0.55 0.55
v 9.01227261793486 21.05777343907724 -11.381268293702757 0.55 0.55 0.55
v 7.272225370963122 15.030617344417166 -14.613871513644884 0.55 0.55 0.55
v 8.15673251275364 10.110615763972298 -16.024528160940278 0.55 0.55 0.55
v 8.15673251275364 10.110615763972298 -16.024528160940278 0.55 0.55 0.55
v 7.272225370963122 15.030617344417166 -14.613871513644884 0.55 0.55 0.55
v 3.171548063922598 18.930541044234463 -15.074095379008854 0.55 0.55 0.55
v 3.693774127909919 12.797442364358993 -17.257195425222058 0.55 0.55 0.55
v 3.693774127909919 12.797442364358993 -17.257195425222058 0.55 0.55 0.55
v 3.171548063922598 18.930541044234463 -15.074095379008854 0.55 0.55 0.55
v -0.9121627513429077 14.981671177419564 -16.32905700229984 0.55 0.55 0.55
v -0.8747533436699537 10.07832120739247 -17.98831314206444 0.55 0.55 0.55
v -0.8747533436699537 10.07832120739247 -17.98831314206444 0.55 0.55 0.55
v -0.9121627513429077 14.981671177419564 -16.32905700229984 0.55 0.55 0.55
v -4.430534354728058 21.460604213213514 -13.66062826872389 0.55 0.55 0.55
v -5.161460706952154 14.510563347383957 -16.201170526984892 0.55 0.55 0.55
v -5.161460706952154 14.510563347383957 -16.201170526984892 0.55 0.55 0.55
v -4.430534354728058 21.460604213213514 -13.66062826872389 0.55 0.55 0.55
v -8.877208836017841 14.976716122259825 -13.774083668464499 0.55 0.55 0.55
v -9.694779758486312 10.07414172583727 -15.210654652822663 0.55 0.55 0.55
v -9.694779758486312 10.07414172583727 -15.210654652822663 0.55 0.55 0.55
v -8.877208836017841 14.976716122259825 -13.774083668464499 0.55 0.55 0.55
v -11.501944802696517 18.316626019153382 -10.550629581637846 0.55 0.55 0.55
v -13.045591231425492 12.380668514215447 -12.04225140373527 0.55 0.55 0.55
v -13.045591231425492 12.380668514215447 -12.04225140373527 0.55 0.55 0.55
v -11.501944802696517 18.316626019153382 -10.550629581637846 0.55 0.55 0.55
v -14.483136658340404 14.97316360391242 -7.572149800798215 0.55 0.55 0.55
v -15.915377526457783 10.071530969574525 -8.385071567054986 0.55 0.55 0.55
v -15.915377526457783 10.071530969574525 -8.385071567054986 0.55 0.55 0.55
v -14.483136658340404 14.97316360391242 -7.572149800798215 0.55 0.55 0.55
v -15.002381926787605 18.916766108437447 -3.4264241983129686 0.55 0.55 0.55
v -17.186533064479768 12.7879620691618 -3.937883737300307 0.55 0.55 0.55
v -17.186533064479768 12.7879620691618 -3.937883737300307 0.55 0.55 0.55
v -15.002381926787605 18.916766108437447 -3.4264241983129686 0.55 0.55 0.55
v -16.36315157848987 14.976229634676983 0.5812762327748312 0.55 0.55 0.55
v -18.01517045631413 10.07420979213937 0.6096090130152779 0.55 0.55 0.55
v -18.01517045631413 10.07420979213937 0.6096090130152779 0.55 0.55 0.55
v -16.36315157848987 14.976229634676983 0.5812762327748312 0.55 0.55 0.55
v -13.8017933192625 21.335627280572734 4.132656447865028 0.55 0.55 0.55
v -16.308363952681525 14.425971968396336 4.908899200195025 0.55 0.55 0.55
v -16.308363952681525 14.425971968396336 4.908899200195025 0.55 0.55 0.55
v -13.8017933192625 21.335627280572734 4.132656447865028 0.55 0.55 0.55
v -13.931821754441225 14.973744468305249 8.602911887716754 0.55 0.55 0.55
v -15.334963360238778 10.072434641866419 9.470326541576878 0.55 0.55 0.55
v -15.334963360238778 10.072434641866419 9.470326541576878 0.55 0.55 0.55
v -13.931821754441225 14.973744468305249 8.602911887716754 0.55 0.55 0.55
v -10.993201718469235 17.53879829630571 11.526602054528965 0.55 0.55 0.55
v -12.337478156980055 11.848564128845759 13.014250432791716 0.55 0.55 0.55
v -12.337478156980055 11.848564128845759 13.014250432791716 0.55 0.55 0.55
v -10.993201718469235 17.53879829630571 11.526602054528965 0.55 0.55 0.55
v -7.850301508402192 14.973290180793105 14.334370607883963 0.55 0.55 0.55
v -8.6110320086098 10.07169709140831 15.794503521326721 0.55 0.55 0.55
v -8.6110320086098 10.07169709140831 15.794503521326721 0.55 0.55 0.55
v -7.850301508402192 14.973290180793105 14.334370607883963 0.55 0.55 0.55
v -3.9211327916299688 16.508811063819145 15.814561548040771 0.55 0.55 0.55
v -4.300699936328558 11.147466416390225 17.60935641718796 0.55 0.55 0.55
v -4.300699936328558 11.147466416390225 17.60935641718796 0.55 0.55 0.55
v -3.9211327916299688 16.508811063819145 15.814561548040771 0.55 0.55 0.55
v 0.25229382417715474 14.972968007084985 16.393144267136122 0.55 0.55 0.55
v 0.3474764134826858 10.071510205772675 18.04039899154832 0.55 0.55 0.55
v 0.3474764134826858 10.071510205772675 18.04039899154832 0.55 0.55 0.55
v 0.25229382417715474 14.972968007084985 16.393144267136122 0.55 0.55 0.55
v 4.096486675875526 19.513769038171443 14.556366095330043 0.55 0.55 0.55
v 4.757100448835231 13.191993111071945 16.794168319721162 0.55 0.55 0.55
v 4.757100448835231 13.191993111071945 16.794168319721162 0.55 0.55 0.55
v 4.096486675875526 19.513769038171443 14.556366095330043 0.55 0.55 0.55
v 7.660386732757912 19.17942278311302 13.191342931000946 0.55 0.55 0.55
v 8.979472681162612 12.970681587976221 15.078280883854232 0.55 0.55 0.55
v 8.979472681162612 12.970681587976221 15.078280883854232 0.55 0.55 0.55
v 7.660386732757912 19.17942278311302 13.191342931000946 0.55 0.55 0.55
v 11.29351983171463 15.140691217261855 11.74660818567857 0.55 0.55 0.55
v 12.754540947861493 10.192558997593064 12.691355626414822 0.55 0.55 0.55
v 12.754540947861493 10.192558997593064 12.691355626414822 0.55 0.55 0.55
v 11.29351983171463 15.140691217261855 11.74660818567857 0.55 0.55 0.55
v 14.165653950792418 14.985459974683149 8.138105508349428 0.55 0.55 0.55
v 15.676827124598159 10.080598161215399 8.819174533105683 0.55 0.55 0.55
v 15.676827124598159 10.080598161215399 8.819174533105683 0.55 0.55 0.55
v 14.165653950792418 14.985459974683149 8.138105508349428 0.55 0.55 0.55
v 15.93808443384535 14.971302004441549 3.749084976901286 0.55 0.55 0.55
v 17.501847081082488 10.070477688602244 4.273829519784975 0.55 0.55 0.55
v 17.501847081082488 10.070477688602244 4.273829519784975 0.55 0.55 0.55
v 15.93808443384535 14.971302004441549 3.749084976901286 0.55 0.55 0.55
v 15.802889749419718 17.940789811543382 0.0002631937090807278 0.55 0.55 0.55
v 17.832199518045407 12.130407219667267 -0.5841029157895999 0.55 0.55 0.55
v 17.832199518045407 12.130407219667267 -0.5841029157895999 0.55 0.55 0.55
v 15.802889749419718 17.940789811543382 0.0002631937090807278 0.55 0.55 0.55
v 15.582189662427695 14.970105934553471 -4.931429784238182 0.55 0.55 0.55
v 17.13681461322684 10.069915233560119 -5.480043412812774 0.55 0.55 0.55
v 15.582189662427695 14.970105934553471 -4.931429784238182 0.55 0.55 0.55
v 13.960134742158326 19.851045956601297 -4.406254528695784 0.55 0.55 0.55
v 11.913227609477058 19.878051302294082 -8.536409462601934 0.55 0.55 0.55
v 13.560114297444901 15.002750071543693 -9.18558893125556 0.55 0.55 0.55
v 9.01227261793486 21.05777343907724 -11.381268293702757 1.0 0.0 0.0
v 13.560114297444901 15.002750071543693 -9.18558893125556 1.0 0.0 0.0
v 11.913227609477058 19.878051302294082 -8.536409462601934 1.0 0.0 0.0
v 6.400625814797799 19.930492289837016 -13.129039572784203 1.0 0.0 0.0
v 7.272225370963122 15.030617344417166 -14.613871513644884 1.0 0.0 0.0
v 7.272225370963122 15.030617344417166 -14.613871513644884 0.0 0.0 0.0
v 6.400625814797799 19.930492289837016 -13.129039572784203 0.0 0.0 0.0
v 3.171548063922598 18.930541044234463 -15.074095379008854 0.0 0.0 0.0
v 6.400625814797799 19.930492289837016 -13.129039572784203 0.0 0.0 0.0
v 5.827236039858709 24.803078971663655 -11.628567632088586 0.0 0.0 0.0
v 3.171548063922598 18.930541044234463 -15.074095379008854 0.0 0.0 0.0
v 11.913227609477058 19.878051302294082 -8.536409462601934 0.55 0.55 0.55
v 10.181874072633887 24.751386085841894 -8.143252951718619 0.55 0.55 0.55
v 5.827236039858709 24.803078971663655 -11.628567632088586 0.55 0.55 0.55
v 6.400625814797799 19.930492289837016 -13.129039572784203 0.55 0.55 0.55
v 13.960134742158326 19.851045956601297 -4.406254528695784 0.55 0.55 0.55
v 12.418373465170452 24.76525381698588 -3.9568652556431623 0.55 0.55 0.55
v 10.181874072633887 24.751386085841894 -8.143252951718619 0.55 0.55 0.55
v 11.913227609477058 19.878051302294082 -8.536409462601934 0.55 0.55 0.55
v 15.802889749419718 17.940789811543382 0.0002631937090807278 1.0 0.0 0.0
v 15.93808443384535 14.971302004441549 3.749084976901286 1.0 0.0 0.0
v 14.311422892735893 19.852725540909706 3.2336553941715613 1.0 0.0 0.0
v 13.960134742158326 19.851045956601297 -4.406254528695784 1.0 0.0 0.0
v 15.582189662427695 14.970105934553471 -4.931429784238182 1.0 0.0 0.0
v 14.165653950792418 14.985459974683149 8.138105508349428 0.55 0.55 0.55
v 12.546964867965666 19.866333675778684 7.5378964250882206 0.55 0.55 0.55
v 14.311422892735893 19.852725540909706 3.2336553941715613 0.55 0.55 0.55
v 15.93808443384535 14.971302004441549 3.749084976901286 0.55 0.55 0.55
v 11.29351983171463 15.140691217261855 11.74660818567857 0.55 0.55 0.55
v 9.641675726292409 20.042073969095036 10.882844243011451 0.55 0.55 0.55
v 12.546964867965666 19.866333675778684 7.5378964250882206 0.55 0.55 0.55
v 14.165653950792418 14.985459974683149 8.138105508349428 0.55 0.55 0.55
v 7.660386732757912 19.17942278311302 13.191342931000946 1.0 1.0 1.0
v 9.641675726292409 20.042073969095036 10.882844243011451 1.0 1.0 1.0
v 11.29351983171463 15.140691217261855 11.74660818567857 1.0 1.0 1.0
v 7.660386732757912 19.17942278311302 13.191342931000946 1.0 1.0 1.0
v 7.439010467310719 24.664287121333416 10.755840335447347 1.0 1.0 1.0
v 9.641675726292409 20.042073969095036 10.882844243011451 1.0 1.0 1.0
v 9.641675726292409 20.042073969095036 10.882844243011451 0.55 0.55 0.55
v 7.439010467310719 24.664287121333416 10.755840335447347 0.55 0.55 0.55
v 10.937051028168838 24.77093794855411 7.141846054311478 0.55 0.55 0.55
v 12.546964867965666 19.866333675778684 7.5378964250882206 0.55 0.55 0.55
v 12.546964867965666 19.866333675778684 7.5378964250882206 0.55 0.55 0.55
v 10.937051028168838 24.77093794855411 7.141846054311478 0.55 0.55 0.55
v 12.773178431025228 24.767470918685277 2.7679625840203563 0.55 0.55 0.55
v 14.311422892735893 19.852725540909706 3.2336553941715613 0.55 0.55 0.55
v 14.311422892735893 19.852725540909706 3.2336553941715613 0.55 0.55 0.55
v 12.773178431025228 24.767470918685277 2.7679625840203563 0.55 0.55 0.55
v 12.418373465170452 24.76525381698588 -3.9568652556431623 0.55 0.55 0.55
v 13.960134742158326 19.851045956601297 -4.406254528695784 0.55 0.55 0.55
v 12.418373465170452 24.76525381698588 -3.9568652556431623 0.55 0.55 0.55
v 11.139900153229506 29.75668815879813 -3.5425082755058432 0.55 0.55 0.55
v 8.787901926887137 29.728724239772475 -7.731601008363329 0.55 0.55 0.55
v 10.181874072633887 24.751386085841894 -8.143252951718619 0.55 0.55 0.55
v 10.181874072633887 24.751386085841894 -8.143252951718619 0.55 0.55 0.55
v 8.787901926887137 29.728724239772475 -7.731601008363329 0.55 0.55 0.55
v 4.390364158880654 29.7256913938593 -10.860842120433492 0.55 0.55 0.55
v 5.827236039858709 24.803078971663655 -11.628567632088586 0.55 0.55 0.55
v 5.827236039858709 24.803078971663655 -11.628567632088586 0.55 0.55 0.55
v 4.390364158880654 29.7256913938593 -10.860842120433492 0.55 0.55 0.55
v 3.0324020915899697 24.998749982863814 -12.688308195491434 0.55 0.55 0.55
v 3.171548063922598 18.930541044234463 -15.074095379008854 0.55 0.55 0.55
v 3.171548063922598 18.930541044234463 -15.074095379008854 0.55 0.55 0.55
v 3.0324020915899697 24.998749982863814 -12.688308195491434 0.55 0.55 0.55
v -0.9382751110634443 19.865015628933428 -14.611547646351724 0.55 0.55 0.55
v -0.9121627513429077 14.981671177419564 -16.32905700229984 0.55 0.55 0.55
v -4.430534354728058 21.460604213213514 -13.66062826872389 1.0 0.0 0.0
v -0.9121627513429077 14.981671177419564 -16.32905700229984 1.0 0.0 0.0
v -0.9382751110634443 19.865015628933428 -14.611547646351724 1.0 0.0 0.0
v -8.02029387592971 19.859260751659193 -12.29230745682711 1.0 0.0 0.0
v -8.877208836017841 14.976716122259825 -13.774083668464499 1.0 0.0 0.0
v -8.877208836017841 14.976716122259825 -13.774083668464499 0.0 0.0 0.0
v -8.02029387592971 19.859260751659193 -12.29230745682711 0.0 0.0 0.0
v -11.501944802696517 18.316626019153382 -10.550629581637846 0.0 0.0 0.0
v -8.02029387592971 19.859260751659193 -12.29230745682711 0.0 0.0 0.0
v -7.284784085557185 24.77519124640702 -10.859114798732133 0.0 0.0 0.0
v -11.501944802696517 18.316626019153382 -10.550629581637846 0.0 0.0 0.0
v -0.9382751110634443 19.865015628933428 -14.611547646351724 0.55 0.55 0.55
v -1.1498108704401058 24.767738823506583 -12.981209813458218 0.55 0.55 0.55
v -7.284784085557185 24.77519124640702 -10.859114798732133 0.55 0.55 0.55
v -8.02029387592971 19.859260751659193 -12.29230745682711 0.55 0.55 0.55
v 3.0324020915899697 24.998749982863814 -12.688308195491434 1.0 1.0 1.0
v -1.1498108704401058 24.767738823506583 -12.981209813458218 1.0 1.0 1.0
v -0.9382751110634443 19.865015628933428 -14.611547646351724 1.0 1.0 1.0
v 3.0324020915899697 24.998749982863814 -12.688308195491434 1.0 1.0 1.0
v -1.4359742418334553 29.74525837510985 -11.607458166333863 1.0 1.0 1.0
v -1.1498108704401058 24.767738823506583 -12.981209813458218 1.0 1.0 1.0
v -1.1498108704401058 24.767738823506583 -12.981209813458218 0.55 0.55 0.55
v -1.4359742418334553 29.74525837510985 -11.607458166333863 0.55 0.55 0.55
v -6.7905003449688355 29.752991112085514 -9.544036089436224 0.55 0.55 0.55
v -7.284784085557185 24.77519124640702 -10.859114798732133 0.55 0.55 0.55
v -7.284784085557185 24.77519124640702 -10.859114798732133 0.55 0.55 0.55
v -6.7905003449688355 29.752991112085514 -9.544036089436224 0.55 0.55 0.55
v -10.03026535220052 24.1825856923003 -8.784805376402353 0.55 0.55 0.55
v -11.501944802696517 18.316626019153382 -10.550629581637846 0.55 0.55 0.55
v -11.501944802696517 18.316626019153382 -10.550629581637846 0.55 0.55 0.55
v -10.03026535220052 24.1825856923003 -8.784805376402353 0.55 0.55 0.55
v -12.99579915490096 19.85463978604331 -6.736484609268861 0.55 0.55 0.55
v -14.483136658340404 14.97316360391242 -7.572149800798215 0.55 0.55 0.55
v -14.483136658340404 14.97316360391242 -7.572149800798215 0.0 0.0 0.0
v -12.99579915490096 19.85463978604331 -6.736484609268861 0.0 0.0 0.0
v -15.002381926787605 18.916766108437447 -3.4264241983129686 0.0 0.0 0.0
v -12.99579915490096 19.85463978604331 -6.736484609268861 0.0 0.0 0.0
v -11.601870416620685 24.76918039733722 -5.936677750691546 0.0 0.0 0.0
v -15.002381926787605 18.916766108437447 -3.4264241983129686 0.0 0.0 0.0
v -10.03026535220052 24.1825856923003 -8.784805376402353 1.0 1.0 1.0
v -11.601870416620685 24.76918039733722 -5.936677750691546 1.0 1.0 1.0
v -12.99579915490096 19.85463978604331 -6.736484609268861 1.0 1.0 1.0
v -10.03026535220052 24.1825856923003 -8.784805376402353 1.0 1.0 1.0
v -10.526155326089247 29.75531106980349 -5.103733187465814 1.0 1.0 1.0
v -11.601870416620685 24.76918039733722 -5.936677750691546 1.0 1.0 1.0
v -11.601870416620685 24.76918039733722 -5.936677750691546 0.55 0.55 0.55
v -10.526155326089247 29.75531106980349 -5.103733187465814 0.55 0.55 0.55
v -12.66710572012185 24.99785598433506 -3.103401530478624 0.55 0.55 0.55
v -15.002381926787605 18.916766108437447 -3.4264241983129686 0.55 0.55 0.55
v -15.002381926787605 18.916766108437447 -3.4264241983129686 0.55 0.55 0.55
v -12.66710572012185 24.99785598433506 -3.103401530478624 0.55 0.55 0.55
v -14.65233164481936 19.8580683848672 0.5470905377832196 0.55 0.55 0.55
v -16.36315157848987 14.976229634676983 0.5812762327748312 0.55 0.55 0.55
v -13.8017933192625 21.335627280572734 4.132656447865028 1.0 0.0 0.0
v -16.36315157848987 14.976229634676983 0.5812762327748312 1.0 0.0 0.0
v -14.65233164481936 19.8580683848672 0.5470905377832196 1.0 0.0 0.0
v -12.480861874662596 19.854645787724873 7.699635813880987 1.0 0.0 0.0
v -13.931821754441225 14.973744468305249 8.602911887716754 1.0 0.0 0.0
v -13.931821754441225 14.973744468305249 8.602911887716754 0.55 0.55 0.55
v -12.480861874662596 19.854645787724873 7.699635813880987 0.55 0.55 0.55
v -9.735971605474525 23.14667161881755 9.750756358584841 0.55 0.55 0.55
v -10.993201718469235 17.53879829630571 11.526602054528965 0.55 0.55 0.55
v -10.993201718469235 17.53879829630571 11.526602054528965 0.55 0.55 0.55
v -9.735971605474525 23.14667161881755 9.750756358584841 0.55 0.55 0.55
v -7.063551926888412 19.854627085922033 12.820969342786562 0.55 0.55 0.55
v -7.850301508402192 14.973290180793105 14.334370607883963 0.55 0.55 0.55
v -7.850301508402192 14.973290180793105 14.334370607883963 0.55 0.55 0.55
v -7.063551926888412 19.854627085922033 12.820969342786562 0.55 0.55 0.55
v -3.532149289412172 21.791390007082075 13.799046318709923 0.55 0.55 0.55
v -3.9211327916299688 16.508811063819145 15.814561548040771 0.55 0.55 0.55
v -3.9211327916299688 16.508811063819145 15.814561548040771 0.55 0.55 0.55
v -3.532149289412172 21.791390007082075 13.799046318709923 0.55 0.55 0.55
v 0.1612051126859411 19.85426569879788 14.68623769092235 0.55 0.55 0.55
v 0.25229382417715474 14.972968007084985 16.393144267136122 0.55 0.55 0.55
v 0.25229382417715474 14.972968007084985 16.393144267136122 0.0 0.0 0.0
v 0.1612051126859411 19.85426569879788 14.68623769092235 0.0 0.0 0.0
v 4.096486675875526 19.513769038171443 14.556366095330043 0.0 0.0 0.0
v 0.1612051126859411 19.85426569879788 14.68623769092235 0.0 0.0 0.0
v 0.05908242172880748 24.769255797071203 13.080243386560339 0.0 0.0 0.0
v 4.096486675875526 19.513769038171443 14.556366095330043 0.0 0.0 0.0
v -3.532149289412172 21.791390007082075 13.799046318709923 1.0 0.0 0.0
v -7.063551926888412 19.854627085922033 12.820969342786562 1.0 0.0 0.0
v -6.2241323057862825 24.766200566543674 11.449658721106251 1.0 0.0 0.0
v 0.05908242172880748 24.769255797071203 13.080243386560339 1.0 0.0 0.0
v 0.1612051126859411 19.85426569879788 14.68623769092235 1.0 0.0 0.0
v -9.735971605474525 23.14667161881755 9.750756358584841 1.0 0.0 0.0
v -12.480861874662596 19.854645787724873 7.699635813880987 1.0 0.0 0.0
v -11.048346376663703 24.76800322605495 6.973185022752868 1.0 0.0 0.0
v -6.2241323057862825 24.766200566543674 11.449658721106251 1.0 0.0 0.0
v -7.063551926888412 19.854627085922033 12.820969342786562 1.0 0.0 0.0
v -14.65233164481936 19.8580683848672 0.5470905377832196 0.55 0.55 0.55
v -13.038622494902652 24.772516554301873 0.5424022485126803 0.55 0.55 0.55
v -11.048346376663703 24.76800322605495 6.973185022752868 0.55 0.55 0.55
v -12.480861874662596 19.854645787724873 7.699635813880987 0.55 0.55 0.55
v -12.66710572012185 24.99785598433506 -3.103401530478624 1.0 1.0 1.0
v -13.038622494902652 24.772516554301873 0.5424022485126803 1.0 1.0 1.0
v -14.65233164481936 19.8580683848672 0.5470905377832196 1.0 1.0 1.0
v -12.66710572012185 24.99785598433506 -3.103401530478624 1.0 1.0 1.0
v -11.676641911734965 29.74955407044281 0.7204701447047788 1.0 1.0 1.0
v -13.038622494902652 24.772516554301873 0.5424022485126803 1.0 1.0 1.0
v -13.038622494902652 24.772516554301873 0.5424022485126803 0.55 0.55 0.55
v -11.676641911734965 29.74955407044281 0.7204701447047788 0.55 0.55 0.55
v -9.859278779862331 29.756682818997252 6.350575648710988 0.55 0.55 0.55
v -11.048346376663703 24.76800322605495 6.973185022752868 0.55 0.55 0.55
v -11.048346376663703 24.76800322605495 6.973185022752868 0.55 0.55 0.55
v -9.859278779862331 29.756682818997252 6.350575648710988 0.55 0.55 0.55
v -5.596164454179662 29.75622351179652 10.26270580834349 0.55 0.55 0.55
v -6.2241323057862825 24.766200566543674 11.449658721106251 0.55 0.55 0.55
v -6.2241323057862825 24.766200566543674 11.449658721106251 0.55 0.55 0.55
v -5.596164454179662 29.75622351179652 10.26270580834349 0.55 0.55 0.55
v -0.043591190451195055 29.76007401536487 11.735357813524434 0.55 0.55 0.55
v 0.05908242172880748 24.769255797071203 13.080243386560339 0.55 0.55 0.55
v 0.05908242172880748 24.769255797071203 13.080243386560339 0.55 0.55 0.55
v -0.043591190451195055 29.76007401536487 11.735357813524434 0.55 0.55 0.55
v 4.29593845926658 25.640940284588893 12.073797106951357 0.55 0.55 0.55
v 4.096486675875526 19.513769038171443 14.556366095330043 0.55 0.55 0.55
v 7.660386732757912 19.17942278311302 13.191342931000946 1.0 0.0 0.0
v 4.096486675875526 19.513769038171443 14.556366095330043 1.0 0.0 0.0
v 4.29593845926658 25.640940284588893 12.073797106951357 1.0 0.0 0.0
v 5.886587300874165 29.62958372447695 10.113385399007246 1.0 0.0 0.0
v 7.439010467310719 24.664287121333416 10.755840335447347 1.0 0.0 0.0
v 7.439010467310719 24.664287121333416 10.755840335447347 0.55 0.55 0.55
v 5.886587300874165 29.62958372447695 10.113385399007246 0.55 0.55 0.55
v 9.576461197221686 29.74875634133407 6.735336083601966 0.55 0.55 0.55
v 10.937051028168838 24.77093794855411 7.141846054311478 0.55 0.55 0.55
v 10.937051028168838 24.77093794855411 7.141846054311478 0.55 0.55 0.55
v 9.576461197221686 29.74875634133407 6.735336083601966 0.55 0.55 0.55
v 11.497559398224277 29.75948869903156 2.340769647146043 0.55 0.55 0.55
v 12.773178431025228 24.767470918685277 2.7679625840203563 0.55 0.55 0.55
v 12.773178431025228 24.767470918685277 2.7679625840203563 0.55 0.55 0.55
v 11.497559398224277 29.75948869903156 2.340769647146043 0.55 0.55 0.55
v 11.139900153229506 29.75668815879813 -3.5425082755058432 0.55 0.55 0.55
v 12.418373465170452 24.76525381698588 -3.9568652556431623 0.55 0.55 0.55
v 11.139900153229506 29.75668815879813 -3.5425082755058432 0.55 0.55 0.55
v 10.29339038063273 34.84343131330679 -3.198061467590094 0.55 0.55 0.55
v 7.930591547531135 34.82614377773133 -7.332748781975367 0.55 0.55 0.55
v 8.787901926887137 29.728724239772475 -7.731601008363329 0.55 0.55 0.55
v 8.787901926887137 29.728724239772475 -7.731601008363329 0.55 0.55 0.55
v 7.930591547531135 34.82614377773133 -7.332748781975367 0.55 0.55 0.55
v 3.749718229687132 34.82030718880027 -10.100237788751558 0.55 0.55 0.55
v 4.390364158880654 29.7256913938593 -10.860842120433492 0.55 0.55 0.55
v 3.0324020915899697 24.998749982863814 -12.688308195491434 1.0 0.0 0.0
v 4.390364158880654 29.7256913938593 -10.860842120433492 1.0 0.0 0.0
v 3.749718229687132 34.82030718880027 -10.100237788751558 1.0 0.0 0.0
v -1.503434877728291 34.836182587521066 -10.682959476463765 1.0 0.0 0.0
v -1.4359742418334553 29.74525837510985 -11.607458166333863 1.0 0.0 0.0
v -1.4359742418334553 29.74525837510985 -11.607458166333863 0.55 0.55 0.55
v -1.503434877728291 34.836182587521066 -10.682959476463765 0.55 0.55 0.55
v -6.368677322359445 34.840089730429995 -8.713208812876179 0.55 0.55 0.55
v -6.7905003449688355 29.752991112085514 -9.544036089436224 0.55 0.55 0.55
v -10.03026535220052 24.1825856923003 -8.784805376402353 1.0 0.0 0.0
v -6.7905003449688355 29.752991112085514 -9.544036089436224 1.0 0.0 0.0
v -6.368677322359445 34.840089730429995 -8.713208812876179 1.0 0.0 0.0
v -9.749414276561922 34.842807734124605 -4.6241007449034095 1.0 0.0 0.0
v -10.526155326089247 29.75531106980349 -5.103733187465814 1.0 0.0 0.0
v -12.66710572012185 24.99785598433506 -3.103401530478624 1.0 0.0 0.0
v -10.526155326089247 29.75531106980349 -5.103733187465814 1.0 0.0 0.0
v -9.749414276561922 34.842807734124605 -4.6241007449034095 1.0 0.0 0.0
v -10.766212747454487 34.83942466173452 0.6548371301293787 1.0 0.0 0.0
v -11.676641911734965 29.74955407044281 0.7204701447047788 1.0 0.0 0.0
v -11.676641911734965 29.74955407044281 0.7204701447047788 0.55 0.55 0.55
v -10.766212747454487 34.83942466173452 0.6548371301293787 0.55 0.55 0.55
v -9.136092301480799 34.842584682756225 5.771826992126 0.55 0.55 0.55
v -9.859278779862331 29.756682818997252 6.350575648710988 0.55 0.55 0.55
v -9.859278779862331 29.756682818997252 6.350575648710988 0.55 0.55 0.55
v -9.136092301480799 34.842584682756225 5.771826992126 0.55 0.55 0.55
v -5.277737054939303 34.842492192686734 9.4002081392799 0.55 0.55 0.55
v -5.596164454179662 29.75622351179652 10.26270580834349 0.55 0.55 0.55
v -5.596164454179662 29.75622351179652 10.26270580834349 0.55 0.55 0.55
v -5.277737054939303 34.842492192686734 9.4002081392799 0.55 0.55 0.55
v -0.2235049505527487 34.842356128607015 10.805422935784161 0.55 0.55 0.55
v -0.043591190451195055 29.76007401536487 11.735357813524434 0.55 0.55 0.55
v 4.29593845926658 25.640940284588893 12.073797106951357 1.0 0.0 0.0
v -0.043591190451195055 29.76007401536487 11.735357813524434 1.0 0.0 0.0
v -0.2235049505527487 34.842356128607015 10.805422935784161 1.0 0.0 0.0
v 5.0669562276948446 34.77039746448685 9.506019642266782 1.0 0.0 0.0
v 5.886587300874165 29.62958372447695 10.113385399007246 1.0 0.0 0.0
v 5.886587300874165 29.62958372447695 10.113385399007246 0.55 0.55 0.55
v 5.0669562276948446 34.77039746448685 9.506019642266782 0.55 0.55 0.55
v 8.710573759846408 34.83708615721767 6.362075895013748 0.55 0.55 0.55
v 9.576461197221686 29.74875634133407 6.735336083601966 0.55 0.55 0.55
v 9.576461197221686 29.74875634133407 6.735336083601966 0.55 0.55 0.55
v 8.710573759846408 34.83708615721767 6.362075895013748 0.55 0.55 0.55
v 10.628015070434504 34.84316513553882 1.992525630783434 0.55 0.55 0.55
v 11.497559398224277 29.75948869903156 2.340769647146043 0.55 0.55 0.55
v 11.497559398224277 29.75948869903156 2.340769647146043 0.55 0.55 0.55
v 10.628015070434504 34.84316513553882 1.992525630783434 0.55 0.55 0.55
v 10.29339038063273 34.84343131330679 -3.198061467590094 0.55 0.55 0.55
v 11.139900153229506 29.75668815879813 -3.5425082755058432 0.55 0.55 0.55
v 10.29339038063273 34.84343131330679 -3.198061467590094 0.55 0.55 0.55
v 9.997807346464201 40.00022022629401 -3.056857372701382 0.55 0.55 0.55
v 7.643323875098156 39.99937035258104 -7.1587606447489005 0.55 0.55 0.55
v 7.930591547531135 34.82614377773133 -7.332748781975367 0.55 0.55 0.55
v 7.930591547531135 34.82614377773133 -7.332748781975367 0.55 0.55 0.55
v 7.643323875098156 39.99937035258104 -7.1587606447489005 0.55 0.55 0.55
v 3.557149656614936 39.99994648940405 -9.81707473862793 0.55 0.55 0.55
v 3.749718229687132 34.82030718880027 -10.100237788751558 0.55 0.55 0.55
v 3.749718229687132 34.82030718880027 -10.100237788751558 0.55 0.55 0.55
v 3.557149656614936 39.99994648940405 -9.81707473862793 0.55 0.55 0.55
v -1.5271337797733462 39.99912494691792 -10.347979472864996 0.55 0.55 0.55
v -1.503434877728291 34.836182587521066 -10.682959476463765 0.55 0.55 0.55
v -1.503434877728291 34.836182587521066 -10.682959476463765 0.55 0.55 0.55
v -1.5271337797733462 39.99912494691792 -10.347979472864996 0.55 0.55 0.55
v -6.210660822972848 40.00005739104549 -8.415985455553527 0.55 0.55 0.55
v -6.368677322359445 34.840089730429995 -8.713208812876179 0.55 0.55 0.55
v -6.368677322359445 34.840089730429995 -8.713208812876179 0.55 0.55 0.55
v -6.210660822972848 40.00005739104549 -8.415985455553527 0.55 0.55 0.55
v -9.464353327519893 40.0003214117527 -4.457521829307852 0.55 0.55 0.55
v -9.749414276561922 34.842807734124605 -4.6241007449034095 0.55 0.55 0.55
v -9.749414276561922 34.842807734124605 -4.6241007449034095 0.55 0.55 0.55
v -9.464353327519893 40.0003214117527 -4.457521829307852 0.55 0.55 0.55
v -10.436814774223787 39.99918792050418 0.628093701709955 0.55 0.55 0.55
v -10.766212747454487 34.83942466173452 0.6548371301293787 0.55 0.55 0.55
v -10.766212747454487 34.83942466173452 0.6548371301293787 0.55 0.55 0.55
v -10.436814774223787 39.99918792050418 0.628093701709955 0.55 0.55 0.55
v -8.872568747677352 40.00045221146877 5.564881429983471 0.55 0.55 0.55
v -9.136092301480799 34.842584682756225 5.771826992126 0.55 0.55 0.55
v -9.136092301480799 34.842584682756225 5.771826992126 0.55 0.55 0.55
v -8.872568747677352 40.00045221146877 5.564881429983471 0.55 0.55 0.55
v -5.164967383126555 39.99960743706419 9.08634378761776 0.55 0.55 0.55
v -5.277737054939303 34.842492192686734 9.4002081392799 0.55 0.55 0.55
v -5.277737054939303 34.842492192686734 9.4002081392799 0.55 0.55 0.55
v -5.164967383126555 39.99960743706419 9.08634378761776 0.55 0.55 0.55
v -0.28906594930419116 39.99975567511903 10.46797791242854 0.55 0.55 0.55
v -0.2235049505527487 34.842356128607015 10.805422935784161 0.55 0.55 0.55
v -0.2235049505527487 34.842356128607015 10.805422935784161 0.55 0.55 0.55
v -0.28906594930419116 39.99975567511903 10.46797791242854 0.55 0.55 0.55
v 4.805061997762353 39.999873069954674 9.2618644410324 0.55 0.55 0.55
v 5.0669562276948446 34.77039746448685 9.506019642266782 0.55 0.55 0.55
v 5.0669562276948446 34.77039746448685 9.506019642266782 0.55 0.55 0.55
v 4.805061997762353 39.999873069954674 9.2618644410324 0.55 0.55 0.55
v 8.41453643038615 40.000723732798264 6.204483352938409 0.55 0.55 0.55
v 8.710573759846408 34.83708615721767 6.362075895013748 0.55 0.55 0.55
v 8.710573759846408 34.83708615721767 6.362075895013748 0.55 0.55 0.55
v 8.41453643038615 40.000723732798264 6.204483352938409 0.55 0.55 0.55
v 10.317098285340643 39.99981403489554 1.8558259755618052 0.55 0.55 0.55
v 10.628015070434504 34.84316513553882 1.992525630783434 0.55 0.55 0.55
v 10.628015070434504 34.84316513553882 1.992525630783434 0.55 0.55 0.55
v 10.317098285340643 39.99981403489554 1.8558259755618052 0.55 0.55 0.55
v 9.997807346464201 40.00022022629401 -3.056857372701382 0.55 0.55 0.55
v 10.29339038063273 34.84343131330679 -3.198061467590094 0.55 0.55 0.55
v 9.997807346464201 40.00022022629401 -3.056857372701382 0.55 0.55 0.55
v 10.295427955855814 45.15706184559173 -3.191602640739181 0.55 0.55 0.55
v 7.933973851437673 45.17256287616709 -7.328167177910794 0.55 0.55 0.55
v 7.643323875098156 39.99937035258104 -7.1587606447489005 0.55 0.55 0.55
v 7.643323875098156 39.99937035258104 -7.1587606447489005 0.55 0.55 0.55
v 7.933973851437673 45.17256287616709 -7.328167177910794 0.55 0.55 0.55
v 3.754656169902063 45.179492529676196 -10.098639675832327 0.55 0.55 0.55
v 3.557149656614936 39.99994648940405 -9.81707473862793 0.55 0.55 0.55
v 3.557149656614936 39.99994648940405 -9.81707473862793 0.55 0.55 0.55
v 3.754656169902063 45.179492529676196 -10.098639675832327 0.55 0.55 0.55
v -1.4975685959057716 45.16201398522491 -10.683287294544254 0.55 0.55 0.55
v -1.5271337797733462 39.99912494691792 -10.347979472864996 0.55 0.55 0.55
v -1.5271337797733462 39.99912494691792 -10.347979472864996 0.55 0.55 0.55
v -1.4975685959057716 45.16201398522491 -10.683287294544254 0.55 0.55 0.55
v -6.363285311313988 45.15995046364502 -8.717323507614594 0.55 0.55 0.55
v -6.210660822972848 40.00005739104549 -8.415985455553527 0.55 0.55 0.55
v -6.210660822972848 40.00005739104549 -8.415985455553527 0.55 0.55 0.55
v -6.363285311313988 45.15995046364502 -8.717323507614594 0.55 0.55 0.55
v -9.746108552711878 45.1578009569472 -4.630480078527635 0.55 0.55 0.55
v -9.464353327519893 40.0003214117527 -4.457521829307852 0.55 0.55 0.55
v -9.464353327519893 40.0003214117527 -4.457521829307852 0.55 0.55 0.55
v -9.746108552711878 45.1578009569472 -4.630480078527635 0.55 0.55 0.55
v -10.76672312304742 45.158953509773134 0.6473603022111308 0.55 0.55 0.55
v -10.436814774223787 39.99918792050418 0.628093701709955 0.55 0.55 0.55
v -10.436814774223787 39.99918792050418 0.628093701709955 0.55 0.55 0.55
v -10.76672312304742 45.158953509773134 0.6473603022111308 0.55 0.55 0.55
v -9.139556865771349 45.158381844644815 5.7656364626721555 0.55 0.55 0.55
v -8.872568747677352 40.00045221146877 5.564881429983471 0.55 0.55 0.55
v -8.872568747677352 40.00045221146877 5.564881429983471 0.55 0.55 0.55
v -9.139556865771349 45.158381844644815 5.7656364626721555 0.55 0.55 0.55
v -5.2835246879793125 45.156789681806345 9.397001759090601 0.55 0.55 0.55
v -5.164967383126555 39.99960743706419 9.08634378761776 0.55 0.55 0.55
v -5.164967383126555 39.99960743706419 9.08634378761776 0.55 0.55 0.55
v -5.2835246879793125 45.156789681806345 9.397001759090601 0.55 0.55 0.55
v -0.22931069529117565 45.15724958782178 10.805020800170816 0.55 0.55 0.55
v -0.28906594930419116 39.99975567511903 10.46797791242854 0.55 0.55 0.55
v -0.28906594930419116 39.99975567511903 10.46797791242854 0.55 0.55 0.55
v -0.22931069529117565 45.15724958782178 10.805020800170816 0.55 0.55 0.55
v 5.062382329251636 45.22944631875873 9.508733986966073 0.55 0.55 0.55
v 4.805061997762353 39.999873069954674 9.2618644410324 0.55 0.55 0.55
v 4.805061997762353 39.999873069954674 9.2618644410324 0.55 0.55 0.55
v 5.062382329251636 45.22944631875873 9.508733986966073 0.55 0.55 0.55
v 8.707047339014151 45.16440808113445 6.366956002300608 0.55 0.55 0.55
v 8.41453643038615 40.000723732798264 6.204483352938409 0.55 0.55 0.55
v 8.41453643038615 40.000723732798264 6.204483352938409 0.55 0.55 0.55
v 8.707047339014151 45.16440808113445 6.366956002300608 0.55 0.55 0.55
v 10.627034249832809 45.15634111778909 1.9994492238883883 0.55 0.55 0.55
v 10.317098285340643 39.99981403489554 1.8558259755618052 0.55 0.55 0.55
v 10.317098285340643 39.99981403489554 1.8558259755618052 0.55 0.55 0.55
v 10.627034249832809 45.15634111778909 1.9994492238883883 0.55 0.55 0.55
v 10.295427955855814 45.15706184559173 -3.191602640739181 0.55 0.55 0.55
v 9.997807346464201 40.00022022629401 -3.056857372701382 0.55 0.55 0.55
v 10.295427955855814 45.15706184559173 -3.191602640739181 0.55 0.55 0.55
v 11.142975577307086 50.24384753922148 -3.532877674567765 0.55 0.55 0.55
v 8.792735532600636 50.269916638857914 -7.724922456875888 0.55 0.55 0.55
v 7.933973851437673 45.17256287616709 -7.328167177910794 0.55 0.55 0.55
v 7.933973851437673 45.17256287616709 -7.328167177910794 0.55 0.55 0.55
v 8.792735532600636 50.269916638857914 -7.724922456875888 0.55 0.55 0.55
v 4.395911487005363 50.27414026465236 -10.858988683016118 0.55 0.55 0.55
v 3.754656169902063 45.179492529676196 -10.098639675832327 0.55 0.55 0.55
v 3.754656169902063 45.179492529676196 -10.098639675832327 0.55 0.55 0.55
v 4.395911487005363 50.27414026465236 -10.858988683016118 0.55 0.55 0.55
v -1.4265758439655651 50.25286674664644 -11.607855424088791 0.55 0.55 0.55
v -1.4975685959057716 45.16201398522491 -10.683287294544254 0.55 0.55 0.55
v -1.4975685959057716 45.16201398522491 -10.683287294544254 0.55 0.55 0.55
v -1.4265758439655651 50.25286674664644 -11.607855424088791 0.55 0.55 0.55
v -6.781289939648991 50.24690815015435 -9.551019422095154 0.55 0.55 0.55
v -6.363285311313988 45.15995046364502 -8.717323507614594 0.55 0.55 0.55
v -6.363285311313988 45.15995046364502 -8.717323507614594 0.55 0.55 0.55
v -6.781289939648991 50.24690815015435 -9.551019422095154 0.55 0.55 0.55
v -10.520496661585298 50.24519489098623 -5.114768640268664 0.55 0.55 0.55
v -9.746108552711878 45.1578009569472 -4.630480078527635 0.55 0.55 0.55
v -9.746108552711878 45.1578009569472 -4.630480078527635 0.55 0.55 0.55
v -10.520496661585298 50.24519489098623 -5.114768640268664 0.55 0.55 0.55
v -11.677462354929766 50.24885534493018 0.7072169378604705 0.55 0.55 0.55
v -10.76672312304742 45.158953509773134 0.6473603022111308 0.55 0.55 0.55
v -10.76672312304742 45.158953509773134 0.6473603022111308 0.0 1.0 0.0
v -11.677462354929766 50.24885534493018 0.7072169378604705 0.0 1.0 0.0
v -12.24622546948796 54.055593753793644 3.367833981375024 0.0 1.0 0.0
v -9.865335270938342 50.2444080051311 6.339947326837147 0.0 1.0 0.0
v -9.139556865771349 45.158381844644815 5.7656364626721555 0.0 1.0 0.0
v -9.139556865771349 45.158381844644815 5.7656364626721555 0.55 0.55 0.55
v -9.865335270938342 50.2444080051311 6.339947326837147 0.55 0.55 0.55
v -5.605893428149573 50.24319466749558 10.257292818343542 0.55 0.55 0.55
v -5.2835246879793125 45.156789681806345 9.397001759090601 0.55 0.55 0.55
v -5.2835246879793125 45.156789681806345 9.397001759090601 0.0 1.0 0.0
v -5.605893428149573 50.24319466749558 10.257292818343542 0.0 1.0 0.0
v -3.5222491677358665 55.87134724086099 12.878765334980995 0.0 1.0 0.0
v -0.052529972164932826 50.23966432674481 11.734783850235992 0.0 1.0 0.0
v -0.22931069529117565 45.15724958782178 10.805020800170816 0.0 1.0 0.0
v -0.22931069529117565 45.15724958782178 10.805020800170816 0.0 1.0 0.0
v -0.052529972164932826 50.23966432674481 11.734783850235992 0.0 1.0 0.0
v 8.375873812587312 58.751387886224244 11.810104789672323 0.0 1.0 0.0
v 5.880775109025389 50.370362966244144 10.117036276307187 0.0 1.0 0.0
v 5.062382329251636 45.22944631875873 9.508733986966073 0.0 1.0 0.0
v 5.062382329251636 45.22944631875873 9.508733986966073 0.55 0.55 0.55
v 5.880775109025389 50.370362966244144 10.117036276307187 0.55 0.55 0.55
v 9.571334590904822 50.2528135761586 6.742690380284721 0.55 0.55 0.55
v 8.707047339014151 45.16440808113445 6.366956002300608 0.55 0.55 0.55
v 8.707047339014151 45.16440808113445 6.366956002300608 0.55 0.55 0.55
v 9.571334590904822 50.2528135761586 6.742690380284721 0.55 0.55 0.55
v 11.494515633932211 50.24019969004436 2.3507182345593365 0.55 0.55 0.55
v 10.627034249832809 45.15634111778909 1.9994492238883883 0.55 0.55 0.55
v 10.627034249832809 45.15634111778909 1.9994492238883883 0.0 1.0 0.0
v 11.494515633932211 50.24019969004436 2.3507182345593365 0.0 1.0 0.0
v 15.811692247387583 62.08168932510319 0.0002663864729681646 0.0 1.0 0.0
v 11.142975577307086 50.24384753922148 -3.532877674567765 0.0 1.0 0.0
v 10.295427955855814 45.15706184559173 -3.191602640739181 0.0 1.0 0.0
v 11.142975577307086 50.24384753922148 -3.532877674567765 0.55 0.55 0.55
v 12.421344213621948 55.23527300252242 -3.9477099750946567 0.55 0.55 0.55
v 10.18653048459982 55.247308311423126 -8.136701460874802 0.55 0.55 0.55
v 8.792735532600636 50.269916638857914 -7.724922456875888 0.55 0.55 0.55
v 8.792735532600636 50.269916638857914 -7.724922456875888 0.0 1.0 0.0
v 10.18653048459982 55.247308311423126 -8.136701460874802 0.0 1.0 0.0
v 9.044760647719036 58.98502184054175 -11.376147747125177 0.0 1.0 0.0
v 5.830672985291782 55.19696792121759 -11.627018289638066 0.0 1.0 0.0
v 4.395911487005363 50.27414026465236 -10.858988683016118 0.0 1.0 0.0
v 4.395911487005363 50.27414026465236 -10.858988683016118 0.0 1.0 0.0
v 5.830672985291782 55.19696792121759 -11.627018289638066 0.0 1.0 0.0
v 3.049090625620096 55.00122711239273 -12.683238420687111 0.0 1.0 0.0
v -1.1459625765422685 55.231162749094594 -12.981209899763849 0.0 1.0 0.0
v -1.4265758439655651 50.25286674664644 -11.607855424088791 0.0 1.0 0.0
v -1.4265758439655651 50.25286674664644 -11.607855424088791 0.0 1.0 0.0
v -1.1459625765422685 55.231162749094594 -12.981209899763849 0.0 1.0 0.0
v -4.053411160816054 56.05818003738254 -12.791246236968234 0.0 1.0 0.0
v -7.274595497100711 55.22510026949939 -10.864909712347623 0.0 1.0 0.0
v -6.781289939648991 50.24690815015435 -9.551019422095154 0.0 1.0 0.0
v -6.781289939648991 50.24690815015435 -9.551019422095154 0.0 1.0 0.0
v -7.274595497100711 55.22510026949939 -10.864909712347623 0.0 1.0 0.0
v -10.8604523018025 55.02877042044737 -7.312603486832889 0.0 1.0 0.0
v -11.59599735696363 55.230740044422305 -5.947675621237194 0.0 1.0 0.0
v -10.520496661585298 50.24519489098623 -5.114768640268664 0.0 1.0 0.0
v -10.520496661585298 50.24519489098623 -5.114768640268664 0.0 1.0 0.0
v -11.59599735696363 55.230740044422305 -5.947675621237194 0.0 1.0 0.0
v -13.525524180274143 57.17025038744363 -3.062614703150781 0.0 1.0 0.0
v -13.039631156410966 55.22623769783701 0.5277788908117547 0.0 1.0 0.0
v -11.677462354929766 50.24885534493018 0.7072169378604705 0.0 1.0 0.0
v -11.677462354929766 50.24885534493018 0.7072169378604705 0.55 0.55 0.55
v -13.039631156410966 55.22623769783701 0.5277788908117547 0.55 0.55 0.55
v -14.442233122730032 60.37444895567616 4.322959599883404 0.55 0.55 0.55
v -12.24622546948796 54.055593753793644 3.367833981375024 0.55 0.55 0.55
v -12.24622546948796 54.055593753793644 3.367833981375024 0.55 0.55 0.55
v -14.442233122730032 60.37444895567616 4.322959599883404 0.55 0.55 0.55
v -11.05539660227426 55.232842827752805 6.960660968184829 0.55 0.55 0.55
v -9.865335270938342 50.2444080051311 6.339947326837147 0.55 0.55 0.55
v -9.865335270938342 50.2444080051311 6.339947326837147 0.0 1.0 0.0
v -11.05539660227426 55.232842827752805 6.960660968184829 0.0 1.0 0.0
v -9.742043100000112 56.874809574457885 9.756143734634144 0.0 1.0 0.0
v -6.23385864061423 55.233314377139976 11.444236318908432 0.0 1.0 0.0
v -5.605893428149573 50.24319466749558 10.257292818343542 0.0 1.0 0.0
v -5.605893428149573 50.24319466749558 10.257292818343542 0.55 0.55 0.55
v -6.23385864061423 55.233314377139976 11.444236318908432 0.55 0.55 0.55
v -3.778271017626185 61.72632097143045 15.15689997199752 0.55 0.55 0.55
v -3.5222491677358665 55.87134724086099 12.878765334980995 0.55 0.55 0.55
v -3.5222491677358665 55.87134724086099 12.878765334980995 0.55 0.55 0.55
v -3.778271017626185 61.72632097143045 15.15689997199752 0.55 0.55 0.55
v 0.04900623206475194 55.23033609100585 13.08094071158814 0.55 0.55 0.55
v -0.052529972164932826 50.23966432674481 11.734783850235992 0.55 0.55 0.55
v -0.052529972164932826 50.23966432674481 11.734783850235992 0.0 1.0 0.0
v 0.04900623206475194 55.23033609100585 13.08094071158814 0.0 1.0 0.0
v 3.9095710311721286 58.54353362296395 13.820339348894183 0.0 1.0 0.0
v 8.669073727173398 65.50296910295557 14.650121064514044 0.0 1.0 0.0
v 8.375873812587312 58.751387886224244 11.810104789672323 0.0 1.0 0.0
v 8.375873812587312 58.751387886224244 11.810104789672323 0.55 0.55 0.55
v 8.669073727173398 65.50296910295557 14.650121064514044 0.55 0.55 0.55
v 7.436118772575785 55.33506481297348 10.758009076200826 0.55 0.55 0.55
v 5.880775109025389 50.370362966244144 10.117036276307187 0.55 0.55 0.55
v 5.880775109025389 50.370362966244144 10.117036276307187 0.55 0.55 0.55
v 7.436118772575785 55.33506481297348 10.758009076200826 0.55 0.55 0.55
v 10.933083286531424 55.23024706609389 7.149715068864715 0.55 0.55 0.55
v 9.571334590904822 50.2528135761586 6.742690380284721 0.55 0.55 0.55
v 9.571334590904822 50.2528135761586 6.742690380284721 0.55 0.55 0.55
v 10.933083286531424 55.23024706609389 7.149715068864715 0.55 0.55 0.55
v 12.77031846822468 55.23221959527343 2.77728693613162 0.55 0.55 0.55
v 11.494515633932211 50.24019969004436 2.3507182345593365 0.55 0.55 0.55
v 11.494515633932211 50.24019969004436 2.3507182345593365 0.55 0.55 0.55
v 12.77031846822468 55.23221959527343 2.77728693613162 0.55 0.55 0.55
v 17.835846035099653 67.88478986087921 -0.5944729775745556 0.55 0.55 0.55
v 15.811692247387583 62.08168932510319 0.0002663864729681646 0.55 0.55 0.55
v 15.811692247387583 62.08168932510319 0.0002663864729681646 0.55 0.55 0.55
v 17.835846035099653 67.88478986087921 -0.5944729775745556 0.55 0.55 0.55
v 12.421344213621948 55.23527300252242 -3.9477099750946567 0.55 0.55 0.55
v 11.142975577307086 50.24384753922148 -3.532877674567765 0.55 0.55 0.55
v 12.421344213621948 55.23527300252242 -3.9477099750946567 0.55 0.55 0.55
v 13.96207608919027 60.14948354202051 -4.400575189231606 0.55 0.55 0.55
v 11.916783872893607 60.12092621812546 -8.531544582288786 0.55 0.55 0.55
v 10.18653048459982 55.247308311423126 -8.136701460874802 0.55 0.55 0.55
v 10.18653048459982 55.247308311423126 -8.136701460874802 0.0 0.0 0.0
v 11.916783872893607 60.12092621812546 -8.531544582288786 0.0 0.0 0.0
v 9.044760647719036 58.98502184054175 -11.376147747125177 0.0 0.0 0.0
v 11.916783872893607 60.12092621812546 -8.531544582288786 0.0 0.0 0.0
v 13.559839131828014 64.99674222566274 -9.186458117570137 0.0 0.0 0.0
v 9.044760647719036 58.98502184054175 -11.376147747125177 0.0 0.0 0.0
v 13.96207608919027 60.14948354202051 -4.400575189231606 0.55 0.55 0.55
v 15.58200583684272 65.0303737967525 -4.932686608090909 0.55 0.55 0.55
v 13.559839131828014 64.99674222566274 -9.186458117570137 0.55 0.55 0.55
v 11.916783872893607 60.12092621812546 -8.531544582288786 0.55 0.55 0.55
v 17.835846035099653 67.88478986087921 -0.5944729775745556 1.0 1.0 1.0
v 13.96207608919027 60.14948354202051 -4.400575189231606 1.0 1.0 1.0
v 12.421344213621948 55.23527300252242 -3.9477099750946567 1.0 1.0 1.0
v 17.835846035099653 67.88478986087921 -0.5944729775745556 1.0 1.0 1.0
v 15.58200583684272 65.0303737967525 -4.932686608090909 1.0 1.0 1.0
v 13.96207608919027 60.14948354202051 -4.400575189231606 1.0 1.0 1.0
v 15.58200583684272 65.0303737967525 -4.932686608090909 0.55 0.55 0.55
v 17.133512739967827 69.93041510790468 -5.49132303389866 0.55 0.55 0.55
v 15.064801486110042 69.90586312007802 -9.921725486332397 0.55 0.55 0.55
v 13.559839131828014 64.99674222566274 -9.186458117570137 0.55 0.55 0.55
v 13.559839131828014 64.99674222566274 -9.186458117570137 0.55 0.55 0.55
v 15.064801486110042 69.90586312007802 -9.921725486332397 0.55 0.55 0.55
v 11.369164017880454 65.74055877487413 -12.776201326691883 0.55 0.55 0.55
v 9.044760647719036 58.98502184054175 -11.376147747125177 0.55 0.55 0.55
v 9.044760647719036 58.98502184054175 -11.376147747125177 0.55 0.55 0.55
v 11.369164017880454 65.74055877487413 -12.776201326691883 0.55 0.55 0.55
v 6.4065443092324825 60.068765481143004 -13.125741885298604 0.55 0.55 0.55
v 5.830672985291782 55.19696792121759 -11.627018289638066 0.55 0.55 0.55
v 5.830672985291782 55.19696792121759 -11.627018289638066 0.55 0.55 0.55
v 6.4065443092324825 60.068765481143004 -13.125741885298604 0.55 0.55 0.55
v 3.1782675050802043 61.068744853138966 -15.071764788872642 0.55 0.55 0.55
v 3.049090625620096 55.00122711239273 -12.683238420687111 0.55 0.55 0.55
v 3.049090625620096 55.00122711239273 -12.683238420687111 0.55 0.55 0.55
v 3.1782675050802043 61.068744853138966 -15.071764788872642 0.55 0.55 0.55
v -0.9304106414902809 60.133376951907294 -14.611718229539504 0.55 0.55 0.55
v -1.1459625765422685 55.231162749094594 -12.981209899763849 0.55 0.55 0.55
v -1.1459625765422685 55.231162749094594 -12.981209899763849 0.55 0.55 0.55
v -0.9304106414902809 60.133376951907294 -14.611718229539504 0.55 0.55 0.55
v -4.796515864716553 61.8783335747061 -14.908727306117878 0.55 0.55 0.55
v -4.053411160816054 56.05818003738254 -12.791246236968234 0.55 0.55 0.55
v -4.053411160816054 56.05818003738254 -12.791246236968234 0.55 0.55 0.55
v -4.796515864716553 61.8783335747061 -14.908727306117878 0.55 0.55 0.55
v -8.012108274581697 60.14098291461244 -12.297037988597799 0.55 0.55 0.55
v -7.274595497100711 55.22510026949939 -10.864909712347623 0.55 0.55 0.55
v -7.274595497100711 55.22510026949939 -10.864909712347623 0.0 1.0 0.0
v -8.012108274581697 60.14098291461244 -12.297037988597799 0.0 1.0 0.0
v -11.197224403032635 60.579471459827225 -10.240123982929228 0.0 1.0 0.0
v -12.051145549903227 53.798858662375224 -3.7136545792964317 0.0 1.0 0.0
v -10.8604523018025 55.02877042044737 -7.312603486832889 0.0 1.0 0.0
v -10.8604523018025 55.02877042044737 -7.312603486832889 0.55 0.55 0.55
v -12.051145549903227 53.798858662375224 -3.7136545792964317 0.55 0.55 0.55
v -12.99098820275958 60.14504475090763 -6.745267750981493 0.55 0.55 0.55
v -11.59599735696363 55.230740044422305 -5.947675621237194 0.55 0.55 0.55
v -11.59599735696363 55.230740044422305 -5.947675621237194 0.55 0.55 0.55
v -12.99098820275958 60.14504475090763 -6.745267750981493 0.55 0.55 0.55
v -15.61100180094926 62.712451813618 -3.583181608759408 0.55 0.55 0.55
v -13.525524180274143 57.17025038744363 -3.062614703150781 0.55 0.55 0.55
v -13.525524180274143 57.17025038744363 -3.062614703150781 0.55 0.55 0.55
v -15.61100180094926 62.712451813618 -3.583181608759408 0.55 0.55 0.55
v -14.652978417394968 60.14085938841051 0.5364199417201645 0.55 0.55 0.55
v -13.039631156410966 55.22623769783701 0.5277788908117547 0.55 0.55 0.55
v -13.039631156410966 55.22623769783701 0.5277788908117547 0.0 0.0 0.0
v -14.652978417394968 60.14085938841051 0.5364199417201645 0.0 0.0 0.0
v -14.442233122730032 60.37444895567616 4.322959599883404 0.0 0.0 0.0
v -14.652978417394968 60.14085938841051 0.5364199417201645 0.0 0.0 0.0
v -16.363047562674073 65.02291247890055 0.5789857766440315 0.0 0.0 0.0
v -14.442233122730032 60.37444895567616 4.322959599883404 0.0 0.0 0.0
v -15.61100180094926 62.712451813618 -3.583181608759408 1.0 1.0 1.0
v -16.363047562674073 65.02291247890055 0.5789857766440315 1.0 1.0 1.0
v -14.652978417394968 60.14085938841051 0.5364199417201645 1.0 1.0 1.0
v -15.61100180094926 62.712451813618 -3.583181608759408 1.0 1.0 1.0
v -18.01402018104475 69.92522128774546 0.6191970596409597 1.0 1.0 1.0
v -16.363047562674073 65.02291247890055 0.5789857766440315 1.0 1.0 1.0
v -16.363047562674073 65.02291247890055 0.5789857766440315 0.55 0.55 0.55
v -18.01402018104475 69.92522128774546 0.6191970596409597 0.55 0.55 0.55
v -16.683203523014434 66.73316240227611 5.035469158956379 0.55 0.55 0.55
v -14.442233122730032 60.37444895567616 4.322959599883404 0.55 0.55 0.55
v -14.442233122730032 60.37444895567616 4.322959599883404 0.55 0.55 0.55
v -16.683203523014434 66.73316240227611 5.035469158956379 0.55 0.55 0.55
v -12.485964208420416 60.14620706840131 7.690816488522402 0.55 0.55 0.55
v -11.05539660227426 55.232842827752805 6.960660968184829 0.55 0.55 0.55
v -11.05539660227426 55.232842827752805 6.960660968184829 0.55 0.55 0.55
v -12.485964208420416 60.14620706840131 7.690816488522402 0.55 0.55 0.55
v -11.001835989066512 62.47819450837825 11.528016899593995 0.55 0.55 0.55
v -9.742043100000112 56.874809574457885 9.756143734634144 0.55 0.55 0.55
v -9.742043100000112 56.874809574457885 9.756143734634144 0.55 0.55 0.55
v -11.001835989066512 62.47819450837825 11.528016899593995 0.55 0.55 0.55
v -7.071701247717077 60.14552748124746 12.816671815343588 0.55 0.55 0.55
v -6.23385864061423 55.233314377139976 11.444236318908432 0.55 0.55 0.55
v -6.23385864061423 55.233314377139976 11.444236318908432 0.0 0.0 0.0
v -7.071701247717077 60.14552748124746 12.816671815343588 0.0 0.0 0.0
v -3.778271017626185 61.72632097143045 15.15689997199752 0.0 0.0 0.0
v -7.071701247717077 60.14552748124746 12.816671815343588 0.0 0.0 0.0
v -7.851326260534701 65.02688610413675 14.333885698915948 0.0 0.0 0.0
v -3.778271017626185 61.72632097143045 15.15689997199752 0.0 0.0 0.0
v -11.001835989066512 62.47819450837825 11.528016899593995 1.0 1.0 1.0
v -7.851326260534701 65.02688610413675 14.333885698915948 1.0 1.0 1.0
v -7.071701247717077 60.14552748124746 12.816671815343588 1.0 1.0 1.0
v -11.001835989066512 62.47819450837825 11.528016899593995 1.0 1.0 1.0
v -8.601910977715663 69.92844832704934 15.799419843282596 1.0 1.0 1.0
v -7.851326260534701 65.02688610413675 14.333885698915948 1.0 1.0 1.0
v -7.851326260534701 65.02688610413675 14.333885698915948 0.55 0.55 0.55
v -8.601910977715663 69.92844832704934 15.799419843282596 0.55 0.55 0.55
v -4.214425780829219 67.64853131311831 17.252350743283092 0.55 0.55 0.55
v -3.778271017626185 61.72632097143045 15.15689997199752 0.55 0.55 0.55
v -3.778271017626185 61.72632097143045 15.15689997199752 0.55 0.55 0.55
v -4.214425780829219 67.64853131311831 17.252350743283092 0.55 0.55 0.55
v 0.1530560261413826 60.14535529701095 14.686729098128808 0.55 0.55 0.55
v 0.04900623206475194 55.23033609100585 13.08094071158814 0.55 0.55 0.55
v 0.04900623206475194 55.23033609100585 13.08094071158814 0.0 0.0 0.0
v 0.1530560261413826 60.14535529701095 14.686729098128808 0.0 0.0 0.0
v 3.9095710311721286 58.54353362296395 13.820339348894183 0.0 0.0 0.0
v 0.1530560261413826 60.14535529701095 14.686729098128808 0.0 0.0 0.0
v 0.2518829119362829 65.02675389679673 16.39292626620637 0.0 0.0 0.0
v 3.9095710311721286 58.54353362296395 13.820339348894183 0.0 0.0 0.0
v -4.214425780829219 67.64853131311831 17.252350743283092 1.0 1.0 1.0
v 0.2518829119362829 65.02675389679673 16.39292626620637 1.0 1.0 1.0
v 0.1530560261413826 60.14535529701095 14.686729098128808 1.0 1.0 1.0
v -4.214425780829219 67.64853131311831 17.252350743283092 1.0 1.0 1.0
v 0.35788456506932764 69.9283229395487 18.039212913827882 1.0 1.0 1.0
v 0.2518829119362829 65.02675389679673 16.39292626620637 1.0 1.0 1.0
v 0.2518829119362829 65.02675389679673 16.39292626620637 0.55 0.55 0.55
v 0.35788456506932764 69.9283229395487 18.039212913827882 0.55 0.55 0.55
v 4.648018628511789 65.49223914691238 16.357944306262684 0.55 0.55 0.55
v 3.9095710311721286 58.54353362296395 13.820339348894183 0.55 0.55 0.55
v 3.9095710311721286 58.54353362296395 13.820339348894183 0.0 0.0 0.0
v 4.648018628511789 65.49223914691238 16.357944306262684 0.0 0.0 0.0
v 8.669073727173398 65.50296910295557 14.650121064514044 0.0 0.0 0.0
v 4.648018628511789 65.49223914691238 16.357944306262684 0.0 0.0 0.0
v 5.320735835319235 72.62525437827205 18.32570003695546 0.0 0.0 0.0
v 8.669073727173398 65.50296910295557 14.650121064514044 0.0 0.0 0.0
v 0.35788456506932764 69.9283229395487 18.039212913827882 0.55 0.55 0.55
v 0.4608132208365066 74.89408273507355 19.479060670575972 0.55 0.55 0.55
v 5.320735835319235 72.62525437827205 18.32570003695546 0.55 0.55 0.55
v 4.648018628511789 65.49223914691238 16.357944306262684 0.55 0.55 0.55
v -4.214425780829219 67.64853131311831 17.252350743283092 0.55 0.55 0.55
v -4.538284049021488 73.74335389717126 18.78679919497563 0.55 0.55 0.55
v 0.4608132208365066 74.89408273507355 19.479060670575972 0.55 0.55 0.55
v 0.35788456506932764 69.9283229395487 18.039212913827882 0.55 0.55 0.55
v -8.601910977715663 69.92844832704934 15.799419843282596 0.55 0.55 0.55
v -9.25668412143264 74.89397670941116 17.08246272511284 0.55 0.55 0.55
v -4.538284049021488 73.74335389717126 18.78679919497563 0.55 0.55 0.55
v -4.214425780829219 67.64853131311831 17.252350743283092 0.55 0.55 0.55
v -11.001835989066512 62.47819450837825 11.528016899593995 0.55 0.55 0.55
v -12.334545584663775 68.1630966776254 13.021285188246162 0.55 0.55 0.55
v -9.25668412143264 74.89397670941116 17.08246272511284 0.55 0.55 0.55
v -8.601910977715663 69.92844832704934 15.799419843282596 0.55 0.55 0.55
v -12.485964208420416 60.14620706840131 7.690816488522402 0.55 0.55 0.55
v -13.93293784914637 65.02691799681533 8.601392784212212 0.55 0.55 0.55
v -12.334545584663775 68.1630966776254 13.021285188246162 0.55 0.55 0.55
v -11.001835989066512 62.47819450837825 11.528016899593995 0.55 0.55 0.55
v -16.683203523014434 66.73316240227611 5.035469158956379 1.0 1.0 1.0
v -13.93293784914637 65.02691799681533 8.601392784212212 1.0 1.0 1.0
v -12.485964208420416 60.14620706840131 7.690816488522402 1.0 1.0 1.0
v -16.683203523014434 66.73316240227611 5.035469158956379 1.0 1.0 1.0
v -15.330430612303145 69.92798677637535 9.479136526669693 1.0 1.0 1.0
v -13.93293784914637 65.02691799681533 8.601392784212212 1.0 1.0 1.0
v -13.93293784914637 65.02691799681533 8.601392784212212 0.0 0.0 0.0
v -15.330430612303145 69.92798677637535 9.479136526669693 0.0 0.0 0.0
v -12.334545584663775 68.1630966776254 13.021285188246162 0.0 0.0 0.0
v -15.330430612303145 69.92798677637535 9.479136526669693 0.0 0.0 0.0
v -16.555181486273533 74.89343650679551 10.243124626993975 0.0 0.0 0.0
v -12.334545584663775 68.1630966776254 13.021285188246162 0.0 0.0 0.0
v -16.683203523014434 66.73316240227611 5.035469158956379 0.55 0.55 0.55
v -18.386066936461283 73.26971078290842 5.558965814433684 0.55 0.55 0.55
v -16.555181486273533 74.89343650679551 10.243124626993975 0.55 0.55 0.55
v -15.330430612303145 69.92798677637535 9.479136526669693 0.55 0.55 0.55
v -18.01402018104475 69.92522128774546 0.6191970596409597 0.55 0.55 0.55
v -19.45840319783868 74.89190665635832 0.6525434319692353 0.55 0.55 0.55
v -18.386066936461283 73.26971078290842 5.558965814433684 0.55 0.55 0.55
v -16.683203523014434 66.73316240227611 5.035469158956379 0.55 0.55 0.55
v -15.61100180094926 62.712451813618 -3.583181608759408 0.55 0.55 0.55
v -17.524624994404558 68.32222672798875 -4.027767504653167 0.55 0.55 0.55
v -19.45840319783868 74.89190665635832 0.6525434319692353 0.55 0.55 0.55
v -18.01402018104475 69.92522128774546 0.6191970596409597 0.55 0.55 0.55
v -12.99098820275958 60.14504475090763 -6.745267750981493 0.55 0.55 0.55
v -14.48224813565971 65.0265320655604 -7.573594992786177 0.55 0.55 0.55
v -17.524624994404558 68.32222672798875 -4.027767504653167 0.55 0.55 0.55
v -15.61100180094926 62.712451813618 -3.583181608759408 0.55 0.55 0.55
v -12.051145549903227 53.798858662375224 -3.7136545792964317 1.0 0.0 0.0
v -11.197224403032635 60.579471459827225 -10.240123982929228 1.0 0.0 0.0
v -12.870577352093951 66.8687227843861 -11.861261392714107 1.0 0.0 0.0
v -14.48224813565971 65.0265320655604 -7.573594992786177 1.0 0.0 0.0
v -12.99098820275958 60.14504475090763 -6.745267750981493 1.0 0.0 0.0
v -8.012108274581697 60.14098291461244 -12.297037988597799 0.55 0.55 0.55
v -8.876211892075734 65.02343822195878 -13.774909177917614 0.55 0.55 0.55
v -12.870577352093951 66.8687227843861 -11.861261392714107 0.55 0.55 0.55
v -11.197224403032635 60.579471459827225 -10.240123982929228 0.55 0.55 0.55
v -4.796515864716553 61.8783335747061 -14.908727306117878 1.0 1.0 1.0
v -8.876211892075734 65.02343822195878 -13.774909177917614 1.0 1.0 1.0
v -8.012108274581697 60.14098291461244 -12.297037988597799 1.0 1.0 1.0
v -4.796515864716553 61.8783335747061 -14.908727306117878 1.0 1.0 1.0
v -9.7036355582832 69.92592355848677 -15.20609574705492 1.0 1.0 1.0
v -8.876211892075734 65.02343822195878 -13.774909177917614 1.0 1.0 1.0
v -8.876211892075734 65.02343822195878 -13.774909177917614 0.55 0.55 0.55
v -9.7036355582832 69.92592355848677 -15.20609574705492 0.55 0.55 0.55
v -14.139772635974618 73.33894251229161 -13.065387243178677 0.55 0.55 0.55
v -12.870577352093951 66.8687227843861 -11.861261392714107 0.55 0.55 0.55
v -12.870577352093951 66.8687227843861 -11.861261392714107 0.55 0.55 0.55
v -14.139772635974618 73.33894251229161 -13.065387243178677 0.55 0.55 0.55
v -15.920050697171252 69.92822752170493 -8.37616816257524 0.55 0.55 0.55
v -14.48224813565971 65.0265320655604 -7.573594992786177 0.55 0.55 0.55
v -14.48224813565971 65.0265320655604 -7.573594992786177 0.0 0.0 0.0
v -15.920050697171252 69.92822752170493 -8.37616816257524 0.0 0.0 0.0
v -17.524624994404558 68.32222672798875 -4.027767504653167 0.0 0.0 0.0
v -15.920050697171252 69.92822752170493 -8.37616816257524 0.0 0.0 0.0
v -17.175076861610357 74.8938810923902 -9.08336611810472 0.0 0.0 0.0
v -17.524624994404558 68.32222672798875 -4.027767504653167 0.0 0.0 0.0
v -14.139772635974618 73.33894251229161 -13.065387243178677 0.55 0.55 0.55
v -14.638534045102997 80.00126067994613 -13.536177355572722 0.55 0.55 0.55
v -17.175076861610357 74.8938810923902 -9.08336611810472 0.55 0.55 0.55
v -15.920050697171252 69.92822752170493 -8.37616816257524 0.55 0.55 0.55
v -9.7036355582832 69.92592355848677 -15.20609574705492 0.55 0.55 0.55
v -10.418556730496233 74.89269002349893 -16.46434975359706 0.55 0.55 0.55
v -14.638534045102997 80.00126067994613 -13.536177355572722 0.55 0.55 0.55
v -14.139772635974618 73.33894251229161 -13.065387243178677 0.55 0.55 0.55
v -4.796515864716553 61.8783335747061 -14.908727306117878 0.55 0.55 0.55
v -5.3755830158187115 67.75351492659908 -16.93329943285561 0.55 0.55 0.55
v -10.418556730496233 74.89269002349893 -16.46434975359706 0.55 0.55 0.55
v -9.7036355582832 69.92592355848677 -15.20609574705492 0.55 0.55 0.55
v -0.9304106414902809 60.133376951907294 -14.611718229539504 0.55 0.55 0.55
v -0.9120128258502408 65.01703498191468 -16.328578052047067 0.55 0.55 0.55
v -5.3755830158187115 67.75351492659908 -16.93329943285561 0.55 0.55 0.55
v -4.796515864716553 61.8783335747061 -14.908727306117878 0.55 0.55 0.55
v 3.1782675050802043 61.068744853138966 -15.071764788872642 0.55 0.55 0.55
v 3.6883719916891593 67.2019636230683 -17.25862071124801 0.55 0.55 0.55
v -0.9120128258502408 65.01703498191468 -16.328578052047067 0.55 0.55 0.55
v -0.9304106414902809 60.133376951907294 -14.611718229539504 0.55 0.55 0.55
v 6.4065443092324825 60.068765481143004 -13.125741885298604 0.55 0.55 0.55
v 7.271225298740229 64.96871335816257 -14.614268493488849 0.55 0.55 0.55
v 3.6883719916891593 67.2019636230683 -17.25862071124801 0.55 0.55 0.55
v 3.1782675050802043 61.068744853138966 -15.071764788872642 0.55 0.55 0.55
v 11.369164017880454 65.74055877487413 -12.776201326691883 1.0 1.0 1.0
v 7.271225298740229 64.96871335816257 -14.614268493488849 1.0 1.0 1.0
v 6.4065443092324825 60.068765481143004 -13.125741885298604 1.0 1.0 1.0
v 11.369164017880454 65.74055877487413 -12.776201326691883 1.0 1.0 1.0
v 8.146341895996448 69.88889416222347 -16.02998105647503 1.0 1.0 1.0
v 7.271225298740229 64.96871335816257 -14.614268493488849 1.0 1.0 1.0
v 7.271225298740229 64.96871335816257 -14.614268493488849 0.0 0.0 0.0
v 8.146341895996448 69.88889416222347 -16.02998105647503 0.0 0.0 0.0
v 3.6883719916891593 67.2019636230683 -17.25862071124801 0.0 0.0 0.0
v 8.146341895996448 69.88889416222347 -16.02998105647503 0.0 0.0 0.0
v 8.92028688439329 74.87439785776814 -17.26247227811974 0.0 0.0 0.0
v 3.6883719916891593 67.2019636230683 -17.25862071124801 0.0 0.0 0.0
v 11.369164017880454 65.74055877487413 -12.776201326691883 0.55 0.55 0.55
v 12.82618641351523 72.75192555900192 -14.189411117218825 0.55 0.55 0.55
v 8.92028688439329 74.87439785776814 -17.26247227811974 0.55 0.55 0.55
v 8.146341895996448 69.88889416222347 -16.02998105647503 0.55 0.55 0.55
v 15.064801486110042 69.90586312007802 -9.921725486332397 0.55 0.55 0.55
v 16.383627847988464 74.87953435534158 -10.572363738874575 0.55 0.55 0.55
v 12.82618641351523 72.75192555900192 -14.189411117218825 0.55 0.55 0.55
v 11.369164017880454 65.74055877487413 -12.776201326691883 0.55 0.55 0.55
v 17.133512739967827 69.93041510790468 -5.49132303389866 0.55 0.55 0.55
v 18.487197945155362 74.89470526839044 -5.988979585847184 0.55 0.55 0.55
v 16.383627847988464 74.87953435534158 -10.572363738874575 0.55 0.55 0.55
v 15.064801486110042 69.90586312007802 -9.921725486332397 0.55 0.55 0.55
v 17.835846035099653 67.88478986087921 -0.5944729775745556 1.0 1.0 1.0
v 17.133512739967827 69.93041510790468 -5.49132303389866 1.0 1.0 1.0
v 15.58200583684272 65.0303737967525 -4.932686608090909 1.0 1.0 1.0
v 17.835846035099653 67.88478986087921 -0.5944729775745556 1.0 1.0 1.0
v 18.487197945155362 74.89470526839044 -5.988979585847184 1.0 1.0 1.0
v 17.133512739967827 69.93041510790468 -5.49132303389866 1.0 1.0 1.0
v 18.487197945155362 74.89470526839044 -5.988979585847184 0.55 0.55 0.55
v 19.527055981773582 79.944427460217 -6.361770951541937 0.55 0.55 0.55
v 17.42324249525719 79.93932348213971 -11.034028904164021 0.55 0.55 0.55
v 16.383627847988464 74.87953435534158 -10.572363738874575 0.55 0.55 0.55
v 16.383627847988464 74.87953435534158 -10.572363738874575 0.55 0.55 0.55
v 17.42324249525719 79.93932348213971 -11.034028904164021 0.55 0.55 0.55
v 13.394597098524244 80.00063129189904 -14.753485564685567 0.55 0.55 0.55
v 12.82618641351523 72.75192555900192 -14.189411117218825 0.55 0.55 0.55
v 12.82618641351523 72.75192555900192 -14.189411117218825 0.55 0.55 0.55
v 13.394597098524244 80.00063129189904 -14.753485564685567 0.55 0.55 0.55
v 9.527491609683779 79.94669544801705 -18.196343665340244 0.55 0.55 0.55
v 8.92028688439329 74.87439785776814 -17.26247227811974 0.55 0.55 0.55
v 8.92028688439329 74.87439785776814 -17.26247227811974 0.55 0.55 0.55
v 9.527491609683779 79.94669544801705 -18.196343665340244 0.55 0.55 0.55
v 4.269118973303513 80.0026650365897 -19.501720278492588 0.55 0.55 0.55
v 3.6883719916891593 67.2019636230683 -17.25862071124801 0.55 0.55 0.55
v 3.6883719916891593 67.2019636230683 -17.25862071124801 0.55 0.55 0.55
v 4.269118973303513 80.0026650365897 -19.501720278492588 0.55 0.55 0.55
v -0.885654584420151 69.92077510487528 -17.98691792326941 0.55 0.55 0.55
v -0.9120128258502408 65.01703498191468 -16.328578052047067 0.55 0.55 0.55
v -0.9120128258502408 65.01703498191468 -16.328578052047067 0.0 0.0 0.0
v -0.885654584420151 69.92077510487528 -17.98691792326941 0.0 0.0 0.0
v -5.3755830158187115 67.75351492659908 -16.93329943285561 0.0 0.0 0.0
v -0.885654584420151 69.92077510487528 -17.98691792326941 0.0 0.0 0.0
v -0.8471983749332631 74.8890267597138 -19.438770646325313 0.0 0.0 0.0
v -5.3755830158187115 67.75351492659908 -16.93329943285561 0.0 0.0 0.0
v 4.269118973303513 80.0026650365897 -19.501720278492588 1.0 1.0 1.0
v -0.8471983749332631 74.8890267597138 -19.438770646325313 1.0 1.0 1.0
v -0.885654584420151 69.92077510487528 -17.98691792326941 1.0 1.0 1.0
v 4.269118973303513 80.0026650365897 -19.501720278492588 1.0 1.0 1.0
v -0.7979783864264054 79.9433381536822 -20.55246758252411 1.0 1.0 1.0
v -0.8471983749332631 74.8890267597138 -19.438770646325313 1.0 1.0 1.0
v -0.8471983749332631 74.8890267597138 -19.438770646325313 0.55 0.55 0.55
v -0.7979783864264054 79.9433381536822 -20.55246758252411 0.55 0.55 0.55
v -5.966159233398555 80.00252451633392 -18.987481196100198 0.55 0.55 0.55
v -5.3755830158187115 67.75351492659908 -16.93329943285561 0.55 0.55 0.55
v -5.3755830158187115 67.75351492659908 -16.93329943285561 0.55 0.55 0.55
v -5.966159233398555 80.00252451633392 -18.987481196100198 0.55 0.55 0.55
v -10.95683659147059 79.94486971543274 -17.4361178524401 0.55 0.55 0.55
v -10.418556730496233 74.89269002349893 -16.46434975359706 0.55 0.55 0.55
v -14.638534045102997 80.00126067994613 -13.536177355572722 1.0 0.0 0.0
v -10.418556730496233 74.89269002349893 -16.46434975359706 1.0 0.0 0.0
v -10.95683659147059 79.94486971543274 -17.4361178524401 1.0 0.0 0.0
v -18.133378385816144 79.94449200991197 -9.632041250225397 1.0 0.0 0.0
v -17.175076861610357 74.8938810923902 -9.08336611810472 1.0 0.0 0.0
v -17.175076861610357 74.8938810923902 -9.08336611810472 0.55 0.55 0.55
v -18.133378385816144 79.94449200991197 -9.632041250225397 0.55 0.55 0.55
v -19.442955414202956 80.00238346655311 -4.463973272541393 0.55 0.55 0.55
v -17.524624994404558 68.32222672798875 -4.027767504653167 0.55 0.55 0.55
v -17.524624994404558 68.32222672798875 -4.027767504653167 0.55 0.55 0.55
v -19.442955414202956 80.00238346655311 -4.463973272541393 0.55 0.55 0.55
v -20.565654780715114 79.94411242092761 0.6714482062151234 0.55 0.55 0.55
v -19.45840319783868 74.89190665635832 0.6525434319692353 0.55 0.55 0.55
v -19.45840319783868 74.89190665635832 0.6525434319692353 0.55 0.55 0.55
v -20.565654780715114 79.94411242092761 0.6714482062151234 0.55 0.55 0.55
v -19.04133541283918 80.0036052323277 5.785885829625347 0.55 0.55 0.55
v -18.386066936461283 73.26971078290842 5.558965814433684 0.55 0.55 0.55
v -18.386066936461283 73.26971078290842 5.558965814433684 0.55 0.55 0.55
v -19.04133541283918 80.0036052323277 5.785885829625347 0.55 0.55 0.55
v -17.496738931976225 79.9443975992179 10.823175674683284 0.55 0.55 0.55
v -16.555181486273533 74.89343650679551 10.243124626993975 0.55 0.55 0.55
v -16.555181486273533 74.89343650679551 10.243124626993975 0.55 0.55 0.55
v -17.496738931976225 79.9443975992179 10.823175674683284 0.55 0.55 0.55
v -13.677695017355385 80.0023057064583 14.520576786894395 0.55 0.55 0.55
v -12.334545584663775 68.1630966776254 13.021285188246162 0.55 0.55 0.55
v -12.334545584663775 68.1630966776254 13.021285188246162 0.55 0.55 0.55
v -13.677695017355385 80.0023057064583 14.520576786894395 0.55 0.55 0.55
v -9.75962550720271 79.94448652476562 18.06524915434307 0.55 0.55 0.55
v -9.25668412143264 74.89397670941116 17.08246272511284 0.55 0.55 0.55
v -9.25668412143264 74.89397670941116 17.08246272511284 0.55 0.55 0.55
v -9.75962550720271 79.94448652476562 18.06524915434307 0.55 0.55 0.55
v -4.640771769992024 80.00281589250784 19.389397214477942 0.55 0.55 0.55
v -4.538284049021488 73.74335389717126 18.78679919497563 0.55 0.55 0.55
v -4.538284049021488 73.74335389717126 18.78679919497563 0.55 0.55 0.55
v -4.640771769992024 80.00281589250784 19.389397214477942 0.55 0.55 0.55
v 0.5459302871300755 79.94502198131622 20.583032618518246 0.55 0.55 0.55
v 0.4608132208365066 74.89408273507355 19.479060670575972 0.55 0.55 0.55
v 0.4608132208365066 74.89408273507355 19.479060670575972 0.55 0.55 0.55
v 0.5459302871300755 79.94502198131622 20.583032618518246 0.55 0.55 0.55
v 5.593628299874088 80.00189182490473 19.100905385277265 0.55 0.55 0.55
v 5.320735835319235 72.62525437827205 18.32570003695546 0.55 0.55 0.55
v 5.320735835319235 72.62525437827205 18.32570003695546 0.55 0.55 0.55
v 5.593628299874088 80.00189182490473 19.100905385277265 0.55 0.55 0.55
v 10.339669650367433 80.0006780571639 17.04138136439938 0.55 0.55 0.55
v 8.669073727173398 65.50296910295557 14.650121064514044 0.55 0.55 0.55
v 8.669073727173398 65.50296910295557 14.650121064514044 0.55 0.55 0.55
v 10.339669650367433 80.0006780571639 17.04138136439938 0.55 0.55 0.55
v 9.637373523702012 59.960125387128876 10.887145166958145 0.55 0.55 0.55
v 7.436118772575785 55.33506481297348 10.758009076200826 0.55 0.55 0.55
v 7.436118772575785 55.33506481297348 10.758009076200826 0.55 0.55 0.55
v 9.637373523702012 59.960125387128876 10.887145166958145 0.55 0.55 0.55
v 12.544210105292105 60.13465320715228 7.543402395607303 0.55 0.55 0.55
v 10.933083286531424 55.23024706609389 7.149715068864715 0.55 0.55 0.55
v 10.933083286531424 55.23024706609389 7.149715068864715 0.55 0.55 0.55
v 12.544210105292105 60.13465320715228 7.543402395607303 0.55 0.55 0.55
v 14.30969122392725 60.14696471612914 3.2392313478351262 0.55 0.55 0.55
v 12.77031846822468 55.23221959527343 2.77728693613162 0.55 0.55 0.55
v 12.77031846822468 55.23221959527343 2.77728693613162 0.0 0.0 0.0
v 14.30969122392725 60.14696471612914 3.2392313478351262 0.0 0.0 0.0
v 17.835846035099653 67.88478986087921 -0.5944729775745556 0.0 0.0 0.0
v 14.30969122392725 60.14696471612914 3.2392313478351262 0.0 0.0 0.0
v 15.938453618293021 65.02841633768058 3.747739379124362 0.0 0.0 0.0
v 17.835846035099653 67.88478986087921 -0.5944729775745556 0.0 0.0 0.0
v 12.544210105292105 60.13465320715228 7.543402395607303 0.55 0.55 0.55
v 14.166192317050735 65.01521937298403 8.137278822213258 0.55 0.55 0.55
v 15.938453618293021 65.02841633768058 3.747739379124362 0.55 0.55 0.55
v 14.30969122392725 60.14696471612914 3.2392313478351262 0.55 0.55 0.55
v 9.637373523702012 59.960125387128876 10.887145166958145 0.55 0.55 0.55
v 11.294091662079259 64.86076617013944 11.74613536733789 0.55 0.55 0.55
v 14.166192317050735 65.01521937298403 8.137278822213258 0.55 0.55 0.55
v 12.544210105292105 60.13465320715228 7.543402395607303 0.55 0.55 0.55
v 10.339669650367433 80.0006780571639 17.04138136439938 1.0 1.0 1.0
v 11.294091662079259 64.86076617013944 11.74613536733789 1.0 1.0 1.0
v 9.637373523702012 59.960125387128876 10.887145166958145 1.0 1.0 1.0
v 10.339669650367433 80.0006780571639 17.04138136439938 1.0 1.0 1.0
v 12.761850091649238 69.8084783844489 12.68260650974753 1.0 1.0 1.0
v 11.294091662079259 64.86076617013944 11.74613536733789 1.0 1.0 1.0
v 11.294091662079259 64.86076617013944 11.74613536733789 0.55 0.55 0.55
v 12.761850091649238 69.8084783844489 12.68260650974753 0.55 0.55 0.55
v 15.682375081597067 69.919850157426 8.808923569289314 0.55 0.55 0.55
v 14.166192317050735 65.01521937298403 8.137278822213258 0.55 0.55 0.55
v 14.166192317050735 65.01521937298403 8.137278822213258 0.55 0.55 0.55
v 15.682375081597067 69.919850157426 8.808923569289314 0.55 0.55 0.55
v 17.50525952700494 69.92932626290285 4.2625066956272475 0.55 0.55 0.55
v 15.938453618293021 65.02841633768058 3.747739379124362 0.55 0.55 0.55
v 15.938453618293021 65.02841633768058 3.747739379124362 0.0 0.0 0.0
v 17.50525952700494 69.92932626290285 4.2625066956272475 0.0 0.0 0.0
v 17.835846035099653 67.88478986087921 -0.5944729775745556 0.0 0.0 0.0
v 17.50525952700494 69.92932626290285 4.2625066956272475 0.0 0.0 0.0
v 18.873552822700283 74.8945326429781 4.718439790463352 0.0 0.0 0.0
v 17.835846035099653 67.88478986087921 -0.5944729775745556 0.0 0.0 0.0
v 15.682375081597067 69.919850157426 8.808923569289314 0.55 0.55 0.55
v 17.00846881586562 74.8890602733453 9.399462579905995 0.55 0.55 0.55
v 18.873552822700283 74.8945326429781 4.718439790463352 0.55 0.55 0.55
v 17.50525952700494 69.92932626290285 4.2625066956272475 0.55 0.55 0.55
v 12.761850091649238 69.8084783844489 12.68260650974753 0.55 0.55 0.55
v 14.07079984882727 74.82286523375114 13.487833668116618 0.55 0.55 0.55
v 17.00846881586562 74.8890602733453 9.399462579905995 0.55 0.55 0.55
v 15.682375081597067 69.919850157426 8.808923569289314 0.55 0.55 0.55
v 10.339669650367433 80.0006780571639 17.04138136439938 1.0 1.0 1.0
v 14.07079984882727 74.82286523375114 13.487833668116618 1.0 1.0 1.0
v 12.761850091649238 69.8084783844489 12.68260650974753 1.0 1.0 1.0
v 10.339669650367433 80.0006780571639 17.04138136439938 1.0 1.0 1.0
v 15.143204136982245 79.92599451241415 14.043366230228674 1.0 1.0 1.0
v 14.07079984882727 74.82286523375114 13.487833668116618 1.0 1.0 1.0
v 14.07079984882727 74.82286523375114 13.487833668116618 0.55 0.55 0.55
v 15.143204136982245 79.92599451241415 14.043366230228674 0.55 0.55 0.55
v 18.045102391875567 79.94341564953969 9.817158213808028 0.55 0.55 0.55
v 17.00846881586562 74.8890602733453 9.399462579905995 0.55 0.55 0.55
v 17.00846881586562 74.8890602733453 9.399462579905995 0.55 0.55 0.55
v 18.045102391875567 79.94341564953969 9.817158213808028 0.55 0.55 0.55
v 19.924426154863653 79.94498430389909 5.061684587993866 0.55 0.55 0.55
v 18.873552822700283 74.8945326429781 4.718439790463352 0.55 0.55 0.55
v 18.873552822700283 74.8945326429781 4.718439790463352 0.55 0.55 0.55
v 19.924426154863653 79.94498430389909 5.061684587993866 0.55 0.55 0.55
v 19.882739696893804 80.00071649532465 -1.1864370539661573 0.55 0.55 0.55
v 17.835846035099653 67.88478986087921 -0.5944729775745556 0.55 0.55 0.55
v 17.835846035099653 67.88478986087921 -0.5944729775745556 0.55 0.55 0.55
v 19.882739696893804 80.00071649532465 -1.1864370539661573 0.55 0.55 0.55
v 19.527055981773582 79.944427460217 -6.361770951541937 0.55 0.55 0.55
v 18.487197945155362 74.89470526839044 -5.988979585847184 0.55 0.55 0.55
f 1 2 3 4
f 5 6 7 8
f 9 10 11 12
f 13 14 15 16
f 17 18 19 20
f 21 22 23 24
f 25 26 27 28
f 29 30 31 32
f 33 34 35 36
f 37 38 39 40
f 41 42 43 44
f 45 46 47 48
f 49 50 51 52
f 53 54 55 56
f 57 58 59 60
f 61 62 63 64
f 65 66 67 68
f 69 70 71 72
f 73 74 75 76
f 77 78 79 80
f 81 82 83 84
f 85 86 87 88
f 89 90 91 92
f 93 94 95 96
f 97 98 99 100
f 101 102 103 104
f 105 106 107 108
f 109 110 111 112
f 113 114 115 116
f 117 118 119 120
f 121 122 123 124
f 125 126 127 128
f 129 130 131 132
f 133 134 135 136
f 137 138 139 140
f 141 142 143 144
f 145 146 147 148
f 149 150 151 152
f 153 154 155 156
f 157 158 159 160
f 161 162 163 164
f 165 166 167 168
f 169 170 171 172
f 173 174 175 176
f 177 178 179 180
f 181 182 183 184
f 185 186 187 188
f 189 190 191 192
f 193 194 195 196
f 197 198 199 200
f 201 202 203 204
f 205 206 207 208
f 209 210 211 212
f 213 214 215 216
f 217 218 219 220
f 221 222 223 224
f 225 226 227 228
f 229 230 231 232
f 233 234 235 236
f 237 238 239 240
f 241 242 243 244
f 245 246 247 248
f 249 250 251 252
f 253 254 255 256
f 257 258 259 260
f 261 262 263 264
f 265 266 267 268
f 269 270 271 272
f 273 274 275 276
f 277 278 279 280
f 281 282 283 284
f 285 286 287 288
f 289 290 291 292
f 293 294 295 296 297
f 298 299 300
f 301 302 303
f 304 305 306 307
f 308 309 310 311
f 312 313 314 315 316
f 317 318 319 320
f 321 322 323 324
f 325 326 327
f 328 329 330
f 331 332 333 334
f 335 336 337 338
f 339 340 341 342
f 343 344 345 346
f 347 348 349 350
f 351 352 353 354
f 355 356 357 358
f 359 360 361 362 363
f 364 365 366
f 367 368 369
f 370 371 372 373
f 374 375 376
f 377 378 379
f 380 381 382 383
f 384 385 386 387
f 388 389 390 391
f 392 393 394
f 395 396 397
f 398 399 400
f 401 402 403
f 404 405 406 407
f 408 409 410 411
f 412 413 414 415 416
f 417 418 419 420
f 421 422 423 424
f 425 426 427 428
f 429 430 431 432
f 433 434 435
f 436 437 438
f 439 440 441 442 443
f 444 445 446 447 448
f 449 450 451 452
f 453 454 455
f 456 457 458
f 459 460 461 462
f 463 464 465 466
f 467 468 469 470
f 471 472 473 474
f 475 476 477 478 479
f 480 481 482 483
f 484 485 486 487
f 488 489 490 491
f 492 493 494 495
f 496 497 498 499
f 500 501 502 503 504
f 505 506 507 508
f 509 510 511 512 513
f 514 515 516 517 518
f 519 520 521 522
f 523 524 525 526
f 527 528 529 530
f 531 532 533 534 535
f 536 537 538 539
f 540 541 542 543
f 544 545 546 547
f 548 549 550 551
f 552 553 554 555
f 556 557 558 559
f 560 561 562 563
f 564 565 566 567
f 568 569 570 571
f 572 573 574 575
f 576 577 578 579
f 580 581 582 583
f 584 585 586 587
f 588 589 590 591
f 592 593 594 595
f 596 597 598 599
f 600 601 602 603
f 604 605 606 607
f 608 609 610 611
f 612 613 614 615
f 616 617 618 619
f 620 621 622 623
f 624 625 626 627
f 628 629 630 631
f 632 633 634 635
f 636 637 638 639
f 640 641 642 643
f 644 645 646 647
f 648 649 650 651
f 652 653 654 655
f 656 657 658 659
f 660 661 662 663
f 664 665 666 667
f 668 669 670 671
f 672 673 674 675
f 676 677 678 679 680
f 681 682 683 684
f 685 686 687 688 689
f 690 691 692 693 694
f 695 696 697 698
f 699 700 701 702
f 703 704 705 706 707
f 708 709 710 711
f 712 713 714 715 716
f 717 718 719 720 721
f 722 723 724 725 726
f 727 728 729 730 731
f 732 733 734 735 736
f 737 738 739 740
f 741 742 743 744
f 745 746 747 748 749
f 750 751 752 753
f 754 755 756 757
f 758 759 760 761 762
f 763 764 765 766
f 767 768 769 770
f 771 772 773 774
f 775 776 777 778
f 779 780 781 782
f 783 784 785 786
f 787 788 789
f 790 791 792
f 793 794 795 796
f 797 798 799
f 800 801 802
f 803 804 805 806
f 807 808 809 810
f 811 812 813 814
f 815 816 817 818
f 819 820 821 822
f 823 824 825 826
f 827 828 829 830
f 831 832 833 834 835
f 836 837 838 839
f 840 841 842 843
f 844 845 846 847
f 848 849 850
f 851 852 853
f 854 855 856
f 857 858 859
f 860 861 862 863
f 864 865 866 867
f 868 869 870 871
f 872 873 874 875
f 876 877 878
f 879 880 881
f 882 883 884
f 885 886 887
f 888 889 890 891
f 892 893 894 895
f 896 897 898
f 899 900 901
f 902 903 904
f 905 906 907
f 908 909 910 911
f 912 913 914
f 915 916 917
f 918 919 920 921
f 922 923 924 925
f 926 927 928 929
f 930 931 932 933
f 934 935 936 937
f 938 939 940
f 941 942 943
f 944 945 946
f 947 948 949
f 950 951 952 953
f 954 955 956 957
f 958 959 960 961
f 962 963 964 965
f 966 967 968 969 970
f 971 972 973 974
f 975 976 977
f 978 979 980
f 981 982 983 984
f 985 986 987 988
f 989 990 991
f 992 993 994
f 995 996 997 998
f 999 1000 1001 1002
f 1003 1004 1005 1006
f 1007 1008 1009 1010
f 1011 1012 1013 1014
f 1015 1016 1017 1018
f 1019 1020 1021
f 1022 1023 1024
f 1025 1026 1027
f 1028 1029 1030
f 1031 1032 1033 1034
f 1035 1036 1037 1038
f 1039 1040 1041 1042
f 1043 1044 1045
f 1046 1047 1048
f 1049 1050 1051 1052
f 1053 1054 1055 1056
f 1057 1058 1059 1060
f 1061 1062 1063 1064
f 1065 1066 1067 1068
f 1069 1070 1071
f 1072 1073 1074
f 1075 1076 1077
f 1078 1079 1080
f 1081 1082 1083 1084
f 1085 1086 1087 1088
f 1089 1090 1091 1092 1093
f 1094 1095 1096 1097
f 1098 1099 1100 1101
f 1102 1103 1104 1105
f 1106 1107 1108 1109
f 1110 1111 1112 1113
f 1114 1115 1116 1117
f 1118 1119 1120 1121
f 1122 1123 1124 1125
f 1126 1127 1128 1129
f 1130 1131 1132 1133
f 1134 1135 1136 1137
f 1138 1139 1140 1141
f 1142 1143 1144 1145
f 1146 1147 1148
f 1149 1150 1151
f 1152 1153 1154 1155
f 1156 1157 1158 1159
f 1160 1161 1162
f 1163 1164 1165
f 1166 1167 1168 1169
f 1170 1171 1172 1173
f 1174 1175 1176
f 1177 1178 1179
f 1180 1181 1182 1183
f 1184 1185 1186 1187
f 1188 1189 1190
f 1191 1192 1193
f 1194 1195 1196 1197
f 1198 1199 1200 1201
f 1202 1203 1204 1205
f 1206 1207 1208 1209
