v 19.538670305018194 0.05558864370070214 -6.3235458757933065 0.0 0.15 1.0
v 18.494353177629076 5.105439804833696 -5.965250210214374 0.04797115468727244 0.15 0.9520288453127276
v 17.13681461322684 10.069915233560119 -5.480043412812774 0.10897992422526662 0.15 0.8910200757747334
v 15.582189662427695 14.970105934553471 -4.931429784238182 0.17096504710723215 0.15 0.8290349528927679
v 13.960134742158326 19.851045956601297 -4.406254528695784 0.24699461654629085 0.15 0.7530053834537092
v 12.418373465170452 24.76525381698588 -3.9568652556431623 0.31054003737431557 0.15 0.6894599626256844
v 11.139900153229506 29.75668815879813 -3.5425082755058432 0.3728471876343393 0.15 0.6271528123656607
v 10.29339038063273 34.84343131330679 -3.198061467590094 0.4360254558881735 0.15 0.5639745441118265
v 9.997807346464201 40.00022022629401 -3.056857372701382 0.49998684755452216 0.15 0.5000131524454778
v 10.295427955855814 45.15706184559173 -3.191602640739181 0.564039078510356 0.15 0.43596092148964405
v 11.142975577307086 50.24384753922148 -3.532877674567765 0.6273084902385874 0.15 0.37269150976141263
v 12.421344213621948 55.23527300252242 -3.9477099750946567 0.6895843303759985 0.15 0.31041566962400147
v 13.96207608919027 60.14948354202051 -4.400575189231606 0.7529659714335023 0.15 0.2470340285664977
v 15.58200583684272 65.0303737967525 -4.932686608090909 0.8286467051798008 0.15 0.17135329482019923
v 17.133512739967827 69.93041510790468 -5.49132303389866 0.8906722940505267 0.15 0.10932770594947328
v 18.487197945155362 74.89470526839044 -5.988979585847184 0.9518353744382321 0.15 0.048164625561767926
v 19.527055981773582 79.944427460217 -6.361770951541937 1.0 0.15 0.0
l 1 2
l 2 3
l 3 4
l 4 5
l 5 6
l 6 7
l 7 8
l 8 9
l 9 10
l 10 11
l 11 12
l 12 13
l 13 14
l 14 15
l 15 16
l 16 17
v 17.44226664813872 0.060826849465857286 -10.998852012585687 0.0 0.15 1.0
v 16.395320292671954 5.1203018056102225 -10.55050814067806 0.05813592632623616 0.15 0.9418640736737638
v 15.070127653572596 10.093791655669698 -9.911532792058777 0.11877167907714278 0.15 0.8812283209228572
v 13.560114297444901 15.002750071543693 -9.18558893125556 0.18377131003405384 0.15 0.8162286899659461
v 11.913227609477058 19.878051302294082 -8.536409462601934 0.25020491157447045 0.15 0.7497950884255296
v 10.181874072633887 24.751386085841894 -8.143252951718619 0.3133795224095466 0.15 0.6866204775904534
v 8.787901926887137 29.728724239772475 -7.731601008363329 0.3732580570529128 0.15 0.6267419429470872
v 7.930591547531135 34.82614377773133 -7.332748781975367 0.4374280979725952 0.15 0.5625719020274048
v 7.643323875098156 39.99937035258104 -7.1587606447489005 0.4999872117586605 0.15 0.5000127882413394
v 7.933973851437673 45.17256287616709 -7.328167177910794 0.5625467791723029 0.15 0.4374532208276971
v 8.792735532600636 50.269916638857914 -7.724922456875888 0.6270647791668047 0.15 0.3729352208331953
v 10.18653048459982 55.247308311423126 -8.136701460874802 0.6864321419931761 0.15 0.31356785800682385
v 11.916783872893607 60.12092621812546 -8.531544582288786 0.7497387826786717 0.15 0.25026121732132833
v 13.559839131828014 64.99674222566274 -9.186458117570137 0.8162093399995397 0.15 0.1837906600004603
v 15.064801486110042 69.90586312007802 -9.921725486332397 0.8811220825625856 0.15 0.11887791743741438
v 16.383627847988464 74.87953435534158 -10.572363738874575 0.9417973937717724 0.15 0.058202606228227594
v 17.42324249525719 79.93932348213971 -11.034028904164021 1.0 0.15 0.0
l 18 19
l 19 20
l 20 21
l 21 22
l 22 23
l 23 24
l 24 25
l 25 26
l 26 27
l 27 28
l 28 29
l 29 30
l 30 31
l 31 32
l 32 33
l 33 34
v 13.42474304533901 -0.0005694981394545629 -14.728654963040544 0.0 0.15 1.0
v 12.839116812996942 7.2645993396246284 -14.174436448278751 0.08683340688146082 0.15 0.9131665931185392
v 11.36335280391486 14.290929412393997 -12.766883170967636 0.16877927592667916 0.15 0.8312207240733208
v 9.01227261793486 21.05777343907724 -11.381268293702757 0.2847416982990826 0.15 0.7152583017009174
l 35 36
l 36 37
l 37 38
v 9.044760647719036 58.98502184054175 -11.376147747125177 0.7155621815267981 0.15 0.28443781847320193
v 11.369164017880454 65.74055877487413 -12.776201326691883 0.8312901209311288 0.15 0.16870987906887125
v 12.82618641351523 72.75192555900192 -14.189411117218825 0.9195424407113983 0.15 0.08045755928860165
v 13.394597098524244 80.00063129189904 -14.753485564685567 1.0 0.15 0.0
l 39 40
l 40 41
l 41 42
v 9.562403913127792 0.05336630826421972 -18.17775701303878 0.0 0.15 1.0
v 8.942205795962526 5.125367928602373 -17.25082360856394 0.04819053127016146 0.15 0.9518094687298385
v 8.15673251275364 10.110615763972298 -16.024528160940278 0.11125934252814833 0.15 0.8887406574718517
v 7.272225370963122 15.030617344417166 -14.613871513644884 0.18949084459259175 0.15 0.8105091554074082
v 6.400625814797799 19.930492289837016 -13.129039572784203 0.263441225948608 0.15 0.7365587740513919
v 5.827236039858709 24.803078971663655 -11.628567632088586 0.33704238291791383 0.15 0.6629576170820861
v 4.390364158880654 29.7256913938593 -10.860842120433492 0.3827580712163822 0.15 0.6172419287836177
v 3.749718229687132 34.82030718880027 -10.100237788751558 0.43670160452684154 0.15 0.5632983954731585
v 3.557149656614936 39.99994648940405 -9.81707473862793 0.4999906875780056 0.15 0.5000093124219944
v 3.754656169902063 45.179492529676196 -10.098639675832327 0.5631951262769396 0.15 0.4368048737230604
v 4.395911487005363 50.27414026465236 -10.858988683016118 0.617155667300369 0.15 0.38284433269963103
v 5.830672985291782 55.19696792121759 -11.627018289638066 0.66279448286704 0.15 0.33720551713296
v 6.4065443092324825 60.068765481143004 -13.125741885298604 0.7362515114918757 0.15 0.26374848850812427
v 7.271225298740229 64.96871335816257 -14.614268493488849 0.8101593356316942 0.15 0.18984066436830582
v 8.146341895996448 69.88889416222347 -16.02998105647503 0.8882410940061871 0.15 0.11175890599381288
v 8.92028688439329 74.87439785776814 -17.26247227811974 0.9515788247478789 0.15 0.048421175252121085
v 9.527491609683779 79.94669544801705 -18.196343665340244 1.0 0.15 0.0
l 43 44
l 44 45
l 45 46
l 46 47
l 47 48
l 48 49
l 49 50
l 50 51
l 51 52
l 52 53
l 53 54
l 54 55
l 55 56
l 56 57
l 57 58
l 58 59
v 4.306222904275078 -0.002677799904167119 -19.490469186429248 0.0 0.15 1.0
v 4.149518853944083 6.487036081078203 -18.860770248564055 0.07485237683684491 0.15 0.9251476231631551
v 3.693774127909919 12.797442364358993 -17.257195425222058 0.1506956547397863 0.15 0.8493043452602137
v 3.171548063922598 18.930541044234463 -15.074095379008854 0.24145677564650306 0.15 0.758543224353497
v 3.0324020915899697 24.998749982863814 -12.688308195491434 0.33952925081561935 0.15 0.6604707491843806
l 60 61
l 61 62
l 62 63
l 63 64
v 3.049090625620096 55.00122711239273 -12.683238420687111 0.6605481000294376 0.15 0.33945189997056235
v 3.1782675050802043 61.068744853138966 -15.071764788872642 0.7584853365266612 0.15 0.24151466347333883
v 3.6883719916891593 67.2019636230683 -17.25862071124801 0.8490778239248974 0.15 0.1509221760751026
v 4.269118973303513 80.0026650365897 -19.501720278492588 1.0 0.15 0.0
l 65 66
l 66 67
l 67 68
v -0.7579411799155804 0.05669876941669874 -20.556362546159605 0.0 0.15 1.0
v -0.8226515342137072 5.110537498841177 -19.441317591894865 0.05667014588916676 0.15 0.9433298541108333
v -0.8747533436699537 10.07832120739247 -17.98831314206444 0.11668865448811827 0.15 0.8833113455118817
v -0.9121627513429077 14.981671177419564 -16.32905700229984 0.18291301556105824 0.15 0.8170869844389418
v -0.9382751110634443 19.865015628933428 -14.611547646351724 0.25802495406146936 0.15 0.7419750459385306
v -1.1498108704401058 24.767738823506583 -12.981209813458218 0.330053970188384 0.15 0.669946029811616
v -1.4359742418334553 29.74525837510985 -11.607458166333863 0.3849351190079107 0.15 0.6150648809920893
v -1.503434877728291 34.836182587521066 -10.682959476463765 0.442729726542334 0.15 0.557270273457666
v -1.5271337797733462 39.99912494691792 -10.347979472864996 0.49998892816897894 0.15 0.5000110718310211
v -1.4975685959057716 45.16201398522491 -10.683287294544254 0.5572482180497432 0.15 0.4427517819502568
v -1.4265758439655651 50.25286674664644 -11.607855424088791 0.6152206900068979 0.15 0.38477930999310206
v -1.1459625765422685 55.231162749094594 -12.981209899763849 0.6697277104225071 0.15 0.3302722895774929
v -0.9304106414902809 60.133376951907294 -14.611718229539504 0.7419834843293075 0.15 0.2580165156706925
v -0.9120128258502408 65.01703498191468 -16.328578052047067 0.8119637600809254 0.15 0.1880362399190746
v -0.885654584420151 69.92077510487528 -17.98691792326941 0.883303254259699 0.15 0.11669674574030098
v -0.8471983749332631 74.8890267597138 -19.438770646325313 0.943325905353386 0.15 0.05667409464661399
v -0.7979783864264054 79.9433381536822 -20.55246758252411 1.0 0.15 0.0
l 69 70
l 70 71
l 71 72
l 72 73
l 73 74
l 74 75
l 75 76
l 76 77
l 77 78
l 78 79
l 79 80
l 80 81
l 81 82
l 82 83
l 83 84
l 84 85
v -5.926965727731639 -0.0019018773785127612 -18.999789549259237 0.0 0.15 1.0
v -5.7149989272608375 7.376119199790862 -18.20578011236908 0.07221780852226949 0.15 0.9277821914777306
v -5.161460706952154 14.510563347383957 -16.201170526984892 0.16598836260681762 0.15 0.8340116373931824
v -4.430534354728058 21.460604213213514 -13.66062826872389 0.27854044045887866 0.15 0.7214595595411213
l 86 87
l 87 88
l 88 89
v -4.053411160816054 56.05818003738254 -12.791246236968234 0.6747765401826609 0.15 0.32522345981733913
v -4.796515864716553 61.8783335747061 -14.908727306117878 0.7686802348986186 0.15 0.2313197651013814
v -5.3755830158187115 67.75351492659908 -16.93329943285561 0.8671488418822413 0.15 0.13285115811775872
v -5.966159233398555 80.00252451633392 -18.987481196100198 1.0 0.15 0.0
l 90 91
l 91 92
l 92 93
v -10.920885688998707 0.0551630455106034 -17.45551346271808 0.0 0.15 1.0
v -10.397008959724213 5.107329538184721 -16.4758419451541 0.057667051114035695 0.15 0.9423329488859643
v -9.694779758486312 10.07414172583727 -15.210654652822663 0.11830134194425909 0.15 0.8816986580557409
v -8.877208836017841 14.976716122259825 -13.774083668464499 0.18342064179644998 0.15 0.81657935820355
v -8.02029387592971 19.859260751659193 -12.29230745682711 0.2591318663596226 0.15 0.7408681336403774
v -7.284784085557185 24.77519124640702 -10.859114798732133 0.3329513675086352 0.15 0.6670486324913648
v -6.7905003449688355 29.752991112085514 -9.544036089436224 0.39028771574206955 0.15 0.6097122842579304
v -6.368677322359445 34.840089730429995 -8.713208812876179 0.44029515005471537 0.15 0.5597048499452846
v -6.210660822972848 40.00005739104549 -8.415985455553527 0.49999607876465685 0.15 0.5000039212353431
v -6.363285311313988 45.15995046364502 -8.717323507614594 0.5595985414015489 0.15 0.44040145859845115
v -6.781289939648991 50.24690815015435 -9.551019422095154 0.6096874342065283 0.15 0.39031256579347173
v -7.274595497100711 55.22510026949939 -10.864909712347623 0.666966887554391 0.15 0.33303311244560896
v -8.012108274581697 60.14098291461244 -12.297037988597799 0.7408355178406194 0.15 0.2591644821593806
v -8.876211892075734 65.02343822195878 -13.774909177917614 0.8165701448285677 0.15 0.1834298551714323
v -9.7036355582832 69.92592355848677 -15.20609574705492 0.88153996930171 0.15 0.11846003069829003
v -10.418556730496233 74.89269002349893 -16.46434975359706 0.9422428750634919 0.15 0.057757124936508086
v -10.95683659147059 79.94486971543274 -17.4361178524401 1.0 0.15 0.0
l 94 95
l 95 96
l 96 97
l 97 98
l 98 99
l 99 100
l 100 101
l 101 102
l 102 103
l 103 104
l 104 105
l 105 106
l 106 107
l 107 108
l 108 109
l 109 110
v -14.608400432148446 -0.0027559080305125283 -13.570629917832484 0.0 0.15 1.0
v -14.183581583305342 6.271573830359733 -13.128309158367761 0.07218181100747673 0.15 0.9278181889925232
v -13.045591231425492 12.380668514215447 -12.04225140373527 0.14937743157590871 0.15 0.8506225684240913
v -11.501944802696517 18.316626019153382 -10.550629581637846 0.2285852451319595 0.15 0.7714147548680406
v -10.03026535220052 24.1825856923003 -8.784805376402353 0.32932808708066785 0.15 0.6706719129193321
l 111 112
l 112 113
l 113 114
l 114 115
v -11.197224403032635 60.579471459827225 -10.240123982929228 0.7404188994282914 0.15 0.2595811005717086
v -12.870577352093951 66.8687227843861 -11.861261392714107 0.8464836834341678 0.15 0.1535163165658322
v -14.139772635974618 73.33894251229161 -13.065387243178677 0.9202297334457492 0.15 0.07977026655425079
v -14.638534045102997 80.00126067994613 -13.536177355572722 1.0 0.15 0.0
l 116 117
l 117 118
l 118 119
v -10.8604523018025 55.02877042044737 -7.312603486832889 0.6528077894017142 0.15 0.34719221059828576
v -12.051145549903227 53.798858662375224 -3.7136545792964317 0.6360586513407922 0.15 0.3639413486592078
l 120 121
v -18.1140205534032 0.05548442803281687 -9.668254898044893 0.0 0.15 1.0
v -17.16352803725087 5.105972359403916 -9.10504669515621 0.04654453973931995 0.15 0.9534554602606801
v -15.915377526457783 10.071530969574525 -8.385071567054986 0.10819862873454633 0.15 0.8918013712654537
v -14.483136658340404 14.97316360391242 -7.572149800798215 0.17276415433239045 0.15 0.8272358456676095
v -12.99579915490096 19.85463978604331 -6.736484609268861 0.27949122222568307 0.15 0.7205087777743169
v -11.601870416620685 24.76918039733722 -5.936677750691546 0.3445279928452135 0.15 0.6554720071547865
v -10.526155326089247 29.75531106980349 -5.103733187465814 0.3900793540978712 0.15 0.6099206459021288
v -9.749414276561922 34.842807734124605 -4.6241007449034095 0.44504537511407516 0.15 0.5549546248859248
v -9.464353327519893 40.0003214117527 -4.457521829307852 0.4999954291221531 0.15 0.5000045708778469
v -9.746108552711878 45.1578009569472 -4.630480078527635 0.5549433753791893 0.15 0.44505662462081075
v -10.520496661585298 50.24519489098623 -5.114768640268664 0.6101169951114169 0.15 0.3898830048885831
v -11.59599735696363 55.230740044422305 -5.947675621237194 0.6556541064019102 0.15 0.34434589359808976
v -12.99098820275958 60.14504475090763 -6.745267750981493 0.7206561402892977 0.15 0.2793438597107023
v -14.48224813565971 65.0265320655604 -7.573594992786177 0.8269062206654358 0.15 0.17309377933456416
v -15.920050697171252 69.92822752170493 -8.37616816257524 0.8914910464123943 0.15 0.1085089535876057
v -17.175076861610357 74.8938810923902 -9.08336611810472 0.9533072723025128 0.15 0.046692727697487224
v -18.133378385816144 79.94449200991197 -9.632041250225397 1.0 0.15 0.0
l 122 123
l 123 124
l 124 125
l 125 126
l 126 127
l 127 128
l 128 129
l 129 130
l 130 131
l 131 132
l 132 133
l 133 134
l 134 135
l 135 136
l 136 137
l 137 138
v -19.433422419009194 -0.0031334883490795823 -4.494885296558685 0.0 0.15 1.0
v -18.801035805761924 6.4820485666788725 -4.349283854143845 0.07574521199567084 0.15 0.9242547880043291
v -17.186533064479768 12.7879620691618 -3.937883737300307 0.1496321424230732 0.15 0.8503678575769268
v -15.002381926787605 18.916766108437447 -3.4264241983129686 0.24379625621627762 0.15 0.7562037437837223
v -12.66710572012185 24.99785598433506 -3.103401530478624 0.3459514236661446 0.15 0.6540485763338554
l 139 140
l 140 141
l 141 142
l 142 143
v -13.525524180274143 57.17025038744363 -3.062614703150781 0.6992562193971433 0.15 0.30074378060285667
v -15.61100180094926 62.712451813618 -3.583181608759408 0.7794575939536789 0.15 0.22054240604632114
v -17.524624994404558 68.32222672798875 -4.027767504653167 0.8586719993373771 0.15 0.14132800066262285
v -19.442955414202956 80.00238346655311 -4.463973272541393 1.0 0.15 0.0
l 144 145
l 145 146
l 146 147
v -20.569667428543372 0.05592566634047157 0.6303027547768277 0.0 0.15 1.0
v -19.460869557875114 5.107829072132507 0.6283193812270048 0.05748323922405967 0.15 0.9425167607759404
v -18.01517045631413 10.07420979213937 0.6096090130152779 0.11771657314518166 0.15 0.8822834268548183
v -16.36315157848987 14.976229634676983 0.5812762327748312 0.18395576907439426 0.15 0.8160442309256057
v -14.65233164481936 19.8580683848672 0.5470905377832196 0.25918476075199265 0.15 0.7408152392480074
v -13.038622494902652 24.772516554301873 0.5424022485126803 0.3391679427736188 0.15 0.6608320572263813
v -11.676641911734965 29.74955407044281 0.7204701447047788 0.3904648560617104 0.15 0.6095351439382897
v -10.766212747454487 34.83942466173452 0.6548371301293787 0.44254408449091415 0.15 0.5574559155090859
v -10.436814774223787 39.99918792050418 0.628093701709955 0.49997417052659965 0.15 0.5000258294734004
v -10.76672312304742 45.158953509773134 0.6473603022111308 0.5573205244538534 0.15 0.4426794755461466
v -11.677462354929766 50.24885534493018 0.7072169378604705 0.6093462303698426 0.15 0.3906537696301574
v -13.039631156410966 55.22623769783701 0.5277788908117547 0.6608490706779374 0.15 0.3391509293220626
v -14.652978417394968 60.14085938841051 0.5364199417201645 0.7408151466748919 0.15 0.2591848533251081
v -16.363047562674073 65.02291247890055 0.5789857766440315 0.8160441569442962 0.15 0.18395584305570378
v -18.01402018104475 69.92522128774546 0.6191970596409597 0.8825424985523044 0.15 0.11745750144769562
v -19.45840319783868 74.89190665635832 0.6525434319692353 0.942641151896512 0.15 0.057358848103488014
v -20.565654780715114 79.94411242092761 0.6714482062151234 1.0 0.15 0.0
l 148 149
l 149 150
l 150 151
l 151 152
l 152 153
l 153 154
l 154 155
l 155 156
l 156 157
l 157 158
l 158 159
l 159 160
l 160 161
l 161 162
l 162 163
l 163 164
v -19.0556381734672 -0.0018410505978660242 5.743200266267576 0.0 0.15 1.0
v -18.27762603913418 7.332312524592659 5.511168541021707 0.07169362249814301 0.15 0.928306377501857
v -16.308363952681525 14.425971968396336 4.908899200195025 0.16681388056982455 0.15 0.8331861194301755
v -13.8017933192625 21.335627280572734 4.132656447865028 0.28061673018300254 0.15 0.7193832698169975
l 165 166
l 166 167
l 167 168
v -12.24622546948796 54.055593753793644 3.367833981375024 0.6360943900708191 0.15 0.36390560992918086
v -14.442233122730032 60.37444895567616 4.322959599883404 0.7307559093892874 0.15 0.26924409061071264
v -16.683203523014434 66.73316240227611 5.035469158956379 0.8455096676131106 0.15 0.15449033238688936
v -18.386066936461283 73.26971078290842 5.558965814433684 0.9283370077695632 0.15 0.07166299223043682
v -19.04133541283918 80.0036052323277 5.785885829625347 1.0 0.15 0.0
l 169 170
l 170 171
l 171 172
l 172 173
v -17.51615182258571 0.05561464614958017 10.786923078370357 0.0 0.15 1.0
v -16.566630914638008 5.106751532255169 10.221589285545809 0.05715836170494385 0.15 0.9428416382950562
v -15.334963360238778 10.072434641866419 9.470326541576878 0.11714177546550877 0.15 0.8828582245344913
v -13.931821754441225 14.973744468305249 8.602911887716754 0.18395394232808615 0.15 0.8160460576719138
v -12.480861874662596 19.854645787724873 7.699635813880987 0.2602562576785858 0.15 0.7397437423214142
v -11.048346376663703 24.76800322605495 6.973185022752868 0.3460421326125614 0.15 0.6539578673874387
v -9.859278779862331 29.756682818997252 6.350575648710988 0.3919314363981266 0.15 0.6080685636018734
v -9.136092301480799 34.842584682756225 5.771826992126 0.4440902466830926 0.15 0.5559097533169074
v -8.872568747677352 40.00045221146877 5.564881429983471 0.5000058596752461 0.15 0.49999414032475387
v -9.139556865771349 45.158381844644815 5.7656364626721555 0.5559606436021663 0.15 0.44403935639783365
v -9.865335270938342 50.2444080051311 6.339947326837147 0.6080830612984708 0.15 0.3919169387015292
v -11.05539660227426 55.232842827752805 6.960660968184829 0.6539699133736815 0.15 0.3460300866263185
v -12.485964208420416 60.14620706840131 7.690816488522402 0.7397355466570313 0.15 0.26026445334296866
v -13.93293784914637 65.02691799681533 8.601392784212212 0.8160472176221002 0.15 0.1839527823778998
v -15.330430612303145 69.92798677637535 9.479136526669693 0.8828548750737334 0.15 0.11714512492626661
v -16.555181486273533 74.89343650679551 10.243124626993975 0.9427054682000588 0.15 0.05729453179994115
v -17.496738931976225 79.9443975992179 10.823175674683284 1.0 0.15 0.0
l 174 175
l 175 176
l 176 177
l 177 178
l 178 179
l 179 180
l 180 181
l 181 182
l 182 183
l 183 184
l 184 185
l 185 186
l 186 187
l 187 188
l 188 189
l 189 190
v -13.707517160621194 -0.0023002860327482034 14.496106242740815 0.0 0.15 1.0
v -13.338700540932392 5.99816686750128 14.076589086967882 0.06755791770311448 0.15 0.9324420822968855
v -12.337478156980055 11.848564128845759 13.014250432791716 0.14391421034461838 0.15 0.8560857896553816
v -10.993201718469235 17.53879829630571 11.526602054528965 0.22031015716788338 0.15 0.7796898428321166
v -9.735971605474525 23.14667161881755 9.750756358584841 0.3020111882818328 0.15 0.6979888117181672
l 191 192
l 192 193
l 193 194
l 194 195
v -9.742043100000112 56.874809574457885 9.756143734634144 0.6981156343626199 0.15 0.3018843656373801
v -11.001835989066512 62.47819450837825 11.528016899593995 0.7796982717612602 0.15 0.22030172823873984
v -12.334545584663775 68.1630966776254 13.021285188246162 0.8561066012626743 0.15 0.14389339873732565
v -13.677695017355385 80.0023057064583 14.520576786894395 1.0 0.15 0.0
l 196 197
l 197 198
l 198 199
v -9.795623414888794 0.05558443505289102 18.045992082922403 0.0 0.15 1.0
v -9.278366152126587 5.1061289322411865 17.07085332661698 0.04667620288554951 0.15 0.9533237971144505
v -8.6110320086098 10.07169709140831 15.794503521326721 0.10844165674681744 0.15 0.8915583432531826
v -7.850301508402192 14.973290180793105 14.334370607883963 0.17275306341390112 0.15 0.8272469365860988
v -7.063551926888412 19.854627085922033 12.820969342786562 0.2587844478772473 0.15 0.7412155521227527
v -6.2241323057862825 24.766200566543674 11.449658721106251 0.3330713161733298 0.15 0.6669286838266701
v -5.596164454179662 29.75622351179652 10.26270580834349 0.38779021956381526 0.15 0.6122097804361848
v -5.277737054939303 34.842492192686734 9.4002081392799 0.44138214022515954 0.15 0.5586178597748405
v -5.164967383126555 39.99960743706419 9.08634378761776 0.49999400086378865 0.15 0.5000059991362114
v -5.2835246879793125 45.156789681806345 9.397001759090601 0.558521636802439 0.15 0.44147836319756095
v -5.605893428149573 50.24319466749558 10.257292818343542 0.6121004094619881 0.15 0.38789959053801193
v -6.23385864061423 55.233314377139976 11.444236318908432 0.666760270176366 0.15 0.33323972982363403
v -7.071701247717077 60.14552748124746 12.816671815343588 0.7412402236561976 0.15 0.25875977634380243
v -7.851326260534701 65.02688610413675 14.333885698915948 0.8275984809174998 0.15 0.17240151908250023
v -8.601910977715663 69.92844832704934 15.799419843282596 0.8918825697933792 0.15 0.10811743020662079
v -9.25668412143264 74.89397670941116 17.08246272511284 0.9534779000998351 0.15 0.04652209990016487
v -9.75962550720271 79.94448652476562 18.06524915434307 1.0 0.15 0.0
l 200 201
l 201 202
l 202 203
l 203 204
l 204 205
l 205 206
l 206 207
l 207 208
l 208 209
l 209 210
l 210 211
l 211 212
l 212 213
l 213 214
l 214 215
l 215 216
v -4.682250132293086 -0.0019811408113501283 19.377198348951982 0.0 0.15 1.0
v -4.575904023408922 5.637808725238295 18.892598983173052 0.05908540571082271 0.15 0.9409145942891773
v -4.300699936328558 11.147466416390225 17.60935641718796 0.13053546598732765 0.15 0.8694645340126723
v -3.9211327916299688 16.508811063819145 15.814561548040771 0.2084928757455671 0.15 0.7915071242544329
v -3.532149289412172 21.791390007082075 13.799046318709923 0.2785416260764075 0.15 0.7214583739235925
l 217 218
l 218 219
l 219 220
l 220 221
v -3.5222491677358665 55.87134724086099 12.878765334980995 0.6747722710228085 0.15 0.32522772897719154
v -3.778271017626185 61.72632097143045 15.15689997199752 0.7747453909272553 0.15 0.22525460907274475
v -4.214425780829219 67.64853131311831 17.252350743283092 0.8511261033583822 0.15 0.14887389664161776
v -4.538284049021488 73.74335389717126 18.78679919497563 0.9282867253543687 0.15 0.07171327464563126
v -4.640771769992024 80.00281589250784 19.389397214477942 1.0 0.15 0.0
l 222 223
l 223 224
l 224 225
l 225 226
v 0.5056661564860315 0.054963502065107 20.58686936014734 0.0 0.15 1.0
v 0.4364296110521131 5.105840245695974 19.48149845843474 0.05773820409517693 0.15 0.9422617959048231
v 0.3474764134826858 10.071510205772675 18.04039899154832 0.11842858830503822 0.15 0.8815714116949618
v 0.25229382417715474 14.972968007084985 16.393144267136122 0.18335434342743073 0.15 0.8166456565725693
v 0.1612051126859411 19.85426569879788 14.68623769092235 0.25764746577546377 0.15 0.7423525342245363
v 0.05908242172880748 24.769255797071203 13.080243386560339 0.33066423803129547 0.15 0.6693357619687046
v -0.043591190451195055 29.76007401536487 11.735357813524434 0.3879005223203155 0.15 0.6120994776796844
v -0.2235049505527487 34.842356128607015 10.805422935784161 0.44171114734893796 0.15 0.5582888526510621
v -0.28906594930419116 39.99975567511903 10.46797791242854 0.500011769202632 0.15 0.499988230797368
v -0.22931069529117565 45.15724958782178 10.805020800170816 0.5583502029366858 0.15 0.4416497970633142
v -0.052529972164932826 50.23966432674481 11.734783850235992 0.6141466247346477 0.15 0.38585337526535235
v 0.04900623206475194 55.23033609100585 13.08094071158814 0.6693825179261534 0.15 0.33061748207384656
v 0.1530560261413826 60.14535529701095 14.686729098128808 0.7423941683671166 0.15 0.2576058316328834
v 0.2518829119362829 65.02675389679673 16.39292626620637 0.8168037224304371 0.15 0.18319627756956292
v 0.35788456506932764 69.9283229395487 18.039212913827882 0.8817169739349952 0.15 0.11828302606500485
v 0.4608132208365066 74.89408273507355 19.479060670575972 0.9423478902417045 0.15 0.05765210975829549
v 0.5459302871300755 79.94502198131622 20.583032618518246 1.0 0.15 0.0
l 227 228
l 228 229
l 229 230
l 230 231
l 231 232
l 232 233
l 233 234
l 234 235
l 235 236
l 236 237
l 237 238
l 238 239
l 239 240
l 240 241
l 241 242
l 242 243
v 5.537217973220156 -0.0006467507160792769 19.115752850912138 0.0 0.15 1.0
v 5.368163553282085 6.693243186282317 18.451924412137263 0.07136784801414503 0.15 0.9286321519858549
v 4.757100448835231 13.191993111071945 16.794168319721162 0.15811876279402332 0.15 0.8418812372059767
v 4.096486675875526 19.513769038171443 14.556366095330043 0.25010341576822087 0.15 0.7498965842317791
v 4.29593845926658 25.640940284588893 12.073797106951357 0.3555772796441445 0.15 0.6444227203558555
l 244 245
l 245 246
l 246 247
l 247 248
v 10.305492993419145 -0.0011000383881447225 17.058721758344472 0.0 0.15 1.0
v 9.934956807413437 6.578110482756925 16.499605895075575 0.07889957998411859 0.15 0.9211004200158814
v 8.979472681162612 12.970681587976221 15.078280883854232 0.16084253982971883 0.15 0.8391574601702811
v 7.660386732757912 19.17942278311302 13.191342931000946 0.2420933442792137 0.15 0.7579066557207863
l 249 250
l 250 251
l 251 252
v 3.9095710311721286 58.54353362296395 13.820339348894183 0.7221945966454526 0.15 0.2778054033545474
v 4.648018628511789 65.49223914691238 16.357944306262684 0.8337747294651873 0.15 0.16622527053481273
v 5.320735835319235 72.62525437827205 18.32570003695546 0.9278260748841167 0.15 0.07217392511588328
v 5.593628299874088 80.00189182490473 19.100905385277265 1.0 0.15 0.0
l 253 254
l 254 255
l 255 256
v 8.375873812587312 58.751387886224244 11.810104789672323 0.7150699890598902 0.15 0.28493001094010983
v 8.669073727173398 65.50296910295557 14.650121064514044 0.8281705848506451 0.15 0.1718294151493549
v 10.339669650367433 80.0006780571639 17.04138136439938 1.0 0.15 0.0
l 257 258
l 258 259
v 15.117892018852576 0.07377024172627351 14.073891607073758 0.0 0.15 1.0
v 14.055045891346502 5.177633870442058 13.50685710397827 0.05889462271903183 0.15 0.9411053772809682
v 12.754540947861493 10.192558997593064 12.691355626414822 0.12108852030499757 0.15 0.8789114796950024
v 11.29351983171463 15.140691217261855 11.74660818567857 0.19347587114289913 0.15 0.8065241288571009
v 9.641675726292409 20.042073969095036 10.882844243011451 0.2570663292008215 0.15 0.7429336707991785
v 7.439010467310719 24.664287121333416 10.755840335447347 0.3242037571089245 0.15 0.6757962428910755
v 5.886587300874165 29.62958372447695 10.113385399007246 0.37737292343355383 0.15 0.6226270765664461
v 5.0669562276948446 34.77039746448685 9.506019642266782 0.435199838004304 0.15 0.5648001619956959
v 4.805061997762353 39.999873069954674 9.2618644410324 0.5000512378796822 0.15 0.4999487621203178
v 5.062382329251636 45.22944631875873 9.508733986966073 0.5646840395817508 0.15 0.43531596041824916
v 5.880775109025389 50.370362966244144 10.117036276307187 0.622913673642694 0.15 0.377086326357306
v 7.436118772575785 55.33506481297348 10.758009076200826 0.6759394022293417 0.15 0.3240605977706583
v 9.637373523702012 59.960125387128876 10.887145166958145 0.7430472430770522 0.15 0.25695275692294783
v 11.294091662079259 64.86076617013944 11.74613536733789 0.8063888391274844 0.15 0.19361116087251562
v 12.761850091649238 69.8084783844489 12.68260650974753 0.8790749766943103 0.15 0.12092502330568966
v 14.07079984882727 74.82286523375114 13.487833668116618 0.9412124853664158 0.15 0.058787514633584226
v 15.143204136982245 79.92599451241415 14.043366230228674 1.0 0.15 0.0
l 260 261
l 261 262
l 262 263
l 263 264
l 264 265
l 265 266
l 266 267
l 267 268
l 268 269
l 269 270
l 270 271
l 271 272
l 272 273
l 273 274
l 274 275
l 275 276
v 18.02614225947278 0.056441500602001884 9.8524664646522 0.0 0.15 1.0
v 16.99670137992175 5.111138924763972 9.421356573494851 0.04763035424217499 0.15 0.952369645757825
v 15.676827124598159 10.080598161215399 8.819174533105683 0.10919674817016378 0.15 0.8908032518298362
v 14.165653950792418 14.985459974683149 8.138105508349428 0.18416156845959417 0.15 0.8158384315404058
v 12.546964867965666 19.866333675778684 7.5378964250882206 0.25057955912544094 0.15 0.7494204408745591
v 10.937051028168838 24.77093794855411 7.141846054311478 0.3137375308688332 0.15 0.6862624691311667
v 9.576461197221686 29.74875634133407 6.735336083601966 0.3772485893404511 0.15 0.6227514106595489
v 8.710573759846408 34.83708615721767 6.362075895013748 0.4347548327335159 0.15 0.5652451672664841
v 8.41453643038615 40.000723732798264 6.204483352938409 0.5000209694747009 0.15 0.49997903052529913
v 8.707047339014151 45.16440808113445 6.366956002300608 0.5654072561624518 0.15 0.4345927438375482
v 9.571334590904822 50.2528135761586 6.742690380284721 0.6227924258086588 0.15 0.3772075741913412
v 10.933083286531424 55.23024706609389 7.149715068864715 0.6863698479779191 0.15 0.3136301520220809
v 12.544210105292105 60.13465320715228 7.543402395607303 0.7495249131062552 0.15 0.25047508689374476
v 14.166192317050735 65.01521937298403 8.137278822213258 0.8160439079026006 0.15 0.18395609209739938
v 15.682375081597067 69.919850157426 8.808923569289314 0.8911920920347315 0.15 0.10880790796526851
v 17.00846881586562 74.8890602733453 9.399462579905995 0.9525623628825057 0.15 0.04743763711749427
v 18.045102391875567 79.94341564953969 9.817158213808028 1.0 0.15 0.0
l 277 278
l 278 279
l 279 280
l 280 281
l 281 282
l 282 283
l 283 284
l 284 285
l 285 286
l 286 287
l 287 288
l 288 289
l 289 290
l 290 291
l 291 292
l 292 293
v 19.912866052550772 0.055031669273510726 5.099949596705143 0.0 0.15 1.0
v 18.86636613575313 5.105385855716795 4.742199249422433 0.06210980878083587 0.15 0.9378901912191642
v 17.501847081082488 10.070477688602244 4.273829519784975 0.11872399989401276 0.15 0.8812760001059873
v 15.93808443384535 14.971302004441549 3.749084976901286 0.1818512131852432 0.15 0.8181487868147568
v 14.311422892735893 19.852725540909706 3.2336553941715613 0.2471208098432405 0.15 0.7528791901567595
v 12.773178431025228 24.767470918685277 2.7679625840203563 0.31226088726711565 0.15 0.6877391127328844
v 11.497559398224277 29.75948869903156 2.340769647146043 0.37389014521640623 0.15 0.6261098547835937
v 10.628015070434504 34.84316513553882 1.992525630783434 0.43860017946679425 0.15 0.5613998205332058
v 10.317098285340643 39.99981403489554 1.8558259755618052 0.5000034684471518 0.15 0.4999965315528482
v 10.627034249832809 45.15634111778909 1.9994492238883883 0.561403017068922 0.15 0.43859698293107796
v 11.494515633932211 50.24019969004436 2.3507182345593365 0.625982344504297 0.15 0.374017655495703
v 12.77031846822468 55.23221959527343 2.77728693613162 0.6878399346393004 0.15 0.3121600653606996
v 14.30969122392725 60.14696471612914 3.2392313478351262 0.7529254994576992 0.15 0.24707450054230085
v 15.938453618293021 65.02841633768058 3.747739379124362 0.8181628695193544 0.15 0.18183713048064565
v 17.50525952700494 69.92932626290285 4.2625066956272475 0.8812830182956409 0.15 0.11871698170435907
v 18.873552822700283 74.8945326429781 4.718439790463352 0.9415706671910695 0.15 0.05842933280893048
v 19.924426154863653 79.94498430389909 5.061684587993866 1.0 0.15 0.0
l 294 295
l 295 296
l 296 297
l 297 298
l 298 299
l 299 300
l 300 301
l 301 302
l 302 303
l 303 304
l 304 305
l 305 306
l 306 307
l 307 308
l 308 309
l 309 310
v 19.88640556473351 -0.000722140118977712 -1.1490790931986103 0.0 0.15 1.0
v 19.308902841618924 6.14509103066193 -0.9968593323316208 0.07454589664715841 0.15 0.9254541033528416
v 17.832199518045407 12.130407219667267 -0.5841029157895999 0.15175817026462454 0.15 0.8482418297353754
v 15.802889749419718 17.940789811543382 0.0002631937090807278 0.21766441412252174 0.15 0.7823355858774783
l 311 312
l 312 313
l 313 314
v 15.811692247387583 62.08168932510319 0.0002663864729681646 0.7823355858774782 0.15 0.2176644141225218
v 17.835846035099653 67.88478986087921 -0.5944729775745556 0.8482338422251581 0.15 0.15176615777484193
v 19.882739696893804 80.00071649532465 -1.1864370539661573 1.0 0.15 0.0
l 315 316
l 316 317
