# KnittingStitches from conjugate-height scales + smooth
v 9.324274923199225 0.05813505057533212 -0.4445650461390537 0.55 0.55 0.55
v 10.395380827419343 5.108551975257649 -0.8314891794369279 0.55 0.55 0.55
v 8.931104838164353 5.110667062502956 -5.411538806004896 0.55 0.55 0.55
v 7.892549163161945 0.058544563242925285 -5.011759366861332 0.55 0.55 0.55
v 7.892549163161945 0.058544563242925285 -5.011759366861332 0.55 0.55 0.55
v 8.931104838164353 5.110667062502956 -5.411538806004896 0.55 0.55 0.55
v 5.566803292854995 5.160679163381224 -8.855505276849152 0.55 0.55 0.55
v 4.480329751642238 0.0868916334533659 -8.319723811064197 0.55 0.55 0.55
v 4.480329751642238 0.0868916334533659 -8.319723811064197 0.55 0.55 0.55
v 5.566803292854995 5.160679163381224 -8.855505276849152 0.55 0.55 0.55
v 0.7916505799734792 5.1117494547390345 -10.39975519791953 0.55 0.55 0.55
v 0.6347933783781294 0.05958280298467234 -9.305229506379192 0.55 0.55 0.55
v 0.6347933783781294 0.05958280298467234 -9.305229506379192 0.55 0.55 0.55
v 0.7916505799734792 5.1117494547390345 -10.39975519791953 0.55 0.55 0.55
v -4.183544129711313 5.112108527880126 -9.586818350202762 0.55 0.55 0.55
v -3.734351503977967 0.06010500441363548 -8.574608298680861 0.55 0.55 0.55
v -3.734351503977967 0.06010500441363548 -8.574608298680861 0.55 0.55 0.55
v -4.183544129711313 5.112108527880126 -9.586818350202762 0.55 0.55 0.55
v -8.161224468844475 5.404307301796159 -6.54401115494929 0.55 0.55 0.55
v -7.867184501792806 0.09695863431130625 -5.906135266683078 0.55 0.55 0.55
v -7.867184501792806 0.09695863431130625 -5.906135266683078 0.55 0.55 0.55
v -8.161224468844475 5.404307301796159 -6.54401115494929 0.55 0.55 0.55
v -10.305228252645199 5.122332824228759 -1.7672044416843735 0.55 0.55 0.55
v -9.198420965975966 0.0652528350869018 -1.725097424824695 0.55 0.55 0.55
v -9.198420965975966 0.0652528350869018 -1.725097424824695 0.55 0.55 0.55
v -10.305228252645199 5.122332824228759 -1.7672044416843735 0.55 0.55 0.55
v -9.867225674051474 5.120192633065427 3.39469631534643 0.55 0.55 0.55
v -8.895223211586863 0.06463425785591452 2.8393681942015414 0.55 0.55 0.55
v -8.895223211586863 0.06463425785591452 2.8393681942015414 0.55 0.55 0.55
v -9.867225674051474 5.120192633065427 3.39469631534643 0.55 0.55 0.55
v -7.074269993356102 5.123753247063168 7.686009902125857 0.55 0.55 0.55
v -6.541049440046498 0.06675125219291378 6.693444749782931 0.55 0.55 0.55
v -6.541049440046498 0.06675125219291378 6.693444749782931 0.55 0.55 0.55
v -7.074269993356102 5.123753247063168 7.686009902125857 0.55 0.55 0.55
v -2.631066605447762 5.132054015592212 10.099864534514447 0.55 0.55 0.55
v -2.6976537638874203 0.07374647765695622 8.96060709283589 0.55 0.55 0.55
v -2.6976537638874203 0.07374647765695622 8.96060709283589 0.55 0.55 0.55
v -2.631066605447762 5.132054015592212 10.099864534514447 0.55 0.55 0.55
v 2.4254476775606695 5.156368991722422 10.167584015536201 0.55 0.55 0.55
v 1.755565442148394 0.0862745498339094 9.220592522487046 0.55 0.55 0.55
v 1.755565442148394 0.0862745498339094 9.220592522487046 0.55 0.55 0.55
v 2.4254476775606695 5.156368991722422 10.167584015536201 0.55 0.55 0.55
v 6.7848893244182715 5.136835299388704 7.930146644108469 0.55 0.55 0.55
v 5.717553208173654 0.07392532718259237 7.446557363070015 0.55 0.55 0.55
v 5.717553208173654 0.07392532718259237 7.446557363070015 0.55 0.55 0.55
v 6.7848893244182715 5.136835299388704 7.930146644108469 0.55 0.55 0.55
v 9.63969693888489 5.106521156355699 4.083042378972845 0.55 0.55 0.55
v 8.608875335790831 0.05602020464079401 3.689343311836608 0.55 0.55 0.55
v 8.608875335790831 0.05602020464079401 3.689343311836608 0.55 0.55 0.55
v 9.63969693888489 5.106521156355699 4.083042378972845 0.55 0.55 0.55
v 10.395380827419343 5.108551975257649 -0.8314891794369279 0.55 0.55 0.55
v 9.324274923199225 0.05813505057533212 -0.4445650461390537 0.55 0.55 0.55
v 10.395380827419343 5.108551975257649 -0.8314891794369279 0.55 0.55 0.55
v 11.789530392652544 10.06747813667076 -1.3564064132746014 0.55 0.55 0.55
v 10.285404328104901 10.076440335199552 -5.934501351326938 0.55 0.55 0.55
v 8.931104838164353 5.110667062502956 -5.411538806004896 0.55 0.55 0.55
v 8.931104838164353 5.110667062502956 -5.411538806004896 0.55 0.55 0.55
v 10.285404328104901 10.076440335199552 -5.934501351326938 0.55 0.55 0.55
v 6.98092347313306 10.125612708757517 -9.604429140663415 0.55 0.55 0.55
v 5.566803292854995 5.160679163381224 -8.855505276849152 0.55 0.55 0.55
v 5.566803292854995 5.160679163381224 -8.855505276849152 0.55 0.55 0.55
v 6.98092347313306 10.125612708757517 -9.604429140663415 0.55 0.55 0.55
v 1.107323441801986 10.075981282933148 -11.816755298032446 0.55 0.55 0.55
v 0.7916505799734792 5.1117494547390345 -10.39975519791953 0.55 0.55 0.55
v 0.7916505799734792 5.1117494547390345 -10.39975519791953 0.55 0.55 0.55
v 1.107323441801986 10.075981282933148 -11.816755298032446 0.55 0.55 0.55
v -4.6838736560651 10.075915600441066 -10.952546524309724 0.55 0.55 0.55
v -4.183544129711313 5.112108527880126 -9.586818350202762 0.55 0.55 0.55
v -4.183544129711313 5.112108527880126 -9.586818350202762 0.55 0.55 0.55
v -4.6838736560651 10.075915600441066 -10.952546524309724 0.55 0.55 0.55
v -8.891811931382549 10.59791316628516 -7.6256773168488 0.55 0.55 0.55
v -8.161224468844475 5.404307301796159 -6.54401115494929 0.55 0.55 0.55
v -8.161224468844475 5.404307301796159 -6.54401115494929 0.55 0.55 0.55
v -8.891811931382549 10.59791316628516 -7.6256773168488 0.55 0.55 0.55
v -11.742588719778192 10.09405859864457 -1.9125485941437692 0.55 0.55 0.55
v -10.305228252645199 5.122332824228759 -1.7672044416843735 0.55 0.55 0.55
v -10.305228252645199 5.122332824228759 -1.7672044416843735 0.55 0.55 0.55
v -11.742588719778192 10.09405859864457 -1.9125485941437692 0.55 0.55 0.55
v -11.15405689889002 10.088714366978838 4.0828445488158955 0.55 0.55 0.55
v -9.867225674051474 5.120192633065427 3.39469631534643 0.55 0.55 0.55
v -9.867225674051474 5.120192633065427 3.39469631534643 0.55 0.55 0.55
v -11.15405689889002 10.088714366978838 4.0828445488158955 0.55 0.55 0.55
v -7.799176450743231 10.093611071434132 8.959380799591695 0.55 0.55 0.55
v -7.074269993356102 5.123753247063168 7.686009902125857 0.55 0.55 0.55
v -7.074269993356102 5.123753247063168 7.686009902125857 0.55 0.55 0.55
v -7.799176450743231 10.093611071434132 8.959380799591695 0.55 0.55 0.55
v -2.59953409585124 10.099961432547786 11.58708432790022 0.55 0.55 0.55
v -2.631066605447762 5.132054015592212 10.099864534514447 0.55 0.55 0.55
v -2.631066605447762 5.132054015592212 10.099864534514447 0.55 0.55 0.55
v -2.59953409585124 10.099961432547786 11.58708432790022 0.55 0.55 0.55
v 3.300784212176952 10.13072946710793 11.409206287618067 0.55 0.55 0.55
v 2.4254476775606695 5.156368991722422 10.167584015536201 0.55 0.55 0.55
v 2.4254476775606695 5.156368991722422 10.167584015536201 0.55 0.55 0.55
v 3.300784212176952 10.13072946710793 11.409206287618067 0.55 0.55 0.55
v 8.188212790405878 10.098025403587489 8.581343034505194 0.55 0.55 0.55
v 6.7848893244182715 5.136835299388704 7.930146644108469 0.55 0.55 0.55
v 6.7848893244182715 5.136835299388704 7.930146644108469 0.55 0.55 0.55
v 8.188212790405878 10.098025403587489 8.581343034505194 0.55 0.55 0.55
v 10.988647554909376 10.070843794047999 4.5975519617481755 0.55 0.55 0.55
v 9.63969693888489 5.106521156355699 4.083042378972845 0.55 0.55 0.55
v 9.63969693888489 5.106521156355699 4.083042378972845 0.55 0.55 0.55
v 10.988647554909376 10.070843794047999 4.5975519617481755 0.55 0.55 0.55
v 11.789530392652544 10.06747813667076 -1.3564064132746014 0.55 0.55 0.55
v 10.395380827419343 5.108551975257649 -0.8314891794369279 0.55 0.55 0.55
v 11.789530392652544 10.06747813667076 -1.3564064132746014 0.55 0.55 0.55
v 13.387989125154808 14.962784573614313 -1.9005024771204277 0.55 0.55 0.55
v 11.883843920797581 14.972110690539697 -6.432894451541561 0.55 0.55 0.55
v 10.285404328104901 10.076440335199552 -5.934501351326938 0.55 0.55 0.55
v 10.285404328104901 10.076440335199552 -5.934501351326938 0.55 0.55 0.55
v 11.883843920797581 14.972110690539697 -6.432894451541561 0.55 0.55 0.55
v 8.76618436523426 14.985852883512043 -10.23894874686999 0.55 0.55 0.55
v 6.98092347313306 10.125612708757517 -9.604429140663415 0.55 0.55 0.55
v 6.98092347313306 10.125612708757517 -9.604429140663415 0.0 1.0 0.0
v 8.76618436523426 14.985852883512043 -10.23894874686999 0.0 1.0 0.0
v 4.554866456917228 17.51090498565465 -13.111239077090943 0.0 1.0 0.0
v 1.0895731475873767 14.961278684981664 -13.467070232556235 0.0 1.0 0.0
v 1.107323441801986 10.075981282933148 -11.816755298032446 0.0 1.0 0.0
v 1.107323441801986 10.075981282933148 -11.816755298032446 0.0 1.0 0.0
v 1.0895731475873767 14.961278684981664 -13.467070232556235 0.0 1.0 0.0
v -2.841613636007545 19.945944307571008 -14.634616767486886 0.0 1.0 0.0
v -5.5338344154740575 14.970420577998327 -12.363295920239054 0.0 1.0 0.0
v -4.6838736560651 10.075915600441066 -10.952546524309724 0.0 1.0 0.0
v -4.6838736560651 10.075915600441066 -10.952546524309724 0.55 0.55 0.55
v -5.5338344154740575 14.970420577998327 -12.363295920239054 0.55 0.55 0.55
v -9.288474360842145 15.426806056957926 -9.544532738411172 0.55 0.55 0.55
v -8.891811931382549 10.59791316628516 -7.6256773168488 0.55 0.55 0.55
v -8.891811931382549 10.59791316628516 -7.6256773168488 0.0 1.0 0.0
v -9.288474360842145 15.426806056957926 -9.544532738411172 0.0 1.0 0.0
v -12.064339297208662 19.74235042023564 -8.381123913947771 0.0 1.0 0.0
v -15.077407609340662 22.612574296193753 -5.455270367718839 0.0 1.0 0.0
v -13.418797744744111 14.93895070093368 -1.4942837790484975 0.0 1.0 0.0
v -11.742588719778192 10.09405859864457 -1.9125485941437692 0.0 1.0 0.0
v -11.742588719778192 10.09405859864457 -1.9125485941437692 0.0 1.0 0.0
v -13.418797744744111 14.93895070093368 -1.4942837790484975 0.0 1.0 0.0
v -14.563263844061012 19.673042183509097 2.497577826294972 0.0 1.0 0.0
v -12.459549426652467 14.936448047074602 5.288885416351 0.0 1.0 0.0
v -11.15405689889002 10.088714366978838 4.0828445488158955 0.0 1.0 0.0
v -11.15405689889002 10.088714366978838 4.0828445488158955 0.0 1.0 0.0
v -12.459549426652467 14.936448047074602 5.288885416351 0.0 1.0 0.0
v -10.329097203258643 16.20670670245548 8.47838324962952 0.0 1.0 0.0
v -8.343863166318258 14.957994665988698 10.627480929726362 0.0 1.0 0.0
v -7.799176450743231 10.093611071434132 8.959380799591695 0.0 1.0 0.0
v -7.799176450743231 10.093611071434132 8.959380799591695 0.0 1.0 0.0
v -8.343863166318258 14.957994665988698 10.627480929726362 0.0 1.0 0.0
v -3.759543413957965 15.505178778467858 12.666257755645727 0.0 1.0 0.0
v -2.2316386381812703 14.950249701457595 13.334774163123637 0.0 1.0 0.0
v -2.59953409585124 10.099961432547786 11.58708432790022 0.0 1.0 0.0
v -2.59953409585124 10.099961432547786 11.58708432790022 0.0 1.0 0.0
v -2.2316386381812703 14.950249701457595 13.334774163123637 0.0 1.0 0.0
v 2.200841511725868 19.440469772457128 14.502193305189156 0.0 1.0 0.0
v 4.975528483926514 14.868291447560267 12.558203076278895 0.0 1.0 0.0
v 3.300784212176952 10.13072946710793 11.409206287618067 0.0 1.0 0.0
v 3.300784212176952 10.13072946710793 11.409206287618067 0.0 1.0 0.0
v 4.975528483926514 14.868291447560267 12.558203076278895 0.0 1.0 0.0
v 9.257264675637705 20.846393719812 12.076703173021428 0.0 1.0 0.0
v 9.939595910110981 14.957921561459617 9.150999321946005 0.0 1.0 0.0
v 8.188212790405878 10.098025403587489 8.581343034505194 0.0 1.0 0.0
v 8.188212790405878 10.098025403587489 8.581343034505194 0.55 0.55 0.55
v 9.939595910110981 14.957921561459617 9.150999321946005 0.55 0.55 0.55
v 12.56847614670662 14.96766843769296 5.106954112103543 0.55 0.55 0.55
v 10.988647554909376 10.070843794047999 4.5975519617481755 0.55 0.55 0.55
v 10.988647554909376 10.070843794047999 4.5975519617481755 0.0 1.0 0.0
v 12.56847614670662 14.96766843769296 5.106954112103543 0.0 1.0 0.0
v 12.836326740660784 14.781321288353709 0.19667655527759054 0.0 1.0 0.0
v 13.387989125154808 14.962784573614313 -1.9005024771204277 0.0 1.0 0.0
v 11.789530392652544 10.06747813667076 -1.3564064132746014 0.0 1.0 0.0
v 13.387989125154808 14.962784573614313 -1.9005024771204277 0.55 0.55 0.55
v 15.049243061199109 19.840221259354415 -2.4174206496553725 0.55 0.55 0.55
v 13.572389467320054 19.842439949918592 -6.882568492148461 0.55 0.55 0.55
v 11.883843920797581 14.972110690539697 -6.432894451541561 0.55 0.55 0.55
v 11.883843920797581 14.972110690539697 -6.432894451541561 0.55 0.55 0.55
v 13.572389467320054 19.842439949918592 -6.882568492148461 0.55 0.55 0.55
v 10.911881452304886 19.7140349028626 -10.537151321720838 0.55 0.55 0.55
v 8.76618436523426 14.985852883512043 -10.23894874686999 0.55 0.55 0.55
v 8.76618436523426 14.985852883512043 -10.23894874686999 0.0 1.0 0.0
v 10.911881452304886 19.7140349028626 -10.537151321720838 0.0 1.0 0.0
v 8.193526941857343 19.6181071275221 -12.309497576865976 0.0 1.0 0.0
v 5.2497672617578734 22.913070561578497 -15.273489998922845 0.0 1.0 0.0
v 4.554866456917228 17.51090498565465 -13.111239077090943 0.0 1.0 0.0
v 4.554866456917228 17.51090498565465 -13.111239077090943 0.55 0.55 0.55
v 5.2497672617578734 22.913070561578497 -15.273489998922845 0.55 0.55 0.55
v 1.0955751869611627 19.838631450031674 -15.178156070401341 0.55 0.55 0.55
v 1.0895731475873767 14.961278684981664 -13.467070232556235 0.55 0.55 0.55
v 1.0895731475873767 14.961278684981664 -13.467070232556235 0.55 0.55 0.55
v 1.0955751869611627 19.838631450031674 -15.178156070401341 0.55 0.55 0.55
v -3.179986832554828 25.57901702739382 -16.870042888425253 0.55 0.55 0.55
v -2.841613636007545 19.945944307571008 -14.634616767486886 0.55 0.55 0.55
v -2.841613636007545 19.945944307571008 -14.634616767486886 0.55 0.55 0.55
v -3.179986832554828 25.57901702739382 -16.870042888425253 0.55 0.55 0.55
v -6.547345953376723 19.839889360766687 -13.749649421161923 0.55 0.55 0.55
v -5.5338344154740575 14.970420577998327 -12.363295920239054 0.55 0.55 0.55
v -5.5338344154740575 14.970420577998327 -12.363295920239054 0.55 0.55 0.55
v -6.547345953376723 19.839889360766687 -13.749649421161923 0.55 0.55 0.55
v -9.94911477697055 20.388437731456442 -11.349102897493454 0.55 0.55 0.55
v -9.288474360842145 15.426806056957926 -9.544532738411172 0.55 0.55 0.55
v -9.288474360842145 15.426806056957926 -9.544532738411172 0.55 0.55 0.55
v -9.94911477697055 20.388437731456442 -11.349102897493454 0.55 0.55 0.55
v -13.84133178322956 24.55053668462021 -9.589903123705781 0.55 0.55 0.55
v -12.064339297208662 19.74235042023564 -8.381123913947771 0.55 0.55 0.55
v -12.064339297208662 19.74235042023564 -8.381123913947771 0.55 0.55 0.55
v -13.84133178322956 24.55053668462021 -9.589903123705781 0.55 0.55 0.55
v -16.792334288957264 27.8244561510823 -6.091890943571132 0.55 0.55 0.55
v -15.077407609340662 22.612574296193753 -5.455270367718839 0.55 0.55 0.55
v -15.077407609340662 22.612574296193753 -5.455270367718839 0.55 0.55 0.55
v -16.792334288957264 27.8244561510823 -6.091890943571132 0.55 0.55 0.55
v -15.137605701075554 19.81974016282001 -1.429917219675172 0.55 0.55 0.55
v -13.418797744744111 14.93895070093368 -1.4942837790484975 0.55 0.55 0.55
v -13.418797744744111 14.93895070093368 -1.4942837790484975 0.55 0.55 0.55
v -15.137605701075554 19.81974016282001 -1.429917219675172 0.55 0.55 0.55
v -16.78778203474054 25.265433522429408 2.8827212158423885 0.55 0.55 0.55
v -14.563263844061012 19.673042183509097 2.497577826294972 0.55 0.55 0.55
v -14.563263844061012 19.673042183509097 2.497577826294972 0.55 0.55 0.55
v -16.78778203474054 25.265433522429408 2.8827212158423885 0.55 0.55 0.55
v -13.8975061872106 19.81863845998056 6.232929944347542 0.55 0.55 0.55
v -12.459549426652467 14.936448047074602 5.288885416351 0.55 0.55 0.55
v -12.459549426652467 14.936448047074602 5.288885416351 0.55 0.55 0.55
v -13.8975061872106 19.81863845998056 6.232929944347542 0.55 0.55 0.55
v -12.003544341671994 21.280611125808385 9.840539820551076 0.55 0.55 0.55
v -10.329097203258643 16.20670670245548 8.47838324962952 0.55 0.55 0.55
v -10.329097203258643 16.20670670245548 8.47838324962952 0.55 0.55 0.55
v -12.003544341671994 21.280611125808385 9.840539820551076 0.55 0.55 0.55
v -9.006654908571122 19.811240021965784 12.274564927358862 0.55 0.55 0.55
v -8.343863166318258 14.957994665988698 10.627480929726362 0.55 0.55 0.55
v -8.343863166318258 14.957994665988698 10.627480929726362 0.55 0.55 0.55
v -9.006654908571122 19.811240021965784 12.274564927358862 0.55 0.55 0.55
v -5.495655263244537 20.82700896185938 14.25360654509428 0.55 0.55 0.55
v -3.759543413957965 15.505178778467858 12.666257755645727 0.55 0.55 0.55
v -3.759543413957965 15.505178778467858 12.666257755645727 0.55 0.55 0.55
v -5.495655263244537 20.82700896185938 14.25360654509428 0.55 0.55 0.55
v -1.7845723279136156 19.791283925097336 15.083673450467105 0.55 0.55 0.55
v -2.2316386381812703 14.950249701457595 13.334774163123637 0.55 0.55 0.55
v -2.2316386381812703 14.950249701457595 13.334774163123637 0.55 0.55 0.55
v -1.7845723279136156 19.791283925097336 15.083673450467105 0.55 0.55 0.55
v 2.6055780161310254 25.01670539727223 16.727153656489207 0.55 0.55 0.55
v 2.200841511725868 19.440469772457128 14.502193305189156 0.55 0.55 0.55
v 2.200841511725868 19.440469772457128 14.502193305189156 0.55 0.55 0.55
v 2.6055780161310254 25.01670539727223 16.727153656489207 0.55 0.55 0.55
v 5.971665195099167 19.7358362725757 13.983150059055038 0.55 0.55 0.55
v 4.975528483926514 14.868291447560267 12.558203076278895 0.55 0.55 0.55
v 4.975528483926514 14.868291447560267 12.558203076278895 0.55 0.55 0.55
v 5.971665195099167 19.7358362725757 13.983150059055038 0.55 0.55 0.55
v 10.744276531733862 26.12529687955903 13.532878136603719 0.55 0.55 0.55
v 9.257264675637705 20.846393719812 12.076703173021428 0.55 0.55 0.55
v 9.257264675637705 20.846393719812 12.076703173021428 0.55 0.55 0.55
v 10.744276531733862 26.12529687955903 13.532878136603719 0.55 0.55 0.55
v 11.85069697639965 19.779787292857097 9.491137744839639 0.55 0.55 0.55
v 9.939595910110981 14.957921561459617 9.150999321946005 0.55 0.55 0.55
v 9.939595910110981 14.957921561459617 9.150999321946005 0.55 0.55 0.55
v 11.85069697639965 19.779787292857097 9.491137744839639 0.55 0.55 0.55
v 14.208238002894 19.84889646038853 5.577072512266699 0.55 0.55 0.55
v 12.56847614670662 14.96766843769296 5.106954112103543 0.55 0.55 0.55
v 12.56847614670662 14.96766843769296 5.106954112103543 0.55 0.55 0.55
v 14.208238002894 19.84889646038853 5.577072512266699 0.55 0.55 0.55
v 14.943825186285132 19.773176427232865 0.8307013636529903 0.55 0.55 0.55
v 12.836326740660784 14.781321288353709 0.19667655527759054 0.55 0.55 0.55
v 12.836326740660784 14.781321288353709 0.19667655527759054 0.55 0.55 0.55
v 14.943825186285132 19.773176427232865 0.8307013636529903 0.55 0.55 0.55
v 15.049243061199109 19.840221259354415 -2.4174206496553725 0.55 0.55 0.55
v 13.387989125154808 14.962784573614313 -1.9005024771204277 0.55 0.55 0.55
v 15.049243061199109 19.840221259354415 -2.4174206496553725 0.55 0.55 0.55
v 16.614290835458863 24.752146170610576 -2.905138973890921 0.55 0.55 0.55
v 15.107041443262256 24.7544569639293 -7.416639167319948 0.55 0.55 0.55
v 13.572389467320054 19.842439949918592 -6.882568492148461 0.55 0.55 0.55
v 13.572389467320054 19.842439949918592 -6.882568492148461 0.55 0.55 0.55
v 15.107041443262256 24.7544569639293 -7.416639167319948 0.55 0.55 0.55
v 12.469056431723573 24.643281532707853 -11.22042769619691 0.55 0.55 0.55
v 10.911881452304886 19.7140349028626 -10.537151321720838 0.55 0.55 0.55
v 10.911881452304886 19.7140349028626 -10.537151321720838 0.55 0.55 0.55
v 12.469056431723573 24.643281532707853 -11.22042769619691 0.55 0.55 0.55
v 9.486243763018862 25.22500737133149 -14.174191576760618 0.55 0.55 0.55
v 8.193526941857343 19.6181071275221 -12.309497576865976 0.55 0.55 0.55
v 8.193526941857343 19.6181071275221 -12.309497576865976 0.0 0.0 0.0
v 9.486243763018862 25.22500737133149 -14.174191576760618 0.0 0.0 0.0
v 5.2497672617578734 22.913070561578497 -15.273489998922845 0.0 0.0 0.0
v 9.486243763018862 25.22500737133149 -14.174191576760618 0.0 0.0 0.0
v 10.548723241118353 31.02972525860503 -15.564113988775457 0.0 0.0 0.0
v 5.2497672617578734 22.913070561578497 -15.273489998922845 0.0 0.0 0.0
v 12.469056431723573 24.643281532707853 -11.22042769619691 0.55 0.55 0.55
v 13.642712951200496 29.67126984988443 -11.962663588400513 0.55 0.55 0.55
v 10.548723241118353 31.02972525860503 -15.564113988775457 0.55 0.55 0.55
v 9.486243763018862 25.22500737133149 -14.174191576760618 0.55 0.55 0.55
v 15.107041443262256 24.7544569639293 -7.416639167319948 0.55 0.55 0.55
v 16.347341915929096 29.748621110669433 -7.94842863803559 0.55 0.55 0.55
v 13.642712951200496 29.67126984988443 -11.962663588400513 0.55 0.55 0.55
v 12.469056431723573 24.643281532707853 -11.22042769619691 0.55 0.55 0.55
v 16.614290835458863 24.752146170610576 -2.905138973890921 0.55 0.55 0.55
v 17.923358781885614 29.743839098751405 -3.3249045960856987 0.55 0.55 0.55
v 16.347341915929096 29.748621110669433 -7.94842863803559 0.55 0.55 0.55
v 15.107041443262256 24.7544569639293 -7.416639167319948 0.55 0.55 0.55
v 14.943825186285132 19.773176427232865 0.8307013636529903 0.55 0.55 0.55
v 16.85480813829448 24.85142329884145 1.3927419235035106 0.55 0.55 0.55
v 16.614290835458863 24.752146170610576 -2.905138973890921 0.55 0.55 0.55
v 15.049243061199109 19.840221259354415 -2.4174206496553725 0.55 0.55 0.55
v 14.208238002894 19.84889646038853 5.577072512266699 0.55 0.55 0.55
v 15.73484908014443 24.763222512210145 6.0791104923532195 0.55 0.55 0.55
v 16.85480813829448 24.85142329884145 1.3927419235035106 0.55 0.55 0.55
v 14.943825186285132 19.773176427232865 0.8307013636529903 0.55 0.55 0.55
v 11.85069697639965 19.779787292857097 9.491137744839639 0.55 0.55 0.55
v 13.421386313339411 24.69259952346116 10.120312847198623 0.55 0.55 0.55
v 15.73484908014443 24.763222512210145 6.0791104923532195 0.55 0.55 0.55
v 14.208238002894 19.84889646038853 5.577072512266699 0.55 0.55 0.55
v 10.744276531733862 26.12529687955903 13.532878136603719 1.0 1.0 1.0
v 13.421386313339411 24.69259952346116 10.120312847198623 1.0 1.0 1.0
v 11.85069697639965 19.779787292857097 9.491137744839639 1.0 1.0 1.0
v 10.744276531733862 26.12529687955903 13.532878136603719 1.0 1.0 1.0
v 14.633802358261462 29.70231898987267 10.782329275484184 1.0 1.0 1.0
v 13.421386313339411 24.69259952346116 10.120312847198623 1.0 1.0 1.0
v 13.421386313339411 24.69259952346116 10.120312847198623 0.55 0.55 0.55
v 14.633802358261462 29.70231898987267 10.782329275484184 0.55 0.55 0.55
v 16.995322130779833 29.754326166444553 6.55446081777801 0.55 0.55 0.55
v 15.73484908014443 24.763222512210145 6.0791104923532195 0.55 0.55 0.55
v 15.73484908014443 24.763222512210145 6.0791104923532195 0.55 0.55 0.55
v 16.995322130779833 29.754326166444553 6.55446081777801 0.55 0.55 0.55
v 18.391638364834083 30.064600127305557 1.8456513521921467 0.55 0.55 0.55
v 16.85480813829448 24.85142329884145 1.3927419235035106 0.55 0.55 0.55
v 16.85480813829448 24.85142329884145 1.3927419235035106 0.55 0.55 0.55
v 18.391638364834083 30.064600127305557 1.8456513521921467 0.55 0.55 0.55
v 17.923358781885614 29.743839098751405 -3.3249045960856987 0.55 0.55 0.55
v 16.614290835458863 24.752146170610576 -2.905138973890921 0.55 0.55 0.55
v 17.923358781885614 29.743839098751405 -3.3249045960856987 0.55 0.55 0.55
v 18.811978069622363 34.83513934085166 -3.613776501377159 0.55 0.55 0.55
v 17.1743687162909 34.83955507866012 -8.336113386882912 0.55 0.55 0.55
v 16.347341915929096 29.748621110669433 -7.94842863803559 0.55 0.55 0.55
v 16.347341915929096 29.748621110669433 -7.94842863803559 0.55 0.55 0.55
v 17.1743687162909 34.83955507866012 -8.336113386882912 0.55 0.55 0.55
v 14.41291782724124 34.80142652152236 -12.49993703310812 0.55 0.55 0.55
v 13.642712951200496 29.67126984988443 -11.962663588400513 0.55 0.55 0.55
v 13.642712951200496 29.67126984988443 -11.962663588400513 0.55 0.55 0.55
v 14.41291782724124 34.80142652152236 -12.49993703310812 0.55 0.55 0.55
v 11.13195176240127 37.01027206047095 -16.348925317399836 0.55 0.55 0.55
v 10.548723241118353 31.02972525860503 -15.564113988775457 0.55 0.55 0.55
v 10.548723241118353 31.02972525860503 -15.564113988775457 0.55 0.55 0.55
v 11.13195176240127 37.01027206047095 -16.348925317399836 0.55 0.55 0.55
v 5.926092810678909 28.454092203988896 -17.052656015049017 0.55 0.55 0.55
v 5.2497672617578734 22.913070561578497 -15.273489998922845 0.55 0.55 0.55
v 5.2497672617578734 22.913070561578497 -15.273489998922845 0.55 0.55 0.55
v 5.926092810678909 28.454092203988896 -17.052656015049017 0.55 0.55 0.55
v 1.2449454300496194 24.755331412673772 -16.777935875531675 0.55 0.55 0.55
v 1.0955751869611627 19.838631450031674 -15.178156070401341 0.55 0.55 0.55
v 1.0955751869611627 19.838631450031674 -15.178156070401341 0.0 0.0 0.0
v 1.2449454300496194 24.755331412673772 -16.777935875531675 0.0 0.0 0.0
v -3.179986832554828 25.57901702739382 -16.870042888425253 0.0 0.0 0.0
v 1.2449454300496194 24.755331412673772 -16.777935875531675 0.0 0.0 0.0
v 1.379794004955192 29.74952124845329 -18.115331418236366 0.0 0.0 0.0
v -3.179986832554828 25.57901702739382 -16.870042888425253 0.0 0.0 0.0
v 5.926092810678909 28.454092203988896 -17.052656015049017 1.0 1.0 1.0
v 1.379794004955192 29.74952124845329 -18.115331418236366 1.0 1.0 1.0
v 1.2449454300496194 24.755331412673772 -16.777935875531675 1.0 1.0 1.0
v 5.926092810678909 28.454092203988896 -17.052656015049017 1.0 1.0 1.0
v 1.4753124818743981 34.83929802363248 -19.02226868314978 1.0 1.0 1.0
v 1.379794004955192 29.74952124845329 -18.115331418236366 1.0 1.0 1.0
v 1.379794004955192 29.74952124845329 -18.115331418236366 0.55 0.55 0.55
v 1.4753124818743981 34.83929802363248 -19.02226868314978 0.55 0.55 0.55
v -3.4450100677710838 31.398462617967674 -18.56662413395277 0.55 0.55 0.55
v -3.179986832554828 25.57901702739382 -16.870042888425253 0.55 0.55 0.55
v -3.179986832554828 25.57901702739382 -16.870042888425253 0.55 0.55 0.55
v -3.4450100677710838 31.398462617967674 -18.56662413395277 0.55 0.55 0.55
v -7.227969239741098 24.75605110512404 -15.20748489103674 0.55 0.55 0.55
v -6.547345953376723 19.839889360766687 -13.749649421161923 0.55 0.55 0.55
v -6.547345953376723 19.839889360766687 -13.749649421161923 0.55 0.55 0.55
v -7.227969239741098 24.75605110512404 -15.20748489103674 0.55 0.55 0.55
v -11.01541369567317 25.432983820757343 -12.803707288002181 0.55 0.55 0.55
v -9.94911477697055 20.388437731456442 -11.349102897493454 0.55 0.55 0.55
v -9.94911477697055 20.388437731456442 -11.349102897493454 0.0 0.0 0.0
v -11.01541369567317 25.432983820757343 -12.803707288002181 0.0 0.0 0.0
v -13.84133178322956 24.55053668462021 -9.589903123705781 0.0 0.0 0.0
v -11.01541369567317 25.432983820757343 -12.803707288002181 0.0 0.0 0.0
v -11.93623269044243 30.562841051044913 -14.038903035415371 0.0 0.0 0.0
v -13.84133178322956 24.55053668462021 -9.589903123705781 0.0 0.0 0.0
v -7.227969239741098 24.75605110512404 -15.20748489103674 0.55 0.55 0.55
v -7.7944342877312875 29.74984154466564 -16.428723700773112 0.55 0.55 0.55
v -11.93623269044243 30.562841051044913 -14.038903035415371 0.55 0.55 0.55
v -11.01541369567317 25.432983820757343 -12.803707288002181 0.55 0.55 0.55
v -3.4450100677710838 31.398462617967674 -18.56662413395277 1.0 1.0 1.0
v -7.7944342877312875 29.74984154466564 -16.428723700773112 1.0 1.0 1.0
v -7.227969239741098 24.75605110512404 -15.20748489103674 1.0 1.0 1.0
v -3.4450100677710838 31.398462617967674 -18.56662413395277 1.0 1.0 1.0
v -8.179115940784408 34.839547230593936 -17.25719668679753 1.0 1.0 1.0
v -7.7944342877312875 29.74984154466564 -16.428723700773112 1.0 1.0 1.0
v -7.7944342877312875 29.74984154466564 -16.428723700773112 0.55 0.55 0.55
v -8.179115940784408 34.839547230593936 -17.25719668679753 0.55 0.55 0.55
v -12.560604297364767 35.81449702460796 -14.874398645847858 0.55 0.55 0.55
v -11.93623269044243 30.562841051044913 -14.038903035415371 0.55 0.55 0.55
v -11.93623269044243 30.562841051044913 -14.038903035415371 0.55 0.55 0.55
v -12.560604297364767 35.81449702460796 -14.874398645847858 0.55 0.55 0.55
v -15.236027832373239 29.53596872894475 -10.5517450063654 0.55 0.55 0.55
v -13.84133178322956 24.55053668462021 -9.589903123705781 0.55 0.55 0.55
v -13.84133178322956 24.55053668462021 -9.589903123705781 0.55 0.55 0.55
v -15.236027832373239 29.53596872894475 -10.5517450063654 0.55 0.55 0.55
v -18.036886240410386 33.18450313459786 -6.552732791945162 0.55 0.55 0.55
v -16.792334288957264 27.8244561510823 -6.091890943571132 0.55 0.55 0.55
v -16.792334288957264 27.8244561510823 -6.091890943571132 0.55 0.55 0.55
v -18.036886240410386 33.18450313459786 -6.552732791945162 0.55 0.55 0.55
v -16.743959378890725 24.741064421683753 -1.5278590375158059 0.55 0.55 0.55
v -15.137605701075554 19.81974016282001 -1.429917219675172 0.55 0.55 0.55
v -15.137605701075554 19.81974016282001 -1.429917219675172 0.0 0.0 0.0
v -16.743959378890725 24.741064421683753 -1.5278590375158059 0.0 0.0 0.0
v -16.78778203474054 25.265433522429408 2.8827212158423885 0.0 0.0 0.0
v -16.743959378890725 24.741064421683753 -1.5278590375158059 0.0 0.0 0.0
v -18.08802226880496 29.739945607076308 -1.6140579509356414 0.0 0.0 0.0
v -16.78778203474054 25.265433522429408 2.8827212158423885 0.0 0.0 0.0
v -18.036886240410386 33.18450313459786 -6.552732791945162 1.0 1.0 1.0
v -18.08802226880496 29.739945607076308 -1.6140579509356414 1.0 1.0 1.0
v -16.743959378890725 24.741064421683753 -1.5278590375158059 1.0 1.0 1.0
v -18.036886240410386 33.18450313459786 -6.552732791945162 1.0 1.0 1.0
v -19.000307330916616 34.83454867613967 -1.673097493698143 1.0 1.0 1.0
v -18.08802226880496 29.739945607076308 -1.6140579509356414 1.0 1.0 1.0
v -18.08802226880496 29.739945607076308 -1.6140579509356414 0.55 0.55 0.55
v -19.000307330916616 34.83454867613967 -1.673097493698143 0.55 0.55 0.55
v -18.50118716845663 31.037114708851796 3.1961824188318646 0.55 0.55 0.55
v -16.78778203474054 25.265433522429408 2.8827212158423885 0.55 0.55 0.55
v -16.78778203474054 25.265433522429408 2.8827212158423885 0.55 0.55 0.55
v -18.50118716845663 31.037114708851796 3.1961824188318646 0.55 0.55 0.55
v -15.334378371218687 24.73910499393887 6.969808349024105 0.55 0.55 0.55
v -13.8975061872106 19.81863845998056 6.232929944347542 0.55 0.55 0.55
v -13.8975061872106 19.81863845998056 6.232929944347542 0.55 0.55 0.55
v -15.334378371218687 24.73910499393887 6.969808349024105 0.55 0.55 0.55
v -13.449596118141299 26.45651583901079 11.076901258483888 0.55 0.55 0.55
v -12.003544341671994 21.280611125808385 9.840539820551076 0.55 0.55 0.55
v -12.003544341671994 21.280611125808385 9.840539820551076 0.55 0.55 0.55
v -13.449596118141299 26.45651583901079 11.076901258483888 0.55 0.55 0.55
v -9.865566771323314 24.73256024218924 13.65026202479637 0.55 0.55 0.55
v -9.006654908571122 19.811240021965784 12.274564927358862 0.55 0.55 0.55
v -9.006654908571122 19.811240021965784 12.274564927358862 0.55 0.55 0.55
v -9.865566771323314 24.73256024218924 13.65026202479637 0.55 0.55 0.55
v -6.183755801566238 26.283270541780645 16.24636814163381 0.55 0.55 0.55
v -5.495655263244537 20.82700896185938 14.25360654509428 0.55 0.55 0.55
v -5.495655263244537 20.82700896185938 14.25360654509428 0.55 0.55 0.55
v -6.183755801566238 26.283270541780645 16.24636814163381 0.55 0.55 0.55
v -1.8197725620311036 24.7178220985371 16.70422328729025 0.55 0.55 0.55
v -1.7845723279136156 19.791283925097336 15.083673450467105 0.55 0.55 0.55
v -1.7845723279136156 19.791283925097336 15.083673450467105 0.0 0.0 0.0
v -1.8197725620311036 24.7178220985371 16.70422328729025 0.0 0.0 0.0
v 2.6055780161310254 25.01670539727223 16.727153656489207 0.0 0.0 0.0
v -1.8197725620311036 24.7178220985371 16.70422328729025 0.0 0.0 0.0
v -1.8581541249286873 29.723015577387432 18.059879104438373 0.0 0.0 0.0
v 2.6055780161310254 25.01670539727223 16.727153656489207 0.0 0.0 0.0
v -6.183755801566238 26.283270541780645 16.24636814163381 0.55 0.55 0.55
v -6.696372966694509 31.911374750648967 17.74797374664988 0.55 0.55 0.55
v -1.8581541249286873 29.723015577387432 18.059879104438373 0.55 0.55 0.55
v -1.8197725620311036 24.7178220985371 16.70422328729025 0.55 0.55 0.55
v -9.865566771323314 24.73256024218924 13.65026202479637 0.55 0.55 0.55
v -10.589603687521985 29.732665805153733 14.798310011023753 0.55 0.55 0.55
v -6.696372966694509 31.911374750648967 17.74797374664988 0.55 0.55 0.55
v -6.183755801566238 26.283270541780645 16.24636814163381 0.55 0.55 0.55
v -13.449596118141299 26.45651583901079 11.076901258483888 0.55 0.55 0.55
v -14.551655956310965 31.774370653851864 12.024372743364399 0.55 0.55 0.55
v -10.589603687521985 29.732665805153733 14.798310011023753 0.55 0.55 0.55
v -9.865566771323314 24.73256024218924 13.65026202479637 0.55 0.55 0.55
v -15.334378371218687 24.73910499393887 6.969808349024105 0.55 0.55 0.55
v -16.53840229819939 29.737799625875315 7.582702479517213 0.55 0.55 0.55
v -14.551655956310965 31.774370653851864 12.024372743364399 0.55 0.55 0.55
v -13.449596118141299 26.45651583901079 11.076901258483888 0.55 0.55 0.55
v -18.50118716845663 31.037114708851796 3.1961824188318646 1.0 1.0 1.0
v -16.53840229819939 29.737799625875315 7.582702479517213 1.0 1.0 1.0
v -15.334378371218687 24.73910499393887 6.969808349024105 1.0 1.0 1.0
v -18.50118716845663 31.037114708851796 3.1961824188318646 1.0 1.0 1.0
v -17.353733397751906 34.83290642023387 8.001889306797208 1.0 1.0 1.0
v -16.53840229819939 29.737799625875315 7.582702479517213 1.0 1.0 1.0
v -16.53840229819939 29.737799625875315 7.582702479517213 0.55 0.55 0.55
v -17.353733397751906 34.83290642023387 8.001889306797208 0.55 0.55 0.55
v -15.160819988643164 37.226379926312205 12.553201575738395 0.55 0.55 0.55
v -14.551655956310965 31.774370653851864 12.024372743364399 0.55 0.55 0.55
v -14.551655956310965 31.774370653851864 12.024372743364399 0.55 0.55 0.55
v -15.160819988643164 37.226379926312205 12.553201575738395 0.55 0.55 0.55
v -11.083651891147262 34.82998770095683 15.576092251817732 0.55 0.55 0.55
v -10.589603687521985 29.732665805153733 14.798310011023753 0.55 0.55 0.55
v -10.589603687521985 29.732665805153733 14.798310011023753 0.55 0.55 0.55
v -11.083651891147262 34.82998770095683 15.576092251817732 0.55 0.55 0.55
v -6.9535367894653834 37.69751858721522 18.536582561055628 0.55 0.55 0.55
v -6.696372966694509 31.911374750648967 17.74797374664988 0.55 0.55 0.55
v -6.696372966694509 31.911374750648967 17.74797374664988 0.55 0.55 0.55
v -6.9535367894653834 37.69751858721522 18.536582561055628 0.55 0.55 0.55
v -1.8817918328451473 34.82504257188502 18.980491057321785 0.55 0.55 0.55
v -1.8581541249286873 29.723015577387432 18.059879104438373 0.55 0.55 0.55
v -1.8581541249286873 29.723015577387432 18.059879104438373 0.55 0.55 0.55
v -1.8817918328451473 34.82504257188502 18.980491057321785 0.55 0.55 0.55
v 2.948559106451542 30.767225574264486 18.458536569669086 0.55 0.55 0.55
v 2.6055780161310254 25.01670539727223 16.727153656489207 0.55 0.55 0.55
v 2.6055780161310254 25.01670539727223 16.727153656489207 0.55 0.55 0.55
v 2.948559106451542 30.767225574264486 18.458536569669086 0.55 0.55 0.55
v 6.709813395240961 24.67519957022886 15.437540739445803 0.55 0.55 0.55
v 5.971665195099167 19.7358362725757 13.983150059055038 0.55 0.55 0.55
v 5.971665195099167 19.7358362725757 13.983150059055038 0.0 0.0 0.0
v 6.709813395240961 24.67519957022886 15.437540739445803 0.0 0.0 0.0
v 10.744276531733862 26.12529687955903 13.532878136603719 0.0 0.0 0.0
v 6.709813395240961 24.67519957022886 15.437540739445803 0.0 0.0 0.0
v 7.380635328945939 29.693781975456016 16.627693123184144 0.0 0.0 0.0
v 10.744276531733862 26.12529687955903 13.532878136603719 0.0 0.0 0.0
v 2.948559106451542 30.767225574264486 18.458536569669086 1.0 1.0 1.0
v 7.380635328945939 29.693781975456016 16.627693123184144 1.0 1.0 1.0
v 6.709813395240961 24.67519957022886 15.437540739445803 1.0 1.0 1.0
v 2.948559106451542 30.767225574264486 18.458536569669086 1.0 1.0 1.0
v 7.836966517274742 34.810478850402816 17.435557056042647 1.0 1.0 1.0
v 7.380635328945939 29.693781975456016 16.627693123184144 1.0 1.0 1.0
v 7.380635328945939 29.693781975456016 16.627693123184144 0.55 0.55 0.55
v 7.836966517274742 34.810478850402816 17.435557056042647 0.55 0.55 0.55
v 11.836051882326371 31.57375294592522 14.677168755231428 0.55 0.55 0.55
v 10.744276531733862 26.12529687955903 13.532878136603719 0.55 0.55 0.55
v 10.744276531733862 26.12529687955903 13.532878136603719 0.55 0.55 0.55
v 11.836051882326371 31.57375294592522 14.677168755231428 0.55 0.55 0.55
v 15.434573727510863 34.813651964234765 11.261378857684127 0.55 0.55 0.55
v 14.633802358261462 29.70231898987267 10.782329275484184 0.55 0.55 0.55
v 14.633802358261462 29.70231898987267 10.782329275484184 0.55 0.55 0.55
v 15.434573727510863 34.813651964234765 11.261378857684127 0.55 0.55 0.55
v 17.84432175946792 34.84154359168786 6.892847928327726 0.55 0.55 0.55
v 16.995322130779833 29.754326166444553 6.55446081777801 0.55 0.55 0.55
v 16.995322130779833 29.754326166444553 6.55446081777801 0.55 0.55 0.55
v 17.84432175946792 34.84154359168786 6.892847928327726 0.55 0.55 0.55
v 19.365550360144198 35.421458491341774 2.1292267807584575 0.55 0.55 0.55
v 18.391638364834083 30.064600127305557 1.8456513521921467 0.55 0.55 0.55
v 18.391638364834083 30.064600127305557 1.8456513521921467 0.55 0.55 0.55
v 19.365550360144198 35.421458491341774 2.1292267807584575 0.55 0.55 0.55
v 18.811978069622363 34.83513934085166 -3.613776501377159 0.55 0.55 0.55
v 17.923358781885614 29.743839098751405 -3.3249045960856987 0.55 0.55 0.55
v 18.811978069622363 34.83513934085166 -3.613776501377159 0.55 0.55 0.55
v 19.13374778982539 39.99943107263004 -3.722232443554477 0.55 0.55 0.55
v 17.470048843881916 40.00040741382067 -8.483506387761627 0.55 0.55 0.55
v 17.1743687162909 34.83955507866012 -8.336113386882912 0.55 0.55 0.55
v 17.1743687162909 34.83955507866012 -8.336113386882912 0.55 0.55 0.55
v 17.470048843881916 40.00040741382067 -8.483506387761627 0.55 0.55 0.55
v 14.685963954298106 40.004990181318526 -12.701679920695877 0.55 0.55 0.55
v 14.41291782724124 34.80142652152236 -12.49993703310812 0.55 0.55 0.55
v 14.41291782724124 34.80142652152236 -12.49993703310812 0.55 0.55 0.55
v 14.685963954298106 40.004990181318526 -12.701679920695877 0.55 0.55 0.55
v 11.120569664971498 43.06872251992412 -16.34739365667386 0.55 0.55 0.55
v 11.13195176240127 37.01027206047095 -16.348925317399836 0.55 0.55 0.55
v 11.13195176240127 37.01027206047095 -16.348925317399836 0.55 0.55 0.55
v 11.120569664971498 43.06872251992412 -16.34739365667386 0.55 0.55 0.55
v 6.40247949137195 34.164573625324316 -18.261855218739065 0.55 0.55 0.55
v 5.926092810678909 28.454092203988896 -17.052656015049017 0.55 0.55 0.55
v 5.926092810678909 28.454092203988896 -17.052656015049017 0.0 0.0 0.0
v 6.40247949137195 34.164573625324316 -18.261855218739065 0.0 0.0 0.0
v 1.4753124818743981 34.83929802363248 -19.02226868314978 0.0 0.0 0.0
v 6.40247949137195 34.164573625324316 -18.261855218739065 0.0 0.0 0.0
v 6.568148931708403 40.00026091622976 -18.705341356112058 0.0 0.0 0.0
v 1.4753124818743981 34.83929802363248 -19.02226868314978 0.0 0.0 0.0
v 11.120569664971498 43.06872251992412 -16.34739365667386 1.0 1.0 1.0
v 6.568148931708403 40.00026091622976 -18.705341356112058 1.0 1.0 1.0
v 6.40247949137195 34.164573625324316 -18.261855218739065 1.0 1.0 1.0
v 11.120569664971498 43.06872251992412 -16.34739365667386 1.0 1.0 1.0
v 6.389612123989277 45.835859425081345 -18.265685991877138 1.0 1.0 1.0
v 6.568148931708403 40.00026091622976 -18.705341356112058 1.0 1.0 1.0
v 6.568148931708403 40.00026091622976 -18.705341356112058 0.55 0.55 0.55
v 6.389612123989277 45.835859425081345 -18.265685991877138 0.55 0.55 0.55
v 1.5070318541740404 39.99882291541833 -19.350743766020972 0.55 0.55 0.55
v 1.4753124818743981 34.83929802363248 -19.02226868314978 0.55 0.55 0.55
v 1.4753124818743981 34.83929802363248 -19.02226868314978 0.55 0.55 0.55
v 1.5070318541740404 39.99882291541833 -19.350743766020972 0.55 0.55 0.55
v -3.587501881486411 37.39259512165425 -19.482027623483173 0.55 0.55 0.55
v -3.4450100677710838 31.398462617967674 -18.56662413395277 0.55 0.55 0.55
v -3.4450100677710838 31.398462617967674 -18.56662413395277 0.0 0.0 0.0
v -3.587501881486411 37.39259512165425 -19.482027623483173 0.0 0.0 0.0
v -8.179115940784408 34.839547230593936 -17.25719668679753 0.0 0.0 0.0
v -3.587501881486411 37.39259512165425 -19.482027623483173 0.0 0.0 0.0
v -3.580439583727665 43.45586172521227 -19.39405103997562 0.0 0.0 0.0
v -8.179115940784408 34.839547230593936 -17.25719668679753 0.0 0.0 0.0
v 1.5070318541740404 39.99882291541833 -19.350743766020972 1.0 1.0 1.0
v -3.580439583727665 43.45586172521227 -19.39405103997562 1.0 1.0 1.0
v -3.587501881486411 37.39259512165425 -19.482027623483173 1.0 1.0 1.0
v 1.5070318541740404 39.99882291541833 -19.350743766020972 1.0 1.0 1.0
v -3.431487949044683 49.43077357120895 -18.36234173870515 1.0 1.0 1.0
v -3.580439583727665 43.45586172521227 -19.39405103997562 1.0 1.0 1.0
v -3.580439583727665 43.45586172521227 -19.39405103997562 0.55 0.55 0.55
v -3.431487949044683 49.43077357120895 -18.36234173870515 0.55 0.55 0.55
v -8.321741563387853 39.999244268891225 -17.55519374568208 0.55 0.55 0.55
v -8.179115940784408 34.839547230593936 -17.25719668679753 0.55 0.55 0.55
v -8.179115940784408 34.839547230593936 -17.25719668679753 0.55 0.55 0.55
v -8.321741563387853 39.999244268891225 -17.55519374568208 0.55 0.55 0.55
v -12.758976277169817 41.15588171340585 -15.14739042730378 0.55 0.55 0.55
v -12.560604297364767 35.81449702460796 -14.874398645847858 0.55 0.55 0.55
v -12.560604297364767 35.81449702460796 -14.874398645847858 0.55 0.55 0.55
v -12.758976277169817 41.15588171340585 -15.14739042730378 0.55 0.55 0.55
v -16.108852276461587 34.69026871854836 -11.16885781154594 0.55 0.55 0.55
v -15.236027832373239 29.53596872894475 -10.5517450063654 0.55 0.55 0.55
v -15.236027832373239 29.53596872894475 -10.5517450063654 0.0 0.0 0.0
v -16.108852276461587 34.69026871854836 -11.16885781154594 0.0 0.0 0.0
v -18.036886240410386 33.18450313459786 -6.552732791945162 0.0 0.0 0.0
v -16.108852276461587 34.69026871854836 -11.16885781154594 0.0 0.0 0.0
v -16.34866653036059 39.944739380379296 -11.351330301059686 0.0 0.0 0.0
v -18.036886240410386 33.18450313459786 -6.552732791945162 0.0 0.0 0.0
v -12.758976277169817 41.15588171340585 -15.14739042730378 1.0 1.0 1.0
v -16.34866653036059 39.944739380379296 -11.351330301059686 1.0 1.0 1.0
v -16.108852276461587 34.69026871854836 -11.16885781154594 1.0 1.0 1.0
v -12.758976277169817 41.15588171340585 -15.14739042730378 1.0 1.0 1.0
v -15.932194904927545 45.18459936406016 -11.075953412538224 1.0 1.0 1.0
v -16.34866653036059 39.944739380379296 -11.351330301059686 1.0 1.0 1.0
v -16.34866653036059 39.944739380379296 -11.351330301059686 0.55 0.55 0.55
v -15.932194904927545 45.18459936406016 -11.075953412538224 0.55 0.55 0.55
v -18.621756347705645 38.668837444176376 -6.768255778571249 0.55 0.55 0.55
v -18.036886240410386 33.18450313459786 -6.552732791945162 0.55 0.55 0.55
v -18.036886240410386 33.18450313459786 -6.552732791945162 0.55 0.55 0.55
v -18.621756347705645 38.668837444176376 -6.768255778571249 0.55 0.55 0.55
v -19.330652316049473 39.999164067420075 -1.6912244771654399 0.55 0.55 0.55
v -19.000307330916616 34.83454867613967 -1.673097493698143 0.55 0.55 0.55
v -19.000307330916616 34.83454867613967 -1.673097493698143 0.55 0.55 0.55
v -19.330652316049473 39.999164067420075 -1.6912244771654399 0.55 0.55 0.55
v -19.461145570071633 36.98346346456063 3.37627348880217 0.55 0.55 0.55
v -18.50118716845663 31.037114708851796 3.1961824188318646 0.55 0.55 0.55
v -18.50118716845663 31.037114708851796 3.1961824188318646 0.0 0.0 0.0
v -19.461145570071633 36.98346346456063 3.37627348880217 0.0 0.0 0.0
v -17.353733397751906 34.83290642023387 8.001889306797208 0.0 0.0 0.0
v -19.461145570071633 36.98346346456063 3.37627348880217 0.0 0.0 0.0
v -19.461331742114734 43.007894032946695 3.383530227840556 0.0 0.0 0.0
v -17.353733397751906 34.83290642023387 8.001889306797208 0.0 0.0 0.0
v -19.330652316049473 39.999164067420075 -1.6912244771654399 1.0 1.0 1.0
v -19.461331742114734 43.007894032946695 3.383530227840556 1.0 1.0 1.0
v -19.461145570071633 36.98346346456063 3.37627348880217 1.0 1.0 1.0
v -19.330652316049473 39.999164067420075 -1.6912244771654399 1.0 1.0 1.0
v -18.50119603347228 48.95460415563319 3.2168706507254083 1.0 1.0 1.0
v -19.461331742114734 43.007894032946695 3.383530227840556 1.0 1.0 1.0
v -19.461331742114734 43.007894032946695 3.383530227840556 0.55 0.55 0.55
v -18.50119603347228 48.95460415563319 3.2168706507254083 0.55 0.55 0.55
v -17.646633953519206 39.99847686413841 8.15751333469993 0.55 0.55 0.55
v -17.353733397751906 34.83290642023387 8.001889306797208 0.55 0.55 0.55
v -17.353733397751906 34.83290642023387 8.001889306797208 0.55 0.55 0.55
v -17.646633953519206 39.99847686413841 8.15751333469993 0.55 0.55 0.55
v -15.159836403433614 42.73723587004115 12.560256957281473 0.55 0.55 0.55
v -15.160819988643164 37.226379926312205 12.553201575738395 0.55 0.55 0.55
v -15.160819988643164 37.226379926312205 12.553201575738395 0.55 0.55 0.55
v -15.159836403433614 42.73723587004115 12.560256957281473 0.55 0.55 0.55
v -11.259534216144877 39.998389500493374 15.860078264856394 0.55 0.55 0.55
v -11.083651891147262 34.82998770095683 15.576092251817732 0.55 0.55 0.55
v -11.083651891147262 34.82998770095683 15.576092251817732 0.55 0.55 0.55
v -11.259534216144877 39.998389500493374 15.860078264856394 0.55 0.55 0.55
v -6.911841979438672 43.54058976264071 18.433274183450997 0.55 0.55 0.55
v -6.9535367894653834 37.69751858721522 18.536582561055628 0.55 0.55 0.55
v -6.9535367894653834 37.69751858721522 18.536582561055628 0.55 0.55 0.55
v -6.911841979438672 43.54058976264071 18.433274183450997 0.55 0.55 0.55
v -1.8862137216655126 39.99799192814179 19.314107618723135 0.55 0.55 0.55
v -1.8817918328451473 34.82504257188502 18.980491057321785 0.55 0.55 0.55
v -1.8817918328451473 34.82504257188502 18.980491057321785 0.55 0.55 0.55
v -1.8862137216655126 39.99799192814179 19.314107618723135 0.55 0.55 0.55
v 3.161715970614015 36.693192461531325 19.452340336208728 0.55 0.55 0.55
v 2.948559106451542 30.767225574264486 18.458536569669086 0.55 0.55 0.55
v 2.948559106451542 30.767225574264486 18.458536569669086 0.0 0.0 0.0
v 3.161715970614015 36.693192461531325 19.452340336208728 0.0 0.0 0.0
v 7.836966517274742 34.810478850402816 17.435557056042647 0.0 0.0 0.0
v 3.161715970614015 36.693192461531325 19.452340336208728 0.0 0.0 0.0
v 3.1818670268942855 42.70420017074072 19.513330352044907 0.0 0.0 0.0
v 7.836966517274742 34.810478850402816 17.435557056042647 0.0 0.0 0.0
v -1.8862137216655126 39.99799192814179 19.314107618723135 1.0 1.0 1.0
v 3.1818670268942855 42.70420017074072 19.513330352044907 1.0 1.0 1.0
v 3.161715970614015 36.693192461531325 19.452340336208728 1.0 1.0 1.0
v -1.8862137216655126 39.99799192814179 19.314107618723135 1.0 1.0 1.0
v 3.002867371553563 48.64419555573052 18.599115797161392 1.0 1.0 1.0
v 3.1818670268942855 42.70420017074072 19.513330352044907 1.0 1.0 1.0
v 3.1818670268942855 42.70420017074072 19.513330352044907 0.55 0.55 0.55
v 3.002867371553563 48.64419555573052 18.599115797161392 0.55 0.55 0.55
v 8.004020834910472 39.99924188471424 17.720398328120233 0.55 0.55 0.55
v 7.836966517274742 34.810478850402816 17.435557056042647 0.55 0.55 0.55
v 7.836966517274742 34.810478850402816 17.435557056042647 0.55 0.55 0.55
v 8.004020834910472 39.99924188471424 17.720398328120233 0.55 0.55 0.55
v 12.43554156472996 37.177436178447174 15.315272486101838 0.55 0.55 0.55
v 11.836051882326371 31.57375294592522 14.677168755231428 0.55 0.55 0.55
v 11.836051882326371 31.57375294592522 14.677168755231428 0.0 0.0 0.0
v 12.43554156472996 37.177436178447174 15.315272486101838 0.0 0.0 0.0
v 15.434573727510863 34.813651964234765 11.261378857684127 0.0 0.0 0.0
v 12.43554156472996 37.177436178447174 15.315272486101838 0.0 0.0 0.0
v 12.43890097885636 42.84836573499067 15.309061628770833 0.0 0.0 0.0
v 15.434573727510863 34.813651964234765 11.261378857684127 0.0 0.0 0.0
v 8.004020834910472 39.99924188471424 17.720398328120233 1.0 1.0 1.0
v 12.43890097885636 42.84836573499067 15.309061628770833 1.0 1.0 1.0
v 12.43554156472996 37.177436178447174 15.315272486101838 1.0 1.0 1.0
v 8.004020834910472 39.99924188471424 17.720398328120233 1.0 1.0 1.0
v 11.84673931369362 48.45158596853113 14.660366350173167 1.0 1.0 1.0
v 12.43890097885636 42.84836573499067 15.309061628770833 1.0 1.0 1.0
v 12.43890097885636 42.84836573499067 15.309061628770833 0.55 0.55 0.55
v 11.84673931369362 48.45158596853113 14.660366350173167 0.55 0.55 0.55
v 15.71900497586406 39.997956087191525 11.432307795162188 0.55 0.55 0.55
v 15.434573727510863 34.813651964234765 11.261378857684127 0.55 0.55 0.55
v 15.434573727510863 34.813651964234765 11.261378857684127 0.55 0.55 0.55
v 15.71900497586406 39.997956087191525 11.432307795162188 0.55 0.55 0.55
v 18.147394712799855 39.99899664181414 7.010845408995698 0.55 0.55 0.55
v 17.84432175946792 34.84154359168786 6.892847928327726 0.55 0.55 0.55
v 17.84432175946792 34.84154359168786 6.892847928327726 0.55 0.55 0.55
v 18.147394712799855 39.99899664181414 7.010845408995698 0.55 0.55 0.55
v 19.613347851057437 40.86563288449633 2.1965889985570635 0.55 0.55 0.55
v 19.365550360144198 35.421458491341774 2.1292267807584575 0.55 0.55 0.55
v 19.365550360144198 35.421458491341774 2.1292267807584575 0.55 0.55 0.55
v 19.613347851057437 40.86563288449633 2.1965889985570635 0.55 0.55 0.55
v 19.13374778982539 39.99943107263004 -3.722232443554477 0.55 0.55 0.55
v 18.811978069622363 34.83513934085166 -3.613776501377159 0.55 0.55 0.55
v 19.13374778982539 39.99943107263004 -3.722232443554477 0.55 0.55 0.55
v 18.810887600234665 45.16389173813295 -3.6258680101719185 0.55 0.55 0.55
v 17.16858618913963 45.161217617054845 -8.346754564975654 0.55 0.55 0.55
v 17.470048843881916 40.00040741382067 -8.483506387761627 0.55 0.55 0.55
v 17.470048843881916 40.00040741382067 -8.483506387761627 0.55 0.55 0.55
v 17.16858618913963 45.161217617054845 -8.346754564975654 0.55 0.55 0.55
v 14.403368466587384 45.208365301219835 -12.508555676031444 0.55 0.55 0.55
v 14.685963954298106 40.004990181318526 -12.701679920695877 0.55 0.55 0.55
v 14.685963954298106 40.004990181318526 -12.701679920695877 0.55 0.55 0.55
v 14.403368466587384 45.208365301219835 -12.508555676031444 0.55 0.55 0.55
v 10.519621068314162 49.0475579335877 -15.562777292233283 0.55 0.55 0.55
v 11.120569664971498 43.06872251992412 -16.34739365667386 0.55 0.55 0.55
v 11.120569664971498 43.06872251992412 -16.34739365667386 0.0 0.0 0.0
v 10.519621068314162 49.0475579335877 -15.562777292233283 0.0 0.0 0.0
v 6.389612123989277 45.835859425081345 -18.265685991877138 0.0 0.0 0.0
v 10.519621068314162 49.0475579335877 -15.562777292233283 0.0 0.0 0.0
v 9.44466353631681 54.84896234749769 -14.168730760769694 0.0 0.0 0.0
v 6.389612123989277 45.835859425081345 -18.265685991877138 0.0 0.0 0.0
v 14.403368466587384 45.208365301219835 -12.508555676031444 0.55 0.55 0.55
v 13.624257637826867 50.337968778524484 -11.97904492595054 0.55 0.55 0.55
v 9.44466353631681 54.84896234749769 -14.168730760769694 0.55 0.55 0.55
v 10.519621068314162 49.0475579335877 -15.562777292233283 0.55 0.55 0.55
v 17.16858618913963 45.161217617054845 -8.346754564975654 0.55 0.55 0.55
v 16.33620760067954 50.25201661665406 -7.9689076309629225 0.55 0.55 0.55
v 13.624257637826867 50.337968778524484 -11.97904492595054 0.55 0.55 0.55
v 14.403368466587384 45.208365301219835 -12.508555676031444 0.55 0.55 0.55
v 18.810887600234665 45.16389173813295 -3.6258680101719185 0.55 0.55 0.55
v 17.921145894751614 50.25563494604089 -3.348516995345847 0.55 0.55 0.55
v 16.33620760067954 50.25201661665406 -7.9689076309629225 0.55 0.55 0.55
v 17.16858618913963 45.161217617054845 -8.346754564975654 0.55 0.55 0.55
v 19.613347851057437 40.86563288449633 2.1965889985570635 0.55 0.55 0.55
v 19.097528630155445 46.28914283364896 2.0387088951020096 0.55 0.55 0.55
v 18.810887600234665 45.16389173813295 -3.6258680101719185 0.55 0.55 0.55
v 19.13374778982539 39.99943107263004 -3.722232443554477 0.55 0.55 0.55
v 18.147394712799855 39.99899664181414 7.010845408995698 0.55 0.55 0.55
v 17.848258494932896 45.156407559894966 6.88140733853701 0.55 0.55 0.55
v 19.097528630155445 46.28914283364896 2.0387088951020096 0.55 0.55 0.55
v 19.613347851057437 40.86563288449633 2.1965889985570635 0.55 0.55 0.55
v 15.71900497586406 39.997956087191525 11.432307795162188 0.55 0.55 0.55
v 15.442989708999516 45.18241022895549 11.25234387819683 0.55 0.55 0.55
v 17.848258494932896 45.156407559894966 6.88140733853701 0.55 0.55 0.55
v 18.147394712799855 39.99899664181414 7.010845408995698 0.55 0.55 0.55
v 11.84673931369362 48.45158596853113 14.660366350173167 1.0 1.0 1.0
v 15.442989708999516 45.18241022895549 11.25234387819683 1.0 1.0 1.0
v 15.71900497586406 39.997956087191525 11.432307795162188 1.0 1.0 1.0
v 11.84673931369362 48.45158596853113 14.660366350173167 1.0 1.0 1.0
v 14.649855824864135 50.294134425251634 10.764831706872785 1.0 1.0 1.0
v 15.442989708999516 45.18241022895549 11.25234387819683 1.0 1.0 1.0
v 15.442989708999516 45.18241022895549 11.25234387819683 0.55 0.55 0.55
v 14.649855824864135 50.294134425251634 10.764831706872785 0.55 0.55 0.55
v 17.00296872286864 50.24351687234931 6.532255549274751 0.55 0.55 0.55
v 17.848258494932896 45.156407559894966 6.88140733853701 0.55 0.55 0.55
v 17.848258494932896 45.156407559894966 6.88140733853701 0.55 0.55 0.55
v 17.00296872286864 50.24351687234931 6.532255549274751 0.55 0.55 0.55
v 17.921047861938227 51.60099375640423 1.6837310298369679 0.55 0.55 0.55
v 19.097528630155445 46.28914283364896 2.0387088951020096 0.55 0.55 0.55
v 19.097528630155445 46.28914283364896 2.0387088951020096 0.55 0.55 0.55
v 17.921047861938227 51.60099375640423 1.6837310298369679 0.55 0.55 0.55
v 17.921145894751614 50.25563494604089 -3.348516995345847 0.55 0.55 0.55
v 18.810887600234665 45.16389173813295 -3.6258680101719185 0.55 0.55 0.55
v 17.921145894751614 50.25563494604089 -3.348516995345847 0.55 0.55 0.55
v 16.61090769537284 55.247868229341165 -2.938971942161735 0.55 0.55 0.55
v 15.0914670028458 55.245958136929964 -7.445489908603932 0.55 0.55 0.55
v 16.33620760067954 50.25201661665406 -7.9689076309629225 0.55 0.55 0.55
v 16.33620760067954 50.25201661665406 -7.9689076309629225 0.55 0.55 0.55
v 15.0914670028458 55.245958136929964 -7.445489908603932 0.55 0.55 0.55
v 12.443573349858498 55.36533718450494 -11.243584406964823 0.55 0.55 0.55
v 13.624257637826867 50.337968778524484 -11.97904492595054 0.55 0.55 0.55
v 13.624257637826867 50.337968778524484 -11.97904492595054 0.55 0.55 0.55
v 12.443573349858498 55.36533718450494 -11.243584406964823 0.55 0.55 0.55
v 8.176448531058675 60.450843228051966 -12.287870221775407 0.55 0.55 0.55
v 9.44466353631681 54.84896234749769 -14.168730760769694 0.55 0.55 0.55
v 9.44466353631681 54.84896234749769 -14.168730760769694 0.55 0.55 0.55
v 8.176448531058675 60.450843228051966 -12.287870221775407 0.55 0.55 0.55
v 5.901986401987657 51.54610934443204 -17.059914647045392 0.55 0.55 0.55
v 6.389612123989277 45.835859425081345 -18.265685991877138 0.55 0.55 0.55
v 6.389612123989277 45.835859425081345 -18.265685991877138 0.55 0.55 0.55
v 5.901986401987657 51.54610934443204 -17.059914647045392 0.55 0.55 0.55
v 1.46335792886184 45.15835231753076 -19.023742109053828 0.55 0.55 0.55
v 1.5070318541740404 39.99882291541833 -19.350743766020972 0.55 0.55 0.55
v 1.5070318541740404 39.99882291541833 -19.350743766020972 0.0 0.0 0.0
v 1.46335792886184 45.15835231753076 -19.023742109053828 0.0 0.0 0.0
v -3.431487949044683 49.43077357120895 -18.36234173870515 0.0 0.0 0.0
v 1.46335792886184 45.15835231753076 -19.023742109053828 0.0 0.0 0.0
v 1.3570802871090102 50.248201868239455 -18.11831920171432 0.0 0.0 0.0
v -3.431487949044683 49.43077357120895 -18.36234173870515 0.0 0.0 0.0
v 5.901986401987657 51.54610934443204 -17.059914647045392 1.0 1.0 1.0
v 1.3570802871090102 50.248201868239455 -18.11831920171432 1.0 1.0 1.0
v 1.46335792886184 45.15835231753076 -19.023742109053828 1.0 1.0 1.0
v 5.901986401987657 51.54610934443204 -17.059914647045392 1.0 1.0 1.0
v 1.2137432468681972 55.24245775617161 -16.78193654885037 1.0 1.0 1.0
v 1.3570802871090102 50.248201868239455 -18.11831920171432 1.0 1.0 1.0
v 1.3570802871090102 50.248201868239455 -18.11831920171432 0.55 0.55 0.55
v 1.2137432468681972 55.24245775617161 -16.78193654885037 0.55 0.55 0.55
v -3.170261499046705 55.2269121545208 -16.58437913720118 0.55 0.55 0.55
v -3.431487949044683 49.43077357120895 -18.36234173870515 0.55 0.55 0.55
v -3.431487949044683 49.43077357120895 -18.36234173870515 0.55 0.55 0.55
v -3.170261499046705 55.2269121545208 -16.58437913720118 0.55 0.55 0.55
v -8.19001903064699 45.158908644398096 -17.251740308146015 0.55 0.55 0.55
v -8.321741563387853 39.999244268891225 -17.55519374568208 0.55 0.55 0.55
v -8.321741563387853 39.999244268891225 -17.55519374568208 0.55 0.55 0.55
v -8.19001903064699 45.158908644398096 -17.251740308146015 0.55 0.55 0.55
v -12.468273919475338 46.487183036550626 -14.782696140524935 0.55 0.55 0.55
v -12.758976277169817 41.15588171340585 -15.14739042730378 0.55 0.55 0.55
v -12.758976277169817 41.15588171340585 -15.14739042730378 0.0 0.0 0.0
v -12.468273919475338 46.487183036550626 -14.782696140524935 0.0 0.0 0.0
v -15.932194904927545 45.18459936406016 -11.075953412538224 0.0 0.0 0.0
v -12.468273919475338 46.487183036550626 -14.782696140524935 0.0 0.0 0.0
v -11.720330692529037 51.700791751772805 -13.825266419139071 0.0 0.0 0.0
v -15.932194904927545 45.18459936406016 -11.075953412538224 0.0 0.0 0.0
v -8.19001903064699 45.158908644398096 -17.251740308146015 0.55 0.55 0.55
v -7.815282514721095 50.24858310182339 -16.418558623469814 0.55 0.55 0.55
v -11.720330692529037 51.700791751772805 -13.825266419139071 0.55 0.55 0.55
v -12.468273919475338 46.487183036550626 -14.782696140524935 0.55 0.55 0.55
v -3.170261499046705 55.2269121545208 -16.58437913720118 1.0 1.0 1.0
v -7.815282514721095 50.24858310182339 -16.418558623469814 1.0 1.0 1.0
v -8.19001903064699 45.158908644398096 -17.251740308146015 1.0 1.0 1.0
v -3.170261499046705 55.2269121545208 -16.58437913720118 1.0 1.0 1.0
v -7.256580361655973 55.24230342285113 -15.193527128953875 1.0 1.0 1.0
v -7.815282514721095 50.24858310182339 -16.418558623469814 1.0 1.0 1.0
v -7.815282514721095 50.24858310182339 -16.418558623469814 0.55 0.55 0.55
v -7.256580361655973 55.24230342285113 -15.193527128953875 0.55 0.55 0.55
v -10.610927170118526 56.74117962410742 -12.396875837272265 0.55 0.55 0.55
v -11.720330692529037 51.700791751772805 -13.825266419139071 0.55 0.55 0.55
v -11.720330692529037 51.700791751772805 -13.825266419139071 0.55 0.55 0.55
v -10.610927170118526 56.74117962410742 -12.396875837272265 0.55 0.55 0.55
v -14.97750386423595 50.3219544447513 -10.429348448339079 0.55 0.55 0.55
v -15.932194904927545 45.18459936406016 -11.075953412538224 0.55 0.55 0.55
v -15.932194904927545 45.18459936406016 -11.075953412538224 0.55 0.55 0.55
v -14.97750386423595 50.3219544447513 -10.429348448339079 0.55 0.55 0.55
v -18.435251735889274 44.18404193073443 -6.689417004720508 0.55 0.55 0.55
v -18.621756347705645 38.668837444176376 -6.768255778571249 0.55 0.55 0.55
v -18.621756347705645 38.668837444176376 -6.768255778571249 0.55 0.55 0.55
v -18.435251735889274 44.18404193073443 -6.689417004720508 0.55 0.55 0.55
v -19.0016734457953 45.163809788020146 -1.661500582210041 0.55 0.55 0.55
v -19.330652316049473 39.999164067420075 -1.6912244771654399 0.55 0.55 0.55
v -19.330652316049473 39.999164067420075 -1.6912244771654399 0.0 0.0 0.0
v -19.0016734457953 45.163809788020146 -1.661500582210041 0.0 0.0 0.0
v -18.50119603347228 48.95460415563319 3.2168706507254083 0.0 0.0 0.0
v -19.0016734457953 45.163809788020146 -1.661500582210041 0.0 0.0 0.0
v -18.090644585168395 50.25851819839265 -1.592025348717125 0.0 0.0 0.0
v -18.50119603347228 48.95460415563319 3.2168706507254083 0.0 0.0 0.0
v -18.435251735889274 44.18404193073443 -6.689417004720508 0.55 0.55 0.55
v -17.501367624053987 49.6131278521508 -6.330776473318867 0.55 0.55 0.55
v -18.090644585168395 50.25851819839265 -1.592025348717125 0.55 0.55 0.55
v -19.0016734457953 45.163809788020146 -1.661500582210041 0.55 0.55 0.55
v -14.97750386423595 50.3219544447513 -10.429348448339079 1.0 1.0 1.0
v -17.501367624053987 49.6131278521508 -6.330776473318867 1.0 1.0 1.0
v -18.435251735889274 44.18404193073443 -6.689417004720508 1.0 1.0 1.0
v -14.97750386423595 50.3219544447513 -10.429348448339079 1.0 1.0 1.0
v -15.961994906641102 54.885132517362756 -5.752888601298821 1.0 1.0 1.0
v -17.501367624053987 49.6131278521508 -6.330776473318867 1.0 1.0 1.0
v -17.501367624053987 49.6131278521508 -6.330776473318867 0.55 0.55 0.55
v -15.961994906641102 54.885132517362756 -5.752888601298821 0.55 0.55 0.55
v -16.74747985347491 55.257506412766325 -1.4976643186493968 0.55 0.55 0.55
v -18.090644585168395 50.25851819839265 -1.592025348717125 0.55 0.55 0.55
v -18.090644585168395 50.25851819839265 -1.592025348717125 0.55 0.55 0.55
v -16.74747985347491 55.257506412766325 -1.4976643186493968 0.55 0.55 0.55
v -16.787511828512283 54.72673831070424 2.9133725011113616 0.55 0.55 0.55
v -18.50119603347228 48.95460415563319 3.2168706507254083 0.55 0.55 0.55
v -18.50119603347228 48.95460415563319 3.2168706507254083 0.55 0.55 0.55
v -16.787511828512283 54.72673831070424 2.9133725011113616 0.55 0.55 0.55
v -17.348466788717985 45.16405849105517 8.012881133912485 0.55 0.55 0.55
v -17.646633953519206 39.99847686413841 8.15751333469993 0.55 0.55 0.55
v -17.646633953519206 39.99847686413841 8.15751333469993 0.55 0.55 0.55
v -17.348466788717985 45.16405849105517 8.012881133912485 0.55 0.55 0.55
v -14.547084288157517 48.1900287258618 12.04340293013136 0.55 0.55 0.55
v -15.159836403433614 42.73723587004115 12.560256957281473 0.55 0.55 0.55
v -15.159836403433614 42.73723587004115 12.560256957281473 0.55 0.55 0.55
v -14.547084288157517 48.1900287258618 12.04340293013136 0.55 0.55 0.55
v -11.074667526746042 45.16690158595098 15.584109179448925 0.55 0.55 0.55
v -11.259534216144877 39.998389500493374 15.860078264856394 0.55 0.55 0.55
v -11.259534216144877 39.998389500493374 15.860078264856394 0.0 0.0 0.0
v -11.074667526746042 45.16690158595098 15.584109179448925 0.0 0.0 0.0
v -6.911841979438672 43.54058976264071 18.433274183450997 0.0 0.0 0.0
v -11.074667526746042 45.16690158595098 15.584109179448925 0.0 0.0 0.0
v -10.57259684805139 50.26453832102215 14.813464267573542 0.0 0.0 0.0
v -6.911841979438672 43.54058976264071 18.433274183450997 0.0 0.0 0.0
v -14.547084288157517 48.1900287258618 12.04340293013136 0.55 0.55 0.55
v -13.44131274219731 53.508815186122064 11.105637782418926 0.55 0.55 0.55
v -10.57259684805139 50.26453832102215 14.813464267573542 0.55 0.55 0.55
v -11.074667526746042 45.16690158595098 15.584109179448925 0.55 0.55 0.55
v -17.348466788717985 45.16405849105517 8.012881133912485 0.55 0.55 0.55
v -16.52862440401312 50.259254383266324 7.603715385090114 0.55 0.55 0.55
v -13.44131274219731 53.508815186122064 11.105637782418926 0.55 0.55 0.55
v -14.547084288157517 48.1900287258618 12.04340293013136 0.55 0.55 0.55
v -16.787511828512283 54.72673831070424 2.9133725011113616 1.0 1.0 1.0
v -16.52862440401312 50.259254383266324 7.603715385090114 1.0 1.0 1.0
v -17.348466788717985 45.16405849105517 8.012881133912485 1.0 1.0 1.0
v -16.787511828512283 54.72673831070424 2.9133725011113616 1.0 1.0 1.0
v -15.320990840609195 55.2580216749435 6.998704322551069 1.0 1.0 1.0
v -16.52862440401312 50.259254383266324 7.603715385090114 1.0 1.0 1.0
v -16.52862440401312 50.259254383266324 7.603715385090114 0.55 0.55 0.55
v -15.320990840609195 55.2580216749435 6.998704322551069 0.55 0.55 0.55
v -11.992121596002699 58.68528211138403 9.875321785683125 0.55 0.55 0.55
v -13.44131274219731 53.508815186122064 11.105637782418926 0.55 0.55 0.55
v -13.44131274219731 53.508815186122064 11.105637782418926 0.55 0.55 0.55
v -11.992121596002699 58.68528211138403 9.875321785683125 0.55 0.55 0.55
v -9.842010199594068 55.26497840597002 13.67095988368679 0.55 0.55 0.55
v -10.57259684805139 50.26453832102215 14.813464267573542 0.55 0.55 0.55
v -10.57259684805139 50.26453832102215 14.813464267573542 0.55 0.55 0.55
v -9.842010199594068 55.26497840597002 13.67095988368679 0.55 0.55 0.55
v -6.579980444070191 49.299377194987 17.48860746785533 0.55 0.55 0.55
v -6.911841979438672 43.54058976264071 18.433274183450997 0.55 0.55 0.55
v -6.911841979438672 43.54058976264071 18.433274183450997 0.55 0.55 0.55
v -6.579980444070191 49.299377194987 17.48860746785533 0.55 0.55 0.55
v -1.8693676189192303 45.171033853187815 18.9825872226591 0.55 0.55 0.55
v -1.8862137216655126 39.99799192814179 19.314107618723135 0.55 0.55 0.55
v -1.8862137216655126 39.99799192814179 19.314107618723135 0.0 0.0 0.0
v -1.8693676189192303 45.171033853187815 18.9825872226591 0.0 0.0 0.0
v 3.002867371553563 48.64419555573052 18.599115797161392 0.0 0.0 0.0
v -1.8693676189192303 45.171033853187815 18.9825872226591 0.0 0.0 0.0
v -1.8345371768027523 50.2733415444623 18.063811560067514 0.0 0.0 0.0
v 3.002867371553563 48.64419555573052 18.599115797161392 0.0 0.0 0.0
v -6.579980444070191 49.299377194987 17.48860746785533 1.0 1.0 1.0
v -1.8345371768027523 50.2733415444623 18.063811560067514 1.0 1.0 1.0
v -1.8693676189192303 45.171033853187815 18.9825872226591 1.0 1.0 1.0
v -6.579980444070191 49.299377194987 17.48860746785533 1.0 1.0 1.0
v -1.7874024232607748 55.27884494442772 16.709611072116797 1.0 1.0 1.0
v -1.8345371768027523 50.2733415444623 18.063811560067514 1.0 1.0 1.0
v -1.8345371768027523 50.2733415444623 18.063811560067514 0.55 0.55 0.55
v -1.7874024232607748 55.27884494442772 16.709611072116797 0.55 0.55 0.55
v 2.669167537060676 54.410660153607644 16.921991158505172 0.55 0.55 0.55
v 3.002867371553563 48.64419555573052 18.599115797161392 0.55 0.55 0.55
v 3.002867371553563 48.64419555573052 18.599115797161392 0.55 0.55 0.55
v 2.669167537060676 54.410660153607644 16.921991158505172 0.55 0.55 0.55
v 7.848554771848532 45.188063341043446 17.43001282817078 0.55 0.55 0.55
v 8.004020834910472 39.99924188471424 17.720398328120233 0.55 0.55 0.55
v 8.004020834910472 39.99924188471424 17.720398328120233 0.0 0.0 0.0
v 7.848554771848532 45.188063341043446 17.43001282817078 0.0 0.0 0.0
v 11.84673931369362 48.45158596853113 14.660366350173167 0.0 0.0 0.0
v 7.848554771848532 45.188063341043446 17.43001282817078 0.0 0.0 0.0
v 7.402643169567021 50.30485694444803 16.616974565077875 0.0 0.0 0.0
v 11.84673931369362 48.45158596853113 14.660366350173167 0.0 0.0 0.0
v 2.669167537060676 54.410660153607644 16.921991158505172 1.0 1.0 1.0
v 7.402643169567021 50.30485694444803 16.616974565077875 1.0 1.0 1.0
v 7.848554771848532 45.188063341043446 17.43001282817078 1.0 1.0 1.0
v 2.669167537060676 54.410660153607644 16.921991158505172 1.0 1.0 1.0
v 6.739503165588123 55.32358567030487 15.423236549682219 1.0 1.0 1.0
v 7.402643169567021 50.30485694444803 16.616974565077875 1.0 1.0 1.0
v 7.402643169567021 50.30485694444803 16.616974565077875 0.55 0.55 0.55
v 6.739503165588123 55.32358567030487 15.423236549682219 0.55 0.55 0.55
v 10.761127348184397 53.89954030301516 13.507903160403202 0.55 0.55 0.55
v 11.84673931369362 48.45158596853113 14.660366350173167 0.55 0.55 0.55
v 11.84673931369362 48.45158596853113 14.660366350173167 0.55 0.55 0.55
v 10.761127348184397 53.89954030301516 13.507903160403202 0.55 0.55 0.55
v 13.443457898063436 55.304411065656254 10.096041344985496 0.55 0.55 0.55
v 14.649855824864135 50.294134425251634 10.764831706872785 0.55 0.55 0.55
v 14.649855824864135 50.294134425251634 10.764831706872785 0.55 0.55 0.55
v 13.443457898063436 55.304411065656254 10.096041344985496 0.55 0.55 0.55
v 15.745744620592578 55.23454388805488 6.047630911118699 0.55 0.55 0.55
v 17.00296872286864 50.24351687234931 6.532255549274751 0.55 0.55 0.55
v 17.00296872286864 50.24351687234931 6.532255549274751 0.55 0.55 0.55
v 15.745744620592578 55.23454388805488 6.047630911118699 0.55 0.55 0.55
v 16.26794202226439 56.77483338775914 1.1871562394317405 0.55 0.55 0.55
v 17.921047861938227 51.60099375640423 1.6837310298369679 0.55 0.55 0.55
v 17.921047861938227 51.60099375640423 1.6837310298369679 0.55 0.55 0.55
v 16.26794202226439 56.77483338775914 1.1871562394317405 0.55 0.55 0.55
v 16.61090769537284 55.247868229341165 -2.938971942161735 0.55 0.55 0.55
v 17.921145894751614 50.25563494604089 -3.348516995345847 0.55 0.55 0.55
v 16.61090769537284 55.247868229341165 -2.938971942161735 0.55 0.55 0.55
v 15.044893576571443 60.16027737779283 -2.4592977227315163 0.55 0.55 0.55
v 13.55321031570387 60.15760712290274 -6.918415589994893 0.55 0.55 0.55
v 15.0914670028458 55.245958136929964 -7.445489908603932 0.55 0.55 0.55
v 15.0914670028458 55.245958136929964 -7.445489908603932 0.55 0.55 0.55
v 13.55321031570387 60.15760712290274 -6.918415589994893 0.55 0.55 0.55
v 10.879814798379547 60.29341798870412 -10.567668913081826 0.55 0.55 0.55
v 12.443573349858498 55.36533718450494 -11.243584406964823 0.55 0.55 0.55
v 8.176448531058675 60.450843228051966 -12.287870221775407 1.0 0.0 0.0
v 12.443573349858498 55.36533718450494 -11.243584406964823 1.0 0.0 0.0
v 10.879814798379547 60.29341798870412 -10.567668913081826 1.0 0.0 0.0
v 5.217864295133599 57.08692746034038 -15.283169504621629 1.0 0.0 0.0
v 5.901986401987657 51.54610934443204 -17.059914647045392 1.0 0.0 0.0
v 5.901986401987657 51.54610934443204 -17.059914647045392 0.55 0.55 0.55
v 5.217864295133599 57.08692746034038 -15.283169504621629 0.55 0.55 0.55
v 1.0586343419010775 60.1592069526955 -15.182784680496496 0.55 0.55 0.55
v 1.2137432468681972 55.24245775617161 -16.78193654885037 0.55 0.55 0.55
v 1.2137432468681972 55.24245775617161 -16.78193654885037 0.55 0.55 0.55
v 1.0586343419010775 60.1592069526955 -15.182784680496496 0.55 0.55 0.55
v -2.8492363775140337 60.85104018583728 -14.32282025490619 0.55 0.55 0.55
v -3.170261499046705 55.2269121545208 -16.58437913720118 0.55 0.55 0.55
v -3.170261499046705 55.2269121545208 -16.58437913720118 0.55 0.55 0.55
v -2.8492363775140337 60.85104018583728 -14.32282025490619 0.55 0.55 0.55
v -6.581049626218907 60.158387244730996 -13.73320754525831 0.55 0.55 0.55
v -7.256580361655973 55.24230342285113 -15.193527128953875 0.55 0.55 0.55
v -7.256580361655973 55.24230342285113 -15.193527128953875 0.55 0.55 0.55
v -6.581049626218907 60.158387244730996 -13.73320754525831 0.55 0.55 0.55
v -9.25745452865068 61.612163244989574 -10.627032215653793 0.55 0.55 0.55
v -10.610927170118526 56.74117962410742 -12.396875837272265 0.55 0.55 0.55
v -10.610927170118526 56.74117962410742 -12.396875837272265 0.55 0.55 0.55
v -9.25745452865068 61.612163244989574 -10.627032215653793 0.55 0.55 0.55
v -13.663426043588851 55.34361436032385 -9.536833554947597 0.55 0.55 0.55
v -14.97750386423595 50.3219544447513 -10.429348448339079 0.55 0.55 0.55
v -14.97750386423595 50.3219544447513 -10.429348448339079 0.55 0.55 0.55
v -13.663426043588851 55.34361436032385 -9.536833554947597 0.55 0.55 0.55
v -14.002762664824857 59.99756064801805 -5.019846422326884 0.55 0.55 0.55
v -15.961994906641102 54.885132517362756 -5.752888601298821 0.55 0.55 0.55
v -15.961994906641102 54.885132517362756 -5.752888601298821 0.55 0.55 0.55
v -14.002762664824857 59.99756064801805 -5.019846422326884 0.55 0.55 0.55
v -15.141646682734976 60.178949434154404 -1.394542518974804 0.55 0.55 0.55
v -16.74747985347491 55.257506412766325 -1.4976643186493968 0.55 0.55 0.55
v -16.74747985347491 55.257506412766325 -1.4976643186493968 0.55 0.55 0.55
v -15.141646682734976 60.178949434154404 -1.394542518974804 0.55 0.55 0.55
v -14.562837650539969 60.319366092273725 2.5320418916641154 0.55 0.55 0.55
v -16.787511828512283 54.72673831070424 2.9133725011113616 0.55 0.55 0.55
v -16.787511828512283 54.72673831070424 2.9133725011113616 0.55 0.55 0.55
v -14.562837650539969 60.319366092273725 2.5320418916641154 0.55 0.55 0.55
v -13.881965851172266 60.17856956426605 6.266859200122313 0.55 0.55 0.55
v -15.320990840609195 55.2580216749435 6.998704322551069 0.55 0.55 0.55
v -15.320990840609195 55.2580216749435 6.998704322551069 0.0 0.0 0.0
v -13.881965851172266 60.17856956426605 6.266859200122313 0.0 0.0 0.0
v -11.992121596002699 58.68528211138403 9.875321785683125 0.0 0.0 0.0
v -13.881965851172266 60.17856956426605 6.266859200122313 0.0 0.0 0.0
v -12.440260952643863 65.06122029697276 5.330496482638668 0.0 0.0 0.0
v -11.992121596002699 58.68528211138403 9.875321785683125 0.0 0.0 0.0
v -14.562837650539969 60.319366092273725 2.5320418916641154 1.0 0.0 0.0
v -15.141646682734976 60.178949434154404 -1.394542518974804 1.0 0.0 0.0
v -13.423300448077642 65.06038793070215 -1.4518318298849013 1.0 0.0 0.0
v -12.440260952643863 65.06122029697276 5.330496482638668 1.0 0.0 0.0
v -13.881965851172266 60.17856956426605 6.266859200122313 1.0 0.0 0.0
v -14.002762664824857 59.99756064801805 -5.019846422326884 1.0 0.0 0.0
v -13.663426043588851 55.34361436032385 -9.536833554947597 1.0 0.0 0.0
v -12.172087636506129 60.29508295066368 -8.532479723721174 1.0 0.0 0.0
v -13.423300448077642 65.06038793070215 -1.4518318298849013 1.0 0.0 0.0
v -15.141646682734976 60.178949434154404 -1.394542518974804 1.0 0.0 0.0
v -9.25745452865068 61.612163244989574 -10.627032215653793 1.0 0.0 0.0
v -6.581049626218907 60.158387244730996 -13.73320754525831 1.0 0.0 0.0
v -5.5743285575406185 65.02826499773664 -12.343104033528794 1.0 0.0 0.0
v -12.172087636506129 60.29508295066368 -8.532479723721174 1.0 0.0 0.0
v -13.663426043588851 55.34361436032385 -9.536833554947597 1.0 0.0 0.0
v -2.8492363775140337 60.85104018583728 -14.32282025490619 1.0 0.0 0.0
v 1.0586343419010775 60.1592069526955 -15.182784680496496 1.0 0.0 0.0
v 1.0455109615366789 65.03715310737698 -13.472168909161914 1.0 0.0 0.0
v -5.5743285575406185 65.02826499773664 -12.343104033528794 1.0 0.0 0.0
v -6.581049626218907 60.158387244730996 -13.73320754525831 1.0 0.0 0.0
v 5.217864295133599 57.08692746034038 -15.283169504621629 0.55 0.55 0.55
v 4.5188941471502 62.489049864756225 -13.122160366111064 0.55 0.55 0.55
v 1.0455109615366789 65.03715310737698 -13.472168909161914 0.55 0.55 0.55
v 1.0586343419010775 60.1592069526955 -15.182784680496496 0.55 0.55 0.55
v 10.879814798379547 60.29341798870412 -10.567668913081826 0.55 0.55 0.55
v 8.726215060513011 65.01359362243478 -10.27221743696832 0.55 0.55 0.55
v 4.5188941471502 62.489049864756225 -13.122160366111064 0.55 0.55 0.55
v 5.217864295133599 57.08692746034038 -15.283169504621629 0.55 0.55 0.55
v 13.55321031570387 60.15760712290274 -6.918415589994893 0.55 0.55 0.55
v 11.86203794578338 65.02750771951872 -6.473958301356471 0.55 0.55 0.55
v 8.726215060513011 65.01359362243478 -10.27221743696832 0.55 0.55 0.55
v 10.879814798379547 60.29341798870412 -10.567668913081826 0.55 0.55 0.55
v 15.044893576571443 60.16027737779283 -2.4592977227315163 0.55 0.55 0.55
v 13.383053711205486 65.03804241384708 -1.9473872537590504 0.55 0.55 0.55
v 11.86203794578338 65.02750771951872 -6.473958301356471 0.55 0.55 0.55
v 13.55321031570387 60.15760712290274 -6.918415589994893 0.55 0.55 0.55
v 16.26794202226439 56.77483338775914 1.1871562394317405 1.0 1.0 1.0
v 15.044893576571443 60.16027737779283 -2.4592977227315163 1.0 1.0 1.0
v 16.61090769537284 55.247868229341165 -2.938971942161735 1.0 1.0 1.0
v 16.26794202226439 56.77483338775914 1.1871562394317405 1.0 1.0 1.0
v 13.383053711205486 65.03804241384708 -1.9473872537590504 1.0 1.0 1.0
v 15.044893576571443 60.16027737779283 -2.4592977227315163 1.0 1.0 1.0
v 13.383053711205486 65.03804241384708 -1.9473872537590504 0.55 0.55 0.55
v 11.784529650591535 69.93343647296108 -1.404298089988353 0.55 0.55 0.55
v 10.263027158114477 69.9230902598853 -5.976646288768216 0.55 0.55 0.55
v 11.86203794578338 65.02750771951872 -6.473958301356471 0.55 0.55 0.55
v 11.86203794578338 65.02750771951872 -6.473958301356471 0.55 0.55 0.55
v 10.263027158114477 69.9230902598853 -5.976646288768216 0.55 0.55 0.55
v 6.940920230962827 69.8735775665987 -9.635957762133504 0.55 0.55 0.55
v 8.726215060513011 65.01359362243478 -10.27221743696832 0.55 0.55 0.55
v 4.5188941471502 62.489049864756225 -13.122160366111064 1.0 0.0 0.0
v 8.726215060513011 65.01359362243478 -10.27221743696832 1.0 0.0 0.0
v 6.940920230962827 69.8735775665987 -9.635957762133504 1.0 0.0 0.0
v 1.0545679410835147 69.92395258538158 -11.822105094214074 1.0 0.0 0.0
v 1.0455109615366789 65.03715310737698 -13.472168909161914 1.0 0.0 0.0
v 1.0455109615366789 65.03715310737698 -13.472168909161914 0.55 0.55 0.55
v 1.0545679410835147 69.92395258538158 -11.822105094214074 0.55 0.55 0.55
v -4.730408418383854 69.92448632135213 -10.929046014183472 0.55 0.55 0.55
v -5.5743285575406185 65.02826499773664 -12.343104033528794 0.55 0.55 0.55
v -5.5743285575406185 65.02826499773664 -12.343104033528794 0.55 0.55 0.55
v -4.730408418383854 69.92448632135213 -10.929046014183472 0.55 0.55 0.55
v -10.122187279970529 64.81985650894262 -8.455717369033676 0.55 0.55 0.55
v -12.172087636506129 60.29508295066368 -8.532479723721174 0.55 0.55 0.55
v -12.172087636506129 60.29508295066368 -8.532479723721174 0.55 0.55 0.55
v -10.122187279970529 64.81985650894262 -8.455717369033676 0.55 0.55 0.55
v -11.74747460493736 69.90626098291862 -1.86262261808144 0.55 0.55 0.55
v -13.423300448077642 65.06038793070215 -1.4518318298849013 0.55 0.55 0.55
v -13.423300448077642 65.06038793070215 -1.4518318298849013 0.55 0.55 0.55
v -11.74747460493736 69.90626098291862 -1.86262261808144 0.55 0.55 0.55
v -11.137812012826458 69.91230153563794 4.131653116844152 0.55 0.55 0.55
v -12.440260952643863 65.06122029697276 5.330496482638668 0.55 0.55 0.55
v -12.440260952643863 65.06122029697276 5.330496482638668 0.55 0.55 0.55
v -11.137812012826458 69.91230153563794 4.131653116844152 0.55 0.55 0.55
v -10.305344651405097 63.75943145740588 8.527260673396825 0.55 0.55 0.55
v -11.992121596002699 58.68528211138403 9.875321785683125 0.55 0.55 0.55
v -11.992121596002699 58.68528211138403 9.875321785683125 0.55 0.55 0.55
v -10.305344651405097 63.75943145740588 8.527260673396825 0.55 0.55 0.55
v -8.97903457690332 60.18655025908593 12.298590931290565 0.55 0.55 0.55
v -9.842010199594068 55.26497840597002 13.67095988368679 0.55 0.55 0.55
v -6.579980444070191 49.299377194987 17.48860746785533 1.0 0.0 0.0
v -9.842010199594068 55.26497840597002 13.67095988368679 1.0 0.0 0.0
v -8.97903457690332 60.18655025908593 12.298590931290565 1.0 0.0 0.0
v -1.7464886223548675 60.205638882864484 15.090139489604306 1.0 0.0 0.0
v -1.7874024232607748 55.27884494442772 16.709611072116797 1.0 0.0 0.0
v -1.7874024232607748 55.27884494442772 16.709611072116797 0.55 0.55 0.55
v -1.7464886223548675 60.205638882864484 15.090139489604306 0.55 0.55 0.55
v 2.2634284745868474 59.99420301652311 14.716676025509482 0.55 0.55 0.55
v 2.669167537060676 54.410660153607644 16.921991158505172 0.55 0.55 0.55
v 2.669167537060676 54.410660153607644 16.921991158505172 0.55 0.55 0.55
v 2.2634284745868474 59.99420301652311 14.716676025509482 0.55 0.55 0.55
v 6.0062884110508765 60.26300556481199 13.966728602124668 0.55 0.55 0.55
v 6.739503165588123 55.32358567030487 15.423236549682219 0.55 0.55 0.55
v 6.739503165588123 55.32358567030487 15.423236549682219 0.55 0.55 0.55
v 6.0062884110508765 60.26300556481199 13.966728602124668 0.55 0.55 0.55
v 9.277759215090883 59.178089643845134 12.047576604559117 0.55 0.55 0.55
v 10.761127348184397 53.89954030301516 13.507903160403202 0.55 0.55 0.55
v 10.761127348184397 53.89954030301516 13.507903160403202 0.55 0.55 0.55
v 9.277759215090883 59.178089643845134 12.047576604559117 0.55 0.55 0.55
v 11.877959539609927 60.21812500924186 9.460739000687862 0.55 0.55 0.55
v 13.443457898063436 55.304411065656254 10.096041344985496 0.55 0.55 0.55
v 13.443457898063436 55.304411065656254 10.096041344985496 0.55 0.55 0.55
v 11.877959539609927 60.21812500924186 9.460739000687862 0.55 0.55 0.55
v 14.221824244698624 60.14892515325375 5.538054514605544 0.55 0.55 0.55
v 15.745744620592578 55.23454388805488 6.047630911118699 0.55 0.55 0.55
v 15.745744620592578 55.23454388805488 6.047630911118699 0.0 0.0 0.0
v 14.221824244698624 60.14892515325375 5.538054514605544 0.0 0.0 0.0
v 16.26794202226439 56.77483338775914 1.1871562394317405 0.0 0.0 0.0
v 14.221824244698624 60.14892515325375 5.538054514605544 0.0 0.0 0.0
v 12.58383989732899 65.0303009890895 5.063310338322638 0.0 0.0 0.0
v 16.26794202226439 56.77483338775914 1.1871562394317405 0.0 0.0 0.0
v 11.877959539609927 60.21812500924186 9.460739000687862 0.55 0.55 0.55
v 9.971411352026472 65.04136479562969 9.11498124272731 0.55 0.55 0.55
v 12.58383989732899 65.0303009890895 5.063310338322638 0.55 0.55 0.55
v 14.221824244698624 60.14892515325375 5.538054514605544 0.55 0.55 0.55
v 9.277759215090883 59.178089643845134 12.047576604559117 1.0 0.0 0.0
v 6.0062884110508765 60.26300556481199 13.966728602124668 1.0 0.0 0.0
v 5.045595903927728 65.13711380312522 12.532298666258102 1.0 0.0 0.0
v 9.971411352026472 65.04136479562969 9.11498124272731 1.0 0.0 0.0
v 11.877959539609927 60.21812500924186 9.460739000687862 1.0 0.0 0.0
v 2.2634284745868474 59.99420301652311 14.716676025509482 1.0 0.0 0.0
v -1.7464886223548675 60.205638882864484 15.090139489604306 1.0 0.0 0.0
v -2.1820994497271395 65.04862856357111 13.34219134269916 1.0 0.0 0.0
v 5.045595903927728 65.13711380312522 12.532298666258102 1.0 0.0 0.0
v 6.0062884110508765 60.26300556481199 13.966728602124668 1.0 0.0 0.0
v -8.97903457690332 60.18655025908593 12.298590931290565 0.55 0.55 0.55
v -8.30734713949863 65.04214966619895 10.657639165013965 0.55 0.55 0.55
v -2.1820994497271395 65.04862856357111 13.34219134269916 0.55 0.55 0.55
v -1.7464886223548675 60.205638882864484 15.090139489604306 0.55 0.55 0.55
v -10.305344651405097 63.75943145740588 8.527260673396825 1.0 1.0 1.0
v -8.30734713949863 65.04214966619895 10.657639165013965 1.0 1.0 1.0
v -8.97903457690332 60.18655025908593 12.298590931290565 1.0 1.0 1.0
v -10.305344651405097 63.75943145740588 8.527260673396825 1.0 1.0 1.0
v -7.759597057916945 69.90757963303064 8.991612566857635 1.0 1.0 1.0
v -8.30734713949863 65.04214966619895 10.657639165013965 1.0 1.0 1.0
v -8.30734713949863 65.04214966619895 10.657639165013965 0.55 0.55 0.55
v -7.759597057916945 69.90757963303064 8.991612566857635 0.55 0.55 0.55
v -2.547937755703847 69.90233260831724 11.60098396633403 0.55 0.55 0.55
v -2.1820994497271395 65.04862856357111 13.34219134269916 0.55 0.55 0.55
v -2.1820994497271395 65.04862856357111 13.34219134269916 0.55 0.55 0.55
v -2.547937755703847 69.90233260831724 11.60098396633403 0.55 0.55 0.55
v 3.35303762349757 69.87115486315864 11.39147573421857 0.55 0.55 0.55
v 5.045595903927728 65.13711380312522 12.532298666258102 0.55 0.55 0.55
v 5.045595903927728 65.13711380312522 12.532298666258102 0.55 0.55 0.55
v 3.35303762349757 69.87115486315864 11.39147573421857 0.55 0.55 0.55
v 8.225756949542577 69.90376768430222 8.548202323523673 0.55 0.55 0.55
v 9.971411352026472 65.04136479562969 9.11498124272731 0.55 0.55 0.55
v 9.971411352026472 65.04136479562969 9.11498124272731 0.55 0.55 0.55
v 8.225756949542577 69.90376768430222 8.548202323523673 0.55 0.55 0.55
v 11.00992064595419 69.92918089966119 4.554836088633632 0.55 0.55 0.55
v 12.58383989732899 65.0303009890895 5.063310338322638 0.55 0.55 0.55
v 12.58383989732899 65.0303009890895 5.063310338322638 0.55 0.55 0.55
v 11.00992064595419 69.92918089966119 4.554836088633632 0.55 0.55 0.55
v 14.33175356835373 61.84152894559176 0.6043993841427528 0.55 0.55 0.55
v 16.26794202226439 56.77483338775914 1.1871562394317405 0.55 0.55 0.55
v 16.26794202226439 56.77483338775914 1.1871562394317405 0.55 0.55 0.55
v 14.33175356835373 61.84152894559176 0.6043993841427528 0.55 0.55 0.55
v 11.784529650591535 69.93343647296108 -1.404298089988353 0.55 0.55 0.55
v 13.383053711205486 65.03804241384708 -1.9473872537590504 0.55 0.55 0.55
v 11.784529650591535 69.93343647296108 -1.404298089988353 0.55 0.55 0.55
v 9.320654418448001 79.9421227463591 -0.4809422956018158 0.55 0.55 0.55
v 7.875779277799028 79.94130809493657 -5.043233620446284 0.55 0.55 0.55
v 10.263027158114477 69.9230902598853 -5.976646288768216 0.55 0.55 0.55
v 10.263027158114477 69.9230902598853 -5.976646288768216 0.55 0.55 0.55
v 7.875779277799028 79.94130809493657 -5.043233620446284 0.55 0.55 0.55
v 4.448446693987112 79.91191028741008 -8.335477762001913 0.55 0.55 0.55
v 6.940920230962827 69.8735775665987 -9.635957762133504 0.55 0.55 0.55
v 6.940920230962827 69.8735775665987 -9.635957762133504 0.55 0.55 0.55
v 4.448446693987112 79.91191028741008 -8.335477762001913 0.55 0.55 0.55
v 0.5985834012723882 79.94062587525224 -9.30861386089542 0.55 0.55 0.55
v 1.0545679410835147 69.92395258538158 -11.822105094214074 0.55 0.55 0.55
v 1.0545679410835147 69.92395258538158 -11.822105094214074 0.55 0.55 0.55
v 0.5985834012723882 79.94062587525224 -9.30861386089542 0.55 0.55 0.55
v -3.766290094929807 79.94031172672537 -8.557375100260401 0.55 0.55 0.55
v -4.730408418383854 69.92448632135213 -10.929046014183472 0.55 0.55 0.55
v -4.730408418383854 69.92448632135213 -10.929046014183472 0.55 0.55 0.55
v -3.766290094929807 79.94031172672537 -8.557375100260401 0.55 0.55 0.55
v -9.132138429838042 69.58063918301283 -7.248978831282237 0.55 0.55 0.55
v -10.122187279970529 64.81985650894262 -8.455717369033676 0.55 0.55 0.55
v -10.122187279970529 64.81985650894262 -8.455717369033676 0.0 0.0 0.0
v -9.132138429838042 69.58063918301283 -7.248978831282237 0.0 0.0 0.0
v -11.74747460493736 69.90626098291862 -1.86262261808144 0.0 0.0 0.0
v -9.132138429838042 69.58063918301283 -7.248978831282237 0.0 0.0 0.0
v -8.20579240371673 74.70165927401327 -6.447037892684793 0.0 0.0 0.0
v -11.74747460493736 69.90626098291862 -1.86262261808144 0.0 0.0 0.0
v -3.766290094929807 79.94031172672537 -8.557375100260401 1.0 1.0 1.0
v -8.20579240371673 74.70165927401327 -6.447037892684793 1.0 1.0 1.0
v -9.132138429838042 69.58063918301283 -7.248978831282237 1.0 1.0 1.0
v -3.766290094929807 79.94031172672537 -8.557375100260401 1.0 1.0 1.0
v -7.727650884162909 79.9309060885586 -6.076437781660658 1.0 1.0 1.0
v -8.20579240371673 74.70165927401327 -6.447037892684793 1.0 1.0 1.0
v -8.20579240371673 74.70165927401327 -6.447037892684793 0.55 0.55 0.55
v -7.727650884162909 79.9309060885586 -6.076437781660658 0.55 0.55 0.55
v -9.201812002758412 79.9349065299497 -1.6898598517137193 0.55 0.55 0.55
v -11.74747460493736 69.90626098291862 -1.86262261808144 0.55 0.55 0.55
v -11.74747460493736 69.90626098291862 -1.86262261808144 0.55 0.55 0.55
v -9.201812002758412 79.9349065299497 -1.6898598517137193 0.55 0.55 0.55
v -8.885341013535026 79.93602268644939 2.873742159387178 0.55 0.55 0.55
v -11.137812012826458 69.91230153563794 4.131653116844152 0.55 0.55 0.55
v -10.305344651405097 63.75943145740588 8.527260673396825 1.0 0.0 0.0
v -11.137812012826458 69.91230153563794 4.131653116844152 1.0 0.0 0.0
v -8.885341013535026 79.93602268644939 2.873742159387178 1.0 0.0 0.0
v -6.513188512098589 79.93372241640516 6.716001445317067 1.0 0.0 0.0
v -7.759597057916945 69.90757963303064 8.991612566857635 1.0 0.0 0.0
v -7.759597057916945 69.90757963303064 8.991612566857635 0.55 0.55 0.55
v -6.513188512098589 79.93372241640516 6.716001445317067 0.55 0.55 0.55
v -2.6629042304190844 79.92757713595462 8.971362845937948 0.55 0.55 0.55
v -2.547937755703847 69.90233260831724 11.60098396633403 0.55 0.55 0.55
v -2.547937755703847 69.90233260831724 11.60098396633403 0.55 0.55 0.55
v -2.6629042304190844 79.92757713595462 8.971362845937948 0.55 0.55 0.55
v 1.7902772695160623 79.91456108121352 9.210628797871825 0.55 0.55 0.55
v 3.35303762349757 69.87115486315864 11.39147573421857 0.55 0.55 0.55
v 3.35303762349757 69.87115486315864 11.39147573421857 0.55 0.55 0.55
v 1.7902772695160623 79.91456108121352 9.210628797871825 0.55 0.55 0.55
v 5.745568126798794 79.9268076162096 7.424443700139373 0.55 0.55 0.55
v 8.225756949542577 69.90376768430222 8.548202323523673 0.55 0.55 0.55
v 8.225756949542577 69.90376768430222 8.548202323523673 0.55 0.55 0.55
v 5.745568126798794 79.9268076162096 7.424443700139373 0.55 0.55 0.55
v 8.626411831070318 79.9441688296323 3.658265770587888 0.55 0.55 0.55
v 11.00992064595419 69.92918089966119 4.554836088633632 0.55 0.55 0.55
v 11.00992064595419 69.92918089966119 4.554836088633632 0.55 0.55 0.55
v 8.626411831070318 79.9441688296323 3.658265770587888 0.55 0.55 0.55
v 12.293014734401126 66.86111960275468 -0.036736591027528395 0.55 0.55 0.55
v 14.33175356835373 61.84152894559176 0.6043993841427528 0.55 0.55 0.55
v 14.33175356835373 61.84152894559176 0.6043993841427528 0.55 0.55 0.55
v 12.293014734401126 66.86111960275468 -0.036736591027528395 0.55 0.55 0.55
v 9.320654418448001 79.9421227463591 -0.4809422956018158 0.55 0.55 0.55
v 11.784529650591535 69.93343647296108 -1.404298089988353 0.55 0.55 0.55
f 1 2 3 4
f 5 6 7 8
f 9 10 11 12
f 13 14 15 16
f 17 18 19 20
f 21 22 23 24
f 25 26 27 28
f 29 30 31 32
f 33 34 35 36
f 37 38 39 40
f 41 42 43 44
f 45 46 47 48
f 49 50 51 52
f 53 54 55 56
f 57 58 59 60
f 61 62 63 64
f 65 66 67 68
f 69 70 71 72
f 73 74 75 76
f 77 78 79 80
f 81 82 83 84
f 85 86 87 88
f 89 90 91 92
f 93 94 95 96
f 97 98 99 100
f 101 102 103 104
f 105 106 107 108
f 109 110 111 112
f 113 114 115 116 117
f 118 119 120 121 122
f 123 124 125 126
f 127 128 129 130 131 132
f 133 134 135 136 137
f 138 139 140 141 142
f 143 144 145 146 147
f 148 149 150 151 152
f 153 154 155 156 157
f 158 159 160 161
f 162 163 164 165 166
f 167 168 169 170
f 171 172 173 174
f 175 176 177 178 179
f 180 181 182 183
f 184 185 186 187
f 188 189 190 191
f 192 193 194 195
f 196 197 198 199
f 200 201 202 203
f 204 205 206 207
f 208 209 210 211
f 212 213 214 215
f 216 217 218 219
f 220 221 222 223
f 224 225 226 227
f 228 229 230 231
f 232 233 234 235
f 236 237 238 239
f 240 241 242 243
f 244 245 246 247
f 248 249 250 251
f 252 253 254 255
f 256 257 258 259
f 260 261 262 263
f 264 265 266 267
f 268 269 270 271
f 272 273 274
f 275 276 277
f 278 279 280 281
f 282 283 284 285
f 286 287 288 289
f 290 291 292 293
f 294 295 296 297
f 298 299 300 301
f 302 303 304
f 305 306 307
f 308 309 310 311
f 312 313 314 315
f 316 317 318 319
f 320 321 322 323
f 324 325 326 327
f 328 329 330 331
f 332 333 334 335
f 336 337 338 339
f 340 341 342
f 343 344 345
f 346 347 348
f 349 350 351
f 352 353 354 355
f 356 357 358 359
f 360 361 362 363
f 364 365 366
f 367 368 369
f 370 371 372 373
f 374 375 376
f 377 378 379
f 380 381 382 383
f 384 385 386 387
f 388 389 390 391
f 392 393 394 395
f 396 397 398
f 399 400 401
f 402 403 404
f 405 406 407
f 408 409 410 411
f 412 413 414 415
f 416 417 418 419
f 420 421 422 423
f 424 425 426 427
f 428 429 430 431
f 432 433 434
f 435 436 437
f 438 439 440 441
f 442 443 444 445
f 446 447 448 449
f 450 451 452 453
f 454 455 456
f 457 458 459
f 460 461 462 463
f 464 465 466 467
f 468 469 470 471
f 472 473 474 475
f 476 477 478 479
f 480 481 482 483
f 484 485 486
f 487 488 489
f 490 491 492
f 493 494 495
f 496 497 498 499
f 500 501 502 503
f 504 505 506 507
f 508 509 510 511
f 512 513 514 515
f 516 517 518 519
f 520 521 522 523
f 524 525 526 527
f 528 529 530 531
f 532 533 534
f 535 536 537
f 538 539 540
f 541 542 543
f 544 545 546 547
f 548 549 550 551
f 552 553 554
f 555 556 557
f 558 559 560
f 561 562 563
f 564 565 566 567
f 568 569 570 571
f 572 573 574 575
f 576 577 578
f 579 580 581
f 582 583 584
f 585 586 587
f 588 589 590 591
f 592 593 594 595
f 596 597 598 599
f 600 601 602
f 603 604 605
f 606 607 608
f 609 610 611
f 612 613 614 615
f 616 617 618 619
f 620 621 622 623
f 624 625 626 627
f 628 629 630 631
f 632 633 634 635
f 636 637 638
f 639 640 641
f 642 643 644
f 645 646 647
f 648 649 650 651
f 652 653 654 655
f 656 657 658
f 659 660 661
f 662 663 664
f 665 666 667
f 668 669 670 671
f 672 673 674 675
f 676 677 678 679
f 680 681 682 683
f 684 685 686 687
f 688 689 690 691
f 692 693 694 695
f 696 697 698
f 699 700 701
f 702 703 704 705
f 706 707 708 709
f 710 711 712 713
f 714 715 716 717
f 718 719 720 721
f 722 723 724 725
f 726 727 728
f 729 730 731
f 732 733 734 735
f 736 737 738 739
f 740 741 742 743
f 744 745 746 747
f 748 749 750 751
f 752 753 754 755
f 756 757 758 759
f 760 761 762 763
f 764 765 766
f 767 768 769
f 770 771 772
f 773 774 775
f 776 777 778 779
f 780 781 782 783
f 784 785 786 787
f 788 789 790
f 791 792 793
f 794 795 796 797
f 798 799 800
f 801 802 803
f 804 805 806 807
f 808 809 810 811
f 812 813 814 815
f 816 817 818 819
f 820 821 822
f 823 824 825
f 826 827 828 829
f 830 831 832
f 833 834 835
f 836 837 838 839
f 840 841 842 843
f 844 845 846 847
f 848 849 850 851
f 852 853 854 855
f 856 857 858
f 859 860 861
f 862 863 864 865
f 866 867 868 869
f 870 871 872
f 873 874 875
f 876 877 878 879
f 880 881 882 883
f 884 885 886 887
f 888 889 890 891
f 892 893 894
f 895 896 897
f 898 899 900
f 901 902 903
f 904 905 906 907
f 908 909 910 911
f 912 913 914
f 915 916 917
f 918 919 920
f 921 922 923
f 924 925 926 927
f 928 929 930 931
f 932 933 934 935
f 936 937 938 939
f 940 941 942 943
f 944 945 946 947
f 948 949 950 951
f 952 953 954 955 956
f 957 958 959 960
f 961 962 963 964
f 965 966 967 968
f 969 970 971 972
f 973 974 975 976
f 977 978 979 980
f 981 982 983 984
f 985 986 987 988
f 989 990 991 992
f 993 994 995
f 996 997 998
f 999 1000 1001 1002 1003
f 1004 1005 1006 1007 1008
f 1009 1010 1011 1012 1013
f 1014 1015 1016 1017 1018
f 1019 1020 1021 1022
f 1023 1024 1025 1026
f 1027 1028 1029 1030
f 1031 1032 1033 1034
f 1035 1036 1037
f 1038 1039 1040
f 1041 1042 1043 1044
f 1045 1046 1047 1048
f 1049 1050 1051 1052 1053
f 1054 1055 1056 1057
f 1058 1059 1060 1061
f 1062 1063 1064 1065
f 1066 1067 1068 1069
f 1070 1071 1072 1073
f 1074 1075 1076 1077
f 1078 1079 1080 1081 1082
f 1083 1084 1085 1086
f 1087 1088 1089 1090
f 1091 1092 1093 1094
f 1095 1096 1097 1098
f 1099 1100 1101 1102
f 1103 1104 1105
f 1106 1107 1108
f 1109 1110 1111 1112
f 1113 1114 1115 1116 1117
f 1118 1119 1120 1121 1122
f 1123 1124 1125 1126
f 1127 1128 1129
f 1130 1131 1132
f 1133 1134 1135 1136
f 1137 1138 1139 1140
f 1141 1142 1143 1144
f 1145 1146 1147 1148
f 1149 1150 1151 1152
f 1153 1154 1155 1156
f 1157 1158 1159 1160
f 1161 1162 1163 1164
f 1165 1166 1167 1168
f 1169 1170 1171 1172
f 1173 1174 1175 1176
f 1177 1178 1179
f 1180 1181 1182
f 1183 1184 1185
f 1186 1187 1188
f 1189 1190 1191 1192
f 1193 1194 1195 1196
f 1197 1198 1199 1200 1201
f 1202 1203 1204 1205
f 1206 1207 1208 1209
f 1210 1211 1212 1213
f 1214 1215 1216 1217
f 1218 1219 1220 1221
f 1222 1223 1224 1225
