v 9.324274923199225 0.05813505057533212 -0.4445650461390537 0.0 0.15 1.0
v 10.395380827419343 5.108551975257649 -0.8314891794369279 0.06297009127248844 0.15 0.9370299087275116
v 11.789530392652544 10.06747813667076 -1.3564064132746014 0.12710793370794266 0.15 0.8728920662920574
v 13.387989125154808 14.962784573614313 -1.9005024771204277 0.19082142004845157 0.15 0.8091785799515484
v 15.049243061199109 19.840221259354415 -2.4174206496553725 0.25274852417518623 0.15 0.7472514758248138
v 16.614290835458863 24.752146170610576 -2.905138973890921 0.31716431183797317 0.15 0.6828356881620268
v 17.923358781885614 29.743839098751405 -3.3249045960856987 0.3798077800230319 0.15 0.620192219976968
v 18.811978069622363 34.83513934085166 -3.613776501377159 0.4393365399113045 0.15 0.5606634600886955
v 19.13374778982539 39.99943107263004 -3.722232443554477 0.5000002593327575 0.15 0.4999997406672425
v 18.810887600234665 45.16389173813295 -3.6258680101719185 0.5606174281451998 0.15 0.43938257185480023
v 17.921145894751614 50.25563494604089 -3.348516995345847 0.6202837567943222 0.15 0.37971624320567776
v 16.61090769537284 55.247868229341165 -2.938971942161735 0.6828746865626734 0.15 0.31712531343732664
v 15.044893576571443 60.16027737779283 -2.4592977227315163 0.7472296119411705 0.15 0.25277038805882945
v 13.383053711205486 65.03804241384708 -1.9473872537590504 0.8091575791146728 0.15 0.1908424208853272
v 11.784529650591535 69.93343647296108 -1.404298089988353 0.8729138377420573 0.15 0.12708616225794267
v 9.320654418448001 79.9421227463591 -0.4809422956018158 1.0 0.15 0.0
l 1 2
l 2 3
l 3 4
l 4 5
l 5 6
l 6 7
l 7 8
l 8 9
l 9 10
l 10 11
l 11 12
l 12 13
l 13 14
l 14 15
l 15 16
v 7.892549163161945 0.058544563242925285 -5.011759366861332 0.0 0.15 1.0
v 8.931104838164353 5.110667062502956 -5.411538806004896 0.06157284377970991 0.15 0.93842715622029
v 10.285404328104901 10.076440335199552 -5.934501351326938 0.12795393567224095 0.15 0.872046064327759
v 11.883843920797581 14.972110690539697 -6.432894451541561 0.18653457510383128 0.15 0.8134654248961687
v 13.572389467320054 19.842439949918592 -6.882568492148461 0.2526770847717454 0.15 0.7473229152282546
v 15.107041443262256 24.7544569639293 -7.416639167319948 0.3159628251483268 0.15 0.6840371748516731
v 16.347341915929096 29.748621110669433 -7.94842863803559 0.378229205832373 0.15 0.6217707941676269
v 17.1743687162909 34.83955507866012 -8.336113386882912 0.43944847659263286 0.15 0.5605515234073671
v 17.470048843881916 40.00040741382067 -8.483506387761627 0.5000088606328664 0.15 0.4999911393671336
v 17.16858618913963 45.161217617054845 -8.346754564975654 0.5606086626704705 0.15 0.4393913373295295
v 16.33620760067954 50.25201661665406 -7.9689076309629225 0.6218706904888984 0.15 0.3781293095111016
v 15.0914670028458 55.245958136929964 -7.445489908603932 0.6841280075737696 0.15 0.31587199242623043
v 13.55321031570387 60.15760712290274 -6.918415589994893 0.7473123199716583 0.15 0.25268768002834174
v 11.86203794578338 65.02750771951872 -6.473958301356471 0.813524353459475 0.15 0.18647564654052495
v 10.263027158114477 69.9230902598853 -5.976646288768216 0.8719790638141656 0.15 0.12802093618583443
v 7.875779277799028 79.94130809493657 -5.043233620446284 1.0 0.15 0.0
l 17 18
l 18 19
l 19 20
l 20 21
l 21 22
l 22 23
l 23 24
l 24 25
l 25 26
l 26 27
l 27 28
l 28 29
l 29 30
l 30 31
l 31 32
v 4.480329751642238 0.0868916334533659 -8.319723811064197 0.0 0.15 1.0
v 5.566803292854995 5.160679163381224 -8.855505276849152 0.06075310486595775 0.15 0.9392468951340422
v 6.98092347313306 10.125612708757517 -9.604429140663415 0.1215151539151363 0.15 0.8784848460848637
v 8.76618436523426 14.985852883512043 -10.23894874686999 0.1759475415809587 0.15 0.8240524584190413
v 10.911881452304886 19.7140349028626 -10.537151321720838 0.2403539149180253 0.15 0.7596460850819747
v 12.469056431723573 24.643281532707853 -11.22042769619691 0.3095316950076575 0.15 0.6904683049923426
v 13.642712951200496 29.67126984988443 -11.962663588400513 0.3770023206882178 0.15 0.6229976793117822
v 14.41291782724124 34.80142652152236 -12.49993703310812 0.44958325471541444 0.15 0.5504167452845856
v 14.685963954298106 40.004990181318526 -12.701679920695877 0.5139573779054591 0.15 0.48604262209454085
v 14.403368466587384 45.208365301219835 -12.508555676031444 0.5506165933356882 0.15 0.44938340666431176
v 13.624257637826867 50.337968778524484 -11.97904492595054 0.6232395819386388 0.15 0.3767604180613612
v 12.443573349858498 55.36533718450494 -11.243584406964823 0.6907782829463301 0.15 0.30922171705366985
v 10.879814798379547 60.29341798870412 -10.567668913081826 0.757144144075909 0.15 0.24285585592409098
v 8.726215060513011 65.01359362243478 -10.27221743696832 0.8240262317482123 0.15 0.17597376825178768
v 6.940920230962827 69.8735775665987 -9.635957762133504 0.8781097496569468 0.15 0.12189025034305323
v 4.448446693987112 79.91191028741008 -8.335477762001913 1.0 0.15 0.0
l 33 34
l 34 35
l 35 36
l 36 37
l 37 38
l 38 39
l 39 40
l 40 41
l 41 42
l 42 43
l 43 44
l 44 45
l 45 46
l 46 47
l 47 48
v 8.193526941857343 19.6181071275221 -12.309497576865976 0.23294909164807356 0.15 0.7670509083519265
v 9.486243763018862 25.22500737133149 -14.174191576760618 0.3166806474670479 0.15 0.6833193525329522
v 10.548723241118353 31.02972525860503 -15.564113988775457 0.3959197956003007 0.15 0.6040802043996993
v 11.13195176240127 37.01027206047095 -16.348925317399836 0.4672028057662048 0.15 0.5327971942337952
v 11.120569664971498 43.06872251992412 -16.34739365667386 0.5338415640875865 0.15 0.46615843591241346
v 10.519621068314162 49.0475579335877 -15.562777292233283 0.6050724981641549 0.15 0.39492750183584513
v 9.44466353631681 54.84896234749769 -14.168730760769694 0.6806895220721909 0.15 0.3193104779278091
v 8.176448531058675 60.450843228051966 -12.287870221775407 0.7671344224610477 0.15 0.23286557753895232
l 49 50
l 50 51
l 51 52
l 52 53
l 53 54
l 54 55
l 55 56
v 4.554866456917228 17.51090498565465 -13.111239077090943 0.20164844268915097 0.15 0.7983515573108491
v 5.2497672617578734 22.913070561578497 -15.273489998922845 0.2897028517123314 0.15 0.7102971482876685
v 5.926092810678909 28.454092203988896 -17.052656015049017 0.36695040422818825 0.15 0.6330495957718117
v 6.40247949137195 34.164573625324316 -18.261855218739065 0.4285535467651793 0.15 0.5714464532348207
v 6.568148931708403 40.00026091622976 -18.705341356112058 0.5000097275032234 0.15 0.49999027249677663
v 6.389612123989277 45.835859425081345 -18.265685991877138 0.5714351832437919 0.15 0.42856481675620806
v 5.901986401987657 51.54610934443204 -17.059914647045392 0.6330376061982013 0.15 0.36696239380179874
v 5.217864295133599 57.08692746034038 -15.283169504621629 0.7100056506175833 0.15 0.28999434938241675
v 4.5188941471502 62.489049864756225 -13.122160366111064 0.7983514891636383 0.15 0.2016485108363617
l 57 58
l 58 59
l 59 60
l 60 61
l 61 62
l 62 63
l 63 64
l 64 65
v 0.6347933783781294 0.05958280298467234 -9.305229506379192 0.0 0.15 1.0
v 0.7916505799734792 5.1117494547390345 -10.39975519791953 0.0602624939927804 0.15 0.9397375060072196
v 1.107323441801986 10.075981282933148 -11.816755298032446 0.11522400362566426 0.15 0.8847759963743358
v 1.0895731475873767 14.961278684981664 -13.467070232556235 0.1693640480924529 0.15 0.8306359519075471
v 1.0955751869611627 19.838631450031674 -15.178156070401341 0.24179815496978152 0.15 0.7582018450302185
v 1.2449454300496194 24.755331412673772 -16.777935875531675 0.31311809359415343 0.15 0.6868819064058466
v 1.379794004955192 29.74952124845329 -18.115331418236366 0.3897504684370208 0.15 0.6102495315629792
v 1.4753124818743981 34.83929802363248 -19.02226868314978 0.45152436119266776 0.15 0.5484756388073322
v 1.5070318541740404 39.99882291541833 -19.350743766020972 0.5139421160619557 0.15 0.4860578839380443
v 1.46335792886184 45.15835231753076 -19.023742109053828 0.548335840930083 0.15 0.45166415906991697
v 1.3570802871090102 50.248201868239455 -18.11831920171432 0.6098241376609281 0.15 0.39017586233907187
v 1.2137432468681972 55.24245775617161 -16.78193654885037 0.6866475523037057 0.15 0.31335244769629433
v 1.0586343419010775 60.1592069526955 -15.182784680496496 0.7580187599361401 0.15 0.2419812400638599
v 1.0455109615366789 65.03715310737698 -13.472168909161914 0.8306298488872812 0.15 0.1693701511127188
v 1.0545679410835147 69.92395258538158 -11.822105094214074 0.8854722632125814 0.15 0.11452773678741857
v 0.5985834012723882 79.94062587525224 -9.30861386089542 1.0 0.15 0.0
l 66 67
l 67 68
l 68 69
l 69 70
l 70 71
l 71 72
l 72 73
l 73 74
l 74 75
l 75 76
l 76 77
l 77 78
l 78 79
l 79 80
l 80 81
v -2.841613636007545 19.945944307571008 -14.634616767486886 0.24218278241525482 0.15 0.7578172175847452
v -3.179986832554828 25.57901702739382 -16.870042888425253 0.32438299540253324 0.15 0.6756170045974668
v -3.4450100677710838 31.398462617967674 -18.56662413395277 0.4009498457751107 0.15 0.5990501542248893
v -3.587501881486411 37.39259512165425 -19.482027623483173 0.4717059441346571 0.15 0.5282940558653428
v -3.580439583727665 43.45586172521227 -19.39405103997562 0.5384732985110637 0.15 0.46152670148893626
v -3.431487949044683 49.43077357120895 -18.36234173870515 0.610657000954453 0.15 0.38934299904554703
v -3.170261499046705 55.2269121545208 -16.58437913720118 0.6845934284813177 0.15 0.31540657151868234
v -2.8492363775140337 60.85104018583728 -14.32282025490619 0.7577939649409371 0.15 0.2422060350590629
l 82 83
l 83 84
l 84 85
l 85 86
l 86 87
l 87 88
l 88 89
v -3.734351503977967 0.06010500441363548 -8.574608298680861 0.0 0.15 1.0
v -4.183544129711313 5.112108527880126 -9.586818350202762 0.05769941828601419 0.15 0.9423005817139858
v -4.6838736560651 10.075915600441066 -10.952546524309724 0.11230012161754595 0.15 0.887699878382454
v -5.5338344154740575 14.970420577998327 -12.363295920239054 0.15807999178396243 0.15 0.8419200082160376
v -6.547345953376723 19.839889360766687 -13.749649421161923 0.24056064100911534 0.15 0.7594393589908847
v -7.227969239741098 24.75605110512404 -15.20748489103674 0.31187865354071764 0.15 0.6881213464592824
v -7.7944342877312875 29.74984154466564 -16.428723700773112 0.3770615961860212 0.15 0.6229384038139788
v -8.179115940784408 34.839547230593936 -17.25719668679753 0.4391132090507828 0.15 0.5608867909492172
v -8.321741563387853 39.999244268891225 -17.55519374568208 0.49994065440270685 0.15 0.5000593455972931
v -8.19001903064699 45.158908644398096 -17.251740308146015 0.5608127955948446 0.15 0.43918720440515535
v -7.815282514721095 50.24858310182339 -16.418558623469814 0.6229127038437695 0.15 0.3770872961562305
v -7.256580361655973 55.24230342285113 -15.193527128953875 0.6880903977003371 0.15 0.3119096022996629
v -6.581049626218907 60.158387244730996 -13.73320754525831 0.7593283296222002 0.15 0.2406716703777998
v -5.5743285575406185 65.02826499773664 -12.343104033528794 0.842024922342079 0.15 0.15797507765792096
v -4.730408418383854 69.92448632135213 -10.929046014183472 0.8857960097722226 0.15 0.11420399022777739
v -3.766290094929807 79.94031172672537 -8.557375100260401 1.0 0.15 0.0
l 90 91
l 91 92
l 92 93
l 93 94
l 94 95
l 95 96
l 96 97
l 97 98
l 98 99
l 99 100
l 100 101
l 101 102
l 102 103
l 103 104
l 104 105
v -7.867184501792806 0.09695863431130625 -5.906135266683078 0.0 0.15 1.0
v -8.161224468844475 5.404307301796159 -6.54401115494929 0.05995215536274393 0.15 0.9400478446372561
v -8.891811931382549 10.59791316628516 -7.6256773168488 0.11349018492874166 0.15 0.8865098150712584
v -9.288474360842145 15.426806056957926 -9.544532738411172 0.15763644683987635 0.15 0.8423635531601237
v -9.94911477697055 20.388437731456442 -11.349102897493454 0.24073810283196612 0.15 0.7592618971680338
v -11.01541369567317 25.432983820757343 -12.803707288002181 0.31716707758473955 0.15 0.6828329224152605
v -11.93623269044243 30.562841051044913 -14.038903035415371 0.39799586107458723 0.15 0.6020041389254127
v -12.560604297364767 35.81449702460796 -14.874398645847858 0.4574445155456786 0.15 0.5425554844543214
v -12.758976277169817 41.15588171340585 -15.14739042730378 0.5141104635836462 0.15 0.4858895364163538
v -12.468273919475338 46.487183036550626 -14.782696140524935 0.5706828937790355 0.15 0.42931710622096453
v -11.720330692529037 51.700791751772805 -13.825266419139071 0.6333430452676023 0.15 0.3666569547323977
v -10.610927170118526 56.74117962410742 -12.396875837272265 0.7043989625195971 0.15 0.2956010374804029
v -9.25745452865068 61.612163244989574 -10.627032215653793 0.7800344862301419 0.15 0.21996551376985807
l 106 107
l 107 108
l 108 109
l 109 110
l 110 111
l 111 112
l 112 113
l 113 114
l 114 115
l 115 116
l 116 117
l 117 118
v -12.064339297208662 19.74235042023564 -8.381123913947771 0.23934235085470923 0.15 0.7606576491452908
v -13.84133178322956 24.55053668462021 -9.589903123705781 0.3147481989581471 0.15 0.6852518010418529
v -15.236027832373239 29.53596872894475 -10.5517450063654 0.3818698960121869 0.15 0.6181301039878131
v -16.108852276461587 34.69026871854836 -11.16885781154594 0.4444231520843714 0.15 0.5555768479156287
v -16.34866653036059 39.944739380379296 -11.351330301059686 0.5042071901129008 0.15 0.4957928098870992
v -15.932194904927545 45.18459936406016 -11.075953412538224 0.5664419494214642 0.15 0.4335580505785358
v -14.97750386423595 50.3219544447513 -10.429348448339079 0.6313510459125 0.15 0.3686489540875
v -13.663426043588851 55.34361436032385 -9.536833554947597 0.7017048905003473 0.15 0.29829510949965266
v -12.172087636506129 60.29508295066368 -8.532479723721174 0.7817323316495699 0.15 0.2182676683504301
v -10.122187279970529 64.81985650894262 -8.455717369033676 0.847470670941631 0.15 0.15252932905836902
v -9.132138429838042 69.58063918301283 -7.248978831282237 0.8869211369152091 0.15 0.11307886308479087
v -8.20579240371673 74.70165927401327 -6.447037892684793 0.9401850033783143 0.15 0.05981499662168566
v -7.727650884162909 79.9309060885586 -6.076437781660658 1.0 0.15 0.0
l 119 120
l 120 121
l 121 122
l 122 123
l 123 124
l 124 125
l 125 126
l 126 127
l 127 128
l 128 129
l 129 130
l 130 131
v -13.090386565937475 17.513465956364907 -4.700074956078478 0.19724778364557913 0.15 0.8027522163544208
v -15.077407609340662 22.612574296193753 -5.455270367718839 0.2787913711133151 0.15 0.7212086288866849
v -16.792334288957264 27.8244561510823 -6.091890943571132 0.35005879498588843 0.15 0.6499412050141116
v -18.036886240410386 33.18450313459786 -6.552732791945162 0.41613727142669427 0.15 0.5838627285733058
v -18.621756347705645 38.668837444176376 -6.768255778571249 0.4839974498434112 0.15 0.5160025501565888
v -18.435251735889274 44.18404193073443 -6.689417004720508 0.5511959379950484 0.15 0.4488040620049516
v -17.501367624053987 49.6131278521508 -6.330776473318867 0.6174479319979326 0.15 0.3825520680020674
v -15.961994906641102 54.885132517362756 -5.752888601298821 0.6844234440208987 0.15 0.3155765559791013
v -14.002762664824857 59.99756064801805 -5.019846422326884 0.7606262982919708 0.15 0.23937370170802919
l 132 133
l 133 134
l 134 135
l 135 136
l 136 137
l 137 138
l 138 139
l 139 140
v -9.198420965975966 0.0652528350869018 -1.725097424824695 0.0 0.15 1.0
v -10.305228252645199 5.122332824228759 -1.7672044416843735 0.055356978652521725 0.15 0.9446430213474782
v -11.742588719778192 10.09405859864457 -1.9125485941437692 0.10655804729437474 0.15 0.8934419527056252
v -13.418797744744111 14.93895070093368 -1.4942837790484975 0.15344166797090567 0.15 0.8465583320290944
v -15.137605701075554 19.81974016282001 -1.429917219675172 0.23838781004119028 0.15 0.7616121899588097
v -16.743959378890725 24.741064421683753 -1.5278590375158059 0.32589746597378366 0.15 0.6741025340262163
v -18.08802226880496 29.739945607076308 -1.6140579509356414 0.38991335019196605 0.15 0.610086649808034
v -19.000307330916616 34.83454867613967 -1.673097493698143 0.45194494561553 0.15 0.54805505438447
v -19.330652316049473 39.999164067420075 -1.6912244771654399 0.5140904962773363 0.15 0.4859095037226637
v -19.0016734457953 45.163809788020146 -1.661500582210041 0.5479494699301999 0.15 0.4520505300698001
v -18.090644585168395 50.25851819839265 -1.592025348717125 0.609787633358669 0.15 0.39021236664133097
v -16.74747985347491 55.257506412766325 -1.4976643186493968 0.6737713507579309 0.15 0.32622864924206907
v -15.141646682734976 60.178949434154404 -1.394542518974804 0.7614926876377363 0.15 0.23850731236226375
v -13.423300448077642 65.06038793070215 -1.4518318298849013 0.8464792361902187 0.15 0.1535207638097813
v -11.74747460493736 69.90626098291862 -1.86262261808144 0.8937003900689147 0.15 0.10629960993108534
v -9.201812002758412 79.9349065299497 -1.6898598517137193 1.0 0.15 0.0
l 141 142
l 142 143
l 143 144
l 144 145
l 145 146
l 146 147
l 147 148
l 148 149
l 149 150
l 150 151
l 151 152
l 152 153
l 153 154
l 154 155
l 155 156
v -14.563263844061012 19.673042183509097 2.497577826294972 0.2397373943417186 0.15 0.7602626056582814
v -16.78778203474054 25.265433522429408 2.8827212158423885 0.31555350709069163 0.15 0.6844464929093084
v -18.50118716845663 31.037114708851796 3.1961824188318646 0.39471255616476375 0.15 0.6052874438352362
v -19.461145570071633 36.98346346456063 3.37627348880217 0.4686082936397708 0.15 0.5313917063602291
v -19.461331742114734 43.007894032946695 3.383530227840556 0.5312484204293629 0.15 0.46875157957063707
v -18.50119603347228 48.95460415563319 3.2168706507254083 0.6051133733046289 0.15 0.3948866266953711
v -16.787511828512283 54.72673831070424 2.9133725011113616 0.6842076948054959 0.15 0.3157923051945041
v -14.562837650539969 60.319366092273725 2.5320418916641154 0.7602619577457672 0.15 0.23973804225423279
l 157 158
l 158 159
l 159 160
l 160 161
l 161 162
l 162 163
l 163 164
v -8.895223211586863 0.06463425785591452 2.8393681942015414 0.0 0.15 1.0
v -9.867225674051474 5.120192633065427 3.39469631534643 0.057631940530541555 0.15 0.9423680594694585
v -11.15405689889002 10.088714366978838 4.0828445488158955 0.1099526790547794 0.15 0.8900473209452207
v -12.459549426652467 14.936448047074602 5.288885416351 0.15277754870845706 0.15 0.8472224512915429
v -13.8975061872106 19.81863845998056 6.232929944347542 0.2393735620318783 0.15 0.7606264379681217
v -15.334378371218687 24.73910499393887 6.969808349024105 0.3153715747001089 0.15 0.6846284252998911
v -16.53840229819939 29.737799625875315 7.582702479517213 0.3825519036771942 0.15 0.6174480963228057
v -17.353733397751906 34.83290642023387 8.001889306797208 0.44299101381272804 0.15 0.557008986187272
v -17.646633953519206 39.99847686413841 8.15751333469993 0.5000004588667786 0.15 0.4999995411332214
v -17.348466788717985 45.16405849105517 8.012881133912485 0.5570096818161825 0.15 0.4429903181838175
v -16.52862440401312 50.259254383266324 7.603715385090114 0.6174479107389114 0.15 0.38255208926108863
v -15.320990840609195 55.2580216749435 6.998704322551069 0.6845769826967973 0.15 0.31542301730320266
v -13.881965851172266 60.17856956426605 6.266859200122313 0.7606115438462522 0.15 0.23938845615374782
v -12.440260952643863 65.06122029697276 5.330496482638668 0.8472328336413409 0.15 0.15276716635865906
v -11.137812012826458 69.91230153563794 4.131653116844152 0.8898706992568804 0.15 0.11012930074311955
v -8.885341013535026 79.93602268644939 2.873742159387178 1.0 0.15 0.0
l 165 166
l 166 167
l 167 168
l 168 169
l 169 170
l 170 171
l 171 172
l 172 173
l 173 174
l 174 175
l 175 176
l 176 177
l 177 178
l 178 179
l 179 180
v -10.329097203258643 16.20670670245548 8.47838324962952 0.1703665382832254 0.15 0.8296334617167747
v -12.003544341671994 21.280611125808385 9.840539820551076 0.26118098173711957 0.15 0.7388190182628804
v -13.449596118141299 26.45651583901079 11.076901258483888 0.3393099805203612 0.15 0.6606900194796388
v -14.551655956310965 31.774370653851864 12.024372743364399 0.4102890516642579 0.15 0.5897109483357421
v -15.160819988643164 37.226379926312205 12.553201575738395 0.4792909648988814 0.15 0.5207090351011185
v -15.159836403433614 42.73723587004115 12.560256957281473 0.5196631577700966 0.15 0.48033684222990336
v -14.547084288157517 48.1900287258618 12.04340293013136 0.5883194763295134 0.15 0.4116805236704866
v -13.44131274219731 53.508815186122064 11.105637782418926 0.6589356022778383 0.15 0.3410643977221617
v -11.992121596002699 58.68528211138403 9.875321785683125 0.7377313361544187 0.15 0.26226866384558134
v -10.305344651405097 63.75943145740588 8.527260673396825 0.8295530931256696 0.15 0.1704469068743304
l 181 182
l 182 183
l 183 184
l 184 185
l 185 186
l 186 187
l 187 188
l 188 189
l 189 190
v -6.541049440046498 0.06675125219291378 6.693444749782931 0.0 0.15 1.0
v -7.074269993356102 5.123753247063168 7.686009902125857 0.05575323168625493 0.15 0.9442467683137451
v -7.799176450743231 10.093611071434132 8.959380799591695 0.11297114294157888 0.15 0.8870288570584212
v -8.343863166318258 14.957994665988698 10.627480929726362 0.16721474766472016 0.15 0.8327852523352799
v -9.006654908571122 19.811240021965784 12.274564927358862 0.2411224383525581 0.15 0.7588775616474419
v -9.865566771323314 24.73256024218924 13.65026202479637 0.31568735579017676 0.15 0.6843126442098233
v -10.589603687521985 29.732665805153733 14.798310011023753 0.38292307494556366 0.15 0.6170769250544363
v -11.083651891147262 34.82998770095683 15.576092251817732 0.44258179653179625 0.15 0.5574182034682038
v -11.259534216144877 39.998389500493374 15.860078264856394 0.5000098307257613 0.15 0.49999016927423867
v -11.074667526746042 45.16690158595098 15.584109179448925 0.5573267584348147 0.15 0.4426732415651853
v -10.57259684805139 50.26453832102215 14.813464267573542 0.6170807743739158 0.15 0.38291922562608416
v -9.842010199594068 55.26497840597002 13.67095988368679 0.6842251781436762 0.15 0.3157748218563238
v -8.97903457690332 60.18655025908593 12.298590931290565 0.7588793729937109 0.15 0.2411206270062891
v -8.30734713949863 65.04214966619895 10.657639165013965 0.8327554819950026 0.15 0.1672445180049974
v -7.759597057916945 69.90757963303064 8.991612566857635 0.8870813364510326 0.15 0.1129186635489674
v -6.513188512098589 79.93372241640516 6.716001445317067 1.0 0.15 0.0
l 191 192
l 192 193
l 193 194
l 194 195
l 195 196
l 196 197
l 197 198
l 198 199
l 199 200
l 200 201
l 201 202
l 202 203
l 203 204
l 204 205
l 205 206
v -3.759543413957965 15.505178778467858 12.666257755645727 0.16616561943956187 0.15 0.8338343805604381
v -5.495655263244537 20.82700896185938 14.25360654509428 0.2524949845764092 0.15 0.7475050154235908
v -6.183755801566238 26.283270541780645 16.24636814163381 0.3351868072217211 0.15 0.6648131927782789
v -6.696372966694509 31.911374750648967 17.74797374664988 0.4109023185725207 0.15 0.5890976814274793
v -6.9535367894653834 37.69751858721522 18.536582561055628 0.4722883383645581 0.15 0.5277116616354419
v -6.911841979438672 43.54058976264071 18.433274183450997 0.5387415309889508 0.15 0.46125846901104917
v -6.579980444070191 49.299377194987 17.48860746785533 0.6112229920185922 0.15 0.3887770079814078
v -6.020056571205529 54.89057506843284 15.868859890891326 0.6833703346407255 0.15 0.3166296653592745
v -5.310587449376088 60.31435427399427 13.795461473560293 0.7583499689299789 0.15 0.24165003107002114
l 207 208
l 208 209
l 209 210
l 210 211
l 211 212
l 212 213
l 213 214
l 214 215
v -2.6976537638874203 0.07374647765695622 8.96060709283589 0.0 0.15 1.0
v -2.631066605447762 5.132054015592212 10.099864534514447 0.06054891663349847 0.15 0.9394510833665015
v -2.59953409585124 10.099961432547786 11.58708432790022 0.11125854102634825 0.15 0.8887414589736518
v -2.2316386381812703 14.950249701457595 13.334774163123637 0.15886830045808087 0.15 0.8411316995419191
v -1.7845723279136156 19.791283925097336 15.083673450467105 0.2400552987499894 0.15 0.7599447012500106
v -1.8197725620311036 24.7178220985371 16.70422328729025 0.3266714155165508 0.15 0.6733285844834491
v -1.8581541249286873 29.723015577387432 18.059879104438373 0.39072513146625865 0.15 0.6092748685337414
v -1.8817918328451473 34.82504257188502 18.980491057321785 0.45265623874602595 0.15 0.547343761253974
v -1.8862137216655126 39.99799192814179 19.314107618723135 0.4860181225269928 0.15 0.5139818774730072
v -1.8693676189192303 45.171033853187815 18.9825872226591 0.5474060297831063 0.15 0.45259397021689374
v -1.8345371768027523 50.2733415444623 18.063811560067514 0.6091855146286175 0.15 0.3908144853713825
v -1.7874024232607748 55.27884494442772 16.709611072116797 0.673269475850339 0.15 0.326730524149661
v -1.7464886223548675 60.205638882864484 15.090139489604306 0.7598452773840633 0.15 0.24015472261593673
v -2.1820994497271395 65.04862856357111 13.34219134269916 0.8411983584070182 0.15 0.15880164159298182
v -2.547937755703847 69.90233260831724 11.60098396633403 0.8887316233679174 0.15 0.11126837663208256
v -2.6629042304190844 79.92757713595462 8.971362845937948 1.0 0.15 0.0
l 216 217
l 217 218
l 218 219
l 219 220
l 220 221
l 221 222
l 222 223
l 223 224
l 224 225
l 225 226
l 226 227
l 227 228
l 228 229
l 229 230
l 230 231
v 2.200841511725868 19.440469772457128 14.502193305189156 0.2424126654083526 0.15 0.7575873345916474
v 2.6055780161310254 25.01670539727223 16.727153656489207 0.3166008611848119 0.15 0.6833991388151881
v 2.948559106451542 30.767225574264486 18.458536569669086 0.3893528462549564 0.15 0.6106471537450435
v 3.161715970614015 36.693192461531325 19.452340336208728 0.46540706497732964 0.15 0.5345929350226704
v 3.1818670268942855 42.70420017074072 19.513330352044907 0.528249892926401 0.15 0.471750107073599
v 3.002867371553563 48.64419555573052 18.599115797161392 0.5991103807921309 0.15 0.40088961920786914
v 2.669167537060676 54.410660153607644 16.921991158505172 0.6805906213341065 0.15 0.3194093786658935
v 2.2634284745868474 59.99420301652311 14.716676025509482 0.757593516922088 0.15 0.24240648307791202
l 232 233
l 233 234
l 234 235
l 235 236
l 236 237
l 237 238
l 238 239
v 1.755565442148394 0.0862745498339094 9.220592522487046 0.0 0.15 1.0
v 2.4254476775606695 5.156368991722422 10.167584015536201 0.059383069117356135 0.15 0.9406169308826439
v 3.300784212176952 10.13072946710793 11.409206287618067 0.11748943729015005 0.15 0.88251056270985
v 4.975528483926514 14.868291447560267 12.558203076278895 0.1611904651012348 0.15 0.8388095348987652
v 5.971665195099167 19.7358362725757 13.983150059055038 0.23821289062401435 0.15 0.7617871093759856
v 6.709813395240961 24.67519957022886 15.437540739445803 0.3143836130218239 0.15 0.6856163869781762
v 7.380635328945939 29.693781975456016 16.627693123184144 0.3808137447884128 0.15 0.6191862552115872
v 7.836966517274742 34.810478850402816 17.435557056042647 0.44329239186231006 0.15 0.5567076081376899
v 8.004020834910472 39.99924188471424 17.720398328120233 0.5000058958588843 0.15 0.49999410414111567
v 7.848554771848532 45.188063341043446 17.43001282817078 0.5567196463569054 0.15 0.4432803536430946
v 7.402643169567021 50.30485694444803 16.616974565077875 0.6191516021872181 0.15 0.3808483978127819
v 6.739503165588123 55.32358567030487 15.423236549682219 0.6853360608423138 0.15 0.3146639391576862
v 6.0062884110508765 60.26300556481199 13.966728602124668 0.7616475187339331 0.15 0.2383524812660669
v 5.045595903927728 65.13711380312522 12.532298666258102 0.8384019133477358 0.15 0.16159808665226416
v 3.35303762349757 69.87115486315864 11.39147573421857 0.8825409539515242 0.15 0.11745904604847579
v 1.7902772695160623 79.91456108121352 9.210628797871825 1.0 0.15 0.0
l 240 241
l 241 242
l 242 243
l 243 244
l 244 245
l 245 246
l 246 247
l 247 248
l 248 249
l 249 250
l 250 251
l 251 252
l 252 253
l 253 254
l 254 255
v 9.257264675637705 20.846393719812 12.076703173021428 0.25876215059832464 0.15 0.7412378494016754
v 10.744276531733862 26.12529687955903 13.532878136603719 0.33478448322758053 0.15 0.6652155167724194
v 11.836051882326371 31.57375294592522 14.677168755231428 0.4052159679809191 0.15 0.5947840320190809
v 12.43554156472996 37.177436178447174 15.315272486101838 0.4782856725933266 0.15 0.5217143274066733
v 12.43890097885636 42.84836573499067 15.309061628770833 0.5224333222169161 0.15 0.4775666777830839
v 11.84673931369362 48.45158596853113 14.660366350173167 0.5953553586867936 0.15 0.40464464131320643
v 10.761127348184397 53.89954030301516 13.507903160403202 0.6656335347124137 0.15 0.3343664652875863
v 9.277759215090883 59.178089643845134 12.047576604559117 0.7410734252951381 0.15 0.2589265747048619
l 256 257
l 257 258
l 258 259
l 259 260
l 260 261
l 261 262
l 262 263
v 5.717553208173654 0.07392532718259237 7.446557363070015 0.0 0.15 1.0
v 6.7848893244182715 5.136835299388704 7.930146644108469 0.06385976767021617 0.15 0.9361402323297838
v 8.188212790405878 10.098025403587489 8.581343034505194 0.12004778491237603 0.15 0.879952215087624
v 9.939595910110981 14.957921561459617 9.150999321946005 0.17885981586125374 0.15 0.8211401841387462
v 11.85069697639965 19.779787292857097 9.491137744839639 0.24841237109510642 0.15 0.7515876289048936
v 13.421386313339411 24.69259952346116 10.120312847198623 0.31213883752489135 0.15 0.6878611624751086
v 14.633802358261462 29.70231898987267 10.782329275484184 0.3835754834813599 0.15 0.6164245165186402
v 15.434573727510863 34.813651964234765 11.261378857684127 0.44306700977554053 0.15 0.5569329902244595
v 15.71900497586406 39.997956087191525 11.432307795162188 0.5000059531704413 0.15 0.4999940468295587
v 15.442989708999516 45.18241022895549 11.25234387819683 0.5569533308059065 0.15 0.4430466691940935
v 14.649855824864135 50.294134425251634 10.764831706872785 0.6164435459078397 0.15 0.3835564540921603
v 13.443457898063436 55.304411065656254 10.096041344985496 0.6876178305974671 0.15 0.31238216940253294
v 11.877959539609927 60.21812500924186 9.460739000687862 0.7516336725981856 0.15 0.2483663274018144
v 9.971411352026472 65.04136479562969 9.11498124272731 0.8212290281607216 0.15 0.17877097183927837
v 8.225756949542577 69.90376768430222 8.548202323523673 0.8800025010707045 0.15 0.11999749892929545
v 5.745568126798794 79.9268076162096 7.424443700139373 1.0 0.15 0.0
l 264 265
l 265 266
l 266 267
l 267 268
l 268 269
l 269 270
l 270 271
l 271 272
l 272 273
l 273 274
l 274 275
l 275 276
l 276 277
l 277 278
l 278 279
v 8.608875335790831 0.05602020464079401 3.689343311836608 0.0 0.15 1.0
v 9.63969693888489 5.106521156355699 4.083042378972845 0.06321904487545538 0.15 0.9367809551245446
v 10.988647554909376 10.070843794047999 4.5975519617481755 0.1260967703341029 0.15 0.8739032296658971
v 12.56847614670662 14.96766843769296 5.106954112103543 0.18955562393043937 0.15 0.8104443760695607
v 14.208238002894 19.84889646038853 5.577072512266699 0.25272609102521165 0.15 0.7472739089747884
v 15.73484908014443 24.763222512210145 6.0791104923532195 0.31950402810353334 0.15 0.6804959718964667
v 16.995322130779833 29.754326166444553 6.55446081777801 0.38181126861111464 0.15 0.6181887313888854
v 17.84432175946792 34.84154359168786 6.892847928327726 0.4426669537444753 0.15 0.5573330462555247
v 18.147394712799855 39.99899664181414 7.010845408995698 0.5000045748399502 0.15 0.4999954251600498
v 17.848258494932896 45.156407559894966 6.88140733853701 0.5573434673703235 0.15 0.4426565326296765
v 17.00296872286864 50.24351687234931 6.532255549274751 0.61818271731566 0.15 0.38181728268434
v 15.745744620592578 55.23454388805488 6.047630911118699 0.6805238461097455 0.15 0.3194761538902545
v 14.221824244698624 60.14892515325375 5.538054514605544 0.7473048855546134 0.15 0.2526951144453866
v 12.58383989732899 65.0303009890895 5.063310338322638 0.8111199037625293 0.15 0.1888800962374707
v 11.00992064595419 69.92918089966119 4.554836088633632 0.8737691640870442 0.15 0.1262308359129558
v 8.626411831070318 79.9441688296323 3.658265770587888 1.0 0.15 0.0
l 280 281
l 281 282
l 282 283
l 283 284
l 284 285
l 285 286
l 286 287
l 287 288
l 288 289
l 289 290
l 290 291
l 291 292
l 292 293
l 293 294
l 294 295
v 12.836326740660784 14.781321288353709 0.19667655527759054 0.1854902609938245 0.15 0.8145097390061755
v 14.943825186285132 19.773176427232865 0.8307013636529903 0.24661532845432965 0.15 0.7533846715456703
v 16.85480813829448 24.85142329884145 1.3927419235035106 0.32788135558583004 0.15 0.67211864441417
v 18.391638364834083 30.064600127305557 1.8456513521921467 0.39320769411955464 0.15 0.6067923058804454
v 19.365550360144198 35.421458491341774 2.1292267807584575 0.4554704170833333 0.15 0.5445295829166668
v 19.613347851057437 40.86563288449633 2.1965889985570635 0.5087054304487343 0.15 0.4912945695512657
v 19.097528630155445 46.28914283364896 2.0387088951020096 0.5737904942751193 0.15 0.4262095057248807
v 17.921047861938227 51.60099375640423 1.6837310298369679 0.636152363053655 0.15 0.36384763694634503
v 16.26794202226439 56.77483338775914 1.1871562394317405 0.7027399283837824 0.15 0.2972600716162176
v 14.33175356835373 61.84152894559176 0.6043993841427528 0.7792409798405798 0.15 0.22075902015942017
v 12.293014734401126 66.86111960275468 -0.036736591027528395 0.8463834515570658 0.15 0.15361654844293415
l 296 297
l 297 298
l 298 299
l 299 300
l 300 301
l 301 302
l 302 303
l 303 304
l 304 305
l 305 306
