v 9.757659864876747 4.921384367198571e-05 -17.35306873107273 0.0 0.15 1.0
v 9.10913489580194 5.7148608948955975 -16.087337685013093 0.14854968028800838 0.15 0.8514503197119916
v 8.511014064203758 11.429324250242328 -14.794966251311019 0.2724055981794393 0.15 0.7275944018205607
v 7.925686367685479 17.1436079298265 -13.495898814374312 0.41409671228605344 0.15 0.5859032877139465
v 7.331649248137279 22.858034389397353 -12.201426111856295 0.5562859952844529 0.15 0.4437140047155471
v 6.744708305693272 28.572319070994485 -10.903068280437344 0.7048615751596446 0.15 0.29513842484035535
v 6.18169877101091 34.28607184560593 -9.591825195794312 0.8536114131630738 0.15 0.14638858683692624
v 5.570877429984575 39.99998649049993 -8.30365202177337 1.0 0.15 0.0
l 1 2
l 2 3
l 3 4
l 4 5
l 5 6
l 6 7
l 7 8
v 4.798583641770117 -0.0009459801468703617 -19.341243138950553 0.0 0.15 1.0
v 4.454264488401146 5.719911031985594 -17.963084655291087 0.12400133922806944 0.15 0.8759986607719306
v 4.034097959037117 11.440319292601494 -16.604071670027036 0.2760948191068556 0.15 0.7239051808931444
v 3.5144394990452588 17.15884037615428 -15.271790101853695 0.42672997111656225 0.15 0.5732700288834378
v 2.890074234796236 22.873595573873423 -13.968347707697024 0.5632759510326851 0.15 0.43672404896731487
v 2.24413491361771 28.57878023003487 -12.633905071380779 0.7066090983583696 0.15 0.2933909016416304
v 1.682800128342323 34.285235323875426 -11.267344436617723 0.8587036005738954 0.15 0.1412963994261046
v 1.3018864560351735 39.998558205326034 -9.869017872324845 1.0 0.15 0.0
l 9 10
l 10 11
l 11 12
l 12 13
l 13 14
l 14 15
l 15 16
v -0.574250896978617 -0.005742525759251203 -19.942363973729226 0.0 0.15 1.0
v -0.5045670155242834 5.748223917075177 -18.514527613405583 0.12842063049790645 0.15 0.8715793695020936
v -0.6780557458898506 11.49422111304566 -17.06327571527988 0.28036111900599825 0.15 0.7196388809940018
v -1.088845299696422 17.221985212199876 -15.589243864463642 0.4208960558617645 0.15 0.5791039441382355
v -1.8626207433499096 22.903865700546135 -14.084466438787006 0.5834091590119063 0.15 0.41659084098809374
v -2.6443173371716475 28.57733929102117 -12.550576004343927 0.7159793259056902 0.15 0.28402067409430976
v -3.1534332772170885 34.26084613563866 -10.94488056045766 0.8485636279645459 0.15 0.15143637203545413
v -3.137165355620785 39.994787858058594 -9.444824542323186 1.0 0.15 0.0
l 17 18
l 18 19
l 19 20
l 20 21
l 21 22
l 22 23
l 23 24
v -5.832389754626906 4.475854410559197e-05 -19.030057932717174 0.0 0.15 1.0
v -5.3748822469878785 8.386348650479995 -16.988475063955494 0.19505383350640998 0.15 0.80494616649359
v -5.18416435066622 16.762412919996713 -14.868624714497265 0.40794963060328154 0.15 0.5920503693967185
l 25 26
l 26 27
v -10.776933307773392 -0.015231266464622008 -16.803751630053064 0.0 0.15 1.0
v -10.039090901387283 5.755022421915709 -15.5852603362912 0.13351328891597694 0.15 0.8664867110840231
v -9.33696689488213 11.523337512180401 -14.336831757466113 0.2839748824059545 0.15 0.7160251175940455
v -8.645739015914588 17.28805306622266 -13.065765892114781 0.4463780068092833 0.15 0.5536219931907167
v -7.289988873338322 22.9626076699668 -12.174379818814769 0.6044228864086612 0.15 0.39557711359133885
v -7.498593692062447 28.59875281703482 -10.363472626396014 0.7309136598071654 0.15 0.2690863401928346
v -7.501433073220411 34.240114579192976 -8.557122401341761 0.8711292459272011 0.15 0.1288707540727989
v -7.062138758283119 39.984033405028626 -7.096851783741759 1.0 0.15 0.0
l 28 29
l 29 30
l 30 31
l 31 32
l 32 33
l 33 34
l 34 35
v -14.811719541157615 0.0002065567437479556 -13.326164207225 0.0 0.15 1.0
v -13.652245346362252 6.6309491439146555 -12.138544849032234 0.14958714535700857 0.15 0.8504128546429914
v -12.495147031621762 13.261592793410314 -10.948069251470779 0.3389734901571055 0.15 0.6610265098428945
v -11.294986563478126 19.89357837953532 -9.809538752723551 0.515159457006461 0.15 0.48484054299353896
v -10.122494775826535 26.510914957664028 -8.643038923132174 0.7086577572153249 0.15 0.29134224278467513
l 36 37
l 37 38
l 38 39
l 39 40
v -17.834702620969342 -0.0003292751718255781 -8.857675783333297 0.0 0.15 1.0
v -16.57818101749062 5.718451201902203 -8.187463999366413 0.14231274598999283 0.15 0.8576872540100071
v -15.351790521976302 11.437440601036965 -7.465321936202149 0.27422135443830703 0.15 0.725778645561693
v -14.143365084886785 17.156062333016436 -6.710196120220285 0.4275464446079908 0.15 0.5724535553920092
v -12.969869623314334 22.872499652022615 -5.887177164283066 0.5920279507234244 0.15 0.4079720492765756
v -11.853994545256437 28.582507836258667 -4.951918123404139 0.7625278275711763 0.15 0.23747217242882368
v -10.62927812069737 34.29019757974625 -4.141848045001109 0.869151640285148 0.15 0.13084835971485198
v -9.36710729560305 39.99918053206571 -3.4056656669197265 1.0 0.15 0.0
l 41 42
l 42 43
l 43 44
l 44 45
l 45 46
l 46 47
l 47 48
v -19.624863044844062 0.0005402004945894504 -3.807458121332464 0.0 0.15 1.0
v -18.140803680530524 6.080305293519305 -3.4431430171187394 0.14319081932455285 0.15 0.8568091806754472
v -16.657816696930478 12.159696720512896 -3.0688883181580784 0.30262716764047487 0.15 0.6973728323595252
v -15.180143951532045 18.237076351185678 -2.645783755871985 0.4644974532643665 0.15 0.5355025467356336
v -13.738135580293713 24.287948476027026 -1.927856528824086 0.6509184775295599 0.15 0.3490815224704401
l 49 50
l 50 51
l 51 52
l 52 53
v -19.847798046956726 -0.0005622277783540156 1.546759415260882 0.0 0.15 1.0
v -18.419545825257906 5.715992586517776 1.5377588149986106 0.147457276878338 0.15 0.852542723121662
v -16.99436455869787 11.43322446976709 1.4958596872993728 0.2745735285624017 0.15 0.7254264714375983
v -15.57189743409562 17.150875787208637 1.425338774985384 0.41219216397012226 0.15 0.5878078360298777
v -14.15301356860479 22.86851514179928 1.3184667846759048 0.5854735839988171 0.15 0.4145264160011829
v -12.77479903179106 28.570457018299685 0.8385169623357807 0.7504386879804985 0.15 0.2495613120195015
v -11.338769936355954 34.28440671987168 0.9150888193274118 0.8616888344929129 0.15 0.1383111655070871
v -9.90460429857291 39.999157667495965 0.9707068670780412 1.0 0.15 0.0
l 54 55
l 55 56
l 56 57
l 57 58
l 58 59
l 59 60
l 60 61
v -18.725321966463337 2.430405761152228e-05 6.836987181197129 0.0 0.15 1.0
v -17.37991866049581 5.695363051032492 6.390846226915563 0.12559725708165656 0.15 0.8744027429183434
v -16.034633841681675 11.390714356572424 5.94430407719636 0.2805289130889175 0.15 0.7194710869110825
v -14.68290008358176 17.086183200202456 5.518920508103488 0.44202446198723117 0.15 0.5579755380127689
v -13.304691857003156 22.78076495134354 5.181571843173207 0.5983239928878309 0.15 0.4016760071121691
l 62 63
l 63 64
l 64 65
l 65 66
v -16.26541607183973 -0.007679652488628509 11.544153807357581 0.0 0.15 1.0
v -15.011190845982808 5.751226339177722 10.840997668654536 0.1315173773601346 0.15 0.8684826226398654
v -13.832651618030928 11.51024330708422 10.016673440416914 0.28976650520642167 0.15 0.7102334947935783
v -12.707754895221635 17.26754029851671 9.10898572509943 0.4470055000853882 0.15 0.5529944999146118
v -11.648949706790301 23.021322047935364 8.113883610674954 0.6117909193900983 0.15 0.38820908060990167
v -11.101010199876189 28.472827621264916 6.412259757433507 0.7497465475178051 0.15 0.2502534524821949
v -9.870698924869277 34.23471858937434 5.690369935925156 0.8578695699051906 0.15 0.1421304300948094
v -8.593544348769765 39.994924864163124 5.038581941275732 1.0 0.15 0.0
l 67 68
l 68 69
l 69 70
l 70 71
l 71 72
l 72 73
l 73 74
v -12.469954979850897 -0.0021644956291700414 15.515155431749932 0.0 0.15 1.0
v -11.634299110499256 5.718565404002535 14.359723092712205 0.14753746588429367 0.15 0.8524625341157064
v -10.740747456540756 11.43990785083764 13.251607439870288 0.28429808789900746 0.15 0.7157019121009925
v -9.803312219313694 17.161130195720993 12.179544813747954 0.4122886099503167 0.15 0.5877113900496833
v -8.820673600962724 22.881269070297925 11.14492829309303 0.6127606002812777 0.15 0.38723939971872234
v -7.431250090337862 28.557126162578264 10.45840378897299 0.7493789536785541 0.15 0.2506210463214459
v -6.562762405327498 34.27788573054552 9.329906202837709 0.8705362658673859 0.15 0.12946373413261414
v -5.753300118806401 39.997925137957345 8.15319956159488 1.0 0.15 0.0
l 75 76
l 76 77
l 77 78
l 78 79
l 79 80
l 80 81
l 81 82
v -7.929477194402562 1.4016892246789029e-05 18.33016397331542 0.0 0.15 1.0
v -7.27040782348093 6.771484418613584 16.772164498375062 0.16303783611867884 0.15 0.8369621638813212
v -6.639378674554881 13.542218514777264 15.19938498882657 0.33494862119329244 0.15 0.6650513788067076
v -6.0205426173734375 20.312526181801612 13.620208443623742 0.5210310083540634 0.15 0.47896899164593665
l 83 84
l 84 85
l 85 86
v -2.7269412191130105 -9.800943009482876e-05 19.73144422665295 0.0 0.15 1.0
v -2.572720438613195 5.714853463379213 18.317895781166733 0.1431499437779697 0.15 0.8568500562220303
v -2.4278837017401402 11.429789279882968 16.903427002045905 0.274582244029426 0.15 0.725417755970574
v -2.292188618057874 17.14473934696259 15.48805428559502 0.44715092527854255 0.15 0.5528490747214574
v -2.1558194298679516 22.859562745614813 14.072779628730542 0.5972543366097088 0.15 0.40274566339029116
v -1.9468380780937127 28.571828375775443 12.665296087468887 0.7429697501352116 0.15 0.2570302498647884
v -1.9345148726819246 34.28551385354343 11.238088447159054 0.869092233182036 0.15 0.130907766817964
v -1.88319994706367 39.999832106402444 9.814562962394632 1.0 0.15 0.0
l 87 88
l 88 89
l 89 90
l 90 91
l 91 92
l 92 93
l 93 94
v 2.644673219782103 4.155018983972889e-05 19.739512027632955 0.0 0.15 1.0
v 2.415733549143484 5.951976800111202 18.27407680602786 0.14710472310493444 0.15 0.8528952768950655
v 2.129598700763237 11.90292805694345 16.814520816437586 0.2857603450469509 0.15 0.7142396549530491
v 1.8239054391890261 17.853398195002146 15.35701144160565 0.4593248544169284 0.15 0.5406751455830716
v 1.4566858023601013 23.80174477209189 13.906092775812258 0.6509091623604443 0.15 0.34909083763955573
l 95 96
l 96 97
l 97 98
l 98 99
v 7.812302698748762 -0.0034063019170661214 18.384589594065517 0.0 0.15 1.0
v 7.2803718351160605 5.726519215530332 17.071270903394428 0.1331010111793672 0.15 0.8668989888206328
v 6.630067866160113 11.453746452617933 15.79922111623347 0.27951767514120235 0.15 0.7204823248587977
v 5.90731348743133 17.17532633621821 14.540746008618378 0.43789122975632383 0.15 0.5621087702436762
v 5.062814868800006 22.88612333608334 13.313628079877265 0.5978878379803595 0.15 0.4021121620196405
v 3.8891768838373153 28.55737771708139 12.195473523027161 0.74574695974722 0.15 0.25425304025277995
v 3.1312783256101184 34.274632195447246 10.938550150807178 0.8612604986107124 0.15 0.1387395013892876
v 2.501318527157852 39.997925653518536 9.64101546466424 1.0 0.15 0.0
l 100 101
l 101 102
l 102 103
l 103 104
l 104 105
l 105 106
l 106 107
v 12.420631883064098 0.00015533581618715865 15.554887213418958 0.0 0.15 1.0
v 11.348531708558662 6.62613223032658 14.302142704791693 0.14717047359153762 0.15 0.8528295264084624
v 10.213259535680265 13.251452956685194 13.10145332017205 0.33537663478766716 0.15 0.6646233652123328
v 9.143282748241269 19.877547067577147 11.846928485895573 0.5120418361365979 0.15 0.4879581638634021
v 8.263722017201186 26.496923588468285 10.438295274722838 0.7085978075849182 0.15 0.2914021924150818
l 108 109
l 109 110
l 110 111
l 111 112
v 16.122550099992633 -0.01746007622742984 11.736064475103888 0.0 0.15 1.0
v 14.981401966841535 5.75270623255331 10.862125497650895 0.12957316869436425 0.15 0.8704268313056358
v 13.759013445617661 11.521166648203636 10.091919116797635 0.2684335375033065 0.15 0.7315664624966935
v 12.507853905912757 17.28799481202075 9.356815985178853 0.44831008172939163 0.15 0.5516899182706083
v 11.514004382253322 23.045816394099326 8.30630873122562 0.6043093373282694 0.15 0.3956906626717306
v 9.574671118830915 28.598551350599713 8.477910895978217 0.7499806434592023 0.15 0.25001935654079765
v 7.78770487238418 34.23141989044325 8.307148474701682 0.8479361576524803 0.15 0.15206384234751968
v 6.38520238987331 39.97498087372273 7.671848532044331 1.0 0.15 0.0
l 113 114
l 114 115
l 115 116
l 116 117
l 117 118
l 118 119
l 119 120
v 18.69458870900361 0.0006979762942444621 6.9434849010016 0.0 0.15 1.0
v 17.105522822945453 6.681148820335761 6.447822001510613 0.161385278597086 0.15 0.838614721402914
v 15.478138845458492 13.36150600071927 6.0993911557226905 0.32584303832549005 0.15 0.67415696167451
v 13.6716906280266 20.001166020019085 6.092653101564728 0.5345605879573776 0.15 0.4654394120426224
l 121 122
l 122 123
l 123 124
v 19.819761961219868 -0.008847075849719539 1.7404571312993506 0.0 0.15 1.0
v 18.417543791063288 5.757611545101764 1.5515683774310003 0.12569324083375158 0.15 0.8743067591662484
v 16.96903092121666 11.515314645581814 1.652556043584537 0.26905029357336335 0.15 0.7309497064266366
v 15.482187063866771 17.251485488021725 2.0265830555784468 0.429876496710001 0.15 0.570123503289999
v 13.945389915721979 22.925474002599618 2.8581931204686546 0.5781583788101707 0.15 0.42184162118982926
v 12.266654209716519 28.564550931736132 3.6594684108049074 0.7168316919464363 0.15 0.28316830805356374
v 10.647145084458522 34.25473186138093 4.141670701122983 0.8529505555866271 0.15 0.14704944441337287
v 9.138394607583889 39.99413835787644 4.020930695143846 1.0 0.15 0.0
l 125 126
l 126 127
l 127 128
l 128 129
l 129 130
l 130 131
l 131 132
v 19.63796530499598 -0.001357605141761819 -3.6792458317373784 0.0 0.15 1.0
v 18.23113738217943 5.723248035512584 -3.4322853398588977 0.131314533710856 0.15 0.868685466289144
v 16.837960897085452 11.444221198734825 -3.055939767428036 0.27474418747003027 0.15 0.7252558125299697
v 15.458930347946012 17.158755461495176 -2.552311910608323 0.426907750385792 0.15 0.573092249614208
v 14.096558302313234 22.862937482437225 -1.9058244438032257 0.56893921167551 0.15 0.43106078832449
v 12.736698654862568 28.56540249389643 -1.2381864368090154 0.706815950201413 0.15 0.29318404979858703
v 11.363164887673854 34.27676983596308 -0.6867873733912184 0.8400986019318412 0.15 0.15990139806815884
v 9.963994832586655 39.99919669358262 -0.3676056156146523 1.0 0.15 0.0
l 133 134
l 134 135
l 135 136
l 136 137
l 137 138
l 138 139
l 139 140
v 17.892526223895274 6.77553391003764e-05 -8.748211449916287 0.0 0.15 1.0
v 16.590033407708194 5.7143934829319125 -8.169068006763256 0.14360438667096884 0.15 0.8563956133290311
v 15.27819483954941 11.428383636661685 -7.607586395211368 0.272914358447084 0.15 0.727085641552916
v 13.971397396770936 17.142591310753005 -7.036558708349715 0.4154693363171315 0.15 0.5845306636828684
v 12.676560918334916 22.8572150376975 -6.442934050645431 0.5655662054852619 0.15 0.43443379451473807
v 11.380654196169749 28.571813015238146 -5.851325266022548 0.7085556967195491 0.15 0.2914443032804509
v 10.067200997553563 34.28574222120864 -5.2928964594725745 0.8485010230453981 0.15 0.1514989769546019
v 8.762190766246874 39.999950584271836 -4.718524735927694 1.0 0.15 0.0
l 141 142
l 142 143
l 143 144
l 144 145
l 145 146
l 146 147
l 147 148
v 13.95818001910163 5.000001632918017 -12.40538685138809 0.1250000002079726 0.15 0.8749999997920274
v 12.443909344262012 11.707416760840852 -11.620018877446416 0.2975666245849511 0.15 0.7024333754150489
v 10.887494413878084 18.41122844469824 -10.887417013999887 0.43749999948006857 0.15 0.5625000005199314
l 149 150
l 150 151
v 13.953177890262818 0.0 -14.297209186594138 0.0 0.15 1.0
v 13.545851463584444 2.6142274677299198 -13.79009493791031 0.062499999688041125 0.15 0.9375000003119589
l 152 153
