# KnittingStitches from conjugate-height scales + smooth
v 9.757659864876747 4.921384367198571e-05 -17.35306873107273 0.55 0.55 0.55
v 9.10913489580194 5.7148608948955975 -16.087337685013093 0.55 0.55 0.55
v 4.454264488401146 5.719911031985594 -17.963084655291087 0.55 0.55 0.55
v 4.798583641770117 -0.0009459801468703617 -19.341243138950553 0.55 0.55 0.55
v 4.798583641770117 -0.0009459801468703617 -19.341243138950553 0.55 0.55 0.55
v 4.454264488401146 5.719911031985594 -17.963084655291087 0.55 0.55 0.55
v -0.5045670155242834 5.748223917075177 -18.514527613405583 0.55 0.55 0.55
v -0.574250896978617 -0.005742525759251203 -19.942363973729226 0.55 0.55 0.55
v -0.574250896978617 -0.005742525759251203 -19.942363973729226 0.55 0.55 0.55
v -0.5045670155242834 5.748223917075177 -18.514527613405583 0.55 0.55 0.55
v -5.3748822469878785 8.386348650479995 -16.988475063955494 0.55 0.55 0.55
v -5.832389754626906 4.475854410559197e-05 -19.030057932717174 0.55 0.55 0.55
v -5.832389754626906 4.475854410559197e-05 -19.030057932717174 0.55 0.55 0.55
v -5.3748822469878785 8.386348650479995 -16.988475063955494 0.55 0.55 0.55
v -10.039090901387283 5.755022421915709 -15.5852603362912 0.55 0.55 0.55
v -10.776933307773392 -0.015231266464622008 -16.803751630053064 0.55 0.55 0.55
v -10.776933307773392 -0.015231266464622008 -16.803751630053064 0.55 0.55 0.55
v -10.039090901387283 5.755022421915709 -15.5852603362912 0.55 0.55 0.55
v -13.652245346362252 6.6309491439146555 -12.138544849032234 0.55 0.55 0.55
v -14.811719541157615 0.0002065567437479556 -13.326164207225 0.55 0.55 0.55
v -14.811719541157615 0.0002065567437479556 -13.326164207225 0.55 0.55 0.55
v -13.652245346362252 6.6309491439146555 -12.138544849032234 0.55 0.55 0.55
v -16.57818101749062 5.718451201902203 -8.187463999366413 0.55 0.55 0.55
v -17.834702620969342 -0.0003292751718255781 -8.857675783333297 0.55 0.55 0.55
v -17.834702620969342 -0.0003292751718255781 -8.857675783333297 0.55 0.55 0.55
v -16.57818101749062 5.718451201902203 -8.187463999366413 0.55 0.55 0.55
v -18.140803680530524 6.080305293519305 -3.4431430171187394 0.55 0.55 0.55
v -19.624863044844062 0.0005402004945894504 -3.807458121332464 0.55 0.55 0.55
v -19.624863044844062 0.0005402004945894504 -3.807458121332464 0.55 0.55 0.55
v -18.140803680530524 6.080305293519305 -3.4431430171187394 0.55 0.55 0.55
v -18.419545825257906 5.715992586517776 1.5377588149986106 0.55 0.55 0.55
v -19.847798046956726 -0.0005622277783540156 1.546759415260882 0.55 0.55 0.55
v -19.847798046956726 -0.0005622277783540156 1.546759415260882 0.55 0.55 0.55
v -18.419545825257906 5.715992586517776 1.5377588149986106 0.55 0.55 0.55
v -17.37991866049581 5.695363051032492 6.390846226915563 0.55 0.55 0.55
v -18.725321966463337 2.430405761152228e-05 6.836987181197129 0.55 0.55 0.55
v -18.725321966463337 2.430405761152228e-05 6.836987181197129 0.55 0.55 0.55
v -17.37991866049581 5.695363051032492 6.390846226915563 0.55 0.55 0.55
v -15.011190845982808 5.751226339177722 10.840997668654536 0.55 0.55 0.55
v -16.26541607183973 -0.007679652488628509 11.544153807357581 0.55 0.55 0.55
v -16.26541607183973 -0.007679652488628509 11.544153807357581 0.55 0.55 0.55
v -15.011190845982808 5.751226339177722 10.840997668654536 0.55 0.55 0.55
v -11.634299110499256 5.718565404002535 14.359723092712205 0.55 0.55 0.55
v -12.469954979850897 -0.0021644956291700414 15.515155431749932 0.55 0.55 0.55
v -12.469954979850897 -0.0021644956291700414 15.515155431749932 0.55 0.55 0.55
v -11.634299110499256 5.718565404002535 14.359723092712205 0.55 0.55 0.55
v -7.27040782348093 6.771484418613584 16.772164498375062 0.55 0.55 0.55
v -7.929477194402562 1.4016892246789029e-05 18.33016397331542 0.55 0.55 0.55
v -7.929477194402562 1.4016892246789029e-05 18.33016397331542 0.55 0.55 0.55
v -7.27040782348093 6.771484418613584 16.772164498375062 0.55 0.55 0.55
v -2.572720438613195 5.714853463379213 18.317895781166733 0.55 0.55 0.55
v -2.7269412191130105 -9.800943009482876e-05 19.73144422665295 0.55 0.55 0.55
v -2.7269412191130105 -9.800943009482876e-05 19.73144422665295 0.55 0.55 0.55
v -2.572720438613195 5.714853463379213 18.317895781166733 0.55 0.55 0.55
v 2.415733549143484 5.951976800111202 18.27407680602786 0.55 0.55 0.55
v 2.644673219782103 4.155018983972889e-05 19.739512027632955 0.55 0.55 0.55
v 2.644673219782103 4.155018983972889e-05 19.739512027632955 0.55 0.55 0.55
v 2.415733549143484 5.951976800111202 18.27407680602786 0.55 0.55 0.55
v 7.2803718351160605 5.726519215530332 17.071270903394428 0.55 0.55 0.55
v 7.812302698748762 -0.0034063019170661214 18.384589594065517 0.55 0.55 0.55
v 7.812302698748762 -0.0034063019170661214 18.384589594065517 0.55 0.55 0.55
v 7.2803718351160605 5.726519215530332 17.071270903394428 0.55 0.55 0.55
v 11.348531708558662 6.62613223032658 14.302142704791693 0.55 0.55 0.55
v 12.420631883064098 0.00015533581618715865 15.554887213418958 0.55 0.55 0.55
v 12.420631883064098 0.00015533581618715865 15.554887213418958 0.55 0.55 0.55
v 11.348531708558662 6.62613223032658 14.302142704791693 0.55 0.55 0.55
v 14.981401966841535 5.75270623255331 10.862125497650895 0.55 0.55 0.55
v 16.122550099992633 -0.01746007622742984 11.736064475103888 0.55 0.55 0.55
v 16.122550099992633 -0.01746007622742984 11.736064475103888 0.55 0.55 0.55
v 14.981401966841535 5.75270623255331 10.862125497650895 0.55 0.55 0.55
v 17.105522822945453 6.681148820335761 6.447822001510613 0.55 0.55 0.55
v 18.69458870900361 0.0006979762942444621 6.9434849010016 0.55 0.55 0.55
v 18.69458870900361 0.0006979762942444621 6.9434849010016 0.55 0.55 0.55
v 17.105522822945453 6.681148820335761 6.447822001510613 0.55 0.55 0.55
v 18.417543791063288 5.757611545101764 1.5515683774310003 0.55 0.55 0.55
v 19.819761961219868 -0.008847075849719539 1.7404571312993506 0.55 0.55 0.55
v 19.819761961219868 -0.008847075849719539 1.7404571312993506 0.55 0.55 0.55
v 18.417543791063288 5.757611545101764 1.5515683774310003 0.55 0.55 0.55
v 18.23113738217943 5.723248035512584 -3.4322853398588977 0.55 0.55 0.55
v 19.63796530499598 -0.001357605141761819 -3.6792458317373784 0.55 0.55 0.55
v 19.63796530499598 -0.001357605141761819 -3.6792458317373784 0.55 0.55 0.55
v 18.23113738217943 5.723248035512584 -3.4322853398588977 0.55 0.55 0.55
v 16.590033407708194 5.7143934829319125 -8.169068006763256 0.55 0.55 0.55
v 17.892526223895274 6.77553391003764e-05 -8.748211449916287 0.55 0.55 0.55
v 17.892526223895274 6.77553391003764e-05 -8.748211449916287 0.0 1.0 0.0
v 16.590033407708194 5.7143934829319125 -8.169068006763256 0.0 1.0 0.0
v 13.95818001910163 5.000001632918017 -12.40538685138809 0.0 1.0 0.0
v 13.545851463584444 2.6142274677299198 -13.79009493791031 0.0 1.0 0.0
v 13.953177890262818 0.0 -14.297209186594138 0.0 1.0 0.0
v 13.953177890262818 0.0 -14.297209186594138 0.55 0.55 0.55
v 13.545851463584444 2.6142274677299198 -13.79009493791031 0.55 0.55 0.55
v 9.10913489580194 5.7148608948955975 -16.087337685013093 0.55 0.55 0.55
v 9.757659864876747 4.921384367198571e-05 -17.35306873107273 0.55 0.55 0.55
v 9.10913489580194 5.7148608948955975 -16.087337685013093 0.55 0.55 0.55
v 8.511014064203758 11.429324250242328 -14.794966251311019 0.55 0.55 0.55
v 4.034097959037117 11.440319292601494 -16.604071670027036 0.55 0.55 0.55
v 4.454264488401146 5.719911031985594 -17.963084655291087 0.55 0.55 0.55
v 4.454264488401146 5.719911031985594 -17.963084655291087 0.55 0.55 0.55
v 4.034097959037117 11.440319292601494 -16.604071670027036 0.55 0.55 0.55
v -0.6780557458898506 11.49422111304566 -17.06327571527988 0.55 0.55 0.55
v -0.5045670155242834 5.748223917075177 -18.514527613405583 0.55 0.55 0.55
v -0.5045670155242834 5.748223917075177 -18.514527613405583 0.55 0.55 0.55
v -0.6780557458898506 11.49422111304566 -17.06327571527988 0.55 0.55 0.55
v -5.18416435066622 16.762412919996713 -14.868624714497265 0.55 0.55 0.55
v -5.3748822469878785 8.386348650479995 -16.988475063955494 0.55 0.55 0.55
v -5.3748822469878785 8.386348650479995 -16.988475063955494 0.55 0.55 0.55
v -5.18416435066622 16.762412919996713 -14.868624714497265 0.55 0.55 0.55
v -9.33696689488213 11.523337512180401 -14.336831757466113 0.55 0.55 0.55
v -10.039090901387283 5.755022421915709 -15.5852603362912 0.55 0.55 0.55
v -10.039090901387283 5.755022421915709 -15.5852603362912 0.55 0.55 0.55
v -9.33696689488213 11.523337512180401 -14.336831757466113 0.55 0.55 0.55
v -12.495147031621762 13.261592793410314 -10.948069251470779 0.55 0.55 0.55
v -13.652245346362252 6.6309491439146555 -12.138544849032234 0.55 0.55 0.55
v -13.652245346362252 6.6309491439146555 -12.138544849032234 0.55 0.55 0.55
v -12.495147031621762 13.261592793410314 -10.948069251470779 0.55 0.55 0.55
v -15.351790521976302 11.437440601036965 -7.465321936202149 0.55 0.55 0.55
v -16.57818101749062 5.718451201902203 -8.187463999366413 0.55 0.55 0.55
v -16.57818101749062 5.718451201902203 -8.187463999366413 0.55 0.55 0.55
v -15.351790521976302 11.437440601036965 -7.465321936202149 0.55 0.55 0.55
v -16.657816696930478 12.159696720512896 -3.0688883181580784 0.55 0.55 0.55
v -18.140803680530524 6.080305293519305 -3.4431430171187394 0.55 0.55 0.55
v -18.140803680530524 6.080305293519305 -3.4431430171187394 0.55 0.55 0.55
v -16.657816696930478 12.159696720512896 -3.0688883181580784 0.55 0.55 0.55
v -16.99436455869787 11.43322446976709 1.4958596872993728 0.55 0.55 0.55
v -18.419545825257906 5.715992586517776 1.5377588149986106 0.55 0.55 0.55
v -18.419545825257906 5.715992586517776 1.5377588149986106 0.55 0.55 0.55
v -16.99436455869787 11.43322446976709 1.4958596872993728 0.55 0.55 0.55
v -16.034633841681675 11.390714356572424 5.94430407719636 0.55 0.55 0.55
v -17.37991866049581 5.695363051032492 6.390846226915563 0.55 0.55 0.55
v -17.37991866049581 5.695363051032492 6.390846226915563 0.55 0.55 0.55
v -16.034633841681675 11.390714356572424 5.94430407719636 0.55 0.55 0.55
v -13.832651618030928 11.51024330708422 10.016673440416914 0.55 0.55 0.55
v -15.011190845982808 5.751226339177722 10.840997668654536 0.55 0.55 0.55
v -15.011190845982808 5.751226339177722 10.840997668654536 0.55 0.55 0.55
v -13.832651618030928 11.51024330708422 10.016673440416914 0.55 0.55 0.55
v -10.740747456540756 11.43990785083764 13.251607439870288 0.55 0.55 0.55
v -11.634299110499256 5.718565404002535 14.359723092712205 0.55 0.55 0.55
v -11.634299110499256 5.718565404002535 14.359723092712205 0.55 0.55 0.55
v -10.740747456540756 11.43990785083764 13.251607439870288 0.55 0.55 0.55
v -6.639378674554881 13.542218514777264 15.19938498882657 0.55 0.55 0.55
v -7.27040782348093 6.771484418613584 16.772164498375062 0.55 0.55 0.55
v -7.27040782348093 6.771484418613584 16.772164498375062 0.55 0.55 0.55
v -6.639378674554881 13.542218514777264 15.19938498882657 0.55 0.55 0.55
v -2.4278837017401402 11.429789279882968 16.903427002045905 0.55 0.55 0.55
v -2.572720438613195 5.714853463379213 18.317895781166733 0.55 0.55 0.55
v -2.572720438613195 5.714853463379213 18.317895781166733 0.55 0.55 0.55
v -2.4278837017401402 11.429789279882968 16.903427002045905 0.55 0.55 0.55
v 2.129598700763237 11.90292805694345 16.814520816437586 0.55 0.55 0.55
v 2.415733549143484 5.951976800111202 18.27407680602786 0.55 0.55 0.55
v 2.415733549143484 5.951976800111202 18.27407680602786 0.55 0.55 0.55
v 2.129598700763237 11.90292805694345 16.814520816437586 0.55 0.55 0.55
v 6.630067866160113 11.453746452617933 15.79922111623347 0.55 0.55 0.55
v 7.2803718351160605 5.726519215530332 17.071270903394428 0.55 0.55 0.55
v 7.2803718351160605 5.726519215530332 17.071270903394428 0.55 0.55 0.55
v 6.630067866160113 11.453746452617933 15.79922111623347 0.55 0.55 0.55
v 10.213259535680265 13.251452956685194 13.10145332017205 0.55 0.55 0.55
v 11.348531708558662 6.62613223032658 14.302142704791693 0.55 0.55 0.55
v 11.348531708558662 6.62613223032658 14.302142704791693 0.55 0.55 0.55
v 10.213259535680265 13.251452956685194 13.10145332017205 0.55 0.55 0.55
v 13.759013445617661 11.521166648203636 10.091919116797635 0.55 0.55 0.55
v 14.981401966841535 5.75270623255331 10.862125497650895 0.55 0.55 0.55
v 14.981401966841535 5.75270623255331 10.862125497650895 0.55 0.55 0.55
v 13.759013445617661 11.521166648203636 10.091919116797635 0.55 0.55 0.55
v 15.478138845458492 13.36150600071927 6.0993911557226905 0.55 0.55 0.55
v 17.105522822945453 6.681148820335761 6.447822001510613 0.55 0.55 0.55
v 17.105522822945453 6.681148820335761 6.447822001510613 0.55 0.55 0.55
v 15.478138845458492 13.36150600071927 6.0993911557226905 0.55 0.55 0.55
v 16.96903092121666 11.515314645581814 1.652556043584537 0.55 0.55 0.55
v 18.417543791063288 5.757611545101764 1.5515683774310003 0.55 0.55 0.55
v 18.417543791063288 5.757611545101764 1.5515683774310003 0.55 0.55 0.55
v 16.96903092121666 11.515314645581814 1.652556043584537 0.55 0.55 0.55
v 16.837960897085452 11.444221198734825 -3.055939767428036 0.55 0.55 0.55
v 18.23113738217943 5.723248035512584 -3.4322853398588977 0.55 0.55 0.55
v 18.23113738217943 5.723248035512584 -3.4322853398588977 0.55 0.55 0.55
v 16.837960897085452 11.444221198734825 -3.055939767428036 0.55 0.55 0.55
v 15.27819483954941 11.428383636661685 -7.607586395211368 0.55 0.55 0.55
v 16.590033407708194 5.7143934829319125 -8.169068006763256 0.55 0.55 0.55
v 16.590033407708194 5.7143934829319125 -8.169068006763256 0.55 0.55 0.55
v 15.27819483954941 11.428383636661685 -7.607586395211368 0.55 0.55 0.55
v 12.443909344262012 11.707416760840852 -11.620018877446416 0.55 0.55 0.55
v 13.95818001910163 5.000001632918017 -12.40538685138809 0.55 0.55 0.55
v 13.545851463584444 2.6142274677299198 -13.79009493791031 1.0 0.0 0.0
v 13.95818001910163 5.000001632918017 -12.40538685138809 1.0 0.0 0.0
v 12.443909344262012 11.707416760840852 -11.620018877446416 1.0 0.0 0.0
v 8.511014064203758 11.429324250242328 -14.794966251311019 1.0 0.0 0.0
v 9.10913489580194 5.7148608948955975 -16.087337685013093 1.0 0.0 0.0
v 8.511014064203758 11.429324250242328 -14.794966251311019 0.55 0.55 0.55
v 7.925686367685479 17.1436079298265 -13.495898814374312 0.55 0.55 0.55
v 3.5144394990452588 17.15884037615428 -15.271790101853695 0.55 0.55 0.55
v 4.034097959037117 11.440319292601494 -16.604071670027036 0.55 0.55 0.55
v 4.034097959037117 11.440319292601494 -16.604071670027036 0.55 0.55 0.55
v 3.5144394990452588 17.15884037615428 -15.271790101853695 0.55 0.55 0.55
v -1.088845299696422 17.221985212199876 -15.589243864463642 0.55 0.55 0.55
v -0.6780557458898506 11.49422111304566 -17.06327571527988 0.55 0.55 0.55
v -5.18416435066622 16.762412919996713 -14.868624714497265 1.0 0.0 0.0
v -0.6780557458898506 11.49422111304566 -17.06327571527988 1.0 0.0 0.0
v -1.088845299696422 17.221985212199876 -15.589243864463642 1.0 0.0 0.0
v -8.645739015914588 17.28805306622266 -13.065765892114781 1.0 0.0 0.0
v -9.33696689488213 11.523337512180401 -14.336831757466113 1.0 0.0 0.0
v -9.33696689488213 11.523337512180401 -14.336831757466113 0.55 0.55 0.55
v -8.645739015914588 17.28805306622266 -13.065765892114781 0.55 0.55 0.55
v -11.294986563478126 19.89357837953532 -9.809538752723551 0.55 0.55 0.55
v -12.495147031621762 13.261592793410314 -10.948069251470779 0.55 0.55 0.55
v -12.495147031621762 13.261592793410314 -10.948069251470779 0.55 0.55 0.55
v -11.294986563478126 19.89357837953532 -9.809538752723551 0.55 0.55 0.55
v -14.143365084886785 17.156062333016436 -6.710196120220285 0.55 0.55 0.55
v -15.351790521976302 11.437440601036965 -7.465321936202149 0.55 0.55 0.55
v -15.351790521976302 11.437440601036965 -7.465321936202149 0.55 0.55 0.55
v -14.143365084886785 17.156062333016436 -6.710196120220285 0.55 0.55 0.55
v -15.180143951532045 18.237076351185678 -2.645783755871985 0.55 0.55 0.55
v -16.657816696930478 12.159696720512896 -3.0688883181580784 0.55 0.55 0.55
v -16.657816696930478 12.159696720512896 -3.0688883181580784 0.55 0.55 0.55
v -15.180143951532045 18.237076351185678 -2.645783755871985 0.55 0.55 0.55
v -15.57189743409562 17.150875787208637 1.425338774985384 0.55 0.55 0.55
v -16.99436455869787 11.43322446976709 1.4958596872993728 0.55 0.55 0.55
v -16.99436455869787 11.43322446976709 1.4958596872993728 0.55 0.55 0.55
v -15.57189743409562 17.150875787208637 1.425338774985384 0.55 0.55 0.55
v -14.68290008358176 17.086183200202456 5.518920508103488 0.55 0.55 0.55
v -16.034633841681675 11.390714356572424 5.94430407719636 0.55 0.55 0.55
v -16.034633841681675 11.390714356572424 5.94430407719636 0.55 0.55 0.55
v -14.68290008358176 17.086183200202456 5.518920508103488 0.55 0.55 0.55
v -12.707754895221635 17.26754029851671 9.10898572509943 0.55 0.55 0.55
v -13.832651618030928 11.51024330708422 10.016673440416914 0.55 0.55 0.55
v -13.832651618030928 11.51024330708422 10.016673440416914 0.55 0.55 0.55
v -12.707754895221635 17.26754029851671 9.10898572509943 0.55 0.55 0.55
v -9.803312219313694 17.161130195720993 12.179544813747954 0.55 0.55 0.55
v -10.740747456540756 11.43990785083764 13.251607439870288 0.55 0.55 0.55
v -10.740747456540756 11.43990785083764 13.251607439870288 0.55 0.55 0.55
v -9.803312219313694 17.161130195720993 12.179544813747954 0.55 0.55 0.55
v -6.0205426173734375 20.312526181801612 13.620208443623742 0.55 0.55 0.55
v -6.639378674554881 13.542218514777264 15.19938498882657 0.55 0.55 0.55
v -6.639378674554881 13.542218514777264 15.19938498882657 0.55 0.55 0.55
v -6.0205426173734375 20.312526181801612 13.620208443623742 0.55 0.55 0.55
v -2.292188618057874 17.14473934696259 15.48805428559502 0.55 0.55 0.55
v -2.4278837017401402 11.429789279882968 16.903427002045905 0.55 0.55 0.55
v -2.4278837017401402 11.429789279882968 16.903427002045905 0.55 0.55 0.55
v -2.292188618057874 17.14473934696259 15.48805428559502 0.55 0.55 0.55
v 1.8239054391890261 17.853398195002146 15.35701144160565 0.55 0.55 0.55
v 2.129598700763237 11.90292805694345 16.814520816437586 0.55 0.55 0.55
v 2.129598700763237 11.90292805694345 16.814520816437586 0.55 0.55 0.55
v 1.8239054391890261 17.853398195002146 15.35701144160565 0.55 0.55 0.55
v 5.90731348743133 17.17532633621821 14.540746008618378 0.55 0.55 0.55
v 6.630067866160113 11.453746452617933 15.79922111623347 0.55 0.55 0.55
v 6.630067866160113 11.453746452617933 15.79922111623347 0.55 0.55 0.55
v 5.90731348743133 17.17532633621821 14.540746008618378 0.55 0.55 0.55
v 9.143282748241269 19.877547067577147 11.846928485895573 0.55 0.55 0.55
v 10.213259535680265 13.251452956685194 13.10145332017205 0.55 0.55 0.55
v 10.213259535680265 13.251452956685194 13.10145332017205 0.55 0.55 0.55
v 9.143282748241269 19.877547067577147 11.846928485895573 0.55 0.55 0.55
v 12.507853905912757 17.28799481202075 9.356815985178853 0.55 0.55 0.55
v 13.759013445617661 11.521166648203636 10.091919116797635 0.55 0.55 0.55
v 13.759013445617661 11.521166648203636 10.091919116797635 0.55 0.55 0.55
v 12.507853905912757 17.28799481202075 9.356815985178853 0.55 0.55 0.55
v 13.6716906280266 20.001166020019085 6.092653101564728 0.55 0.55 0.55
v 15.478138845458492 13.36150600071927 6.0993911557226905 0.55 0.55 0.55
v 15.478138845458492 13.36150600071927 6.0993911557226905 0.55 0.55 0.55
v 13.6716906280266 20.001166020019085 6.092653101564728 0.55 0.55 0.55
v 15.482187063866771 17.251485488021725 2.0265830555784468 0.55 0.55 0.55
v 16.96903092121666 11.515314645581814 1.652556043584537 0.55 0.55 0.55
v 16.96903092121666 11.515314645581814 1.652556043584537 0.55 0.55 0.55
v 15.482187063866771 17.251485488021725 2.0265830555784468 0.55 0.55 0.55
v 15.458930347946012 17.158755461495176 -2.552311910608323 0.55 0.55 0.55
v 16.837960897085452 11.444221198734825 -3.055939767428036 0.55 0.55 0.55
v 16.837960897085452 11.444221198734825 -3.055939767428036 0.55 0.55 0.55
v 15.458930347946012 17.158755461495176 -2.552311910608323 0.55 0.55 0.55
v 13.971397396770936 17.142591310753005 -7.036558708349715 0.55 0.55 0.55
v 15.27819483954941 11.428383636661685 -7.607586395211368 0.55 0.55 0.55
v 15.27819483954941 11.428383636661685 -7.607586395211368 0.55 0.55 0.55
v 13.971397396770936 17.142591310753005 -7.036558708349715 0.55 0.55 0.55
v 10.887494413878084 18.41122844469824 -10.887417013999887 0.55 0.55 0.55
v 12.443909344262012 11.707416760840852 -11.620018877446416 0.55 0.55 0.55
v 12.443909344262012 11.707416760840852 -11.620018877446416 0.55 0.55 0.55
v 10.887494413878084 18.41122844469824 -10.887417013999887 0.55 0.55 0.55
v 7.925686367685479 17.1436079298265 -13.495898814374312 0.55 0.55 0.55
v 8.511014064203758 11.429324250242328 -14.794966251311019 0.55 0.55 0.55
v 7.925686367685479 17.1436079298265 -13.495898814374312 0.55 0.55 0.55
v 7.331649248137279 22.858034389397353 -12.201426111856295 0.55 0.55 0.55
v 2.890074234796236 22.873595573873423 -13.968347707697024 0.55 0.55 0.55
v 3.5144394990452588 17.15884037615428 -15.271790101853695 0.55 0.55 0.55
v 3.5144394990452588 17.15884037615428 -15.271790101853695 0.55 0.55 0.55
v 2.890074234796236 22.873595573873423 -13.968347707697024 0.55 0.55 0.55
v -1.8626207433499096 22.903865700546135 -14.084466438787006 0.55 0.55 0.55
v -1.088845299696422 17.221985212199876 -15.589243864463642 0.55 0.55 0.55
v -1.088845299696422 17.221985212199876 -15.589243864463642 0.55 0.55 0.55
v -1.8626207433499096 22.903865700546135 -14.084466438787006 0.55 0.55 0.55
v -7.289988873338322 22.9626076699668 -12.174379818814769 0.55 0.55 0.55
v -8.645739015914588 17.28805306622266 -13.065765892114781 0.55 0.55 0.55
v -8.645739015914588 17.28805306622266 -13.065765892114781 0.55 0.55 0.55
v -7.289988873338322 22.9626076699668 -12.174379818814769 0.55 0.55 0.55
v -10.122494775826535 26.510914957664028 -8.643038923132174 0.55 0.55 0.55
v -11.294986563478126 19.89357837953532 -9.809538752723551 0.55 0.55 0.55
v -11.294986563478126 19.89357837953532 -9.809538752723551 0.55 0.55 0.55
v -10.122494775826535 26.510914957664028 -8.643038923132174 0.55 0.55 0.55
v -12.969869623314334 22.872499652022615 -5.887177164283066 0.55 0.55 0.55
v -14.143365084886785 17.156062333016436 -6.710196120220285 0.55 0.55 0.55
v -14.143365084886785 17.156062333016436 -6.710196120220285 0.55 0.55 0.55
v -12.969869623314334 22.872499652022615 -5.887177164283066 0.55 0.55 0.55
v -13.738135580293713 24.287948476027026 -1.927856528824086 0.55 0.55 0.55
v -15.180143951532045 18.237076351185678 -2.645783755871985 0.55 0.55 0.55
v -15.180143951532045 18.237076351185678 -2.645783755871985 0.55 0.55 0.55
v -13.738135580293713 24.287948476027026 -1.927856528824086 0.55 0.55 0.55
v -14.15301356860479 22.86851514179928 1.3184667846759048 0.55 0.55 0.55
v -15.57189743409562 17.150875787208637 1.425338774985384 0.55 0.55 0.55
v -15.57189743409562 17.150875787208637 1.425338774985384 0.55 0.55 0.55
v -14.15301356860479 22.86851514179928 1.3184667846759048 0.55 0.55 0.55
v -13.304691857003156 22.78076495134354 5.181571843173207 0.55 0.55 0.55
v -14.68290008358176 17.086183200202456 5.518920508103488 0.55 0.55 0.55
v -14.68290008358176 17.086183200202456 5.518920508103488 0.55 0.55 0.55
v -13.304691857003156 22.78076495134354 5.181571843173207 0.55 0.55 0.55
v -11.648949706790301 23.021322047935364 8.113883610674954 0.55 0.55 0.55
v -12.707754895221635 17.26754029851671 9.10898572509943 0.55 0.55 0.55
v -12.707754895221635 17.26754029851671 9.10898572509943 0.55 0.55 0.55
v -11.648949706790301 23.021322047935364 8.113883610674954 0.55 0.55 0.55
v -8.820673600962724 22.881269070297925 11.14492829309303 0.55 0.55 0.55
v -9.803312219313694 17.161130195720993 12.179544813747954 0.55 0.55 0.55
v -6.0205426173734375 20.312526181801612 13.620208443623742 1.0 0.0 0.0
v -9.803312219313694 17.161130195720993 12.179544813747954 1.0 0.0 0.0
v -8.820673600962724 22.881269070297925 11.14492829309303 1.0 0.0 0.0
v -2.1558194298679516 22.859562745614813 14.072779628730542 1.0 0.0 0.0
v -2.292188618057874 17.14473934696259 15.48805428559502 1.0 0.0 0.0
v -2.292188618057874 17.14473934696259 15.48805428559502 0.55 0.55 0.55
v -2.1558194298679516 22.859562745614813 14.072779628730542 0.55 0.55 0.55
v 1.4566858023601013 23.80174477209189 13.906092775812258 0.55 0.55 0.55
v 1.8239054391890261 17.853398195002146 15.35701144160565 0.55 0.55 0.55
v 1.8239054391890261 17.853398195002146 15.35701144160565 0.55 0.55 0.55
v 1.4566858023601013 23.80174477209189 13.906092775812258 0.55 0.55 0.55
v 5.062814868800006 22.88612333608334 13.313628079877265 0.55 0.55 0.55
v 5.90731348743133 17.17532633621821 14.540746008618378 0.55 0.55 0.55
v 5.90731348743133 17.17532633621821 14.540746008618378 0.55 0.55 0.55
v 5.062814868800006 22.88612333608334 13.313628079877265 0.55 0.55 0.55
v 8.263722017201186 26.496923588468285 10.438295274722838 0.55 0.55 0.55
v 9.143282748241269 19.877547067577147 11.846928485895573 0.55 0.55 0.55
v 9.143282748241269 19.877547067577147 11.846928485895573 0.55 0.55 0.55
v 8.263722017201186 26.496923588468285 10.438295274722838 0.55 0.55 0.55
v 11.514004382253322 23.045816394099326 8.30630873122562 0.55 0.55 0.55
v 12.507853905912757 17.28799481202075 9.356815985178853 0.55 0.55 0.55
v 13.6716906280266 20.001166020019085 6.092653101564728 1.0 0.0 0.0
v 12.507853905912757 17.28799481202075 9.356815985178853 1.0 0.0 0.0
v 11.514004382253322 23.045816394099326 8.30630873122562 1.0 0.0 0.0
v 13.945389915721979 22.925474002599618 2.8581931204686546 1.0 0.0 0.0
v 15.482187063866771 17.251485488021725 2.0265830555784468 1.0 0.0 0.0
v 15.482187063866771 17.251485488021725 2.0265830555784468 0.55 0.55 0.55
v 13.945389915721979 22.925474002599618 2.8581931204686546 0.55 0.55 0.55
v 14.096558302313234 22.862937482437225 -1.9058244438032257 0.55 0.55 0.55
v 15.458930347946012 17.158755461495176 -2.552311910608323 0.55 0.55 0.55
v 15.458930347946012 17.158755461495176 -2.552311910608323 0.55 0.55 0.55
v 14.096558302313234 22.862937482437225 -1.9058244438032257 0.55 0.55 0.55
v 12.676560918334916 22.8572150376975 -6.442934050645431 0.55 0.55 0.55
v 13.971397396770936 17.142591310753005 -7.036558708349715 0.55 0.55 0.55
v 10.887494413878084 18.41122844469824 -10.887417013999887 1.0 0.0 0.0
v 13.971397396770936 17.142591310753005 -7.036558708349715 1.0 0.0 0.0
v 12.676560918334916 22.8572150376975 -6.442934050645431 1.0 0.0 0.0
v 7.331649248137279 22.858034389397353 -12.201426111856295 1.0 0.0 0.0
v 7.925686367685479 17.1436079298265 -13.495898814374312 1.0 0.0 0.0
v 7.331649248137279 22.858034389397353 -12.201426111856295 0.55 0.55 0.55
v 6.744708305693272 28.572319070994485 -10.903068280437344 0.55 0.55 0.55
v 2.24413491361771 28.57878023003487 -12.633905071380779 0.55 0.55 0.55
v 2.890074234796236 22.873595573873423 -13.968347707697024 0.55 0.55 0.55
v 2.890074234796236 22.873595573873423 -13.968347707697024 0.55 0.55 0.55
v 2.24413491361771 28.57878023003487 -12.633905071380779 0.55 0.55 0.55
v -2.6443173371716475 28.57733929102117 -12.550576004343927 0.55 0.55 0.55
v -1.8626207433499096 22.903865700546135 -14.084466438787006 0.55 0.55 0.55
v -1.8626207433499096 22.903865700546135 -14.084466438787006 0.55 0.55 0.55
v -2.6443173371716475 28.57733929102117 -12.550576004343927 0.55 0.55 0.55
v -7.498593692062447 28.59875281703482 -10.363472626396014 0.55 0.55 0.55
v -7.289988873338322 22.9626076699668 -12.174379818814769 0.55 0.55 0.55
v -10.122494775826535 26.510914957664028 -8.643038923132174 1.0 0.0 0.0
v -7.289988873338322 22.9626076699668 -12.174379818814769 1.0 0.0 0.0
v -7.498593692062447 28.59875281703482 -10.363472626396014 1.0 0.0 0.0
v -11.853994545256437 28.582507836258667 -4.951918123404139 1.0 0.0 0.0
v -12.969869623314334 22.872499652022615 -5.887177164283066 1.0 0.0 0.0
v -13.738135580293713 24.287948476027026 -1.927856528824086 1.0 0.0 0.0
v -12.969869623314334 22.872499652022615 -5.887177164283066 1.0 0.0 0.0
v -11.853994545256437 28.582507836258667 -4.951918123404139 1.0 0.0 0.0
v -12.77479903179106 28.570457018299685 0.8385169623357807 1.0 0.0 0.0
v -14.15301356860479 22.86851514179928 1.3184667846759048 1.0 0.0 0.0
v -13.304691857003156 22.78076495134354 5.181571843173207 1.0 0.0 0.0
v -14.15301356860479 22.86851514179928 1.3184667846759048 1.0 0.0 0.0
v -12.77479903179106 28.570457018299685 0.8385169623357807 1.0 0.0 0.0
v -11.101010199876189 28.472827621264916 6.412259757433507 1.0 0.0 0.0
v -11.648949706790301 23.021322047935364 8.113883610674954 1.0 0.0 0.0
v -11.648949706790301 23.021322047935364 8.113883610674954 0.55 0.55 0.55
v -11.101010199876189 28.472827621264916 6.412259757433507 0.55 0.55 0.55
v -7.431250090337862 28.557126162578264 10.45840378897299 0.55 0.55 0.55
v -8.820673600962724 22.881269070297925 11.14492829309303 0.55 0.55 0.55
v -8.820673600962724 22.881269070297925 11.14492829309303 0.55 0.55 0.55
v -7.431250090337862 28.557126162578264 10.45840378897299 0.55 0.55 0.55
v -1.9468380780937127 28.571828375775443 12.665296087468887 0.55 0.55 0.55
v -2.1558194298679516 22.859562745614813 14.072779628730542 0.55 0.55 0.55
v 1.4566858023601013 23.80174477209189 13.906092775812258 1.0 0.0 0.0
v -2.1558194298679516 22.859562745614813 14.072779628730542 1.0 0.0 0.0
v -1.9468380780937127 28.571828375775443 12.665296087468887 1.0 0.0 0.0
v 3.8891768838373153 28.55737771708139 12.195473523027161 1.0 0.0 0.0
v 5.062814868800006 22.88612333608334 13.313628079877265 1.0 0.0 0.0
v 8.263722017201186 26.496923588468285 10.438295274722838 1.0 0.0 0.0
v 5.062814868800006 22.88612333608334 13.313628079877265 1.0 0.0 0.0
v 3.8891768838373153 28.55737771708139 12.195473523027161 1.0 0.0 0.0
v 9.574671118830915 28.598551350599713 8.477910895978217 1.0 0.0 0.0
v 11.514004382253322 23.045816394099326 8.30630873122562 1.0 0.0 0.0
v 11.514004382253322 23.045816394099326 8.30630873122562 0.55 0.55 0.55
v 9.574671118830915 28.598551350599713 8.477910895978217 0.55 0.55 0.55
v 12.266654209716519 28.564550931736132 3.6594684108049074 0.55 0.55 0.55
v 13.945389915721979 22.925474002599618 2.8581931204686546 0.55 0.55 0.55
v 13.945389915721979 22.925474002599618 2.8581931204686546 0.55 0.55 0.55
v 12.266654209716519 28.564550931736132 3.6594684108049074 0.55 0.55 0.55
v 12.736698654862568 28.56540249389643 -1.2381864368090154 0.55 0.55 0.55
v 14.096558302313234 22.862937482437225 -1.9058244438032257 0.55 0.55 0.55
v 14.096558302313234 22.862937482437225 -1.9058244438032257 0.55 0.55 0.55
v 12.736698654862568 28.56540249389643 -1.2381864368090154 0.55 0.55 0.55
v 11.380654196169749 28.571813015238146 -5.851325266022548 0.55 0.55 0.55
v 12.676560918334916 22.8572150376975 -6.442934050645431 0.55 0.55 0.55
v 12.676560918334916 22.8572150376975 -6.442934050645431 0.55 0.55 0.55
v 11.380654196169749 28.571813015238146 -5.851325266022548 0.55 0.55 0.55
v 6.744708305693272 28.572319070994485 -10.903068280437344 0.55 0.55 0.55
v 7.331649248137279 22.858034389397353 -12.201426111856295 0.55 0.55 0.55
v 6.744708305693272 28.572319070994485 -10.903068280437344 0.55 0.55 0.55
v 6.18169877101091 34.28607184560593 -9.591825195794312 0.55 0.55 0.55
v 1.682800128342323 34.285235323875426 -11.267344436617723 0.55 0.55 0.55
v 2.24413491361771 28.57878023003487 -12.633905071380779 0.55 0.55 0.55
v 2.24413491361771 28.57878023003487 -12.633905071380779 0.55 0.55 0.55
v 1.682800128342323 34.285235323875426 -11.267344436617723 0.55 0.55 0.55
v -3.1534332772170885 34.26084613563866 -10.94488056045766 0.55 0.55 0.55
v -2.6443173371716475 28.57733929102117 -12.550576004343927 0.55 0.55 0.55
v -2.6443173371716475 28.57733929102117 -12.550576004343927 0.55 0.55 0.55
v -3.1534332772170885 34.26084613563866 -10.94488056045766 0.55 0.55 0.55
v -7.501433073220411 34.240114579192976 -8.557122401341761 0.55 0.55 0.55
v -7.498593692062447 28.59875281703482 -10.363472626396014 0.55 0.55 0.55
v -7.498593692062447 28.59875281703482 -10.363472626396014 0.55 0.55 0.55
v -7.501433073220411 34.240114579192976 -8.557122401341761 0.55 0.55 0.55
v -10.62927812069737 34.29019757974625 -4.141848045001109 0.55 0.55 0.55
v -11.853994545256437 28.582507836258667 -4.951918123404139 0.55 0.55 0.55
v -11.853994545256437 28.582507836258667 -4.951918123404139 0.55 0.55 0.55
v -10.62927812069737 34.29019757974625 -4.141848045001109 0.55 0.55 0.55
v -11.338769936355954 34.28440671987168 0.9150888193274118 0.55 0.55 0.55
v -12.77479903179106 28.570457018299685 0.8385169623357807 0.55 0.55 0.55
v -12.77479903179106 28.570457018299685 0.8385169623357807 0.55 0.55 0.55
v -11.338769936355954 34.28440671987168 0.9150888193274118 0.55 0.55 0.55
v -9.870698924869277 34.23471858937434 5.690369935925156 0.55 0.55 0.55
v -11.101010199876189 28.472827621264916 6.412259757433507 0.55 0.55 0.55
v -11.101010199876189 28.472827621264916 6.412259757433507 0.55 0.55 0.55
v -9.870698924869277 34.23471858937434 5.690369935925156 0.55 0.55 0.55
v -6.562762405327498 34.27788573054552 9.329906202837709 0.55 0.55 0.55
v -7.431250090337862 28.557126162578264 10.45840378897299 0.55 0.55 0.55
v -7.431250090337862 28.557126162578264 10.45840378897299 0.55 0.55 0.55
v -6.562762405327498 34.27788573054552 9.329906202837709 0.55 0.55 0.55
v -1.9345148726819246 34.28551385354343 11.238088447159054 0.55 0.55 0.55
v -1.9468380780937127 28.571828375775443 12.665296087468887 0.55 0.55 0.55
v -1.9468380780937127 28.571828375775443 12.665296087468887 0.55 0.55 0.55
v -1.9345148726819246 34.28551385354343 11.238088447159054 0.55 0.55 0.55
v 3.1312783256101184 34.274632195447246 10.938550150807178 0.55 0.55 0.55
v 3.8891768838373153 28.55737771708139 12.195473523027161 0.55 0.55 0.55
v 3.8891768838373153 28.55737771708139 12.195473523027161 0.55 0.55 0.55
v 3.1312783256101184 34.274632195447246 10.938550150807178 0.55 0.55 0.55
v 7.78770487238418 34.23141989044325 8.307148474701682 0.55 0.55 0.55
v 9.574671118830915 28.598551350599713 8.477910895978217 0.55 0.55 0.55
v 9.574671118830915 28.598551350599713 8.477910895978217 0.55 0.55 0.55
v 7.78770487238418 34.23141989044325 8.307148474701682 0.55 0.55 0.55
v 10.647145084458522 34.25473186138093 4.141670701122983 0.55 0.55 0.55
v 12.266654209716519 28.564550931736132 3.6594684108049074 0.55 0.55 0.55
v 12.266654209716519 28.564550931736132 3.6594684108049074 0.55 0.55 0.55
v 10.647145084458522 34.25473186138093 4.141670701122983 0.55 0.55 0.55
v 11.363164887673854 34.27676983596308 -0.6867873733912184 0.55 0.55 0.55
v 12.736698654862568 28.56540249389643 -1.2381864368090154 0.55 0.55 0.55
v 12.736698654862568 28.56540249389643 -1.2381864368090154 0.55 0.55 0.55
v 11.363164887673854 34.27676983596308 -0.6867873733912184 0.55 0.55 0.55
v 10.067200997553563 34.28574222120864 -5.2928964594725745 0.55 0.55 0.55
v 11.380654196169749 28.571813015238146 -5.851325266022548 0.55 0.55 0.55
v 11.380654196169749 28.571813015238146 -5.851325266022548 0.55 0.55 0.55
v 10.067200997553563 34.28574222120864 -5.2928964594725745 0.55 0.55 0.55
v 6.18169877101091 34.28607184560593 -9.591825195794312 0.55 0.55 0.55
v 6.744708305693272 28.572319070994485 -10.903068280437344 0.55 0.55 0.55
v 6.18169877101091 34.28607184560593 -9.591825195794312 0.55 0.55 0.55
v 5.570877429984575 39.99998649049993 -8.30365202177337 0.55 0.55 0.55
v 1.3018864560351735 39.998558205326034 -9.869017872324845 0.55 0.55 0.55
v 1.682800128342323 34.285235323875426 -11.267344436617723 0.55 0.55 0.55
v 1.682800128342323 34.285235323875426 -11.267344436617723 0.55 0.55 0.55
v 1.3018864560351735 39.998558205326034 -9.869017872324845 0.55 0.55 0.55
v -3.137165355620785 39.994787858058594 -9.444824542323186 0.55 0.55 0.55
v -3.1534332772170885 34.26084613563866 -10.94488056045766 0.55 0.55 0.55
v -3.1534332772170885 34.26084613563866 -10.94488056045766 0.55 0.55 0.55
v -3.137165355620785 39.994787858058594 -9.444824542323186 0.55 0.55 0.55
v -7.062138758283119 39.984033405028626 -7.096851783741759 0.55 0.55 0.55
v -7.501433073220411 34.240114579192976 -8.557122401341761 0.55 0.55 0.55
v -7.501433073220411 34.240114579192976 -8.557122401341761 0.55 0.55 0.55
v -7.062138758283119 39.984033405028626 -7.096851783741759 0.55 0.55 0.55
v -9.36710729560305 39.99918053206571 -3.4056656669197265 0.55 0.55 0.55
v -10.62927812069737 34.29019757974625 -4.141848045001109 0.55 0.55 0.55
v -10.62927812069737 34.29019757974625 -4.141848045001109 0.55 0.55 0.55
v -9.36710729560305 39.99918053206571 -3.4056656669197265 0.55 0.55 0.55
v -9.90460429857291 39.999157667495965 0.9707068670780412 0.55 0.55 0.55
v -11.338769936355954 34.28440671987168 0.9150888193274118 0.55 0.55 0.55
v -11.338769936355954 34.28440671987168 0.9150888193274118 0.55 0.55 0.55
v -9.90460429857291 39.999157667495965 0.9707068670780412 0.55 0.55 0.55
v -8.593544348769765 39.994924864163124 5.038581941275732 0.55 0.55 0.55
v -9.870698924869277 34.23471858937434 5.690369935925156 0.55 0.55 0.55
v -9.870698924869277 34.23471858937434 5.690369935925156 0.55 0.55 0.55
v -8.593544348769765 39.994924864163124 5.038581941275732 0.55 0.55 0.55
v -5.753300118806401 39.997925137957345 8.15319956159488 0.55 0.55 0.55
v -6.562762405327498 34.27788573054552 9.329906202837709 0.55 0.55 0.55
v -6.562762405327498 34.27788573054552 9.329906202837709 0.55 0.55 0.55
v -5.753300118806401 39.997925137957345 8.15319956159488 0.55 0.55 0.55
v -1.88319994706367 39.999832106402444 9.814562962394632 0.55 0.55 0.55
v -1.9345148726819246 34.28551385354343 11.238088447159054 0.55 0.55 0.55
v -1.9345148726819246 34.28551385354343 11.238088447159054 0.55 0.55 0.55
v -1.88319994706367 39.999832106402444 9.814562962394632 0.55 0.55 0.55
v 2.501318527157852 39.997925653518536 9.64101546466424 0.55 0.55 0.55
v 3.1312783256101184 34.274632195447246 10.938550150807178 0.55 0.55 0.55
v 3.1312783256101184 34.274632195447246 10.938550150807178 0.55 0.55 0.55
v 2.501318527157852 39.997925653518536 9.64101546466424 0.55 0.55 0.55
v 6.38520238987331 39.97498087372273 7.671848532044331 0.55 0.55 0.55
v 7.78770487238418 34.23141989044325 8.307148474701682 0.55 0.55 0.55
v 7.78770487238418 34.23141989044325 8.307148474701682 0.55 0.55 0.55
v 6.38520238987331 39.97498087372273 7.671848532044331 0.55 0.55 0.55
v 9.138394607583889 39.99413835787644 4.020930695143846 0.55 0.55 0.55
v 10.647145084458522 34.25473186138093 4.141670701122983 0.55 0.55 0.55
v 10.647145084458522 34.25473186138093 4.141670701122983 0.55 0.55 0.55
v 9.138394607583889 39.99413835787644 4.020930695143846 0.55 0.55 0.55
v 9.963994832586655 39.99919669358262 -0.3676056156146523 0.55 0.55 0.55
v 11.363164887673854 34.27676983596308 -0.6867873733912184 0.55 0.55 0.55
v 11.363164887673854 34.27676983596308 -0.6867873733912184 0.55 0.55 0.55
v 9.963994832586655 39.99919669358262 -0.3676056156146523 0.55 0.55 0.55
v 8.762190766246874 39.999950584271836 -4.718524735927694 0.55 0.55 0.55
v 10.067200997553563 34.28574222120864 -5.2928964594725745 0.55 0.55 0.55
v 10.067200997553563 34.28574222120864 -5.2928964594725745 0.55 0.55 0.55
v 8.762190766246874 39.999950584271836 -4.718524735927694 0.55 0.55 0.55
v 5.570877429984575 39.99998649049993 -8.30365202177337 0.55 0.55 0.55
v 6.18169877101091 34.28607184560593 -9.591825195794312 0.55 0.55 0.55
f 1 2 3 4
f 5 6 7 8
f 9 10 11 12
f 13 14 15 16
f 17 18 19 20
f 21 22 23 24
f 25 26 27 28
f 29 30 31 32
f 33 34 35 36
f 37 38 39 40
f 41 42 43 44
f 45 46 47 48
f 49 50 51 52
f 53 54 55 56
f 57 58 59 60
f 61 62 63 64
f 65 66 67 68
f 69 70 71 72
f 73 74 75 76
f 77 78 79 80
f 81 82 83 84
f 85 86 87 88 89
f 90 91 92 93
f 94 95 96 97
f 98 99 100 101
f 102 103 104 105
f 106 107 108 109
f 110 111 112 113
f 114 115 116 117
f 118 119 120 121
f 122 123 124 125
f 126 127 128 129
f 130 131 132 133
f 134 135 136 137
f 138 139 140 141
f 142 143 144 145
f 146 147 148 149
f 150 151 152 153
f 154 155 156 157
f 158 159 160 161
f 162 163 164 165
f 166 167 168 169
f 170 171 172 173
f 174 175 176 177
f 178 179 180 181
f 182 183 184 185 186
f 187 188 189 190
f 191 192 193 194
f 195 196 197 198 199
f 200 201 202 203
f 204 205 206 207
f 208 209 210 211
f 212 213 214 215
f 216 217 218 219
f 220 221 222 223
f 224 225 226 227
f 228 229 230 231
f 232 233 234 235
f 236 237 238 239
f 240 241 242 243
f 244 245 246 247
f 248 249 250 251
f 252 253 254 255
f 256 257 258 259
f 260 261 262 263
f 264 265 266 267
f 268 269 270 271
f 272 273 274 275
f 276 277 278 279
f 280 281 282 283
f 284 285 286 287
f 288 289 290 291
f 292 293 294 295
f 296 297 298 299
f 300 301 302 303
f 304 305 306 307
f 308 309 310 311
f 312 313 314 315
f 316 317 318 319 320
f 321 322 323 324
f 325 326 327 328
f 329 330 331 332
f 333 334 335 336
f 337 338 339 340 341
f 342 343 344 345
f 346 347 348 349
f 350 351 352 353 354
f 355 356 357 358
f 359 360 361 362
f 363 364 365 366
f 367 368 369 370 371
f 372 373 374 375 376
f 377 378 379 380 381
f 382 383 384 385
f 386 387 388 389
f 390 391 392 393 394
f 395 396 397 398 399
f 400 401 402 403
f 404 405 406 407
f 408 409 410 411
f 412 413 414 415
f 416 417 418 419
f 420 421 422 423
f 424 425 426 427
f 428 429 430 431
f 432 433 434 435
f 436 437 438 439
f 440 441 442 443
f 444 445 446 447
f 448 449 450 451
f 452 453 454 455
f 456 457 458 459
f 460 461 462 463
f 464 465 466 467
f 468 469 470 471
f 472 473 474 475
f 476 477 478 479
f 480 481 482 483
f 484 485 486 487
f 488 489 490 491
f 492 493 494 495
f 496 497 498 499
f 500 501 502 503
f 504 505 506 507
f 508 509 510 511
f 512 513 514 515
f 516 517 518 519
f 520 521 522 523
f 524 525 526 527
